<?xml version="1.0" standalone="no"?>
<!DOCTYPE svg PUBLIC "-//W3C//DTD SVG 20010904//EN"
 "http://www.w3.org/TR/2001/REC-SVG-20010904/DTD/svg10.dtd">
<svg version="1.0" xmlns="http://www.w3.org/2000/svg"
 width="2048.000000pt" height="2045.000000pt" viewBox="0 0 2048.000000 2045.000000"
 preserveAspectRatio="xMidYMid meet">
<metadata>
Created by potrace 1.16, written by Peter Selinger 2001-2019
</metadata>
<g transform="translate(0.000000,2045.000000) scale(0.100000,-0.100000)"
fill="#000000" stroke="none">
<path d="M3670 18425 l0 -1195 4018 2 4017 3 3 1193 2 1192 -4020 0 -4020 0 0
-1195z m1804 488 c20 -68 246 -961 246 -974 0 -6 -20 -9 -51 -7 l-52 3 -36
150 -37 150 -134 0 -134 0 -28 -115 c-15 -63 -30 -131 -35 -150 -8 -34 -9 -35
-61 -38 -48 -3 -53 -1 -48 15 8 27 246 970 246 977 0 3 27 6 59 6 48 0 61 -3
65 -17z m1744 -25 c137 -289 263 -564 298 -653 l43 -110 1 403 0 402 45 0 45
0 0 -501 0 -500 -52 3 -52 3 -57 125 c-31 69 -62 136 -69 150 -16 36 -149 328
-170 375 -10 22 -29 69 -42 105 l-23 65 -3 -412 -2 -413 -45 0 -45 0 0 500 0
500 54 0 c54 0 54 0 74 -42z m1893 25 c22 -26 18 -112 -5 -129 -48 -34 -96 -1
-96 66 0 48 24 80 59 80 16 0 35 -7 42 -17z m-2521 -270 c36 -24 45 -34 70
-82 25 -50 27 -81 34 -408 l5 -223 -45 0 -44 0 0 42 0 42 -36 -38 c-87 -92
-194 -87 -260 14 -19 28 -29 59 -32 97 -14 170 85 283 258 295 l55 4 -3 49
c-3 56 -27 104 -63 123 -32 17 -112 8 -154 -18 -37 -23 -40 -21 -50 31 -6 34
-4 38 30 59 21 13 51 27 69 31 44 11 136 1 166 -18z m1522 10 c58 -22 121 -90
149 -160 21 -51 24 -75 24 -198 0 -122 -3 -148 -23 -201 -27 -72 -83 -133
-149 -164 -93 -44 -209 -5 -272 92 -39 59 -71 179 -71 267 0 68 28 189 57 245
56 108 180 160 285 119z m1436 -50 l3 -63 -35 0 c-44 0 -88 -36 -112 -92 -16
-37 -19 -78 -22 -281 l-4 -238 -43 3 -43 3 -5 358 -4 358 41 -3 41 -3 5 -60 5
-60 19 42 c10 23 26 49 35 57 27 25 75 46 96 44 17 -3 20 -12 23 -65z m368 32
c43 -33 71 -81 83 -141 6 -27 12 -165 13 -307 l3 -257 -42 0 -43 0 0 41 0 41
-50 -46 c-66 -58 -118 -69 -184 -36 -63 30 -96 97 -96 194 1 165 96 249 293
260 19 1 22 6 19 41 -5 65 -21 103 -54 126 -24 18 -39 21 -80 16 -28 -4 -66
-15 -85 -27 -19 -11 -36 -20 -38 -20 -2 0 -6 18 -10 41 -8 49 0 59 70 88 67
28 154 22 201 -14z m-4063 -37 c8 -29 27 -98 42 -153 14 -55 37 -138 50 -185
13 -47 27 -102 31 -122 6 -38 24 -53 24 -20 0 9 29 132 64 272 l64 255 51 3
c34 2 51 -1 51 -8 0 -7 -14 -58 -30 -113 -25 -85 -120 -411 -175 -602 -42
-145 -163 -315 -225 -315 -12 0 -20 14 -28 48 l-10 47 55 50 c60 53 113 147
113 199 0 17 -37 152 -81 300 -45 149 -87 291 -94 316 -7 25 -16 53 -20 63 -6
15 -1 17 48 17 l56 0 14 -52z m2657 -175 c0 -217 6 -283 32 -346 12 -30 54
-57 89 -57 35 0 83 36 109 82 24 42 25 48 28 296 l4 253 46 -3 47 -3 3 -357 3
-358 -45 0 -45 0 -3 51 -3 51 -30 -40 c-85 -114 -235 -103 -293 22 -33 70 -42
153 -42 404 l0 232 50 0 50 0 0 -227z m610 -134 l0 -360 -47 3 -48 3 -2 349
c-2 192 0 352 3 357 3 5 25 9 50 9 l44 0 0 -361z"/>
<path d="M5400 18778 c0 -13 -22 -113 -49 -223 -33 -132 -46 -202 -39 -206 13
-8 194 -6 202 1 3 3 -17 93 -44 200 -28 107 -50 205 -50 217 0 12 -4 25 -10
28 -6 3 -10 -4 -10 -17z"/>
<path d="M6463 18270 c-63 -28 -85 -70 -80 -149 3 -55 7 -67 31 -87 52 -46
127 -19 165 58 16 34 21 63 21 121 l0 77 -47 0 c-27 0 -67 -9 -90 -20z"/>
<path d="M7970 18547 c-118 -78 -136 -364 -32 -489 67 -79 167 -56 219 52 39
79 45 229 13 324 -40 122 -121 167 -200 113z"/>
<path d="M9795 18278 c-77 -27 -112 -101 -91 -195 9 -38 48 -73 83 -73 79 0
132 84 133 208 l0 72 -47 -1 c-27 0 -61 -5 -78 -11z"/>
<path d="M16455 19355 c-66 -8 -158 -26 -205 -40 -47 -14 -113 -35 -148 -46
-34 -10 -72 -19 -85 -19 -12 0 -69 -23 -126 -50 -57 -28 -108 -50 -113 -50
-10 0 -61 -35 -98 -67 -13 -13 -28 -23 -32 -23 -9 0 -78 -68 -78 -78 0 -4 -14
-23 -31 -42 -17 -19 -43 -59 -56 -88 -14 -29 -29 -55 -34 -58 -5 -3 -9 -12 -9
-20 0 -8 -15 -38 -33 -67 -18 -29 -45 -77 -60 -107 -15 -30 -31 -62 -36 -70
-18 -28 -40 -84 -55 -140 -7 -31 -31 -105 -51 -165 -35 -102 -38 -122 -46
-278 -7 -130 -14 -181 -30 -225 -39 -105 -51 -168 -75 -372 -7 -63 -29 -168
-37 -176 -4 -4 -7 -28 -7 -53 0 -25 -6 -66 -14 -91 -7 -25 -16 -88 -20 -140
-4 -53 -16 -129 -27 -170 -11 -41 -24 -89 -28 -106 -5 -18 -11 -36 -15 -42 -3
-6 -13 -49 -21 -97 -9 -47 -32 -150 -51 -228 -20 -78 -42 -170 -49 -203 -13
-66 -38 -147 -62 -204 -9 -19 -21 -53 -28 -75 -7 -22 -23 -65 -35 -95 -11 -30
-36 -98 -55 -150 -86 -246 -182 -498 -205 -537 -15 -28 -60 -134 -75 -178 -65
-191 -73 -204 -135 -205 -25 0 -155 -25 -181 -35 -8 -3 -44 -9 -80 -14 -101
-14 -164 -48 -255 -137 -83 -82 -88 -88 -169 -194 -27 -36 -52 -67 -55 -70
-20 -17 -73 -120 -77 -150 -5 -32 -11 -39 -57 -61 -37 -17 -97 -70 -217 -189
-92 -91 -190 -194 -219 -230 -29 -36 -62 -74 -72 -85 -35 -36 -95 -119 -116
-161 -12 -23 -28 -49 -37 -57 -8 -8 -31 -47 -50 -86 -19 -38 -40 -73 -45 -76
-6 -3 -10 -15 -10 -26 0 -10 -4 -19 -10 -19 -5 0 -10 -5 -10 -11 0 -6 -22 -57
-48 -113 -27 -55 -54 -117 -61 -137 -11 -34 -15 -37 -61 -43 -59 -8 -74 -29
-83 -115 -8 -66 -44 -141 -95 -198 -138 -156 -272 -355 -272 -405 0 -23 -50
-88 -132 -174 -70 -72 -138 -175 -138 -210 0 -5 -11 -33 -24 -61 -25 -50 -71
-96 -150 -150 -22 -15 -62 -48 -88 -72 l-48 -44 0 -133 0 -133 -32 -38 c-18
-21 -76 -81 -129 -133 -193 -191 -227 -279 -200 -529 10 -90 9 -123 -5 -216
-40 -267 -30 -328 70 -446 17 -19 42 -49 56 -65 75 -88 114 -131 223 -247 107
-112 142 -141 292 -242 93 -64 190 -128 215 -144 179 -114 241 -151 249 -151
5 0 11 -4 13 -8 2 -5 46 -32 98 -61 52 -28 106 -58 120 -66 14 -7 27 -21 28
-30 3 -15 -52 -168 -69 -190 -4 -6 -16 -33 -27 -60 -11 -28 -33 -74 -50 -101
-16 -28 -33 -62 -37 -75 -4 -13 -22 -46 -40 -74 -17 -27 -78 -142 -134 -254
-56 -112 -115 -227 -130 -255 -51 -93 -78 -147 -329 -656 -136 -278 -274 -547
-305 -598 -31 -51 -57 -95 -57 -98 0 -2 -34 -62 -75 -132 -41 -70 -75 -135
-75 -144 0 -9 25 -53 56 -97 68 -99 121 -213 135 -288 9 -46 34 -99 59 -123 3
-3 27 -34 53 -70 26 -36 56 -74 65 -85 10 -11 31 -38 48 -60 16 -22 31 -42 35
-45 10 -9 93 -123 121 -166 20 -32 27 -58 30 -110 l4 -69 77 3 77 3 0 -47 c0
-26 -7 -131 -16 -233 -13 -146 -15 -269 -11 -581 3 -220 10 -428 16 -470 7
-41 19 -122 27 -180 19 -129 39 -234 69 -365 13 -55 27 -118 31 -140 11 -70
80 -307 121 -418 l25 -67 69 61 c38 34 69 65 69 69 0 5 8 11 18 15 9 3 49 36
89 73 39 37 106 99 149 137 42 39 89 81 104 95 38 35 174 158 310 280 63 57
122 110 131 119 8 9 53 50 100 91 46 41 118 107 159 145 77 71 228 209 266
242 46 40 326 294 355 322 9 9 34 31 55 50 83 74 232 208 294 266 36 33 105
96 155 140 49 44 98 89 110 101 11 11 64 59 117 107 54 47 122 108 150 135 29
27 85 78 124 113 39 35 113 102 164 149 51 47 98 90 104 95 6 6 34 30 61 54
28 24 82 74 120 110 39 36 104 95 145 131 41 36 98 88 127 115 29 28 59 55 67
62 34 29 353 318 367 332 13 13 69 64 179 161 24 21 215 196 275 251 45 42
431 391 545 494 24 22 74 67 110 101 65 60 126 116 166 151 29 25 190 171 229
208 18 17 74 68 126 115 278 253 329 302 329 318 0 6 4 12 9 12 4 0 11 163 15
363 7 380 3 440 -40 587 -24 85 -28 127 -12 153 20 31 45 103 57 162 5 28 14
68 20 90 6 22 15 65 21 96 6 31 19 65 28 75 10 10 50 57 88 104 39 47 104 119
145 161 41 42 115 123 164 180 50 56 105 119 123 138 69 77 214 302 320 501
25 47 51 92 59 101 7 8 13 18 13 22 0 16 188 328 270 448 10 14 36 61 58 105
22 43 58 110 81 149 44 75 53 106 20 66 -17 -21 -22 -22 -30 -10 -14 22 -11
36 11 42 14 4 20 14 20 35 0 17 9 37 21 48 16 14 20 28 17 60 -2 23 0 40 4 38
3 -2 16 8 28 23 18 23 21 36 16 72 -3 25 -14 53 -23 63 -20 22 -6 24 18 2 22
-20 49 -12 56 16 3 11 10 20 17 20 6 0 5 4 -3 9 -26 17 8 151 45 178 15 11 19
28 21 85 1 64 4 73 23 80 18 7 20 13 15 38 -8 37 21 121 40 114 14 -6 29 86
15 99 -10 11 -1 47 12 47 5 0 8 20 7 44 -2 26 3 51 10 60 12 14 11 19 -3 35
-13 15 -14 24 -6 46 6 15 7 44 4 64 l-7 36 21 -19 c12 -10 27 -34 34 -52 17
-49 35 -42 43 15 12 89 -28 196 -128 344 -21 32 -50 82 -63 111 -13 29 -34 62
-45 72 -12 10 -33 37 -47 58 -13 22 -28 44 -33 50 -5 6 -20 25 -34 42 -14 18
-25 36 -25 40 0 5 -16 24 -35 43 -19 18 -32 37 -29 42 3 5 -2 9 -10 9 -9 0
-16 9 -16 20 0 10 -8 24 -18 29 -20 10 -59 98 -48 108 3 3 17 6 31 6 22 0 25
3 25 38 0 22 -3 39 -8 39 -4 0 -13 12 -19 28 -7 15 -31 47 -53 72 -22 24 -40
47 -40 50 0 3 -15 12 -34 18 -19 7 -37 21 -39 30 -3 10 -5 7 -6 -9 -1 -31 -31
-63 -31 -34 0 10 -3 15 -7 11 -4 -4 1 -22 12 -41 19 -37 16 -52 -9 -38 -30 16
-116 105 -116 119 0 8 -4 14 -8 14 -5 0 -14 11 -21 24 -7 13 -24 29 -37 35
-13 6 -24 15 -24 21 0 10 -51 120 -151 326 -21 44 -39 89 -39 100 0 11 -4 24
-9 29 -21 24 -81 146 -81 166 0 27 -21 101 -32 114 -4 5 -8 21 -8 37 0 64 -23
178 -36 178 -9 0 -13 16 -13 58 0 32 -3 75 -6 95 -6 30 -4 37 9 37 10 0 16 9
16 25 0 14 5 25 10 25 6 0 10 10 10 21 0 16 -5 20 -20 16 -18 -5 -20 0 -20 38
0 24 5 56 12 72 6 15 15 82 19 148 4 66 11 143 15 170 9 62 10 171 1 343 -3
72 -3 132 2 132 4 0 11 39 14 86 2 47 10 91 17 97 8 9 10 8 4 -6 -3 -9 -1 -24
6 -32 7 -8 10 -26 6 -40 -4 -14 -2 -25 2 -25 5 0 12 28 15 62 4 45 2 65 -9 75
-8 8 -14 10 -14 4 0 -6 -4 -11 -9 -11 -6 0 -6 12 0 32 14 50 27 55 34 14 11
-57 22 -51 30 16 4 35 14 80 21 102 8 21 14 62 14 90 0 29 7 99 16 157 14 97
14 106 -2 137 -14 26 -15 37 -6 58 16 33 15 71 0 77 -10 3 -10 9 0 29 14 25
12 141 -4 291 -6 58 -6 58 15 45 29 -18 40 1 31 53 -11 57 -1 131 16 125 10
-4 14 4 14 26 0 29 -1 30 -13 13 -18 -23 -30 -7 -33 44 -1 20 -4 45 -6 56 -2
17 3 20 32 20 31 0 35 3 32 25 -1 14 -4 68 -5 121 -2 79 -6 101 -21 118 -13
15 -19 39 -21 88 -2 37 -10 97 -18 132 -12 55 -12 67 -1 79 19 18 18 39 -3 52
-15 9 -14 10 5 4 22 -5 23 -4 17 18 -17 52 -109 234 -147 292 -81 119 -274
288 -403 354 -33 16 -98 62 -145 101 -86 73 -237 156 -330 181 -25 7 -58 18
-75 25 -123 53 -391 75 -499 41 -75 -24 -185 -21 -259 8 -34 13 -84 26 -112
30 -27 3 -61 8 -75 11 -58 13 -152 13 -265 0z m597 -918 c4 -29 14 -104 23
-167 9 -63 21 -125 27 -136 10 -21 8 -177 -2 -187 -13 -13 -82 -15 -116 -3
-34 11 -39 17 -40 47 -15 354 -15 383 -5 369 6 -8 11 -27 11 -41 0 -15 9 -38
20 -52 11 -14 20 -30 20 -36 0 -5 6 -14 13 -18 17 -11 34 -49 51 -113 14 -55
34 -111 35 -99 3 29 -23 223 -34 257 -15 42 -29 250 -17 238 3 -4 9 -30 14
-59z m288 -129 c0 -13 26 -38 40 -38 6 0 16 -12 22 -27 7 -16 33 -49 58 -74
61 -62 120 -131 120 -141 0 -15 64 -121 92 -152 16 -17 18 -18 18 -3 0 9 -4
17 -10 17 -5 0 -10 6 -10 13 0 8 7 14 15 14 8 0 15 -5 15 -11 0 -6 21 -33 46
-61 25 -27 56 -66 69 -87 14 -20 29 -39 35 -43 5 -3 10 -13 10 -22 0 -9 12
-41 27 -72 23 -49 28 -74 35 -200 5 -96 5 -156 -2 -180 -6 -20 -22 -94 -35
-166 -13 -71 -35 -171 -49 -222 -13 -50 -22 -101 -19 -113 4 -16 0 -23 -16
-27 -11 -3 -21 -13 -21 -22 0 -9 -7 -27 -14 -41 -52 -91 -131 -286 -173 -422
-3 -10 -9 -18 -13 -18 -4 0 -15 -19 -24 -42 -10 -24 -25 -58 -32 -77 -8 -18
-13 -36 -10 -39 3 -2 -5 -13 -17 -22 -12 -10 -31 -35 -42 -56 -11 -22 -41 -67
-67 -100 -27 -34 -48 -65 -48 -70 0 -10 -63 -68 -130 -118 -30 -22 -56 -44
-58 -48 -2 -5 -10 -8 -18 -8 -8 0 -14 -4 -14 -9 0 -5 -13 -14 -30 -21 -16 -7
-30 -17 -30 -22 0 -6 -7 -7 -16 -4 -8 3 -13 2 -10 -3 3 -5 -16 -14 -42 -21
-26 -7 -54 -19 -62 -25 -21 -17 -184 -95 -198 -95 -7 0 -20 -4 -30 -9 -20 -10
-98 -29 -174 -41 -29 -5 -84 -17 -123 -27 -59 -15 -65 -18 -37 -21 17 -2 32
-7 32 -12 0 -13 74 -32 78 -20 5 15 89 11 167 -9 58 -14 71 -21 73 -39 3 -18
10 -22 43 -22 21 0 39 -4 39 -9 0 -8 47 -26 61 -23 4 1 17 -12 29 -28 25 -33
47 -38 56 -15 6 14 8 13 19 -2 8 -11 26 -18 47 -18 l33 0 -3 -50 c-3 -40 -12
-61 -45 -105 -22 -30 -54 -69 -71 -85 -58 -57 -126 -135 -126 -145 0 -6 -5
-10 -10 -10 -9 0 -38 -27 -97 -91 -12 -13 -38 -40 -57 -58 -25 -24 -32 -37
-24 -42 7 -5 9 -11 5 -15 -3 -4 -12 -2 -19 3 -7 6 -22 7 -33 3 -17 -6 -16 -8
12 -14 33 -8 73 0 73 13 0 4 20 29 45 54 25 26 45 52 45 57 0 17 162 170 181
170 10 0 20 4 24 10 3 5 12 7 19 4 8 -3 17 -1 21 5 9 16 35 13 35 -3 0 -8 -6
-16 -14 -19 -7 -3 -16 -19 -19 -36 -4 -17 -20 -49 -37 -72 -16 -23 -30 -50
-30 -59 0 -9 -15 -24 -32 -34 -18 -9 -25 -14 -15 -12 12 4 17 0 17 -14 0 -10
-4 -22 -10 -25 -5 -3 -39 -65 -76 -138 -78 -155 -98 -233 -83 -327 9 -55 7
-63 -13 -93 -55 -82 -173 -235 -223 -291 -11 -12 -42 -51 -70 -87 -27 -35 -53
-68 -57 -74 -5 -5 -31 -41 -58 -80 -49 -70 -74 -103 -117 -153 -13 -15 -23
-32 -23 -39 0 -6 -4 -13 -9 -15 -17 -6 -181 -232 -181 -248 0 -6 -4 -10 -9
-10 -5 0 -26 -26 -47 -57 -48 -71 -125 -177 -162 -222 -15 -18 -33 -45 -41
-60 -7 -14 -28 -42 -45 -61 -40 -44 -146 -185 -146 -194 0 -6 -54 -80 -70 -96
-3 -3 -14 -21 -24 -40 -10 -19 -33 -53 -51 -75 -17 -22 -42 -58 -55 -80 -13
-21 -32 -47 -42 -57 -10 -10 -18 -23 -18 -29 0 -6 -18 -38 -40 -71 -22 -33
-40 -64 -40 -68 0 -5 -3 -10 -7 -12 -5 -2 -17 -21 -28 -42 -11 -22 -25 -44
-30 -50 -10 -10 -58 -85 -106 -165 -9 -14 -22 -44 -29 -66 -11 -37 -19 -56
-55 -140 -8 -16 -21 -50 -30 -75 -10 -25 -23 -58 -30 -75 -36 -86 -65 -175
-70 -220 -11 -86 -55 -305 -64 -323 -5 -9 -13 -26 -16 -37 -6 -17 -11 -12 -31
30 -12 28 -23 59 -23 71 -1 30 -20 44 -52 37 -21 -4 -30 0 -38 16 -7 12 -26
23 -47 27 -20 4 -55 17 -78 30 -38 21 -167 47 -226 46 -14 0 -34 5 -45 11 -11
6 -38 11 -60 12 -22 0 -75 2 -117 3 l-78 2 0 29 c0 16 4 41 10 55 7 20 4 35
-15 73 -46 91 -88 188 -101 236 -15 57 -5 148 19 175 9 10 17 26 17 34 0 9 6
21 14 27 12 10 17 8 27 -11 7 -13 20 -30 31 -39 10 -9 18 -21 18 -27 0 -26 24
-22 51 8 40 43 74 39 74 -10 0 -26 8 -42 30 -63 l30 -27 23 27 c13 16 34 40
48 54 13 14 24 31 24 37 0 7 5 12 10 12 6 0 10 6 10 13 0 7 16 29 36 48 19 18
44 53 54 75 11 23 26 44 33 47 7 3 33 45 57 94 24 48 53 97 65 108 20 19 37
52 65 124 35 89 119 213 210 311 152 164 204 223 218 250 7 14 28 41 46 61 18
19 41 49 49 66 9 17 22 37 30 45 7 7 28 35 47 63 19 27 43 59 53 70 10 11 30
40 45 65 14 25 29 47 32 50 3 3 12 17 20 31 38 66 56 89 65 85 6 -2 8 -10 6
-17 -2 -8 -10 -39 -17 -69 -8 -30 -23 -84 -33 -120 -25 -84 -39 -142 -60 -260
-16 -85 -50 -186 -73 -216 -4 -6 -17 -37 -28 -69 -11 -32 -24 -63 -29 -69 -5
-6 -15 -31 -22 -56 -7 -25 -19 -53 -27 -63 -24 -28 -6 -31 34 -6 33 20 35 24
20 35 -16 11 -16 13 4 19 12 4 19 9 16 12 -3 3 2 19 10 35 8 16 12 32 10 37
-3 5 5 19 18 32 13 13 29 44 36 69 7 25 16 54 20 65 25 70 34 97 52 160 10 39
26 97 34 131 8 33 30 84 49 113 19 29 35 57 35 62 0 5 5 9 10 9 6 0 10 9 10
19 0 10 7 21 14 24 8 3 20 24 26 45 5 22 17 45 25 52 8 7 15 25 15 40 0 15 6
30 14 33 7 3 16 24 20 46 3 23 15 49 26 58 30 26 76 153 60 163 -7 5 -13 29
-14 55 -1 40 3 50 27 69 16 13 27 32 27 46 0 14 14 40 30 59 16 18 32 50 35
70 3 20 10 43 16 51 18 30 28 59 39 122 15 81 42 168 52 168 4 0 8 8 9 18 2
43 17 -39 19 -108 2 -68 3 -71 11 -35 4 22 8 90 8 150 -1 143 3 171 20 167 11
-2 12 13 8 80 -4 63 -2 88 9 102 17 24 18 77 0 184 -7 45 -9 82 -5 82 5 0 8
56 8 124 -1 69 3 131 7 138 5 7 11 36 15 63 5 46 6 48 16 26 l10 -25 27 27
c25 25 27 32 20 75 -4 26 -15 70 -24 97 -9 28 -15 55 -13 62 6 17 -25 31 -104
47 -38 8 -82 22 -98 30 -17 9 -35 16 -41 16 -6 0 -28 13 -50 30 -21 16 -43 30
-47 30 -13 0 -59 49 -116 125 -29 39 -66 86 -82 105 -16 19 -29 38 -29 42 0 4
-16 32 -35 62 -19 30 -35 58 -35 61 0 4 -23 56 -51 117 -29 61 -55 124 -60
142 -37 145 -49 208 -58 321 -6 72 -16 166 -22 210 -6 44 -9 139 -7 210 3 120
7 138 42 235 20 58 40 116 42 130 19 103 28 143 46 203 15 52 24 67 36 65 9
-2 20 -17 23 -33 4 -17 7 -25 8 -20 1 6 6 0 11 -13 8 -19 13 -21 29 -12 26 13
31 13 31 -5 0 -10 10 -15 34 -15 19 0 38 -5 41 -10 4 -6 10 -8 14 -6 4 3 45 6
92 7 46 1 97 5 114 10 47 12 139 18 150 9 15 -12 76 0 82 16 9 24 -6 62 -38
99 -18 20 -29 38 -26 41 3 3 16 -6 28 -20 28 -32 41 -33 30 -3 -17 43 -93 117
-148 143 -30 14 -57 23 -61 20 -3 -3 -3 -7 -1 -9 2 -2 34 -25 72 -52 69 -50
95 -84 32 -40 -38 25 -111 47 -160 47 -16 0 -33 6 -37 12 -5 7 -11 8 -15 1
-10 -14 -120 -18 -128 -5 -8 13 19 40 39 40 8 0 18 4 21 10 12 19 -54 3 -86
-20 -28 -22 -29 -25 -13 -37 28 -20 11 -25 -29 -8 -46 19 -47 19 -47 -5 0 -28
-28 -25 -35 3 -4 13 -5 43 -3 68 2 36 6 44 23 44 14 0 20 7 21 22 2 37 45 82
87 89 20 4 37 10 37 15 0 16 70 9 107 -11 21 -11 47 -20 58 -20 12 0 30 -7 41
-15 10 -8 30 -15 44 -15 15 0 31 -5 37 -11 5 -5 30 -12 54 -14 24 -2 61 -8 83
-14 36 -9 39 -8 49 18 10 27 11 27 29 9 10 -10 18 -22 18 -28 0 -5 4 -10 9
-10 10 0 18 62 13 99 -2 13 -12 26 -24 29 -13 3 -18 10 -14 21 23 69 32 91 38
91 3 0 9 18 13 40 4 22 10 40 14 40 5 0 16 18 26 40 10 22 22 40 27 40 14 0
35 24 42 46 3 10 3 1 0 -21 -3 -22 -8 -44 -12 -49 -8 -14 -14 -185 -8 -212 4
-15 11 -21 21 -18 18 7 20 -18 5 -47 -9 -16 -7 -21 15 -31 14 -6 28 -8 32 -5
7 7 29 108 44 201 5 33 16 70 25 83 8 13 14 29 13 36 -3 20 13 97 20 97 4 0
14 -6 23 -12 13 -10 19 -44 27 -148 6 -74 11 -165 10 -203 0 -48 3 -67 12 -65
7 2 15 -11 19 -28 9 -41 18 -54 38 -54 9 0 30 -7 46 -15 15 -8 37 -15 47 -15
11 0 22 -7 25 -15 4 -8 16 -15 29 -15 24 0 38 -21 29 -44 -3 -7 2 -16 10 -19
20 -8 21 -46 1 -53 -8 -4 -15 -15 -15 -26 0 -11 4 -16 11 -12 6 3 22 0 37 -7
20 -11 26 -11 29 -1 5 14 43 17 43 2 0 -5 -12 -17 -27 -27 -16 -10 -34 -26
-41 -35 -7 -10 -20 -18 -29 -18 -26 0 -103 -54 -100 -70 2 -11 22 -16 82 -21
75 -5 135 -20 161 -41 7 -5 16 -8 20 -7 5 1 22 -3 37 -9 16 -7 34 -12 42 -12
8 0 16 -3 18 -7 6 -10 145 -8 212 2 28 5 55 15 62 24 10 14 15 14 48 -2 42
-20 133 -14 142 9 3 7 -5 43 -16 78 -12 36 -21 88 -21 115 0 28 -5 73 -11 101
-14 67 -5 78 52 61 23 -7 51 -22 63 -33 11 -11 34 -26 49 -35 28 -14 29 -14
22 7 -4 12 -14 30 -23 39 -10 9 -28 31 -42 49 -14 17 -30 32 -35 32 -15 0
-111 91 -126 120 -21 40 -49 236 -47 335 0 59 13 148 17 122 0 -4 9 -4 18 2
18 10 53 -11 53 -31z m-240 -504 c29 -6 32 -10 28 -40 -2 -19 0 -34 4 -34 4 0
8 7 8 15 0 8 5 15 10 15 6 0 10 -30 10 -70 l0 -70 -25 10 c-13 5 -42 18 -64
30 -22 11 -51 20 -64 20 -14 0 -29 6 -35 13 -13 15 -12 57 1 75 5 6 6 12 1 13
-13 0 58 26 77 28 9 0 31 -2 49 -5z m-1461 -200 c-20 -43 -20 -59 -3 -116 4
-14 -1 -16 -33 -11 -60 9 -83 28 -83 68 0 19 4 35 9 35 5 0 11 8 13 17 2 10
23 25 48 34 69 26 71 24 49 -27z m1225 -101 c-17 -34 -18 -73 -2 -108 15 -34
9 -38 -43 -21 -24 8 -63 20 -86 27 -24 7 -43 15 -43 18 3 41 99 109 157 110
32 1 32 1 17 -26z m-1526 -3672 c3 -59 0 -87 -10 -99 -19 -24 -36 -61 -43 -99
-9 -44 -25 -42 -25 2 0 19 -4 35 -10 35 -16 0 -11 32 8 46 16 13 16 13 0 14
-26 0 -22 37 6 63 17 16 26 37 29 72 3 28 6 51 6 53 1 2 9 2 19 0 14 -3 18
-17 20 -87z m36 -300 c-4 -20 -11 -47 -16 -60 -4 -13 -13 -55 -18 -93 -6 -39
-16 -82 -24 -97 -28 -55 -55 -118 -71 -163 -9 -25 -23 -52 -31 -58 -12 -10
-14 -8 -14 15 0 15 6 41 14 58 8 18 21 53 30 78 8 25 23 63 34 85 11 21 32 94
48 160 21 86 33 120 42 117 9 -4 10 -16 6 -42z m-244 -401 c-6 -19 -10 -50
-10 -68 0 -18 -4 -40 -9 -50 -5 -9 -20 -43 -33 -74 -12 -32 -28 -58 -35 -58
-11 0 -22 -20 -49 -85 -7 -16 -9 -10 -12 25 -2 26 1 46 7 48 6 2 11 10 11 18
0 8 7 17 16 21 8 3 13 12 10 20 -8 20 51 186 75 212 10 11 19 26 19 33 0 8 3
9 10 2 6 -6 6 -22 0 -44z m4332 -167 c37 -107 43 -267 11 -299 -13 -13 -17
-35 -18 -98 0 -44 -3 -83 -7 -86 -8 -6 -69 -116 -93 -167 -8 -18 -33 -46 -55
-64 -28 -23 -40 -40 -40 -59 0 -30 -16 -50 -42 -50 -10 0 -18 -6 -18 -14 0 -7
-7 -19 -15 -26 -10 -8 -12 -17 -6 -28 11 -20 -4 -52 -24 -52 -7 0 -26 5 -42
11 -19 7 -23 13 -15 18 7 4 10 15 6 25 -7 19 30 66 52 66 15 0 44 50 44 74 0
8 14 19 30 25 17 5 30 15 30 20 0 6 9 11 20 11 11 0 20 5 20 10 0 6 -7 10 -15
10 -8 0 -15 4 -15 9 0 14 28 33 40 26 6 -4 10 5 10 23 0 16 7 35 15 42 8 7 15
22 15 34 0 12 9 38 20 58 11 21 26 78 34 128 9 50 17 94 20 99 6 9 6 30 3 204
-1 70 0 127 3 127 3 0 17 -35 32 -77z m-853 -632 c15 -72 21 -136 21 -228 -1
-151 -14 -319 -27 -336 -6 -7 -25 -55 -43 -107 -19 -55 -47 -113 -67 -137 -18
-23 -33 -46 -33 -52 0 -6 -6 -11 -14 -11 -8 0 -23 -10 -33 -22 -10 -13 -28
-31 -39 -40 -20 -18 -20 -17 -16 12 2 16 16 41 29 55 14 14 22 25 18 25 -5 0
0 8 9 19 32 35 86 133 86 156 0 12 6 28 14 34 8 7 16 28 19 49 2 20 14 73 25
118 45 171 45 360 -2 554 -9 36 -16 76 -16 90 0 48 48 -75 69 -179z m-3254
-3762 c84 -22 195 -47 355 -78 52 -11 115 -24 140 -30 25 -6 60 -11 78 -11 17
0 33 -4 34 -10 0 -5 1 -15 2 -20 1 -16 -118 -55 -229 -75 -79 -14 -123 -16
-234 -10 -75 4 -178 8 -228 8 l-93 0 0 41 c0 45 23 177 34 195 10 16 51 13
141 -10z m-2323 -259 c59 -23 151 -68 205 -100 54 -33 109 -65 123 -71 14 -6
36 -17 50 -25 14 -7 44 -22 68 -33 54 -26 56 -45 3 -36 -22 4 -48 2 -58 -3
-12 -7 -38 -6 -78 3 -33 7 -96 20 -140 29 -146 30 -225 57 -225 76 0 31 -26
43 -75 36 -39 -6 -45 -5 -45 11 -1 10 -9 36 -20 58 -25 51 -25 60 1 86 26 26
46 23 191 -31z"/>
<path d="M15715 16428 c-16 -6 -32 -14 -35 -18 -3 -4 -17 -10 -31 -13 -14 -4
-41 -20 -59 -36 l-33 -29 31 -16 c18 -9 32 -23 32 -30 0 -7 12 -34 26 -60 21
-38 31 -46 55 -46 16 0 29 -4 29 -8 0 -18 26 -8 27 11 2 14 -3 18 -18 14 -10
-3 -22 -1 -25 4 -3 5 2 9 10 9 9 0 13 6 10 14 -4 9 6 20 25 30 34 18 81 21 81
6 0 -6 23 -8 63 -3 89 9 243 6 339 -8 46 -7 106 -13 133 -14 28 0 67 -9 87
-19 43 -21 128 -15 128 9 0 15 -51 35 -91 35 -15 0 -31 5 -34 10 -3 6 -17 10
-31 10 -13 0 -24 5 -24 11 0 6 -19 10 -47 8 -27 -1 -61 4 -78 11 -29 11 -189
15 -206 4 -5 -3 -24 2 -41 12 -18 9 -41 21 -51 26 -9 4 -29 5 -43 2 -33 -9
-104 15 -104 34 0 13 2 13 18 -1 22 -20 52 -5 45 23 -3 11 -8 20 -12 21 -56 7
-153 5 -176 -3z"/>
<path d="M5565 16367 c-3 -7 -4 -575 -3 -1262 l3 -1250 163 -3 162 -2 0 1259
c0 1139 -2 1259 -16 1265 -9 3 -81 6 -160 6 -107 0 -146 -3 -149 -13z"/>
<path d="M7960 15730 l0 -390 25 0 25 0 0 390 0 390 -25 0 -25 0 0 -390z"/>
<path d="M8090 15730 l0 -390 30 0 30 0 0 390 0 390 -30 0 -30 0 0 -390z"/>
<path d="M10020 15968 c-1 -120 -3 -149 -12 -133 -39 68 -111 57 -152 -23 -36
-70 -48 -268 -21 -356 35 -116 94 -156 150 -101 14 14 26 31 26 38 1 7 4 -1 8
-18 5 -22 12 -30 29 -30 12 0 22 3 22 8 0 4 0 178 0 387 l0 380 -25 0 -25 0 0
-152z m-37 -186 c57 -62 42 -343 -19 -366 -24 -9 -53 12 -70 52 -20 45 -23
222 -5 267 26 63 63 82 94 47z"/>
<path d="M6495 16071 c-84 -44 -125 -150 -132 -341 -5 -143 7 -222 47 -299 45
-88 123 -121 204 -87 37 15 38 18 33 52 -8 45 -10 48 -35 35 -38 -20 -89 -13
-122 17 -49 44 -70 122 -70 255 0 157 32 256 92 288 27 15 85 14 104 -1 18
-16 21 -13 29 31 8 44 -8 60 -68 66 -29 3 -54 -2 -82 -16z"/>
<path d="M9116 16048 c-5 -35 -26 -565 -26 -655 0 -49 2 -53 24 -53 26 0 24
-24 41 410 2 58 4 116 5 130 1 14 22 -92 46 -235 24 -143 49 -270 54 -283 6
-14 17 -22 27 -20 14 2 21 26 35 103 74 421 84 471 90 425 3 -25 6 -128 7
-230 1 -102 4 -211 8 -242 5 -54 8 -58 31 -58 l24 0 -6 185 c-3 102 -9 268
-12 370 l-6 185 -33 0 c-38 0 -37 3 -75 -210 -11 -63 -25 -133 -29 -155 -5
-22 -15 -77 -22 -122 -7 -46 -14 -81 -16 -80 -1 2 -10 50 -18 108 -9 57 -31
183 -49 279 l-32 175 -32 3 c-28 3 -31 0 -36 -30z"/>
<path d="M6766 15859 c-106 -83 -112 -409 -9 -499 59 -53 116 -32 160 57 27
55 28 65 28 193 0 117 -3 141 -21 181 -12 26 -31 56 -43 68 -27 27 -80 27
-115 0z m69 -55 c9 -4 25 -25 37 -48 30 -59 32 -233 3 -290 -36 -72 -70 -73
-110 -5 -17 29 -20 52 -20 149 0 121 13 166 52 189 22 13 18 12 38 5z"/>
<path d="M7090 15850 c-34 -37 -40 -37 -40 -4 0 21 -4 25 -22 22 -19 -2 -23
-9 -22 -33 1 -16 2 -135 3 -262 l1 -233 25 0 25 0 0 168 c0 122 4 183 15 220
23 76 67 92 96 34 10 -19 15 -84 17 -224 l4 -198 24 0 24 0 0 208 c0 222 -6
264 -45 306 -33 35 -70 34 -105 -4z"/>
<path d="M7352 15864 c-41 -45 -55 -154 -28 -217 7 -18 26 -44 42 -57 45 -38
64 -71 64 -110 -1 -64 -43 -88 -94 -55 -23 15 -24 15 -31 -22 -5 -30 -3 -40
12 -50 49 -37 105 -26 140 26 19 28 23 47 23 108 0 86 -11 111 -74 171 -37 35
-46 49 -46 77 0 22 8 43 20 55 24 24 29 24 56 5 26 -18 34 -11 34 31 0 23 -6
37 -19 44 -28 15 -84 12 -99 -6z"/>
<path d="M7596 15855 c-46 -46 -69 -128 -70 -250 -1 -122 16 -188 60 -239 32
-36 87 -45 137 -21 33 15 36 20 30 48 -8 41 -7 41 -31 28 -71 -38 -142 24
-142 123 l0 46 96 0 97 0 -5 88 c-8 135 -45 202 -113 202 -23 0 -42 -8 -59
-25z m97 -76 c10 -15 22 -47 24 -73 l6 -46 -72 0 c-69 0 -71 1 -71 25 0 28 23
90 42 112 16 20 48 12 71 -18z"/>
<path d="M8271 15851 c-62 -67 -88 -287 -47 -408 31 -92 95 -130 174 -102 35
12 42 24 35 63 -4 20 -10 25 -22 20 -39 -17 -82 -16 -103 2 -29 26 -48 76 -48
124 l0 41 93 -2 92 -3 0 84 c0 139 -40 210 -116 210 -21 0 -39 -9 -58 -29z
m108 -84 c12 -24 21 -58 21 -75 l0 -32 -70 0 c-77 0 -79 2 -60 69 26 92 75
109 109 38z"/>
<path d="M8590 15858 c-8 -13 -18 -30 -22 -38 -4 -9 -7 -2 -7 18 -1 30 -4 33
-28 30 -22 -2 -27 -8 -26 -30 1 -16 1 -134 2 -263 l1 -235 24 0 24 0 4 188 c5
205 15 246 63 258 22 5 25 12 25 50 0 39 -3 44 -23 44 -12 0 -29 -10 -37 -22z"/>
<path d="M8735 15846 c-46 -49 -60 -110 -60 -256 0 -112 3 -130 24 -173 37
-76 107 -106 171 -74 19 10 25 20 25 47 0 26 -4 34 -15 31 -94 -22 -121 -9
-145 72 -29 98 -30 97 86 97 l102 0 -7 80 c-11 137 -51 210 -114 210 -26 0
-42 -8 -67 -34z m100 -60 c9 -13 19 -47 24 -75 l8 -51 -73 0 c-83 0 -85 2 -60
73 27 75 72 98 101 53z"/>
<path d="M9595 15845 c-70 -77 -87 -315 -30 -431 32 -65 69 -89 127 -81 51 7
68 22 68 63 0 33 -21 47 -35 24 -3 -5 -21 -10 -39 -10 -59 0 -92 49 -99 145
l-2 30 99 0 99 0 -6 80 c-8 101 -21 146 -53 185 -38 44 -85 42 -129 -5z m106
-70 c9 -16 20 -49 24 -72 l7 -43 -71 0 -71 0 0 29 c0 62 39 124 74 119 11 -2
28 -16 37 -33z"/>
<path d="M10156 15872 c-3 -3 -6 -124 -6 -269 l0 -263 25 0 25 0 0 264 c0 253
-1 264 -19 269 -11 3 -22 2 -25 -1z"/>
<path d="M10302 15857 c-22 -24 -27 -43 -16 -71 5 -13 10 -12 34 6 52 38 94 6
102 -77 3 -27 0 -30 -34 -35 -81 -14 -118 -65 -126 -171 -10 -145 66 -227 138
-149 28 30 29 30 32 8 2 -15 11 -24 26 -26 l22 -3 0 198 c0 216 -11 285 -52
323 -31 29 -98 27 -126 -3z m128 -304 c-2 -123 -85 -195 -112 -97 -20 72 23
154 82 154 l30 0 0 -57z"/>
<path d="M7830 15605 l0 -265 25 0 25 0 0 265 0 265 -25 0 -25 0 0 -265z"/>
<path d="M8105 14839 c-29 -14 -45 -43 -38 -67 l5 -21 28 20 c37 28 61 21 82
-21 27 -53 22 -119 -13 -213 -18 -45 -35 -86 -39 -92 -24 -30 -70 -136 -70
-159 l0 -26 90 0 90 0 0 30 0 30 -65 0 c-36 0 -65 3 -65 7 0 3 15 34 34 68 19
34 46 95 60 135 66 182 8 361 -99 309z"/>
<path d="M8353 14828 c-32 -36 -41 -58 -52 -141 -20 -146 -8 -318 28 -387 10
-20 30 -39 45 -45 25 -8 31 -6 57 22 45 51 54 99 53 283 0 131 -4 174 -17 210
-32 81 -73 102 -114 58z m88 -117 c17 -80 14 -279 -5 -345 -22 -73 -58 -85
-86 -28 -19 37 -26 302 -10 375 14 68 43 97 71 71 10 -9 23 -42 30 -73z"/>
<path d="M8585 14838 c-27 -15 -35 -28 -35 -61 l0 -28 26 20 c38 29 61 26 84
-11 31 -51 26 -122 -15 -229 -32 -83 -62 -146 -75 -159 -12 -11 -30 -63 -30
-85 0 -25 1 -25 90 -25 l90 0 0 30 0 30 -65 0 c-36 0 -65 3 -65 7 0 3 15 34
34 67 77 140 108 275 81 363 -24 81 -68 111 -120 81z"/>
<path d="M8832 14807 c-31 -32 -40 -56 -25 -70 3 -4 17 3 30 15 13 12 24 17
25 12 3 -19 4 -76 6 -286 2 -186 4 -218 17 -218 13 0 15 39 15 290 0 273 -1
290 -18 290 -10 0 -32 -15 -50 -33z"/>
<path d="M19280 13952 c0 -8 9 -25 20 -39 11 -14 17 -29 14 -34 -3 -5 0 -9 6
-9 6 0 17 -15 24 -32 7 -18 17 -42 21 -53 5 -11 7 -25 6 -32 -1 -6 7 -14 18
-18 26 -8 39 -75 17 -87 -9 -5 -16 -18 -16 -29 0 -11 -7 -22 -15 -25 -21 -8
-19 -19 9 -48 25 -28 42 -33 48 -14 3 7 22 -6 46 -30 23 -23 46 -42 51 -42 9
0 91 -104 91 -115 0 -20 56 -119 81 -144 16 -16 29 -33 29 -38 0 -4 12 -21 28
-38 15 -16 27 -36 28 -42 2 -26 4 -30 19 -30 24 0 27 32 16 203 -12 190 -32
290 -76 375 -27 53 -42 69 -91 99 -60 36 -153 74 -212 85 -36 7 -114 73 -143
120 -11 17 -19 24 -19 17z"/>
<path d="M27 12314 c-4 -4 -7 -2776 -7 -6161 l0 -6153 41 0 c47 0 54 6 154
130 33 41 67 84 76 95 9 11 41 49 70 85 75 90 351 429 424 520 33 41 67 82 75
90 8 8 42 49 75 90 33 41 67 84 76 95 60 72 168 205 189 232 49 61 144 178
150 183 3 3 55 66 114 140 59 74 113 140 119 145 7 6 24 26 38 45 15 19 36 45
47 58 25 28 76 91 111 136 42 54 194 241 200 246 3 3 24 28 46 55 21 28 42 52
45 55 3 3 55 66 115 140 59 74 115 142 122 150 8 8 37 44 65 80 27 36 58 73
67 82 9 9 21 23 26 30 6 7 26 33 45 58 19 25 37 47 41 50 3 3 54 66 114 140
60 74 125 153 144 176 20 22 50 57 66 79 17 21 56 69 88 107 31 38 62 74 67
81 6 7 42 53 82 102 86 108 151 188 158 195 3 3 37 43 75 90 38 47 71 87 74
90 4 3 18 21 33 41 29 39 287 351 297 359 3 3 11 12 16 21 9 15 69 91 113 144
10 11 37 45 62 75 25 30 51 61 58 68 7 8 25 30 40 50 15 21 29 39 33 42 3 3
37 44 75 91 73 90 114 140 204 248 31 36 82 100 115 141 32 41 62 77 65 80 3
3 27 32 52 65 26 33 57 72 70 87 13 14 34 41 48 59 23 29 45 56 98 119 44 53
188 228 240 293 61 75 61 70 -8 147 -17 19 -43 51 -58 70 -15 19 -32 40 -37
46 -6 6 -33 39 -60 74 -60 74 -136 167 -258 315 -31 39 -61 75 -65 80 -17 22
-206 252 -226 275 -11 14 -39 48 -61 75 -22 28 -42 52 -46 55 -3 3 -32 39 -65
80 -59 74 -128 160 -208 254 -22 28 -57 70 -76 95 -19 25 -39 51 -46 56 -6 6
-69 82 -140 170 -140 173 -393 485 -428 525 -11 14 -48 59 -81 100 -33 41 -62
77 -66 80 -4 4 -26 31 -126 155 -9 10 -127 154 -261 320 -135 165 -264 323
-286 350 -23 28 -43 52 -46 55 -10 9 -184 223 -220 270 -19 25 -37 47 -40 50
-3 3 -35 41 -70 85 -36 43 -73 88 -82 100 -9 11 -76 92 -148 180 -72 88 -148
180 -168 204 -20 24 -52 66 -70 93 -38 56 -49 69 -109 136 -24 26 -43 50 -43
53 0 3 -10 17 -22 31 -13 14 -36 42 -53 63 -16 22 -55 69 -85 105 -30 37 -71
86 -90 110 -19 24 -45 55 -57 69 -12 14 -58 71 -103 126 -45 55 -100 121 -121
146 -22 25 -47 57 -57 70 -18 26 -35 47 -67 83 -11 13 -74 89 -140 171 -66 82
-155 191 -197 242 -42 51 -90 109 -105 129 -15 20 -40 50 -57 68 -16 17 -47
55 -69 84 -22 28 -42 52 -46 52 -4 0 -14 12 -23 28 -9 15 -26 38 -38 52 -12
14 -30 35 -41 48 -11 13 -23 32 -27 43 -4 11 -11 17 -15 13z"/>
<path d="M10393 5093 c-17 -16 -72 -66 -123 -113 -96 -87 -149 -135 -325 -296
-55 -50 -118 -106 -140 -125 -22 -19 -47 -41 -55 -50 -8 -9 -44 -43 -80 -75
-177 -159 -246 -221 -269 -244 -14 -14 -64 -59 -110 -100 -47 -41 -94 -84
-105 -95 -30 -28 -196 -179 -226 -205 -14 -12 -68 -61 -120 -109 -52 -48 -117
-107 -145 -131 -27 -24 -86 -78 -130 -120 -65 -61 -312 -286 -385 -350 -43
-38 -165 -148 -189 -170 -41 -39 -204 -186 -227 -207 -12 -10 -66 -59 -120
-109 -55 -50 -153 -140 -219 -200 -66 -60 -122 -111 -125 -114 -3 -3 -27 -25
-55 -49 -27 -25 -97 -88 -155 -141 -58 -54 -130 -119 -160 -145 -30 -26 -89
-80 -130 -119 -62 -58 -312 -286 -380 -346 -66 -59 -168 -150 -194 -175 -34
-32 -193 -176 -224 -204 -11 -9 -64 -57 -118 -107 -102 -93 -275 -251 -423
-384 -46 -41 -97 -88 -115 -104 -17 -15 -71 -65 -121 -110 -49 -44 -114 -104
-145 -132 -85 -80 -112 -104 -198 -179 -44 -38 -81 -73 -81 -77 -1 -5 87 -8
194 -8 172 0 197 2 213 17 47 45 274 251 312 283 14 12 52 47 85 78 33 32 98
91 145 132 47 41 97 86 111 100 14 14 57 53 95 86 78 70 126 114 199 183 28
26 93 85 145 131 52 47 97 87 100 90 3 3 57 52 120 110 64 58 156 142 206 187
49 45 100 91 113 102 13 12 72 65 130 119 58 54 151 139 206 188 140 125 173
155 209 189 18 17 72 66 121 110 50 44 101 91 116 105 14 14 57 53 95 86 38
34 87 79 109 99 22 20 56 51 75 69 19 18 64 59 100 91 36 33 103 94 149 135
46 41 93 84 105 96 12 12 50 47 86 79 86 77 229 207 303 275 32 30 68 62 80
72 12 11 40 36 62 56 22 21 87 80 145 132 101 92 289 263 416 379 33 31 92 84
130 117 38 34 87 79 109 99 22 20 56 51 75 69 19 18 64 59 100 91 36 33 103
94 149 135 47 41 96 86 110 100 14 14 68 64 120 110 52 47 106 96 121 110 41
38 200 183 224 203 91 77 131 129 109 139 -5 2 -41 40 -82 86 -41 45 -77 82
-81 82 -5 0 -21 -12 -37 -27z"/>
</g>
</svg>
