<?xml version="1.0" standalone="no"?>
<!DOCTYPE svg PUBLIC "-//W3C//DTD SVG 20010904//EN"
 "http://www.w3.org/TR/2001/REC-SVG-20010904/DTD/svg10.dtd">
<svg version="1.0" xmlns="http://www.w3.org/2000/svg"
 width="2048.000000pt" height="2044.000000pt" viewBox="0 0 2048.000000 2044.000000"
 preserveAspectRatio="xMidYMid meet">
<metadata>
Created by potrace 1.16, written by Peter Selinger 2001-2019
</metadata>
<g transform="translate(0.000000,2044.000000) scale(0.100000,-0.100000)"
fill="#000000" stroke="none">
<path d="M3670 18420 l0 -1190 4015 0 4015 0 0 1190 0 1190 -4015 0 -4015 0 0
-1190z m6240 56 c0 -271 3 -508 6 -525 l7 -31 -46 0 -46 0 -3 58 -3 57 -32
-46 c-39 -56 -84 -79 -155 -79 -88 0 -155 59 -195 173 -26 74 -26 310 0 383
39 113 126 194 206 194 46 0 106 -28 132 -61 12 -16 25 -29 30 -29 4 0 7 87 7
193 0 105 1 195 1 200 1 4 21 7 46 7 l45 0 0 -494z m-4352 -53 l-3 -498 -47
-3 -48 -3 0 500 0 501 50 0 50 0 -2 -497z m2890 445 l-3 -53 -150 -2 -150 -1
0 -162 0 -162 135 -1 135 -2 3 -52 3 -52 -138 -3 -138 -3 -3 -227 -2 -228 -45
0 -45 0 0 500 0 500 201 0 200 0 -3 -52z m1732 33 c17 -33 12 -99 -10 -121
-25 -25 -41 -25 -70 -2 -26 21 -30 86 -8 121 17 28 73 29 88 2z m-4129 -259
c40 -27 58 -48 75 -89 l16 -38 19 36 c42 83 124 124 200 99 47 -16 71 -41 101
-105 22 -48 23 -62 26 -337 l3 -288 -45 0 -45 0 -3 258 c-3 216 -6 263 -20
295 -45 99 -133 102 -188 5 -25 -42 -25 -47 -28 -300 l-3 -258 -44 0 -44 0 -3
258 c-4 279 -11 322 -63 356 -52 34 -95 18 -145 -54 -25 -34 -25 -39 -30 -295
l-5 -260 -47 -3 -48 -3 0 360 0 361 40 0 c38 0 40 -1 41 -32 1 -18 1 -38 0
-45 -1 -6 3 -14 9 -18 5 -3 10 -2 10 4 0 18 64 84 95 97 42 19 95 17 126 -4z
m920 -16 c52 -35 96 -127 110 -234 6 -45 8 -94 5 -107 l-6 -25 -187 0 -186 0
6 -54 c8 -78 44 -146 93 -173 47 -27 136 -31 191 -8 20 8 38 13 41 10 3 -3 6
-26 6 -52 1 -44 0 -46 -39 -60 -63 -23 -182 -20 -230 4 -80 42 -125 112 -152
237 -31 144 9 332 90 421 23 26 60 53 82 61 54 19 128 11 176 -20z m569 13
c99 -61 124 -169 118 -524 l-3 -190 -47 -3 -48 -3 0 230 c0 269 -8 321 -57
370 -30 30 -38 33 -76 28 -51 -7 -100 -55 -116 -114 -6 -22 -11 -138 -11 -275
l0 -238 -50 0 -50 0 0 361 0 360 43 -3 42 -3 5 -49 5 -50 28 43 c49 75 148
102 217 60z m1278 -46 l3 -63 -35 0 c-44 0 -88 -36 -112 -92 -16 -37 -19 -78
-22 -280 l-4 -238 -44 0 -44 0 0 314 c0 172 -3 334 -6 360 l-7 46 47 0 46 0 0
-62 0 -63 28 50 c31 56 84 97 122 93 23 -3 25 -7 28 -65z m352 60 c19 -3 51
-24 75 -47 57 -55 85 -133 92 -253 l6 -93 -192 0 -191 0 0 -22 c1 -81 54 -184
110 -213 38 -20 137 -19 185 1 20 8 38 14 40 12 1 -2 6 -22 10 -46 l7 -42 -46
-20 c-67 -30 -178 -31 -239 -1 -99 48 -147 145 -154 311 -8 166 26 279 107
360 52 52 112 69 190 53z m1020 -365 c0 -454 -9 -520 -81 -602 -29 -33 -54
-50 -87 -60 -64 -18 -72 -13 -72 45 0 38 4 49 15 49 36 0 77 33 98 78 21 45
22 62 25 445 l3 397 50 0 49 0 0 -352z"/>
<path d="M9632 18549 c-51 -15 -99 -95 -112 -188 -27 -193 41 -351 152 -351
29 0 82 32 102 62 54 83 60 319 11 405 -39 66 -89 89 -153 72z"/>
<path d="M6805 18548 c-11 -7 -25 -17 -31 -23 -21 -21 -53 -93 -60 -134 l-7
-41 142 0 141 0 0 40 c0 50 -23 106 -57 143 -21 21 -36 27 -67 27 -23 0 -50
-6 -61 -12z"/>
<path d="M9075 18556 c-16 -7 -38 -22 -47 -32 -21 -24 -54 -98 -62 -141 l-5
-33 139 0 c76 0 141 4 144 9 8 12 -13 109 -30 143 -26 51 -89 75 -139 54z"/>
<path d="M15695 18206 c-27 -7 -131 -35 -230 -61 -179 -46 -266 -76 -296 -102
-8 -7 -31 -18 -50 -24 -19 -7 -41 -18 -49 -25 -17 -14 -84 -44 -111 -49 -59
-12 -166 -108 -215 -192 -10 -18 -22 -33 -26 -33 -4 0 -18 -10 -31 -22 -14
-13 -39 -34 -56 -48 -17 -14 -39 -33 -48 -42 -10 -10 -22 -18 -27 -18 -9 0
-24 -12 -73 -60 -13 -14 -28 -25 -31 -25 -6 0 -195 -192 -253 -256 -13 -15
-38 -42 -54 -60 -17 -19 -53 -63 -80 -99 -27 -36 -52 -67 -55 -70 -12 -11 -57
-87 -79 -133 -13 -26 -27 -75 -31 -110 -4 -34 -22 -107 -39 -162 -47 -152 -61
-229 -61 -352 0 -94 -3 -119 -22 -160 -21 -45 -23 -61 -22 -243 0 -162 4 -215
23 -310 19 -92 24 -160 28 -337 5 -220 5 -223 -21 -296 -14 -40 -26 -84 -26
-98 0 -13 -7 -37 -16 -54 -9 -16 -17 -44 -19 -61 -2 -17 -10 -58 -18 -90 -43
-166 -57 -248 -57 -336 0 -43 -11 -113 -29 -186 -30 -116 -51 -319 -51 -481 0
-101 27 -272 56 -347 19 -51 24 -83 24 -157 0 -51 4 -108 10 -127 7 -23 6 -54
-1 -95 -5 -33 -16 -103 -24 -155 -8 -52 -21 -124 -29 -160 -42 -176 -58 -263
-66 -350 -5 -52 -21 -138 -35 -190 -14 -52 -32 -131 -40 -175 -8 -44 -30 -134
-50 -200 -19 -66 -35 -130 -35 -143 0 -12 12 -35 28 -50 48 -48 92 -109 92
-129 0 -11 -15 -51 -34 -89 -45 -94 -91 -202 -104 -244 -6 -19 -38 -120 -71
-225 -71 -224 -97 -310 -152 -505 -35 -120 -50 -158 -94 -225 -216 -331 -279
-481 -360 -854 -20 -91 -39 -169 -44 -175 -10 -14 -38 -133 -50 -221 -6 -38
-19 -128 -30 -200 -11 -71 -22 -182 -26 -245 -7 -112 -6 -117 24 -198 l31 -83
0 -387 0 -387 -32 -180 -31 -180 -7 -595 c-4 -404 -10 -613 -18 -650 -11 -51
-26 -140 -113 -685 -16 -104 -37 -226 -46 -270 -14 -66 -18 -182 -23 -660 l-6
-580 -43 -240 c-23 -132 -46 -265 -51 -295 -5 -30 -22 -136 -40 -235 -17 -98
-29 -185 -28 -192 2 -7 25 8 53 35 28 26 96 88 150 137 185 168 220 200 225
205 6 6 190 172 294 265 6 6 61 55 121 110 60 55 115 105 121 110 102 92 171
155 193 175 113 105 350 320 556 505 49 44 117 105 150 136 33 31 112 103 175
159 172 154 161 137 117 174 -20 17 -37 37 -37 44 0 6 -4 12 -9 12 -5 0 -20
17 -32 38 -13 20 -27 39 -31 40 -4 2 -8 9 -8 16 0 8 -9 25 -20 39 -11 14 -20
31 -20 39 0 7 -9 19 -20 26 -21 13 -60 82 -60 107 0 8 -6 15 -12 15 -14 0 -58
98 -58 128 0 9 -14 46 -31 82 -20 42 -32 85 -34 120 -3 51 -43 179 -64 204 -5
6 -15 33 -21 59 -7 26 -16 47 -20 47 -4 0 -10 28 -14 62 -4 43 -19 90 -47 148
-47 96 -74 176 -84 244 -5 29 -14 50 -25 56 -24 13 -34 74 -31 175 2 87 -19
252 -40 300 -8 19 -13 82 -14 170 -1 77 -7 165 -14 195 -26 107 -53 206 -72
262 -13 37 -19 81 -19 130 1 95 -21 202 -54 258 -20 35 -26 59 -26 105 0 33
-7 73 -15 89 -8 15 -15 36 -15 45 0 22 -38 119 -58 150 -19 28 -49 120 -81
246 -11 44 -29 112 -41 150 -12 39 -26 93 -32 120 -5 28 -16 69 -24 93 -38
116 10 532 92 790 13 42 31 100 40 127 14 46 92 219 114 255 6 8 22 35 37 60
56 94 157 245 165 248 4 2 8 8 8 14 0 13 88 98 101 98 12 0 72 -30 79 -39 3
-4 21 -13 40 -21 19 -8 37 -17 40 -20 9 -13 253 -93 319 -106 95 -18 121 -30
121 -55 0 -15 5 -19 15 -15 24 9 156 -11 192 -29 17 -8 47 -16 67 -17 54 -2
59 -16 25 -71 -16 -26 -29 -57 -29 -69 1 -22 2 -22 25 7 14 17 25 25 25 18 0
-6 -4 -15 -10 -18 -5 -3 -10 -19 -10 -36 0 -23 4 -29 21 -29 26 0 114 84 104
100 -8 14 -48 13 -63 -2 -9 -9 -12 -8 -12 5 0 24 66 53 85 37 8 -7 13 -15 10
-19 -2 -4 19 -8 48 -8 29 0 86 -6 127 -14 59 -11 75 -17 72 -30 -2 -14 16 -17
130 -24 73 -4 156 -6 183 -5 28 1 110 2 183 2 160 0 175 -7 118 -56 l-40 -33
22 -30 c12 -17 22 -38 22 -47 0 -9 5 -16 10 -16 6 0 10 13 10 29 0 17 -4 33
-10 36 -5 3 -10 14 -10 23 0 16 6 23 54 62 14 11 54 16 140 20 102 4 126 8
151 26 22 16 50 23 108 26 l77 5 -16 -26 c-9 -14 -27 -37 -40 -52 -49 -52 -15
-69 37 -19 42 40 58 72 51 105 -3 17 -1 26 5 22 6 -4 28 9 51 28 41 36 72 45
72 23 1 -7 12 -26 26 -43 l25 -30 -5 32 c-4 31 -2 33 37 45 23 6 51 17 62 24
11 6 33 15 50 19 16 3 32 10 35 13 7 10 115 62 127 62 5 0 28 9 51 20 22 11
45 20 50 20 6 0 23 7 38 15 16 8 41 15 57 15 34 0 36 -25 5 -78 -13 -20 -41
-72 -62 -114 -22 -43 -43 -78 -48 -78 -4 0 -8 -8 -8 -17 0 -10 -9 -29 -20 -43
-11 -14 -20 -28 -20 -32 0 -4 -17 -33 -38 -65 -21 -32 -52 -85 -68 -118 -16
-33 -31 -62 -34 -65 -3 -3 -23 -39 -44 -80 -22 -41 -56 -106 -76 -145 -20 -38
-47 -97 -59 -130 -13 -33 -32 -82 -43 -110 -10 -27 -32 -88 -48 -135 -16 -47
-50 -143 -75 -215 -26 -71 -51 -148 -56 -170 -6 -21 -14 -44 -18 -50 -4 -5
-13 -28 -19 -50 -5 -22 -26 -85 -45 -140 -20 -55 -41 -122 -47 -148 -5 -26
-20 -68 -32 -93 l-21 -45 -15 31 c-19 39 -23 35 -12 -15 16 -73 12 -119 -24
-265 -63 -253 -64 -254 -84 -177 l-11 42 4 -45 c3 -25 8 -68 11 -96 5 -39 1
-68 -16 -120 -13 -38 -27 -73 -32 -78 -4 -6 -8 -19 -8 -31 0 -12 -4 -25 -9
-31 -17 -19 -52 -153 -82 -319 -15 -79 -15 -453 -1 -655 24 -332 27 -368 32
-373 3 -3 34 22 70 56 36 34 88 82 116 107 28 25 102 92 165 149 190 174 388
353 474 430 47 42 151 135 310 281 192 175 275 251 325 295 30 26 85 75 121
109 36 34 103 95 149 136 96 86 87 78 165 149 33 30 87 80 120 110 57 54 216
197 299 271 22 19 69 62 105 96 36 34 91 83 121 109 30 27 57 51 60 54 3 3 73
67 155 141 83 74 155 140 160 146 6 6 64 60 130 119 66 60 158 142 204 184 95
85 87 79 161 145 30 27 80 72 110 100 30 28 78 71 105 95 28 25 82 74 121 110
39 36 106 98 149 136 43 39 106 95 139 126 70 64 391 356 451 409 21 19 73 67
115 105 41 39 96 89 123 111 l47 42 0 836 0 837 -67 30 c-64 29 -145 65 -293
129 -36 15 -175 76 -310 135 -135 58 -358 154 -497 213 l-252 107 -1 33 c0 17
14 122 30 232 26 173 30 228 30 406 l0 206 -41 141 c-38 133 -52 174 -128 354
-29 69 -70 133 -153 235 -21 25 -61 95 -87 155 -63 138 -101 327 -112 548 -5
109 -14 182 -34 265 -21 92 -28 153 -35 305 -7 168 -37 402 -66 520 -20 82
-151 408 -212 531 -39 76 -100 199 -136 273 -37 74 -75 148 -85 165 -10 17
-38 76 -62 131 -79 185 -174 353 -253 450 -78 95 -224 260 -254 285 -16 14
-69 62 -118 107 -75 68 -221 173 -240 173 -3 0 -24 13 -47 29 -74 50 -101 65
-167 94 -145 63 -300 120 -439 162 l-146 44 -280 5 c-215 4 -292 2 -330 -8z
m-286 -1016 c12 0 21 -6 21 -12 0 -9 25 -14 82 -16 46 -2 85 -7 88 -11 3 -4
25 -13 50 -20 89 -26 216 -97 259 -143 8 -10 20 -18 26 -18 6 0 18 -8 27 -17
28 -31 70 -67 97 -85 14 -10 26 -21 26 -26 0 -4 12 -21 28 -37 15 -16 27 -35
27 -42 0 -7 4 -13 9 -13 5 0 28 -26 52 -57 24 -32 47 -59 52 -61 4 -2 7 -10 7
-17 0 -8 9 -19 20 -25 11 -6 20 -17 20 -24 0 -7 11 -24 24 -38 32 -36 38 -55
18 -63 -13 -5 -10 -9 16 -22 20 -9 41 -32 53 -55 11 -21 26 -38 34 -38 9 0 21
-11 27 -25 6 -14 17 -25 25 -25 7 0 13 -4 13 -10 0 -5 6 -10 13 -10 13 0 53
-59 49 -72 -1 -5 2 -8 6 -8 9 0 57 -89 51 -94 -22 -14 -58 -23 -65 -16 -13 13
-158 29 -162 19 -2 -5 -17 -9 -33 -9 -16 0 -29 -4 -29 -9 0 -4 -57 -9 -127
-10 -70 -1 -141 -6 -158 -11 -16 -5 -68 -14 -115 -20 -47 -6 -101 -17 -120
-25 -19 -7 -60 -18 -90 -25 -62 -13 -160 -72 -160 -95 0 -9 -11 -21 -25 -27
-26 -12 -33 -32 -14 -43 6 -4 8 -14 5 -22 -4 -9 -2 -21 4 -28 12 -14 7 -57
-11 -103 -11 -26 -11 -36 -1 -52 6 -11 12 -31 12 -45 0 -14 5 -25 10 -25 6 0
5 -8 -2 -19 -9 -15 -9 -30 1 -68 7 -26 13 -56 14 -65 1 -10 5 -18 9 -18 4 0 8
-6 8 -14 0 -8 5 -16 11 -18 8 -3 8 -10 -2 -26 -11 -18 -11 -26 -1 -42 6 -11
12 -27 12 -35 0 -18 55 -21 66 -4 4 8 9 7 15 -2 6 -10 9 -11 9 -1 0 6 11 12
24 12 17 0 34 13 55 41 16 23 39 48 50 56 12 8 21 24 22 36 1 20 2 20 8 -3 l7
-25 12 23 c8 14 9 22 2 22 -12 0 -13 24 -1 48 5 9 19 39 31 66 25 56 78 126
96 126 6 0 14 6 17 13 2 7 42 27 88 44 68 26 102 33 182 37 53 2 99 1 101 -3
3 -4 19 -8 37 -9 18 -2 36 -6 39 -11 3 -5 15 -11 28 -15 12 -4 22 -11 22 -16
0 -5 14 -17 32 -26 l31 -16 -24 -19 c-22 -17 -23 -19 -4 -19 16 -1 17 -2 5 -9
-8 -4 -49 -5 -90 -1 -107 10 -278 -10 -339 -39 -9 -5 -33 -16 -54 -26 -21 -10
-61 -40 -90 -66 -29 -27 -57 -48 -64 -49 -11 0 -43 -80 -43 -107 0 -23 42 -32
72 -17 15 8 48 14 73 14 50 0 68 19 42 45 -19 19 -11 52 17 67 11 6 25 17 29
24 4 8 23 14 40 14 28 0 39 -8 70 -50 57 -77 58 -82 6 -76 -24 2 -62 1 -84 -4
-33 -6 -35 -8 -12 -9 39 -1 67 -18 61 -36 -5 -11 1 -15 20 -15 16 0 26 -6 26
-15 0 -10 10 -15 29 -15 29 0 29 1 27 50 -2 37 1 50 11 50 8 0 11 -4 8 -10 -3
-6 4 -10 17 -10 13 0 29 -10 37 -21 12 -20 11 -21 -13 -17 -31 6 -34 -11 -6
-37 10 -9 18 -27 17 -39 -2 -20 2 -21 58 -18 33 2 67 9 75 15 27 21 60 37 76
37 9 0 27 9 41 20 14 11 34 20 44 20 11 0 19 4 19 9 0 5 14 14 30 20 17 5 30
14 30 20 0 5 13 14 30 19 21 8 28 16 24 26 -4 11 -1 16 10 16 9 0 16 8 16 20
0 13 7 20 20 20 11 0 23 7 26 15 4 8 15 15 25 15 10 0 33 13 51 29 44 39 115
62 145 48 13 -6 23 -16 23 -23 0 -6 6 -14 14 -17 7 -3 16 -17 20 -31 3 -13 23
-51 45 -83 21 -32 51 -86 67 -120 15 -35 32 -63 36 -63 4 0 8 -9 8 -19 0 -11
7 -26 15 -35 8 -8 15 -28 15 -44 0 -17 6 -32 13 -35 13 -5 46 -204 46 -275 0
-17 3 -41 6 -52 7 -22 -11 -53 -26 -44 -5 3 -9 0 -9 -5 0 -6 14 -11 30 -11 17
0 30 -4 30 -10 0 -5 -11 -10 -25 -10 -18 0 -25 -5 -25 -19 0 -11 -4 -23 -10
-26 -5 -3 -10 -24 -10 -46 0 -26 -7 -46 -20 -59 -24 -24 -40 -26 -40 -5 0 20
-22 19 -46 -2 -11 -10 -29 -23 -40 -29 -10 -6 -19 -20 -19 -30 0 -13 -8 -20
-27 -22 -44 -5 -33 -22 15 -23 l42 -1 -32 -14 c-36 -15 -48 -30 -33 -39 5 -3
10 -12 10 -19 0 -9 -21 -11 -75 -10 -41 1 -83 5 -93 8 -22 7 -103 -19 -114
-37 -4 -7 -8 -30 -8 -52 -1 -36 -2 -38 -11 -16 -7 17 -13 21 -20 14 -15 -15
-1 -56 17 -49 10 4 14 -3 14 -22 0 -16 15 -45 35 -71 27 -34 32 -47 23 -54 -9
-5 -4 -7 14 -3 16 4 28 1 30 -5 5 -14 48 10 48 26 0 6 9 18 20 28 20 17 29 44
11 33 -5 -4 -7 3 -4 14 5 18 14 20 85 20 l80 0 -6 -27 c-4 -16 -3 -23 2 -16 5
9 14 1 27 -23 11 -20 24 -33 31 -30 10 4 15 -10 20 -44 4 -28 11 -50 16 -50 7
0 8 -34 4 -92 -6 -104 -14 -148 -27 -148 -4 0 -9 -19 -11 -42 -2 -36 -7 -44
-25 -46 -17 -2 -23 -10 -23 -27 0 -17 -4 -23 -14 -19 -16 6 -76 -25 -76 -38 0
-5 9 -3 20 4 10 7 22 9 26 6 11 -11 -6 -28 -29 -28 -17 0 -19 -2 -8 -9 29 -18
-12 -39 -92 -46 -42 -4 -77 -11 -77 -16 0 -5 -7 -9 -15 -9 -8 0 -15 5 -15 10
0 6 7 10 15 10 8 0 15 9 15 20 0 18 -3 19 -20 10 -11 -6 -20 -15 -20 -20 0 -6
-7 -10 -15 -10 -20 0 -75 -56 -75 -76 0 -8 -11 -30 -25 -48 -14 -18 -25 -40
-25 -50 0 -9 -7 -19 -15 -22 -8 -4 -15 -16 -15 -28 0 -12 -9 -38 -19 -58 -11
-19 -17 -38 -14 -42 10 -10 -27 -56 -45 -56 -13 0 -14 -2 -3 -9 17 -11 4 -34
-15 -27 -10 4 -14 -3 -14 -28 0 -27 -4 -32 -22 -32 -17 1 -24 -5 -26 -22 -3
-16 -12 -25 -33 -29 -16 -3 -28 -11 -26 -17 4 -11 -23 -29 -95 -63 -21 -10
-38 -23 -38 -29 0 -6 -18 -17 -40 -24 -22 -7 -40 -17 -40 -22 0 -5 -11 -8 -24
-6 -25 3 -56 -17 -56 -36 0 -20 -132 -66 -187 -66 -27 0 -54 -5 -59 -10 -6 -6
-48 -15 -95 -20 -89 -11 -171 -29 -179 -40 -13 -18 -75 -41 -113 -41 -55 -1
-108 18 -182 66 -33 22 -62 39 -65 40 -8 1 -62 37 -105 70 -22 17 -52 36 -67
43 -16 6 -28 16 -28 22 0 5 -7 10 -15 10 -8 0 -15 5 -15 12 0 6 -3 8 -6 5 -4
-4 -21 5 -38 19 -17 14 -41 33 -54 42 -12 9 -39 32 -60 50 -20 18 -50 43 -66
55 -90 69 -273 253 -297 299 -6 13 -26 41 -44 63 -27 34 -109 206 -162 340 -9
22 -21 54 -28 70 -70 171 -174 547 -196 710 -27 210 -30 252 -20 320 5 39 9
87 7 108 -1 21 1 40 4 42 4 2 7 19 8 38 2 44 18 87 34 88 7 1 22 1 33 0 17 -2
17 0 5 8 -12 9 -12 11 6 11 11 0 24 -3 28 -7 4 -4 21 -8 37 -9 17 -1 40 -11
53 -23 16 -15 36 -21 67 -21 24 0 53 -7 63 -15 23 -17 56 -20 56 -5 0 6 21 10
48 9 39 -2 61 6 122 39 72 39 173 69 270 79 45 5 80 26 80 48 0 7 -9 24 -20
38 -26 33 -25 37 5 37 19 0 26 7 31 28 3 15 7 32 8 37 6 20 -81 125 -103 125
-6 0 -16 8 -23 18 -17 23 -75 57 -111 66 -15 4 -25 11 -22 16 6 9 -107 17
-145 11 -8 -2 -27 -4 -42 -5 -14 0 -24 -4 -22 -7 2 -4 -31 -12 -74 -18 -42 -6
-78 -16 -80 -21 -2 -6 -9 -10 -16 -10 -21 0 -120 -52 -150 -79 -37 -35 -49
-66 -33 -91 18 -30 30 -24 52 25 11 25 23 45 27 45 5 0 17 9 27 19 11 11 59
32 108 48 109 35 255 39 323 8 51 -23 76 -67 53 -91 -14 -13 -14 -17 -2 -24
23 -15 7 -18 -51 -10 -118 16 -328 -23 -405 -75 -17 -12 -42 -27 -57 -35 -16
-7 -28 -19 -28 -26 0 -11 -21 -24 -41 -24 -5 0 -9 8 -9 18 -1 16 -1 16 -14 0
-21 -29 -26 -21 -27 45 -1 49 -3 56 -9 32 -8 -30 -8 -30 -9 8 0 20 -5 37 -10
37 -31 0 -47 235 -19 279 5 9 35 30 65 47 53 28 58 29 181 26 80 -1 128 -6
133 -13 4 -6 12 -8 19 -4 9 5 10 1 6 -16 -3 -13 -3 -18 0 -11 6 13 34 17 34 5
0 -5 18 -9 39 -9 27 -1 41 3 45 13 5 13 19 14 84 8 42 -4 80 -12 84 -19 5 -6
8 -1 8 13 0 24 1 24 14 6 13 -18 15 -18 34 14 17 28 21 30 25 15 3 -13 5 -10
6 9 1 18 -4 27 -14 27 -8 0 -19 8 -24 19 -6 10 -23 22 -38 26 -16 3 -37 15
-48 24 -11 10 -33 21 -50 25 -16 4 -50 11 -75 17 -25 6 -78 7 -120 4 -41 -4
-95 -9 -120 -11 -25 -2 -76 -8 -115 -13 -103 -15 -99 -17 -91 31 4 23 13 50
21 59 8 8 15 23 15 31 0 9 7 29 15 45 13 25 32 68 82 183 35 81 87 185 95 188
4 2 8 9 8 16 0 27 111 231 140 256 11 10 60 86 60 94 0 4 41 46 91 94 51 48
126 120 168 160 41 39 81 72 89 72 7 0 15 7 18 15 4 8 10 15 15 15 4 0 19 10
32 23 39 37 67 57 79 57 6 0 16 7 22 15 15 20 87 30 98 13 6 -10 11 -9 19 5 8
13 14 15 29 7 10 -5 28 -10 39 -10z m1234 -1270 c4 0 7 -11 7 -24 0 -30 24
-56 53 -57 37 -3 -74 -19 -153 -23 -260 -13 -350 -20 -350 -26 0 -10 -199 -9
-206 1 -3 5 3 6 13 2 15 -5 16 -3 6 8 -19 20 -16 29 12 29 28 0 34 16 8 23
-21 5 -14 8 52 25 22 6 69 19 105 30 52 16 96 20 214 21 82 0 150 2 153 4 2 3
21 1 41 -4 20 -5 40 -9 45 -9z m-2036 -692 c7 -20 30 -56 52 -80 45 -48 42
-60 -16 -64 -80 -5 -183 44 -183 86 0 22 55 80 76 80 8 0 14 5 14 11 0 6 10 9
22 7 16 -2 27 -14 35 -40z"/>
<path d="M16058 14503 c-25 -13 -33 -32 -29 -69 1 -6 -6 -17 -14 -24 -8 -7
-15 -9 -15 -4 0 5 -4 3 -9 -5 -10 -16 -22 -18 -138 -23 -46 -2 -83 -5 -83 -8
0 -3 -28 -5 -63 -5 -57 0 -117 -18 -125 -37 -2 -5 -10 -8 -19 -8 -17 0 -97
-45 -113 -65 -6 -7 -39 -16 -73 -20 -34 -4 -72 -13 -84 -21 -32 -20 -49 -18
-96 15 -55 37 -79 44 -101 28 -16 -12 -16 -16 -6 -34 20 -32 111 -73 160 -73
34 0 57 -9 111 -45 38 -25 69 -52 69 -60 0 -8 6 -15 14 -15 8 0 17 -9 21 -19
3 -11 15 -23 26 -26 10 -4 19 -10 19 -14 0 -13 40 -7 49 7 9 16 33 30 111 68
30 14 63 33 73 42 9 8 17 11 17 6 0 -5 4 -2 10 6 6 9 5 17 -3 23 -7 5 -4 6 9
2 14 -4 24 0 28 10 3 8 12 15 21 15 8 0 15 7 15 15 0 9 14 17 38 20 20 4 49
15 64 26 15 10 36 19 48 19 11 0 20 5 20 10 0 6 6 10 14 10 8 0 31 17 50 38
34 35 36 41 36 105 0 48 -4 69 -14 73 -8 3 -11 15 -8 30 2 13 3 24 1 23 -2 -1
-16 -8 -31 -16z"/>
<path d="M15853 13865 c-93 -15 -148 -31 -178 -51 -13 -10 -53 -14 -126 -14
-110 0 -187 -17 -268 -61 -19 -10 -44 -19 -54 -19 -24 0 -188 -58 -210 -74
-20 -16 -14 -42 15 -57 13 -7 29 -6 54 3 30 10 42 10 83 -5 59 -21 85 -21 104
-2 12 11 54 14 238 12 205 -2 229 0 284 19 103 37 202 57 221 46 16 -9 15 -13
-15 -41 -18 -17 -44 -34 -57 -37 -13 -3 -24 -10 -24 -14 0 -4 -17 -11 -37 -15
-21 -4 -65 -18 -98 -32 -49 -20 -82 -26 -180 -30 -66 -3 -152 -1 -192 5 -88
13 -117 7 -103 -18 15 -28 70 -57 125 -65 28 -4 55 -10 60 -15 10 -8 68 -1
180 21 33 6 83 13 110 15 55 4 138 21 170 34 11 4 40 14 64 21 24 7 60 28 80
46 20 18 42 33 49 33 6 0 12 3 12 8 0 4 17 15 38 24 21 9 69 46 106 82 72 69
155 116 205 116 21 0 31 5 31 15 0 8 5 15 10 15 18 0 10 19 -11 25 -39 13 -73
15 -339 19 -195 4 -287 1 -347 -9z"/>
<path d="M5085 16358 c-3 -7 -4 -575 -3 -1263 l3 -1250 160 0 c146 0 160 2
159 18 0 9 -1 577 -2 1262 l-2 1245 -155 0 c-115 0 -157 -3 -160 -12z"/>
<path d="M7018 15735 c-2 -187 -2 -350 0 -362 2 -15 10 -23 23 -23 18 0 19 11
19 363 0 355 0 363 -20 363 -19 0 -20 -9 -22 -341z"/>
<path d="M10147 16074 c-4 -4 -7 -67 -7 -140 l0 -133 -25 24 c-55 56 -120 12
-150 -99 -33 -121 -8 -318 46 -363 8 -6 27 -15 42 -18 23 -6 33 -2 62 30 l35
36 0 -30 c0 -24 4 -31 20 -31 20 0 20 5 18 362 -3 318 -5 363 -18 366 -9 1
-19 0 -23 -4z m-36 -320 c22 -23 24 -35 27 -138 4 -131 -10 -181 -53 -192 -54
-13 -85 48 -85 171 0 83 14 139 41 166 25 25 41 24 70 -7z"/>
<path d="M7140 15709 l0 -360 23 3 22 3 3 358 2 357 -25 0 -25 0 0 -361z"/>
<path d="M8250 15935 l0 -134 -25 24 c-33 34 -70 32 -105 -5 -39 -42 -55 -108
-55 -235 0 -124 18 -190 62 -225 37 -29 61 -25 99 16 l34 35 0 -30 c0 -24 4
-31 20 -31 20 0 20 7 20 360 l0 360 -25 0 -25 0 0 -135z m-29 -181 c22 -23 24
-35 27 -142 4 -130 -10 -177 -55 -188 -51 -13 -83 54 -83 172 0 82 13 132 40
162 27 29 41 28 71 -4z"/>
<path d="M5634 16031 c-66 -40 -110 -146 -120 -289 -10 -142 25 -301 79 -355
31 -31 84 -48 125 -41 50 9 62 21 62 61 0 29 -3 34 -17 28 -74 -29 -130 -9
-162 59 -62 128 -46 366 31 448 24 26 33 29 70 26 24 -3 50 -6 58 -9 11 -3 16
6 18 32 3 33 0 38 -29 48 -46 16 -80 14 -115 -8z"/>
<path d="M5888 15830 c-79 -61 -100 -298 -38 -420 25 -49 45 -64 86 -64 45 0
87 41 108 106 22 68 22 228 -1 297 -28 89 -99 126 -155 81z m90 -75 c26 -33
45 -136 37 -199 -26 -194 -135 -189 -151 7 -13 154 54 268 114 192z"/>
<path d="M6191 15815 l-31 -36 0 31 c0 23 -4 30 -20 30 -19 0 -20 -7 -20 -245
l0 -245 25 0 25 0 0 178 c0 159 2 180 20 210 14 22 27 32 45 32 45 0 54 -37
57 -236 3 -177 3 -179 26 -182 l22 -3 0 175 c0 195 -11 268 -46 303 -33 33
-66 29 -103 -12z"/>
<path d="M6452 15828 c-64 -70 -52 -192 27 -261 42 -37 55 -71 41 -113 -14
-40 -42 -51 -75 -30 -32 21 -32 21 -37 -14 -5 -35 14 -57 59 -66 25 -5 37 0
63 23 29 26 33 35 38 101 6 87 -5 115 -64 172 -34 32 -44 49 -44 74 0 60 24
75 83 51 26 -11 24 60 -2 75 -32 16 -66 12 -89 -12z"/>
<path d="M6684 15832 c-50 -40 -80 -159 -71 -275 8 -96 22 -142 57 -180 25
-28 35 -32 75 -31 57 1 78 19 69 61 l-6 31 -35 -14 c-31 -13 -38 -13 -59 0
-31 21 -44 47 -51 106 l-6 50 87 0 86 0 0 68 c0 83 -13 133 -46 172 -30 34
-67 39 -100 12z"/>
<path d="M7310 15820 c-51 -54 -76 -225 -49 -340 24 -106 65 -146 139 -134 49
8 59 20 53 61 l-5 32 -33 -16 c-31 -15 -36 -15 -60 1 -32 21 -55 72 -55 120
l0 35 83 3 82 3 3 50 c11 162 -80 269 -158 185z"/>
<path d="M7607 15833 c-9 -10 -20 -30 -26 -43 -9 -23 -10 -22 -10 13 -1 30 -5
37 -21 37 -19 0 -20 -7 -20 -246 l0 -245 23 3 c22 3 22 6 27 178 5 187 12 214
56 230 22 9 25 15 22 47 -3 43 -25 54 -51 26z"/>
<path d="M7754 15835 c-61 -42 -93 -238 -60 -365 27 -103 77 -142 153 -117 32
10 38 17 39 40 1 34 -16 43 -46 27 -52 -28 -110 39 -110 125 l0 34 83 3 82 3
3 50 c10 148 -67 255 -144 200z"/>
<path d="M8442 15837 c-13 -6 -35 -34 -50 -61 -35 -69 -44 -250 -17 -324 39
-104 111 -137 171 -77 47 47 73 187 56 300 -22 143 -79 201 -160 162z m67 -67
c32 -17 46 -69 46 -175 0 -107 -15 -153 -56 -176 -25 -13 -55 9 -75 58 -19 45
-18 194 1 240 27 63 45 75 84 53z"/>
<path d="M8707 15839 c-48 -28 -63 -153 -26 -219 12 -21 32 -43 44 -50 46 -24
59 -100 26 -141 -20 -24 -20 -24 -52 -6 -17 10 -33 16 -34 15 -2 -2 -6 -18
-10 -35 -6 -30 -4 -34 29 -49 30 -15 39 -15 66 -4 43 18 60 48 67 114 7 72
-16 137 -63 172 -76 59 -54 177 25 134 16 -8 20 -5 25 23 5 24 2 35 -11 44
-20 16 -61 16 -86 2z"/>
<path d="M8903 15826 c-25 -21 -28 -31 -31 -100 -5 -85 5 -109 64 -159 75 -63
45 -184 -35 -143 -26 14 -30 14 -35 0 -17 -44 0 -70 52 -80 27 -5 37 -1 66 28
38 38 52 93 41 160 -6 32 -20 55 -57 93 -53 54 -66 84 -52 124 11 29 46 40 70
20 17 -14 19 -12 28 23 5 21 1 30 -16 42 -32 22 -62 20 -95 -8z"/>
<path d="M9256 15819 c-43 -51 -59 -127 -54 -254 4 -86 10 -119 27 -152 26
-52 68 -76 117 -67 45 8 63 26 57 58 -6 29 -10 30 -47 16 -53 -20 -98 25 -110
112 l-7 47 88 3 88 3 3 55 c4 71 -23 165 -56 191 -37 29 -76 24 -106 -12z"/>
<path d="M9558 15833 c-8 -10 -20 -27 -26 -38 -10 -18 -11 -17 -12 13 0 29 -3
33 -22 30 -13 -2 -23 -9 -22 -15 1 -7 2 -116 3 -243 1 -217 2 -230 20 -230 17
0 19 13 23 168 4 134 9 174 24 205 11 22 25 37 36 37 15 0 18 8 18 45 0 49
-15 59 -42 28z"/>
<path d="M9687 15839 c-28 -16 -47 -71 -47 -136 0 -64 10 -84 73 -144 41 -41
49 -87 21 -127 -18 -26 -41 -28 -66 -5 -17 15 -20 15 -28 3 -19 -30 -11 -59
21 -76 62 -32 124 14 134 101 10 76 -7 123 -65 182 -53 55 -63 90 -35 127 13
18 26 18 66 2 24 -10 33 43 12 67 -18 19 -58 22 -86 6z"/>
<path d="M10324 15835 c-84 -58 -99 -352 -23 -454 27 -37 75 -47 123 -27 30
12 35 20 34 42 -3 31 -19 40 -47 24 -17 -8 -29 -7 -55 5 -35 17 -56 62 -56
124 l0 31 85 0 85 0 0 63 c0 153 -71 246 -146 192z"/>
<path d="M10726 15835 c-8 -8 -18 -24 -21 -35 -10 -32 -25 -23 -18 10 5 27 3
30 -21 30 -26 0 -26 0 -22 -67 2 -38 4 -148 5 -245 1 -168 2 -178 20 -178 18
0 19 11 23 168 5 181 16 228 54 242 20 8 24 17 24 50 0 43 -16 53 -44 25z"/>
<path d="M10856 15819 c-43 -51 -59 -126 -54 -253 4 -89 9 -120 26 -153 27
-52 69 -76 118 -67 45 8 63 26 57 58 -6 29 -10 30 -47 16 -53 -20 -98 25 -111
112 l-7 47 88 3 89 3 3 61 c3 71 -27 165 -61 189 -35 24 -72 19 -101 -16z"/>
<path d="M11132 15825 c-84 -71 -98 -329 -22 -433 49 -68 141 -64 148 7 l3 33
-41 -7 c-35 -6 -45 -4 -66 16 -30 28 -44 77 -44 154 0 117 42 194 98 180 15
-4 31 -7 37 -8 5 -1 12 11 13 28 7 57 -72 76 -126 30z"/>
<path d="M11361 15825 c-47 -40 -66 -110 -65 -240 0 -93 4 -117 23 -157 27
-56 48 -76 89 -84 27 -5 37 -1 66 28 45 45 66 118 66 228 0 196 -85 303 -179
225z m91 -62 c26 -30 38 -83 38 -161 0 -91 -16 -147 -48 -173 -22 -17 -28 -18
-46 -6 -31 21 -47 60 -53 135 -13 152 51 272 109 205z"/>
<path d="M11692 15843 c-8 -3 -22 -19 -33 -37 l-19 -31 0 33 c0 25 -4 32 -20
32 -19 0 -20 -7 -20 -246 l0 -245 23 3 c22 3 22 5 27 188 6 204 13 233 60 228
40 -5 49 -50 49 -246 l1 -173 23 3 c22 3 22 5 27 188 5 199 13 230 58 230 42
0 52 -48 52 -245 l0 -175 26 0 26 0 -4 203 c-3 159 -7 210 -20 239 -31 69 -93
75 -130 11 -21 -35 -22 -35 -30 -12 -19 50 -54 69 -96 52z"/>
<path d="M12144 15839 c-11 -6 -28 -22 -37 -37 l-16 -27 -1 33 c0 28 -3 32
-26 32 l-27 0 7 -92 c3 -50 6 -205 6 -345 0 -246 1 -253 20 -253 19 0 20 7 20
125 0 115 9 155 25 106 3 -10 19 -24 35 -31 40 -17 83 10 112 70 31 64 38 244
13 324 -28 89 -74 122 -131 95z m46 -69 c35 -19 53 -90 48 -194 -3 -77 -8
-101 -25 -123 -30 -41 -71 -38 -97 7 -18 29 -21 52 -21 135 1 105 15 152 52
174 22 13 21 13 43 1z"/>
<path d="M12404 15835 c-61 -42 -93 -236 -60 -363 28 -112 82 -151 160 -118
35 14 38 19 31 43 -9 37 -11 38 -41 24 -54 -24 -114 40 -114 122 l0 37 85 0
85 0 0 63 c0 153 -71 246 -146 192z"/>
<path d="M12688 15820 c-36 -36 -38 -37 -38 -5 0 18 -5 25 -20 25 -19 0 -20
-7 -20 -246 l0 -245 23 3 c22 3 22 6 27 183 6 199 15 235 65 235 44 0 53 -37
57 -235 3 -178 3 -180 26 -183 l22 -3 0 184 c0 192 -10 259 -46 298 -25 28
-61 23 -96 -11z"/>
<path d="M12936 15831 c-23 -25 -45 -87 -45 -126 -1 -43 31 -106 67 -134 17
-12 35 -36 41 -53 24 -69 -20 -127 -71 -94 -29 19 -38 13 -38 -24 0 -32 16
-48 57 -56 25 -5 37 0 64 24 34 30 34 31 34 122 l0 91 -48 45 c-51 50 -65 83
-51 123 10 27 38 33 77 16 26 -11 24 60 -2 75 -30 16 -66 12 -85 -9z"/>
<path d="M13177 15839 c-48 -28 -83 -166 -74 -288 7 -95 29 -152 70 -187 25
-21 37 -24 66 -19 53 10 71 23 71 50 0 32 -11 37 -49 24 -26 -9 -36 -8 -57 6
-31 20 -54 71 -54 120 l0 35 85 0 85 0 0 61 c0 153 -65 243 -143 198z"/>
<path d="M13415 15826 c-22 -22 -45 -81 -45 -116 0 -42 26 -98 59 -130 51 -47
64 -75 56 -116 -8 -45 -35 -59 -74 -40 -33 18 -41 13 -41 -24 0 -32 16 -48 57
-56 69 -14 122 85 102 194 -7 37 -19 56 -54 90 -49 48 -63 81 -49 121 10 27
38 33 75 17 26 -11 32 41 8 65 -26 26 -65 24 -94 -5z"/>
<path d="M6892 15598 l3 -243 23 -3 22 -3 0 245 0 246 -25 0 -25 0 2 -242z"/>
<path d="M9090 15595 c0 -238 1 -245 20 -245 19 0 20 7 20 245 0 238 -1 245
-20 245 -19 0 -20 -7 -20 -245z"/>
<path d="M6767 14882 c-9 -10 -17 -31 -17 -46 l0 -27 26 20 c31 25 49 19 63
-21 27 -76 11 -158 -63 -325 -20 -45 -36 -93 -36 -107 0 -25 1 -26 70 -26 l70
0 0 30 c0 29 -1 30 -51 30 -37 0 -50 3 -46 13 100 237 119 355 70 439 -23 39
-61 48 -86 20z"/>
<path d="M6957 14853 c-18 -41 -22 -71 -25 -199 -5 -169 7 -250 42 -291 19
-22 25 -24 43 -14 44 23 58 91 58 281 0 159 -2 179 -22 223 -18 38 -27 47 -48
47 -21 0 -30 -8 -48 -47z m81 -48 c23 -69 27 -251 8 -325 -9 -36 -21 -69 -27
-75 -19 -19 -44 11 -57 71 -17 79 -10 285 12 337 20 50 46 46 64 -8z"/>
<path d="M7137 14882 c-10 -10 -17 -31 -17 -47 l0 -28 24 22 c19 18 28 21 44
12 26 -14 32 -32 32 -94 0 -87 -40 -219 -95 -319 -8 -14 -15 -38 -15 -52 0
-27 0 -27 73 -24 69 3 72 4 72 28 0 23 -4 25 -52 28 -52 3 -52 3 -42 30 6 15
17 40 24 57 71 150 84 334 29 390 -21 20 -57 19 -77 -3z"/>
<path d="M7341 14864 c-12 -15 -21 -38 -21 -53 1 -25 1 -25 15 -7 8 11 18 16
22 12 5 -4 8 -111 8 -237 0 -177 3 -229 13 -229 9 0 12 61 12 270 0 227 -2
270 -14 270 -8 0 -24 -12 -35 -26z"/>
<path d="M27 12304 c-4 -4 -7 -2774 -7 -6156 l0 -6148 43 0 c47 1 23 -25 292
310 61 75 160 196 220 270 61 73 132 161 159 194 27 34 52 63 56 66 3 3 13 14
21 26 14 21 71 91 124 153 17 20 78 95 135 166 57 72 118 146 134 166 41 47
52 61 180 219 60 74 118 143 128 153 10 10 18 21 18 25 0 4 17 26 38 48 20 23
60 69 87 104 28 34 77 95 110 135 33 39 94 114 135 165 41 51 80 98 85 104 6
6 59 72 119 146 60 74 114 140 121 145 6 6 16 17 21 26 8 15 26 36 129 159 22
26 63 76 90 111 28 34 86 106 130 160 44 53 103 124 130 158 28 34 58 72 69
84 10 12 62 76 115 141 53 65 115 142 138 170 24 28 64 78 90 111 26 33 51 61
55 63 4 2 32 36 61 75 30 40 94 119 142 177 108 131 111 135 160 195 21 28 42
52 45 55 3 3 31 37 62 75 99 124 161 200 167 205 4 3 22 25 41 50 19 25 40 51
48 58 7 8 25 30 40 50 15 21 32 42 37 48 6 6 55 66 110 134 55 67 127 154 161
194 33 39 85 103 116 141 31 39 80 99 109 135 57 71 59 73 90 110 11 14 33 40
47 59 15 19 41 51 57 70 111 130 205 253 200 261 -3 5 0 8 7 5 7 -2 32 21 56
53 23 31 55 71 70 88 15 18 37 44 49 60 l23 28 -27 35 c-15 20 -30 38 -33 41
-4 3 -87 104 -186 225 -98 121 -205 252 -236 290 -32 39 -105 129 -164 200
-58 72 -124 152 -147 179 -23 27 -46 56 -51 65 -5 9 -15 21 -21 26 -12 10
-242 290 -390 475 -104 130 -146 181 -180 221 -54 63 -110 132 -125 153 -8 12
-23 30 -33 41 -10 11 -44 52 -75 90 -31 39 -98 120 -149 181 -50 61 -148 181
-217 267 -117 146 -156 193 -181 221 -6 6 -26 31 -45 56 -19 25 -37 47 -40 50
-3 3 -57 68 -120 145 -63 77 -118 142 -122 143 -5 2 -8 8 -8 14 0 6 -19 32
-42 57 -24 26 -126 150 -228 276 -102 125 -190 233 -195 239 -14 14 -102 122
-140 171 -16 21 -93 115 -170 208 -77 93 -147 181 -155 196 -8 14 -18 27 -22
29 -3 2 -26 29 -50 60 -23 31 -45 59 -48 62 -3 3 -44 52 -90 110 -47 57 -102
123 -122 145 -21 22 -38 43 -38 48 0 4 -10 18 -22 31 -13 13 -30 32 -38 42
-126 158 -238 295 -295 364 -39 47 -82 99 -95 116 -54 68 -229 280 -246 299
-11 11 -32 38 -48 60 -16 22 -34 45 -40 50 -6 6 -58 69 -116 140 -57 72 -127
157 -154 191 -28 33 -64 78 -81 99 -16 21 -37 46 -46 55 -9 10 -18 23 -20 29
-3 7 -8 9 -12 5z"/>
<path d="M10349 5064 c-41 -38 -115 -105 -163 -149 -49 -44 -94 -85 -100 -90
-6 -6 -83 -75 -171 -155 -88 -79 -189 -172 -225 -206 -36 -34 -78 -73 -94 -85
-16 -13 -63 -55 -105 -94 -42 -39 -123 -114 -181 -166 -122 -108 -167 -149
-270 -245 -42 -38 -116 -105 -165 -149 -92 -82 -165 -149 -270 -246 -33 -31
-109 -100 -170 -155 -60 -54 -112 -101 -115 -104 -9 -9 -224 -204 -275 -249
-27 -25 -84 -76 -126 -115 -42 -39 -93 -86 -115 -105 -21 -19 -88 -80 -149
-135 -60 -56 -115 -105 -121 -111 -86 -78 -211 -190 -304 -274 -63 -57 -119
-109 -125 -115 -5 -6 -30 -29 -55 -50 -25 -22 -92 -83 -150 -136 -89 -81 -243
-221 -390 -354 -265 -240 -394 -357 -435 -395 -60 -57 -267 -245 -650 -592
-93 -84 -175 -158 -181 -164 -6 -5 -53 -48 -105 -95 -52 -47 -125 -114 -164
-150 -39 -36 -99 -91 -133 -122 l-63 -58 197 0 197 0 51 44 c61 53 82 72 222
202 60 55 154 141 209 190 55 49 156 140 225 203 69 63 148 135 176 160 64 58
237 216 329 301 39 36 108 99 155 140 46 41 163 147 259 235 97 88 201 183
232 210 31 28 128 116 215 196 87 80 186 170 220 200 33 30 139 126 235 213
96 88 197 179 224 204 62 56 153 139 225 207 30 28 116 105 190 171 74 65 140
124 145 130 12 13 115 107 240 219 49 44 96 87 105 95 8 8 58 53 110 100 51
47 101 92 110 100 9 8 60 56 115 105 54 50 155 142 225 205 69 63 166 151 215
195 49 44 118 107 154 141 37 33 86 78 111 100 24 21 51 46 60 55 8 9 62 58
120 110 58 52 159 144 225 204 199 182 294 267 312 280 17 13 17 15 -3 37 -11
13 -36 41 -56 63 -19 22 -51 58 -70 79 l-35 40 -74 -70z"/>
</g>
</svg>
