<?xml version="1.0" standalone="no"?>
<!DOCTYPE svg PUBLIC "-//W3C//DTD SVG 20010904//EN"
 "http://www.w3.org/TR/2001/REC-SVG-20010904/DTD/svg10.dtd">
<svg version="1.0" xmlns="http://www.w3.org/2000/svg"
 width="1944.000000pt" height="1296.000000pt" viewBox="0 0 1944.000000 1296.000000"
 preserveAspectRatio="xMidYMid meet">
<metadata>
Created by potrace 1.16, written by Peter Selinger 2001-2019
</metadata>
<g transform="translate(0.000000,1296.000000) scale(0.100000,-0.100000)"
fill="#000000" stroke="none">
<path d="M7941 12883 c1 -96 9 -127 34 -132 27 -5 35 -19 35 -68 0 -39 -2 -43
-24 -43 -28 0 -35 -16 -33 -75 1 -28 6 -40 17 -40 19 0 40 -14 64 -43 l20 -22
-36 5 c-31 5 -39 2 -58 -22 -24 -30 -24 -57 -4 -562 l7 -164 93 5 c52 3 100
10 107 17 13 10 62 23 142 38 17 3 74 18 129 34 54 16 109 29 122 29 14 0 32
4 42 10 31 17 186 58 247 65 33 4 92 17 130 30 39 12 103 28 143 34 39 6 95
20 123 32 79 30 85 24 64 -66 -4 -16 -15 -49 -25 -71 -18 -40 -21 -42 -84 -54
-36 -7 -101 -24 -143 -39 -71 -24 -78 -28 -75 -51 11 -98 10 -102 -34 -118
-37 -13 -43 -13 -66 2 -18 12 -29 30 -33 57 -4 21 -14 43 -23 48 -17 9 -107
-10 -232 -48 -61 -19 -269 -68 -455 -107 -142 -30 -179 -52 -150 -91 19 -24
19 -59 1 -66 -8 -3 -22 -20 -31 -37 -16 -30 -15 -37 10 -135 21 -80 26 -115
21 -157 -10 -77 -9 -124 1 -142 8 -14 13 -14 48 4 27 14 55 19 92 17 56 -2 61
-7 67 -64 2 -21 11 -30 42 -40 21 -8 53 -12 69 -10 20 3 44 -3 73 -19 41 -24
42 -27 42 -75 0 -46 3 -51 33 -69 18 -11 44 -38 57 -60 43 -70 53 -78 101 -82
40 -3 46 -6 63 -42 14 -29 17 -45 10 -65 -9 -25 -12 -26 -98 -28 -48 -1 -102
-7 -119 -14 -19 -7 -99 -13 -197 -14 -165 -3 -165 -3 -165 -26 0 -31 48 -44
107 -28 104 28 268 18 268 -17 0 -7 18 -19 40 -25 l39 -12 3 -82 3 -83 38 15
c36 15 37 16 37 68 0 32 -5 55 -12 57 -7 3 -8 10 -4 17 7 10 10 11 16 1 4 -7
6 9 4 36 -2 27 -1 43 2 37 3 -7 15 -13 26 -13 19 0 19 -4 13 -85 -9 -102 -1
-155 23 -156 10 0 12 -3 5 -6 -7 -2 -13 -11 -13 -18 0 -7 6 -15 13 -18 6 -2 9
-8 5 -12 -4 -4 -23 -2 -43 5 -33 11 -40 10 -64 -7 -38 -29 -77 -113 -110 -236
-16 -59 -37 -119 -47 -135 -33 -51 -41 -52 -117 -15 -114 55 -287 67 -384 26
-27 -11 -71 -16 -148 -17 -91 -1 -118 -5 -155 -23 -25 -12 -81 -34 -125 -48
-44 -15 -89 -33 -100 -41 -11 -8 -25 -14 -32 -14 -7 0 -36 -11 -65 -24 -29
-14 -67 -28 -83 -32 -17 -4 -46 -15 -65 -24 -23 -11 -72 -19 -140 -23 -119 -7
-237 -28 -291 -51 -20 -8 -69 -23 -109 -32 -40 -9 -101 -29 -134 -45 -34 -16
-67 -29 -75 -29 -16 0 -128 -61 -181 -99 -54 -38 -163 -119 -178 -131 -30 -25
-169 -117 -195 -128 -15 -6 -54 -37 -86 -67 -32 -31 -69 -64 -82 -73 -13 -8
-28 -22 -32 -29 -13 -22 -33 -15 -109 36 -71 48 -128 117 -128 154 0 9 -14 25
-30 37 -17 12 -47 47 -66 78 -44 70 -62 87 -97 96 -24 6 -26 10 -20 34 3 15
12 33 19 40 11 11 10 19 -6 50 -25 47 -25 54 4 138 20 57 26 98 31 224 6 137
4 165 -14 240 -11 47 -21 98 -21 114 0 58 -21 100 -66 134 -24 18 -47 44 -50
57 -3 14 -9 25 -13 25 -4 0 -18 18 -30 40 -13 23 -41 52 -64 67 -23 14 -46 30
-52 37 -5 6 -28 25 -49 41 -36 27 -48 30 -125 32 -161 5 -216 3 -276 -7 -33
-6 -85 -15 -115 -20 -169 -26 -211 -44 -239 -106 -13 -27 -36 -64 -52 -83 -35
-42 -36 -54 -7 -93 20 -28 20 -34 8 -81 -17 -68 -64 -169 -74 -160 -4 4 -5 -4
-1 -19 5 -21 2 -30 -14 -40 -17 -10 -21 -23 -21 -65 0 -40 4 -53 15 -53 11 0
15 -11 15 -40 0 -30 4 -40 16 -40 8 0 12 -4 9 -10 -6 -10 -43 6 -56 24 -15 19
-18 -16 -7 -65 10 -42 17 -54 39 -62 44 -17 69 -117 28 -117 -14 0 -25 -11
-36 -37 -19 -46 -20 -53 -28 -185 -10 -163 23 -244 128 -317 49 -34 224 -135
250 -144 36 -14 43 -110 8 -140 -22 -19 -109 -67 -122 -67 -31 0 -185 -190
-204 -250 -4 -14 -18 -47 -31 -74 -13 -28 -24 -56 -24 -63 0 -7 -4 -13 -9 -13
-4 0 -11 -30 -15 -67 -8 -80 -30 -213 -57 -338 -11 -49 -19 -102 -19 -116 0
-15 -11 -64 -25 -110 -56 -185 -58 -195 -42 -226 12 -23 14 -60 10 -193 -5
-149 -8 -168 -27 -195 -21 -28 -21 -34 -10 -95 12 -63 12 -67 -16 -128 -23
-50 -27 -68 -20 -88 6 -14 10 -44 10 -67 0 -34 -7 -51 -39 -90 -44 -52 -135
-225 -145 -274 -4 -17 -23 -57 -42 -88 -19 -32 -34 -61 -34 -66 0 -4 -14 -23
-30 -41 -29 -31 -39 -71 -21 -82 21 -14 19 -64 -6 -137 l-27 -76 28 -77 c15
-42 31 -112 36 -154 9 -82 22 -126 40 -137 6 -3 24 -34 41 -67 l30 -60 -16
-63 c-8 -35 -15 -76 -14 -92 1 -16 -10 -49 -28 -78 -63 -105 -133 -278 -133
-327 0 -10 -11 -51 -25 -90 -14 -39 -25 -84 -25 -100 0 -15 -4 -28 -10 -28 -5
0 -10 -5 -10 -11 0 -6 -9 -24 -20 -39 -29 -41 -90 -166 -106 -219 -8 -25 -19
-97 -24 -159 -9 -104 -13 -119 -45 -171 -33 -54 -35 -61 -35 -147 l0 -91 -43
-55 c-77 -99 -80 -116 -73 -381 4 -128 9 -360 12 -517 6 -309 16 -396 73 -607
34 -126 70 -183 183 -289 163 -152 306 -216 470 -212 83 2 104 -2 203 -35 61
-20 171 -55 245 -77 74 -23 174 -55 223 -72 l87 -31 0 -66 c0 -52 5 -74 25
-106 49 -82 56 -96 60 -133 2 -20 14 -60 26 -89 l22 -52 -26 -38 c-79 -112
-172 -179 -184 -133 -7 26 -15 25 -41 -3 -26 -27 -28 -37 -7 -37 22 0 19 -17
-12 -65 -40 -64 -53 -69 -126 -51 -94 24 -308 46 -329 35 -16 -9 -38 -7 -90 8
-36 9 -6 -26 40 -48 26 -13 72 -39 102 -59 l55 -37 103 5 c85 4 102 2 102 -10
0 -23 -21 -80 -40 -108 -9 -14 -23 -41 -30 -60 -8 -19 -22 -46 -32 -60 -26
-34 -68 -100 -68 -105 0 -3 1800 -5 3999 -5 l4000 0 3 42 3 42 167 0 c208 -1
257 -16 211 -66 -16 -18 -6 -18 350 -17 l367 1 2 26 c1 15 2 35 1 45 0 10 34
46 79 83 l79 66 42 -17 c61 -24 87 -43 87 -64 0 -11 12 -24 31 -31 26 -11 33
-11 47 3 15 15 14 19 -6 46 -28 39 -67 127 -76 173 -6 31 -4 37 14 43 11 4 35
2 53 -3 56 -17 155 -34 169 -30 14 5 -27 19 -114 38 -32 7 -58 17 -58 21 0 5
-7 6 -15 3 -8 -4 -15 -3 -15 0 0 14 35 86 42 86 5 0 8 9 8 19 0 11 4 22 9 25
4 3 11 26 14 51 4 26 13 53 21 61 8 8 20 40 26 72 15 82 30 137 56 217 12 39
26 95 29 125 11 96 24 118 113 187 18 14 42 26 54 27 12 0 23 6 25 12 4 12
-49 73 -64 75 -4 0 -20 15 -34 32 -25 30 -26 35 -15 80 10 46 11 47 48 47 27
0 38 -4 38 -15 0 -9 17 -23 38 -33 20 -9 38 -20 40 -24 2 -4 13 -1 25 7 32 20
88 28 119 16 37 -14 58 8 58 60 0 35 5 43 45 71 25 18 45 35 45 39 0 4 6 14
13 21 25 27 48 69 45 86 -4 24 10 42 32 42 18 0 57 31 133 102 16 16 31 28 34
28 3 0 31 20 61 45 30 25 62 45 72 45 12 0 20 9 22 23 3 22 18 24 83 14 5 -1
11 8 13 21 3 16 -7 34 -32 58 -19 19 -39 34 -44 34 -6 0 -13 11 -16 25 -7 26
-34 33 -53 14 -7 -7 -13 -7 -17 0 -4 5 -13 8 -22 4 -13 -5 -13 -8 1 -29 15
-23 14 -25 -9 -34 -14 -5 -30 -18 -35 -29 -6 -11 -25 -35 -41 -53 -17 -18 -30
-37 -30 -43 0 -6 -15 -19 -32 -30 -40 -23 -58 -40 -58 -54 0 -6 -20 -26 -45
-43 -25 -18 -45 -38 -45 -45 0 -9 -14 -13 -41 -13 l-41 0 4 -42 c3 -41 1 -43
-30 -53 -20 -6 -35 -17 -38 -31 -3 -13 -18 -25 -38 -31 -31 -10 -33 -9 -29 11
2 11 -3 7 -11 -11 -8 -17 -12 -41 -9 -52 3 -14 1 -21 -8 -21 -8 0 -20 -9 -27
-20 -6 -11 -18 -17 -26 -14 -13 5 -30 39 -27 57 1 4 -5 7 -13 7 -8 0 -21 7
-29 15 -14 13 -13 22 9 82 14 37 22 74 19 82 -5 14 20 95 37 117 11 15 40 233
33 245 -4 5 -1 25 4 46 7 25 7 41 0 49 -6 8 -9 18 -7 25 2 6 10 -2 18 -17 8
-15 25 -39 38 -52 25 -29 29 -64 7 -82 -25 -20 -9 -27 64 -28 100 0 108 14 39
77 -29 28 -59 50 -65 51 -7 0 -13 6 -13 13 -1 6 -23 35 -49 64 l-49 52 -6 -41
c-4 -23 -3 -45 3 -51 15 -15 0 -129 -22 -170 -23 -40 -54 -55 -84 -39 -12 7
-25 7 -35 1 -21 -12 -24 -6 -33 56 -5 40 -2 63 14 103 12 29 21 57 21 62 0 14
-34 12 -49 -2 -10 -11 -10 -8 -2 14 6 17 7 29 1 33 -16 10 -11 25 8 25 9 0 28
9 42 20 14 11 31 20 38 20 6 0 12 7 12 16 0 9 -8 14 -17 13 -34 -3 -41 1 -52
28 -5 16 -17 39 -25 53 -20 35 -46 96 -46 109 0 6 39 22 88 37 101 30 124 40
152 66 23 22 26 38 6 38 -8 0 -21 3 -29 6 -10 3 -17 -1 -19 -13 -3 -10 -8 9
-12 42 -11 91 -15 105 -31 105 -8 0 -15 9 -15 20 0 13 7 20 20 20 21 0 24 4
35 54 5 23 4 27 -7 19 -39 -30 -152 -39 -230 -17 -29 8 -58 -34 -52 -75 5 -34
3 -38 -46 -69 -27 -17 -50 -37 -50 -42 0 -6 -14 -10 -30 -10 -17 0 -42 -7 -55
-16 -23 -15 -27 -15 -50 0 -30 20 -54 21 -61 2 -3 -9 -17 -12 -37 -10 -18 1
-37 3 -43 3 -7 1 -22 12 -35 25 l-23 24 -18 -39 c-20 -46 -29 -48 -56 -14 -25
31 -28 31 -36 -1 -10 -39 -35 -13 -32 34 1 30 6 37 24 38 11 1 35 7 51 14 17
7 37 10 46 6 12 -4 15 3 15 32 0 21 -5 43 -10 48 -8 8 -5 18 8 34 16 20 29 23
130 28 126 5 145 19 60 43 -37 10 -95 13 -193 11 -142 -3 -219 4 -211 17 6 9
-30 41 -45 41 -6 0 -9 8 -7 17 6 33 318 138 488 164 36 6 69 14 75 18 5 5 28
14 50 21 64 19 107 41 145 72 19 16 41 34 49 40 11 9 11 12 -3 20 -9 5 -21 6
-26 3 -6 -3 -16 -3 -22 2 -7 4 -25 6 -39 5 -19 -2 -28 3 -37 23 -17 36 -15
124 3 159 18 33 12 46 -20 46 -72 0 -103 55 -37 65 68 11 82 15 82 24 0 5 -13
12 -30 15 -16 3 -43 9 -60 12 -18 3 -30 1 -30 -5 0 -6 5 -11 12 -11 9 0 9 -3
0 -12 -7 -7 -30 -11 -52 -9 -48 3 -53 -14 -7 -25 29 -7 24 -9 -48 -21 -44 -7
-104 -16 -134 -19 -53 -7 -53 -7 -27 -21 14 -7 26 -15 26 -16 0 -1 -18 -1 -39
1 -21 2 -47 2 -57 0 -16 -3 -14 -7 11 -21 l30 -18 -66 6 c-52 5 -68 3 -72 -8
-3 -7 4 -19 15 -26 29 -18 10 -31 -32 -23 -19 4 -53 5 -75 2 l-40 -5 28 -19
c15 -10 27 -22 27 -27 0 -14 -44 -11 -83 6 -52 21 -67 18 -32 -6 l30 -21 -28
6 c-19 5 -26 3 -22 -4 3 -5 21 -10 40 -10 57 0 47 -15 -12 -17 -29 -1 -51 1
-49 6 7 10 -41 24 -54 16 -5 -3 -23 1 -40 10 -27 14 -30 14 -30 0 0 -8 7 -15
15 -15 8 0 15 -6 15 -14 0 -13 -4 -13 -27 -1 -26 14 -28 13 -40 -15 -11 -28
-33 -41 -33 -22 0 5 -9 19 -20 32 -15 17 -20 19 -20 8 0 -12 -11 -16 -42 -15
-43 0 -63 -12 -139 -85 -9 -9 -20 -14 -22 -11 -3 2 -25 -5 -48 -17 -24 -11
-45 -16 -47 -11 -2 6 -10 7 -18 4 -7 -3 -11 -10 -8 -17 3 -6 -3 -1 -14 11 -24
27 -37 30 -28 7 5 -14 4 -15 -9 -4 -13 11 -15 9 -15 -14 0 -14 -4 -26 -9 -26
-11 0 -21 25 -21 50 0 23 -26 33 -50 20 -25 -13 -30 -13 -30 4 0 39 -124 28
-156 -13 -9 -11 -13 -11 -19 -1 -6 10 -9 10 -15 -1 -6 -10 -12 -9 -24 3 -15
16 -51 14 -61 -2 -5 -8 10 -64 26 -92 11 -22 6 -22 -34 -1 -52 27 -77 28 -77
1 -1 -20 -2 -21 -11 -5 -5 9 -15 17 -22 17 -7 0 -24 10 -37 23 -14 13 -42 26
-63 30 -31 5 -37 3 -37 -13 0 -10 -7 -20 -15 -24 -9 -3 -15 0 -15 9 0 22 -16
18 -38 -10 -11 -13 -22 -22 -25 -19 -3 3 -19 3 -35 0 -20 -5 -34 -18 -45 -41
-9 -19 -23 -35 -31 -35 -8 0 -21 -9 -29 -21 -10 -13 -17 -17 -22 -9 -4 6 -1
17 5 25 13 16 10 57 -6 62 -6 2 -21 -6 -34 -17 -28 -25 -39 -25 -38 -2 1 23
-19 72 -30 72 -4 0 -13 -5 -20 -12 -7 -7 -12 -8 -12 -3 0 5 -7 -1 -16 -13 -8
-12 -22 -22 -30 -22 -8 0 -13 -3 -13 -7 1 -5 1 -15 0 -23 -1 -12 -5 -11 -17 5
-11 14 -18 16 -21 7 -3 -6 -9 -9 -14 -6 -6 3 -25 -6 -44 -20 -18 -14 -41 -26
-49 -26 -9 0 -16 -4 -16 -9 0 -15 -32 -22 -46 -10 -11 9 -14 8 -14 -5 0 -19
-16 -21 -23 -3 -4 9 -8 9 -15 -2 -14 -20 -135 -24 -128 -5 3 8 1 14 -4 14 -6
0 -10 -4 -10 -9 0 -16 -41 -20 -47 -5 -5 13 -8 13 -23 -1 -17 -15 -19 -15 -29
4 -6 11 -11 28 -12 38 0 15 -2 14 -11 -5 -13 -25 -24 -28 -35 -8 -4 8 -15 14
-23 13 -24 -3 -204 34 -216 44 -6 4 -24 8 -40 8 -172 0 -209 2 -223 15 -10 8
-46 13 -98 14 l-81 2 4 -63 c3 -64 2 -61 -22 36 -5 21 -9 25 -15 15 -7 -10 -9
-8 -9 7 0 32 -19 -4 -21 -40 0 -16 -6 -52 -13 -80 -12 -49 -13 -48 -8 37 5 93
-2 134 -18 108 -8 -12 -10 -10 -10 9 0 18 -3 21 -13 13 -9 -8 -25 -1 -62 29
-39 31 -56 39 -78 35 -19 -4 -30 -1 -33 9 -4 8 -10 12 -16 9 -15 -9 -80 26
-85 47 -3 10 -9 19 -14 19 -9 0 0 -18 52 -111 24 -42 99 -136 178 -224 l55
-60 -66 65 c-35 36 -104 115 -153 175 -48 61 -92 114 -96 119 -5 5 -6 -8 -3
-30 l5 -39 -27 48 c-26 45 -44 60 -44 36 0 -8 -4 -8 -14 0 -11 9 -15 9 -20 -1
-3 -7 -5 -4 -3 7 3 18 -1 20 -40 18 -27 -1 -43 3 -44 10 0 7 -4 3 -9 -8 -5
-11 -9 -14 -9 -7 -1 18 -41 56 -41 38 0 -8 7 -16 15 -20 8 -3 15 -13 14 -23 0
-11 -3 -13 -6 -5 -7 19 -25 14 -19 -5 3 -10 8 -31 11 -48 l6 -30 -16 30 -15
30 5 -40 c4 -36 2 -33 -21 25 -13 36 -27 71 -30 79 -3 11 -8 10 -19 -5 -15
-19 -15 -19 -9 1 5 16 4 17 -5 5 -6 -8 -11 -24 -11 -35 -1 -14 -7 -8 -19 19
-17 35 -19 37 -29 20 -6 -11 -12 -13 -12 -6 0 17 -96 17 -103 0 -3 -7 -6 -4
-7 7 l-1 20 -9 -20 c-5 -11 -9 -74 -9 -139 -1 -66 -3 -117 -5 -115 -2 2 -7 49
-10 104 -4 55 -9 120 -13 144 l-6 44 -14 -27 c-12 -23 -17 -25 -29 -15 -10 8
-18 9 -22 3 -8 -11 -46 -17 -102 -17 -19 0 -29 -2 -22 -4 33 -12 5 -23 -58
-23 -45 0 -70 4 -70 11 0 20 -42 49 -87 61 -33 8 -43 15 -43 30 0 19 -4 20
-47 12 -27 -4 -69 -8 -94 -8 -25 -1 -53 -7 -62 -14 -14 -12 -21 -11 -49 5 -18
10 -34 21 -36 25 -2 3 -29 14 -60 24 -71 21 -77 27 -61 53 12 18 11 22 -5 34
-16 12 -18 24 -14 99 5 90 29 157 70 189 18 14 18 19 7 37 -10 17 -10 23 0 36
8 9 21 16 31 16 9 0 25 9 35 20 21 24 44 25 71 5 27 -20 81 -18 133 5 73 34
121 25 182 -31 36 -34 127 -86 143 -81 4 2 14 -2 22 -9 7 -6 32 -12 54 -12 31
-2 40 -6 40 -19 0 -10 4 -18 9 -18 17 0 -1 41 -25 57 -28 18 -23 33 12 33 14
0 36 11 50 25 13 14 30 24 37 22 7 -1 11 7 10 20 -2 14 3 23 11 23 7 0 16 12
19 26 3 18 1 24 -9 20 -8 -3 -14 1 -14 11 0 9 -34 50 -76 90 -62 61 -75 79
-72 101 3 25 0 27 -35 30 -30 3 -43 -2 -58 -19 -10 -12 -19 -28 -19 -36 0 -19
-31 -16 -121 13 -61 20 -83 32 -91 50 -6 13 -20 26 -30 30 -12 4 -17 12 -13
23 7 23 -36 64 -58 55 -10 -3 -17 -13 -17 -21 0 -16 -37 -10 -55 10 -7 7 -4 8
8 4 22 -8 32 13 23 48 -4 14 -14 25 -23 25 -15 0 -14 2 3 15 17 13 17 16 4 26
-13 9 -13 10 2 6 25 -9 28 14 5 48 l-21 30 27 -24 27 -24 0 26 c0 15 -13 41
-31 62 -17 20 -24 33 -15 29 23 -9 20 10 -11 64 -14 26 -64 119 -111 207 -46
88 -90 167 -96 175 -20 24 -47 70 -42 70 10 0 65 -89 128 -205 132 -244 139
-255 130 -208 -4 24 -3 26 10 16 8 -7 18 -10 21 -6 6 5 11 -10 9 -28 -1 -3 5
-6 13 -6 8 0 12 4 9 9 -11 18 14 6 36 -17 21 -23 22 -25 5 -25 -17 0 -16 -2 5
-25 18 -19 21 -27 11 -39 -6 -8 -10 -25 -7 -39 6 -32 36 -98 53 -115 7 -7 13
-18 13 -24 0 -6 13 -8 30 -6 17 3 33 1 36 -4 7 -12 21 -10 36 5 7 7 31 22 53
33 22 12 42 30 44 40 1 10 9 26 17 35 8 9 11 18 8 22 -3 3 4 10 15 17 14 7 21
21 21 39 0 15 8 36 19 45 10 9 29 45 42 79 14 38 24 55 27 44 2 -10 -3 -29
-12 -42 -9 -13 -16 -32 -16 -41 0 -9 -9 -28 -19 -43 -11 -15 -23 -40 -27 -57
-4 -16 -11 -34 -16 -41 -14 -18 -22 -139 -9 -147 6 -4 11 -24 11 -44 0 -25 3
-33 9 -23 11 17 34 4 27 -15 -3 -9 0 -11 12 -7 9 3 14 3 10 -2 -12 -12 30 -63
55 -67 12 -2 21 -9 20 -15 -2 -7 6 -15 17 -18 11 -4 20 -11 20 -16 0 -13 42
-10 63 5 9 7 17 24 17 37 0 14 3 19 8 13 12 -19 65 18 74 52 4 17 16 39 27 48
19 17 22 16 80 -16 41 -22 66 -43 76 -65 19 -39 55 -67 69 -53 12 12 35 -17
36 -46 0 -26 56 -58 130 -73 30 -7 57 -15 60 -19 13 -18 99 -55 136 -58 23 -2
58 -11 77 -19 32 -13 36 -13 31 0 -5 11 1 15 24 15 17 0 33 4 36 9 3 5 15 7
26 4 13 -4 30 2 43 14 20 19 122 40 112 24 -2 -4 10 -5 28 -3 31 5 31 5 9 20
-12 8 -22 21 -22 28 0 17 32 18 48 2 7 -7 12 -9 12 -5 0 9 -33 47 -41 47 -4 0
-43 24 -86 53 -63 42 -74 53 -55 55 26 4 28 14 7 32 -9 7 -15 29 -15 51 0 24
-5 39 -12 40 -7 0 -2 5 11 10 15 6 21 14 17 25 -3 9 -6 20 -6 25 0 5 -10 9
-22 9 -17 0 -19 3 -9 9 11 7 9 10 -8 16 -25 8 -28 25 -3 25 16 1 16 1 -1 11
-9 6 -15 14 -12 20 4 5 -3 9 -14 9 -10 0 -21 -5 -23 -11 -6 -18 -69 -2 -98 24
-14 13 -33 36 -42 52 -9 16 -29 34 -45 38 -15 5 -39 20 -54 33 -14 13 -30 24
-36 24 -7 0 -19 9 -27 21 -8 12 -18 19 -23 16 -5 -3 -15 -2 -23 4 -12 7 -12 9
3 9 29 0 9 18 -34 31 -22 7 -45 21 -50 31 -5 10 -15 18 -22 18 -19 1 -57 37
-57 54 0 9 -7 27 -15 40 -14 21 -14 24 0 36 8 7 15 20 15 30 0 22 -31 35 -41
18 -4 -7 -11 -10 -14 -6 -9 8 28 77 41 78 7 0 14 7 17 14 4 10 1 13 -8 10 -7
-3 -15 2 -18 13 -4 16 -5 16 -6 1 0 -10 -5 -18 -10 -18 -5 0 -5 20 0 47 10 54
19 68 19 30 0 -32 15 -35 30 -8 13 25 13 91 0 91 -5 0 -10 -5 -10 -11 0 -5 -4
-8 -9 -4 -5 3 -16 -2 -25 -10 -13 -14 -16 -13 -26 6 -8 15 -15 18 -22 11 -14
-14 -32 4 -42 41 -7 28 -26 38 -26 13 0 -8 -7 -16 -15 -20 -11 -4 -15 2 -15
24 0 30 -22 42 -35 20 -10 -17 -25 -11 -25 10 0 31 -30 22 -43 -12 -3 -10 -12
-18 -19 -18 -16 0 -39 47 -31 66 8 21 -25 29 -46 10 -10 -9 -23 -16 -29 -16
-7 0 -12 -4 -12 -10 0 -5 -6 -10 -12 -10 -7 0 -26 -14 -42 -30 -24 -24 -32
-28 -49 -18 -17 9 -23 6 -38 -13 -10 -13 -19 -33 -20 -44 -1 -17 -2 -17 -6 -3
-2 10 -17 21 -31 25 -15 3 -44 17 -64 30 -41 25 -58 29 -58 13 0 -6 -10 -2
-22 10 -34 31 -47 26 -28 -10 8 -15 6 -17 -10 -13 -12 3 -26 13 -33 22 -7 9
-24 22 -40 30 -17 9 -23 17 -16 21 6 4 16 18 23 31 6 13 21 28 34 34 12 5 22
15 22 21 0 7 11 19 24 27 16 11 26 30 31 57 4 22 12 40 18 40 7 0 3 7 -8 16
-17 13 -18 16 -5 24 12 8 9 15 -16 42 -18 18 -30 38 -27 45 2 6 -4 17 -15 25
-10 7 -21 20 -24 29 -5 13 -1 15 20 11 l27 -5 -22 25 c-26 28 -30 43 -9 35 8
-3 16 -1 18 5 3 7 13 5 30 -6 19 -13 32 -15 44 -8 13 8 23 3 42 -19 13 -16 27
-27 32 -24 4 2 25 -16 46 -42 50 -59 57 -71 50 -88 -5 -15 69 -92 105 -109 10
-5 19 -16 20 -25 0 -12 3 -11 9 4 5 12 9 14 9 6 1 -10 7 -7 20 8 l20 22 3 -28
c3 -25 5 -23 15 17 6 25 11 38 12 30 1 -8 9 -20 19 -26 43 -27 101 72 100 171
0 64 24 135 45 135 7 0 26 13 41 29 16 16 34 27 41 25 7 -3 16 3 19 13 6 19
46 27 46 9 0 -5 6 -3 13 6 6 9 37 26 67 39 70 29 80 37 73 57 -6 15 -5 15 10
3 20 -16 37 -7 20 10 -14 14 -6 39 12 39 6 0 20 8 29 19 12 13 32 19 72 20 30
0 65 6 77 13 12 6 40 12 63 13 38 1 40 -1 36 -25 -4 -24 -2 -23 36 14 30 28
45 36 61 31 15 -4 28 2 51 27 l31 33 -17 -35 -17 -35 29 25 c16 14 37 34 47
45 18 20 19 20 11 -10 l-7 -30 29 26 c16 15 34 25 40 22 6 -2 23 8 37 23 26
26 27 26 27 5 0 -25 18 -27 46 -6 10 8 26 15 35 15 9 0 22 7 29 15 7 8 17 15
23 15 5 0 3 -8 -6 -18 -10 -10 -17 -27 -17 -37 0 -17 1 -17 21 0 20 19 20 19
10 -8 -12 -32 -1 -35 24 -7 22 24 35 26 35 5 0 -23 18 -18 50 13 21 18 33 42
39 76 8 46 7 51 -15 68 -13 10 -26 34 -30 53 -7 41 -25 58 -62 60 -29 2 -206
125 -216 150 -3 8 -21 21 -41 29 -19 8 -35 21 -35 29 0 8 -9 26 -21 41 -16 20
-20 38 -18 74 2 26 -2 57 -9 70 -7 12 -16 46 -19 75 -6 51 -26 88 -81 147 -13
14 -55 67 -94 118 l-71 93 14 41 c7 22 25 54 41 70 15 17 28 34 28 39 0 5 26
16 57 25 67 19 170 13 215 -14 28 -16 30 -16 43 1 8 12 15 14 20 8 3 -6 13
-11 21 -11 8 0 25 -9 37 -20 12 -12 31 -23 43 -26 13 -4 31 -24 46 -52 12 -26
35 -63 51 -83 15 -20 27 -41 27 -46 0 -6 18 -38 40 -72 36 -55 44 -62 65 -57
14 4 25 3 25 -2 0 -12 49 -71 93 -112 20 -20 37 -41 37 -47 0 -15 51 -63 66
-63 6 0 22 -14 35 -32 33 -44 60 -68 85 -78 12 -5 32 -30 45 -57 20 -40 24
-44 27 -25 3 19 6 21 18 11 8 -6 14 -8 14 -4 0 4 7 2 15 -5 8 -7 12 -17 8 -23
-4 -6 -1 -7 7 -2 7 4 16 2 21 -6 8 -12 11 -12 19 1 9 13 10 13 10 0 0 -13 1
-13 11 0 8 11 9 7 4 -17 -8 -39 0 -42 26 -10 l18 22 1 -25 c0 -24 40 -97 40
-74 0 7 10 9 25 6 14 -2 25 -11 25 -18 0 -8 6 -14 14 -14 8 0 18 -9 21 -20 3
-11 14 -20 23 -20 19 0 48 -38 43 -58 -1 -10 4 -12 20 -7 24 8 39 -7 39 -42 0
-16 6 -23 20 -23 11 0 20 -7 20 -15 0 -18 21 -20 39 -2 10 10 10 6 1 -18 -9
-25 -8 -31 6 -42 10 -7 26 -11 36 -7 21 6 22 1 7 -28 -10 -19 -9 -20 17 -14
16 4 32 13 36 19 5 8 8 6 8 -5 0 -10 -6 -18 -12 -18 -7 0 -3 -7 9 -15 12 -8
28 -12 37 -9 9 3 16 1 16 -5 0 -6 -4 -11 -10 -11 -5 0 -10 -4 -10 -10 0 -16
52 -11 72 7 27 24 32 10 7 -20 l-20 -27 22 0 c17 0 20 -3 12 -11 -6 -6 -8 -19
-6 -30 6 -23 50 -26 79 -4 29 22 43 17 16 -5 -31 -26 -19 -44 24 -35 21 3 34
2 34 -5 0 -5 -4 -10 -10 -10 -5 0 -10 -4 -10 -10 0 -5 21 -10 46 -10 38 0 44
-2 35 -14 -9 -11 -2 -15 44 -21 30 -3 59 -4 65 0 17 10 1 25 -28 25 -15 0 -22
4 -17 8 15 10 11 218 -5 270 -8 26 -10 46 -4 52 5 4 68 11 139 14 150 6 418
25 423 30 11 11 -208 15 -343 7 -88 -6 -181 -11 -208 -11 -52 0 -41 -11 -126
129 -13 22 -34 50 -45 63 -12 13 -37 43 -56 68 -19 25 -43 51 -53 59 -11 7
-48 74 -84 148 -35 74 -68 140 -74 147 -5 6 -36 52 -69 101 -33 50 -67 101
-77 114 -16 22 -18 50 -18 245 0 202 2 224 20 254 10 17 23 32 27 32 5 0 18
20 30 45 12 25 25 45 29 45 4 0 21 22 37 49 17 27 58 82 93 122 70 83 337 349
350 349 5 0 9 5 9 10 0 6 33 50 73 98 84 102 78 91 161 257 108 215 119 243
121 315 2 55 9 78 45 149 34 69 40 88 31 103 -16 26 -14 28 20 28 29 0 31 -2
25 -27 -17 -67 -23 -129 -14 -140 14 -17 228 1 228 19 0 7 -14 23 -31 38 -18
14 -37 41 -43 60 -6 19 -20 39 -32 45 -19 10 -16 13 37 39 59 31 136 96 179
154 28 37 113 143 168 210 20 23 50 51 67 62 30 19 105 148 105 182 0 8 -19
30 -42 48 -24 19 -75 61 -113 95 -117 100 -166 139 -190 152 -16 9 -24 24 -28
55 -3 23 -10 44 -15 46 -11 3 -4 59 10 89 6 13 19 25 29 28 9 3 19 20 22 38 9
50 27 149 33 177 25 128 27 451 3 466 -5 3 -9 23 -9 45 0 32 -3 39 -20 39 -17
0 -20 7 -20 40 0 22 5 40 11 40 13 0 6 25 -7 26 -25 2 -44 18 -45 38 0 11 -3
16 -5 10 -7 -18 -57 33 -87 90 -31 56 -34 76 -11 76 14 0 15 2 3 17 -13 15
-14 15 -17 0 -7 -33 -22 -16 -22 23 0 32 -4 40 -18 40 -10 0 -28 14 -40 30
-16 22 -31 30 -52 30 -17 0 -30 5 -30 10 0 6 -18 10 -40 10 l-40 0 0 47 c0 36
-3 44 -12 35 -8 -8 -12 -51 -11 -127 0 -108 -1 -115 -20 -115 -16 0 -19 -6
-15 -40 2 -28 0 -40 -9 -40 -9 0 -13 -19 -13 -65 l0 -65 -80 0 c-64 0 -80 -3
-80 -15 0 -8 -8 -15 -17 -15 -14 0 -15 -2 -4 -12 11 -10 14 -10 18 0 7 20 33
14 33 -8 0 -11 -7 -20 -15 -20 -8 0 -15 -9 -15 -20 0 -17 7 -20 40 -20 28 0
40 -4 40 -14 0 -8 -4 -16 -8 -18 -4 -1 -18 -20 -31 -40 -12 -21 -27 -38 -32
-38 -5 0 -9 -16 -9 -35 0 -42 17 -46 44 -10 10 14 23 25 27 25 5 0 9 -11 9
-25 0 -18 -5 -25 -19 -25 -10 0 -24 -7 -31 -15 -7 -9 -21 -13 -31 -10 -22 7
-36 -13 -15 -21 9 -3 16 -12 16 -20 0 -8 6 -14 14 -14 10 0 14 -9 13 -27 -2
-24 2 -28 23 -26 19 1 26 -4 27 -18 1 -10 14 -30 30 -43 24 -21 36 -24 81 -21
l52 4 0 -34 c0 -34 1 -35 40 -35 24 0 40 -5 40 -12 0 -6 7 -20 17 -30 15 -17
15 -19 -2 -38 -16 -18 -16 -20 -2 -20 11 0 17 -8 17 -25 0 -15 -6 -25 -14 -25
-8 0 -16 -7 -20 -15 -4 -10 1 -15 14 -15 17 0 20 -7 20 -40 0 -22 -5 -40 -11
-40 -6 0 -26 15 -44 34 -18 19 -42 37 -53 40 -17 6 -18 10 -9 30 10 21 13 22
23 8 16 -22 46 -8 42 20 -2 18 -9 23 -30 23 -16 -1 -28 5 -28 12 0 7 -9 13
-20 13 -17 0 -20 7 -20 50 0 37 -4 50 -15 50 -7 0 -18 7 -22 15 -13 22 -83 1
-83 -25 0 -11 7 -20 15 -20 8 0 15 -6 15 -13 0 -14 -35 -47 -50 -47 -6 0 -10
-7 -10 -15 0 -8 -4 -15 -10 -15 -5 0 -10 -18 -10 -40 0 -28 -4 -40 -14 -40 -8
0 -16 -8 -19 -17 -5 -21 -7 -15 -26 55 -9 31 -17 42 -31 42 -13 0 -20 7 -20
19 0 14 -6 17 -23 14 -28 -5 -45 12 -53 55 -6 32 -6 32 35 32 50 0 53 12 8 28
-50 18 -55 16 -68 -28 -13 -43 -18 -47 -37 -28 -19 19 -31 -7 -25 -53 5 -35 3
-39 -15 -39 -14 0 -20 5 -16 14 8 21 -16 25 -96 16 -40 -4 -81 -6 -89 -3 -25
8 -63 24 -94 39 -16 8 -34 11 -39 7 -6 -3 -8 -1 -5 4 9 15 -19 36 -38 29 -9
-3 -32 3 -53 14 -20 11 -47 20 -59 20 -12 0 -25 5 -29 11 -3 6 -19 9 -35 5
-22 -4 -32 -1 -41 14 -10 15 -24 20 -60 20 -29 0 -48 4 -48 11 0 8 -12 10 -35
6 -21 -3 -53 0 -78 9 -27 10 -43 11 -45 4 -5 -15 -32 -12 -38 5 -9 22 -41 18
-47 -6 -6 -21 -10 -22 -73 -16 -40 4 -72 3 -79 -3 -7 -6 -62 -13 -123 -17
l-111 -6 -53 34 c-29 18 -55 36 -58 39 -3 3 -50 35 -105 71 -55 36 -140 92
-190 125 -103 67 -116 74 -96 50 8 -10 32 -26 53 -37 43 -22 50 -39 14 -32
-15 3 -31 -2 -43 -14 -18 -18 -21 -18 -56 -3 -42 19 -207 158 -207 175 0 2 20
-7 45 -21 48 -25 63 -19 18 8 -16 9 -41 28 -58 42 -16 14 -36 26 -42 26 -7 0
-13 5 -13 10 0 19 30 7 133 -54 58 -34 73 -26 30 14 -21 20 -37 28 -49 23 -10
-4 -15 -2 -11 3 3 6 -29 27 -73 48 -75 35 -100 58 -79 72 5 3 16 0 24 -6 13
-11 15 -7 14 21 0 19 -3 28 -6 22 -6 -15 -26 -17 -51 -4 -9 5 -42 22 -73 37
l-57 28 -35 -27 c-62 -47 -95 -31 -76 38 7 25 16 36 27 34 41 -4 92 2 92 10 0
5 -12 14 -27 19 -27 10 -28 11 -6 17 13 4 20 11 17 16 -3 5 5 9 18 9 13 0 29
5 34 10 7 7 19 8 38 0 36 -13 69 6 62 36 -5 18 0 23 25 28 17 3 42 3 55 0 26
-7 60 18 49 36 -3 6 -25 9 -48 8 -37 -3 -42 0 -43 20 -1 19 4 22 33 22 21 0
36 6 39 15 4 9 11 15 18 14 27 -3 36 2 36 21 0 11 7 20 15 20 8 0 15 -7 15
-15 0 -8 -5 -15 -11 -15 -5 0 -7 -5 -3 -11 9 -15 28 17 21 35 -3 8 -1 18 5 24
8 8 8 15 -1 25 -14 17 4 27 47 27 21 0 24 2 12 10 -13 8 -12 11 5 24 11 9 28
16 38 16 9 0 17 7 17 15 0 8 6 15 14 15 8 0 18 19 25 45 7 28 17 45 26 45 8 0
22 11 31 25 18 28 55 33 77 11 11 -11 17 -12 26 -3 19 19 12 28 -16 21 l-28
-7 26 29 c30 33 44 84 23 84 -8 0 -14 7 -14 15 0 12 -10 15 -45 14 -24 -2 -48
0 -51 4 -4 4 0 7 9 7 23 0 57 40 57 67 0 27 -8 29 -37 8 -20 -14 -22 -13 -25
2 -2 10 5 26 16 36 10 9 14 17 8 17 -16 0 -15 40 1 40 7 1 4 8 -8 18 -16 14
-18 22 -10 40 5 12 16 22 23 22 7 0 10 -5 7 -11 -4 -6 2 -13 14 -16 12 -3 21
-9 21 -14 0 -5 15 -9 33 -8 17 0 26 3 20 6 -7 2 -13 10 -13 17 0 7 -12 17 -27
22 l-28 11 43 13 c43 13 69 7 42 -11 -13 -8 -13 -10 0 -19 23 -15 27 -13 38
19 9 27 16 30 58 33 29 2 49 8 52 17 3 10 -3 12 -27 6 -38 -8 -68 1 -81 25 -8
15 -6 17 13 14 l22 -5 -22 12 c-45 23 -25 32 61 27 69 -5 84 -3 79 8 -3 8 -18
14 -33 14 -16 0 -35 7 -44 15 -12 12 -53 15 -241 15 l-227 0 5 -70 c4 -58 2
-73 -12 -83 -9 -6 -24 -23 -33 -37 -23 -36 -89 -103 -95 -97 -2 3 -5 69 -6
146 l-1 141 -848 0 -848 0 1 -77z m1259 -1243 c13 -11 30 -20 39 -20 9 0 27
-14 40 -30 13 -17 30 -30 37 -30 8 0 17 -7 20 -15 3 -8 14 -17 23 -20 10 -3
24 -17 31 -30 16 -30 30 -32 30 -6 0 11 4 22 8 25 14 9 69 -43 98 -91 15 -27
33 -51 40 -56 7 -4 11 -14 8 -22 -4 -10 0 -15 11 -15 14 0 16 -7 13 -35 -5
-40 -5 -39 22 -22 17 10 22 9 29 -1 4 -7 27 -15 50 -17 45 -4 71 -19 71 -41 0
-8 9 -14 19 -14 10 0 21 -7 24 -15 4 -8 21 -18 39 -23 23 -6 32 -14 30 -25 -2
-11 4 -17 18 -17 11 0 20 -5 20 -10 0 -16 39 -52 88 -84 l43 -27 -2 -60 c-3
-65 1 -70 73 -119 41 -27 49 -55 21 -75 -26 -19 -9 -41 45 -60 49 -18 79 -54
43 -51 -12 1 -16 -8 -15 -37 0 -34 -3 -39 -28 -44 -33 -7 -27 -23 9 -23 29 0
104 -20 117 -31 4 -4 -11 -12 -35 -18 l-44 -10 48 2 c58 3 62 -14 10 -42 l-38
-20 33 -1 c17 0 32 -3 32 -7 6 -111 29 -172 86 -230 39 -39 48 -53 35 -53 -10
0 -24 -6 -30 -14 -9 -11 -8 -14 3 -12 16 1 16 2 16 -54 0 -29 -4 -40 -15 -40
-18 0 -21 -50 -3 -68 9 -9 6 -12 -15 -12 -15 0 -27 -5 -27 -10 0 -6 -13 -24
-29 -40 -21 -22 -37 -30 -64 -30 -19 0 -37 -5 -39 -11 -3 -10 -36 -19 -120
-33 -24 -4 -38 -12 -38 -21 0 -8 -9 -15 -19 -15 -10 0 -21 -7 -25 -15 -3 -8
-11 -15 -18 -15 -7 0 -22 -11 -32 -25 -10 -14 -25 -25 -32 -25 -18 0 -17 40 1
64 22 28 10 36 -56 36 -45 0 -59 -3 -59 -15 0 -7 7 -18 16 -23 16 -9 16 -11 0
-33 -9 -13 -16 -18 -16 -11 0 7 -15 12 -40 12 -33 0 -40 -3 -40 -20 0 -13 -10
-24 -25 -30 -13 -5 -30 -18 -37 -30 -17 -26 -58 -27 -58 -1 0 11 9 23 20 26
11 3 20 10 20 15 0 5 8 11 18 13 9 3 -2 5 -25 6 -33 1 -43 -3 -43 -14 0 -9 -7
-18 -15 -21 -15 -6 -22 -54 -7 -54 4 0 7 -12 6 -27 0 -17 -8 -29 -22 -34 -18
-7 -20 -12 -13 -31 11 -29 -12 -78 -37 -78 -24 1 -55 27 -47 39 3 6 3 11 -2
11 -4 0 -14 4 -22 9 -12 8 -12 12 -2 25 14 17 9 21 -34 28 -15 2 -21 12 -22
38 -4 54 -14 100 -23 100 -8 0 -20 61 -24 126 -2 22 -7 47 -12 55 -9 14 -13
47 -17 129 -1 42 -27 90 -49 90 -13 0 -9 -48 5 -53 9 -3 9 -7 -1 -20 -12 -14
-10 -24 12 -72 23 -47 25 -58 14 -78 -6 -12 -13 -48 -13 -80 -1 -38 -7 -62
-16 -69 -11 -7 -11 -11 -1 -15 7 -2 19 -12 28 -20 13 -14 13 -17 -1 -33 -15
-17 -15 -19 5 -33 12 -8 17 -18 11 -21 -5 -4 -12 -2 -16 4 -3 5 -18 10 -32 10
-24 0 -25 -2 -19 -39 5 -34 3 -39 -16 -44 -12 -4 -24 -4 -27 -2 -2 3 1 5 7 5
7 0 12 16 12 40 0 33 -3 40 -19 40 -12 0 -21 8 -24 23 -3 12 -3 3 -1 -20 4
-46 -10 -58 -26 -20 -5 12 -18 33 -29 47 l-20 25 3 -48 c3 -32 10 -53 22 -62
18 -13 18 -14 -3 -8 -13 3 -23 9 -23 14 0 24 -28 5 -34 -22 -6 -30 -26 -32
-26 -3 0 18 -37 59 -52 59 -6 0 -12 8 -14 18 -1 9 -14 31 -28 48 -14 17 -26
35 -26 40 0 5 -4 9 -10 9 -5 0 -10 -8 -10 -17 0 -10 -13 1 -32 28 -18 24 -36
46 -40 47 -5 2 -8 9 -8 16 0 7 -9 21 -19 30 -11 10 -25 31 -31 47 -7 16 -18
29 -25 29 -43 0 -34 98 11 119 16 7 24 19 24 36 0 25 36 170 46 187 3 4 12 33
20 64 14 55 14 55 -13 91 -26 33 -28 43 -26 112 2 42 4 168 6 281 2 113 9 291
16 395 12 180 14 193 43 250 39 78 113 181 143 201 22 14 103 41 131 43 6 1
21 -8 34 -19z m1298 -1271 c34 -13 74 -34 88 -46 14 -12 40 -25 57 -29 18 -3
43 -15 56 -25 13 -11 30 -19 39 -19 8 0 20 -7 26 -15 6 -8 34 -20 61 -27 28
-7 52 -15 55 -19 3 -3 12 -8 20 -11 10 -3 13 -17 11 -51 -2 -37 1 -47 13 -47
25 0 19 -20 -6 -21 -13 0 4 -7 37 -15 59 -15 148 -10 225 11 14 4 3 -5 -25
-19 -91 -46 -257 -30 -447 43 -182 71 -268 134 -289 212 -12 44 -4 133 9 112
4 -5 35 -21 70 -34z m2104 -146 c18 -16 38 -32 44 -38 7 -5 22 -18 34 -28 15
-13 20 -25 16 -40 -3 -12 -19 -70 -35 -129 -28 -106 -28 -113 7 -109 22 3 -24
-64 -110 -161 -71 -81 -142 -127 -205 -134 -55 -7 -211 12 -234 27 -9 7 -3 8
21 2 19 -4 55 -8 80 -8 l45 0 10 45 c13 56 22 71 43 68 13 -2 22 20 43 107 46
183 58 224 80 268 12 23 25 44 28 47 3 3 24 29 46 58 21 28 42 52 46 52 4 0
22 -12 41 -27z m-987 -98 c4 -24 2 -41 -5 -43 -19 -7 -11 -35 9 -29 15 3 21
-2 26 -21 4 -15 2 -28 -4 -30 -5 -2 -7 -19 -4 -39 3 -19 1 -38 -4 -42 -15 -9
-23 -54 -13 -71 7 -11 12 -12 21 -3 9 9 15 8 28 -4 13 -13 16 -41 18 -142 1
-129 8 -181 24 -181 5 0 9 9 9 20 0 30 17 24 23 -7 11 -54 -30 -107 -108 -142
-12 -5 -27 -16 -34 -25 -23 -27 -31 -18 -15 19 7 19 14 64 14 100 0 65 0 66
-22 53 -13 -6 -47 -13 -77 -14 -32 -1 -57 -7 -62 -15 -6 -10 -13 -11 -33 -1
-14 7 -38 18 -53 25 -21 10 -27 10 -30 0 -3 -7 -14 -13 -25 -13 -26 0 -98 31
-98 42 0 4 -7 8 -15 8 -36 0 -84 43 -95 85 -4 14 -17 22 -42 26 -21 3 -44 11
-52 19 -18 14 -21 62 -5 92 13 23 108 68 146 68 26 0 63 25 63 42 0 15 43 52
105 90 33 21 76 51 95 67 74 63 98 81 105 81 3 0 13 6 21 14 8 8 29 14 48 13
32 -2 35 -5 41 -42z m-3108 -4905 c6 0 16 -6 22 -14 10 -12 8 -17 -7 -25 -11
-6 -22 -8 -24 -5 -3 2 -8 -16 -12 -42 -5 -38 -2 -55 17 -88 19 -35 28 -42 62
-46 37 -5 40 -8 40 -35 0 -23 -5 -30 -20 -31 -38 -1 -92 35 -124 82 -39 59
-43 132 -10 196 19 37 23 40 34 25 7 -9 17 -17 22 -17z m1716 -2440 c3 -12 14
-20 26 -20 11 0 25 -9 31 -20 9 -17 8 -20 -10 -20 -11 0 -20 6 -20 13 0 8 -3
7 -10 -3 -8 -12 -13 -11 -31 9 l-23 24 -9 -21 c-5 -12 -17 -23 -26 -26 -9 -3
0 -4 19 -2 19 2 49 -2 65 -9 l30 -13 -30 -11 c-16 -7 -40 -10 -52 -6 -13 3
-23 1 -23 -5 0 -5 15 -10 34 -10 18 0 47 -7 62 -15 28 -15 29 -15 7 -21 -13
-4 -23 -10 -23 -15 0 -5 -13 -9 -28 -9 -16 0 -32 -3 -35 -6 -4 -4 -30 -9 -59
-11 -29 -2 -59 -6 -65 -8 -24 -8 -13 -25 15 -25 77 1 124 -29 86 -57 -16 -12
-16 -13 4 -13 12 0 22 5 22 10 0 6 15 10 32 10 32 0 32 0 10 16 -37 26 -26 36
36 32 52 -3 57 -1 55 17 -1 11 0 14 3 8 3 -7 23 -13 45 -13 21 0 39 -4 39 -10
0 -5 8 -10 18 -10 20 -1 62 -33 62 -49 0 -6 11 -11 25 -11 27 0 28 -1 19 -24
-4 -11 -12 -13 -27 -7 -12 4 -39 6 -60 3 -37 -4 -37 -5 -21 -23 9 -11 13 -19
8 -20 -5 0 0 -4 11 -9 18 -8 17 -9 -7 -9 -17 -1 -28 -7 -28 -15 0 -8 -7 -16
-15 -20 -8 -3 -18 -23 -21 -46 -4 -22 -10 -40 -15 -40 -5 0 -9 -7 -9 -15 0 -8
7 -15 15 -15 9 0 15 -9 15 -25 0 -14 -4 -25 -8 -25 -16 0 -62 59 -56 73 3 8
-4 25 -15 38 -20 24 -20 24 -35 4 -15 -20 -15 -20 -16 3 0 12 -6 22 -14 22 -8
0 -16 10 -20 23 -7 27 -46 55 -46 33 0 -8 6 -16 13 -19 6 -2 9 -8 5 -12 -4 -4
-19 6 -34 23 -23 25 -29 28 -40 17 -11 -11 -22 -11 -61 1 -48 15 -49 4 -1 -20
15 -8 22 -20 21 -34 -2 -16 3 -22 17 -22 11 0 20 -4 20 -9 0 -5 9 -11 20 -14
13 -3 20 -13 20 -29 0 -30 -15 -52 -29 -44 -6 4 -8 12 -5 18 5 7 1 9 -9 5 -10
-4 -18 1 -22 14 -8 23 -41 43 -56 33 -6 -4 -16 0 -21 7 -7 10 -8 8 -5 -8 4
-19 2 -21 -13 -13 -10 5 -20 16 -24 25 -3 8 -12 15 -21 15 -17 0 -21 26 -5 32
5 2 12 30 15 63 3 32 8 61 10 63 2 2 15 -8 29 -22 14 -16 27 -23 31 -16 4 7
12 7 25 0 27 -15 60 -12 60 5 0 8 -10 20 -22 26 l-23 12 23 10 c34 15 26 29
-13 21 -31 -5 -39 -3 -60 22 -14 16 -25 35 -25 42 0 15 -12 16 -27 1 -6 -6
-16 -8 -22 -5 -19 12 -12 26 13 26 18 0 26 6 28 22 4 25 28 37 28 14 0 -20 0
-20 39 0 20 10 42 13 62 9 l30 -7 -2 47 c-2 29 -9 50 -18 56 -14 8 -14 11 3
24 11 8 30 15 42 15 13 0 26 5 29 10 10 17 32 11 38 -10z m2640 -509 c13 -13
89 -15 103 -2 5 5 37 3 74 -5 56 -13 68 -13 91 0 18 11 73 16 207 20 l182 4 0
-24 c0 -15 -6 -24 -15 -24 -9 0 -18 -8 -22 -17 -3 -10 -16 -32 -29 -50 -20
-26 -36 -34 -97 -48 -72 -17 -73 -17 -116 4 -41 21 -43 21 -56 4 -12 -16 -14
-14 -28 17 -8 19 -29 48 -46 64 -30 29 -31 29 -51 11 -20 -18 -20 -18 -20 10
0 21 -4 26 -16 21 -9 -3 -28 -6 -42 -6 -16 0 -22 -3 -15 -8 14 -9 -3 -35 -29
-45 -10 -3 -18 -13 -18 -22 0 -8 -9 -15 -20 -15 -11 0 -20 -5 -20 -10 0 -6 -6
-5 -14 2 -9 9 -11 19 -5 30 13 25 11 58 -4 58 -7 0 -24 -18 -36 -41 -24 -42
-22 -42 -83 -22 -10 3 -18 0 -18 -6 0 -6 -17 -11 -38 -11 -21 0 -42 -4 -47 -9
-16 -14 -75 -24 -75 -12 0 7 -8 7 -27 0 -27 -10 -75 -4 -104 14 -11 7 -22 6
-34 -1 -32 -18 -63 4 -67 49 -3 36 -1 39 27 45 16 3 35 9 40 13 6 3 37 11 70
18 73 15 382 10 398 -6z"/>
<path d="M9018 11502 c-37 -5 -67 -38 -111 -125 l-39 -76 6 -103 c4 -57 6
-120 6 -141 0 -47 13 -37 56 43 16 30 41 73 55 95 15 22 38 60 52 85 27 48 63
90 76 90 5 0 11 -17 15 -38 8 -51 30 -68 98 -76 56 -6 58 -5 72 23 9 16 21 31
29 34 10 4 13 20 9 64 -3 32 -9 60 -13 61 -5 2 -9 10 -9 18 0 15 -7 16 -93 14
-32 -1 -65 4 -72 10 -8 7 -32 14 -52 17 -21 2 -42 5 -48 6 -5 2 -22 1 -37 -1z"/>
<path d="M9343 11238 c-7 -7 -17 -27 -24 -43 -9 -23 -13 -26 -16 -12 -5 20 -5
20 -102 17 -48 -1 -76 2 -81 10 -6 9 -13 9 -31 0 -45 -24 -102 -110 -130 -194
-17 -55 -19 -47 35 -165 20 -44 87 -55 104 -16 14 30 30 32 40 5 9 -24 27 -14
36 20 6 21 5 22 -4 8 -14 -24 -26 -23 -33 2 -3 11 -1 20 4 20 5 0 9 5 9 11 0
6 -7 9 -15 5 -9 -3 -15 0 -15 8 0 14 2 14 70 18 49 3 73 17 109 63 18 24 21
37 16 71 -4 27 -1 50 10 70 8 16 15 37 15 47 0 9 7 17 15 17 16 0 17 5 6 33
-6 16 -9 17 -18 5z"/>
<path d="M9153 10431 c-52 -47 -134 -81 -197 -81 -30 0 -58 -5 -61 -10 -9 -14
37 -51 89 -71 37 -15 41 -20 44 -55 2 -32 13 -68 29 -93 1 -1 19 14 40 35 48
48 96 184 91 258 l-3 47 -32 -30z"/>
<path d="M11790 12955 c0 -9 45 -28 70 -29 15 -1 25 -7 25 -16 0 -8 9 -16 20
-19 11 -2 24 -9 30 -16 5 -8 21 -15 35 -17 16 -2 25 -9 24 -20 -1 -10 4 -14
11 -11 15 5 75 -23 75 -37 0 -5 8 -11 18 -14 42 -14 172 -158 172 -190 0 -9 7
-16 15 -16 8 0 15 -4 15 -10 0 -5 6 -10 13 -10 7 0 26 -13 42 -30 16 -16 35
-30 42 -30 22 0 15 28 -11 46 -27 17 -66 76 -66 100 0 8 -3 14 -7 14 -5 0 -23
14 -41 30 -19 16 -42 32 -53 35 -10 4 -19 12 -19 19 0 12 -18 31 -116 123
-110 103 -109 103 -206 103 -49 0 -88 -2 -88 -5z"/>
<path d="M12113 12612 c-11 -15 -23 -37 -27 -49 -6 -18 -1 -23 31 -34 48 -15
74 -49 37 -49 -8 0 -12 -5 -9 -10 4 -6 11 -8 16 -5 10 7 11 -10 3 -43 -4 -15
-12 -21 -23 -18 -9 3 -22 2 -29 -3 -11 -6 -9 -17 9 -54 12 -25 26 -44 31 -41
4 3 8 -3 8 -13 1 -49 63 -73 79 -31 l8 22 12 -22 c10 -18 9 -22 -4 -22 -24 0
-18 -30 9 -39 14 -6 26 -21 30 -38 9 -39 59 -77 92 -69 15 4 22 11 18 18 -4 7
-3 8 5 4 9 -6 9 -11 0 -22 -10 -12 -1 -14 53 -14 36 0 67 3 71 6 10 11 -17 44
-36 44 -13 0 -17 5 -13 15 3 8 1 15 -4 15 -6 0 -5 9 2 20 10 16 10 22 0 32
-11 11 -16 10 -26 -4 -7 -10 -16 -18 -20 -18 -11 0 -6 28 6 32 8 3 5 12 -10
28 -24 26 -21 40 9 40 11 0 19 7 19 16 0 13 -6 15 -27 9 -32 -8 -32 -8 -57 -6
-20 1 -20 1 0 15 16 13 17 18 6 36 -7 11 -10 25 -7 30 4 6 -3 10 -13 10 -11 0
-22 -9 -25 -20 -3 -12 -14 -20 -25 -20 -31 0 -37 19 -10 29 l23 10 -25 1 c-14
0 -20 3 -14 8 6 4 11 22 10 39 -1 24 -6 33 -18 33 -26 0 -69 41 -63 60 3 10
-7 28 -25 46 -16 16 -30 35 -30 42 0 21 -25 13 -47 -16z"/>
<path d="M5343 12372 c-28 -34 -31 -108 -6 -155 17 -32 17 -32 21 -7 4 27 38
80 52 80 8 0 19 -10 48 -44 10 -12 17 -13 37 -4 14 6 25 17 25 24 0 16 -31 34
-59 34 -12 0 -21 5 -21 10 0 6 -7 10 -15 10 -8 0 -15 8 -15 18 0 14 -34 63
-43 62 -1 0 -12 -13 -24 -28z"/>
<path d="M1786 12274 c-4 -14 -4 -35 0 -47 6 -20 5 -21 -11 -7 -17 14 -17 13
-11 -10 4 -15 4 -20 -1 -13 -7 10 -16 10 -44 0 -45 -16 -49 -23 -43 -77 16
-141 73 -259 193 -400 18 -22 38 -40 44 -40 5 0 23 14 40 31 20 22 26 34 17
39 -8 5 -7 11 5 24 22 21 24 20 17 -6 -3 -14 -2 -19 6 -14 7 4 12 12 12 18 0
6 16 32 36 60 44 59 95 177 97 224 1 19 6 34 10 34 4 0 7 21 5 48 -3 43 -5 47
-30 50 -31 4 -88 65 -88 94 0 16 -12 18 -124 18 l-124 0 -6 -26z m54 0 c0 -14
12 -16 95 -12 52 2 89 1 83 -3 -20 -12 7 -55 52 -85 38 -25 40 -30 38 -68 -1
-23 -8 -52 -15 -66 -7 -14 -13 -32 -13 -40 0 -40 -65 -151 -132 -227 l-37 -41
-35 45 c-19 25 -37 50 -40 56 -3 9 -7 9 -13 -1 -7 -9 -14 -7 -29 10 -31 37
-46 76 -31 84 7 4 9 4 5 -1 -8 -9 31 -85 44 -85 12 0 10 9 -10 38 -20 29 -67
156 -77 209 -8 39 1 73 19 73 20 0 69 57 61 71 -5 7 -4 10 2 6 6 -4 14 0 17 9
11 28 6 39 -9 20 -15 -19 -15 -19 -15 2 0 15 6 22 20 22 12 0 20 -7 20 -16z"/>
<path d="M7710 12263 c-39 -12 -58 -27 -80 -63 -34 -55 -73 -70 -188 -71 -136
-2 -152 -7 -166 -49 -7 -23 -23 -41 -49 -55 -20 -12 -34 -25 -30 -28 3 -4 -1
-7 -10 -7 -21 0 -22 -14 -2 -30 8 -7 15 -18 15 -24 1 -11 80 -69 111 -81 12
-5 21 3 33 26 9 18 16 38 16 45 0 44 103 60 191 29 32 -12 50 -13 73 -5 57 20
81 13 110 -30 14 -22 26 -51 26 -64 0 -54 27 -13 44 67 10 45 22 95 27 111 5
16 9 38 9 49 0 27 62 157 75 157 5 1 -1 7 -15 15 -33 19 -80 19 -108 -1 -20
-14 -24 -14 -38 0 -16 17 -20 17 -44 9z"/>
<path d="M980 12243 c-73 -25 -129 -72 -152 -128 -6 -16 -16 -33 -21 -37 -6
-3 -10 -44 -10 -90 0 -193 106 -283 295 -252 21 4 35 10 32 15 -3 5 2 6 10 3
9 -3 27 4 42 15 15 12 23 21 18 21 -5 0 2 7 14 16 13 9 21 22 18 30 -3 8 0 11
8 8 12 -4 26 33 26 67 0 5 -31 9 -69 9 -68 0 -70 0 -76 -29 -12 -58 -100 -70
-146 -20 -26 27 -29 38 -29 94 0 109 45 175 119 175 21 0 42 5 49 12 9 9 12 9
12 0 0 -7 -5 -12 -12 -12 -6 0 -2 -10 10 -23 12 -13 22 -31 22 -40 0 -10 8
-17 20 -17 24 0 25 11 6 73 -11 37 -11 47 -1 51 19 7 27 -5 13 -21 -8 -10 -8
-17 0 -25 9 -9 12 -8 12 5 0 9 5 17 11 17 7 0 8 -7 4 -17 -5 -10 -10 -33 -13
-50 l-4 -33 47 0 c43 0 46 2 39 22 -14 45 -33 84 -51 103 -30 34 -113 79 -97
54 4 -8 1 -8 -14 0 -21 11 -104 14 -132 4z"/>
<path d="M595 12108 c-10 -73 -26 -162 -34 -198 -16 -65 -16 -65 -51 -65 l-35
0 1 48 0 47 -63 0 c-59 0 -63 -2 -69 -25 -9 -38 4 -104 26 -133 24 -29 26 -16
5 24 -15 30 -21 109 -7 117 4 3 5 -17 4 -44 -2 -29 0 -49 6 -49 6 0 13 -17 17
-38 5 -32 12 -40 39 -50 66 -24 216 -1 216 34 0 8 4 14 8 14 5 0 14 11 20 25
7 15 8 25 2 25 -6 0 -10 4 -10 10 0 5 7 7 15 4 11 -4 15 1 16 17 2 35 6 58 32
222 l24 147 -58 0 c-52 0 -58 -2 -62 -22 l-4 -23 -2 23 c0 12 -5 22 -9 22 -5
0 -17 -60 -27 -132z"/>
<path d="M1400 12213 c0 -16 -7 -64 -15 -108 -13 -69 -32 -198 -50 -327 l-5
-38 68 0 68 0 13 78 c7 42 17 100 22 127 13 64 38 243 39 273 0 21 -4 22 -70
22 -70 0 -70 0 -70 -27z"/>
<path d="M13937 12049 c-92 -10 -100 -18 -93 -95 3 -35 10 -83 17 -106 7 -24
13 -63 13 -88 1 -25 6 -45 11 -45 6 0 16 -4 23 -8 9 -6 12 7 12 57 0 70 15
116 37 116 24 0 53 -98 52 -173 -2 -60 11 -87 42 -87 33 0 39 32 34 192 -6
167 -11 216 -27 236 -11 13 -20 13 -121 1z"/>
<path d="M14969 12029 c-12 -7 -14 -87 -11 -491 2 -276 7 -487 12 -493 6 -7 6
-34 0 -71 -12 -73 -3 -2337 10 -2409 5 -28 6 -103 3 -166 -8 -155 -2 -185 40
-198 34 -11 130 -6 157 9 23 12 50 -7 50 -35 0 -20 7 -25 38 -31 20 -4 42 -14
49 -23 10 -14 16 -14 62 3 27 10 54 15 60 12 5 -4 16 1 25 10 17 16 17 -21 0
1509 -3 270 -7 711 -9 980 -6 697 -13 1137 -21 1144 -3 3 -16 -6 -28 -21 -19
-24 -29 -28 -72 -28 -59 0 -75 13 -99 79 -18 53 -80 114 -131 132 -53 18 -64
27 -64 54 0 26 -47 49 -71 34z"/>
<path d="M9781 12012 c-6 -10 -6 -24 -1 -32 12 -19 6 -26 -38 -47 -40 -18 -82
-60 -82 -80 0 -7 11 -13 25 -13 14 0 25 5 25 10 0 6 13 10 30 10 28 0 29 -2
23 -32 -3 -18 -7 -35 -9 -36 -1 -2 -19 2 -40 8 -33 11 -39 11 -51 -6 -17 -23
-17 -34 1 -34 8 0 17 -6 19 -12 4 -10 6 -10 6 0 1 7 15 12 35 12 24 0 36 5 41
18 3 9 14 28 25 41 15 17 23 21 33 13 10 -9 13 -1 15 35 1 26 7 50 12 53 7 4
1 14 -15 24 -25 16 -25 19 -11 40 11 17 12 26 3 35 -16 16 -35 14 -46 -7z"/>
<path d="M14455 11530 c-4 -16 -3 -265 1 -552 3 -288 7 -613 9 -723 1 -198 6
-235 31 -284 18 -33 18 -51 0 -51 -23 0 -30 -91 -28 -380 2 -277 2 -398 0
-435 -2 -41 13 -735 18 -863 l6 -133 27 3 26 3 2 130 c1 72 2 204 1 295 0 91
0 179 1 195 3 47 1 415 -3 815 -3 201 -7 673 -10 1050 -7 763 -10 932 -20 949
-4 6 -18 11 -31 11 -18 0 -25 -7 -30 -30z"/>
<path d="M13453 11340 c-37 -15 -25 -105 20 -154 30 -32 32 -44 15 -80 -9 -22
-8 -29 7 -46 13 -15 22 -17 36 -10 23 13 69 13 69 0 0 -6 28 -10 63 -10 76 0
92 -16 78 -80 -8 -36 -43 -79 -64 -80 -5 0 -15 -7 -24 -15 -11 -11 -25 -14
-51 -9 -21 4 -41 7 -47 8 -5 0 -11 -13 -13 -31 -3 -28 0 -32 29 -38 24 -6 38
-2 62 15 26 20 38 22 97 17 52 -4 73 -2 90 10 23 16 23 16 16 -13 -9 -36 -44
-74 -67 -74 -10 0 -20 -4 -23 -9 -4 -5 -26 -19 -50 -31 -64 -30 -72 -44 -45
-69 13 -12 35 -21 51 -21 15 0 28 -4 28 -8 0 -14 33 -46 60 -59 14 -6 50 -21
81 -33 54 -20 57 -20 91 -4 74 35 114 -6 85 -88 -26 -72 -28 -127 -6 -149 10
-10 24 -19 29 -19 17 0 7 -33 -15 -51 -23 -19 -74 -42 -130 -60 -58 -19 -66
-26 -54 -55 11 -32 12 -94 0 -94 -14 0 -24 -72 -11 -80 8 -5 6 -11 -5 -20 -8
-7 -15 -21 -15 -31 0 -14 -11 -19 -46 -25 -34 -5 -44 -10 -40 -21 3 -8 6 -19
6 -24 0 -5 22 -9 49 -9 l50 0 -2 -54 c-2 -62 7 -77 54 -82 18 -2 42 -11 53
-19 53 -37 55 -40 53 -91 -2 -43 0 -49 18 -49 11 -1 25 -4 32 -8 6 -4 14 -1
17 5 10 22 -4 -66 -16 -94 -8 -22 -7 -35 6 -63 27 -57 38 -32 36 84 -1 58 1
160 5 226 4 81 2 149 -7 210 -8 50 -11 104 -7 120 13 58 10 220 -5 240 -11 16
-11 26 0 69 15 56 19 465 5 501 -6 16 -16 19 -57 17 -38 -2 -45 0 -31 8 10 7
17 23 17 40 0 26 4 30 29 30 40 0 53 38 41 122 -5 35 -10 66 -10 70 0 4 -13 6
-28 6 -34 -1 -78 26 -85 52 -3 11 -13 23 -24 28 -58 24 -111 68 -127 104 -14
34 -20 39 -39 33 -12 -4 -38 -9 -57 -12 -19 -3 -41 -10 -47 -15 -14 -12 -83
-2 -83 12 0 12 -91 70 -109 69 -9 0 -26 -4 -38 -9z"/>
<path d="M15682 10333 c-1 -6 -19 -13 -39 -15 l-38 -3 -3 -88 c-3 -101 8 -129
39 -101 17 15 18 13 29 -28 9 -32 9 -51 1 -74 -14 -39 -14 -104 0 -104 8 0 9
-17 4 -56 -4 -35 -3 -54 3 -50 10 6 22 132 22 221 -1 62 -16 314 -18 298z"/>
<path d="M1753 10065 c-7 -8 -13 -30 -13 -49 0 -21 -6 -38 -16 -44 -10 -6 -14
-20 -12 -43 2 -29 7 -34 28 -35 14 0 37 -8 52 -18 16 -10 35 -15 44 -12 17 6
10 26 -10 26 -8 0 -11 12 -8 35 3 26 13 41 36 57 17 12 33 23 35 25 8 6 -32
43 -62 58 -37 19 -58 18 -74 0z"/>
<path d="M2125 9807 c-12 -22 -16 -43 -11 -60 6 -24 11 -27 47 -27 36 0 41 -3
51 -31 8 -22 15 -28 27 -23 9 3 25 9 37 11 17 4 20 11 19 49 -2 46 -12 64 -36
68 -8 1 -27 9 -44 18 -61 32 -70 31 -90 -5z"/>
<path d="M1895 9730 c-4 -6 -24 -19 -46 -30 -21 -11 -39 -27 -39 -36 0 -11 -8
-15 -27 -13 -32 4 -36 -2 -28 -34 7 -27 -38 -87 -65 -87 -8 0 -2 -7 14 -15 33
-17 56 -19 56 -5 0 23 41 8 59 -21 21 -34 18 -60 -9 -84 -15 -14 -18 -14 -30
0 -7 8 -21 15 -31 15 -10 0 -21 5 -24 10 -3 6 -11 10 -16 10 -6 0 6 -20 25
-44 20 -23 36 -48 36 -53 0 -5 9 -18 19 -27 11 -10 22 -38 26 -67 4 -27 10
-49 13 -49 4 0 18 16 32 36 14 19 37 37 53 41 33 7 42 35 33 101 -19 138 -25
212 -19 259 8 75 -10 129 -32 93z"/>
<path d="M2138 9585 c-1 -5 -2 -40 -2 -76 -1 -50 -6 -72 -19 -87 -20 -22 -17
-52 9 -73 9 -7 42 -11 87 -10 51 1 78 -2 92 -13 49 -37 70 -12 59 74 -9 73
-19 92 -47 85 -24 -7 -77 27 -77 48 0 7 -14 20 -31 29 -17 10 -28 22 -24 28 4
6 -4 9 -19 8 -15 -1 -27 -7 -28 -13z"/>
<path d="M13619 9556 c-2 -2 -101 -6 -219 -9 -118 -4 -230 -9 -248 -13 l-34
-7 6 -216 c4 -119 6 -232 6 -251 0 -19 0 -73 -1 -120 -1 -115 11 -250 22 -250
5 0 9 11 9 24 0 13 7 26 15 30 8 3 15 13 15 21 0 9 5 13 10 10 6 -3 13 1 16 9
8 20 30 21 38 1 3 -8 16 -19 30 -25 45 -17 43 -121 -3 -118 -9 1 -44 0 -78 0
l-63 -2 0 -77 c0 -79 9 -111 28 -99 5 3 15 -1 22 -9 10 -12 10 -21 1 -42 -10
-21 -14 -24 -21 -13 -5 8 -13 11 -17 6 -4 -4 -8 -278 -8 -609 1 -904 2 -927
34 -927 28 0 51 23 65 65 10 27 21 41 35 43 12 2 21 -1 21 -7 0 -6 -4 -11 -10
-11 -5 0 -10 -8 -10 -19 0 -15 10 -19 54 -24 83 -8 124 -32 138 -78 7 -26 17
-39 28 -39 10 0 34 -13 55 -30 21 -16 41 -30 46 -30 4 0 20 -15 34 -34 26 -34
26 -35 9 -68 -23 -47 -54 -78 -77 -78 -20 0 -20 1 -4 -67 5 -20 86 -85 97 -78
5 3 10 16 10 28 0 15 3 18 8 9 5 -7 16 -10 24 -7 19 8 25 -1 33 -46 3 -18 10
-36 14 -39 4 -3 8 -19 9 -37 1 -33 -17 -56 -39 -51 -8 2 -15 -6 -16 -17 -3
-23 46 -80 109 -125 41 -30 42 -30 172 -30 72 0 137 4 145 9 11 7 11 18 1 64
-10 43 -10 69 -1 113 16 81 14 149 -4 164 -13 11 -23 11 -54 0 -59 -19 -73
-12 -107 60 -45 93 -65 163 -73 255 -9 94 0 137 32 153 12 7 63 13 112 14 l90
3 0 160 0 160 -101 -4 c-84 -2 -103 0 -117 14 -37 37 0 155 48 155 6 0 21 -9
33 -21 19 -17 31 -19 74 -15 77 9 78 11 78 148 0 106 2 120 18 124 12 4 18 16
18 43 1 20 7 48 13 60 12 21 14 21 30 7 10 -9 23 -16 29 -16 6 0 18 -13 27
-30 18 -34 34 -37 65 -12 l22 18 -28 32 c-23 26 -28 42 -31 94 -4 73 -25 101
-71 92 -15 -3 -44 2 -64 10 -34 15 -38 20 -38 54 0 20 -5 223 -10 450 -7 340
-11 415 -24 427 -8 8 -16 19 -18 25 -3 11 -78 -19 -78 -31 0 -4 -14 -4 -31 1
-18 5 -35 7 -40 5 -4 -3 -9 0 -11 6 -2 6 -15 13 -28 14 -14 1 -42 10 -62 18
-30 13 -39 23 -48 58 -9 34 -9 50 4 83 22 58 23 304 1 346 -9 17 -21 30 -29
30 -16 0 -56 42 -56 59 0 25 -66 72 -81 57z m-9 -760 c-6 -6 -10 -43 -10 -83
0 -70 -1 -73 -23 -73 -13 0 -32 9 -42 20 -10 11 -24 20 -31 20 -7 0 -18 16
-24 35 -6 19 -16 35 -21 35 -5 0 -9 4 -9 8 0 5 26 14 58 21 87 19 92 21 92 39
0 15 2 15 10 2 6 -9 6 -18 0 -24z m340 -556 c0 -43 6 -95 14 -116 16 -47 8
-74 -29 -94 -23 -12 -26 -19 -21 -48 6 -41 5 -40 39 -46 41 -7 50 -15 36 -32
-10 -13 -14 -12 -29 1 -24 22 -39 1 -38 -54 0 -49 -5 -56 -47 -64 -41 -7 -61
22 -70 99 -10 94 -16 114 -31 114 -10 0 -14 13 -14 48 0 42 4 51 25 62 24 13
35 50 15 50 -5 0 -10 7 -10 15 0 9 -7 18 -15 21 -9 4 -15 19 -15 40 0 32 1 33
33 27 17 -3 36 -6 42 -7 5 0 19 19 31 42 27 58 44 68 67 41 13 -16 17 -40 17
-99z"/>
<path d="M2604 9478 c-55 -59 -69 -91 -69 -162 0 -85 27 -130 79 -134 21 -2
43 1 49 7 6 6 19 11 29 11 43 0 47 75 7 129 -19 26 -20 32 -8 65 11 31 11 43
-1 79 -8 23 -22 43 -30 45 -8 1 -33 -17 -56 -40z"/>
<path d="M12754 9326 c-10 -26 4 -728 14 -738 16 -16 23 22 24 119 1 54 6 99
15 116 13 25 12 30 -7 54 -21 27 -28 83 -10 83 6 0 10 11 10 24 0 35 10 56 26
56 12 0 18 12 15 32 0 3 -1 43 -2 87 -1 64 -5 83 -20 97 -11 9 -19 27 -19 39
0 36 -35 60 -46 31z"/>
<path d="M528 9281 c-59 -20 -125 -65 -158 -109 -19 -26 -37 -49 -40 -52 -3
-3 -28 -34 -54 -69 l-49 -63 13 -72 c16 -90 22 -102 65 -116 19 -6 45 -26 57
-43 12 -18 31 -41 41 -52 10 -11 28 -41 40 -68 22 -47 33 -54 107 -71 18 -4
30 -16 39 -42 34 -94 125 -176 206 -184 41 -4 52 -9 62 -31 9 -18 31 -34 70
-50 32 -12 61 -28 65 -33 15 -21 8 -63 -17 -110 -36 -68 -115 -309 -115 -354
-1 -20 -5 -57 -11 -82 -18 -84 -39 -195 -54 -290 -14 -83 -19 -99 -45 -122
-54 -50 -90 -39 -155 46 -21 28 -34 36 -49 32 -12 -3 -39 5 -66 21 -62 37
-126 36 -199 -3 -72 -39 -82 -63 -45 -104 16 -17 40 -43 53 -58 16 -17 26 -22
29 -14 2 7 11 12 20 11 11 0 12 -2 5 -6 -7 -2 -13 -9 -13 -14 0 -6 9 -5 21 1
19 11 20 9 17 -32 -2 -35 -7 -43 -23 -43 -15 0 -19 6 -17 25 2 18 0 21 -6 11
-8 -11 -11 -9 -17 8 -8 25 -21 23 -72 -12 -18 -12 -33 -31 -33 -41 0 -11 -5
-34 -12 -52 -11 -31 -9 -35 36 -91 45 -54 48 -60 42 -102 -3 -24 -10 -49 -15
-55 -5 -6 -12 -30 -16 -53 -3 -23 -20 -63 -37 -88 -17 -25 -39 -78 -49 -118
-11 -40 -26 -86 -34 -104 -8 -17 -15 -47 -15 -67 0 -61 -22 -129 -62 -188
l-38 -58 1 -1477 c1 -813 3 -1471 5 -1463 1 8 8 48 14 88 17 106 32 119 149
131 51 6 104 17 117 26 31 20 153 23 165 4 13 -21 11 -73 -4 -93 -7 -10 -32
-20 -55 -23 -47 -6 -68 -28 -102 -105 -10 -24 -29 -53 -42 -65 -40 -36 -176
-123 -193 -123 -18 0 -39 17 -48 40 -3 8 -5 -84 -5 -205 0 -156 3 -201 8 -155
10 81 24 117 47 123 65 18 137 26 273 32 85 3 184 12 220 20 36 8 125 24 199
35 98 15 138 25 147 38 18 23 17 93 -1 189 -22 116 -20 136 34 268 27 66 54
135 61 153 7 18 20 37 29 41 14 8 17 1 19 -51 4 -64 22 -104 50 -109 9 -2 61
-3 114 -1 96 3 98 4 105 30 4 19 -3 43 -26 87 -21 42 -35 86 -41 136 -5 41
-14 116 -21 167 -10 74 -10 107 0 160 7 37 17 92 22 122 40 250 65 361 83 372
23 16 50 7 86 -30 37 -36 53 -74 65 -153 3 -21 15 -49 27 -64 21 -27 24 -27
97 -22 112 9 115 14 107 192 -4 77 -14 232 -22 345 -9 117 -13 238 -9 283 3
42 5 77 2 77 -2 0 -30 -9 -63 -20 -32 -12 -84 -23 -114 -26 -54 -6 -55 -5 -68
24 -12 28 -10 38 13 94 14 35 41 102 60 149 52 135 82 189 105 189 24 0 23 3
50 -224 12 -98 24 -185 27 -192 3 -8 13 -14 22 -14 16 0 17 13 14 143 -7 297
-21 627 -31 747 -6 69 -16 244 -22 390 -6 146 -16 326 -21 400 -5 74 -14 238
-19 364 -6 126 -15 236 -19 245 -5 9 -10 154 -12 323 -4 298 -3 308 16 322 18
13 22 12 43 -6 18 -18 22 -32 22 -82 1 -72 19 -116 39 -92 7 8 18 51 25 95 7
44 19 87 26 96 10 12 35 15 115 15 137 0 140 3 131 137 -3 54 -10 190 -15 303
-11 248 -19 316 -38 332 -8 6 -44 13 -80 14 -79 4 -98 18 -98 74 0 61 21 76
104 72 l69 -2 -3 82 c-1 46 -3 89 -4 96 -1 14 -31 17 -31 2 0 -5 -10 -10 -22
-10 -25 -1 -58 -22 -58 -37 0 -39 -93 -90 -111 -61 -12 19 36 88 61 88 13 0
18 38 8 48 -6 6 -17 8 -24 5 -8 -3 -26 2 -40 12 -14 9 -27 15 -30 13 -2 -2 -4
-31 -3 -64 0 -32 0 -72 0 -89 0 -16 4 -46 10 -66 9 -30 8 -42 -7 -70 -15 -29
-18 -63 -18 -249 -1 -208 -2 -216 -23 -237 -27 -27 -31 -43 -36 -148 -3 -47
-9 -81 -16 -83 -6 -2 -11 -11 -12 -20 -1 -48 -23 48 -37 168 -15 124 -17 165
-13 319 2 61 -4 87 -22 94 -11 4 -168 -55 -213 -80 -12 -7 -41 -15 -65 -19
-28 -5 -53 -16 -68 -33 -41 -43 -68 -53 -101 -36 -34 18 -44 19 -35 5 7 -12
-8 -19 -52 -24 -23 -2 -33 1 -33 10 0 8 -7 14 -15 14 -20 0 -19 12 3 31 18 15
76 35 136 46 34 7 76 40 76 61 0 7 7 21 16 29 22 23 11 56 -44 135 -26 37 -57
82 -70 100 -74 108 -156 166 -315 219 -68 23 -178 33 -219 20z m564 -1238 c7
-109 -65 -247 -112 -218 -35 21 27 216 74 235 33 13 36 12 38 -17z m-401
-1263 c12 0 11 -42 -2 -76 -8 -23 -5 -44 16 -111 15 -46 24 -94 21 -106 -6
-24 -53 -57 -83 -57 -11 0 -28 -7 -39 -15 -10 -8 -32 -15 -47 -15 -16 0 -37
-5 -47 -10 -32 -17 -64 -2 -94 43 -24 37 -27 48 -21 96 8 66 37 113 101 167
55 46 152 96 172 89 8 -3 18 -5 23 -5z m333 -562 c67 -78 52 -97 -174 -208
-80 -39 -197 -98 -260 -129 -63 -32 -146 -69 -184 -81 l-69 -24 -56 30 c-57
30 -68 46 -57 90 5 20 30 36 124 81 64 30 149 70 187 88 39 18 102 48 140 66
39 18 93 46 120 62 88 53 119 66 157 67 31 0 42 -7 72 -42z m-367 -1143 c35
-24 46 -60 33 -114 -23 -94 -23 -101 -2 -124 31 -33 50 -92 66 -197 15 -103
12 -139 -24 -258 -52 -169 -97 -175 -145 -18 -14 45 -25 87 -25 92 0 6 -11 32
-23 60 -13 27 -32 74 -42 104 -34 104 -14 95 -202 97 -156 2 -167 3 -189 24
-30 28 -32 84 -4 118 18 21 26 23 68 17 125 -18 198 -19 230 -2 57 29 131 120
132 161 0 11 7 31 16 44 14 19 23 22 51 18 19 -4 46 -13 60 -22z m-278 -449
c26 -27 44 -139 34 -211 -4 -34 2 -54 38 -124 26 -49 69 -111 106 -151 34 -36
65 -79 68 -93 16 -62 -30 -259 -67 -287 -3 -3 -13 -30 -20 -60 -14 -52 -16
-55 -44 -53 -28 2 -113 10 -125 12 -4 1 -9 10 -12 22 -3 11 -15 23 -26 26 -12
3 -21 13 -21 23 0 10 -7 23 -15 30 -33 27 -12 116 48 204 37 53 41 90 19 175
-15 57 -29 87 -63 127 -51 61 -58 83 -48 139 5 22 8 58 9 80 1 45 27 109 59
143 27 28 32 28 60 -2z m-147 -483 c16 -19 14 -113 -3 -113 -5 0 -9 -10 -9
-22 0 -79 -32 -218 -51 -218 -5 0 -9 -5 -9 -10 0 -18 -71 -74 -97 -78 -25 -3
-25 4 0 36 6 7 12 26 14 42 1 16 14 59 28 95 l25 66 -22 29 c-26 36 -37 130
-18 166 12 21 20 24 70 24 42 0 61 -5 72 -17z"/>
<path d="M2143 9203 c-7 -2 -13 -11 -13 -18 0 -8 -8 -20 -19 -27 -19 -14 -19
-24 1 -78 21 -57 26 -60 85 -60 65 0 121 -23 125 -53 5 -35 27 -31 44 9 23 55
7 106 -38 119 -25 8 -34 17 -39 42 -3 17 -13 38 -20 46 -15 14 -105 29 -126
20z"/>
<path d="M2114 8738 c6 -22 11 -110 20 -373 3 -71 9 -121 16 -123 5 -2 10 -11
10 -20 1 -12 7 -8 22 13 13 17 40 46 62 67 l39 36 -6 62 c-4 34 -2 81 3 105
16 71 -19 195 -55 195 -6 0 -24 14 -38 30 -34 38 -83 43 -73 8z"/>
<path d="M15680 8240 c-3 -88 -2 -86 -19 -125 -9 -22 -9 -40 -1 -75 6 -25 10
-63 9 -85 -1 -39 7 -125 17 -174 9 -42 22 -9 26 64 1 39 -1 148 -6 244 -10
196 -23 273 -26 151z"/>
<path d="M2140 8055 c-17 -20 -17 -12 -1 -375 16 -359 18 -591 5 -665 -16
-100 -2 -116 63 -72 27 17 33 27 30 47 -3 14 -12 63 -21 110 -9 47 -21 149
-26 228 -7 117 -6 152 6 194 11 37 14 70 9 124 -5 54 -2 97 11 163 l18 91 -22
45 c-12 25 -22 54 -22 64 0 10 -8 29 -18 41 -17 21 -19 21 -32 5z"/>
<path d="M1705 7800 c-20 -33 -11 -234 16 -340 22 -88 19 -296 -7 -461 -5 -30
-3 -37 18 -46 15 -7 32 -7 51 0 26 9 28 13 23 41 -19 91 -32 403 -20 484 5 32
2 49 -12 70 -14 21 -18 44 -16 106 1 44 -2 94 -8 112 -11 32 -35 51 -45 34z"/>
<path d="M15658 7410 c-49 -53 -51 -113 -5 -118 15 -2 27 -9 28 -15 0 -7 1
-87 3 -180 2 -112 6 -171 14 -179 12 -12 17 4 14 42 -1 8 -2 108 -3 221 -1
124 -6 217 -13 233 l-11 25 -27 -29z"/>
<path d="M205 7401 c-104 -16 -155 -63 -155 -143 0 -43 11 -67 54 -113 22 -24
24 -24 40 -7 9 10 16 27 16 38 0 10 11 37 24 60 22 38 22 43 7 61 -9 11 -24
23 -33 26 -14 5 -15 10 -5 31 8 18 22 28 47 32 38 6 85 23 60 22 -8 -1 -33 -4
-55 -7z"/>
<path d="M15166 7308 c-88 -5 -166 -14 -173 -20 -9 -7 -13 -37 -13 -90 l0 -79
42 -40 c23 -21 54 -43 70 -47 15 -4 104 -5 198 -2 185 5 190 7 190 63 0 27 -7
35 -69 84 l-33 27 22 18 c12 10 30 18 40 18 28 0 42 24 30 54 -11 30 -16 30
-304 14z"/>
<path d="M14483 7115 c4 -71 10 -132 15 -137 14 -14 53 4 63 29 11 30 12 193
1 211 -5 7 -26 16 -47 19 l-38 6 6 -128z"/>
<path d="M1833 6824 c-24 -11 -13 -39 36 -91 60 -66 81 -68 116 -10 32 55 32
75 -1 88 -33 12 -134 21 -151 13z"/>
<path d="M15001 6822 c-19 -13 -4 -37 67 -105 l61 -57 98 -2 c167 -4 175 -3
195 22 21 25 24 70 6 88 -17 17 -97 15 -148 -3 -23 -8 -65 -15 -92 -15 -45 0
-54 4 -82 35 -33 36 -81 52 -105 37z"/>
<path d="M1735 6621 c-3 -10 -1 -29 3 -42 5 -13 12 -54 16 -90 7 -63 8 -66 32
-61 31 6 64 47 64 79 0 48 -58 133 -91 133 -10 0 -20 -8 -24 -19z"/>
<path d="M1900 6351 c0 -5 -18 -32 -40 -59 -46 -60 -45 -60 78 -69 82 -6 82
-6 82 18 -1 38 -65 119 -95 119 -14 0 -25 -4 -25 -9z"/>
<path d="M12513 6239 c-35 -4 -67 -10 -71 -13 -5 -3 -62 -6 -128 -6 -129 -2
-167 -7 -158 -21 3 -5 -2 -9 -10 -9 -9 0 -16 -4 -16 -10 0 -5 6 -10 14 -10 8
0 17 -4 20 -8 3 -5 -9 -7 -27 -5 -29 4 -30 3 -12 -9 11 -7 43 -15 70 -18 47
-6 48 -7 25 -18 -24 -10 -24 -11 -2 -11 43 -2 14 -44 -43 -63 -11 -3 17 -6 63
-7 58 -1 82 3 82 11 0 9 3 9 12 0 9 -9 6 -16 -10 -31 -18 -15 -19 -20 -8 -24
19 -7 87 11 107 29 8 8 21 14 28 14 14 0 31 -41 31 -76 0 -22 4 -24 43 -25 32
0 37 -2 22 -9 -18 -7 -19 -8 -3 -15 13 -5 16 -14 12 -31 -6 -23 -4 -24 54 -24
68 0 91 15 73 49 -6 11 -11 29 -11 40 0 14 -5 19 -15 15 -11 -5 -15 1 -15 20
0 16 6 26 14 26 22 0 28 44 20 146 l-7 94 -33 0 c-18 0 -38 2 -46 4 -7 2 -41
0 -75 -5z"/>
<path d="M13445 6221 c-3 -5 13 -22 35 -38 22 -15 40 -35 40 -43 0 -9 5 -21
10 -26 8 -8 6 -15 -5 -24 -18 -15 -85 -24 -85 -11 0 8 -59 41 -74 41 -3 0 -6
-7 -6 -15 0 -18 -12 -19 -28 -3 -7 7 -12 9 -12 5 0 -4 -9 -3 -20 3 -11 6 -20
17 -20 25 0 8 -7 15 -16 15 -8 0 -13 -4 -10 -9 3 -5 -10 -11 -29 -13 -24 -3
-35 0 -35 9 0 7 -4 13 -10 13 -9 0 -12 -54 -14 -227 l-1 -38 50 1 c305 7 631
17 637 21 8 4 -106 116 -146 142 -11 8 -23 18 -26 21 -13 16 -210 160 -219
160 -5 0 -12 -4 -16 -9z"/>
<path d="M15290 6090 c-8 -5 -74 -10 -146 -10 l-132 0 -17 -36 c-14 -30 -16
-53 -10 -155 4 -66 11 -122 15 -124 5 -3 111 -9 237 -14 186 -7 231 -7 242 4
11 11 14 46 12 161 -1 81 -6 155 -12 165 -8 16 -22 19 -92 19 -45 0 -89 -5
-97 -10z"/>
<path d="M1873 6084 c-22 -10 -14 -29 30 -72 41 -40 77 -52 102 -34 21 15 46
64 43 85 -3 20 -9 22 -83 24 -44 1 -86 -1 -92 -3z"/>
<path d="M10120 5861 c-14 -11 -28 -21 -32 -21 -5 0 -20 -10 -35 -22 -61 -52
-83 -79 -83 -106 0 -16 -5 -33 -12 -40 -6 -6 -17 -47 -23 -89 -9 -66 -13 -78
-29 -75 -9 2 -24 -2 -31 -8 -8 -6 -36 -11 -62 -10 -26 1 -89 1 -140 1 l-92 -1
-31 -45 c-20 -29 -29 -52 -25 -64 4 -13 0 -23 -12 -31 -16 -10 -16 -10 3 -5
26 7 40 -20 22 -42 -15 -18 7 -36 35 -27 10 3 19 -1 23 -10 3 -9 24 -21 45
-27 21 -7 39 -18 39 -25 0 -7 6 -11 14 -8 8 3 16 -4 19 -17 5 -19 8 -20 22 -9
12 10 19 10 27 2 17 -17 26 -15 31 6 4 13 5 12 6 -5 1 -25 21 -31 126 -37 39
-2 83 -9 99 -16 16 -6 35 -9 41 -6 7 2 18 0 25 -4 11 -7 11 -11 1 -24 -12 -14
-8 -16 33 -16 32 0 52 -6 65 -19 11 -11 27 -21 38 -24 15 -4 14 -5 -4 -6 -13
0 -23 -5 -23 -11 0 -5 -10 -10 -22 -11 -13 0 -17 -3 -10 -6 27 -11 9 -20 -45
-22 -65 -2 -86 -14 -54 -30 12 -7 21 -16 21 -22 0 -6 -20 1 -44 15 -25 14 -55
25 -68 25 -20 -1 -21 -2 -3 -6 11 -3 24 -8 28 -13 9 -8 -12 -6 -83 9 -52 11
-91 5 -84 -14 3 -7 -2 -15 -10 -18 -9 -4 -16 -12 -16 -18 0 -8 15 -10 51 -6
43 5 50 4 47 -10 -2 -10 -14 -20 -28 -24 -24 -7 -23 -7 5 -7 28 0 90 15 71 17
-19 2 18 31 40 31 15 0 24 -6 24 -15 0 -8 9 -15 20 -15 11 0 19 -6 17 -12 -1
-7 7 -13 18 -14 47 -2 53 -5 59 -28 4 -16 17 -28 40 -36 18 -6 41 -19 51 -29
24 -28 72 -46 88 -33 6 5 38 13 70 17 39 5 57 12 57 21 0 8 10 18 23 23 26 10
57 52 57 76 0 9 21 36 47 61 26 25 53 57 60 71 15 29 20 84 9 102 -5 7 -1 17
10 25 16 12 16 15 -10 31 l-28 19 23 17 c21 15 22 21 12 52 -6 20 -7 41 -2 48
5 8 6 21 4 30 -4 10 4 23 20 33 42 28 32 46 -24 46 -28 0 -53 5 -56 10 -4 6
11 10 37 10 49 1 91 23 62 34 -8 3 -23 6 -32 6 -15 0 -15 -2 -2 -10 13 -8 12
-10 -2 -10 -10 0 -18 7 -18 15 0 9 9 15 25 15 26 0 30 6 16 29 -5 8 -17 11
-32 6 -17 -4 -20 -3 -10 3 8 6 11 17 6 32 -6 20 -5 21 15 10 12 -6 24 -9 27
-7 2 3 -5 10 -16 17 -25 13 -27 36 -4 81 9 19 23 63 29 99 17 89 9 97 -81 80
-79 -15 -126 -10 -231 26 -107 37 -219 43 -254 15z"/>
<path d="M16988 5577 c3 -29 -1 -35 -50 -64 -30 -18 -66 -33 -81 -33 -21 0
-32 -10 -53 -46 -38 -65 -37 -94 13 -211 7 -17 13 -36 13 -42 0 -19 36 -31 54
-18 24 17 37 119 23 179 -6 27 -7 51 -3 55 12 12 41 -12 50 -43 18 -60 28 -80
34 -64 3 8 12 20 20 26 13 9 13 23 4 98 -8 57 -8 95 -2 112 15 38 12 62 -8 73
-16 8 -17 6 -14 -22z"/>
<path d="M14505 5178 c-3 -13 -4 -77 -3 -142 3 -133 11 -149 65 -130 l28 10
-3 114 c-4 164 -6 170 -48 170 -27 0 -35 -5 -39 -22z"/>
<path d="M14866 5158 c-15 -22 -16 -22 -30 -5 -36 46 -75 -15 -41 -66 15 -23
15 -26 -1 -42 -9 -9 -21 -33 -25 -53 -4 -20 -13 -59 -19 -86 -5 -28 -15 -53
-20 -56 -8 -5 -7 -21 0 -51 6 -24 14 -54 17 -66 3 -12 11 -28 19 -34 8 -6 14
-17 14 -24 0 -7 6 -15 14 -18 11 -4 13 5 11 41 -3 45 7 72 26 72 5 0 9 -6 9
-13 0 -7 6 -21 13 -30 11 -16 12 -15 13 5 4 67 44 148 72 148 23 0 42 59 42
126 0 54 -5 76 -25 110 -22 37 -51 64 -68 64 -3 0 -12 -10 -21 -22z"/>
<path d="M9350 4103 c-8 -3 -26 -10 -39 -15 -23 -8 -20 -12 55 -57 43 -26 111
-64 149 -85 39 -21 75 -43 82 -48 7 -5 18 -6 24 -2 7 4 9 3 6 -3 -8 -12 14
-19 94 -28 40 -5 66 -3 93 9 21 9 54 16 72 16 23 0 34 5 34 14 0 8 5 16 12 18
9 3 9 6 0 12 -7 4 -12 2 -12 -3 0 -6 -7 -11 -15 -11 -11 0 -15 11 -15 40 0 34
-3 40 -20 40 -11 0 -36 15 -55 33 -33 31 -36 32 -137 34 -57 2 -114 3 -128 4
-14 0 -36 0 -50 0 -61 -2 -98 5 -114 22 -10 9 -18 17 -19 16 -1 0 -9 -3 -17
-6z"/>
<path d="M9186 4031 c-3 -4 -19 -11 -36 -14 l-30 -6 85 -119 c46 -65 92 -125
102 -134 16 -14 30 -15 118 -4 87 10 100 14 100 30 0 24 20 32 43 16 9 -7 -4
8 -31 32 -26 24 -71 59 -100 77 -28 17 -88 54 -132 82 -77 48 -108 58 -119 40z"/>
<path d="M9096 3991 c-5 -7 -18 -10 -31 -7 -22 6 -23 4 -16 -22 5 -15 19 -50
33 -77 14 -28 35 -79 48 -114 17 -47 25 -59 30 -46 5 14 8 15 12 4 4 -10 20
-13 62 -11 69 5 70 0 -20 132 -90 134 -109 156 -118 141z"/>
<path d="M8950 3964 c-9 -9 -11 -43 -8 -104 4 -85 6 -90 34 -112 16 -13 39
-33 51 -45 l23 -22 8 31 8 31 16 -32 c12 -26 17 -29 22 -15 11 28 -75 286 -90
271 -3 -3 -16 -2 -29 3 -17 6 -27 5 -35 -6z"/>
<path d="M15701 3870 c0 -25 4 -76 9 -115 16 -130 13 -1080 -5 -1221 l-7 -61
32 -13 c30 -12 34 -12 47 6 17 22 14 100 -7 211 -11 59 -12 78 -1 111 11 31
12 74 5 190 -5 83 -5 273 -1 424 11 360 12 340 -33 433 l-39 80 0 -45z"/>
<path d="M15605 3812 c-11 -15 -30 -54 -42 -87 l-22 -60 24 -23 c14 -13 25
-27 25 -32 0 -6 7 -10 15 -10 17 0 35 39 33 73 0 12 3 55 7 95 9 81 -3 94 -40
44z"/>
<path d="M1635 3049 c-4 -6 -7 -26 -8 -46 -1 -28 5 -41 28 -59 17 -13 35 -24
42 -24 6 0 18 -8 25 -18 15 -20 85 -59 92 -51 10 10 -93 173 -123 196 -20 15
-48 16 -56 2z"/>
<path d="M14560 2561 c0 -11 -9 -23 -21 -26 -14 -5 -19 -14 -17 -28 2 -18 11
-22 43 -24 63 -4 144 -23 152 -36 5 -7 25 -20 46 -29 25 -12 37 -24 37 -38 0
-12 5 -18 10 -15 6 3 10 15 10 26 0 10 -4 19 -10 19 -5 0 -10 8 -10 18 0 25
-75 72 -116 72 -15 0 -24 6 -24 15 0 8 -4 15 -10 15 -5 0 -10 5 -10 11 0 17
-32 38 -57 39 -16 0 -23 -6 -23 -19z"/>
<path d="M14082 2458 c3 -7 42 -18 89 -25 46 -8 91 -17 100 -22 9 -5 36 -12
61 -16 52 -8 58 -11 81 -47 10 -16 24 -28 32 -28 8 0 15 -4 15 -8 0 -5 18 -16
41 -26 32 -14 46 -16 65 -7 25 11 33 41 11 41 -8 0 -22 17 -33 37 l-20 38 -71
1 c-39 0 -78 5 -85 11 -7 6 -31 15 -53 19 -22 4 -64 15 -94 25 -62 22 -145 26
-139 7z"/>
<path d="M14743 2304 c-30 -22 -29 -29 7 -44 16 -7 28 -16 25 -20 -7 -11 -55
-19 -55 -9 0 15 -67 10 -73 -5 -8 -21 65 -48 111 -40 31 4 39 2 50 -16 10 -16
10 -25 2 -35 -8 -9 -9 -29 -5 -53 5 -30 2 -43 -11 -57 -14 -13 -15 -18 -4 -25
7 -5 15 -33 18 -64 l5 -56 -27 10 c-35 13 -36 13 -36 -5 0 -8 15 -21 34 -30
42 -20 51 -41 31 -72 -9 -13 -13 -28 -9 -34 4 -6 -6 -22 -22 -34 -29 -23 -29
-23 -14 -66 10 -27 22 -43 34 -45 22 -3 33 -18 43 -54 3 -14 15 -36 26 -50 19
-24 20 -24 14 -2 -3 14 -1 22 8 22 21 0 34 31 24 57 -7 19 -5 23 11 23 17 0
20 7 21 43 0 32 2 37 9 22 6 -15 9 -5 10 35 0 30 7 73 15 95 21 57 19 68 -19
118 -26 35 -31 47 -20 51 7 3 11 12 8 21 -7 16 -30 21 -36 6 -5 -16 -32 12
-51 53 -17 36 -17 40 -2 57 14 15 15 23 4 52 -9 25 -9 39 -1 53 10 17 11 16
12 -11 l1 -30 21 25 c11 14 25 24 29 23 5 -2 9 4 9 12 0 8 -9 15 -21 15 -11 0
-18 3 -16 8 3 4 -1 13 -8 19 -11 10 -16 7 -27 -17 -14 -32 -27 -37 -45 -19 -9
9 -9 16 0 30 27 43 -35 75 -80 43z"/>
<path d="M14980 2255 c0 -15 300 -305 316 -305 15 0 15 2 0 25 -9 13 -16 42
-16 64 0 21 -9 58 -20 82 -19 43 -19 44 -1 60 18 15 15 17 -52 37 -104 30
-227 50 -227 37z"/>
<path d="M16973 2233 c-20 -8 -15 -44 9 -64 12 -11 36 -19 59 -19 41 0 60 -15
30 -23 -39 -10 -38 -158 0 -193 10 -9 19 -23 19 -31 0 -7 7 -13 15 -13 18 0
20 26 3 34 -7 3 5 4 27 3 37 -2 41 0 61 40 11 23 26 48 33 57 15 18 5 56 -15
56 -8 0 -23 5 -33 12 -15 9 -26 9 -45 0 -14 -6 -27 -8 -30 -4 -8 14 -10 77 -2
90 4 7 0 15 -11 18 -10 4 -38 15 -62 25 -24 11 -44 19 -45 18 0 0 -7 -3 -13
-6z"/>
<path d="M15566 2131 c-4 -6 -1 -11 6 -11 7 0 24 -9 37 -19 l24 -18 -27 -58
c-14 -31 -26 -65 -26 -74 0 -9 -4 -21 -10 -27 -11 -11 8 -84 22 -84 4 0 8 -9
8 -20 0 -29 38 -27 44 3 20 96 31 133 43 145 11 11 13 8 14 -20 3 -77 -1 -247
-7 -303 -5 -48 -2 -69 15 -107 38 -90 44 -65 37 165 -8 268 -8 259 4 271 6 6
10 29 10 53 0 29 5 45 17 52 14 7 10 11 -22 16 -37 6 -111 25 -161 40 -12 4
-25 2 -28 -4z"/>
<path d="M17007 1823 c7 -22 53 -62 71 -63 6 0 12 -5 12 -10 0 -6 24 -21 54
-34 32 -14 62 -36 72 -53 27 -42 116 -123 136 -123 14 0 16 8 13 55 -4 44 -12
65 -40 102 -34 45 -39 55 -36 81 1 7 -2 11 -6 10 -9 -2 -111 19 -158 32 -16 5
-51 11 -77 15 -43 6 -47 4 -41 -12z"/>
<path d="M16830 1755 c0 -3 6 -20 14 -38 18 -45 29 -117 31 -222 1 -69 7 -102
25 -142 12 -29 27 -53 32 -53 5 0 6 -4 3 -10 -3 -5 3 -10 14 -10 22 0 30 26
35 115 1 28 6 58 10 67 6 12 0 27 -18 49 -14 17 -26 36 -26 43 0 7 -9 21 -21
32 -18 16 -20 26 -15 65 6 41 3 51 -20 78 -22 26 -64 43 -64 26z"/>
<path d="M14289 1713 c-3 -30 -10 -50 -28 -74 -12 -16 -21 -37 -21 -48 0 -11
-5 -23 -10 -26 -7 -4 -7 -13 0 -25 6 -11 11 -38 13 -60 1 -22 6 -40 11 -40 5
0 15 -8 22 -17 13 -17 13 -17 14 0 0 9 5 17 11 17 5 0 7 5 3 11 -3 6 -2 21 4
32 18 39 37 197 25 216 -11 17 -43 28 -44 14z"/>
<path d="M15095 1690 c-3 -5 -3 -10 1 -10 4 0 -4 -13 -19 -28 -28 -29 -27 -42
5 -42 35 0 43 -42 23 -126 -11 -48 -19 -125 -21 -203 -1 -69 -7 -144 -13 -166
-6 -22 -11 -42 -11 -45 0 -15 158 -170 173 -170 41 0 27 60 -29 120 -51 56
-73 185 -39 236 10 15 19 48 21 73 7 120 14 164 30 176 20 14 22 11 -46 113
-54 82 -63 91 -75 72z"/>
<path d="M16520 1648 c-19 -12 -37 -25 -40 -29 -17 -20 -301 -259 -310 -259
-5 0 -10 -7 -10 -15 0 -9 6 -12 18 -9 38 13 62 28 62 41 0 7 9 13 20 13 11 0
26 11 35 24 8 12 38 35 65 50 36 20 47 31 43 43 -5 12 -2 15 14 11 13 -3 24 1
32 14 6 10 17 17 24 16 7 -2 33 11 59 27 40 26 47 35 48 63 0 38 -12 40 -60
10z"/>
<path d="M14868 1405 c-4 -4 -4 -20 -1 -36 3 -19 -1 -38 -12 -55 -14 -22 -15
-28 -4 -35 8 -5 18 -9 22 -9 5 0 7 -15 6 -32 -5 -59 17 -111 56 -130 44 -22
49 -14 51 82 0 41 4 91 8 110 3 19 2 42 -4 50 -15 23 -44 -1 -48 -39 -2 -22
-8 -31 -21 -31 -23 0 -43 23 -36 42 7 18 -8 92 -17 83z"/>
<path d="M16069 1260 c-35 -33 -83 -72 -106 -87 -24 -16 -43 -34 -43 -40 0 -7
-5 -13 -10 -13 -6 0 -18 -16 -28 -37 -14 -31 -15 -37 -3 -41 8 -3 24 -15 35
-27 22 -23 87 -55 113 -55 11 0 11 4 2 22 -7 13 -19 29 -26 37 -8 8 -11 17 -6
20 15 11 36 76 35 110 -1 27 8 42 48 81 26 26 55 50 64 53 19 8 22 37 3 37 -7
0 -42 -27 -78 -60z"/>
<path d="M18750 1182 c-14 -9 -29 -22 -35 -28 -28 -30 -133 -114 -143 -114 -7
0 -12 -4 -12 -8 0 -4 -13 -16 -30 -25 -16 -10 -30 -23 -30 -28 0 -12 -25 -39
-37 -39 -18 -1 -63 -50 -63 -69 0 -18 11 -13 83 34 45 30 113 80 151 112 37
32 95 78 127 101 51 38 57 46 49 63 -13 23 -27 23 -60 1z"/>
<path d="M19104 1148 c-4 -6 -2 -13 4 -17 7 -4 14 -56 18 -121 6 -124 18 -180
38 -180 7 0 19 -26 28 -57 l16 -58 1 40 c2 57 20 83 22 30 l1 -40 8 35 c5 19
10 67 11 105 2 78 -12 116 -74 194 -19 24 -33 50 -30 56 5 15 -35 27 -43 13z"/>
<path d="M14887 1062 c-21 -23 -21 -33 0 -76 16 -34 16 -36 -9 -68 -24 -31
-25 -36 -12 -61 17 -32 41 -26 51 12 3 14 14 38 25 53 15 21 18 41 16 90 -3
59 -5 63 -29 66 -15 2 -32 -5 -42 -16z"/>
<path d="M17667 951 c-24 -41 -21 -69 14 -140 29 -57 31 -67 24 -127 -3 -35
-11 -66 -16 -69 -11 -8 22 -54 39 -55 6 0 12 8 12 18 0 10 5 23 11 29 6 6 11
42 11 79 0 60 2 71 24 91 l25 23 -42 50 c-33 39 -40 55 -36 77 3 18 0 31 -11
40 -25 19 -36 16 -55 -16z"/>
<path d="M15605 890 c-4 -6 -1 -17 5 -25 12 -14 6 -35 -10 -35 -4 0 -33 -24
-64 -54 -30 -30 -64 -57 -76 -61 -11 -3 -20 -13 -20 -21 0 -8 -6 -14 -14 -14
-8 0 -17 -9 -21 -19 -3 -10 -14 -21 -25 -24 -11 -3 -29 -21 -41 -41 -12 -21
-29 -36 -40 -36 -10 0 -19 -7 -19 -15 0 -8 -4 -15 -9 -15 -5 0 -26 -17 -47
-38 -22 -21 -54 -47 -71 -57 -18 -11 -32 -24 -32 -30 3 -27 -2 -45 -14 -45 -6
0 -32 -19 -56 -42 l-45 -41 55 -18 c30 -9 77 -19 105 -21 41 -4 51 -2 51 11 0
9 -5 22 -11 30 -8 10 -4 18 16 35 29 24 44 86 21 86 -10 0 -12 7 -7 23 11 34
44 51 44 22 0 -14 3 -14 30 0 17 9 30 20 30 25 0 6 5 10 11 10 15 0 38 31 39
51 0 17 45 61 73 72 31 12 54 -9 61 -55 7 -51 10 -66 20 -95 4 -12 2 -32 -4
-43 -19 -35 4 -121 40 -150 17 -14 30 -30 30 -37 0 -21 21 -26 34 -7 13 17 14
16 25 -4 6 -11 11 -29 11 -40 0 -22 30 -52 53 -52 14 0 16 17 16 133 0 85 6
150 15 182 25 87 31 181 12 210 -19 28 -21 72 -5 77 13 4 -5 42 -32 68 -9 8
-23 29 -32 47 -9 17 -24 38 -32 47 -18 18 -60 21 -70 6z"/>
<path d="M17473 836 c13 -19 16 -36 11 -61 -5 -31 -1 -40 35 -81 23 -26 44
-58 47 -71 4 -13 12 -23 19 -23 18 0 25 34 18 90 -5 40 -14 57 -53 98 -26 28
-58 56 -71 63 l-23 12 17 -27z"/>
<path d="M18208 723 c-10 -2 -18 -11 -18 -20 0 -9 -6 -13 -14 -10 -8 3 -16 3
-18 -1 -2 -5 -31 -27 -65 -51 l-61 -43 20 -33 c16 -28 27 -35 64 -41 28 -4 44
-11 44 -20 0 -8 -3 -13 -7 -12 -5 0 -16 -2 -26 -7 -10 -4 -28 -3 -40 3 -12 7
-34 16 -49 22 -18 6 -28 17 -28 30 0 11 -4 20 -10 20 -5 0 -10 -5 -10 -11 0
-5 -13 -15 -30 -20 -44 -16 -42 -59 5 -105 19 -18 35 -38 35 -44 0 -5 13 -19
29 -31 16 -11 35 -32 42 -45 15 -29 43 -33 34 -5 -10 34 49 36 87 3 14 -12 20
-12 33 -2 10 8 15 9 15 1 0 -6 8 -11 19 -11 10 0 24 -7 31 -15 23 -28 70 -56
80 -50 7 4 3 18 -10 39 -11 19 -20 40 -20 48 0 8 -13 30 -30 48 -16 18 -30 42
-30 52 0 10 -11 36 -25 57 -33 54 -61 70 -35 21 8 -15 5 -22 -12 -34 -23 -16
-58 -22 -58 -9 0 3 12 26 26 50 17 29 22 48 16 56 -19 25 -22 67 -7 97 9 17
19 30 24 30 5 0 11 11 13 25 3 14 5 24 4 24 0 -1 -9 -3 -18 -6z"/>
<path d="M14297 538 c-6 -20 -10 -21 -91 -15 -51 4 -87 3 -91 -3 -7 -12 67
-59 112 -72 18 -5 41 -20 50 -34 13 -21 14 -29 3 -49 -7 -14 -17 -25 -21 -25
-5 0 -5 -22 -2 -50 5 -46 4 -50 -15 -50 -11 0 -22 -5 -24 -12 -3 -8 -19 -9
-64 0 -32 6 -85 11 -118 11 -51 1 -57 -1 -46 -14 7 -8 23 -15 36 -15 24 0 31
-10 49 -65 5 -16 8 -17 15 -5 5 8 7 17 4 22 -2 4 4 11 13 17 13 7 34 3 73 -11
75 -28 149 -49 187 -55 41 -6 49 -28 21 -61 -19 -23 -31 -27 -75 -27 -29 -1
-58 -6 -65 -13 -10 -10 44 -12 267 -10 241 3 280 5 280 18 0 21 -63 27 -71 6
-4 -12 -11 -13 -28 -5 -29 13 -24 59 5 59 11 0 19 4 19 10 0 12 -45 24 -59 15
-6 -3 -24 8 -41 25 -29 30 -60 40 -60 19 0 -7 -10 -9 -25 -5 -14 4 -35 1 -47
-5 -16 -8 -30 -8 -59 1 -21 7 -36 16 -34 20 3 4 -5 18 -16 31 -15 17 -19 32
-15 53 3 16 6 39 6 52 0 22 4 24 45 24 59 0 135 -17 181 -41 21 -10 43 -19 50
-19 17 0 63 -71 70 -110 4 -19 11 -43 16 -52 5 -12 5 -18 -2 -18 -5 0 -10 -4
-10 -9 0 -4 18 -8 40 -8 22 0 40 4 40 8 0 5 7 9 15 9 11 0 15 11 15 40 0 27
-4 39 -12 38 -9 -2 -14 13 -16 46 -4 54 5 66 51 66 15 0 27 5 27 10 0 6 -11
10 -24 10 -13 0 -31 3 -40 6 -9 3 -16 1 -16 -6 0 -16 -26 -40 -44 -40 -9 0
-16 6 -16 13 0 8 -3 8 -9 -2 -11 -17 -39 -8 -48 16 -12 34 -35 54 -49 42 -10
-8 -21 -4 -44 19 -16 17 -30 38 -30 48 0 16 -1 16 -14 -1 -13 -18 -15 -18 -39
-2 -15 9 -33 17 -41 17 -8 0 -18 9 -21 20 -3 11 -10 20 -15 20 -15 0 -80 74
-86 98 -8 28 -40 29 -47 0z"/>
<path d="M19126 511 c-4 -5 7 -15 23 -22 20 -9 33 -25 42 -52 14 -43 6 -66
-29 -82 -26 -12 -32 -32 -22 -84 4 -22 4 -44 0 -48 -4 -4 -10 -45 -12 -91 -5
-79 -4 -82 14 -66 10 10 18 23 18 31 0 21 27 15 33 -7 3 -13 11 -18 20 -14 19
7 32 97 22 145 -5 19 -9 63 -10 99 -2 81 -24 170 -40 170 -7 0 -18 7 -25 15
-14 17 -26 19 -34 6z"/>
<path d="M17756 369 c-14 -11 -26 -26 -26 -32 0 -11 -88 -97 -100 -97 -4 0
-13 -11 -20 -25 -7 -13 -23 -28 -34 -31 -19 -6 -65 -46 -150 -130 -17 -17 -40
-36 -51 -42 -19 -11 -18 -11 8 -12 15 0 27 3 27 8 0 4 15 13 33 21 17 8 46 27
62 43 54 51 95 87 95 82 0 -11 91 58 100 76 10 20 82 60 106 60 14 0 74 -72
74 -89 0 -6 -14 -14 -30 -18 -17 -3 -33 -9 -35 -13 -6 -10 73 -30 90 -24 7 3
34 -13 59 -35 26 -23 50 -41 54 -41 4 0 16 -16 26 -35 17 -31 36 -46 36 -29 0
9 -43 68 -52 72 -4 2 -8 10 -8 17 0 7 -7 16 -16 19 -8 3 -15 14 -14 23 4 37
-14 63 -71 108 -34 27 -59 54 -59 65 0 32 -11 50 -41 65 -35 19 -31 19 -63 -6z"/>
</g>
</svg>
