<?xml version="1.0" standalone="no"?>
<!DOCTYPE svg PUBLIC "-//W3C//DTD SVG 20010904//EN"
 "http://www.w3.org/TR/2001/REC-SVG-20010904/DTD/svg10.dtd">
<svg version="1.0" xmlns="http://www.w3.org/2000/svg"
 width="1944.000000pt" height="1296.000000pt" viewBox="0 0 1944.000000 1296.000000"
 preserveAspectRatio="xMidYMid meet">
<metadata>
Created by potrace 1.16, written by Peter Selinger 2001-2019
</metadata>
<g transform="translate(0.000000,1296.000000) scale(0.100000,-0.100000)"
fill="#000000" stroke="none">
<path d="M25 12638 c-4 -178 -4 -429 -1 -558 9 -355 23 -707 29 -717 3 -5 6
-50 7 -99 1 -114 18 -310 30 -348 7 -20 6 -32 -1 -36 -6 -5 -6 -16 1 -35 6
-16 9 -34 6 -42 -7 -17 3 -43 17 -43 7 0 7 43 2 138 -5 75 -8 173 -7 217 1 44
4 395 6 780 3 545 7 738 20 870 8 94 16 176 16 183 0 8 -18 12 -59 12 l-59 0
-7 -322z"/>
<path d="M491 12893 c-6 -38 -16 -86 -21 -108 -36 -150 -66 -464 -73 -745 -2
-91 -3 -94 -27 -100 -24 -6 -25 -10 -25 -75 0 -46 4 -70 13 -73 6 -2 12 -10
12 -18 0 -8 6 -14 14 -14 14 0 20 -51 31 -280 4 -63 10 -171 16 -240 5 -69 16
-217 25 -330 15 -197 19 -250 43 -535 19 -220 48 -371 84 -435 11 -19 28 -51
39 -71 29 -56 101 -124 146 -137 49 -15 112 -15 222 -1 46 5 141 13 211 18
115 6 130 9 161 33 65 50 63 15 63 1033 1 905 1 920 20 920 12 0 22 9 27 25
17 59 74 467 67 474 -2 3 -27 6 -54 8 l-50 3 0 270 c-1 148 -4 309 -9 358 l-8
87 -457 0 -457 0 -13 -67z"/>
<path d="M1940 12948 c0 -7 -7 -105 -16 -218 -8 -113 -17 -236 -18 -275 -2
-38 -4 -89 -4 -112 l-2 -43 -55 0 c-51 0 -55 -2 -61 -27 -9 -34 -57 -83 -83
-83 -10 0 -22 -7 -25 -17 -8 -21 4 -132 15 -139 5 -3 9 -14 9 -26 0 -25 78
-188 90 -188 5 0 11 -8 14 -17 4 -10 20 -33 36 -52 l30 -34 0 -351 c0 -402 16
-993 31 -1176 29 -361 32 -376 79 -503 29 -78 138 -183 362 -350 63 -47 241
-231 283 -293 22 -32 48 -77 57 -99 9 -22 26 -65 38 -95 45 -109 97 -336 86
-367 -3 -8 -1 -24 5 -36 7 -12 15 -121 21 -266 5 -135 9 -258 10 -273 0 -16 6
-28 12 -29 6 0 2 -5 -9 -10 -31 -14 39 -1 110 21 33 10 107 32 165 50 58 17
146 44 195 60 50 16 128 40 175 55 449 138 1245 407 1235 417 -3 2 5 4 17 4
20 -1 22 3 19 49 -2 37 -8 54 -24 67 -18 14 -20 21 -11 45 10 30 35 40 112 42
36 1 42 -2 42 -19 0 -16 7 -20 38 -20 21 0 46 6 57 14 11 7 30 16 43 20 18 6
22 4 22 -13 0 -14 6 -21 20 -21 15 0 20 7 20 25 0 14 8 34 18 45 18 20 102 44
102 30 0 -5 19 -10 43 -12 43 -3 58 -21 22 -25 l-20 -3 20 9 c18 9 18 10 -5
10 -14 0 -34 -4 -45 -9 -22 -9 -19 -10 45 -29 34 -11 34 -11 -12 -7 -27 2 -48
0 -48 -5 0 -5 5 -9 11 -9 8 0 7 -6 -2 -17 -12 -15 -12 -16 6 -8 11 4 45 16 75
26 30 10 63 24 74 30 10 6 39 17 65 24 25 7 105 34 176 59 72 26 168 61 215
77 47 16 99 36 115 44 17 7 53 21 80 30 28 9 111 41 185 70 74 29 225 87 335
129 110 42 209 80 220 85 11 5 54 22 95 37 183 66 996 391 1125 449 17 7 62
25 100 40 39 15 84 33 100 40 17 8 55 23 85 35 30 12 69 28 85 35 17 7 86 36
155 65 157 64 196 80 290 119 122 51 170 59 170 29 0 -6 -6 -5 -15 2 -8 7 -15
9 -15 6 0 -7 31 -58 40 -66 4 -3 26 -43 49 -90 24 -47 51 -96 61 -110 9 -14
31 -50 47 -80 59 -108 256 -445 274 -472 11 -14 19 -29 19 -33 0 -4 8 -19 18
-33 11 -15 32 -52 48 -82 15 -30 40 -71 54 -90 14 -19 32 -48 40 -64 14 -28
36 -44 46 -33 3 2 -3 30 -14 61 -15 45 -17 66 -10 113 16 100 19 142 30 403
12 278 6 430 -18 430 -8 0 -14 9 -14 21 0 16 -4 19 -22 13 -12 -3 -48 -6 -80
-5 -40 1 -58 -3 -58 -11 0 -8 -3 -9 -8 -3 -10 14 -59 35 -81 35 -10 0 -24 7
-31 15 -17 20 -40 19 -40 -1 0 -14 -7 -15 -37 -11 -21 4 -39 11 -41 17 -2 5
-10 10 -18 10 -8 0 -24 10 -35 21 -16 16 -23 18 -29 9 -12 -20 -80 6 -80 31 0
16 -7 19 -40 19 -27 0 -43 5 -46 15 -4 9 -19 15 -38 15 -21 1 -37 8 -49 25
-10 14 -13 25 -7 25 6 0 10 28 10 69 0 38 3 83 6 101 l7 32 76 -7 c42 -4 79
-12 83 -18 4 -6 27 -8 61 -3 34 3 58 2 62 -4 3 -5 18 -9 33 -8 15 1 39 1 55 0
l27 -2 0 -80 c0 -73 2 -80 20 -80 17 0 20 7 20 40 0 22 5 40 10 40 6 0 10 18
10 39 0 47 8 51 106 51 59 0 74 -3 74 -15 0 -19 66 -21 73 -2 2 6 3 -6 3 -28
l-2 -40 -77 -3 c-69 -3 -77 -5 -77 -22 0 -17 -7 -20 -40 -20 l-40 0 0 -55 c0
-45 -3 -55 -17 -56 -15 0 -15 -2 2 -9 17 -7 17 -9 3 -9 -14 -1 -18 -10 -18
-36 0 -30 3 -35 25 -35 25 0 74 41 76 63 0 7 4 3 8 -7 7 -19 8 -19 29 2 18 18
34 22 87 22 l65 0 0 114 c0 76 5 125 14 148 11 25 16 92 19 239 5 230 -8 1055
-17 1109 -14 84 -31 399 -29 560 3 333 19 478 79 688 l6 22 -3876 0 c-3094 0
-3876 -3 -3876 -12z m-94 -673 c-4 -11 2 -15 20 -15 24 0 26 -3 22 -35 -2 -19
0 -35 5 -35 4 0 5 -5 1 -12 -4 -6 -6 -41 -5 -76 2 -54 0 -64 -11 -54 -18 15
-43 -1 -35 -22 4 -10 14 -16 23 -14 14 3 16 -9 15 -96 -1 -55 -4 -103 -7 -108
-7 -11 -34 2 -34 17 0 7 -6 18 -14 24 -17 14 -66 112 -66 132 0 8 -5 20 -11
26 -6 6 -14 43 -17 82 -4 56 -2 71 9 71 37 1 109 98 80 108 -19 6 -12 22 10
22 15 0 19 -5 15 -15z"/>
<path d="M10772 12935 c-7 -14 -12 -44 -12 -67 0 -47 18 -164 30 -193 5 -11
11 -76 14 -144 3 -68 10 -127 15 -131 6 -3 10 -35 9 -70 0 -36 3 -89 7 -117 6
-50 8 -53 36 -53 29 0 29 1 29 58 0 31 -7 149 -16 262 -8 113 -17 230 -19 260
-7 93 -16 140 -26 140 -5 0 -9 11 -9 24 0 58 -37 77 -58 31z"/>
<path d="M11007 12888 c-8 -92 13 -722 25 -726 4 -2 8 -12 8 -22 0 -28 28 -33
42 -7 10 16 14 105 16 332 2 299 -6 415 -29 415 -5 0 -9 18 -9 40 0 35 -3 40
-24 40 -22 0 -24 -5 -29 -72z"/>
<path d="M11264 12920 c3 -22 2 -40 -3 -40 -19 0 -31 -132 -36 -430 -6 -298
-3 -370 15 -370 4 0 19 17 33 38 24 35 26 46 31 207 4 94 12 220 18 282 9 88
8 137 -2 232 -13 118 -14 121 -38 121 -23 0 -24 -3 -18 -40z"/>
<path d="M11510 12930 c0 -33 -23 -129 -38 -157 -9 -16 -23 -147 -38 -343 -5
-73 -19 -206 -30 -292 -4 -39 -3 -58 4 -58 6 0 13 -13 17 -30 6 -28 7 -29 24
-12 10 9 21 26 25 37 9 24 35 196 42 280 3 33 9 74 14 90 16 49 31 221 34 373
l3 142 -29 0 c-24 0 -28 -4 -28 -30z"/>
<path d="M11760 12913 c0 -49 -18 -113 -32 -113 -4 0 -8 -6 -8 -14 0 -7 -9
-33 -19 -57 -11 -24 -21 -73 -23 -109 -2 -36 -7 -70 -11 -76 -3 -6 -11 -46
-16 -90 -6 -43 -15 -115 -21 -159 -5 -44 -15 -96 -20 -115 -6 -19 -10 -68 -10
-107 0 -63 2 -73 18 -73 9 0 22 10 27 21 6 12 15 20 20 19 12 -3 18 25 61 290
8 52 27 140 41 195 18 69 28 140 33 230 4 89 12 142 23 168 l17 37 -40 0 -40
0 0 -47z"/>
<path d="M12015 12938 c-3 -13 -9 -43 -12 -68 -3 -25 -14 -62 -24 -82 -11 -21
-19 -44 -19 -53 0 -8 -3 -15 -7 -15 -12 0 -33 -51 -33 -80 0 -14 -4 -30 -10
-36 -5 -5 -19 -65 -30 -133 -12 -69 -25 -132 -31 -142 -5 -10 -9 -37 -9 -61 0
-24 -4 -48 -10 -54 -15 -15 -37 -135 -32 -176 3 -31 27 -70 35 -57 1 2 13 19
26 38 24 34 29 51 72 241 11 52 34 139 51 195 51 173 68 248 68 306 0 33 6 63
15 75 8 10 15 31 15 45 0 15 7 32 15 39 29 24 18 40 -29 40 -37 0 -45 -4 -51
-22z"/>
<path d="M13340 12954 c0 -3 21 -29 46 -58 76 -84 138 -186 172 -281 21 -59
62 -242 78 -345 17 -112 15 -171 -12 -384 -9 -66 -13 -129 -10 -140 3 -12 1
-66 -6 -120 -9 -77 -9 -101 0 -104 7 -2 12 -10 12 -18 0 -7 19 -33 43 -56 50
-51 120 -154 113 -167 -3 -4 6 -18 20 -30 17 -15 23 -28 20 -46 -5 -28 -37
-85 -47 -85 -4 0 -9 -8 -12 -19 -3 -12 -17 -21 -41 -25 -20 -4 -36 -13 -36
-21 0 -7 -18 -22 -40 -32 -22 -10 -40 -22 -40 -26 0 -19 -31 -37 -61 -37 -18
0 -29 -3 -26 -7 4 -3 1 -13 -6 -22 -20 -23 -27 -49 -15 -53 6 -2 3 -12 -8 -22
-10 -11 -26 -42 -36 -70 -10 -28 -24 -55 -31 -61 -28 -22 -57 -113 -57 -179 0
-35 -4 -66 -9 -68 -14 -5 -41 -178 -41 -262 0 -109 11 -132 70 -146 27 -7 73
-11 102 -9 29 1 68 -4 86 -11 31 -11 32 -14 32 -65 0 -60 1 -61 80 -60 54 0
55 1 58 30 6 72 10 78 45 70 18 -4 43 -8 57 -10 35 -3 38 -5 16 -14 -16 -6
-13 -10 20 -26 21 -10 44 -25 51 -34 11 -16 15 -17 53 -20 13 -1 20 -8 20 -21
0 -17 7 -20 38 -20 26 0 45 -7 57 -20 10 -11 29 -20 42 -20 18 0 23 -5 23 -24
0 -24 36 -56 62 -56 12 0 58 -58 58 -73 0 -4 -8 -7 -18 -7 -10 0 -23 -5 -30
-12 -8 -8 -15 -8 -25 1 -11 8 -32 9 -83 1 -89 -13 -201 -13 -209 0 -4 6 -62
10 -142 10 -113 0 -140 3 -155 17 -10 9 -18 11 -18 5 0 -6 6 -12 13 -15 6 -2
-10 -2 -38 1 -27 3 -51 9 -53 13 -5 11 -79 12 -86 1 -6 -11 -67 -9 -85 2 -9 6
-12 5 -7 -2 3 -6 -8 -3 -26 5 -31 16 -32 16 -52 -11 -32 -42 -43 -94 -32 -138
6 -21 14 -38 18 -38 4 0 8 -18 8 -40 0 -32 4 -39 18 -38 42 3 82 -3 82 -13 0
-13 58 -69 71 -69 5 0 9 -7 9 -15 0 -8 5 -15 11 -15 12 0 119 -110 119 -122 0
-5 7 -8 15 -8 8 0 15 -6 15 -12 1 -7 19 -26 40 -43 21 -16 39 -37 40 -45 0
-16 61 -60 82 -60 7 0 26 -18 42 -40 17 -22 34 -40 39 -40 5 0 18 -11 29 -25
11 -14 23 -25 28 -25 8 0 120 -112 246 -245 16 -17 38 -47 49 -68 11 -20 25
-37 31 -37 17 0 95 -90 88 -102 -10 -15 -71 -39 -87 -32 -24 9 -106 15 -280
21 -178 5 -211 2 -220 -22 -8 -18 37 -116 80 -176 18 -26 33 -55 33 -66 0 -10
4 -23 10 -29 13 -13 50 -161 50 -201 0 -17 5 -35 10 -38 15 -9 12 -106 -5
-138 -11 -21 -14 -58 -13 -139 2 -80 -1 -113 -10 -116 -7 -2 -12 -20 -12 -40
0 -20 -7 -46 -15 -56 -11 -15 -15 -48 -15 -123 0 -87 -2 -103 -16 -103 -8 0
-12 -5 -9 -11 11 -17 -4 -75 -27 -104 -13 -17 -22 -44 -24 -69 -5 -133 -17
-216 -29 -216 -8 0 -16 -17 -20 -40 -4 -22 -10 -40 -14 -40 -5 0 -11 -35 -15
-77 -3 -43 -11 -79 -16 -81 -6 -2 -10 -21 -10 -43 0 -21 -4 -39 -10 -39 -6 0
-10 -33 -10 -80 0 -47 -4 -80 -10 -80 -6 0 -10 -33 -10 -80 0 -73 -2 -80 -20
-80 -18 0 -20 -7 -20 -80 0 -47 -4 -80 -10 -80 -5 0 -10 -17 -10 -39 0 -30 -4
-40 -20 -44 -18 -5 -20 -14 -20 -81 0 -69 -2 -76 -20 -76 -17 0 -20 -7 -20
-40 0 -22 5 -40 10 -40 6 0 10 -16 10 -35 0 -29 9 -43 50 -83 28 -27 50 -53
50 -58 1 -16 49 -64 65 -64 8 0 16 -9 17 -20 0 -11 1 -26 2 -32 1 -9 -11 -12
-36 -10 -43 4 -72 -16 -57 -39 5 -8 9 -23 9 -34 0 -17 -2 -17 -10 -5 -8 13
-10 12 -10 -2 0 -15 9 -18 47 -18 34 0 55 -7 79 -25 18 -14 40 -25 49 -25 21
0 67 -35 58 -44 -3 -3 1 -6 10 -6 10 0 17 -7 17 -15 0 -13 4 -14 20 -5 11 6
20 17 20 24 0 16 42 56 58 56 7 0 16 8 20 19 9 23 79 101 91 101 12 0 41 62
34 74 -3 5 -1 6 5 2 6 -3 16 3 22 14 6 11 30 32 53 47 23 14 48 34 55 45 7 10
19 18 26 18 7 0 26 10 42 22 17 14 38 21 56 19 26 -2 28 0 28 31 0 25 -3 29
-10 18 -8 -12 -10 -11 -10 5 0 54 85 135 142 135 12 0 29 7 38 15 15 14 19 14
39 -2 15 -13 19 -25 15 -40 -4 -13 -10 -23 -15 -23 -5 0 -9 -13 -9 -30 0 -24
-4 -30 -21 -30 -11 0 -28 -8 -37 -17 -16 -16 -17 -16 -20 0 -3 13 -14 17 -43
17 -39 0 -39 0 -39 -40 0 -29 4 -40 15 -40 13 0 12 -5 -3 -37 -9 -21 -27 -48
-39 -61 -13 -13 -23 -32 -23 -42 0 -11 -7 -20 -15 -20 -8 0 -15 -6 -15 -14 0
-8 -9 -18 -20 -21 -11 -4 -28 -17 -36 -30 -9 -13 -31 -33 -50 -44 -19 -11 -34
-26 -34 -33 0 -7 -14 -24 -30 -37 -17 -13 -30 -32 -30 -42 0 -11 -9 -28 -20
-39 -11 -11 -20 -29 -20 -40 0 -14 -7 -20 -21 -20 -11 0 -34 -8 -51 -17 -28
-17 -30 -17 -42 0 -10 13 -27 17 -70 17 l-56 0 0 -40 c0 -22 -4 -40 -10 -40
-5 0 -10 -18 -10 -40 0 -32 4 -40 19 -40 10 0 30 9 44 20 32 25 37 25 37 0 0
-12 -7 -20 -17 -20 -26 -1 -63 -35 -63 -59 0 -18 -6 -21 -40 -21 -36 0 -40 3
-40 25 0 20 -5 25 -25 25 -14 0 -25 -4 -25 -10 0 -5 -5 -10 -11 -10 -5 0 -7 5
-3 12 4 7 3 8 -4 4 -14 -8 -16 -46 -3 -46 10 0 9 -7 -3 -52 -7 -22 -15 -27
-44 -30 -29 -2 -37 -8 -42 -28 -4 -18 -13 -25 -31 -26 -46 -2 -51 -4 -46 -18
4 -9 1 -13 -7 -10 -19 7 3 102 26 110 10 3 18 9 18 13 0 4 18 27 40 51 22 24
40 49 40 57 0 8 11 13 29 13 33 0 50 17 57 56 11 62 -25 101 -76 82 -32 -12
-103 -3 -135 18 -14 9 -25 13 -25 8 0 -4 -9 2 -20 14 -25 27 -30 27 -30 3 0
-11 9 -23 21 -26 34 -11 8 -25 -49 -28 -44 -2 -52 -5 -52 -22 0 -14 -3 -16 -8
-7 -6 8 -13 1 -22 -23 -8 -19 -17 -35 -22 -35 -13 0 -9 -28 5 -33 6 -3 2 -6
-10 -6 -20 -1 -23 -6 -23 -41 0 -30 4 -40 16 -40 14 0 15 2 3 18 -13 15 -12
16 4 3 13 -11 17 -11 17 -1 0 8 3 11 6 8 3 -4 1 -15 -5 -26 -6 -11 -12 -48
-13 -83 -2 -35 -7 -67 -13 -71 -6 -5 -5 -8 3 -8 7 0 12 -13 12 -32 0 -17 5
-57 12 -88 13 -66 5 -110 -22 -117 -11 -3 -20 -14 -20 -24 0 -11 -3 -19 -7
-19 -5 0 -19 -17 -33 -38 -51 -77 -75 -102 -97 -102 -13 0 -23 5 -23 10 0 6 6
10 13 10 8 0 11 13 9 44 -7 79 21 212 49 236 3 3 8 13 12 22 3 10 13 18 21 18
10 0 16 21 21 80 4 44 11 82 15 85 4 3 11 77 15 164 5 114 11 158 19 155 8 -3
10 8 8 36 -3 32 -1 40 12 40 14 0 16 16 16 118 1 163 9 276 20 280 6 2 10 39
10 83 0 46 4 79 10 79 6 0 10 18 10 40 0 22 5 40 10 40 6 0 10 47 10 120 0 73
4 120 10 120 6 0 10 29 10 68 0 38 3 72 7 75 3 4 8 33 10 64 2 32 10 72 18 89
13 28 28 171 42 407 3 53 10 97 14 97 5 0 9 36 9 80 0 44 4 80 9 80 12 0 26
311 13 319 -5 3 -24 38 -42 76 -34 72 -66 115 -87 115 -7 0 -13 4 -13 8 0 5
-12 15 -27 22 -35 17 -27 15 -105 24 -38 5 -68 12 -68 17 0 13 -78 11 -82 -2
-2 -7 -59 -13 -158 -16 -92 -4 -158 -10 -162 -16 -4 -7 -68 -11 -175 -11 -174
0 -237 4 -249 17 -4 4 -28 7 -54 7 -25 0 -52 6 -59 13 -11 10 -14 10 -18 0 -5
-15 -83 -18 -83 -3 0 5 -16 17 -36 25 -45 19 -44 19 -44 -1 0 -15 -15 -16
-157 -10 -350 16 -518 30 -529 47 -3 5 -54 9 -113 9 -59 0 -111 4 -117 10 -30
30 -203 12 -240 -25 -9 -8 -22 -15 -29 -15 -7 0 -27 -11 -43 -25 -17 -14 -33
-25 -37 -25 -16 0 -94 -65 -95 -79 0 -7 -13 -29 -30 -48 -16 -18 -30 -40 -30
-48 0 -8 -4 -15 -8 -15 -4 0 -8 -10 -9 -22 -1 -11 -6 -24 -10 -27 -5 -3 -18
-31 -31 -62 l-23 -56 32 -59 c18 -33 59 -99 91 -149 51 -77 59 -85 56 -57 -5
34 7 32 14 -3 2 -11 10 -19 17 -17 8 2 10 -4 6 -18 -4 -13 -1 -22 9 -26 8 -3
18 -15 21 -25 5 -14 12 -18 26 -14 14 5 17 2 13 -8 -3 -8 8 -42 25 -75 18 -36
27 -63 21 -67 -14 -9 -13 -18 6 -41 14 -18 15 -18 4 4 -7 13 -9 26 -6 29 3 3
11 -6 17 -21 9 -19 15 -23 21 -14 5 9 8 10 8 1 0 -7 -8 -16 -17 -21 -15 -9
-15 -11 -1 -26 12 -12 18 -13 22 -3 3 6 3 0 0 -15 -4 -16 -2 -28 4 -28 5 0 12
-9 15 -21 4 -13 10 -18 18 -13 7 4 10 3 5 -4 -3 -6 24 -63 61 -127 38 -63 73
-123 78 -133 22 -38 59 -97 64 -102 4 -3 18 -30 33 -60 16 -30 45 -82 66 -115
68 -106 209 -339 226 -372 21 -42 20 -50 -5 -58 -21 -7 -186 -87 -679 -327
-140 -68 -347 -169 -460 -224 -277 -134 -816 -404 -809 -404 4 0 26 7 49 15
50 17 53 18 46 6 -3 -5 0 -9 7 -8 6 0 27 -1 45 -1 l32 -2 0 -85 c0 -47 -4 -93
-9 -103 -5 -9 -15 -32 -22 -50 -6 -18 -19 -37 -28 -41 -76 -39 -202 0 -306 93
l-50 45 25 21 c23 18 20 18 -30 -4 -30 -13 -172 -81 -315 -151 -143 -69 -287
-139 -320 -155 -81 -38 -409 -194 -570 -270 -71 -35 -174 -82 -227 -106 -54
-24 -106 -48 -115 -53 -10 -6 -72 -33 -138 -61 -66 -28 -127 -55 -136 -59 -9
-5 -94 -44 -190 -86 -369 -163 -592 -265 -604 -276 -5 -6 -5 -9 2 -9 6 0 30
-17 53 -37 39 -34 79 -79 213 -237 102 -121 311 -351 321 -355 6 -2 21 -15 33
-28 12 -12 24 -23 27 -23 3 0 24 -18 46 -40 22 -22 44 -40 48 -40 4 0 27 -18
50 -40 44 -41 79 -53 68 -25 -4 12 3 15 32 15 21 0 42 4 47 8 6 4 30 5 55 1
l45 -6 -42 -1 c-31 -2 -43 -6 -43 -17 0 -10 11 -15 35 -15 19 0 55 -10 80 -21
44 -21 46 -21 82 -4 27 13 50 16 91 12 74 -8 112 0 112 24 0 13 7 19 24 19 15
0 26 7 29 20 3 11 10 20 16 20 6 0 11 -9 11 -20 0 -11 7 -20 15 -20 11 0 15
11 15 40 0 36 3 40 25 40 23 0 25 4 25 40 l0 40 40 0 40 0 0 80 0 80 30 0 c28
0 30 2 30 40 0 29 -4 40 -15 40 -11 0 -15 11 -15 40 0 29 -4 40 -15 40 -11 0
-15 11 -15 39 0 22 -4 43 -10 46 -5 3 -10 22 -10 41 0 31 -2 34 -30 34 -28 0
-30 2 -30 40 l0 40 80 0 80 0 0 -40 0 -40 40 0 40 0 0 -40 c0 -36 3 -40 25
-40 17 0 25 -6 26 -17 0 -16 2 -15 10 2 7 15 8 10 6 -22 -1 -23 1 -39 5 -37 8
5 12 -12 8 -31 -1 -5 2 -7 6 -2 4 4 23 -7 41 -25 26 -25 33 -40 33 -69 0 -21
3 -39 8 -41 4 -1 15 -20 24 -40 10 -21 24 -38 33 -38 11 0 15 -11 15 -39 0
-21 7 -55 15 -74 8 -20 15 -50 15 -66 0 -42 9 -61 31 -61 15 0 19 -7 19 -40 0
-38 2 -40 30 -40 28 0 30 2 30 40 0 22 5 40 10 40 6 0 10 18 10 40 0 38 2 40
30 40 28 0 30 2 30 39 l0 39 -70 0 c-39 0 -70 -4 -70 -9 0 -6 -4 -8 -9 -4 -6
3 -8 41 -4 90 4 61 3 85 -6 85 -6 0 -12 18 -13 43 l-1 42 -7 -45 -7 -45 -1 43
c-2 30 -6 42 -17 42 -8 0 -15 -7 -15 -16 0 -8 -4 -12 -10 -9 -5 3 -10 27 -10
53 0 33 -9 63 -30 101 -17 30 -30 62 -30 72 0 19 -26 35 -65 38 -23 2 -21 115
3 140 42 47 46 55 34 59 -7 2 -12 12 -12 23 0 12 -7 19 -20 19 -12 0 -20 7
-20 16 0 20 -45 64 -66 64 -10 0 -14 12 -14 38 0 31 -5 41 -22 49 l-23 10 23
12 c18 10 22 9 22 -4 0 -11 11 -15 40 -15 30 0 40 4 40 16 0 17 1 17 47 -11
18 -11 33 -26 33 -33 0 -10 23 -12 93 -11 94 1 147 -12 147 -38 0 -7 5 -13 11
-13 10 0 9 -60 -7 -237 -5 -54 -8 -63 -25 -63 -10 0 -19 -4 -19 -10 0 -5 -13
-10 -30 -10 -28 0 -30 -2 -30 -40 0 -22 5 -40 10 -40 6 0 10 -18 10 -40 l0
-40 40 0 40 0 0 -95 0 -95 39 0 c22 0 41 -5 43 -12 3 -8 14 -3 32 15 15 15 29
27 32 27 3 0 22 -16 42 -35 20 -19 40 -35 45 -35 4 0 7 -18 7 -39 0 -22 5 -43
10 -46 13 -8 13 -85 0 -85 -5 0 -10 -22 -10 -50 l0 -50 40 0 c22 0 40 5 40 10
0 6 33 10 80 10 l80 0 0 -80 c0 -64 3 -80 15 -80 12 0 15 16 15 80 0 79 0 80
25 80 16 0 25 -6 25 -15 0 -11 11 -15 40 -15 29 0 40 4 40 15 0 12 21 15 123
17 209 4 280 1 271 -13 -8 -13 28 -40 46 -34 26 8 37 -13 44 -91 5 -66 21
-122 47 -168 9 -16 8 -18 -6 -12 -9 3 -23 6 -31 6 -9 0 -13 8 -11 23 2 12 2
16 0 9 -3 -9 -12 -11 -26 -7 -47 15 -377 1 -377 -16 0 -17 -89 -9 -123 10 -18
10 -52 22 -75 26 -23 4 -42 11 -42 16 0 5 -18 9 -40 9 -22 0 -40 -5 -40 -10 0
-6 -15 -24 -32 -41 -33 -30 -33 -30 -120 -24 l-88 7 0 -31 c0 -17 3 -31 7 -31
16 0 73 25 73 32 0 4 18 8 40 8 22 0 40 -4 40 -8 0 -5 18 -15 40 -22 22 -7 40
-19 40 -27 0 -10 23 -13 105 -12 58 0 103 4 100 9 -3 4 7 15 21 25 21 13 39
15 104 9 62 -5 85 -3 111 10 19 9 35 12 38 7 4 -5 44 -13 91 -16 67 -6 93 -4
124 9 60 25 89 21 116 -16 13 -18 36 -46 51 -63 55 -60 79 -90 79 -97 0 -5
-11 -8 -25 -8 -19 0 -25 -5 -26 -22 -1 -17 -2 -19 -6 -5 -3 12 -15 17 -39 17
-32 0 -34 -2 -28 -27 9 -37 11 -38 24 -14 11 22 30 28 30 11 0 -14 -41 -70
-51 -70 -4 0 -9 6 -12 13 -2 6 -2 0 0 -16 3 -19 0 -27 -10 -27 -8 0 -25 -9
-38 -19 -22 -18 -22 -20 -7 -26 24 -9 13 -24 -12 -18 -11 3 -20 13 -20 22 0
19 -55 41 -121 48 -40 4 -49 1 -78 -26 -18 -17 -41 -31 -51 -31 -37 0 -50 -12
-50 -46 0 -31 3 -34 30 -34 23 0 30 4 30 20 0 29 70 29 88 0 8 -13 23 -20 42
-20 23 0 30 -4 30 -20 0 -17 7 -20 40 -20 l40 0 0 -40 0 -40 -50 0 c-27 0 -61
5 -75 12 -23 10 -28 10 -36 -5 -6 -9 -15 -17 -22 -17 -7 -1 -22 -9 -34 -19
-19 -16 -23 -29 -23 -74 l0 -54 50 -5 c28 -3 58 -12 68 -22 10 -9 28 -16 40
-16 11 0 24 -5 27 -11 11 -18 49 -28 58 -15 5 6 6 -4 3 -24 -4 -22 -3 -30 3
-21 7 11 15 4 35 -27 14 -22 30 -43 36 -47 6 -3 8 -10 6 -14 -3 -4 6 -14 19
-21 14 -7 25 -19 25 -27 0 -18 -10 -16 -27 5 -13 16 -14 15 -8 -5 4 -14 2 -23
-5 -23 -6 0 -8 -4 -5 -10 3 -5 0 -7 -8 -5 -7 3 -26 -1 -42 -9 -26 -14 -31 -14
-38 -1 -5 10 -24 15 -51 15 -25 0 -48 6 -55 14 -19 23 -51 27 -51 6 0 -10 -6
-20 -12 -23 -10 -3 -10 -9 -1 -28 15 -29 12 -63 -10 -106 -18 -34 -15 -58 9
-67 8 -3 14 -12 14 -21 0 -11 11 -15 44 -15 35 0 50 -6 77 -31 20 -19 35 -26
39 -19 4 6 13 -22 20 -61 8 -39 24 -86 36 -104 12 -18 25 -42 28 -53 9 -28
111 -120 141 -128 14 -3 25 -10 25 -15 0 -5 6 -9 14 -9 17 0 136 -59 154 -77
7 -7 28 -15 48 -19 27 -5 32 -9 23 -20 -6 -7 -20 -16 -32 -20 -12 -4 -29 -17
-39 -29 -11 -14 -25 -21 -36 -18 -10 2 -24 -3 -31 -11 -8 -9 -19 -16 -26 -16
-24 0 -116 -51 -128 -71 -7 -11 -34 -34 -61 -50 -27 -17 -55 -37 -62 -44 -7
-7 -33 -25 -58 -41 -25 -16 -46 -32 -46 -36 0 -5 70 -8 156 -8 149 0 158 1
180 22 43 43 78 67 231 160 61 37 42 -1 -46 -91 l-89 -91 4519 0 4519 0 0
4760 0 4760 -40 0 -40 0 0 -40 c0 -36 -2 -40 -25 -40 -22 0 -25 -4 -25 -40 0
-29 -4 -40 -15 -40 -8 0 -15 -4 -15 -10 0 -5 -18 -10 -40 -10 -38 0 -40 -2
-40 -30 0 -28 -2 -30 -40 -30 l-40 0 0 -40 0 -40 -80 0 -80 0 0 40 0 40 40 0
c40 0 40 0 40 39 0 59 8 71 46 71 24 0 34 -5 34 -15 0 -9 9 -15 25 -15 22 0
25 4 25 35 0 29 4 36 25 41 21 5 25 12 25 45 0 21 -4 39 -10 39 -5 0 -10 9
-10 20 0 17 -7 20 -40 20 -33 0 -40 -3 -40 -20 0 -17 -7 -20 -40 -20 l-40 0 0
-40 0 -40 -40 0 c-33 0 -40 -3 -40 -20 0 -17 -7 -20 -40 -20 l-40 0 0 -60 0
-60 -80 0 -80 0 0 -40 0 -40 40 0 c33 0 40 -3 40 -20 0 -17 7 -20 40 -20 33 0
40 3 40 20 0 17 7 20 40 20 l40 0 0 -80 0 -80 -40 0 c-33 0 -40 -3 -40 -20 0
-17 -7 -20 -40 -20 -33 0 -40 -3 -40 -20 0 -13 -7 -20 -20 -20 -17 0 -20 -7
-20 -40 0 -25 -5 -40 -12 -40 -29 0 -108 -45 -108 -62 0 -11 -9 -18 -27 -20
-18 -2 -31 -13 -42 -35 -14 -28 -21 -33 -55 -33 -22 0 -36 -3 -33 -7 9 -8 -64
-43 -75 -37 -5 3 -8 -5 -9 -18 0 -13 -3 -17 -6 -10 -2 6 -20 12 -39 12 l-34 0
6 -40 c4 -21 4 -51 0 -65 -5 -21 -12 -25 -46 -25 -38 0 -40 -2 -40 -30 0 -28
-2 -30 -40 -31 -36 -1 -83 -5 -111 -8 -6 0 -10 -19 -9 -43 2 -24 2 -58 1 -75
-1 -32 -3 -33 -41 -33 l-40 0 0 -40 c0 -33 -3 -40 -19 -40 -11 0 -23 -5 -26
-10 -4 -6 -16 -10 -28 -8 -36 3 -87 -22 -87 -43 0 -15 -7 -19 -35 -19 l-35 0
-2 78 -2 77 -6 -80 -6 -80 -2 81 -2 80 -57 -1 -58 -1 4 43 c3 38 1 43 -18 43
-18 0 -21 -6 -21 -40 0 -39 -1 -40 -36 -40 -19 0 -42 7 -50 15 -9 8 -11 15 -5
15 6 0 11 11 11 25 0 18 5 25 19 25 21 0 61 44 61 66 0 10 13 14 40 14 38 0
54 13 28 23 -10 4 -10 6 0 6 6 1 12 12 12 26 0 20 5 25 24 25 13 0 27 6 29 13
4 10 6 10 6 0 1 -7 6 -13 11 -13 6 0 10 18 10 40 l0 40 40 0 c33 0 40 3 40 20
0 10 6 23 13 27 6 4 12 17 12 28 0 12 9 21 25 25 18 4 26 14 28 33 2 15 10 27
17 27 20 0 65 44 65 64 0 12 9 16 36 16 28 0 37 5 41 21 3 12 11 18 19 15 8
-3 14 -1 14 4 0 6 3 9 8 8 19 -4 42 16 42 36 0 18 9 26 40 36 22 7 40 19 40
27 0 13 30 17 118 13 l42 -2 0 41 c0 36 3 41 23 41 16 0 18 3 8 9 -11 7 -11
10 0 15 11 5 11 7 2 12 -7 3 -13 14 -13 25 0 16 7 19 44 19 47 0 96 32 96 61
0 8 16 23 35 33 20 11 38 30 41 43 4 16 13 23 29 23 13 0 26 6 28 13 4 10 6
10 6 0 1 -8 14 -13 31 -13 28 0 30 2 30 40 0 29 4 40 15 40 8 0 28 12 45 28
89 80 137 129 144 146 3 10 9 16 13 13 9 -10 63 22 63 38 0 8 5 15 11 15 6 0
17 6 24 13 42 37 45 38 45 22 0 -24 17 -17 37 15 13 22 25 30 46 30 15 0 39 7
52 16 23 15 25 15 25 0 0 -9 8 -16 20 -16 22 0 29 35 8 42 -17 6 14 38 36 38
8 0 19 6 23 13 4 7 23 19 41 26 l32 13 0 494 c0 272 -3 494 -7 494 -8 0 -19
-38 -57 -190 -10 -36 -26 -94 -36 -130 -11 -36 -24 -87 -31 -115 -6 -27 -15
-60 -20 -73 -5 -13 -9 -34 -9 -47 0 -13 -9 -39 -19 -57 -10 -18 -22 -48 -26
-66 -4 -18 -13 -36 -21 -39 -8 -3 -14 -9 -14 -14 0 -13 -63 -68 -77 -69 -13 0
-32 -15 -77 -57 -13 -13 -27 -23 -32 -23 -5 0 -29 -18 -54 -40 -25 -22 -55
-40 -67 -40 -13 0 -31 -8 -41 -18 -10 -10 -26 -21 -35 -25 -9 -3 -17 -13 -17
-22 0 -10 -9 -15 -27 -15 -25 0 -25 1 -9 19 20 22 50 122 76 256 11 55 29 141
40 190 11 50 29 140 40 200 11 61 32 157 45 215 123 531 151 707 140 884 -6
105 -38 246 -57 254 -4 2 -8 12 -8 23 0 10 -4 19 -9 19 -5 0 -19 21 -31 47
-12 26 -30 54 -39 63 -10 8 -26 27 -35 43 -10 15 -25 27 -32 27 -8 0 -14 6
-14 14 0 8 -19 25 -41 38 l-41 25 -47 -25 c-48 -26 -111 -106 -111 -143 0 -10
-4 -21 -10 -24 -5 -3 -22 -32 -36 -63 -28 -63 -69 -128 -96 -153 -10 -9 -18
-26 -18 -37 0 -12 -6 -25 -14 -29 -17 -10 -126 -221 -126 -245 0 -9 -4 -20
-10 -23 -5 -3 -10 -15 -10 -26 0 -11 -7 -27 -15 -35 -8 -8 -20 -34 -26 -57 -6
-23 -17 -50 -25 -61 -8 -11 -14 -27 -14 -35 0 -8 -6 -22 -14 -30 -21 -24 -66
-190 -66 -243 0 -27 -4 -48 -10 -48 -5 0 -10 -8 -10 -17 -1 -10 -10 -43 -21
-73 -10 -30 -21 -62 -23 -71 -3 -9 -14 -38 -25 -65 -22 -52 -43 -147 -61 -279
-6 -44 -16 -107 -22 -140 -5 -33 -12 -76 -14 -95 -2 -19 -11 -69 -19 -110 -27
-145 -37 -227 -44 -380 -7 -147 -28 -255 -62 -322 -5 -10 -9 -30 -9 -46 0 -15
-5 -33 -11 -39 -7 -7 -14 -47 -17 -90 -2 -43 -8 -82 -12 -88 -4 -5 -8 -22 -9
-37 -4 -69 -4 -68 -38 -68 -26 0 -33 -4 -33 -19 0 -11 -13 -28 -30 -38 -16 -9
-30 -20 -30 -24 0 -4 -13 -12 -30 -18 -18 -6 -30 -17 -30 -27 0 -10 -3 -14 -6
-11 -9 9 -65 -23 -87 -50 -9 -12 -26 -25 -37 -28 -11 -3 -48 -35 -82 -69 -38
-38 -78 -68 -100 -75 -20 -7 -42 -19 -48 -27 -7 -7 -19 -14 -26 -14 -8 0 -14
-10 -14 -24 0 -13 -7 -26 -15 -30 -8 -3 -15 -10 -15 -16 0 -5 7 -10 15 -10 8
0 15 -5 15 -10 0 -7 -6 -7 -19 0 -33 17 -55 11 -76 -20 -11 -16 -30 -35 -42
-41 -13 -7 -23 -18 -23 -25 0 -8 -17 -22 -37 -33 -21 -10 -51 -33 -67 -50 -17
-17 -33 -31 -38 -31 -12 0 -48 -38 -48 -50 0 -6 -7 -22 -16 -35 l-16 -25 48 0
c45 -1 48 -2 30 -15 -25 -19 -92 -20 -99 -1 -4 11 -12 11 -41 2 -20 -6 -36
-17 -36 -23 0 -7 -6 -13 -14 -13 -7 0 -19 -7 -26 -15 -11 -13 -8 -15 17 -15
25 0 28 -3 27 -27 -1 -16 -3 -34 -3 -40 -1 -7 -5 -13 -10 -13 -13 0 -71 -56
-71 -69 0 -6 -7 -11 -15 -11 -8 0 -15 9 -15 21 0 12 -4 17 -11 13 -8 -5 -8 -1
0 13 6 11 7 23 4 27 -16 16 -40 2 -57 -34 -15 -32 -25 -40 -46 -40 -14 0 -31
-5 -37 -11 -15 -15 -22 2 -12 30 6 15 14 21 24 17 21 -8 34 22 35 80 1 52 -7
114 -15 122 -3 3 -12 -3 -19 -14 -13 -17 -15 -18 -21 -2 -4 9 -4 21 -1 27 4 5
-7 19 -23 30 -19 14 -31 17 -33 10 -5 -16 -78 10 -78 27 0 7 -18 27 -40 44
-22 17 -40 29 -40 25 0 -11 -26 19 -33 37 -3 10 -19 20 -34 24 -32 8 -63 36
-63 58 0 8 -4 17 -9 20 -20 13 -51 95 -51 137 -1 24 -6 76 -13 115 -13 72 -11
153 13 494 5 85 10 194 11 243 0 48 3 87 7 87 4 0 16 72 27 160 10 88 22 160
27 160 4 0 8 -36 8 -80 0 -63 3 -80 14 -80 12 0 15 -17 16 -77 2 -124 0 -158
-11 -161 -6 -3 -6 -8 0 -15 5 -7 11 -88 14 -182 8 -286 28 -343 112 -315 19 6
39 9 45 5 5 -3 12 7 15 22 17 88 37 156 50 169 8 9 15 26 15 40 0 24 45 149
62 171 5 6 12 38 15 70 2 32 13 81 23 108 35 94 60 185 60 215 0 17 4 30 8 30
5 0 9 6 10 13 2 39 24 140 43 196 40 124 53 166 54 181 4 31 16 96 25 130 25
92 71 323 85 426 3 22 10 56 16 75 24 81 50 307 55 489 5 166 3 222 -16 375
-32 265 -48 375 -58 420 -35 146 -44 181 -53 189 -5 6 -9 16 -9 24 0 16 -24
42 -38 42 -6 0 -12 5 -14 11 -6 19 -72 -10 -115 -50 -54 -51 -153 -191 -153
-217 0 -6 -16 -44 -36 -85 -20 -40 -38 -88 -41 -106 -3 -18 -9 -33 -13 -33 -4
0 -7 -6 -8 -12 -2 -44 -43 -251 -51 -267 -6 -11 -11 -42 -11 -70 0 -27 -4 -51
-10 -53 -5 -1 -12 -37 -16 -78 -15 -172 -49 -135 -63 71 -21 283 -9 695 23
841 28 125 49 208 57 233 53 147 96 227 165 304 43 48 151 131 170 131 7 0 16
5 19 10 4 7 -538 10 -1619 10 -894 0 -1626 -3 -1626 -6z m2808 -2838 c22 -44
33 -158 12 -126 -7 11 -10 4 -10 -27 0 -41 -2 -43 -29 -43 -25 0 -29 4 -35 38
-10 62 -7 161 6 182 19 30 32 24 56 -24z m-1318 -1766 c177 -23 225 -26 268
-17 30 6 74 6 132 -2 47 -6 186 -11 307 -11 122 0 223 -3 225 -7 2 -5 20 -17
41 -27 45 -23 50 -60 12 -96 -13 -12 -22 -27 -19 -32 8 -12 -38 -78 -53 -78
-8 0 -13 -15 -13 -40 0 -22 -4 -40 -8 -40 -15 0 -30 -57 -20 -75 14 -24 -18
-92 -59 -128 -18 -16 -30 -33 -27 -38 3 -5 -1 -16 -9 -24 -12 -11 -57 -15
-220 -17 -200 -3 -206 -2 -236 20 -17 12 -34 22 -40 22 -5 0 -24 18 -41 40
-17 22 -37 40 -43 40 -12 0 -67 63 -67 77 0 4 -18 21 -40 36 -22 16 -40 35
-40 43 0 8 -3 14 -7 14 -5 0 -25 16 -45 35 -20 19 -43 35 -50 35 -20 1 -55 34
-60 56 -2 11 -13 20 -28 22 -27 4 -49 28 -50 54 0 9 -18 36 -40 60 -48 52 -52
85 -12 91 34 5 143 -1 242 -13z m1389 -392 c20 -21 44 -38 53 -38 10 0 20 -10
24 -25 7 -27 38 -40 79 -33 16 4 25 1 26 -8 3 -34 19 -65 30 -58 5 3 9 -2 9
-11 0 -9 5 -13 10 -10 6 3 10 1 10 -4 0 -6 -7 -11 -15 -11 -9 0 -18 -6 -21
-14 -9 -22 -29 -26 -58 -10 -22 11 -31 11 -47 1 -10 -6 -19 -14 -19 -17 0 -3
-10 -7 -22 -7 -13 -1 -28 -9 -34 -18 -6 -8 -26 -15 -45 -16 -19 0 -27 -3 -19
-6 8 -3 18 -11 22 -17 5 -7 8 -7 8 2 0 10 3 10 15 -2 22 -22 19 -56 -5 -56
-11 0 -20 -5 -20 -11 0 -5 -4 -7 -10 -4 -5 3 -10 1 -10 -5 0 -6 -4 -9 -9 -6
-13 8 -42 -4 -35 -15 3 -5 0 -9 -6 -9 -7 0 -10 -7 -6 -15 3 -9 0 -15 -8 -15
-7 0 -19 -12 -27 -27 -7 -16 -27 -39 -43 -53 -16 -14 -40 -35 -55 -47 -30 -26
-38 -21 -43 27 -3 36 7 45 96 80 23 9 27 13 16 20 -16 10 -7 15 34 22 13 2 24
18 34 46 7 23 18 42 23 42 5 0 9 11 9 25 0 19 -5 25 -23 25 -13 0 -29 6 -35
12 -10 10 -15 10 -22 -2 -8 -13 -14 -11 -37 12 -23 23 -25 30 -16 50 7 13 17
41 24 63 7 22 17 44 21 50 4 5 8 19 8 31 0 12 5 24 12 26 7 3 12 17 13 33 0
21 7 33 24 41 31 16 46 9 90 -38z m-42 -918 c14 0 14 -2 0 -18 -10 -10 -17
-28 -17 -40 0 -14 -6 -22 -17 -22 -26 -1 -63 -35 -63 -59 0 -14 -6 -21 -20
-21 -11 0 -29 -9 -40 -20 -11 -11 -20 -29 -20 -40 0 -13 -7 -20 -19 -20 -10 0
-24 -7 -31 -15 -7 -8 -16 -15 -21 -15 -5 0 -9 7 -9 15 0 8 5 15 10 15 6 0 10
15 10 34 0 21 6 36 15 40 10 3 15 19 15 46 l0 40 40 0 c40 0 40 0 40 38 0 24
5 39 13 40 44 3 57 8 57 18 0 20 35 22 38 2 2 -10 11 -18 19 -18z m-393 -222
c5 -10 7 -10 12 0 3 6 14 12 25 12 16 0 19 -7 19 -55 0 -48 2 -55 20 -55 41 0
13 -92 -37 -123 -7 -4 -13 -15 -13 -22 0 -8 -5 -15 -10 -15 -13 0 -70 -54 -70
-66 0 -13 -132 -134 -146 -134 -7 0 -19 -7 -28 -15 -8 -9 -19 -16 -23 -16 -21
-2 -92 -56 -93 -71 0 -10 -6 -18 -12 -18 -7 0 -29 -15 -49 -33 -83 -73 -102
-87 -115 -87 -8 0 -26 -13 -41 -28 -16 -15 -40 -36 -55 -45 -16 -10 -28 -24
-28 -31 0 -12 -16 -23 -40 -28 -12 -3 -30 -28 -30 -42 0 -8 -16 -31 -35 -50
-19 -20 -35 -39 -35 -43 -1 -12 -73 -44 -81 -35 -3 4 -4 28 -1 55 3 41 7 47
27 47 29 0 75 77 75 126 0 19 3 33 8 33 20 -3 42 2 39 9 -2 8 60 72 69 72 4 0
13 8 68 58 14 12 30 22 36 22 5 0 28 18 50 40 22 22 47 40 55 40 8 0 15 9 15
19 0 21 44 61 66 61 8 0 14 5 14 10 0 19 65 69 90 70 31 1 78 65 54 74 -19 7
-19 66 1 66 8 0 15 -7 15 -16 0 -13 4 -13 33 3 17 10 34 21 35 26 2 4 24 7 48
7 37 0 44 3 44 20 0 10 9 24 20 30 31 16 24 33 -10 28 -17 -3 -33 -1 -36 4 -3
5 0 7 8 6 8 -2 14 10 16 35 2 23 -1 37 -9 37 -8 0 -8 4 1 15 15 18 26 19 34 3z
m-824 -609 c5 -27 5 -27 43 -12 20 8 37 21 37 29 0 8 7 14 15 14 11 0 15 -11
15 -40 0 -33 -4 -40 -19 -40 -10 0 -34 -14 -52 -31 -26 -24 -38 -29 -58 -24
-55 15 -106 13 -133 -6 -14 -11 -34 -19 -44 -19 -16 0 -16 1 0 19 9 10 18 28
19 40 1 11 5 21 9 21 4 0 5 7 2 15 -4 10 0 15 13 15 11 0 35 10 54 23 19 13
48 23 64 23 24 -1 31 -6 35 -27z m-2560 -154 c0 -19 8 -19 43 0 23 12 29 12
33 1 3 -9 31 -16 74 -20 39 -4 76 -13 84 -21 7 -8 16 -12 19 -9 8 9 227 -18
227 -28 0 -12 70 -9 110 5 52 19 171 20 194 3 16 -13 18 -28 15 -153 -4 -223
-6 -257 -12 -273 -19 -50 -57 -226 -57 -268 0 -86 -12 -172 -24 -172 -23 0
-66 -25 -66 -39 0 -7 -6 -11 -14 -8 -8 3 -31 9 -51 13 -26 5 -33 10 -26 17 6
6 11 30 11 54 l0 43 -40 0 -40 0 0 -40 0 -40 -40 0 -40 0 0 40 c0 36 -3 40
-24 40 -13 0 -26 7 -30 15 -11 29 -26 14 -26 -25 0 -37 -2 -40 -20 -30 -33 18
-43 46 -26 78 16 32 10 51 -16 46 -14 -2 -18 5 -18 32 0 33 -1 34 -40 34 -26
0 -40 -4 -40 -13 0 -7 -18 -21 -40 -31 -22 -10 -40 -24 -40 -32 0 -17 -4 -17
-47 -2 -29 11 -33 16 -33 50 0 27 -4 38 -15 38 -11 0 -15 11 -15 40 0 31 4 40
17 40 30 0 -18 27 -71 41 -25 6 -49 15 -52 20 -8 14 -24 10 -24 -6 0 -19 -4
-19 -46 1 -19 9 -34 23 -34 32 0 8 -6 23 -14 31 -33 37 -24 55 37 75 51 16 63
17 98 6 21 -7 39 -17 39 -22 0 -4 18 -8 40 -8 l40 0 0 75 0 75 -40 0 c-30 0
-40 4 -40 16 0 20 -45 64 -66 64 -10 0 -14 12 -14 40 0 40 0 40 -38 40 -21 0
-42 4 -47 9 -6 5 -30 11 -54 14 -46 5 -96 35 -96 58 0 8 12 19 27 27 34 16
208 26 208 12 0 -17 72 -10 110 9 44 24 50 24 50 6z m2320 -40 c0 -12 14 -15
63 -15 62 -1 62 -1 40 -19 -13 -11 -23 -29 -23 -40 0 -15 -6 -21 -23 -21 -13
0 -32 -9 -41 -19 -10 -11 -31 -25 -47 -31 -16 -7 -29 -16 -29 -21 0 -5 -16 -9
-35 -9 -29 0 -35 4 -33 18 2 11 -3 16 -14 14 -23 -4 -25 40 -2 59 8 7 22 25
30 41 8 15 23 28 33 28 10 0 24 7 31 15 7 8 21 15 31 15 11 0 19 -7 19 -15z
m-2253 -1624 c26 -6 80 -15 118 -21 164 -26 484 -153 485 -192 0 -10 -6 -18
-14 -18 -7 0 -16 -8 -20 -17 -7 -23 -25 -50 -53 -82 -13 -14 -23 -35 -23 -46
-1 -11 -18 -33 -40 -50 -21 -16 -39 -38 -40 -47 0 -20 -15 -39 -76 -101 -22
-23 -51 -63 -63 -89 -13 -27 -29 -48 -37 -48 -8 0 -14 -4 -14 -9 0 -5 -13 -14
-30 -19 -25 -9 -30 -8 -35 9 -4 10 -11 19 -17 19 -24 0 11 302 42 361 5 9 6
26 3 37 -5 21 -6 21 -33 -10 -16 -18 -31 -45 -34 -60 -7 -38 -64 -154 -82
-169 -8 -6 -14 -21 -14 -34 0 -45 -93 -64 -133 -27 -29 28 -94 20 -107 -12 -9
-21 -9 -21 -9 -1 -1 11 -14 35 -29 52 -22 23 -35 30 -54 26 -15 -3 -29 2 -37
11 -8 9 -23 16 -35 16 -34 0 -63 39 -70 94 -3 29 -15 59 -26 71 -11 12 -20 27
-20 33 0 18 -27 15 -34 -4 -3 -9 -6 -28 -6 -42 0 -70 -38 -102 -121 -102 -27
0 -49 -4 -49 -9 0 -5 -16 -4 -36 2 -28 9 -37 8 -44 -3 -7 -11 -16 -11 -49 -2
-22 7 -68 12 -103 11 -237 -4 -257 -2 -321 27 -62 28 -110 41 -179 51 -28 4
-44 0 -64 -16 -15 -12 -34 -21 -42 -21 -21 0 -52 29 -46 44 7 19 -67 39 -126
34 -29 -3 -53 -1 -57 5 -3 6 -1 7 5 3 7 -4 14 4 18 20 7 29 50 73 72 74 6 0
12 5 12 10 0 6 7 10 15 10 8 0 41 12 72 26 32 15 72 33 88 40 17 8 80 29 140
49 206 65 370 86 703 90 186 2 259 6 297 18 58 18 276 22 352 8z m-1437 -531
c0 -5 10 -10 23 -10 12 0 28 -9 35 -20 7 -11 17 -20 23 -20 6 0 23 -9 37 -21
37 -28 123 -102 134 -114 38 -44 68 -91 73 -116 9 -39 31 -81 40 -77 4 2 13
-6 19 -17 6 -11 19 -27 29 -36 9 -9 17 -22 17 -29 0 -7 7 -18 16 -25 19 -13
26 -104 12 -147 -8 -21 -17 -27 -51 -31 -71 -8 -103 -21 -141 -53 -40 -35 -41
-70 -2 -60 95 22 189 13 268 -26 21 -10 42 -18 49 -18 6 0 38 -18 71 -40 33
-22 62 -40 65 -40 2 0 9 -5 16 -10 22 -19 102 -70 110 -70 4 0 16 -8 26 -17
58 -54 70 -63 85 -63 9 0 16 -5 16 -12 0 -15 50 -68 64 -68 6 0 17 -15 25 -32
8 -18 19 -37 25 -41 6 -5 1 -7 -13 -3 -23 5 -23 3 -17 -40 6 -45 -5 -58 -28
-30 -6 7 -35 21 -65 30 -60 19 -111 53 -111 73 0 8 -13 19 -29 24 -16 6 -31
18 -34 28 -6 23 -92 45 -139 37 -25 -5 -28 -4 -13 3 19 9 18 10 -5 11 -26 1
-60 21 -60 36 -1 16 -49 64 -65 64 -8 0 -15 4 -15 10 0 5 -18 13 -40 16 -22 4
-40 10 -40 15 0 5 -7 9 -15 9 -9 0 -18 7 -21 15 -4 8 -17 15 -30 15 -12 0 -35
11 -49 24 -15 14 -36 26 -48 28 -14 2 -23 11 -25 25 -2 12 -13 25 -24 29 -29
9 -54 34 -63 64 -4 13 -17 37 -28 51 -17 24 -18 32 -8 61 8 22 8 34 1 36 -5 2
-10 31 -10 64 0 50 -4 63 -22 79 -13 10 -28 18 -34 19 -6 0 -23 17 -38 38 -20
29 -23 38 -12 40 12 3 12 10 -5 48 -26 62 -25 65 19 58 45 -7 74 15 53 40 -7
9 -8 15 -2 18 6 2 7 21 4 46 -5 37 -8 42 -26 36 -17 -5 -19 -3 -13 22 5 20 4
25 -3 15 -8 -12 -12 -10 -22 12 -7 15 -16 27 -21 27 -4 0 -8 7 -8 15 0 8 9 15
20 15 11 0 20 -4 20 -10z m1483 -520 c-9 -16 -21 -30 -25 -30 -4 0 -8 -9 -8
-21 0 -12 -11 -30 -24 -40 -14 -11 -27 -33 -31 -49 -4 -16 -11 -32 -16 -35 -5
-4 -9 -15 -9 -26 0 -10 -4 -19 -8 -19 -4 0 -18 -19 -30 -42 -30 -58 -43 -78
-69 -104 -13 -11 -23 -26 -23 -32 0 -7 -11 -18 -23 -27 -22 -14 -28 -14 -61 0
-20 8 -58 15 -85 14 -37 -2 -56 3 -76 19 -15 12 -33 22 -39 22 -6 0 -4 -4 4
-10 8 -5 11 -12 7 -16 -4 -5 -17 2 -29 13 -21 22 -21 22 -2 50 10 15 19 35 19
43 0 8 5 15 10 15 6 0 17 6 25 13 59 50 123 92 240 156 30 16 57 32 60 36 7 8
193 100 203 100 5 0 0 -13 -10 -30z"/>
<path d="M15250 8120 c0 -29 4 -40 15 -40 8 0 15 -7 15 -16 0 -20 45 -64 66
-64 7 0 14 -6 14 -13 0 -8 18 -20 40 -27 22 -7 40 -19 40 -27 0 -9 16 -13 54
-13 44 0 60 5 80 24 15 13 26 31 26 40 0 9 8 16 20 16 17 0 20 7 20 40 0 39
-1 40 -36 40 -23 0 -41 6 -49 17 -9 13 -26 16 -70 14 -52 -2 -112 12 -125 29
-3 4 -29 10 -57 13 l-53 6 0 -39z"/>
<path d="M12487 5593 c-4 -3 -7 -19 -7 -34 0 -25 -4 -28 -42 -32 l-43 -4 43
-1 42 -2 0 -45 0 -45 40 0 c39 0 40 -1 40 -35 0 -34 1 -35 40 -35 l40 0 0 40
0 40 40 0 c27 0 40 4 40 13 0 8 -18 20 -40 27 -22 7 -40 19 -40 27 0 7 -11 13
-26 13 -24 0 -26 3 -22 40 3 33 0 40 -14 40 -14 0 -18 -8 -18 -36 l0 -35 -35
27 c-19 14 -32 30 -29 35 6 11 0 12 -9 2z"/>
<path d="M18325 12951 c3 -5 19 -12 36 -16 17 -4 85 -28 152 -55 67 -26 149
-56 182 -66 33 -10 92 -36 130 -58 39 -21 84 -45 100 -54 35 -17 282 -264 338
-338 85 -111 133 -181 146 -212 8 -18 18 -35 22 -38 5 -3 9 182 9 420 l0 426
-561 0 c-340 0 -558 -4 -554 -9z"/>
<path d="M10262 12913 c-28 -5 -182 -156 -182 -178 0 -8 -4 -15 -8 -15 -5 0
-20 -24 -35 -52 -83 -169 -102 -235 -118 -400 -6 -62 -15 -151 -19 -198 -5
-47 -13 -105 -20 -130 -6 -25 -13 -97 -14 -160 -2 -63 -8 -171 -14 -240 -29
-342 -33 -440 -35 -784 -2 -368 -2 -371 20 -407 13 -20 20 -39 16 -42 -3 -4 0
-13 6 -21 7 -8 11 -23 10 -33 -3 -27 12 -93 22 -93 5 0 9 -18 9 -40 0 -38 13
-54 23 -27 3 10 9 10 26 0 11 -7 28 -13 36 -13 11 0 15 -11 15 -40 0 -39 -1
-40 -37 -41 -21 -1 -43 -1 -49 0 -6 1 -21 -20 -33 -46 -12 -27 -31 -65 -42
-86 -33 -67 -26 -268 17 -437 7 -30 16 -76 19 -103 4 -28 15 -57 28 -71 39
-42 142 -62 282 -57 33 1 51 30 54 88 1 18 19 81 40 140 21 59 42 137 45 172
3 35 10 69 15 75 4 6 14 63 21 126 7 63 18 118 24 122 5 4 13 37 17 75 4 37
12 93 18 123 6 30 15 80 21 110 5 30 16 86 25 125 8 38 15 97 15 130 0 34 5
66 11 72 12 12 38 185 39 256 0 45 16 147 41 272 13 64 27 253 28 375 2 211
-30 611 -52 647 -5 7 -3 21 3 32 7 14 7 22 0 26 -6 4 -8 15 -5 25 5 17 -15
153 -34 229 -5 20 -12 59 -16 86 -4 28 -13 64 -20 80 -21 46 -45 118 -45 137
0 17 -24 78 -41 108 -5 8 -14 28 -20 43 -6 16 -22 33 -36 38 -25 9 -31 9 -71
2z"/>
<path d="M12293 12885 c-7 -8 -13 -17 -13 -21 0 -16 -83 -174 -101 -189 -10
-10 -19 -25 -19 -34 0 -8 -6 -33 -14 -56 -8 -22 -27 -87 -42 -145 -14 -58 -32
-118 -39 -135 -8 -16 -17 -48 -21 -70 -3 -22 -15 -62 -24 -90 -23 -63 -31
-119 -23 -157 19 -95 93 3 128 170 10 45 22 82 26 82 5 0 9 12 9 28 0 15 6 36
13 47 8 11 22 51 32 88 10 37 22 70 27 73 4 3 8 14 8 25 0 10 4 19 8 19 13 0
49 129 69 248 3 17 8 32 12 32 12 0 28 43 23 63 -2 9 -10 17 -18 17 -8 0 -14
5 -14 10 0 14 -13 12 -27 -5z"/>
<path d="M12753 12659 c-42 -21 -94 -82 -134 -156 -130 -240 -169 -318 -169
-333 0 -5 -4 -10 -10 -10 -5 0 -10 -6 -10 -12 0 -7 -12 -35 -26 -63 -27 -54
-54 -142 -54 -178 0 -12 -7 -35 -15 -51 -8 -15 -15 -35 -15 -42 0 -8 -4 -22
-9 -32 -8 -16 -65 -145 -82 -187 -30 -71 -41 -122 -46 -212 -3 -57 -10 -103
-14 -103 -5 0 -9 -25 -9 -55 0 -53 -27 -175 -41 -185 -4 -3 -10 -43 -13 -90
-4 -47 -13 -123 -21 -170 -19 -119 -33 -247 -40 -370 -8 -144 -27 -324 -35
-330 -7 -5 -15 -266 -12 -366 2 -49 3 -51 30 -50 15 1 34 -5 43 -12 19 -15
166 -19 260 -7 46 5 64 3 100 -14 51 -25 49 -25 49 -6 0 8 12 18 26 21 29 7
150 0 176 -11 24 -10 61 30 76 85 8 25 20 65 28 90 8 25 14 62 14 83 0 21 5
48 12 60 6 12 11 49 10 82 -2 62 21 180 44 227 8 15 14 51 14 80 0 30 9 78 19
108 10 30 22 76 25 101 4 26 16 82 28 125 17 59 23 106 23 184 0 88 4 113 23
154 12 27 22 62 22 79 0 17 4 44 9 61 24 75 69 361 73 454 1 39 6 72 9 72 4 0
9 28 12 63 3 34 10 87 17 117 14 65 9 312 -7 332 -6 7 -13 29 -16 48 -10 67
-37 148 -67 200 -5 8 -23 39 -40 68 -16 28 -35 52 -40 52 -6 0 -10 7 -10 15 0
8 -3 15 -7 15 -5 0 -24 16 -45 35 -50 47 -105 59 -155 34z"/>
<path d="M17275 12553 c-40 -8 -66 -27 -82 -61 -12 -25 -13 -36 -4 -45 6 -6
11 -37 11 -69 0 -45 3 -58 15 -58 11 0 15 -11 15 -40 0 -22 4 -40 9 -40 5 0
12 -36 16 -80 7 -83 25 -111 25 -40 0 22 3 40 8 40 4 0 6 18 4 40 -2 22 0 40
5 40 10 0 38 214 35 260 -3 31 -31 58 -57 53z"/>
<path d="M17447 12543 c-4 -3 -7 -19 -7 -35 0 -15 -4 -28 -10 -28 -6 0 -10
-33 -10 -80 0 -47 4 -80 10 -80 6 0 10 -8 10 -18 0 -11 9 -27 19 -36 18 -17
19 -16 31 18 6 20 16 36 21 36 5 0 9 7 9 15 0 8 6 25 13 36 10 17 10 23 0 26
-9 3 -13 26 -13 65 0 46 -4 64 -17 74 -20 15 -46 18 -56 7z"/>
<path d="M17898 12533 c-21 -3 -30 -13 -42 -50 -9 -26 -16 -60 -16 -76 0 -16
-7 -52 -15 -80 -8 -29 -19 -81 -25 -117 -5 -36 -14 -85 -20 -110 -6 -25 -16
-75 -23 -112 -7 -37 -16 -70 -20 -74 -4 -4 -7 -18 -7 -31 0 -13 -11 -69 -25
-125 -14 -56 -25 -114 -25 -129 0 -16 -4 -29 -10 -29 -5 0 -10 -18 -10 -40 0
-30 -4 -40 -16 -40 -14 0 -16 9 -10 70 4 38 14 109 22 157 8 49 19 120 24 158
5 39 13 101 19 139 6 38 11 85 12 105 0 20 5 83 11 140 9 80 9 106 0 109 -7 2
-12 21 -12 43 0 28 -4 39 -15 39 -11 0 -15 -11 -15 -40 0 -33 -3 -40 -19 -40
-15 0 -21 -10 -26 -40 -4 -22 -10 -40 -13 -40 -4 0 -5 -23 -3 -51 2 -29 -2
-56 -8 -62 -6 -6 -11 -28 -11 -48 0 -21 -4 -49 -9 -63 -6 -13 -12 -49 -16 -78
-14 -134 -18 -164 -24 -173 -9 -12 -28 -79 -35 -120 -3 -16 -12 -66 -21 -110
-17 -84 -15 -167 4 -173 16 -5 14 -82 -2 -82 -8 0 -20 -11 -27 -25 -7 -14 -17
-25 -22 -25 -4 0 -8 -43 -8 -95 0 -52 -4 -95 -8 -95 -5 0 -17 -19 -26 -42 -10
-24 -24 -58 -32 -76 -8 -18 -14 -53 -14 -77 0 -33 -4 -45 -15 -45 -11 0 -15
-12 -16 -42 l-2 -43 -6 40 c-4 27 -12 41 -23 43 -15 3 -18 -4 -18 -37 l0 -41
-40 0 -40 0 0 -40 0 -40 -40 0 -40 0 0 -40 c0 -29 4 -40 15 -40 11 0 15 -11
15 -40 l0 -40 -71 0 -72 0 7 -61 c3 -34 6 -70 6 -80 0 -11 5 -19 10 -19 6 0
10 18 10 40 l0 40 40 0 40 0 0 -40 0 -40 40 0 40 0 0 -40 c0 -38 1 -40 32 -40
l31 0 -6 -120 -7 -120 25 0 c22 0 25 4 25 40 0 29 4 40 15 40 11 0 15 11 15
40 0 29 4 40 15 40 11 0 15 11 15 40 0 34 3 40 21 40 21 0 21 -3 14 -77 -4
-43 -10 -80 -15 -83 -4 -3 -10 -51 -13 -107 -5 -93 -4 -102 11 -94 32 18 52
51 52 86 0 19 5 35 10 35 6 0 10 18 10 40 0 29 4 40 15 40 11 0 15 12 15 47 0
26 9 67 21 92 35 78 38 85 45 131 6 43 27 80 46 80 11 0 10 -37 -2 -59 -5 -10
-15 -61 -22 -112 -6 -52 -15 -96 -18 -99 -6 -5 -40 -264 -40 -302 0 -30 19
-20 40 22 11 22 26 40 33 40 16 0 34 71 43 168 4 39 11 72 15 72 5 0 9 18 9
40 0 29 4 40 15 40 10 0 15 11 15 35 0 19 8 51 19 70 18 33 19 34 25 13 9 -34
7 -118 -3 -118 -4 0 -11 -28 -15 -61 -3 -34 -10 -67 -15 -73 -5 -6 -12 -45
-15 -86 -3 -41 -9 -97 -12 -124 -5 -35 -3 -51 7 -57 10 -6 11 -9 2 -9 -7 0
-13 -9 -13 -21 0 -16 5 -20 27 -17 26 3 29 7 36 62 5 33 15 69 23 80 8 11 14
32 14 47 0 14 6 39 14 55 7 16 22 75 32 132 10 56 22 102 26 102 5 0 8 11 8
25 0 14 4 25 8 25 5 0 14 26 21 58 31 143 54 242 72 302 38 133 62 244 80 365
5 38 13 72 17 75 14 10 42 72 42 91 0 11 5 29 11 40 6 11 17 46 25 77 8 31 21
71 28 87 8 17 24 64 36 105 29 99 61 193 70 205 3 6 21 51 40 100 18 50 36 95
40 100 4 6 10 22 14 37 3 15 27 70 52 122 49 102 64 167 45 190 -14 17 -65 28
-97 20 -14 -4 -27 -16 -30 -30 -3 -13 -10 -24 -14 -24 -4 0 -19 -35 -34 -77
-15 -43 -33 -91 -41 -108 -13 -27 -53 -136 -123 -330 -13 -38 -30 -83 -38
-100 -7 -16 -15 -47 -19 -67 -4 -21 -11 -38 -15 -38 -7 0 -12 -18 -25 -95 -5
-34 -35 -62 -46 -44 -8 13 6 71 27 112 9 17 11 27 4 27 -7 0 -8 6 0 19 5 11
10 33 10 50 0 16 4 31 10 33 9 3 57 161 67 223 2 17 8 39 13 50 5 11 18 49 29
85 36 114 70 208 96 262 31 64 31 81 2 110 -51 50 -52 51 -94 29 -37 -18 -40
-24 -57 -98 -10 -43 -28 -105 -38 -138 -11 -33 -24 -76 -29 -95 -8 -36 -63
-233 -79 -285 -33 -109 -70 -246 -76 -282 -3 -24 -10 -43 -14 -43 -7 0 -14
-28 -27 -115 -3 -22 -10 -43 -16 -47 -7 -4 -4 -15 7 -33 14 -22 15 -32 6 -60
-6 -19 -22 -43 -36 -54 -13 -10 -24 -28 -24 -39 0 -28 -10 -52 -22 -52 -6 0
-7 14 -3 38 4 20 6 68 5 106 -1 62 2 74 28 110 17 24 32 60 35 86 4 25 11 65
17 90 6 25 15 68 19 95 4 28 17 88 29 135 25 104 63 283 70 330 2 19 8 40 12
45 5 6 11 28 15 50 4 22 18 75 31 117 13 42 24 85 24 96 0 10 5 23 12 30 18
18 -7 56 -48 76 -19 9 -36 15 -37 15 -1 -1 -14 -4 -29 -6z"/>
<path d="M17040 12490 c0 -5 -9 -10 -20 -10 -27 0 -35 -53 -21 -133 6 -34 15
-168 21 -297 5 -129 13 -265 16 -302 l7 -68 41 0 42 0 10 73 c5 41 6 153 2
253 -15 403 -23 474 -56 474 -7 0 -10 5 -7 10 3 6 -3 10 -14 10 -12 0 -21 -4
-21 -10z"/>
<path d="M11379 11692 c-25 -29 -32 -76 -33 -214 -1 -69 -4 -124 -8 -121 -5 2
-8 -14 -8 -36 0 -35 3 -41 20 -41 19 0 20 6 18 61 -1 40 2 63 10 68 28 17 51
290 26 298 -5 2 -17 -5 -25 -15z"/>
<path d="M17336 11478 c-25 -39 -27 -49 -22 -102 3 -32 6 -67 6 -77 0 -15 8
-19 33 -19 30 0 34 4 50 48 9 26 17 64 17 84 0 41 -28 108 -45 108 -6 0 -23
-19 -39 -42z"/>
<path d="M10835 9969 c-31 -27 -35 -37 -35 -79 0 -41 4 -52 26 -69 39 -31 124
-29 158 3 56 51 20 128 -75 161 -38 14 -40 13 -74 -16z"/>
<path d="M11416 9935 c-15 -8 -34 -15 -41 -15 -18 0 -65 -58 -65 -80 0 -33 61
-70 114 -70 84 0 131 40 120 104 -11 68 -65 93 -128 61z"/>
<path d="M16893 9634 c-7 -3 -13 -12 -13 -20 0 -8 -6 -14 -14 -14 -15 0 -36
-49 -36 -85 0 -12 9 -34 21 -49 18 -23 27 -27 71 -25 106 5 151 84 89 157 -21
25 -39 35 -67 38 -22 2 -45 1 -51 -2z"/>
<path d="M12492 9592 c-6 -2 -12 -15 -12 -28 0 -21 4 -24 40 -24 22 0 40 -4
40 -10 0 -5 -9 -10 -20 -10 -11 0 -20 -4 -20 -10 0 -5 9 -14 20 -20 11 -6 20
-21 20 -35 0 -16 9 -27 30 -37 17 -7 30 -17 30 -21 0 -5 4 -6 9 -3 5 4 12 0
15 -6 7 -18 48 31 41 49 -3 8 -5 30 -5 49 0 27 -4 34 -20 34 -16 0 -20 7 -20
30 0 28 -2 30 -38 30 -21 0 -42 3 -46 7 -8 8 -45 12 -64 5z"/>
<path d="M17341 9565 c-53 -53 -53 -114 0 -135 24 -11 35 -10 57 1 39 19 84
69 78 86 -3 8 -6 30 -6 49 0 34 0 34 -47 34 -41 -1 -53 -6 -82 -35z"/>
<path d="M12128 9320 c-3 -33 0 -40 14 -40 11 0 18 -8 18 -20 0 -11 9 -29 20
-40 11 -11 29 -20 40 -20 17 0 20 -7 20 -39 0 -34 4 -40 33 -52 38 -16 112
-15 144 2 18 10 23 21 23 51 0 31 3 38 20 38 11 0 20 -7 20 -15 0 -11 11 -15
40 -15 36 0 40 -2 40 -26 0 -40 25 -23 28 19 3 31 0 37 -16 37 -11 0 -35 14
-53 31 -22 21 -34 26 -40 18 -4 -8 -26 -10 -61 -7 -41 3 -68 13 -110 41 -30
20 -61 37 -69 37 -8 0 -31 9 -52 20 -50 27 -54 26 -59 -20z"/>
<path d="M17840 8517 c0 -42 -1 -44 -27 -42 -49 3 -53 -3 -53 -72 0 -44 5 -69
15 -79 12 -12 15 -12 15 -2 0 10 3 9 10 -2 9 -13 10 -13 10 0 0 13 1 13 10 0
9 -13 10 -13 10 0 0 13 1 13 10 0 9 -13 10 -13 10 0 0 13 1 13 10 0 9 -13 10
-13 10 0 0 13 1 13 10 0 9 -13 10 -13 10 0 0 13 1 13 10 0 7 -10 10 12 10 72
0 77 -2 86 -17 83 -15 -2 -17 4 -14 41 3 39 1 44 -18 44 -18 0 -21 -6 -21 -43z"/>
<path d="M1935 8198 c-38 -5 -79 -13 -90 -18 -29 -13 -128 -36 -215 -49 -41
-7 -99 -16 -129 -22 -30 -5 -74 -9 -98 -9 -24 0 -43 -4 -43 -10 0 -5 -16 -10
-35 -10 -19 0 -65 -12 -102 -26 -62 -23 -85 -26 -253 -30 -102 -3 -204 -10
-226 -15 -23 -6 -106 -12 -185 -14 -79 -2 -207 -10 -284 -18 -77 -9 -170 -13
-207 -10 l-68 6 0 -2587 0 -2586 25 0 c25 0 25 -1 25 -80 0 -64 3 -80 15 -80
11 0 15 -12 15 -48 0 -48 -1 -49 -40 -62 l-40 -13 0 -198 c0 -109 4 -200 9
-203 5 -3 7 -27 4 -53 -3 -36 -2 -44 6 -33 9 12 11 11 11 -7 0 -14 -6 -23 -15
-23 -11 0 -15 -11 -15 -40 l0 -40 48 0 c41 0 53 -5 80 -33 32 -33 32 -34 32
-135 0 -61 -5 -110 -12 -121 -9 -15 -9 -35 2 -89 11 -61 11 -79 -3 -134 -11
-44 -15 -116 -16 -243 0 -99 -5 -202 -10 -230 -5 -27 -14 -108 -20 -180 -6
-71 -16 -167 -21 -211 -6 -45 -7 -120 -4 -167 6 -77 5 -86 -15 -106 -25 -25
-25 -27 -6 -116 8 -39 15 -89 15 -112 l0 -43 70 0 c66 0 70 1 61 18 -21 39 0
242 29 277 7 9 10 26 6 42 -16 69 -17 87 -6 114 7 16 19 29 26 29 17 0 18 16
3 26 -6 3 -15 0 -20 -7 -6 -10 -9 -5 -9 16 0 17 -3 65 -6 109 -4 50 -2 82 5
89 6 6 11 28 11 49 0 21 5 38 10 38 6 0 10 18 10 39 0 22 4 41 9 43 14 5 26
158 12 158 -12 0 -4 230 8 240 3 3 15 22 26 42 11 21 25 38 32 38 8 0 13 14
13 40 0 36 -3 40 -24 40 -21 0 -24 6 -28 40 l-4 40 48 0 c36 0 48 4 48 15 0
13 -42 21 -81 17 -4 -1 -14 7 -23 16 -13 15 -14 27 -5 72 5 30 10 61 11 68 1
6 5 12 10 12 4 0 8 8 8 18 1 28 49 55 107 60 35 3 53 1 53 -7 0 -6 17 -11 40
-11 22 0 40 -4 40 -10 0 -5 -7 -10 -15 -10 -11 0 -15 -11 -15 -40 l0 -40 44 0
c25 0 48 5 51 10 8 13 115 13 115 0 0 -5 14 -10 30 -10 17 0 30 5 30 10 0 6
18 10 40 10 22 0 40 -4 40 -10 0 -6 30 -10 70 -10 l70 0 0 40 c0 22 5 40 10
40 6 0 10 -13 10 -30 0 -28 2 -30 41 -30 l40 0 -3 -37 -3 -38 -72 -3 c-62 -2
-72 0 -76 15 -3 12 -5 8 -6 -9 0 -16 -5 -28 -11 -28 -5 0 -10 -18 -10 -40 0
-38 -2 -40 -30 -40 -30 0 -30 -1 -30 -55 0 -52 14 -73 26 -40 5 11 22 15 70
15 62 0 64 -1 64 -25 0 -22 4 -25 40 -25 29 0 40 -4 40 -15 0 -12 -15 -15 -74
-15 -78 0 -85 -4 -87 -53 0 -12 -3 -16 -6 -9 -2 6 -12 12 -21 12 -15 0 -15 -2
-2 -10 11 -7 7 -10 -17 -10 l-33 0 0 -60 0 -60 -40 0 c-30 0 -40 -4 -40 -16 0
-14 -7 -16 -40 -11 l-40 5 0 -37 c0 -36 -10 -47 -63 -67 -22 -8 -23 -66 -1
-99 9 -13 17 -32 18 -42 2 -10 12 -19 24 -21 18 -3 20 -8 15 -35 -3 -18 -11
-35 -17 -39 -7 -5 -4 -8 7 -8 15 0 17 -12 17 -101 0 -86 2 -100 15 -95 8 3 15
1 15 -4 0 -6 3 -9 8 -9 4 1 33 1 65 0 43 -1 57 -5 57 -16 0 -21 26 -19 50 5
16 16 25 18 40 10 10 -5 30 -10 44 -10 14 0 26 -5 26 -10 0 -11 45 -9 56 3 13
13 24 7 24 -13 0 -16 7 -20 30 -20 29 0 30 1 30 50 0 47 2 50 25 50 28 0 32
-12 10 -34 -11 -11 -15 -38 -15 -105 0 -57 -4 -91 -11 -91 -5 0 -7 5 -4 10 3
6 -3 10 -15 10 -11 0 -33 11 -48 25 -15 14 -39 25 -53 25 -15 0 -29 7 -32 14
-3 8 -22 18 -41 22 -21 3 -36 12 -36 20 0 9 -11 14 -29 14 -16 0 -43 3 -60 6
-31 6 -31 6 -31 -35 0 -34 3 -41 20 -41 16 0 20 -7 21 -37 1 -21 1 -43 0 -49
0 -6 15 -9 37 -8 20 0 40 -3 43 -9 4 -5 39 -9 80 -8 45 1 76 -3 80 -11 5 -8
15 -8 37 1 17 7 35 10 40 7 5 -3 28 3 50 14 23 11 45 20 50 20 14 0 21 22 15
51 -3 18 2 27 22 36 23 10 25 9 25 -13 0 -23 3 -24 40 -18 33 5 40 4 40 -10 0
-10 4 -15 8 -12 5 3 25 -4 45 -14 20 -11 41 -20 47 -20 5 0 20 -10 33 -23 l22
-22 3 22 c2 15 10 23 23 23 24 0 24 14 -1 31 -31 22 -33 129 -2 129 12 0 25
17 41 53 17 38 32 57 55 67 17 8 35 13 39 12 15 -4 52 -11 70 -11 12 -1 17 -9
17 -30 0 -22 6 -31 30 -41 16 -7 33 -13 37 -14 4 0 17 -11 30 -24 31 -31 33
-92 3 -92 -11 0 -20 -6 -20 -14 0 -7 -9 -20 -19 -27 -11 -8 -22 -24 -25 -36
-9 -28 32 -45 46 -19 6 10 22 16 43 16 21 0 35 5 35 13 1 20 43 62 78 76 17 7
32 17 32 22 0 18 35 49 55 49 11 0 27 -9 35 -20 8 -11 20 -20 27 -20 9 0 13
-15 13 -46 0 -51 17 -73 57 -74 12 0 24 -6 26 -12 4 -10 8 -10 15 1 5 7 21 14
36 14 24 0 26 3 26 38 0 31 -4 39 -18 39 -36 0 -62 34 -62 79 0 23 5 51 10 62
7 13 7 19 0 19 -5 0 -10 7 -10 15 0 20 62 30 113 17 23 -6 58 -14 77 -17 19
-3 44 -7 55 -9 11 -2 24 -4 29 -5 5 0 0 -11 -12 -24 -12 -13 -22 -31 -22 -40
0 -13 -9 -17 -35 -17 -29 0 -35 -4 -35 -21 0 -11 4 -17 10 -14 6 3 10 -5 10
-19 0 -15 -7 -26 -17 -29 -10 -3 1 -5 25 -6 23 0 42 -6 42 -12 0 -6 10 -9 23
-7 12 2 21 9 19 16 -2 10 18 17 41 13 4 -1 13 10 19 24 6 14 15 25 20 25 4 0
8 7 8 15 0 8 6 15 13 15 6 1 30 19 52 40 23 23 50 40 63 40 19 0 22 5 22 40 0
33 -3 40 -19 40 -22 0 -29 38 -22 118 3 37 6 42 27 42 21 0 24 4 24 40 0 22 4
40 9 40 14 0 21 110 8 132 -9 16 -9 22 1 25 24 9 11 31 -28 47 -22 9 -40 20
-40 26 0 5 -8 10 -18 10 -10 0 -35 9 -57 20 -22 11 -47 20 -56 20 -9 0 -31 8
-49 17 -30 15 -32 17 -14 24 10 4 13 8 7 8 -8 1 -13 15 -13 36 0 28 4 35 20
35 12 0 20 -7 20 -16 0 -15 2 -15 25 0 13 9 31 16 40 16 12 0 15 13 15 63 0
65 -4 71 -62 93 -10 3 -18 13 -18 21 0 26 -53 62 -92 63 -38 0 -38 1 -38 40 0
29 4 40 15 40 11 0 15 11 15 36 0 36 23 73 35 54 3 -5 1 -10 -4 -10 -6 0 -11
-18 -11 -40 0 -22 5 -40 11 -40 19 0 39 28 39 54 0 16 6 26 15 26 10 0 15 -10
15 -30 0 -28 3 -30 35 -30 24 0 35 5 35 15 0 10 11 15 35 15 19 0 35 -4 35 -8
0 -5 18 -17 40 -28 36 -17 40 -23 40 -56 0 -39 9 -45 44 -32 10 4 16 18 16 40
0 31 3 34 30 34 28 0 30 -2 30 -40 l0 -40 48 0 c30 0 42 3 34 9 -11 6 -6 14
19 32 18 12 29 16 24 8 -7 -10 -2 -9 18 3 14 10 37 18 49 18 35 0 71 85 76
177 5 79 10 84 82 81 30 -1 31 -2 8 -5 -25 -4 -28 -8 -28 -44 0 -35 3 -39 25
-39 23 0 25 -4 25 -40 0 -40 0 -40 38 -40 20 0 42 4 48 8 9 5 24 85 28 155 1
4 7 11 14 16 10 6 10 10 -3 21 -23 19 -194 18 -207 -1 -7 -11 -11 -11 -15 -1
-14 36 -30 39 -200 39 -117 1 -185 -3 -223 -13 -31 -8 -98 -15 -151 -14 -52 0
-142 -6 -200 -14 -57 -7 -122 -11 -143 -8 -22 2 -85 -1 -142 -8 -79 -9 -111
-9 -138 0 -24 7 -119 11 -283 10 -223 -1 -332 -4 -573 -14 -41 -2 -96 -10
-122 -18 -33 -11 -50 -12 -57 -5 -7 7 -57 10 -133 9 -68 -1 -185 -3 -262 -3
-108 0 -143 -3 -162 -16 -22 -14 -24 -14 -30 1 -5 12 -20 16 -63 16 -62 0
-137 32 -147 63 -3 9 -10 17 -16 17 -13 0 -4 150 9 159 5 3 17 32 27 63 17 55
15 98 -5 98 -12 0 -12 53 1 66 15 15 16 120 2 136 -8 10 -8 33 -2 78 5 36 10
110 10 165 0 55 4 116 10 135 5 18 10 66 11 104 2 69 14 116 31 116 4 0 8 8 8
18 0 20 73 59 78 42 6 -16 71 -11 103 7 23 14 29 24 29 53 0 41 -26 84 -46 76
-17 -6 -84 21 -84 34 0 6 -6 10 -13 10 -8 0 -22 18 -33 40 -10 22 -22 40 -26
40 -5 0 -8 7 -8 15 0 8 5 15 10 15 6 0 10 8 10 18 0 20 24 45 52 55 9 3 62 11
118 17 101 11 103 11 156 -15 30 -15 54 -33 54 -40 0 -8 18 -19 40 -25 22 -6
40 -17 40 -24 0 -9 15 -15 40 -18 42 -4 58 15 20 25 -10 3 -22 16 -25 30 -9
35 41 106 75 107 14 0 34 7 44 15 17 13 23 11 56 -15 34 -27 40 -28 73 -18 24
7 38 18 39 30 0 10 1 23 2 30 1 12 -27 20 -116 33 -48 6 -48 6 -48 46 0 39 0
39 40 39 l40 0 0 40 0 40 -40 0 c-29 0 -40 4 -40 15 0 11 -11 15 -40 15 -22 0
-40 5 -40 10 0 6 18 10 40 10 22 0 40 -4 40 -10 0 -5 18 -10 40 -10 29 0 40
-4 40 -15 0 -11 11 -15 40 -15 30 0 40 4 40 16 0 20 45 64 66 64 7 0 14 -9 14
-21 0 -17 4 -19 23 -13 12 4 31 13 42 20 19 14 19 14 -3 14 -27 0 -29 20 -2
27 13 3 20 14 20 29 0 16 6 24 18 24 9 0 22 10 27 22 14 31 35 35 35 6 0 -17
11 -31 40 -48 22 -14 40 -29 40 -33 0 -5 14 1 30 13 17 12 28 26 25 31 -4 5
-1 9 4 9 6 0 11 19 11 43 0 26 3 37 9 29 6 -9 26 5 74 52 62 63 87 78 87 56 0
-15 61 -80 71 -75 4 3 9 0 11 -7 3 -8 38 -12 119 -11 144 0 199 19 199 67 0
19 9 38 24 51 20 17 22 27 19 68 -5 42 -8 47 -29 47 -22 0 -24 4 -23 43 1 33
2 37 8 17 l7 -24 20 20 c28 28 54 37 54 20 0 -11 8 -12 33 -6 72 19 127 27
127 19 0 -5 25 -9 54 -9 44 0 60 -5 80 -24 15 -13 26 -31 26 -40 0 -12 10 -16
40 -16 l40 0 0 40 c0 31 -4 40 -17 40 -18 1 -63 61 -63 84 0 6 -6 18 -12 24
-10 10 -8 14 8 18 12 3 31 19 43 35 17 22 30 29 56 29 70 0 66 37 -30 235 -24
49 -72 153 -105 230 -34 77 -81 183 -105 235 -23 52 -88 201 -145 330 -56 129
-120 273 -141 318 -21 46 -39 86 -39 89 0 6 -10 27 -69 156 -23 49 -41 90 -41
93 0 3 -11 29 -24 57 -51 110 -86 189 -86 192 0 2 -13 32 -29 67 -16 35 -41
92 -56 128 -14 36 -32 79 -40 95 -7 17 -41 95 -75 175 -34 80 -73 170 -87 200
-14 30 -34 78 -44 105 -11 28 -24 59 -30 71 -6 12 -9 31 -7 44 4 27 22 35 303
116 623 181 756 224 690 224 -18 0 -20 6 -17 73 4 78 -18 163 -61 241 -26 46
-71 96 -86 96 -6 0 -11 6 -11 13 0 34 -144 46 -305 25z m-735 -4148 c0 -35 -4
-50 -13 -50 -8 0 -20 -18 -27 -40 -13 -39 -40 -55 -40 -24 0 22 -46 64 -71 64
-16 0 -19 7 -19 40 l0 40 45 0 c25 0 45 5 45 10 0 6 18 10 40 10 l40 0 0 -50z
m601 -2502 c19 -6 40 -17 47 -24 14 -15 17 -84 3 -84 -6 0 -11 -19 -13 -42 -4
-57 -38 -81 -118 -83 -43 -1 -64 3 -73 13 -6 8 -11 16 -9 16 8 2 -18 54 -28
58 -6 2 -14 29 -17 61 -5 46 -3 57 9 57 8 0 23 9 33 20 14 16 31 20 75 20 31
0 72 -5 91 -12z m519 -18 c0 -5 10 -10 23 -10 13 0 28 -5 35 -12 6 -6 37 -15
68 -19 33 -4 65 -16 78 -27 11 -11 31 -23 44 -27 17 -5 22 -14 22 -41 0 -24
-5 -34 -15 -34 -8 0 -15 -5 -15 -12 0 -9 -3 -9 -12 0 -7 7 -25 12 -40 12 -15
0 -28 5 -28 10 0 6 -18 10 -40 10 -22 0 -40 -4 -40 -10 0 -5 -13 -10 -29 -10
-44 0 -53 -18 -45 -94 l7 -66 -32 0 c-34 0 -40 13 -16 36 30 30 18 44 -37 44
-32 0 -48 4 -40 9 10 6 10 10 -2 20 -8 7 -20 10 -26 6 -6 -4 -9 -1 -8 6 2 8
-8 13 -26 13 -39 1 -44 22 -7 29 25 5 30 12 33 39 2 27 8 35 36 43 20 5 32 16
32 26 0 9 7 19 15 23 8 3 15 10 15 16 0 5 -7 10 -15 10 -8 0 -15 5 -15 10 0 6
18 10 40 10 22 0 40 -4 40 -10z m255 -420 c-4 -6 7 -10 27 -10 18 0 50 -9 70
-19 19 -11 39 -17 42 -14 3 4 6 -6 6 -22 0 -16 -3 -26 -6 -22 -7 7 -61 -19
-81 -38 -6 -7 -9 -15 -6 -19 4 -3 -10 -6 -30 -6 -26 0 -37 -4 -37 -15 0 -11
-11 -15 -40 -15 -29 0 -40 4 -40 15 0 11 -11 15 -39 15 -23 0 -41 5 -44 13 -3
8 -22 22 -42 31 -51 25 -43 37 57 80 20 9 40 21 43 26 3 6 33 10 66 10 38 0
58 -4 54 -10z m-1533 -27 c2 -5 24 -18 50 -31 33 -16 49 -31 57 -54 8 -23 8
-34 0 -38 -6 -4 -11 -11 -12 -16 -1 -5 -5 -8 -9 -7 -5 2 -8 -2 -8 -7 0 -17
-39 -50 -60 -50 -11 0 -20 -4 -20 -10 0 -5 -18 -10 -40 -10 -22 0 -40 5 -40
10 0 6 -11 10 -25 10 -15 0 -25 6 -25 15 0 13 -43 29 -110 42 -30 5 -40 14
-22 20 7 3 13 23 13 46 1 23 3 34 6 24 6 -22 43 -17 81 11 50 36 88 52 124 52
20 0 38 -3 40 -7z"/>
<path d="M4901 7558 c-1 -4 22 -56 50 -115 109 -231 104 -215 83 -231 -18 -13
-18 -14 4 -7 21 6 28 -5 98 -152 41 -87 80 -166 85 -177 6 -10 7 -22 2 -26 -4
-4 -85 -35 -179 -68 -93 -34 -213 -76 -265 -96 -192 -70 -352 -126 -363 -126
-7 0 -31 39 -54 88 -75 160 -122 264 -122 272 0 4 15 12 33 18 31 11 31 11 2
6 -16 -3 -33 -6 -38 -7 -13 -3 -174 349 -165 359 3 2 80 30 172 61 92 30 165
57 163 59 -4 4 -429 -136 -437 -144 -5 -5 38 4 64 14 13 5 24 -11 52 -72 20
-44 56 -121 80 -172 24 -51 44 -99 44 -106 0 -8 -46 -28 -115 -51 -64 -21
-114 -39 -112 -42 3 -2 53 12 111 31 58 20 112 36 119 36 7 0 30 -35 50 -77
109 -234 127 -274 127 -278 0 -6 -147 -60 -245 -90 -49 -15 -85 -29 -80 -32 6
-2 78 20 160 48 83 29 193 66 245 84 52 18 151 53 220 78 69 25 190 68 270 96
80 29 161 58 180 66 19 7 68 26 108 40 40 15 71 29 69 31 -2 3 -16 0 -31 -6
-15 -5 -31 -10 -35 -10 -13 0 -173 340 -167 355 3 8 0 15 -7 15 -7 0 -50 75
-94 168 -45 92 -82 164 -82 160z"/>
<path d="M9040 7214 c0 -3 12 -21 26 -40 23 -29 24 -35 10 -40 -9 -3 -23 -1
-30 6 -12 9 -18 6 -32 -15 -14 -21 -23 -26 -45 -21 -21 4 -31 0 -43 -19 -13
-20 -22 -23 -49 -18 -28 4 -36 1 -50 -21 -9 -14 -46 -40 -82 -57 -62 -31 -90
-59 -60 -59 8 0 15 -4 15 -9 0 -12 -56 -24 -71 -15 -7 4 -10 1 -7 -7 3 -8 20
-15 41 -16 40 -2 63 22 54 57 -5 18 3 22 143 80 30 13 62 29 71 37 8 7 22 13
30 13 8 0 23 6 34 14 11 7 38 19 60 26 55 17 61 25 36 51 -11 12 -23 31 -27
41 -5 16 -24 26 -24 12z"/>
<path d="M3705 7189 c-174 -58 -655 -210 -723 -230 -23 -7 -40 -14 -38 -16 2
-3 57 11 122 31 64 20 121 36 126 36 5 0 21 -26 35 -57 37 -85 57 -129 97
-216 20 -42 36 -81 36 -85 0 -4 -60 -26 -132 -49 -247 -77 -523 -161 -600
-184 -43 -13 -78 -27 -78 -32 0 -4 4 -6 9 -3 4 3 84 28 177 56 93 29 248 76
344 107 96 30 200 63 232 73 l56 17 35 -76 c19 -42 56 -121 81 -177 25 -55 46
-105 46 -111 0 -5 -53 -27 -117 -47 -65 -21 -129 -41 -143 -46 -29 -10 -294
-93 -460 -144 -64 -20 -121 -36 -128 -36 -7 0 -22 21 -34 48 -11 26 -28 65
-38 87 -10 22 -37 83 -60 135 -23 52 -52 118 -65 145 -84 182 -144 328 -140
335 3 4 17 11 32 15 67 16 164 48 159 52 -3 4 -206 -54 -214 -62 -1 -1 13 -35
32 -76 19 -41 78 -173 131 -294 54 -121 106 -238 117 -260 11 -22 28 -64 40
-93 17 -46 23 -52 41 -46 12 3 56 17 97 30 169 53 601 188 685 214 199 62 586
192 582 196 -2 2 -114 -32 -248 -76 -134 -44 -245 -80 -247 -80 -2 0 -18 33
-36 73 -19 39 -48 104 -66 142 -18 39 -41 89 -51 112 l-18 42 55 20 c30 12 58
21 61 21 17 0 474 153 469 157 -2 3 -31 -4 -63 -16 -49 -17 -266 -87 -449
-144 -27 -9 -57 -19 -66 -22 -11 -5 -18 1 -24 17 -6 22 -17 46 -113 252 -23
49 -39 91 -36 95 4 3 45 17 93 32 188 58 358 111 377 119 11 5 37 14 58 20 20
6 37 13 37 16 0 6 -11 4 -75 -17z"/>
<path d="M7940 6514 c0 -3 12 -20 26 -36 18 -22 22 -34 15 -41 -8 -8 -15 -7
-23 1 -20 20 -35 14 -78 -29 -22 -22 -46 -39 -53 -36 -6 2 -17 -3 -24 -12 -10
-14 -13 -14 -30 2 -11 9 -25 17 -31 17 -16 0 -15 -40 1 -40 6 0 4 -5 -6 -11
-10 -6 -35 -8 -55 -5 -20 4 -44 2 -52 -4 -12 -7 -8 -10 15 -10 38 0 24 -13
-41 -38 -32 -13 -56 -17 -64 -12 -9 6 -18 4 -23 -3 -5 -7 -6 -3 -2 11 9 31 -7
28 -22 -5 -15 -32 -11 -38 15 -24 10 5 28 8 40 5 18 -5 95 25 347 136 11 5 41
18 68 29 26 11 47 22 47 26 0 11 -53 85 -61 85 -5 0 -9 -3 -9 -6z"/>
<path d="M7690 4489 c-41 -16 -99 -41 -128 -54 -29 -14 -55 -25 -57 -25 -7 0
-348 -140 -367 -150 -10 -6 -23 -10 -30 -10 -7 0 -53 -18 -102 -40 -88 -39
-106 -42 -106 -15 0 77 -105 122 -257 110 -46 -4 -83 -11 -83 -17 0 -6 10 -8
24 -4 14 3 63 6 109 7 130 1 197 -36 197 -110 0 -18 -1 -19 -251 -135 -145
-68 -235 -123 -301 -184 -53 -49 -28 -43 35 8 39 33 121 81 222 130 210 102
276 132 282 126 23 -22 -93 -146 -211 -225 -111 -75 -270 -150 -334 -158 l-53
-6 7 28 c5 21 4 27 -7 23 -8 -3 -14 -16 -14 -29 0 -21 5 -24 39 -27 36 -3 155
28 181 48 6 4 46 26 90 50 144 77 263 182 310 271 21 41 32 50 107 84 46 21
171 73 278 116 240 96 499 204 507 213 11 11 -11 5 -87 -25z"/>
<path d="M5598 4489 c-48 -11 -137 -56 -209 -106 -65 -44 -119 -89 -119 -98 0
-3 21 11 48 33 61 51 189 125 202 117 12 -8 55 -92 76 -149 14 -38 14 -40 -13
-70 l-28 -30 29 18 c34 21 48 12 50 -33 1 -17 2 -31 4 -31 11 0 52 27 79 53
30 28 35 30 68 20 40 -13 48 1 11 18 l-24 11 25 55 c33 71 26 113 -27 165 -34
34 -43 38 -86 37 -27 -1 -66 -5 -86 -10z m124 -9 c25 0 78 -77 78 -113 0 -16
-10 -49 -22 -73 l-22 -44 -58 0 c-32 0 -61 0 -65 0 -5 0 -23 35 -41 78 -18 42
-38 85 -43 96 -8 14 -7 22 3 32 15 15 104 34 133 28 11 -2 28 -4 37 -4z"/>
<path d="M6506 4311 c-4 -5 0 -11 6 -14 7 -2 10 -7 6 -11 -3 -4 -15 -2 -26 5
-18 11 -24 10 -40 -4 -10 -9 -26 -17 -35 -17 -9 0 -19 -4 -22 -10 -3 -5 -14
-10 -24 -10 -45 0 -399 -126 -426 -152 -6 -6 -1 -6 15 0 14 5 79 30 146 56
132 50 139 52 127 34 -11 -19 -12 -38 -2 -38 5 0 9 8 10 18 0 10 2 12 6 4 3
-7 2 -20 -1 -28 -5 -13 -10 -12 -36 6 -26 19 -31 19 -36 6 -3 -9 -3 -28 1 -44
6 -25 8 -26 20 -9 7 10 19 17 27 16 19 -4 58 11 58 22 0 5 -6 9 -12 9 -7 1 -2
9 11 20 23 19 41 19 41 -1 0 -6 -4 -7 -10 -4 -5 3 -10 1 -10 -5 0 -21 24 -4
31 21 4 13 7 18 8 11 1 -8 10 -12 24 -10 17 2 21 9 19 31 -1 15 2 27 8 27 5 0
10 -10 10 -22 0 -17 3 -19 12 -10 7 7 21 12 31 12 16 0 17 2 7 15 -7 9 -10 18
-6 22 3 4 12 -2 20 -12 12 -16 16 -17 30 -6 9 7 13 18 9 24 -4 6 4 8 21 5 28
-6 32 2 16 33 -11 20 -25 25 -34 10z"/>
<path d="M2987 3696 c-14 -20 -14 -26 -2 -42 8 -11 15 -26 15 -35 0 -8 9 -25
20 -37 21 -23 27 -58 10 -64 -6 -2 -13 -55 -17 -121 -5 -105 -4 -117 10 -117
10 0 17 -7 17 -16 0 -9 7 -14 18 -12 10 2 16 12 15 23 -1 11 11 36 27 56 19
24 29 49 30 75 3 54 1 61 -9 45 -6 -9 -8 5 -6 39 2 29 9 58 15 64 5 5 10 16
10 24 0 23 -63 110 -76 105 -7 -2 -15 5 -19 16 -9 28 -39 27 -58 -3z"/>
<path d="M5412 3070 c-18 -16 -36 -30 -42 -30 -13 0 -13 -17 0 -25 6 -3 10
-14 10 -23 0 -9 11 -44 25 -77 l24 -60 -31 -13 c-17 -8 -75 -25 -127 -38 -282
-73 -369 -97 -396 -109 l-30 -14 41 6 c35 4 53 -1 113 -32 84 -44 186 -136
178 -159 -4 -9 -3 -16 2 -16 10 0 33 -49 26 -59 -2 -5 4 -32 15 -60 15 -42 17
-58 8 -79 -11 -28 -12 -77 -2 -124 4 -21 2 -28 -10 -28 -10 0 -16 -9 -16 -25
0 -14 -4 -25 -10 -25 -5 0 -10 -18 -10 -40 0 -27 -4 -40 -14 -40 -7 0 -16 -8
-19 -17 -2 -10 -26 -29 -53 -43 -27 -13 -51 -28 -54 -31 -3 -4 -21 -11 -40
-17 -33 -8 -30 -9 40 -16 82 -8 165 -28 220 -53 54 -25 110 -65 105 -74 -8
-12 5 -57 18 -62 7 -2 4 -3 -5 -2 -31 5 -49 -17 -42 -53 7 -32 24 -45 24 -17
0 23 13 18 54 -20 21 -19 44 -35 50 -35 6 0 24 -12 39 -25 20 -18 26 -31 22
-44 -7 -24 15 -78 47 -111 39 -42 68 -87 68 -108 0 -11 8 -22 18 -25 9 -3 62
-23 117 -43 128 -47 158 -50 307 -29 200 28 185 28 190 3 7 -38 -1 -52 -48
-82 -31 -19 -59 -29 -85 -29 -57 0 -49 -18 24 -55 77 -39 98 -44 166 -34 l54
7 23 72 c12 39 28 82 35 95 7 12 14 36 16 53 l3 30 -58 -3 c-53 -2 -56 -2 -37
13 11 9 30 25 43 35 30 27 42 25 42 -6 0 -14 4 -23 10 -19 6 3 10 17 10 31 0
14 4 23 9 20 12 -8 21 18 21 57 0 49 11 79 26 73 8 -3 13 -2 12 2 -1 4 2 20 7
36 6 23 4 32 -9 42 -17 12 -16 13 3 24 12 6 21 17 21 25 0 8 8 19 18 24 13 8
7 10 -30 11 -27 0 -48 3 -48 6 0 3 10 19 21 36 16 22 19 32 10 38 -7 4 -11 22
-10 42 2 23 -4 44 -19 65 -25 35 -27 50 -10 55 9 3 9 6 0 12 -7 4 -12 2 -12
-3 0 -6 -4 -11 -10 -11 -5 0 -10 18 -10 40 0 33 -3 40 -19 40 -11 0 -23 9 -26
20 -4 11 -10 18 -15 15 -4 -3 -11 2 -14 11 -10 26 -7 34 14 34 26 0 25 15 -2
42 -14 14 -23 38 -26 70 -2 26 -8 48 -12 48 -11 0 -23 68 -21 118 2 24 -2 42
-8 42 -6 0 -11 -8 -11 -17 -1 -17 -1 -17 -14 0 -7 9 -18 17 -25 17 -6 0 -11
17 -11 40 0 22 -5 40 -10 40 -17 0 28 78 47 83 15 4 14 5 -3 6 -14 1 -24 10
-28 26 -4 14 -13 25 -21 25 -8 0 -15 5 -15 10 0 6 -6 10 -13 10 -13 0 -37 53
-37 84 0 9 -7 19 -15 22 -8 4 -15 11 -15 18 0 6 -13 17 -30 23 -16 6 -30 17
-30 23 0 6 26 23 59 38 l58 26 -25 23 c-14 13 -30 23 -37 23 -7 0 -18 7 -25
16 -11 13 -10 16 9 21 21 5 21 6 -9 24 -26 16 -29 22 -20 39 8 16 8 20 -4 20
-8 0 -21 3 -30 6 -12 4 -16 0 -16 -15 0 -12 -4 -21 -10 -21 -19 0 -10 38 15
61 25 25 33 49 15 49 -17 0 -80 -44 -80 -56 0 -14 -23 -24 -56 -24 -15 0 -24
-6 -24 -16 0 -15 -2 -15 -24 -1 -17 12 -38 14 -80 10 -31 -3 -56 -10 -56 -14
0 -12 -72 -11 -90 1 -12 8 -13 12 -2 19 10 6 1 14 -30 29 -45 21 -66 39 -66
57 0 8 -104 55 -123 55 -3 0 -20 -13 -37 -30z"/>
<path d="M8420 2630 c0 -5 7 -10 16 -10 18 0 44 -23 44 -39 0 -6 -13 -11 -30
-11 -20 0 -30 5 -30 15 0 8 -4 15 -10 15 -6 0 -10 -27 -10 -60 l0 -60 81 0 81
0 -4 40 c-3 33 -1 39 12 35 12 -5 13 -4 3 6 -7 7 -13 28 -13 46 l0 33 -70 0
c-40 0 -70 -4 -70 -10z"/>
<path d="M4440 2576 c-63 -18 -147 -43 -186 -55 l-71 -22 -10 -52 c-6 -29 -24
-99 -41 -157 -64 -221 -92 -328 -92 -348 0 -12 -4 -22 -10 -22 -6 0 -10 -42
-10 -105 0 -58 -4 -105 -8 -105 -5 0 -8 -23 -8 -51 0 -28 -5 -53 -11 -57 -5
-4 -18 -23 -28 -42 -10 -19 -24 -39 -31 -43 -19 -11 -19 -143 0 -154 7 -4 23
-26 34 -48 l20 -41 -36 -24 c-45 -30 -72 -56 -72 -69 0 -6 -9 -16 -20 -23 -11
-7 -20 -18 -20 -25 0 -7 -4 -13 -10 -13 -5 0 -10 -18 -10 -40 0 -22 5 -40 10
-40 6 0 10 -9 10 -21 0 -24 37 -58 64 -59 10 0 25 -8 33 -17 10 -13 16 -15 19
-5 3 6 10 10 15 6 14 -8 11 -96 -11 -265 -23 -179 -22 -329 5 -482 16 -93 16
-154 0 -94 -5 17 -12 26 -21 23 -7 -3 -14 4 -17 17 l-4 22 -2 -22 c-1 -19 -4
-21 -25 -13 -16 6 -69 3 -153 -7 -139 -17 -133 -16 -181 -7 -43 8 -52 32 -57
147 -2 49 -9 95 -15 102 -7 9 -10 49 -9 107 3 124 0 209 -12 293 -7 48 -6 99
2 167 l12 98 -32 31 c-34 33 -61 84 -61 119 0 11 -7 20 -15 20 -14 0 -20 32
-18 88 1 7 -10 20 -23 29 -20 13 -24 23 -24 69 0 41 -4 54 -15 54 -11 0 -15
12 -15 43 -1 42 -18 77 -39 77 -6 0 -11 6 -11 14 0 8 -7 16 -15 20 -12 4 -15
-3 -15 -34 0 -40 0 -40 -40 -40 l-40 0 0 -40 c0 -39 1 -40 34 -40 19 0 37 -6
39 -12 4 -10 6 -10 6 0 1 6 8 12 16 12 11 0 15 -12 15 -46 0 -27 -6 -51 -15
-60 -17 -18 -20 -54 -4 -54 11 0 9 -33 -7 -122 -5 -34 -4 -38 15 -38 20 0 21
-5 22 -107 1 -60 4 -153 8 -208 8 -105 5 -114 -45 -143 -20 -12 -3 -85 24 -97
20 -9 22 -17 22 -87 0 -82 -2 -78 59 -126 21 -16 24 -29 28 -105 5 -75 3 -87
-11 -87 -12 0 -16 -10 -16 -43 0 -24 -7 -52 -15 -63 -14 -18 -14 -18 -15 0 0
17 -6 18 -55 13 -30 -3 -57 -1 -60 4 -11 16 -108 10 -163 -11 l-53 -20 -30 32
c-25 28 -31 31 -39 18 -7 -10 -13 -11 -17 -5 -5 6 -20 16 -35 22 l-28 13 0
-60 0 -60 2169 0 2168 0 7 62 c8 79 8 90 -3 107 -15 23 -41 -11 -41 -53 0 -33
-3 -36 -28 -36 -21 0 -32 7 -40 25 -17 38 -15 55 8 55 17 0 20 7 20 40 0 40
-13 53 -24 25 -3 -8 -9 -14 -13 -14 -18 4 -43 -14 -43 -31 0 -10 -5 -20 -10
-22 -7 -2 -6 -15 2 -37 10 -27 10 -35 1 -38 -30 -10 -10 -25 27 -21 32 3 40 0
40 -13 0 -26 -99 -17 -122 11 -9 11 -21 20 -27 20 -6 0 -11 9 -11 20 0 12 -10
24 -24 30 -13 5 -27 14 -31 19 -3 6 -17 11 -31 11 -21 0 -24 4 -24 39 0 31 -4
40 -21 44 -14 4 -22 0 -28 -15 -6 -18 -8 -18 -20 -4 -11 14 -11 16 4 16 33 0
8 25 -28 28 -29 3 -37 7 -37 23 0 16 8 19 43 20 23 1 45 1 48 1 4 -1 7 37 8
84 1 58 -1 84 -8 79 -6 -3 -11 -39 -11 -81 l0 -74 -40 0 c-36 0 -40 3 -40 24
0 14 -4 28 -10 31 -21 13 -9 25 25 25 72 0 28 41 -54 51 -44 5 -63 2 -91 -13
-25 -13 -56 -18 -112 -18 l-78 0 0 -30 c0 -27 -2 -29 -28 -24 -19 4 -34 -1
-51 -15 -32 -28 -65 -28 -58 -1 3 13 0 20 -9 20 -8 0 -14 -10 -14 -25 0 -22
-4 -25 -36 -25 -20 0 -55 5 -77 12 -32 10 -41 10 -45 0 -2 -7 -11 -12 -20 -12
-15 1 -15 2 1 11 9 5 17 17 17 24 0 18 -2 18 47 1 44 -15 82 -5 53 14 -28 18
-92 32 -99 21 -4 -6 -12 -7 -21 -1 -8 6 -23 10 -33 10 -16 0 -47 22 -47 33 0
2 27 3 60 3 33 -1 60 2 60 6 0 4 -4 8 -10 8 -5 0 -10 6 -10 14 0 19 -45 26
-87 14 -40 -11 -71 5 -34 17 12 3 21 12 21 20 0 7 9 15 20 18 21 5 29 51 10
62 -5 3 -10 -3 -10 -14 0 -14 -6 -21 -19 -21 -19 0 -51 -37 -65 -74 -6 -18
-32 -19 -78 -1 -13 5 -18 2 -18 -9 0 -10 8 -16 22 -16 17 0 19 -3 10 -12 -10
-10 -17 -10 -32 0 -24 15 -57 16 -62 2 -5 -15 -70 9 -86 32 -14 19 -47 24 -57
8 -3 -5 -20 -10 -36 -10 -17 0 -37 -6 -45 -14 -8 -8 -23 -12 -36 -9 -22 5 -22
5 -3 -10 16 -12 17 -18 7 -30 -15 -18 -148 -23 -168 -6 -8 6 -23 9 -34 6 -13
-3 -20 0 -20 9 0 10 -12 14 -39 14 -26 0 -41 5 -45 16 -9 23 -7 31 4 14 7 -12
12 -12 22 -2 15 15 43 15 67 0 11 -7 26 -8 37 -3 16 8 14 10 -13 13 -37 4 -40
9 -15 28 16 12 16 14 0 31 -11 10 -18 13 -18 5 0 -7 -15 -12 -39 -12 -29 0
-40 -5 -43 -16 -2 -14 -10 -11 -37 15 -18 17 -42 31 -52 31 -23 0 -25 -15 -4
-24 21 -8 19 -26 -4 -26 -10 0 -26 11 -35 25 -15 22 -55 38 -42 16 8 -12 -21
-34 -34 -26 -6 4 -9 13 -6 21 3 8 -1 14 -9 14 -8 0 -15 7 -15 15 0 11 -11 15
-40 15 -28 0 -40 -4 -40 -14 0 -8 6 -16 13 -19 6 -2 2 -3 -9 -1 -24 4 -84 56
-84 73 0 5 -26 12 -57 13 -53 4 -55 5 -26 12 32 8 61 32 51 42 -3 2 -18 6 -34
8 -61 9 -67 15 -62 68 4 40 2 51 -13 58 -12 7 -19 6 -22 -3 -2 -6 -19 13 -38
43 l-34 55 -5 -37 c-3 -23 -9 -35 -15 -30 -16 11 -46 82 -40 93 4 5 -1 9 -9 9
-12 0 -16 10 -16 40 0 29 -4 40 -15 40 -20 0 -59 77 -42 83 9 3 7 13 -6 37
-14 27 -15 35 -5 42 10 8 10 11 1 15 -7 2 -13 18 -13 34 0 27 -2 29 -40 29
l-40 0 -1 -42 -2 -43 -7 50 c-18 115 -7 277 14 208 3 -10 3 17 0 60 -4 59 -11
84 -25 98 -13 13 -19 33 -19 63 0 71 -12 166 -21 166 -5 0 -9 -19 -9 -42 0
-54 -6 -46 -13 16 -3 30 -1 43 4 35 6 -9 9 1 9 31 0 34 -3 41 -11 30 -8 -12
-9 -11 -5 5 3 11 8 52 11 90 4 39 13 84 21 100 7 17 21 53 30 80 9 28 25 62
35 77 11 14 19 33 19 41 0 17 40 77 80 120 17 18 30 37 30 42 1 16 106 96 158
121 65 31 37 28 -98 -10z"/>
<path d="M8240 2291 c0 -5 -36 -12 -80 -16 l-81 -7 7 -36 c4 -20 14 -44 24
-54 25 -27 147 -41 250 -28 47 6 113 9 146 7 54 -4 61 -2 57 13 -3 10 -22 23
-44 30 -21 7 -39 19 -39 27 0 8 -12 13 -35 13 -20 0 -60 13 -92 30 -54 29
-113 40 -113 21z"/>
<path d="M8853 2193 c-19 -7 -16 -27 7 -48 11 -10 20 -29 20 -42 0 -12 5 -23
10 -23 6 0 10 -15 10 -34 0 -19 5 -38 10 -41 6 -3 10 -31 10 -61 0 -75 26
-118 90 -144 17 -7 30 -19 30 -26 0 -8 6 -14 14 -14 9 0 15 15 18 47 3 42 0
51 -33 90 -21 23 -40 56 -44 73 -4 16 -12 30 -19 30 -16 0 -38 68 -25 76 5 3
9 25 9 48 0 40 -3 45 -34 60 -35 16 -51 18 -73 9z"/>
<path d="M6955 1817 c-6 -12 -19 -22 -30 -22 -11 0 -21 -8 -23 -18 -2 -9 -12
-17 -23 -17 -10 0 -19 -5 -19 -11 0 -8 -4 -8 -15 1 -12 10 -15 7 -21 -14 -7
-30 3 -49 22 -42 8 3 14 1 14 -4 0 -11 -17 -14 -72 -11 -38 2 -38 2 -38 -38 0
-23 5 -41 10 -41 6 0 10 -18 10 -40 0 -38 2 -40 30 -40 28 0 30 -2 30 -40 0
-36 3 -40 25 -40 16 0 25 -6 25 -15 0 -9 11 -21 25 -27 14 -6 25 -17 25 -25 0
-7 6 -13 14 -13 8 0 16 -5 18 -11 5 -15 48 -2 45 14 -3 17 104 22 114 5 13
-20 22 -2 10 20 -20 37 -14 55 15 48 16 -4 23 -3 20 3 -4 5 3 12 14 16 11 3
20 15 20 26 0 10 -1 19 -2 19 -16 1 -78 29 -65 30 21 0 23 30 2 30 -9 0 -15 9
-15 21 0 16 4 19 17 15 14 -6 14 -4 -2 14 -16 18 -17 23 -5 31 8 5 21 7 28 4
7 -3 15 2 19 11 8 20 -6 32 -17 14 -7 -12 -15 -11 -47 6 -42 22 -43 40 0 38
15 -1 27 2 27 6 0 11 -28 20 -44 14 -7 -3 -20 2 -29 10 -12 13 -21 14 -43 6
-31 -12 -37 -9 -41 25 -2 14 -7 34 -11 45 -7 19 -8 19 -17 -3z"/>
<path d="M8298 1812 c-37 -17 -58 -32 -58 -43 0 -9 18 -35 40 -57 22 -22 40
-42 40 -46 0 -10 53 -66 62 -66 5 0 23 -13 41 -30 18 -16 36 -30 41 -30 18 0
35 36 36 77 0 50 -20 143 -32 143 -4 0 -8 6 -8 13 0 22 -55 67 -81 66 -13 0
-50 -12 -81 -27z"/>
<path d="M9260 426 c0 -8 4 -17 9 -20 11 -7 30 -87 34 -141 3 -50 27 -105 46
-105 11 0 13 -12 8 -57 -3 -32 -2 -49 3 -38 6 17 8 16 14 -12 4 -18 5 -37 1
-43 -3 -5 1 -10 9 -10 9 0 18 16 24 43 7 31 10 35 11 15 2 -43 12 -58 37 -58
13 0 24 4 24 9 0 19 -23 71 -31 71 -5 0 -9 10 -9 23 0 15 -3 18 -9 9 -5 -9
-12 5 -19 40 -6 29 -14 61 -17 71 -6 14 -1 17 34 17 28 0 41 4 41 14 0 9 -13
13 -37 14 -57 0 -66 4 -89 39 -11 18 -27 40 -36 50 -9 10 -19 33 -23 51 -7 32
-25 45 -25 18z"/>
<path d="M1695 370 c3 -5 1 -10 -4 -10 -6 0 -11 -9 -11 -20 0 -13 7 -20 20
-20 17 0 20 -7 20 -39 0 -35 3 -39 31 -45 17 -3 44 -6 59 -6 26 0 28 3 32 50
2 36 -1 50 -10 50 -7 0 -11 4 -8 9 3 4 -18 11 -46 14 -28 4 -56 11 -62 17 -13
13 -29 13 -21 0z"/>
<path d="M880 162 c0 -10 -11 -13 -40 -10 -24 2 -40 -1 -40 -7 0 -6 -16 -9
-40 -7 -39 4 -40 3 -40 -27 0 -20 -5 -31 -15 -31 -18 0 -65 -47 -65 -65 0 -12
21 -15 115 -15 l115 0 0 33 c0 25 -3 29 -11 17 -9 -12 -10 -12 -5 3 3 10 6 21
6 23 0 2 23 4 50 4 l50 0 0 48 0 47 -40 0 c-27 0 -40 -4 -40 -13z"/>
</g>
</svg>
