<?xml version="1.0" standalone="no"?>
<!DOCTYPE svg PUBLIC "-//W3C//DTD SVG 20010904//EN"
 "http://www.w3.org/TR/2001/REC-SVG-20010904/DTD/svg10.dtd">
<svg version="1.0" xmlns="http://www.w3.org/2000/svg"
 width="1944.000000pt" height="1296.000000pt" viewBox="0 0 1944.000000 1296.000000"
 preserveAspectRatio="xMidYMid meet">
<metadata>
Created by potrace 1.16, written by Peter Selinger 2001-2019
</metadata>
<g transform="translate(0.000000,1296.000000) scale(0.100000,-0.100000)"
fill="#000000" stroke="none">
<path d="M1790 12280 c0 -26 -63 -90 -88 -90 -24 0 -36 -37 -25 -77 l7 -28 7
30 c5 25 7 21 7 -20 0 -38 -2 -45 -8 -30 -7 14 -8 8 -3 -20 12 -81 96 -226
189 -332 37 -41 60 -48 50 -15 -7 20 10 50 21 39 4 -5 1 -12 -7 -17 -8 -5 -11
-12 -7 -17 19 -18 167 183 152 207 -4 6 -1 9 5 8 21 -5 65 141 65 217 0 47 -2
50 -27 53 -30 4 -75 50 -84 88 -6 24 -7 24 -130 24 -117 0 -124 -1 -124 -20z
m224 -45 c4 -15 26 -40 52 -58 41 -29 44 -34 43 -72 -1 -22 -5 -44 -9 -50 -15
-22 -40 -117 -34 -127 4 -7 3 -8 -4 -4 -7 4 -12 3 -12 -2 0 -14 -68 -112 -103
-150 l-31 -32 -32 31 c-23 22 -33 27 -38 17 -3 -7 -3 -3 -1 8 3 12 0 28 -8 35
-45 47 -107 197 -107 259 0 21 -4 42 -10 45 -5 3 -10 12 -10 18 0 7 4 6 10 -3
6 -10 10 -11 10 -2 0 6 6 12 13 12 19 1 66 46 77 75 9 24 12 25 99 25 87 0 89
-1 95 -25z"/>
<path d="M973 12243 c-13 -3 -20 -10 -17 -17 4 -10 -2 -12 -19 -9 -27 5 -88
-51 -108 -101 -7 -17 -17 -34 -23 -38 -5 -4 -10 -44 -10 -90 1 -120 44 -202
127 -240 65 -31 207 -18 257 23 l25 21 -27 -6 c-16 -4 -28 -2 -28 4 0 5 15 10
33 10 38 1 62 28 72 83 l7 37 -71 0 c-57 0 -71 -3 -71 -15 0 -9 -11 -27 -25
-40 -32 -33 -84 -33 -121 -1 -24 20 -28 32 -32 89 -2 36 1 81 8 101 25 78 120
114 168 63 12 -13 22 -31 22 -40 0 -14 11 -17 71 -17 68 0 70 1 63 22 -38 122
-99 169 -216 167 -34 -1 -73 -4 -85 -6z"/>
<path d="M610 12211 c0 -16 -6 -64 -14 -107 -8 -44 -20 -113 -27 -154 -17
-101 -23 -112 -62 -108 -31 3 -32 4 -31 51 l0 47 -63 0 c-59 0 -63 -2 -69 -25
-4 -14 -3 -44 0 -67 7 -45 41 -97 49 -76 4 8 6 7 6 -4 2 -37 153 -50 221 -18
39 17 80 93 82 148 1 26 4 52 7 57 3 6 15 72 27 148 l20 137 -57 0 c-52 0 -58
-2 -62 -22 l-4 -23 -2 23 c-2 33 -21 27 -21 -7z"/>
<path d="M1400 12212 c0 -15 -9 -73 -20 -129 -10 -57 -24 -140 -30 -185 -6
-46 -13 -100 -16 -120 l-6 -38 71 0 c80 0 71 -14 91 126 7 45 12 97 13 118 0
20 4 36 7 36 6 0 30 165 30 204 0 13 -13 16 -70 16 -70 0 -70 0 -70 -28z"/>
<path d="M3203 11123 c-60 -6 -72 -25 -35 -58 16 -14 49 -37 73 -50 39 -20 53
-22 118 -17 63 4 76 3 87 -12 12 -17 16 -17 83 6 78 26 94 43 59 69 -62 47
-247 77 -385 62z"/>
<path d="M15890 11093 c-76 -7 -206 -37 -222 -51 -27 -23 -22 -42 17 -58 19
-8 35 -20 35 -27 0 -17 80 -18 98 -1 18 18 129 19 135 2 4 -15 117 35 143 63
13 15 13 18 -1 33 -26 26 -132 46 -205 39z"/>
<path d="M106 9791 c-3 -5 1 -14 9 -21 17 -14 20 -46 5 -55 -5 -3 -7 0 -5 8 3
7 -4 22 -16 33 -24 20 -24 20 -3 -31 3 -8 1 -15 -5 -15 -6 0 -11 5 -11 11 0
15 -51 59 -67 59 -7 0 -13 -7 -13 -15 0 -8 7 -15 15 -15 21 0 40 -39 26 -53
-8 -8 -15 -5 -26 9 -13 17 -14 -101 -12 -1011 l2 -1030 35 2 c19 0 27 -1 18
-4 -10 -2 -18 -11 -18 -19 0 -8 -9 -14 -20 -14 -15 0 -20 -7 -20 -29 0 -25 4
-30 24 -28 13 1 33 12 44 25 16 18 21 20 31 8 9 -11 7 -15 -11 -21 l-23 -8 23
-4 c12 -2 20 -8 17 -13 -3 -5 -17 -6 -31 -4 -18 3 -31 -1 -40 -13 -12 -16 -15
-16 -24 -3 -7 11 -10 -7 -10 -62 0 -52 4 -78 12 -81 11 -4 11 -7 0 -18 -8 -9
-12 -50 -12 -131 0 -100 2 -118 16 -118 8 0 13 -4 10 -8 -3 -5 9 -6 26 -4 21
3 29 1 24 -7 -4 -6 -1 -11 8 -11 9 0 16 5 16 10 0 14 17 12 57 -6 42 -21 32
-33 -34 -40 -42 -5 -52 -3 -64 12 -14 19 -59 28 -59 12 0 -4 7 -8 15 -8 8 0
24 -9 35 -20 11 -11 27 -20 36 -20 8 0 12 -5 9 -11 -4 -6 -13 -8 -21 -5 -20 8
-17 0 8 -24 28 -26 42 -26 28 0 -17 33 5 23 34 -14 33 -43 33 -56 1 -56 -14 0
-25 -4 -25 -10 0 -5 6 -10 13 -10 14 0 41 -39 33 -48 -3 -3 -6 1 -6 9 0 12 -2
11 -10 -1 -9 -13 -12 -13 -23 1 -17 21 -45 30 -50 16 -4 -13 16 -37 31 -37 16
0 62 -41 57 -51 -4 -5 1 -9 10 -9 11 0 15 -5 11 -15 -3 -9 0 -15 9 -15 7 0 16
-4 19 -9 3 -4 -13 -5 -34 -1 -22 4 -43 3 -46 -1 -15 -25 -84 11 -84 43 0 4 -6
8 -13 8 -31 0 -36 -38 -36 -258 l0 -219 25 0 c27 0 35 34 9 43 -8 4 -15 11
-15 17 0 5 9 2 20 -8 17 -15 22 -16 36 -4 12 10 20 10 35 1 11 -7 24 -10 29
-7 13 8 13 -1 0 -25 -8 -15 -5 -19 16 -23 19 -3 24 -1 19 10 -3 10 -1 13 8 10
7 -3 21 1 31 9 22 15 49 64 36 64 -5 0 -15 10 -21 22 -10 18 -8 24 7 35 20 14
18 18 -14 27 -18 6 -22 3 -22 -13 0 -14 -5 -19 -16 -14 -13 5 -14 0 -9 -30 8
-41 -4 -52 -37 -34 l-25 12 23 20 22 19 -20 18 c-12 10 -27 18 -35 18 -7 0
-13 4 -13 9 0 5 9 7 20 4 11 -3 20 0 20 6 0 6 -9 11 -20 11 -11 0 -20 4 -20
10 0 5 28 7 67 5 54 -3 64 -2 48 7 -19 11 -19 11 0 19 14 5 0 9 -44 14 -49 6
-59 10 -46 18 9 5 32 7 51 4 37 -6 47 7 12 16 -12 4 -19 9 -16 13 9 9 117 10
120 2 2 -4 20 -5 40 -2 21 4 35 10 32 15 -3 5 4 9 15 9 12 0 21 -5 21 -12 0
-9 3 -9 11 -1 6 6 17 9 24 7 7 -3 29 2 50 10 20 9 41 13 46 10 5 -3 9 -1 9 4
0 19 43 52 68 52 15 0 36 7 46 15 12 9 42 15 73 15 57 0 63 5 36 26 -16 12
-15 13 10 14 15 0 27 5 27 10 0 6 7 10 16 10 23 0 41 23 38 48 -2 12 1 22 6
22 6 0 10 -5 10 -11 0 -7 10 -9 26 -5 19 5 25 3 21 -6 -2 -7 0 -21 5 -31 13
-25 3 -33 -17 -14 -18 18 -42 13 -42 -8 0 -8 3 -15 6 -16 3 0 18 -3 33 -5 14
-2 29 0 33 6 12 20 26 10 15 -10 -6 -11 -15 -18 -21 -15 -5 4 -9 2 -9 -4 0 -5
-9 -13 -20 -16 -11 -3 -20 -13 -20 -21 0 -8 -4 -14 -10 -14 -5 0 -10 7 -10 15
0 8 -5 15 -11 15 -6 0 -8 -7 -5 -16 3 -9 6 -20 6 -25 0 -5 9 -9 19 -9 11 0 22
-8 26 -19 8 -26 113 -37 135 -15 14 15 9 16 -42 11 -42 -4 -60 -1 -69 9 -15
18 -3 32 13 16 7 -7 19 -12 28 -11 9 0 10 2 3 5 -7 3 -9 12 -6 21 5 11 3 14
-6 8 -9 -5 -12 -2 -9 11 3 19 48 30 48 13 0 -5 5 -9 10 -9 6 0 9 3 8 8 -7 18
17 11 24 -7 6 -17 3 -21 -12 -21 -10 0 -22 -5 -25 -10 -4 -7 3 -8 22 -4 15 4
29 8 31 9 2 2 19 -1 39 -7 27 -7 38 -7 44 4 7 10 9 10 9 1 0 -7 10 -13 22 -13
19 0 20 2 6 18 -24 28 -29 52 -13 58 9 4 22 1 29 -5 10 -8 16 -9 21 -1 4 6 22
8 46 4 31 -5 39 -4 37 7 -4 17 -78 54 -87 42 -18 -25 -40 -34 -59 -24 -16 9
-21 7 -25 -9 -4 -15 -14 -20 -36 -20 -35 0 -50 22 -32 44 15 18 0 29 -36 24
-30 -3 -44 18 -16 25 11 3 6 5 -12 6 -16 1 -43 8 -60 15 -30 12 -29 13 32 19
34 4 69 4 78 1 10 -4 15 0 16 12 0 11 3 14 6 6 3 -9 16 -11 39 -6 19 3 42 3
51 -1 29 -12 57 -13 71 -3 18 15 15 28 -8 28 -11 0 -20 7 -20 15 0 8 -6 12
-15 9 -8 -3 -19 -3 -25 1 -20 12 22 33 68 33 46 1 47 0 30 -28 -7 -10 -10 -21
-8 -24 3 -2 33 -8 68 -12 46 -5 62 -3 62 6 0 7 -7 10 -15 6 -8 -3 -15 -1 -15
4 0 5 10 10 23 12 19 3 23 11 29 68 11 112 7 609 -6 617 -6 4 -37 10 -70 14
-32 4 -62 12 -66 18 -3 7 -14 9 -23 5 -9 -3 -14 -11 -11 -16 4 -6 -6 -2 -21 8
-23 15 -28 15 -36 3 -8 -12 -11 -12 -22 2 -9 12 -25 16 -54 14 -36 -3 -40 -1
-36 16 4 14 0 19 -17 19 -12 0 -38 8 -57 17 -31 14 -33 18 -17 24 10 3 26 3
34 -2 22 -11 147 -15 157 -5 4 5 -3 5 -17 1 -20 -6 -22 -5 -13 5 6 7 9 19 6
28 -5 10 -2 13 6 8 7 -5 20 -1 29 7 9 8 31 19 47 25 l30 10 -37 1 c-28 1 -38
-3 -38 -14 0 -8 -9 -15 -19 -15 -11 0 -35 -9 -53 -20 -22 -13 -38 -16 -48 -10
-8 5 -12 10 -10 12 3 2 18 11 35 20 41 23 42 37 6 44 -17 4 -34 11 -37 15 -3
5 -31 9 -62 9 -32 0 -65 7 -75 14 -16 13 -15 16 13 46 29 31 32 32 44 15 9
-13 22 -16 46 -13 30 4 31 4 15 -8 -17 -13 -17 -15 -1 -33 9 -10 37 -24 61
-31 35 -10 48 -10 72 2 16 8 26 21 24 29 -2 8 -3 28 -2 46 2 34 -19 53 -58 53
-12 0 -21 4 -21 8 0 5 26 9 58 8 67 0 123 27 100 50 -7 7 -28 14 -47 16 -23 2
-36 8 -39 21 -3 12 -11 17 -23 14 -17 -5 -24 4 -20 27 1 4 -2 13 -7 20 -5 6
-9 48 -10 93 -1 45 -6 92 -11 105 -10 25 -13 20 -26 -37 -5 -19 -9 -24 -12
-15 -3 8 -11 20 -18 26 -18 14 -30 64 -16 64 6 0 11 -9 11 -21 0 -11 5 -17 10
-14 6 4 7 13 2 21 -10 18 -3 76 8 69 4 -3 13 2 20 10 10 12 9 15 -4 15 -9 0
-17 5 -17 10 -1 6 -2 13 -3 18 0 4 -11 18 -24 32 -16 17 -25 21 -33 13 -8 -8
-5 -13 10 -18 12 -3 21 -14 22 -23 0 -9 2 -37 4 -61 3 -41 2 -43 -13 -28 -10
11 -15 30 -14 51 2 20 -3 38 -10 43 -8 4 -19 21 -26 37 -11 24 -15 27 -23 15
-8 -12 -11 -11 -20 4 -5 9 -19 17 -29 17 -10 0 -22 5 -25 10 -3 6 1 10 9 10
31 0 15 17 -16 18 -102 5 -109 7 -86 30 6 6 10 13 7 15 -2 2 -19 13 -37 24
l-34 20 40 0 c35 0 39 -2 34 -21 -5 -19 -4 -19 11 -7 9 7 17 19 17 27 0 7 14
15 33 17 l32 4 -32 1 c-18 1 -33 6 -33 11 0 5 -2 16 -5 23 -4 11 3 13 29 10
26 -3 33 -8 29 -20 -5 -12 -2 -14 18 -8 39 11 97 18 76 8 -12 -5 6 -8 49 -10
37 -1 70 -6 74 -12 3 -5 17 -10 31 -10 13 1 47 -1 74 -3 28 -3 37 -2 20 0 -16
2 -70 15 -120 28 -49 13 -113 26 -140 30 -76 10 -93 26 -23 23 31 -2 54 -6 51
-10 -2 -5 12 -8 31 -8 19 0 38 -4 41 -10 3 -5 41 -7 88 -5 49 3 72 1 57 -3
-21 -7 -15 -10 42 -21 37 -7 84 -10 107 -6 34 6 41 4 41 -9 0 -9 5 -16 10 -16
6 0 10 6 10 13 0 9 2 9 9 -1 10 -17 21 17 21 68 l0 36 -158 27 c-86 15 -209
38 -272 52 -142 31 -164 31 -184 3 -13 -18 -16 -19 -16 -5 0 11 -8 17 -21 17
-15 0 -19 5 -15 15 3 9 0 15 -9 15 -16 0 -18 12 -9 58 4 21 11 29 20 25 9 -3
12 0 9 8 -4 10 4 14 24 15 21 1 28 -3 24 -12 -4 -10 5 -14 30 -14 19 0 37 -5
39 -11 2 -7 40 -13 98 -15 56 -2 96 -8 101 -15 4 -7 17 -9 29 -6 12 3 30 2 39
-2 40 -20 92 -31 149 -31 36 0 62 -4 62 -10 0 -7 6 -7 20 0 17 9 21 7 27 -17
l7 -28 7 30 c4 17 7 55 8 85 l1 56 -262 53 c-453 93 -414 83 -404 107 5 12 21
26 35 32 l26 10 -28 1 c-16 1 -26 5 -22 11 4 6 11 8 16 4 5 -3 32 2 59 11 43
14 49 20 48 41 -1 13 -10 27 -20 30 -15 4 -15 8 -5 25 6 10 17 19 23 19 11 0
44 42 44 56 0 4 -20 4 -45 2 -25 -3 -45 -2 -45 2 0 5 11 22 25 38 29 35 25 42
-21 35 -25 -4 -34 -2 -34 8 0 8 -9 25 -20 39 l-20 25 0 -42 c0 -50 -13 -55
-35 -13 -9 18 -23 30 -35 30 -16 0 -20 -7 -20 -35 0 -35 -28 -63 -57 -57 -12
3 -18 -23 -14 -55 1 -7 -5 -13 -13 -13 -8 0 -16 -4 -18 -10 -1 -5 -22 -12 -45
-16 -41 -6 -43 -5 -43 19 0 14 -7 28 -16 31 -18 7 -70 -17 -77 -36 -3 -8 -6
-6 -6 5 -1 9 -7 17 -13 17 -9 0 -8 4 2 10 13 9 13 11 0 21 -12 8 -9 9 11 5 17
-4 41 3 70 18 24 14 59 32 76 42 18 10 33 21 33 25 0 13 -45 18 -85 9 -37 -8
-66 -3 -37 7 19 7 14 21 -10 25 -14 2 -24 12 -28 26 -5 24 -5 24 -23 4 -10
-11 -17 -26 -15 -34 1 -7 0 -14 -5 -15 -17 -6 -27 -2 -27 12 0 8 -9 20 -20 27
-11 7 -20 18 -20 25 0 16 -3 16 -45 -1 -43 -18 -45 -28 -5 -19 31 6 43 -12 15
-23 -11 -5 -12 -11 -5 -24 16 -30 12 -42 -11 -35 -16 5 -19 4 -14 -5 6 -10 1
-11 -18 -6 -16 4 -42 0 -63 -9 -43 -18 -44 -18 -44 -5 0 6 9 10 19 10 31 0 34
17 5 24 -18 5 -24 12 -20 22 3 9 6 24 6 35 0 10 7 19 15 19 8 0 15 4 15 8 0 5
18 37 40 71 22 34 40 64 40 66 0 10 -37 4 -55 -8 -15 -12 -21 -11 -37 5 -20
20 -34 23 -42 9z m349 -1481 c-5 -14 -2 -20 10 -20 12 0 15 -5 9 -22 -3 -13
-11 -25 -16 -26 -4 -2 3 -13 18 -24 20 -16 25 -28 22 -50 -3 -16 -1 -31 4 -34
5 -3 4 -12 -2 -19 -15 -18 -63 2 -56 22 3 7 -1 13 -9 13 -9 0 -12 6 -8 16 8
21 -29 53 -69 60 -83 14 -80 12 -58 34 21 21 55 17 46 -5 -5 -15 22 -14 32 1
10 13 42 17 42 4 0 -5 7 -10 15 -10 8 0 15 5 15 10 0 6 -6 10 -14 10 -12 0
-15 27 -7 58 1 1 8 2 17 2 11 0 14 -6 9 -20z"/>
<path d="M1245 8547 c-21 -15 -39 -18 -92 -17 -29 0 -33 -3 -33 -25 0 -16 -6
-25 -15 -25 -36 0 -8 -32 29 -35 72 -5 146 -18 146 -27 0 -5 5 -6 10 -3 6 3
10 1 10 -4 0 -6 14 -11 30 -11 17 0 30 -5 30 -12 0 -9 4 -8 10 2 8 12 10 12
11 -5 0 -15 2 -16 6 -5 3 8 9 17 14 20 4 3 9 34 11 70 l3 65 -50 7 c-27 3 -61
9 -75 13 -15 3 -33 0 -45 -8z"/>
<path d="M19384 7929 c-31 -9 -32 -11 -24 -47 4 -20 11 -143 15 -272 6 -203
11 -322 14 -353 1 -5 11 -7 24 -5 l22 3 3 343 c2 270 0 342 -10 341 -7 0 -27
-5 -44 -10z"/>
<path d="M12375 7438 c-81 -23 -102 -33 -129 -62 -28 -30 -30 -37 -39 -166
-10 -130 -9 -140 15 -237 l25 -101 -23 -11 c-37 -16 -64 -69 -64 -123 0 -27
-4 -48 -10 -48 -5 0 -10 -6 -10 -13 0 -7 -12 -18 -27 -24 -48 -20 -147 -81
-168 -102 -48 -48 -63 -68 -68 -91 -4 -14 -13 -34 -22 -45 -16 -19 -16 -19
-11 7 3 14 9 34 12 45 4 10 -5 3 -20 -16 -14 -19 -26 -41 -26 -49 0 -8 -6 -12
-15 -8 -9 3 -15 0 -15 -9 0 -8 -7 -15 -15 -15 -8 0 -15 9 -15 21 0 11 -12 36
-26 55 -18 22 -22 34 -13 34 19 0 -28 40 -73 64 -23 11 -39 28 -43 45 -4 14
-12 33 -20 41 -7 8 -16 25 -19 38 -5 13 -15 22 -27 22 -11 0 -29 4 -39 10 -22
12 -227 -13 -243 -29 -6 -6 -19 -11 -29 -11 -14 0 -17 -5 -13 -23 3 -12 -1
-39 -9 -58 -8 -20 -16 -66 -17 -102 -1 -37 -6 -64 -10 -61 -5 2 -14 -4 -21
-16 -7 -11 -17 -20 -23 -20 -12 0 -45 -36 -45 -48 0 -4 5 -13 12 -20 9 -9 15
-9 26 1 12 9 16 9 19 0 3 -7 11 -13 19 -13 8 0 21 -15 29 -32 l15 -33 -5 30
c-4 25 -4 27 6 12 20 -34 -8 -117 -40 -117 -6 0 -14 -18 -17 -40 -4 -22 -12
-40 -19 -40 -7 0 -15 -9 -18 -20 -4 -14 -14 -20 -34 -20 -15 0 -45 9 -66 20
-20 11 -41 20 -45 20 -5 0 -5 -21 0 -47 21 -120 21 -125 7 -134 -12 -8 -12
-10 0 -18 9 -6 11 -16 6 -27 -7 -18 -8 -18 -15 1 -4 11 -5 -14 -2 -56 5 -81
-13 -139 -43 -139 -8 0 -15 -4 -15 -9 0 -5 9 -7 20 -4 26 7 26 -13 0 -27 -11
-6 -18 -15 -15 -21 4 -5 5 -9 3 -10 -51 -10 -102 -9 -109 2 -15 24 -10 -95 7
-161 12 -47 15 -100 12 -226 -2 -90 0 -165 3 -166 9 -4 -8 -433 -20 -509 -6
-35 -8 -65 -6 -68 3 -2 5 2 5 10 0 8 7 1 15 -15 8 -15 15 -34 15 -41 0 -7 5
-15 10 -17 20 -6 -22 -48 -73 -72 -78 -36 -118 -44 -277 -55 -80 -6 -166 -13
-191 -17 l-46 -6 -6 58 c-4 33 -10 97 -14 144 -6 75 -8 81 -14 45 -4 -22 -10
-86 -14 -142 l-7 -103 -42 0 c-125 1 -312 36 -254 48 9 2 15 9 12 16 -3 7 2
33 10 57 18 54 35 144 42 224 3 33 12 76 21 95 17 40 26 123 13 115 -5 -3 -7
-12 -3 -20 9 -24 -18 -18 -103 24 -96 47 -128 73 -112 89 7 7 21 12 31 12 16
0 17 3 7 15 -10 11 -9 18 4 30 9 9 16 23 16 31 0 8 5 14 11 14 6 0 3 7 -5 16
-13 13 -15 32 -11 102 l5 87 -16 -37 c-9 -21 -20 -38 -25 -38 -5 0 -9 -8 -9
-17 0 -14 -2 -15 -9 -4 -6 9 -10 4 -13 -18 -2 -17 -1 -36 4 -43 22 -35 -9
-142 -59 -206 -16 -19 -22 -21 -53 -12 -19 5 -104 10 -188 10 l-153 0 -25 27
c-14 15 -22 19 -18 10 5 -15 -2 -17 -64 -17 -76 0 -155 13 -214 35 -40 16 -43
14 -72 -42 -19 -38 -41 -43 -49 -10 -3 12 -12 47 -20 77 -8 30 -18 85 -22 122
-5 55 -3 75 14 112 11 25 25 46 31 46 6 0 8 5 5 10 -3 6 -2 10 4 10 5 0 8 -16
7 -34 -2 -21 2 -37 10 -40 16 -6 35 -100 36 -172 1 -47 3 -54 21 -54 16 0 17
2 7 15 -11 13 -10 18 6 30 10 8 24 15 31 15 6 0 23 4 37 9 37 15 23 49 -30 73
-42 18 -44 21 -45 61 0 32 -2 37 -9 22 -7 -19 -8 -18 -14 5 -14 52 39 191 66
174 4 -3 8 2 8 11 0 9 4 14 9 10 6 -3 18 21 27 52 10 32 24 63 32 70 9 7 13
22 9 38 -4 26 -3 26 29 20 19 -3 34 -2 34 2 -1 17 -35 72 -45 73 -5 0 -10 14
-11 31 -1 16 -6 35 -12 41 -7 7 -12 29 -12 50 0 21 -5 38 -11 38 -5 0 2 11 18
24 l28 24 -35 9 c-31 8 -35 13 -38 47 -2 28 -7 36 -18 32 -10 -4 -14 2 -14 22
-1 15 -12 47 -25 72 -24 45 -24 45 -25 14 0 -37 -9 -48 -26 -33 -8 6 -10 23
-7 44 7 42 -25 187 -43 198 -8 4 -14 19 -14 33 0 28 -37 84 -56 84 -7 0 -25
11 -40 25 -15 14 -32 25 -38 25 -27 0 -65 27 -81 57 -12 21 -30 36 -54 44 -78
25 -103 60 -61 87 26 16 29 75 3 65 -10 -4 -14 -2 -10 4 4 6 1 14 -5 16 -7 3
-3 6 10 6 30 1 33 51 3 51 -11 0 -23 5 -26 10 -3 6 -17 10 -31 10 -13 0 -24 5
-24 10 0 6 -10 15 -22 20 -21 9 -20 10 7 6 63 -10 90 -19 103 -35 11 -14 14
-14 23 -1 8 11 9 5 5 -22 -2 -21 -1 -40 4 -43 15 -9 28 64 26 146 -2 64 -6 81
-26 106 -39 48 -71 63 -138 63 -61 0 -90 -13 -165 -76 -16 -13 -37 -24 -48
-24 -10 0 -19 -4 -19 -9 0 -5 -11 -23 -25 -39 -22 -27 -24 -34 -16 -77 5 -26
18 -55 30 -67 16 -14 21 -29 19 -51 -3 -28 -7 -32 -41 -38 -44 -7 -84 -41 -92
-79 -4 -20 -16 -32 -38 -40 -41 -16 -180 -83 -187 -90 -3 -3 -27 -20 -55 -38
-46 -29 -51 -30 -62 -15 -12 16 -17 42 -14 69 1 6 -6 17 -14 24 -8 7 -15 21
-15 31 0 11 -4 19 -10 19 -5 0 -10 9 -10 20 0 11 -9 37 -20 57 -11 21 -20 43
-20 49 0 10 -64 68 -112 102 -10 7 -16 17 -13 22 3 4 -2 11 -11 14 -23 9 -64
7 -64 -3 0 -4 -11 -6 -25 -3 -42 8 -144 -18 -183 -46 -21 -14 -45 -42 -55 -61
-9 -20 -24 -44 -32 -55 -13 -17 -15 -17 -29 -3 -9 9 -16 29 -16 46 0 17 -8 39
-19 50 -13 13 -21 41 -27 92 -5 54 -9 67 -14 49 -6 -21 -8 -18 -15 23 -4 26
-12 50 -17 53 -7 4 -8 -9 -3 -37 l6 -44 -16 30 c-49 90 -102 128 -192 138 -49
6 -54 4 -92 -31 -32 -29 -44 -50 -56 -97 -8 -32 -16 -77 -17 -100 l-1 -40 -6
48 c-8 65 -27 60 -23 -6 3 -64 -10 -47 -28 36 -7 31 -15 55 -18 53 -8 -9 21
-151 36 -168 12 -15 11 -21 -9 -49 -20 -29 -23 -30 -30 -13 -11 28 -10 64 1
64 6 0 10 5 10 10 0 6 -7 10 -16 10 -8 0 -32 18 -53 40 -20 22 -46 40 -57 40
-27 0 -55 59 -70 145 -4 22 -18 60 -31 85 l-25 45 6 -55 c3 -30 2 -65 -1 -78
-5 -22 -7 -21 -28 16 -29 52 -84 101 -111 102 -43 0 -91 -30 -157 -99 -36 -39
-69 -81 -71 -93 -3 -13 -8 -36 -11 -53 -19 -82 -17 -132 6 -176 12 -24 21 -46
20 -49 0 -3 5 -12 12 -21 8 -8 22 -31 33 -50 10 -18 25 -40 32 -47 7 -8 10
-18 7 -23 -4 -5 2 -9 12 -9 10 0 28 -11 41 -25 13 -13 33 -26 45 -28 21 -4 21
-4 -2 -6 -13 0 -39 10 -57 24 -18 14 -36 25 -39 25 -4 0 -13 7 -22 15 -18 19
-39 14 -37 -9 2 -22 0 -21 -37 16 -35 35 -59 84 -68 137 -3 19 -11 36 -17 38
-6 2 -31 -16 -56 -39 -29 -29 -69 -53 -117 -72 -40 -15 -86 -41 -103 -56 -37
-34 -67 -45 -61 -21 2 9 -3 36 -12 60 -18 53 -18 54 -2 46 6 -4 2 2 -11 12
-19 16 -22 27 -20 77 1 32 4 53 6 47 2 -6 27 -10 60 -10 49 1 52 3 22 8 l-35
7 45 6 c25 3 95 7 155 8 61 1 112 4 115 7 3 3 -82 3 -188 1 -193 -4 -193 -4
-198 18 -4 14 4 39 20 67 70 118 -8 288 -149 326 -117 32 -192 -1 -260 -115
-19 -32 -35 -66 -35 -76 0 -10 -4 -18 -10 -18 -14 0 -13 -20 3 -53 15 -33 25
-34 36 -4 5 12 23 39 40 61 17 21 31 44 31 51 0 6 18 26 39 43 42 33 79 40
125 22 18 -6 27 -6 32 2 5 7 10 4 15 -9 4 -12 20 -24 38 -28 39 -8 61 -44 61
-101 0 -44 -1 -46 -17 -32 -23 20 -83 31 -83 16 0 -6 -7 -20 -16 -29 -15 -17
-15 -20 0 -44 9 -14 23 -25 30 -25 8 0 21 -3 29 -6 8 -3 24 4 35 16 l20 21 -3
-53 c-4 -95 -29 -162 -75 -205 -54 -48 -85 -65 -125 -66 -37 -1 -95 21 -95 36
0 7 4 7 12 -1 16 -16 28 -15 28 1 0 17 -42 37 -75 37 -14 0 -32 11 -44 26 -25
32 -26 29 -6 -26 23 -66 20 -129 -17 -310 -14 -67 -45 -149 -64 -171 -19 -21
-51 -152 -53 -214 -1 -27 -7 -97 -14 -155 l-13 -105 -23 100 c-24 108 -71 245
-83 245 -18 0 -6 31 14 40 l23 9 -22 0 c-13 1 -23 5 -23 9 0 5 -11 14 -25 20
-15 7 -22 17 -19 26 3 9 -6 21 -24 32 -17 9 -35 28 -41 41 -14 31 -14 33 4 33
8 0 15 5 15 10 0 10 -5 12 -32 14 -7 1 -19 8 -26 16 -9 10 -11 10 -7 1 5 -9 0
-8 -18 4 -15 9 -30 14 -35 11 -9 -5 9 -135 23 -168 5 -13 3 -18 -8 -18 -11 0
-19 13 -24 38 -4 20 -8 39 -8 42 -1 3 -5 24 -9 48 -10 53 -30 55 -111 12 -69
-36 -89 -39 -79 -8 5 17 -4 31 -47 73 -30 28 -67 66 -82 84 -31 36 -31 34 9
209 22 94 27 153 16 192 -6 19 -11 27 -11 18 -1 -10 -6 -18 -12 -18 -5 0 -9 8
-8 18 4 20 -18 62 -31 62 -6 0 -10 -10 -10 -22 0 -19 -2 -20 -10 -8 -9 13 -11
13 -19 0 -9 -12 -11 -12 -17 3 -3 9 -13 17 -22 17 -12 0 -10 -6 8 -25 30 -32
19 -44 -16 -16 -38 30 -79 26 -159 -14 -133 -67 -144 -80 -145 -165 0 -29 -7
-54 -20 -70 -16 -22 -17 -27 -4 -41 14 -16 10 -49 -6 -49 -15 0 -40 -31 -40
-50 0 -10 9 -28 20 -41 l19 -24 -6 38 c-8 54 10 46 37 -15 33 -80 34 -85 16
-63 l-18 20 7 -20 c4 -11 8 -29 9 -40 1 -14 9 -21 29 -23 24 -3 56 -37 44 -48
-2 -3 -31 10 -63 29 -32 18 -67 36 -77 40 -13 5 -16 13 -12 27 8 25 -15 50
-45 50 -34 0 -78 -37 -85 -71 -6 -25 -11 -30 -27 -26 -20 6 -20 5 1 -14 11
-11 21 -29 21 -39 0 -22 57 -133 71 -138 5 -2 9 -14 9 -26 0 -25 67 -92 88
-88 8 2 12 -11 11 -40 -1 -24 -3 -35 -6 -25 -5 21 -1 21 -77 0 -68 -18 -116
-12 -116 14 0 33 -23 91 -35 87 -6 -3 -22 10 -36 28 -52 71 -122 138 -138 133
-39 -12 -91 73 -91 150 0 40 -5 46 -85 109 -39 31 -91 81 -116 113 -27 33 -53
56 -60 54 -8 -3 -39 -7 -70 -9 -45 -3 -68 2 -115 23 -65 29 -144 99 -144 126
0 32 -20 31 -55 -4 -26 -26 -35 -44 -35 -69 0 -21 -7 -40 -20 -51 -28 -24 -25
-44 15 -89 20 -21 42 -53 49 -71 25 -58 66 -194 66 -218 0 -13 7 -49 16 -79 8
-30 22 -120 30 -200 8 -80 18 -168 21 -197 3 -29 3 -67 -1 -85 -5 -29 -13 -36
-59 -53 -51 -20 -52 -21 -50 -59 l3 -39 -25 23 c-35 33 -59 21 -51 -28 l6 -37
-20 24 c-19 22 -23 22 -53 11 -17 -8 -40 -20 -50 -29 -16 -13 -19 -13 -27 -1
-7 10 -10 -2 -10 -40 0 -42 3 -51 12 -42 17 17 26 15 33 -5 3 -10 12 -27 20
-37 14 -19 15 -19 34 -2 18 16 18 21 7 40 -40 62 -20 93 23 36 18 -25 25 -29
41 -20 11 6 20 19 20 30 0 10 3 25 6 34 5 14 8 13 23 -3 12 -15 21 -17 38 -11
19 8 21 14 17 72 -4 63 -4 63 10 28 8 -19 15 -45 15 -57 1 -25 11 -29 28 -12
29 29 29 -120 0 -256 -16 -75 -76 -267 -100 -325 -17 -40 -71 -97 -135 -143
-25 -18 -45 -41 -48 -56 -13 -67 -27 -105 -56 -151 -33 -53 -42 -59 -51 -35
-5 11 -15 5 -44 -23 -80 -78 -77 -77 -117 -53 -18 12 -36 28 -40 36 -3 8 13
45 34 82 22 37 44 90 49 117 5 28 16 55 25 62 9 6 16 16 16 23 0 6 15 12 33
12 l32 2 -35 6 -35 6 35 13 c31 12 33 14 17 24 -11 5 -33 7 -50 4 -30 -6 -30
-6 -12 14 12 14 16 28 12 49 -4 17 0 45 8 65 8 20 15 49 15 65 0 19 11 43 28
63 33 38 52 87 52 133 0 25 7 37 27 51 53 34 66 51 59 78 -8 33 -51 37 -61 6
-8 -25 -42 -34 -101 -27 -24 2 -44 1 -44 -4 0 -5 15 -9 33 -10 26 -1 20 -4
-28 -16 -43 -10 -65 -11 -77 -4 -18 11 -75 5 -94 -11 -10 -7 -64 5 -64 15 0 2
7 27 16 56 8 29 19 98 24 154 16 181 30 290 48 367 12 55 17 120 17 247 0 156
8 208 22 153 3 -12 14 -20 27 -20 18 1 19 2 6 13 -23 18 -38 59 -30 82 3 11 6
31 6 45 -1 22 -6 25 -40 28 -21 2 -43 -1 -47 -5 -5 -5 -2 -33 8 -64 24 -78 25
-303 2 -439 -29 -176 -38 -240 -54 -373 -9 -71 -25 -153 -36 -183 -19 -50 -23
-54 -52 -54 -76 1 -237 59 -237 86 0 6 -11 14 -25 16 -22 5 -25 2 -25 -22 0
-20 10 -35 34 -54 19 -14 44 -43 57 -63 13 -21 28 -42 35 -48 6 -5 35 -40 63
-77 39 -52 53 -79 58 -115 3 -27 10 -53 15 -60 6 -8 -6 -22 -41 -44 -49 -32
-63 -52 -22 -29 12 6 21 7 21 3 0 -4 20 -9 45 -10 25 -1 60 -10 77 -20 34 -19
68 -49 68 -59 0 -4 18 -24 40 -45 29 -28 40 -47 40 -69 0 -19 -5 -29 -12 -28
-20 4 -37 31 -38 58 0 23 -3 25 -55 26 -50 1 -55 -1 -55 -22 0 -17 -8 -23 -32
-28 -55 -12 -90 -7 -113 14 -12 11 -27 20 -33 20 -17 0 -15 40 2 46 8 3 22 17
31 31 16 23 16 27 1 41 -14 15 -19 13 -51 -18 -37 -36 -61 -35 -29 2 l19 22
-36 -22 c-32 -19 -41 -20 -70 -10 -48 16 -96 49 -154 103 -45 43 -85 77 -212
181 -22 19 -50 53 -62 76 -18 38 -20 39 -25 17 -3 -13 -11 -44 -17 -69 -17
-72 -17 -120 -2 -199 10 -51 11 -77 3 -85 -7 -7 -10 -4 -11 9 -1 11 -2 25 -4
30 -1 6 -3 24 -4 40 -5 66 -18 -12 -23 -132 -4 -99 -3 -123 8 -123 8 0 14 -7
14 -15 0 -8 4 -23 9 -33 6 -9 17 -42 26 -72 10 -30 26 -74 37 -97 36 -77 29
-84 -107 -120 -144 -38 -183 -52 -169 -61 6 -4 13 -15 17 -24 4 -13 18 -18 44
-19 l38 -2 -33 -6 c-42 -8 -38 -27 5 -23 29 2 33 0 42 -35 6 -21 10 -81 10
-133 -1 -52 -3 -86 -6 -75 -3 11 -9 24 -14 30 -12 12 -12 -21 0 -43 10 -19
-13 -61 -26 -49 -4 4 -1 13 5 19 14 14 16 42 3 34 -5 -3 -20 0 -34 7 l-25 13
34 19 c37 20 44 35 17 35 -17 1 -17 1 0 14 24 18 21 26 -8 26 -18 0 -23 4 -19
15 5 13 0 14 -32 9 -22 -4 -48 -7 -58 -8 -40 -2 -28 -25 15 -28 25 -2 44 -9
47 -17 3 -10 0 -11 -9 -5 -8 5 -31 9 -51 10 -45 1 -48 -8 -53 -158 -2 -60 -6
-142 -10 -183 -4 -41 -3 -75 1 -75 5 -1 56 -2 114 -3 101 -2 105 -3 108 -24 3
-21 -1 -23 -50 -24 -29 0 -80 -2 -113 -3 l-60 -3 -3 -111 c-3 -119 -3 -119 46
-113 6 1 12 -2 12 -8 0 -16 121 -30 153 -16 15 6 17 1 16 -36 0 -24 -4 -62 -8
-84 -8 -35 -9 -36 -10 -11 -1 26 -3 28 -14 13 -7 -10 -34 -19 -69 -23 -50 -6
-58 -4 -58 10 0 9 -8 16 -20 16 -11 0 -20 -5 -20 -11 0 -6 -6 -9 -14 -6 -11 4
-16 -7 -21 -46 -4 -29 -12 -58 -19 -66 -9 -12 -7 -13 11 -9 13 4 26 2 29 -3 3
-5 9 -7 13 -5 17 11 167 15 181 5 13 -9 12 -10 -2 -5 -10 3 -18 1 -18 -4 0 -6
-12 -10 -26 -10 -22 0 -23 -2 -11 -14 8 -8 27 -16 43 -18 l29 -3 0 -160 c0
-88 -2 -245 -4 -350 l-3 -189 94 -14 c114 -16 145 -36 43 -28 -123 10 -511 15
-480 6 17 -4 26 -8 21 -9 -5 0 -3 -7 3 -15 7 -8 21 -12 32 -9 19 5 20 4 7 -16
-9 -15 -20 -20 -38 -17 -14 2 -43 7 -65 11 -26 4 -35 3 -26 -3 11 -8 11 -11 0
-16 -8 -3 5 -4 29 -2 52 5 53 -16 1 -25 -19 -3 -51 -13 -73 -22 -43 -19 -76
-22 -76 -8 0 5 8 12 18 14 13 4 11 5 -5 6 -13 0 -23 6 -23 12 0 12 42 1 51
-14 4 -5 15 -7 25 -2 18 6 17 8 -3 16 -30 11 -29 27 1 39 13 5 27 14 31 19 11
19 -30 12 -51 -8 -12 -10 -36 -22 -55 -26 -19 -4 -36 -11 -39 -15 -3 -4 -21
-11 -40 -14 -33 -7 -34 -6 -16 9 11 8 28 15 38 15 10 0 18 4 18 8 0 5 18 15
40 22 22 7 40 17 40 21 0 4 8 10 18 13 9 3 0 4 -21 1 -20 -2 -37 0 -37 6 0 5
28 10 63 10 40 1 17 5 -64 10 -105 7 -132 6 -155 -6 -16 -8 -22 -15 -14 -15 9
0 11 -3 5 -8 -6 -4 -10 -33 -10 -65 0 -40 -4 -56 -12 -53 -7 3 -10 -1 -7 -12
5 -15 4 -14 -9 1 -9 11 -13 25 -11 32 3 7 -2 30 -12 51 -26 61 -29 139 -33
946 -3 631 13 757 96 752 18 -1 23 4 23 25 1 14 7 37 16 51 12 21 14 22 12 5
-2 -15 2 -19 17 -17 24 5 21 2 30 31 7 22 5 23 -27 17 l-33 -7 27 18 c16 10
28 20 28 24 0 3 -35 4 -77 2 -74 -4 -148 -19 -238 -48 -22 -7 -79 -23 -127
-36 l-88 -22 0 -1109 c0 -732 3 -1108 10 -1108 6 0 10 -7 10 -15 0 -8 -4 -15
-10 -15 -15 0 -13 -137 3 -143 9 -4 9 -6 0 -6 -9 -1 -13 -25 -13 -86 l0 -85
33 5 32 5 -33 -10 c-29 -10 -32 -14 -32 -49 0 -35 2 -39 22 -34 l23 5 -22 -16
c-19 -14 -23 -27 -23 -71 0 -51 1 -54 29 -60 34 -7 83 3 75 16 -3 5 -17 6 -32
3 -15 -4 -24 -4 -21 0 3 4 26 10 50 15 l44 9 -40 2 c-22 1 -49 5 -60 10 -16 7
-10 9 25 11 25 2 56 3 70 4 38 2 55 -5 38 -17 -9 -7 -8 -8 5 -4 10 3 23 6 28
6 6 0 7 9 4 20 -5 17 -2 20 22 20 27 0 53 15 53 31 0 4 -17 13 -37 20 -21 6
-41 16 -44 21 -3 5 -45 11 -92 15 -48 3 -85 8 -82 11 3 3 75 4 160 3 102 -1
155 2 155 9 0 6 -28 10 -67 10 -38 0 -75 5 -83 10 -19 13 185 1 215 -12 18 -8
18 -8 -2 -4 -13 2 -26 0 -29 -6 -4 -7 8 -8 37 -4 24 3 73 9 109 12 36 4 71 11
77 16 7 6 25 7 40 3 27 -6 27 -7 -17 -27 -39 -19 -42 -22 -22 -26 14 -2 38 6
58 20 l34 23 -22 19 -23 19 23 -6 c28 -7 29 1 1 11 -17 7 -4 15 70 50 49 23
93 47 97 53 7 12 -13 29 -36 29 -11 0 -12 -2 -2 -8 14 -9 1 -23 -51 -56 -23
-14 -30 -15 -42 -4 -39 35 -46 39 -60 30 -12 -6 -7 -12 24 -28 l38 -20 -38
-18 c-21 -11 -36 -23 -32 -29 3 -6 1 -7 -5 -3 -7 4 -22 -3 -34 -15 -21 -20
-30 -21 -118 -15 -52 3 -122 6 -155 7 l-60 1 40 10 c22 5 55 7 73 4 25 -4 38
0 54 16 19 19 19 22 6 32 -14 10 -14 15 -2 36 7 14 13 32 14 41 0 9 7 20 16
23 25 10 92 7 99 -4 3 -5 15 -10 25 -10 10 0 20 -5 22 -10 2 -7 17 -4 38 7 29
14 32 18 15 21 -10 3 -21 -1 -23 -7 -6 -17 -30 -13 -41 7 -11 21 -104 45 -139
36 -13 -4 -22 -2 -22 5 0 7 30 11 90 11 50 0 90 -3 90 -8 0 -4 21 -5 46 -3 64
5 204 -10 179 -19 -13 -5 0 -9 40 -13 72 -7 83 -2 23 11 -40 9 -38 10 40 11
45 1 82 -3 82 -7 0 -5 34 -7 75 -4 58 4 80 1 99 -12 23 -15 25 -15 23 4 -1 18
-9 20 -64 20 -34 0 -65 5 -68 10 -3 6 -2 10 3 10 5 0 26 11 46 25 20 14 47 27
61 31 13 3 30 13 37 22 7 8 9 13 3 11 -5 -3 -32 -15 -58 -27 -27 -12 -56 -22
-64 -22 -29 0 5 26 89 67 65 32 90 40 118 35 31 -4 33 -3 22 11 -16 19 3 34
23 17 10 -8 19 -9 32 -1 17 10 16 10 -4 11 -12 0 -25 5 -28 10 -3 6 -16 11
-28 12 -12 1 3 4 33 8 53 6 53 7 13 8 -24 1 -43 6 -43 12 0 14 -70 24 -83 11
-6 -6 -25 -11 -41 -11 -21 0 -27 -3 -17 -9 26 -17 -9 -22 -110 -17 -55 3 -112
9 -126 12 -19 5 -24 3 -21 -7 3 -8 14 -15 26 -17 11 -2 26 -9 32 -17 8 -10 6
-13 -12 -12 -13 0 -38 -3 -55 -7 -28 -6 -32 -5 -27 8 3 9 13 16 22 16 8 0 13
2 11 5 -3 2 -21 2 -41 -1 -28 -5 -35 -10 -31 -23 4 -14 3 -14 -6 -1 -8 11 -7
18 3 25 7 6 11 16 9 23 -5 14 13 16 22 2 8 -12 35 -13 35 -1 0 5 -20 14 -45
20 -25 6 -43 16 -40 21 4 7 13 7 24 1 21 -12 61 -3 61 13 0 17 -41 41 -75 43
-29 1 -85 -24 -85 -39 0 -14 31 -9 46 7 19 19 43 19 68 0 23 -18 15 -31 -10
-17 -12 7 -31 5 -61 -5 -25 -9 -59 -13 -78 -10 -21 3 -40 0 -52 -8 -24 -19
-39 -19 -23 -1 9 12 5 16 -25 22 -20 3 -49 7 -64 8 -33 1 -64 24 -54 39 4 6
-4 8 -23 3 l-29 -7 25 20 c17 14 34 19 53 15 19 -3 26 -1 22 6 -11 18 16 40
48 40 29 0 30 1 11 15 -26 19 -73 19 -96 -2 -10 -9 -21 -13 -25 -9 -4 4 -1 11
7 17 13 8 13 10 0 19 -8 5 -19 11 -25 13 -5 3 -7 8 -3 12 4 4 19 0 33 -9 14
-9 25 -12 25 -6 0 5 15 10 33 10 40 1 156 25 165 35 4 4 -21 5 -55 3 -53 -4
-62 -2 -66 14 -4 14 -1 16 11 9 10 -5 42 -9 72 -9 30 0 48 3 40 6 -8 3 -20 12
-26 20 -9 13 -12 13 -17 -2 -6 -16 -37 -23 -37 -8 0 15 46 28 80 21 19 -4 42
-3 51 2 11 6 21 4 28 -5 14 -17 51 -28 48 -14 -1 6 4 13 11 15 6 3 12 -2 12
-11 0 -9 5 -16 10 -16 6 0 10 7 10 15 0 8 9 15 20 15 12 0 30 9 42 19 11 11
26 17 33 15 7 -3 16 -1 19 5 4 6 -13 12 -41 16 -27 4 -58 11 -70 17 -18 9 -27
8 -43 -7 -11 -10 -20 -14 -20 -9 1 15 26 44 39 44 7 0 10 4 6 9 -8 14 17 16
129 13 l101 -4 -30 -24 -30 -24 33 0 c21 0 32 -5 32 -15 0 -11 -8 -13 -31 -8
-30 6 -31 5 -20 -16 13 -24 7 -41 -15 -41 -9 0 -12 5 -8 12 5 8 0 9 -14 6 -12
-4 -22 -2 -22 3 0 5 -7 9 -15 9 -8 0 -15 -6 -15 -14 0 -13 -71 -46 -100 -46
-25 0 -108 -47 -101 -57 3 -5 15 -13 25 -17 19 -6 19 -7 0 -20 -29 -21 -10
-30 25 -12 16 9 38 16 48 16 22 1 59 27 50 37 -4 3 -22 -2 -41 -12 -33 -18
-35 -18 -62 0 -18 11 -24 20 -16 23 7 2 18 -1 25 -6 8 -7 18 -7 27 -2 12 8 11
10 -5 10 -18 1 -18 2 3 11 13 5 29 6 35 2 15 -9 130 -4 137 6 3 4 13 10 22 14
12 4 15 2 11 -9 -3 -7 -11 -14 -19 -14 -8 0 -14 -4 -14 -10 0 -5 -6 -10 -14
-10 -7 0 -25 -9 -39 -20 -14 -11 -32 -20 -41 -20 -13 0 -133 -53 -208 -91 -26
-13 -38 -11 -32 5 3 8 24 22 47 31 41 15 41 15 7 9 -19 -3 -62 -10 -95 -14
-84 -12 -119 -21 -127 -34 -13 -19 -9 -26 15 -25 19 0 19 1 4 8 -15 5 -12 9
15 18 42 15 98 26 98 20 0 -3 -16 -12 -35 -21 -20 -10 -33 -21 -30 -27 4 -5
11 -6 17 -3 5 4 36 8 67 10 31 2 63 5 71 7 13 3 176 79 287 134 17 8 37 13 45
10 8 -3 1 -9 -17 -16 -16 -6 -37 -15 -45 -21 -8 -5 -41 -24 -73 -41 -59 -33
-71 -51 -18 -30 24 10 34 10 60 -4 23 -11 36 -13 49 -6 14 9 13 10 -9 11 -15
0 -32 7 -39 15 -10 12 -10 15 2 15 9 0 32 11 52 25 20 14 47 25 59 25 18 -1
16 -4 -11 -15 -18 -8 -31 -19 -27 -25 9 -15 25 -12 25 5 0 12 12 15 55 14 35
-1 54 -6 52 -13 -2 -6 -13 -10 -25 -8 -13 2 -23 -4 -27 -18 -3 -11 -12 -20
-19 -20 -7 0 -30 -9 -52 -19 l-39 -19 70 5 c39 3 74 9 79 14 13 12 29 12 22 0
-3 -5 1 -14 8 -20 16 -13 32 2 21 19 -3 6 -1 10 5 10 6 0 8 5 5 10 -3 6 -1 10
5 10 7 0 9 -7 6 -16 -7 -19 29 -61 39 -44 4 7 3 16 -3 22 -5 5 -7 27 -5 49 6
44 -11 54 -27 17 -5 -13 -9 -17 -9 -10 -1 7 -6 10 -11 7 -6 -3 -10 -1 -10 4 0
6 7 11 15 11 8 0 15 4 15 9 0 17 35 17 47 1 7 -8 13 -10 13 -5 0 6 12 10 27 9
41 -2 41 -2 53 -25 10 -19 10 -20 -9 -10 -12 7 -29 8 -43 2 -13 -4 -28 -6 -34
-4 -6 2 -14 -5 -17 -17 -7 -28 28 -47 51 -27 24 20 104 29 143 15 29 -10 31
-12 13 -19 -17 -7 -18 -8 -1 -8 19 -1 137 50 137 59 0 3 -12 12 -26 21 l-26
16 45 -1 c29 -1 42 -5 36 -11 -15 -15 -11 -23 13 -27 20 -3 18 -5 -15 -28 -43
-29 -46 -38 -12 -36 16 0 23 6 20 14 -3 10 1 11 16 7 13 -5 19 -3 15 3 -9 15
26 25 38 11 8 -9 7 -10 -6 -6 -11 4 -15 2 -12 -7 6 -15 -24 -30 -98 -46 -40
-9 -55 -17 -51 -26 7 -18 25 -18 60 3 27 15 31 15 57 -2 20 -13 24 -20 14 -26
-7 -4 -10 -11 -6 -14 6 -6 48 15 48 25 0 3 -12 13 -27 22 l-28 17 39 16 c27
12 42 13 49 6 8 -8 3 -11 -16 -11 -38 0 -35 -27 4 -35 17 -4 33 -4 36 -1 4 3
-3 6 -15 6 -12 0 -22 4 -22 9 0 9 56 21 99 21 41 0 211 89 211 111 0 4 -17 10
-37 14 -51 9 -73 22 -73 43 0 23 -19 42 -42 42 -20 0 -23 6 -33 62 -3 21 -10
38 -16 38 -6 0 -7 -4 -4 -10 9 -14 -16 -12 -45 5 -29 17 -196 22 -170 5 11 -7
8 -10 -15 -9 -16 0 -24 3 -17 6 6 2 10 9 6 14 -6 10 -6 10 95 12 97 2 104 21
14 36 -91 16 -94 16 -123 7 -18 -5 -21 -4 -11 3 18 12 12 13 -144 37 -60 9
-116 22 -123 27 -11 9 -12 71 -8 326 6 319 19 459 44 468 10 4 9 9 -4 24 -14
16 -15 21 -4 35 11 12 11 17 1 23 -7 5 -13 24 -14 42 l-2 34 50 0 c85 -1 186
-12 195 -21 5 -5 12 -29 15 -54 8 -71 17 -115 24 -120 10 -7 90 -252 111 -337
10 -40 28 -87 41 -104 17 -24 25 -55 32 -130 l10 -99 30 0 c39 0 97 -20 121
-43 11 -9 26 -17 33 -17 9 0 11 -8 7 -25 -7 -26 10 -36 19 -11 3 8 18 16 34
18 26 3 28 6 25 40 -4 38 11 52 22 22 5 -13 9 -14 21 -4 9 7 13 15 11 17 -2 3
0 17 5 31 12 36 62 63 126 69 51 6 52 5 59 -23 4 -16 14 -40 22 -53 16 -23 16
-23 24 -2 4 12 15 21 24 21 13 0 16 -7 11 -35 -5 -33 -1 -41 53 -98 32 -34 77
-82 100 -107 l42 -45 -6 102 c-3 56 -2 104 2 107 5 3 40 -2 78 -10 85 -17 141
-18 147 -1 3 9 7 9 20 -2 24 -19 21 -33 -5 -29 -21 3 -23 -1 -23 -42 l0 -44
104 -18 c58 -9 116 -22 130 -27 36 -14 174 -41 210 -41 16 0 67 -14 113 -31
46 -17 101 -33 123 -35 22 -2 60 -6 85 -9 32 -3 39 -2 25 4 -18 9 -17 10 8 10
16 1 26 -4 25 -11 -2 -8 13 -15 42 -18 25 -3 44 -9 43 -15 -3 -10 -6 -11 -45
-14 -22 -2 -22 -3 -3 -11 18 -8 18 -9 -5 -10 -23 -1 -23 -2 9 -15 18 -8 52
-15 75 -16 35 -1 37 -2 16 -9 -17 -6 -20 -8 -7 -9 10 -1 27 -9 38 -20 16 -14
36 -19 91 -19 45 -1 74 -5 79 -13 6 -10 13 -10 32 -2 20 9 29 9 44 -2 22 -17
33 -19 33 -5 0 18 -45 28 -135 31 -65 2 -93 7 -109 20 -24 20 -17 24 43 32 26
3 35 0 39 -15 5 -20 17 -24 27 -8 4 6 12 4 21 -5 19 -19 28 -19 44 0 7 8 26
15 42 15 25 0 29 3 25 20 -5 20 21 38 81 55 15 4 21 12 18 21 -4 9 2 14 17 14
14 0 18 -3 10 -8 -9 -5 -1 -12 22 -21 19 -7 35 -19 35 -27 0 -14 2 -14 15 0
19 19 19 26 0 26 -8 0 -15 6 -15 14 0 9 7 12 20 9 11 -3 20 -11 20 -19 0 -18
20 -28 32 -16 6 6 16 9 22 8 6 -2 8 -1 4 1 -5 3 -8 11 -8 20 0 12 13 14 73 10
39 -3 60 -3 45 0 -16 2 -28 8 -28 11 0 14 147 80 159 73 7 -4 11 -12 9 -17 -6
-18 7 -18 35 0 18 13 37 17 58 12 21 -4 28 -2 23 6 -5 7 -3 8 7 3 7 -5 27 -8
43 -7 19 2 33 -4 42 -16 12 -17 18 -18 59 -9 38 9 48 8 55 -4 8 -11 12 -10 26
9 14 20 23 23 71 21 30 -1 58 2 61 8 9 14 62 26 62 14 0 -5 -8 -12 -17 -15
-10 -3 2 -2 27 1 25 3 49 9 54 14 5 4 17 4 27 -1 25 -14 36 8 13 26 -17 12
-11 14 52 13 39 -1 76 1 82 5 6 4 8 -2 5 -15 -3 -12 -23 -33 -44 -48 -47 -32
-49 -43 -7 -34 22 4 29 3 24 -5 -4 -7 -18 -12 -32 -12 -14 0 -35 -5 -46 -11
-21 -11 -21 -12 3 -25 33 -18 56 -17 67 2 8 14 15 15 38 6 16 -6 23 -11 17
-11 -7 -1 -13 -5 -13 -11 0 -16 107 -2 137 17 17 12 24 13 19 4 -7 -10 -2 -12
25 -6 19 4 48 12 66 18 27 9 35 8 51 -6 11 -10 26 -14 40 -10 12 3 22 1 22 -5
0 -6 -26 -13 -57 -17 -85 -10 -87 -13 -6 -14 45 -1 73 3 75 10 2 7 30 15 62
20 57 7 86 22 73 35 -4 4 -16 -1 -26 -10 -12 -11 -30 -16 -48 -13 l-28 4 33 8
c17 4 32 12 32 17 0 5 3 7 8 4 4 -2 16 2 27 10 17 13 18 16 5 24 -12 8 -11 10
6 10 11 0 25 -5 32 -12 9 -9 12 -9 12 0 0 7 9 12 20 12 27 0 25 -16 -5 -46
-13 -13 -29 -33 -35 -44 -9 -16 -21 -20 -63 -20 -29 0 -59 -5 -67 -10 -23 -15
98 -12 142 3 44 15 59 27 35 27 -25 0 -21 14 15 49 19 19 41 30 53 29 16 -2
20 3 20 25 1 32 18 47 58 47 33 0 35 -13 5 -34 l-21 -15 26 -10 c31 -12 35
-38 10 -57 -10 -7 -15 -16 -10 -20 4 -4 14 1 22 12 12 15 16 16 23 6 7 -11 10
-9 15 7 5 19 11 20 95 16 83 -4 90 -3 95 15 5 20 47 29 47 11 0 -25 -15 -41
-39 -41 -14 0 -33 -5 -41 -10 -13 -9 -13 -11 0 -20 18 -11 51 -13 66 -2 6 4
15 26 21 50 9 36 8 44 -6 52 -14 8 -13 9 7 10 13 0 34 -11 48 -25 16 -16 36
-25 57 -25 l32 0 -25 -20 c-18 -14 -22 -22 -14 -30 8 -8 20 -2 44 24 33 34 33
34 67 18 36 -17 59 -8 43 17 -7 13 -11 13 -26 0 -13 -11 -18 -11 -21 -1 -3 6
-11 12 -19 12 -8 0 -14 5 -14 10 0 14 183 13 197 -1 8 -8 19 -8 42 2 33 15 39
25 19 32 -10 3 -10 7 1 20 12 15 10 17 -20 18 -19 0 -95 4 -169 8 -75 5 -145
4 -158 0 -13 -5 -21 -5 -18 0 3 5 -13 11 -36 14 -37 5 -90 37 -60 37 7 0 12
-4 12 -8 0 -9 98 -13 160 -5 37 4 41 7 25 14 -14 7 -3 8 33 5 29 -3 52 -1 52
4 0 6 5 10 10 10 6 0 10 -7 10 -16 0 -13 7 -15 38 -10 20 4 49 8 65 8 22 1 25
3 15 15 -7 9 -23 13 -40 11 -34 -5 -46 7 -20 21 11 6 24 6 33 0 7 -5 33 -6 57
-3 38 6 42 4 42 -15 0 -17 6 -21 28 -20 15 1 20 3 11 6 -9 2 -19 18 -23 35 -5
25 -10 29 -29 25 -26 -7 -62 9 -37 16 8 2 31 9 51 16 47 15 47 15 45 -16 -1
-32 17 -44 22 -14 4 25 26 43 55 46 12 1 25 3 28 4 4 0 10 12 13 26 4 14 13
25 21 25 12 0 11 -6 -5 -32 -34 -56 -21 -79 20 -36 14 15 20 17 20 7 0 -21
-11 -33 -45 -48 -27 -12 -28 -14 -10 -21 23 -8 55 -2 55 12 0 5 9 7 19 3 14
-4 23 0 31 15 9 17 20 20 70 20 33 0 60 4 60 9 0 5 11 4 25 -2 29 -14 27 -33
-3 -31 -12 1 -22 -4 -22 -10 0 -7 19 -10 56 -8 49 4 56 2 61 -17 6 -22 18 -27
28 -11 3 5 -11 26 -32 45 -21 20 -30 33 -20 29 9 -3 24 -1 32 6 10 9 15 9 15
1 0 -6 18 -11 45 -11 30 0 44 4 43 12 -2 7 4 12 12 13 8 0 26 4 39 9 14 5 27
4 34 -3 6 -6 24 -11 39 -11 32 0 37 -14 11 -29 -16 -9 -16 -10 4 -11 12 0 24
4 28 10 3 5 12 7 20 3 10 -3 15 2 15 16 0 23 7 26 29 12 11 -7 10 -11 -5 -21
-18 -11 -18 -11 -1 -6 10 3 21 6 23 6 2 0 4 6 4 14 0 8 12 24 27 36 25 19 36
21 103 15 41 -3 172 -8 290 -10 118 -3 234 -8 258 -11 29 -4 42 -3 42 5 0 7 4
10 10 6 15 -9 82 -14 260 -21 193 -7 218 -8 227 -17 3 -4 11 -3 17 2 6 5 55 6
109 2 97 -6 97 -6 97 17 0 13 5 43 11 67 l11 44 82 -2 c58 -1 84 -6 93 -17 11
-13 12 -13 13 2 0 16 13 18 131 16 101 -1 132 -4 136 -15 4 -10 8 -11 20 -2 8
7 43 11 85 11 39 -1 77 3 84 9 7 5 15 28 19 50 8 46 12 50 43 38 16 -6 22 -16
22 -39 0 -41 20 -39 21 3 1 17 1 35 1 38 -1 4 20 7 46 6 77 -1 102 2 102 13 0
6 -11 10 -24 10 -27 0 -42 15 -26 25 5 3 10 2 10 -3 0 -5 18 -9 41 -9 35 0 40
2 36 18 -4 15 0 19 20 19 14 0 31 -7 38 -16 6 -9 32 -18 58 -21 37 -5 47 -9
47 -24 0 -12 7 -19 19 -19 11 0 18 7 17 17 -1 22 67 28 88 7 16 -16 30 -19 21
-5 -3 5 0 13 7 17 8 5 4 10 -11 16 -12 4 -19 13 -16 18 5 8 11 8 19 1 7 -6 16
-7 21 -3 4 4 5 -5 3 -21 -3 -15 -2 -27 2 -27 4 0 12 -11 18 -25 6 -14 17 -25
23 -25 12 0 9 31 -9 86 -9 29 -8 32 13 30 15 -1 21 -6 17 -15 -4 -10 -1 -12 7
-6 10 6 12 0 6 -24 -5 -24 -3 -31 9 -31 10 0 16 9 16 23 0 34 15 51 39 44 12
-3 21 -1 21 5 0 11 90 0 104 -13 14 -13 50 -11 65 4 11 10 14 10 18 0 3 -7 12
-13 22 -13 9 0 22 -5 28 -11 8 -8 16 -7 31 2 17 11 25 11 46 -1 29 -15 34 -30
11 -30 -8 0 -15 -4 -15 -9 0 -16 38 -23 60 -11 16 9 20 8 20 -4 0 -12 7 -14
29 -10 27 6 29 3 40 -40 13 -51 24 -63 15 -16 -9 43 19 40 62 -6 26 -27 33
-43 31 -66 -2 -33 19 -51 25 -21 3 16 21 18 211 19 114 2 207 -1 207 -5 0 -4
57 -7 126 -7 l125 0 -6 23 c-3 13 -1 23 4 23 12 0 24 -37 16 -49 -8 -15 15
-25 28 -12 17 17 27 13 27 -8 0 -11 5 -23 10 -26 6 -3 10 1 10 9 0 11 10 16
33 17 71 3 122 -4 130 -17 4 -8 17 -14 28 -14 11 0 17 -5 14 -10 -3 -6 1 -13
10 -17 10 -3 21 0 26 8 11 18 121 18 142 0 20 -16 113 -10 110 7 -4 18 11 14
29 -7 16 -19 15 -20 -10 -24 -15 -2 11 -4 58 -5 56 0 76 3 60 8 -14 4 -20 9
-15 9 6 1 3 6 -5 11 -11 7 -4 10 26 10 25 0 47 -6 54 -15 10 -12 9 -15 -6 -15
-16 0 -17 -2 -4 -10 20 -13 183 -12 238 0 28 7 49 7 61 1 24 -13 245 -26 268
-16 14 7 10 10 -22 15 l-40 7 45 2 c35 2 41 4 25 11 -20 8 -20 9 1 9 13 1 25
-8 32 -24 6 -14 18 -25 26 -25 11 0 8 7 -9 25 -14 13 -25 31 -25 40 0 8 -4 15
-10 15 -5 0 -10 5 -10 11 0 7 27 9 78 6 42 -3 79 -6 82 -7 3 -1 34 -3 70 -4
36 -1 105 -7 154 -15 79 -12 97 -11 169 4 72 16 82 16 92 2 22 -30 106 -87
128 -86 22 0 22 0 -2 10 -13 5 -22 12 -19 14 7 7 68 -15 68 -25 0 -4 42 -8 93
-9 153 -3 268 -9 274 -15 4 -3 22 -6 41 -6 31 0 34 2 28 25 -5 21 -3 25 14 25
11 0 31 -6 43 -14 29 -19 147 -33 147 -17 0 6 -11 13 -25 17 -14 3 -22 10 -19
15 7 12 20 11 36 -4 29 -26 62 -38 110 -42 28 -2 56 -9 61 -14 7 -7 73 -11
176 -11 92 0 193 -4 225 -10 60 -10 110 -5 101 10 -3 5 -22 7 -43 5 -32 -2
-33 -2 -7 4 20 4 26 9 17 14 -7 5 -21 5 -32 2 -11 -4 -20 -2 -20 4 0 6 8 11
18 11 12 0 10 5 -10 18 -16 9 -28 19 -28 22 0 7 145 30 228 37 69 5 116 -2
107 -17 -3 -5 9 -17 27 -26 39 -20 156 -26 243 -12 49 7 66 6 97 -8 21 -9 38
-20 38 -25 0 -4 91 -8 203 -8 l203 -2 13 28 13 27 16 -27 c21 -35 40 -41 68
-22 29 19 78 19 94 1 6 -8 17 -13 23 -11 7 2 31 6 53 9 36 5 42 3 47 -14 3
-11 1 -23 -5 -26 -6 -4 -65 -6 -132 -6 -122 1 -133 -9 -24 -23 37 -5 75 -2
119 9 35 9 89 17 119 19 l55 3 -57 2 c-80 3 -85 22 -6 23 48 1 56 3 33 9 l-30
7 35 6 c54 10 122 3 159 -16 19 -9 50 -17 70 -18 29 0 32 -2 16 -9 -14 -6 -4
-9 36 -9 44 -1 58 3 63 15 5 13 14 15 39 9 50 -11 116 -10 197 4 87 15 72 15
175 5 51 -4 107 -2 154 6 46 8 76 9 80 3 9 -14 89 -23 93 -11 3 7 17 6 42 -3
35 -13 39 -12 53 6 8 11 12 30 10 43 -2 12 0 25 5 28 5 4 6 24 2 48 -4 22 -6
56 -5 75 1 19 -3 59 -9 90 -7 31 -14 66 -16 79 -2 12 -11 22 -18 22 -11 0 -13
-10 -9 -41 l6 -41 -31 16 c-17 9 -47 16 -67 16 -39 0 -44 7 -17 26 16 12 16
13 -3 20 -10 4 -28 18 -40 30 -30 34 -68 40 -92 15 -18 -19 -19 -19 -58 -1
l-40 18 53 1 c38 1 52 5 49 14 -2 6 -11 11 -21 9 -9 -2 -16 1 -16 5 0 4 -56 9
-125 11 -83 2 -125 0 -125 -7 0 -6 -9 -11 -20 -11 -23 0 -26 -13 -7 -27 11 -9
58 -17 186 -29 24 -3 57 -12 73 -20 29 -15 29 -16 13 -34 -10 -11 -22 -17 -28
-13 -6 3 -7 1 -3 -5 4 -6 -5 -19 -19 -28 -14 -9 -25 -26 -25 -38 -1 -26 -33
-66 -54 -66 -8 0 -18 -4 -21 -10 -3 -5 -15 -10 -26 -10 -14 0 -18 -4 -13 -13
6 -8 3 -8 -9 1 -11 9 -21 11 -33 4 -11 -6 -13 -11 -5 -16 6 -4 11 -32 11 -63
l0 -56 -37 8 c-21 4 -81 11 -133 15 -52 3 -92 7 -87 8 4 1 0 13 -9 27 l-16 25
42 -15 c53 -19 89 -19 115 1 19 14 16 15 -34 12 -41 -2 -56 1 -64 14 -14 21 0
38 14 18 8 -12 9 -11 7 5 -2 13 -11 20 -26 20 -30 1 -63 30 -56 50 4 10 -1 22
-12 30 -11 7 -15 17 -11 21 4 5 12 2 17 -6 8 -13 10 -12 10 3 0 21 -20 59 -37
70 -7 4 -12 19 -11 32 2 21 8 25 36 25 19 0 31 4 27 10 -3 6 -22 10 -41 10
-19 0 -34 5 -34 10 0 6 5 10 11 10 5 0 8 4 5 9 -12 18 24 31 88 32 36 1 66 3
66 4 0 2 -5 16 -10 31 -10 26 -12 26 -66 20 -52 -6 -55 -5 -49 13 3 11 -1 34
-9 50 -19 37 -20 41 -2 41 9 0 12 8 8 25 -2 15 0 25 7 25 8 0 6 10 -4 30 -20
39 -45 238 -52 418 -3 87 -9 142 -16 142 -13 0 32 40 47 41 6 1 -2 5 -19 8
l-30 8 43 17 c23 10 42 22 42 27 0 5 -25 9 -56 9 -43 0 -55 3 -51 13 6 15 -33
55 -75 76 -33 17 -37 41 -6 41 12 0 19 -3 15 -6 -3 -3 15 -21 41 -39 38 -26
50 -30 65 -21 9 6 17 14 17 18 0 5 -8 8 -17 8 -34 1 -73 46 -73 85 0 24 -4 35
-15 35 -10 0 -15 11 -16 33 0 17 -3 41 -6 52 -3 11 -7 36 -8 55 -1 19 -5 48
-10 64 -5 17 -4 31 3 35 6 3 12 24 15 46 l4 40 1 -42 c2 -36 5 -43 22 -43 17
0 20 -7 20 -40 0 -33 3 -40 19 -40 11 0 22 -8 24 -17 3 -10 5 6 6 35 0 29 8
67 17 83 22 44 31 129 13 140 -8 5 -9 9 -3 9 6 0 10 14 9 30 -2 40 9 46 43 22
34 -24 87 -42 123 -42 21 0 29 -5 29 -17 0 -10 19 -67 41 -128 23 -60 47 -130
54 -155 7 -25 27 -88 44 -140 34 -104 66 -280 57 -314 -6 -22 19 -144 60 -286
13 -47 29 -110 34 -140 12 -63 51 -193 60 -200 9 -7 30 -94 30 -125 0 -40 37
-49 147 -35 50 7 97 9 104 5 9 -6 10 -1 5 21 -4 16 -12 32 -17 35 -6 3 -13 39
-15 80 -3 41 -9 96 -15 122 -5 26 -9 70 -9 97 0 28 -4 50 -10 50 -5 0 -10 12
-11 28 l0 27 -11 -25 c-11 -24 -11 -24 -19 15 -4 22 -10 72 -14 112 -7 68 -6
76 25 137 18 35 30 72 27 80 -9 24 -44 19 -51 -6 l-7 -23 -12 25 c-10 22 -12
17 -15 -49 -2 -41 2 -88 8 -104 5 -17 8 -51 4 -76 -3 -25 -1 -73 4 -106 10
-64 -2 -126 -26 -131 -7 -1 -8 0 -2 3 20 10 9 23 -30 39 -34 14 -40 21 -40 45
0 28 -16 68 -33 80 -5 3 -9 34 -11 68 -1 42 -7 68 -20 83 -16 19 -17 25 -5 60
10 31 19 40 41 45 48 10 31 22 -42 29 -75 7 -95 27 -40 39 34 7 40 31 10 40
-11 3 -20 13 -20 21 0 8 -4 14 -10 14 -5 0 -10 15 -10 34 0 19 -4 38 -10 41
-5 3 -10 32 -10 64 0 31 -4 61 -9 67 -11 12 -49 231 -55 323 -3 41 -10 79 -15
84 -5 5 -7 23 -4 39 4 21 0 35 -15 51 -11 12 -23 38 -27 57 -6 31 -42 128 -80
215 -16 37 -48 181 -43 194 5 15 203 -63 206 -82 2 -10 10 -17 17 -17 7 0 16
-13 20 -30 7 -33 25 -39 45 -15 24 29 40 18 40 -30 0 -32 6 -51 20 -65 11 -11
20 -33 20 -50 0 -19 7 -34 20 -42 11 -7 20 -21 20 -30 0 -9 11 -34 25 -54 14
-20 25 -42 25 -48 0 -6 9 -19 20 -29 11 -9 20 -25 20 -36 0 -10 6 -24 14 -30
17 -14 19 -80 3 -99 -7 -9 -11 -83 -12 -211 0 -148 -4 -202 -13 -214 -8 -9
-12 -30 -9 -49 l4 -33 1 38 c1 25 7 37 17 37 9 0 12 -6 9 -15 -11 -27 5 -65
27 -65 17 0 19 4 14 34 -4 20 -2 36 4 40 7 5 11 -2 11 -16 l1 -23 13 23 c7 14
11 46 9 75 -1 29 -4 108 -6 177 -2 70 -7 131 -11 138 -7 12 13 82 24 82 17 0
79 -110 85 -150 4 -25 11 -50 17 -57 5 -6 14 -42 19 -80 6 -37 27 -122 48
-188 73 -229 93 -324 116 -550 4 -33 15 -85 25 -115 30 -88 49 -180 53 -250 3
-58 6 -65 28 -71 38 -11 167 -10 174 1 3 6 -4 10 -17 11 -13 0 -18 3 -12 5 7
3 10 13 7 22 -2 10 0 36 5 59 l9 41 -38 6 c-26 4 -42 14 -50 29 -7 12 -23 33
-35 46 -30 30 -31 47 -2 27 23 -17 68 -22 68 -8 0 4 -11 19 -25 34 -21 23 -22
28 -10 38 19 16 19 44 0 60 -8 7 -15 20 -15 30 0 10 -7 21 -16 24 -9 3 -14 12
-11 19 2 6 0 22 -4 35 -5 12 -5 49 0 82 6 45 5 60 -5 60 -10 0 -44 41 -44 54
0 2 7 6 15 8 11 2 7 12 -18 41 -19 20 -40 38 -48 38 -19 2 65 22 144 34 40 6
42 25 2 25 -13 0 -31 7 -39 16 -10 9 -25 13 -38 10 -13 -3 -17 -3 -10 0 9 4 5
14 -16 33 -38 34 -42 47 -26 99 11 39 10 43 -7 52 -17 10 -19 23 -19 115 0 63
-4 105 -10 105 -14 0 -12 34 3 49 13 13 17 102 4 112 -4 3 -9 40 -10 82 l-2
77 -53 0 c-42 0 -57 5 -70 20 -10 11 -30 23 -47 26 -16 3 -38 12 -48 21 -16
15 -18 15 -32 -3 -8 -10 -13 -23 -11 -29 2 -5 -3 -23 -11 -39 -11 -21 -18 -25
-26 -17 -9 9 -9 14 2 20 10 7 9 11 -6 22 -10 8 -29 30 -40 49 -12 19 -30 44
-41 55 -26 28 -43 80 -30 93 7 7 4 10 -8 9 -10 -1 -19 4 -20 11 -1 6 -2 19 -3
27 0 8 -10 24 -21 35 -17 17 -18 20 -4 20 14 0 16 8 11 58 -7 67 -1 102 19
102 8 0 14 -5 14 -10 0 -6 6 -10 13 -8 6 1 29 -1 49 -5 33 -7 38 -12 43 -45
16 -101 29 -105 39 -12 14 126 18 131 123 128 43 -2 114 1 159 6 l81 9 6 -86
c4 -49 3 -97 -3 -111 -6 -16 -6 -26 0 -26 6 0 5 -10 -1 -24 -26 -56 50 -201
109 -208 25 -3 27 -7 30 -52 2 -28 -3 -65 -12 -87 -15 -37 -15 -39 4 -39 10 0
29 10 41 23 18 19 20 31 16 95 -3 50 0 75 9 83 8 7 14 7 19 -1 4 -6 16 2 30
19 20 23 25 43 29 102 l5 74 -25 -50 c-13 -27 -24 -63 -24 -78 0 -36 -20 -25
-20 11 l-1 27 -13 -24 c-20 -35 -29 -9 -15 40 11 36 11 42 -4 51 -21 11 -23
42 -2 34 9 -3 19 3 25 14 6 11 8 20 5 20 -3 0 -1 8 4 18 7 13 6 23 -2 31 -9
10 -9 12 3 11 42 -6 69 0 64 15 -5 11 -2 13 10 9 9 -3 16 -1 16 6 0 6 5 8 10
5 6 -3 10 -2 10 4 0 6 -14 7 -34 4 -49 -8 -86 19 -86 63 0 18 5 36 11 40 8 4
9 -3 5 -22 -7 -32 0 -46 28 -61 26 -14 56 -5 66 21 9 21 9 21 9 -1 1 -32 16
-28 40 10 18 29 24 33 56 29 40 -5 43 3 18 47 -15 25 -16 34 -5 51 6 11 12 43
12 72 0 29 7 125 15 213 22 236 20 275 -16 375 -17 47 -36 103 -42 126 -9 33
-18 44 -50 60 -52 25 -78 61 -84 116 -4 38 -2 49 18 67 23 21 23 22 6 66 -9
25 -14 52 -11 60 4 8 2 15 -4 15 -5 0 -12 8 -15 18 -3 9 -17 48 -31 86 -14 37
-23 72 -20 77 3 5 0 9 -7 9 -7 0 -27 17 -44 38 -33 38 -163 132 -183 132 -6 0
-31 14 -55 30 -25 17 -51 30 -59 30 -8 0 -51 12 -96 28 -72 24 -86 32 -105 64
-12 20 -36 56 -53 80 -33 45 -51 125 -28 121 7 -1 10 6 7 20 -3 16 -2 18 5 8
8 -10 12 -6 17 19 5 23 3 35 -6 41 -10 6 -15 2 -17 -16 -2 -14 -8 -25 -13 -25
-12 0 -12 47 1 55 16 10 12 86 -5 99 -8 6 -16 26 -18 43 -2 18 -11 41 -20 50
-15 17 -11 18 76 12 51 -3 101 -9 112 -12 11 -4 74 -11 140 -17 66 -6 145 -14
175 -19 30 -5 86 -10 123 -10 38 -1 76 -5 85 -10 9 -5 69 -11 132 -14 63 -3
104 -3 90 -1 -14 3 -32 8 -40 12 -8 3 -31 7 -50 9 -19 1 -84 7 -145 12 -325
28 -455 42 -505 53 l-55 12 45 6 c25 3 -10 5 -77 4 -96 -2 -124 1 -134 12 -9
11 -15 11 -25 3 -7 -6 -17 -8 -22 -5 -9 5 -63 -30 -70 -46 -2 -5 -18 -8 -36
-8 -17 0 -58 -7 -89 -15 -73 -19 -94 -19 -105 1 -12 22 -76 15 -80 -9 -6 -31
7 -67 25 -67 9 0 13 -3 9 -7 -4 -5 -13 -8 -18 -8 -6 0 -13 -6 -15 -12 -6 -18
16 -16 83 9 48 17 82 22 179 22 135 1 195 -13 195 -45 0 -31 -25 -34 -126 -15
-103 20 -122 18 -233 -25 -71 -27 -76 -28 -94 -11 -19 16 -20 16 -15 -10 3
-18 1 -28 -7 -28 -16 0 -27 -42 -15 -54 7 -7 10 -4 10 7 0 9 5 17 11 17 6 0 9
-9 6 -20 -3 -13 1 -24 14 -30 17 -10 19 -7 19 25 0 46 15 44 40 -5 21 -42 26
-70 11 -70 -5 0 -12 -8 -14 -17 -3 -14 -8 -10 -18 15 -7 17 -17 32 -22 32 -9
0 -4 -35 11 -73 16 -37 15 -54 -2 -64 -23 -14 -47 -73 -53 -129 -5 -44 -12
-59 -34 -78 -15 -13 -25 -27 -21 -30 10 -11 -21 -26 -41 -20 -10 3 -19 -1 -23
-9 -3 -8 -25 -22 -49 -31 -24 -10 -49 -24 -55 -32 -22 -25 -37 -15 -60 41 -29
71 -68 104 -164 139 -53 20 -80 35 -83 47 -3 11 -9 19 -14 19 -5 0 -20 17 -33
38 -13 22 -48 53 -80 72 -49 30 -56 38 -56 66 0 18 8 38 19 48 11 10 17 24 14
32 -3 8 1 14 10 14 19 0 41 62 32 90 -3 11 -15 20 -26 20 -17 0 -19 8 -19 82
0 45 5 96 11 113 10 27 9 36 -12 68 -28 41 -52 55 -129 69 -65 13 -89 13 -154
0 -40 -8 -55 -17 -85 -53 -48 -58 -79 -167 -67 -234 l7 -36 20 24 c11 15 19
41 19 65 0 58 27 84 95 90 31 2 68 -1 84 -8 16 -6 49 -13 73 -15 23 -1 51 -3
60 -4 12 -1 19 -13 23 -38 8 -50 54 -143 71 -143 9 0 14 -11 14 -27 0 -20 -3
-24 -9 -14 -5 8 -16 11 -25 8 -19 -8 -21 -27 -3 -28 18 -1 -34 -21 -66 -26
-25 -4 -28 -1 -25 19 2 13 11 24 22 26 14 3 17 0 13 -12 -4 -10 -1 -16 8 -16
18 0 20 27 3 33 -10 3 -10 7 -1 19 14 16 10 55 -7 72 -15 15 -246 9 -280 -7
-38 -19 -31 -45 19 -74 l44 -24 23 22 c13 12 24 29 24 36 0 9 8 13 22 11 17
-2 25 -14 35 -47 7 -24 10 -48 7 -52 -3 -5 -21 -9 -40 -9 -30 0 -34 -3 -34
-25 0 -18 -5 -25 -20 -25 -24 0 -24 0 -5 36 20 40 2 42 -60 10 -36 -20 -52
-23 -66 -15 -10 5 -20 7 -20 4 -5 -20 -3 -32 7 -42 13 -13 29 -102 20 -110 -3
-3 -24 -8 -48 -10 l-43 -5 -12 53 c-21 100 -28 117 -54 137 -27 22 -136 46
-162 36 -9 -3 -33 0 -53 6 -23 8 -39 9 -43 3 -3 -6 -19 -13 -34 -17 -15 -4
-44 -21 -64 -39 -33 -31 -35 -37 -38 -106 -3 -70 12 -133 43 -187 10 -17 11
-16 11 11 0 17 -4 47 -8 69 -6 25 -6 47 1 61 9 20 18 23 73 23 56 0 65 4 93
31 23 24 39 31 69 31 42 0 83 -23 83 -46 0 -8 13 -27 29 -42 53 -50 79 -202
44 -252 -10 -14 -23 -36 -30 -50 l-11 -25 -1 28 c-1 27 -44 80 -73 89 -9 3 -6
14 14 40 15 20 24 38 21 42 -4 3 2 6 11 6 28 0 12 24 -20 31 -27 6 -27 7 -4 8
38 2 57 17 30 24 -42 11 -160 -38 -122 -51 7 -2 9 -8 6 -13 -8 -13 25 -49 44
-49 9 0 12 -6 8 -16 -3 -8 -1 -25 5 -36 10 -18 8 -19 -11 -13 -15 5 -25 2 -31
-6 -6 -11 -11 -11 -20 -2 -10 10 -17 9 -31 -4 -17 -15 -18 -14 -18 13 0 16 4
45 9 65 10 46 -12 63 -67 53 -51 -9 -72 -22 -72 -43 0 -20 66 -71 92 -71 9 0
18 -7 22 -15 3 -9 0 -15 -9 -15 -8 0 -15 -5 -15 -11 0 -5 -4 -8 -9 -5 -5 4
-11 0 -14 -6 -4 -10 -7 -11 -18 0 -21 20 -27 14 -22 -22 3 -24 -4 -51 -25 -92
-16 -33 -35 -81 -42 -107 -12 -45 -40 -77 -67 -77 -6 0 -36 47 -65 106 -66
131 -125 193 -217 224 -73 24 -101 40 -101 57 0 7 -8 13 -17 13 -10 0 -27 7
-37 15 -11 8 -34 15 -50 15 -49 0 -134 40 -140 66 -7 28 4 114 15 114 4 0 11
16 15 37 5 29 3 39 -12 50 -13 9 -19 28 -21 60 -5 84 -29 138 -89 193 l-56 50
-77 0 c-65 0 -86 -5 -132 -27 -77 -40 -94 -77 -94 -208 -1 -55 -5 -106 -9
-114 -5 -7 -3 -31 3 -55 7 -22 15 -52 19 -65 4 -13 13 -26 20 -29 17 -5 15 56
-3 88 -8 14 -14 34 -14 45 0 14 4 10 14 -13 11 -24 19 -32 32 -28 31 9 88 10
100 3 7 -4 18 2 27 14 10 15 20 19 33 14 10 -4 47 -8 83 -10 l66 -2 19 39 c16
33 20 37 26 21 7 -16 8 -16 8 0 1 9 8 17 17 17 11 0 14 -5 9 -17 -4 -10 -10
-27 -13 -38 -2 -11 -9 -25 -14 -32 -17 -21 -25 -123 -12 -145 9 -15 -36 -82
-74 -110 -82 -58 -173 -40 -234 46 l-32 46 -40 -43 c-38 -39 -135 -97 -164
-97 -7 0 -22 -21 -34 -47 l-20 -47 -19 40 c-27 57 -82 100 -167 132 -55 20
-77 34 -88 55 -15 27 -14 29 27 67 40 37 42 41 29 65 -7 14 -10 28 -7 32 4 3
-3 11 -14 17 -12 6 -27 29 -35 51 -7 22 -18 41 -24 43 -5 2 -10 10 -10 17 0 7
-22 24 -50 38 -27 14 -50 21 -50 16 0 -5 -3 -9 -7 -9 -5 0 -8 37 -9 83 0 93
-13 127 -68 175 -98 86 -253 57 -313 -59 -17 -32 -23 -59 -23 -110 0 -56 -3
-67 -15 -63 -10 4 -16 -3 -21 -23 -4 -15 -17 -35 -28 -43 -32 -23 -67 -40 -61
-30 4 6 2 10 -4 10 -6 0 -8 7 -5 15 5 12 -7 14 -80 12 l-86 -2 0 36 c0 19 -4
39 -9 45 -15 15 -17 60 -3 77 11 13 10 18 -3 29 -9 7 -25 21 -36 31 -10 9 -19
14 -19 11 0 -4 -12 2 -27 11 -41 27 -192 29 -241 3 -20 -11 -54 -29 -74 -39
-53 -27 -75 -64 -77 -131 -2 -45 2 -60 18 -75 24 -22 43 -115 20 -97 -8 6 -36
19 -62 29 -31 12 -44 21 -36 26 7 4 17 6 21 3 12 -8 49 16 43 27 -4 5 -44 9
-91 9 -59 0 -86 4 -88 13 -3 6 -7 25 -11 40 -8 37 -47 76 -84 83 -29 6 -29 7
-28 73 0 36 5 69 11 73 8 5 7 11 -1 19 -10 10 -9 15 1 23 11 9 12 34 6 123
-11 154 -34 212 -83 204 -4 -1 -20 5 -35 13 -35 17 -119 25 -157 14z m95 -196
c79 16 105 0 113 -69 3 -26 10 -49 16 -51 6 -2 11 -16 11 -32 0 -16 4 -30 9
-32 5 -1 7 -15 4 -30 -5 -27 -7 -28 -67 -27 -57 0 -168 15 -137 18 10 1 12 10
8 37 -5 29 -3 35 10 32 9 -2 17 -11 19 -21 1 -10 8 -25 14 -32 16 -20 79 -20
86 0 4 8 10 12 15 9 5 -3 9 13 9 35 0 37 -2 41 -33 46 -19 4 -51 0 -77 -9 -40
-14 -49 -14 -89 0 -33 11 -51 12 -74 4 -39 -13 -42 -13 -28 4 7 8 11 30 9 48
-3 30 1 35 37 54 29 16 46 19 64 12 14 -5 45 -4 81 4z m-6238 -269 c11 -10 28
-34 39 -54 l18 -36 -46 5 c-40 4 -48 2 -64 -19 -18 -23 -20 -23 -33 -6 -8 11
-31 24 -51 31 -37 13 -39 17 -22 53 23 50 115 66 159 26z m7803 14 c43 -11 50
-17 53 -40 3 -21 0 -26 -12 -21 -19 7 -22 -16 -5 -33 9 -9 1 -9 -31 -1 -30 8
-52 8 -78 0 -24 -8 -40 -8 -46 -2 -6 6 -20 10 -33 10 -16 0 -23 6 -23 20 0 15
7 20 28 20 15 0 36 7 46 15 17 13 18 15 3 15 -9 0 -17 7 -17 15 0 19 46 20
115 2z m-7131 -81 c21 -15 49 -53 66 -88 32 -65 37 -88 18 -88 -28 -1 -154
-19 -168 -25 -12 -4 -16 4 -17 37 l-3 43 20 -25 c11 -14 20 -28 20 -32 0 -12
64 3 76 18 6 8 16 14 23 14 6 0 11 7 11 15 0 11 -11 15 -37 15 -28 0 -34 3
-23 10 8 5 22 7 32 4 19 -6 34 11 18 21 -6 4 -35 7 -63 7 -37 -1 -56 -6 -67
-19 -11 -13 -26 -17 -51 -15 -34 3 -38 6 -48 47 -14 57 -16 52 22 76 46 29
123 22 171 -15z m6406 -66 c10 -5 26 -33 36 -62 9 -29 23 -57 30 -61 8 -4 14
-24 14 -42 0 -37 13 -47 24 -18 6 15 8 15 16 3 6 -8 10 -26 10 -39 0 -20 -2
-21 -15 -11 -13 11 -15 9 -15 -13 0 -14 6 -27 13 -30 10 -4 17 10 25 45 16 65
16 66 -10 70 -18 2 -22 8 -20 28 2 14 5 25 5 26 1 0 32 -2 70 -5 l68 -6 -21
-40 c-13 -26 -20 -58 -20 -95 1 -49 4 -59 35 -90 19 -19 35 -39 35 -46 0 -6
-21 -15 -47 -19 -58 -8 -136 -40 -158 -65 -15 -16 -14 -20 5 -53 12 -19 31
-42 43 -50 25 -16 303 -137 316 -137 35 0 147 -249 153 -340 2 -22 6 -40 9
-40 3 0 12 -42 18 -92 7 -51 17 -124 22 -163 6 -38 13 -122 16 -185 10 -191
-47 -510 -90 -510 -9 0 -9 -2 0 -8 17 -11 -3 -76 -33 -105 -13 -14 -25 -42
-29 -71 -4 -27 -14 -61 -21 -75 -8 -14 -14 -34 -14 -45 0 -15 -10 -10 -47 25
-27 25 -64 57 -83 72 -33 26 -33 27 -9 22 33 -8 41 10 33 77 -6 45 -4 50 12
46 11 -2 23 -13 29 -26 10 -24 35 -30 36 -9 0 6 5 3 10 -8 6 -13 7 -4 2 29 -4
32 -14 59 -29 75 -32 34 -26 46 19 43 48 -4 48 12 0 53 -23 20 -34 36 -29 44
6 9 11 9 22 0 8 -6 14 -8 14 -5 0 4 9 2 21 -5 28 -14 46 2 25 24 -14 13 -13
15 6 20 l21 6 -22 18 c-24 19 -21 53 5 53 21 0 17 38 -6 52 -24 15 -26 46 -5
54 9 4 15 19 15 35 0 16 5 29 10 29 18 0 11 48 -7 53 -10 3 -5 5 12 6 48 2 63
17 29 29 l-29 10 33 7 c37 9 37 24 2 42 -19 9 -26 9 -32 0 -5 -7 -8 0 -8 18 0
24 2 27 11 15 9 -12 10 -12 5 3 -3 10 -6 34 -6 53 0 26 -3 32 -15 28 -8 -4
-15 -12 -15 -19 0 -6 -11 -24 -25 -39 -14 -15 -25 -32 -25 -37 0 -6 -4 -8 -9
-5 -5 4 -3 28 4 59 8 28 16 84 18 122 2 39 12 87 22 108 13 27 15 41 7 49 -6
6 -8 17 -5 24 3 8 0 14 -6 14 -6 0 -11 11 -11 24 0 14 -4 28 -10 31 -6 3 -10
-4 -10 -18 0 -14 -7 -42 -16 -63 -9 -21 -18 -47 -20 -57 -2 -11 -6 -22 -10
-26 -11 -10 13 128 37 211 13 48 6 75 -12 48 -8 -11 -9 -7 -5 17 3 18 1 35 -4
38 -14 9 -32 -34 -27 -63 3 -14 -5 -56 -18 -92 -13 -36 -28 -101 -34 -145 -13
-93 -16 -356 -6 -467 6 -58 5 -78 -4 -78 -7 0 -10 -4 -6 -9 3 -6 3 -46 -1 -90
-5 -57 -11 -81 -20 -81 -7 0 -16 -16 -20 -35 -3 -19 -10 -37 -14 -40 -5 -3 -6
-14 -3 -25 7 -25 -29 -40 -92 -40 -24 0 -46 -3 -48 -7 -3 -5 23 -7 56 -5 45 2
58 0 47 -7 -8 -6 -10 -11 -5 -11 6 0 3 -5 -5 -10 -12 -8 -10 -10 9 -10 13 0
22 -2 19 -5 -3 -3 -45 -8 -94 -11 -49 -3 -95 -7 -101 -9 -7 -2 -13 2 -13 9 0
18 19 33 50 39 21 4 20 4 -7 6 -17 0 -34 5 -37 10 -3 4 5 6 19 4 16 -4 32 3
49 20 19 19 38 27 71 28 25 2 45 7 45 12 0 6 -27 8 -65 5 -42 -4 -68 -2 -73 6
-15 18 -24 67 -22 124 1 46 -1 52 -19 52 -16 0 -21 6 -21 25 0 18 -4 23 -15
19 -12 -5 -15 -28 -17 -108 l-1 -101 -8 95 c-13 158 -29 612 -29 820 0 172 10
303 24 317 4 4 55 18 95 27 21 4 26 26 7 26 -23 0 -20 18 9 52 28 33 34 58 10
38 -13 -11 -15 -10 -10 1 2 8 1 20 -4 27 -6 11 -14 8 -34 -12 -26 -26 -62 -32
-102 -17 -18 7 -17 9 11 24 56 29 110 120 118 198 2 24 1 71 -4 104 -4 33 -8
48 -9 33 -3 -60 -22 -124 -42 -136 -17 -11 -21 -9 -29 13 -5 14 -14 25 -20 25
-13 0 -13 47 0 55 16 10 12 25 -7 26 -10 0 -3 5 15 10 39 12 37 31 -4 40 -27
6 -27 7 9 8 44 1 48 15 10 28 -42 14 -106 -7 -114 -38 -4 -13 -7 -19 -8 -14
-3 28 -87 44 -135 25 -36 -13 -33 -30 15 -79 34 -34 39 -44 29 -56 -7 -8 -18
-15 -26 -15 -7 0 -16 -10 -20 -22 -5 -18 -8 -19 -15 -6 -18 33 -39 162 -39
242 0 74 2 85 24 105 21 20 32 22 73 17 26 -3 73 -2 103 3 78 12 89 12 110 1z
m4627 -38 c17 -50 1 -105 -43 -154 -19 -21 -34 -47 -34 -58 0 -11 -8 -23 -17
-26 -10 -3 -28 -11 -41 -17 -18 -8 -26 -7 -39 6 -16 16 -16 18 2 32 11 8 15
15 8 15 -7 0 -13 5 -13 10 0 6 16 10 36 10 25 0 43 7 55 22 17 19 18 23 4 44
-20 32 -19 43 8 64 13 10 29 37 37 59 15 46 19 46 37 -7z m-11694 -82 c12 1
33 7 47 15 14 8 27 14 30 15 3 0 4 -31 3 -68 -2 -66 -4 -71 -41 -108 -55 -55
-82 -67 -133 -61 -112 13 -144 26 -154 64 -3 12 -16 33 -30 45 l-24 23 17 68
c16 70 28 81 50 47 20 -33 91 -28 127 10 l28 29 28 -39 c19 -27 37 -40 52 -40z
m1250 -184 c21 -22 28 -37 25 -58 -3 -15 0 -29 6 -30 6 0 -11 -4 -39 -7 -34
-4 -54 -2 -63 7 -7 6 -20 12 -28 12 -8 0 -13 9 -11 22 1 15 -4 23 -16 26 -15
3 -18 0 -13 -16 5 -15 0 -21 -25 -28 -18 -5 -37 -17 -43 -27 -9 -15 -6 -22 16
-42 16 -13 36 -29 45 -34 27 -16 -4 -33 -47 -26 -58 10 -66 14 -78 40 -15 33
-7 50 34 74 26 15 36 30 45 65 11 43 13 45 53 49 94 8 110 5 139 -27z m3931 9
c13 -9 29 -29 36 -45 7 -17 15 -30 19 -30 3 0 11 -8 17 -17 10 -16 7 -18 -36
-15 -48 4 -90 -10 -90 -28 0 -6 8 -10 18 -10 13 0 14 -2 3 -9 -7 -5 -13 -21
-13 -35 0 -38 -20 -27 -23 12 -3 41 -21 62 -54 63 -14 0 -20 3 -13 6 6 2 12
11 12 18 0 8 8 19 18 24 15 9 15 10 0 11 -26 0 -10 40 16 40 12 0 31 7 42 15
24 18 20 18 48 0z m6794 -231 c41 -26 26 -101 -26 -128 -76 -38 -175 -24 -188
28 -15 61 17 100 96 115 51 9 85 5 118 -15z m-665 -131 c4 -48 4 -89 1 -92 -5
-5 -85 -18 -176 -27 l-58 -6 0 91 0 91 53 0 c28 0 75 7 102 14 28 8 55 15 61
15 7 1 13 -32 17 -86z m-4587 25 c4 -6 3 -8 -4 -4 -6 3 -13 2 -16 -3 -4 -5 -1
-13 5 -17 8 -4 7 -9 -2 -15 -19 -12 -32 -11 -24 1 3 6 0 10 -7 10 -13 0 -44
-57 -36 -65 9 -9 94 18 111 36 10 10 28 18 40 18 15 -1 17 -3 6 -6 -17 -4 -39
-43 -39 -68 0 -9 14 -13 45 -13 25 0 52 -6 60 -12 10 -9 19 -8 37 4 27 18 68
17 68 0 0 -7 6 -19 13 -26 11 -10 13 -60 13 -218 -1 -113 3 -374 7 -580 5
-206 6 -372 3 -369 -4 3 -7 51 -8 105 l-2 99 -12 -50 -12 -50 3 75 c2 41 1 63
-1 47 -3 -15 -10 -25 -15 -22 -5 4 -9 -1 -9 -10 0 -13 -4 -12 -22 5 -17 16
-30 19 -57 14 -53 -9 -71 -14 -71 -23 0 -4 -17 -5 -37 -2 -32 5 -38 11 -41 34
-2 18 -9 27 -21 27 -10 0 -20 12 -26 32 -13 41 -28 45 -45 11 -18 -40 -21 -18
-7 52 10 50 16 61 35 63 24 4 28 12 11 29 -14 14 5 53 25 53 27 0 36 -75 14
-99 -10 -11 -10 -13 0 -7 7 4 12 2 13 -6 3 -35 18 76 18 137 1 64 -9 120 -56
315 -9 36 -19 81 -23 100 -13 62 -22 80 -41 80 -11 0 -20 6 -20 13 -8 83 -38
126 -64 91 -10 -14 -15 -14 -34 -4 -27 14 -36 8 -26 -17 11 -26 14 -73 5 -73
-4 0 -23 7 -41 15 -32 13 -26 20 15 15 26 -2 15 24 -12 28 -28 4 -28 10 5 79
30 63 60 103 78 103 10 0 37 12 145 62 43 20 47 21 56 6z m-6634 -78 c4 0 9 8
11 18 3 9 5 -5 6 -33 0 -28 -7 -72 -19 -100 -10 -27 -19 -42 -20 -32 0 13 -9
17 -44 17 -36 0 -47 5 -61 26 -9 14 -22 23 -30 21 -8 -4 -15 5 -19 21 -3 15
-8 37 -12 49 -5 18 -3 21 16 16 12 -3 27 -16 32 -29 6 -13 14 -24 17 -24 16 1
53 42 63 71 l11 32 21 -26 c12 -15 25 -27 28 -27z m11691 -40 c3 -13 0 -20 -9
-20 -8 0 -14 5 -14 10 0 28 -37 1 -45 -33 -7 -26 -5 -27 28 -27 27 0 40 6 55
27 23 31 58 26 49 -7 -7 -27 1 -25 25 6 15 19 27 25 46 21 18 -3 26 0 29 14 3
11 12 19 20 19 10 0 12 -6 8 -21 -6 -17 -4 -20 13 -15 23 8 47 -17 38 -39 -8
-21 -92 -21 -100 0 -8 22 -31 18 -43 -8 -10 -22 -16 -23 -99 -21 -49 1 -92 2
-96 3 -5 0 -8 16 -8 35 0 26 7 38 28 52 53 37 66 38 75 4z m-1040 0 c3 -3 7
-30 8 -60 l3 -55 -58 3 c-64 4 -125 35 -126 65 0 13 -5 17 -18 12 -11 -3 -32
1 -48 10 -16 8 -35 15 -41 15 -7 0 -13 5 -13 11 0 11 283 10 293 -1z m683 -54
c-6 -23 -4 -24 33 -19 44 6 62 -10 31 -27 -16 -8 -19 -15 -11 -24 27 -32 -30
-35 -59 -4 l-21 23 -6 -23 c-3 -13 -13 -22 -25 -22 -15 0 -19 5 -14 18 4 11
-1 8 -12 -7 -11 -13 -24 -21 -29 -18 -6 4 -31 0 -56 -9 -32 -11 -51 -13 -64
-5 -12 6 -25 6 -34 1 -7 -5 -21 -7 -31 -4 -9 2 -19 0 -23 -6 -15 -23 -22 3
-12 42 11 46 21 58 51 58 13 0 16 -5 11 -17 -4 -10 -9 -25 -12 -33 -4 -8 10 0
28 18 37 34 59 41 59 18 0 -15 43 -16 57 -3 3 4 23 7 44 7 31 0 41 5 56 30 21
37 48 41 39 6z m-13300 -81 c1 -57 -6 -73 -22 -50 -12 16 -14 15 -20 -10 -5
-19 -9 -23 -15 -14 -6 10 -10 7 -17 -11 l-10 -25 -7 27 c-11 42 -25 23 -25
-34 0 -28 -3 -49 -6 -45 -11 10 -34 -20 -40 -52 -4 -17 -10 -31 -15 -31 -5 0
-9 -7 -9 -15 0 -8 -4 -15 -10 -15 -5 0 -10 -25 -10 -55 0 -42 6 -65 25 -96 14
-22 23 -44 20 -49 -3 -5 0 -12 6 -15 5 -4 8 -13 5 -21 -3 -8 -1 -26 5 -41 7
-19 7 -29 0 -31 -6 -2 -9 -8 -5 -13 3 -5 -3 -9 -13 -9 -17 -1 -17 -1 0 -11 9
-5 17 -16 17 -23 0 -7 10 -18 23 -25 l22 -12 -22 6 c-13 3 -33 8 -45 11 -20 5
-21 4 -5 -6 22 -14 24 -55 2 -46 -37 14 -8 -39 37 -68 27 -18 27 -18 8 -35
-20 -16 -19 -17 35 -54 64 -44 125 -60 125 -33 0 16 2 16 15 2 12 -11 14 -25
9 -52 -5 -26 -3 -39 7 -46 10 -7 5 -8 -15 -3 -41 9 -126 67 -159 110 -15 19
-31 35 -36 35 -10 0 -1 -63 10 -70 5 -3 10 -21 11 -39 2 -19 12 -44 24 -55 11
-12 25 -28 30 -36 5 -8 19 -23 31 -34 22 -19 23 -19 83 38 51 47 90 69 90 52
0 -2 3 -11 6 -19 4 -12 0 -14 -14 -10 -23 6 -75 -38 -53 -45 27 -9 -84 -55
-147 -60 l-64 -5 -54 58 c-30 32 -57 55 -61 52 -3 -4 5 -30 19 -59 31 -68 48
-118 40 -118 -13 0 -87 111 -105 158 -35 89 -40 180 -24 427 2 34 1 34 -116
21 -48 -6 -75 -5 -91 3 -17 9 -29 9 -59 -4 -20 -8 -37 -22 -37 -29 0 -18 -58
-32 -72 -18 -6 6 -7 19 -3 29 4 10 9 30 9 45 2 23 -1 25 -17 16 -29 -15 -66
-1 -73 27 -8 33 2 57 23 53 23 -4 27 -23 7 -42 -26 -26 -10 -29 35 -7 22 12
51 21 63 21 24 0 146 -24 213 -43 22 -6 45 -9 50 -7 6 1 32 8 60 15 l49 11 21
130 c29 173 82 297 174 405 26 31 40 39 60 37 23 -3 26 -8 27 -43z m11056 1
c16 -23 8 -81 -15 -109 l-22 -28 -32 23 c-32 22 -53 62 -53 99 0 12 10 21 28
25 15 3 32 7 37 9 15 5 49 -6 57 -19z m-9927 -100 c2 -17 6 -81 7 -143 2 -82
0 -109 -8 -102 -14 11 -24 -10 -24 -49 0 -20 3 -23 9 -13 6 10 11 -4 16 -45 4
-32 11 -77 16 -99 7 -32 5 -42 -8 -52 -10 -8 -12 -13 -5 -13 22 0 13 -37 -13
-54 -27 -17 -74 -13 -76 8 -6 49 -6 63 2 81 4 11 8 14 8 8 1 -8 14 -13 31 -13
29 0 30 0 24 48 -3 26 -9 63 -15 83 -9 36 -3 95 12 114 4 6 11 38 14 71 6 54
4 68 -18 113 -15 28 -22 51 -17 51 5 0 12 -4 15 -10 3 -5 12 -10 18 -9 9 0 9
2 1 5 -7 3 -10 14 -7 25 3 10 -1 27 -8 37 -13 15 -12 16 3 3 10 -7 20 -27 23
-45z m10918 -208 c9 -46 19 -105 23 -133 3 -27 7 -63 10 -80 3 -24 2 -26 -5
-10 -5 11 -10 36 -10 55 -2 50 -11 61 -46 52 l-29 -8 24 -24 c18 -18 21 -26
12 -39 -32 -45 -43 -74 -33 -84 18 -18 13 -25 -24 -37 -34 -11 -45 -25 -26
-32 4 -1 11 -13 15 -25 6 -18 4 -21 -15 -16 -16 4 -20 2 -17 -8 3 -8 16 -13
30 -11 14 1 31 -4 38 -13 10 -12 8 -16 -15 -25 -14 -5 -31 -10 -36 -10 -5 0
-9 -4 -9 -10 0 -5 5 -10 10 -10 16 0 12 -36 -6 -51 -14 -12 -14 -14 3 -20 13
-5 6 -8 -22 -9 -22 -2 -44 -2 -48 -1 -5 1 -6 -3 -2 -9 3 -5 15 -10 26 -10 44
0 14 -17 -46 -26 -61 -9 -66 -8 -72 11 -4 11 -5 34 -4 51 1 18 -1 34 -6 37 -5
3 -7 36 -6 74 2 50 7 71 20 81 15 11 14 12 -11 12 -27 0 -28 2 -23 34 3 22 1
37 -6 40 -7 3 -6 5 3 5 21 1 26 109 5 118 -8 3 -15 16 -15 28 0 46 31 160 47
173 11 8 55 12 133 12 l115 0 18 -82z m-9801 -188 c9 -19 17 -44 17 -55 0 -20
0 -20 -14 -1 -8 11 -15 15 -15 9 0 -11 -16 -14 -132 -27 l-48 -6 0 51 c0 61
14 69 110 66 63 -2 65 -3 82 -37z m-866 -196 c14 -48 3 -195 -20 -238 l-14
-28 -7 40 c-8 48 -63 110 -105 119 -16 3 -35 12 -41 19 -9 11 -7 14 12 15 13
1 17 3 9 5 -19 6 -21 107 -2 125 6 7 12 19 12 26 0 15 26 18 35 3 3 -5 16 -10
28 -10 12 0 28 -9 35 -21 20 -31 26 -16 8 20 -24 46 -19 48 11 5 14 -21 32
-57 39 -80z m6951 62 l28 -15 -42 -1 c-24 0 -43 -2 -43 -5 0 -2 9 -20 20 -40
11 -19 17 -42 14 -50 -4 -8 -1 -15 6 -15 8 0 11 -12 8 -37 -3 -27 0 -41 11
-50 14 -10 14 -13 -2 -30 -23 -27 -21 -43 6 -44 12 0 16 -3 10 -6 -15 -6 -17
-30 -3 -35 5 -1 -2 -18 -16 -36 -15 -18 -32 -31 -40 -28 -7 3 -14 0 -16 -6 -2
-6 -12 -3 -23 8 -18 19 -18 19 11 22 36 5 44 17 34 53 -6 19 -4 30 3 33 7 3
-2 3 -20 0 -17 -3 -34 0 -38 5 -3 6 2 11 13 11 31 0 47 26 29 45 -9 8 -23 15
-31 15 -9 0 -16 5 -16 10 0 6 9 10 20 10 13 0 20 7 20 20 0 11 -4 20 -10 20
-5 0 -10 5 -10 11 0 6 -10 19 -22 29 l-22 17 22 7 c12 4 26 4 32 1 5 -3 10 1
10 9 0 9 -11 18 -24 22 -15 3 -23 11 -19 19 2 8 -5 20 -16 27 -12 7 -21 15
-21 18 0 11 111 0 137 -14z m-6053 -77 c13 -64 10 -69 -38 -69 -25 0 -67 -5
-95 -12 -28 -6 -53 -9 -56 -6 -3 3 -7 25 -8 48 -2 40 0 43 33 56 19 7 63 13
96 13 61 1 62 1 68 -30z m9 -186 c3 -5 8 -28 12 -53 l7 -45 -84 -12 c-46 -6
-86 -8 -89 -5 -4 4 -10 28 -13 53 l-7 47 58 10 c75 12 111 14 116 5z m9614
-21 c-16 -7 -14 -12 17 -45 28 -31 31 -37 15 -37 -11 0 -19 -6 -19 -14 0 -8
-13 -23 -29 -32 -17 -10 -28 -21 -25 -26 3 -4 -2 -8 -10 -8 -9 0 -15 6 -13 12
1 7 -8 14 -20 16 -18 3 -21 9 -18 32 2 18 -2 30 -11 34 -20 8 -18 43 4 54 9 5
32 7 50 5 20 -3 32 -1 32 6 0 6 10 11 23 10 19 0 19 -1 4 -7z m-10613 -44 c11
-43 -4 -98 -36 -137 -14 -19 -21 -22 -27 -12 -6 9 -10 6 -15 -11 -5 -14 -9
-18 -13 -10 -2 6 -9 10 -14 6 -5 -3 -9 4 -9 16 0 12 4 19 9 16 9 -6 21 16 21
40 0 20 -20 17 -21 -3 0 -17 -1 -17 -7 0 -4 10 -6 34 -4 55 3 28 11 42 36 58
47 31 69 26 80 -18z m7098 -119 c3 -17 0 -29 -6 -28 -28 3 -56 -2 -56 -10 0
-6 21 -16 48 -24 29 -9 38 -15 25 -16 -30 -1 -29 -10 8 -48 28 -31 28 -33 9
-33 -12 0 -18 -4 -15 -10 4 -6 15 -8 26 -5 32 10 22 -22 -11 -37 -44 -19 -37
-32 15 -25 56 8 58 -6 5 -33 -45 -23 -50 -24 -50 -10 0 6 7 10 16 10 8 0 13 4
10 9 -3 4 -17 6 -31 3 -15 -2 -25 0 -25 7 0 6 6 11 13 11 24 1 -39 29 -65 30
-43 0 -33 17 13 23 41 5 88 40 69 52 -6 3 -14 3 -20 0 -5 -3 -10 0 -10 7 0 7
-9 19 -20 26 -12 7 -19 16 -16 21 5 8 -20 23 -56 35 -30 9 -20 26 15 25 42 0
97 11 97 21 0 4 -7 11 -16 14 -8 3 -13 10 -9 15 11 18 33 0 37 -30z m-8102
-157 c14 -3 27 -32 35 -79 6 -36 4 -43 -9 -43 -9 0 -16 -6 -16 -14 0 -39 -116
-21 -138 21 -41 77 -16 120 66 118 29 -1 56 -3 62 -3z m-1295 -118 c5 -38 8
-80 7 -94 -3 -56 -15 -126 -22 -135 -5 -6 -10 -28 -12 -49 l-3 -40 50 -10 c45
-10 50 -14 53 -40 2 -18 11 -30 23 -33 10 -3 19 -13 19 -22 0 -9 7 -25 15 -35
8 -11 15 -31 15 -44 0 -13 6 -36 14 -50 45 -85 88 -259 88 -359 0 -24 4 -43 9
-43 5 0 9 -9 9 -20 0 -11 -3 -20 -8 -20 -4 0 -8 -21 -8 -47 -4 -259 -4 -327 2
-371 l7 -52 -204 6 c-170 4 -239 7 -300 13 -4 1 -14 28 -23 60 -16 58 -18 109
-13 436 0 39 -3 125 -7 192 -7 118 -6 127 28 260 56 223 75 312 87 416 10 85
14 97 30 97 12 0 24 11 30 27 12 32 31 46 40 31 5 -7 11 -4 19 9 12 19 14 19
30 3 10 -10 20 -43 25 -86z m-505 59 c0 -5 5 -35 11 -68 33 -184 55 -344 69
-510 6 -66 12 -131 14 -145 2 -14 6 -61 10 -105 4 -44 9 -100 11 -125 4 -39 3
-41 -5 -16 -5 17 -12 73 -15 125 -3 52 -10 100 -15 106 -5 6 -9 35 -9 65 0 30
-10 123 -21 205 -12 83 -24 166 -26 185 -3 19 -7 54 -9 77 -1 23 -8 57 -13 75
-15 50 -23 138 -12 138 6 0 10 -3 10 -7z m2906 -110 c8 -40 14 -111 14 -158 0
-95 10 -84 -87 -91 -24 -2 -43 1 -43 7 0 5 7 9 15 9 8 0 15 6 15 13 1 83 39
264 40 188 0 -39 17 -12 24 39 4 34 3 40 -4 25 -8 -16 -9 -11 -5 20 2 22 5 47
6 55 1 8 4 4 6 -10 2 -14 11 -57 19 -97z m8703 21 c-1 -36 2 -68 5 -71 3 -4 7
27 8 68 1 47 3 59 5 32 3 -35 8 -43 24 -43 11 0 29 -5 40 -10 13 -7 19 -7 19
0 0 5 18 10 40 10 38 0 40 -1 41 -32 4 -103 20 -257 30 -285 6 -17 18 -23 50
-25 41 -3 43 -5 60 -53 10 -27 18 -59 18 -70 1 -30 -26 26 -35 70 -6 35 -28
51 -22 18 2 -10 -2 -17 -8 -16 -7 1 -9 -8 -5 -25 5 -25 6 -25 9 -4 5 34 20 26
27 -16 3 -22 12 -51 20 -65 13 -26 13 -27 -11 -27 -34 0 -32 -42 5 -80 28 -30
29 -30 35 -8 10 37 7 60 -6 52 -7 -4 -8 -3 -4 5 17 26 26 -4 20 -62 -7 -76 9
-168 36 -207 24 -34 26 -47 3 -29 -15 12 -16 12 -9 -6 5 -11 11 -28 13 -37 3
-10 10 -18 17 -18 7 0 11 -29 11 -87 0 -133 16 -285 32 -311 11 -18 11 -30 2
-65 -7 -26 -9 -74 -5 -130 8 -104 19 -139 41 -131 12 5 15 -2 13 -37 l-1 -44
-4 38 c-2 20 -8 35 -12 32 -18 -11 -37 31 -53 119 l-18 91 5 -81 c6 -91 4 -94
-61 -94 -24 0 -34 -5 -34 -15 0 -10 -11 -15 -35 -15 -19 0 -35 -4 -35 -10 0
-5 -19 -18 -42 -29 -36 -16 -44 -17 -46 -5 -4 19 -7 18 -36 -8 -46 -43 -55
-48 -93 -49 l-38 -2 39 -6 c27 -4 40 -12 42 -23 2 -13 -5 -18 -24 -18 -21 0
-24 2 -12 10 13 8 12 10 -2 10 -10 0 -18 -5 -18 -10 0 -15 -33 -8 -46 10 -19
25 -24 72 -15 130 5 30 6 59 3 65 -3 5 -5 125 -3 265 2 202 -1 271 -13 330 -9
41 -16 86 -16 100 0 14 -7 38 -16 55 -10 19 -11 31 -5 33 8 3 8 10 1 23 -9 16
-11 63 -11 234 0 17 0 77 0 135 0 58 2 133 6 167 6 53 9 62 28 65 21 3 22 8
25 131 1 72 7 127 12 127 5 0 9 -30 9 -66z m1327 -206 c8 -8 12 -22 9 -30 -8
-19 -43 -30 -48 -15 -6 20 -35 -1 -42 -31 -5 -26 -11 -30 -45 -34 -23 -2 -41
1 -44 8 -5 12 10 100 20 116 10 15 133 4 150 -14z m-1836 -33 c0 -8 3 -15 8
-15 16 0 100 -324 117 -455 6 -41 20 -102 51 -215 5 -20 34 -295 44 -430 5
-58 13 -134 19 -170 15 -98 22 -270 12 -270 -5 0 -12 6 -14 13 -4 9 -8 8 -16
-3 -7 -10 -11 -11 -11 -2 0 6 -8 12 -17 12 -15 0 -16 -2 -3 -10 12 -8 9 -10
-12 -10 -20 0 -26 4 -22 14 7 18 -24 36 -63 37 -15 0 -44 6 -63 13 -35 13 -35
13 -32 64 4 50 3 52 -22 52 -19 0 -26 5 -26 20 0 21 -20 29 -20 8 0 -7 -9 -2
-19 11 -14 19 -20 21 -23 10 -3 -8 -3 -4 -1 9 2 12 -1 22 -6 22 -5 0 -11 -17
-13 -37 l-4 -38 -11 45 -11 45 -1 -47 c-1 -27 -6 -48 -11 -48 -6 0 -8 10 -6
23 3 12 7 94 10 182 5 121 2 183 -10 255 -19 115 -26 313 -13 384 5 28 14 83
21 121 6 40 18 75 27 81 8 7 40 12 70 12 31 1 66 3 78 6 14 3 22 0 20 -7 -1
-6 6 -13 16 -15 16 -3 18 0 12 20 -4 12 -9 25 -11 27 -1 2 -42 5 -91 6 -48 2
-94 4 -101 4 -16 1 -8 74 19 178 11 40 19 75 19 78 0 3 11 5 25 5 16 0 25 6
25 15 0 10 10 15 30 15 20 0 30 -5 30 -15z m-6156 -192 c-4 -68 -11 -104 -23
-117 -12 -14 -13 -20 -3 -23 6 -3 12 -12 12 -21 0 -13 -2 -14 -9 -4 -4 8 -8
-26 -8 -78 1 -53 -4 -94 -10 -98 -5 -4 -13 -31 -16 -61 -7 -61 -16 -75 -40
-65 -20 7 -22 26 -4 55 10 17 10 23 0 26 -24 9 -5 403 19 403 4 0 9 -9 9 -20
1 -11 3 -24 4 -30 1 -5 3 -21 4 -35 2 -47 16 -25 18 29 2 37 -2 58 -12 66 -21
18 -18 27 10 32 21 4 25 2 24 -16 -1 -11 -1 -32 0 -46 l3 -25 8 25 c4 14 8 42
9 63 1 20 4 37 7 37 3 0 2 -44 -2 -97z m3359 -26 c15 -46 27 -85 27 -88 0 -7
-238 -10 -318 -3 l-72 6 24 19 c13 10 27 31 31 46 13 54 32 73 75 73 38 0 54
13 28 23 -7 3 30 6 82 6 l96 1 27 -83z m649 72 c3 -9 22 -13 96 -18 12 0 22
-7 22 -14 0 -8 18 -20 40 -27 31 -10 40 -18 40 -36 0 -12 3 -29 6 -37 4 -12
-6 -17 -48 -21 -96 -10 -248 -12 -248 -2 0 15 74 166 82 166 3 0 8 -5 10 -11z
m3972 -111 c4 3 6 -9 6 -26 0 -18 18 -67 39 -110 22 -42 49 -116 60 -163 11
-47 28 -100 37 -117 12 -25 14 -47 9 -92 -4 -32 -4 -64 0 -70 4 -7 8 -125 10
-263 2 -175 7 -282 19 -351 9 -55 16 -104 16 -111 0 -8 -27 -12 -81 -13 -69
-1 -79 1 -69 14 10 11 9 14 -4 14 -9 0 -16 -7 -16 -16 0 -14 -2 -14 -22 0 -12
9 -41 17 -63 17 -22 1 -32 3 -22 6 20 5 20 8 7 34 -6 10 -19 19 -29 19 -10 0
-24 7 -31 15 -10 12 -10 15 4 15 9 0 16 8 16 20 0 21 -20 29 -20 8 -1 -29 -40
40 -41 72 l-1 35 -7 -30 -7 -30 -7 36 c-8 37 -9 311 -2 404 10 136 24 225 44
275 39 95 51 141 51 195 0 90 11 145 29 145 14 1 14 2 -1 14 -11 8 -18 26 -18
44 l0 31 44 -13 c25 -8 47 -11 50 -8z m1052 -141 c38 -129 92 -285 115 -329 5
-10 14 -64 19 -120 14 -139 32 -208 85 -334 25 -58 55 -143 66 -188 40 -159
53 -201 72 -228 11 -14 16 -31 13 -37 -15 -24 -84 -7 -111 27 -14 17 -45 5
-45 -19 0 -16 -6 -17 -52 -12 -29 3 -55 9 -58 13 -3 4 -43 4 -90 0 -98 -9
-103 -6 -95 60 3 25 10 119 16 209 11 168 2 329 -23 395 -7 16 -12 67 -13 115
-1 47 -7 103 -12 123 -8 28 -7 41 3 57 11 16 12 33 5 78 -8 49 -6 61 7 77 12
12 20 48 25 110 6 76 13 137 16 155 4 18 22 -31 57 -152z m-15386 12 c6 -20
37 -104 71 -185 73 -180 96 -272 105 -428 l7 -119 -63 6 c-35 4 -88 7 -118 7
l-55 0 6 398 c4 218 7 399 7 402 1 11 30 -48 40 -81z m10560 42 c0 -5 10 -11
23 -13 14 -2 21 -9 19 -20 -1 -10 6 -23 18 -30 18 -12 20 -23 20 -130 0 -72 4
-118 10 -118 6 0 10 -18 10 -40 0 -23 5 -40 11 -40 7 0 5 -10 -5 -25 -9 -13
-16 -31 -16 -40 0 -8 -9 -15 -20 -15 -17 0 -20 -7 -20 -40 0 -36 -2 -40 -25
-40 -22 0 -25 -4 -25 -40 0 -22 5 -40 10 -40 6 0 10 -18 10 -40 0 -22 -4 -40
-10 -40 -5 0 -10 15 -10 33 l-1 32 -29 -32 c-16 -18 -34 -33 -40 -33 -5 0 -10
-7 -10 -15 0 -11 11 -15 39 -15 37 0 39 -2 45 -37 11 -67 8 -93 -11 -93 -15 0
-16 -2 -3 -10 11 -7 5 -10 -22 -10 -21 0 -38 -5 -38 -11 0 -5 -5 -7 -10 -4
-12 7 -80 -16 -80 -27 0 -4 -4 -8 -10 -8 -5 0 -10 16 -10 35 0 19 -4 35 -10
35 -5 0 -10 -18 -10 -40 0 -28 -7 -47 -22 -62 l-23 -23 -6 105 -5 105 -3 -140
c-5 -173 -7 -159 -21 130 -6 127 -15 262 -21 300 -17 120 -42 255 -48 255 -10
0 0 124 11 137 5 6 11 26 13 44 3 18 10 36 16 39 6 4 59 7 117 8 68 0 108 4
110 11 4 13 82 15 82 2z m-6230 -171 c-3 -85 -5 -242 -4 -347 l0 -193 -43 0
c-32 0 -43 4 -43 15 0 19 -17 19 -27 0 -5 -8 -20 -16 -33 -17 -14 -2 -28 -7
-32 -12 -4 -6 -12 -5 -21 2 -12 10 -16 55 -22 210 -8 231 -9 468 -2 485 3 9
38 12 118 12 l114 0 -5 -155z m670 135 c10 -26 43 -53 73 -60 23 -6 24 -9 16
-52 -11 -59 -19 -67 -19 -19 0 26 -4 36 -12 33 -7 -2 -24 4 -37 14 -30 24 -47
24 -73 -1 -20 -18 -20 -21 -6 -33 23 -17 13 -77 -13 -77 -15 0 -19 7 -19 40 0
29 -4 40 -15 40 -17 0 -19 -17 -15 -132 l2 -77 -44 -3 -43 -3 1 -55 c1 -32 -1
-47 -6 -35 -6 18 -22 -33 -46 -152 -2 -13 -8 -23 -13 -23 -5 0 -6 12 -1 28 21
66 59 263 54 276 -3 9 1 37 10 63 17 55 24 118 13 129 -4 4 -7 32 -7 63 l0 56
96 0 c87 0 97 -2 104 -20z m4746 17 c20 -13 57 -225 54 -313 0 -19 8 -73 19
-118 11 -46 23 -113 26 -149 8 -75 -9 -222 -27 -233 -6 -4 -8 -16 -5 -28 3
-11 -1 -54 -9 -93 l-14 -73 5 70 5 70 -20 -55 c-11 -30 -20 -56 -20 -57 0 -2
-36 -3 -80 -3 -73 0 -80 -2 -80 -20 0 -17 -7 -20 -42 -20 -76 0 -88 7 -88 51
0 28 -4 39 -15 39 -11 0 -15 -11 -15 -40 0 -22 -4 -40 -10 -40 -5 0 -10 18
-10 40 l0 40 -40 0 -40 0 0 40 c0 27 -4 40 -13 40 -11 0 -15 29 -20 116 -6
115 -11 139 -25 117 -4 -6 -6 26 -5 70 1 64 0 74 -7 47 -9 -35 -9 -35 -4 5 9
68 9 99 1 125 -5 16 -5 20 1 12 5 -8 8 21 7 77 0 50 3 85 7 78 4 -7 8 3 8 25
0 20 5 59 12 87 8 38 16 51 32 54 20 3 20 4 -4 14 -22 9 -17 11 40 17 158 15
359 20 376 8z m5118 -241 c5 -51 3 -87 -3 -100 -6 -11 -9 -26 -6 -33 2 -7 9
-67 15 -133 6 -66 25 -183 41 -260 16 -77 34 -165 39 -195 5 -30 14 -79 21
-108 13 -60 8 -73 -21 -47 -30 27 -35 11 -6 -18 14 -15 26 -30 26 -35 0 -5
-14 -24 -30 -42 -25 -28 -39 -35 -75 -37 -24 -2 -54 1 -67 6 -24 9 -24 12 -21
98 2 48 13 161 24 250 16 135 18 178 9 254 -8 68 -7 100 2 124 9 26 9 37 -1
48 -9 11 -9 17 -1 22 7 4 9 18 5 32 -3 14 -1 30 4 37 6 7 14 58 17 114 4 56
10 102 14 102 4 0 11 -36 14 -79z m-16135 -117 c1 -151 0 -154 -50 -154 -20 0
-24 -17 -20 -96 2 -31 -1 -41 -13 -41 -11 0 -12 5 -6 16 5 10 3 29 -6 49 -10
25 -11 45 -5 74 9 39 21 62 21 40 0 -7 3 -12 8 -12 4 0 7 26 7 58 1 122 15
226 33 240 15 11 18 10 24 -10 3 -13 6 -87 7 -164z m4287 -453 l6 -50 -37 6
c-25 4 -40 2 -45 -7 -7 -11 -11 -11 -24 -1 -8 7 -20 10 -25 7 -5 -4 -12 -2
-15 3 -4 5 -19 3 -37 -6 -17 -8 -32 -13 -33 -12 -2 2 5 45 15 94 19 89 32 195
45 350 l7 80 68 -207 c37 -114 71 -229 75 -257z m8979 394 c17 -13 20 -34 27
-158 14 -233 14 -351 1 -364 -9 -10 -12 -9 -17 3 -9 24 -6 41 4 19 7 -17 9
-14 9 13 1 18 -3 31 -8 28 -13 -9 -21 31 -21 112 0 41 -4 72 -10 72 -5 0 -10
18 -10 40 0 22 4 40 10 40 5 0 11 39 12 88 3 77 1 89 -17 104 -24 21 -8 23 20
3z m-10653 -257 c-15 -19 -28 -113 -13 -104 7 4 11 0 11 -13 0 -10 6 -21 13
-24 9 -3 7 -10 -6 -25 -14 -15 -16 -25 -9 -39 5 -10 12 -46 16 -81 4 -36 18
-83 32 -109 28 -53 30 -65 9 -57 -11 5 -15 -1 -15 -24 0 -31 34 -117 50 -127
6 -3 10 -15 10 -26 0 -10 3 -19 8 -19 4 0 5 -21 3 -47 l-3 -48 -46 50 c-50 56
-47 43 5 -22 40 -51 41 -58 4 -39 -16 9 -32 27 -35 41 -4 16 -13 25 -26 25
-10 0 -21 4 -24 8 -8 14 6 53 18 49 26 -10 7 334 -24 413 -5 14 -14 57 -19 95
-7 56 -6 72 5 81 16 13 8 25 -12 17 -8 -3 -14 1 -14 10 0 14 17 22 59 26 10 1
11 -3 3 -11z m-2678 -25 c2 -12 13 -19 36 -21 l33 -4 -6 -520 c-3 -286 -9
-523 -12 -526 -3 -3 -22 -5 -43 -4 -24 2 -32 -1 -23 -7 9 -6 11 -16 5 -32 -4
-13 -9 -49 -10 -79 -6 -123 -5 -117 -14 -95 -8 19 -9 19 -9 -2 -1 -39 -21 -25
-22 15 -1 20 -8 -8 -15 -63 -11 -87 -12 -19 -8 505 3 333 9 639 12 680 6 68 9
75 30 78 12 2 23 11 24 20 0 9 4 -3 8 -28 l7 -45 1 47 c1 26 -2 58 -7 71 -6
14 -7 28 -4 31 8 8 14 1 17 -21z m3299 -289 c51 -2 103 -6 117 -9 14 -2 45 -8
70 -12 l45 -8 19 -65 c10 -36 19 -81 21 -100 1 -19 10 -50 19 -69 13 -24 15
-36 7 -44 -16 -16 -14 -57 3 -63 14 -5 11 -44 -4 -44 -7 0 -22 -33 -24 -55 -1
-5 -7 -15 -15 -21 -11 -9 -10 -13 4 -27 15 -16 15 -17 -4 -17 -12 0 -21 -4
-21 -10 0 -6 28 -10 63 -10 34 0 69 -5 77 -11 11 -8 7 -9 -17 -4 -58 12 -143
-5 -174 -34 -24 -21 -29 -35 -31 -73 -1 -27 -5 -48 -9 -48 -16 0 -115 28 -141
40 -15 7 -30 20 -33 29 -3 9 -25 38 -50 65 -25 27 -45 52 -45 55 0 3 -21 29
-45 56 -25 28 -45 56 -45 63 0 7 -7 23 -14 35 -21 31 -36 121 -45 257 -8 121
-6 146 13 132 6 -4 39 -9 74 -11 53 -2 62 0 62 14 0 15 3 15 15 5 10 -8 52
-14 108 -16z m9115 -57 c6 -5 12 -14 12 -20 0 -7 -4 -7 -12 1 -19 19 -30 14
-18 -8 6 -11 7 -20 1 -20 -11 0 -33 -59 -26 -71 7 -10 -18 -89 -27 -89 -5 0
-8 4 -8 8 0 5 -9 19 -20 32 -24 27 -26 20 -5 -19 13 -27 13 -29 -11 -40 -56
-25 -174 -5 -174 30 0 28 112 75 153 63 11 -4 17 0 17 12 0 13 -6 15 -31 10
-21 -4 -29 -2 -27 6 7 21 55 27 78 11 21 -15 22 -14 15 6 -4 13 -2 21 6 21 8
0 7 5 -2 17 -13 15 -11 16 15 9 26 -6 27 -5 13 9 -9 8 -21 15 -28 15 -9 0 -9
4 1 15 13 16 57 17 78 2z m-8253 -106 c22 -5 72 -12 110 -15 117 -10 164 -18
174 -30 13 -16 30 -81 41 -158 11 -76 43 -152 79 -185 26 -25 36 -30 26 -12
-8 13 23 38 48 39 9 0 17 -2 17 -4 0 -2 3 -11 6 -20 4 -12 0 -16 -17 -17 -21
-1 -20 -2 6 -9 17 -4 24 -8 17 -9 -7 0 -10 -5 -7 -11 4 -6 16 -4 31 6 13 9 24
14 24 11 0 -3 3 -12 6 -21 5 -12 0 -16 -20 -16 -14 0 -26 -3 -26 -7 0 -5 -14
-23 -31 -40 -19 -21 -25 -33 -16 -33 25 0 62 24 62 40 0 21 39 19 43 -2 2 -13
-3 -18 -17 -18 -12 0 -21 -2 -21 -4 0 -2 -3 -11 -6 -19 -4 -11 6 -17 43 -22
60 -8 112 -48 96 -74 -8 -13 -30 -17 -104 -19 -127 -4 -154 9 -169 85 -7 30
-9 76 -5 104 7 46 6 49 -17 50 -268 7 -312 11 -326 30 -9 13 -25 19 -50 19
-20 0 -72 5 -114 12 -62 10 -78 16 -78 30 0 9 5 20 11 24 7 4 9 0 5 -13 -6
-19 -3 -20 66 -16 72 5 103 17 82 31 -15 10 -54 81 -54 97 0 8 -9 20 -20 27
-22 14 -28 62 -9 74 6 4 9 19 5 36 -12 60 22 78 109 59z m1300 -36 c6 0 10
-18 11 -40 1 -58 17 -81 61 -89 92 -15 95 -13 128 67 24 57 36 73 54 75 34 5
50 -14 26 -32 -16 -11 -17 -17 -7 -29 20 -24 64 -31 74 -13 10 18 38 22 38 6
0 -5 8 -10 18 -10 13 0 14 -2 4 -9 -10 -6 -8 -10 10 -15 22 -7 22 -8 4 -19
-10 -7 -28 -19 -39 -28 l-21 -16 26 -25 c18 -19 44 -29 99 -39 79 -14 261 -17
319 -5 32 6 31 4 -15 -18 -43 -22 -64 -25 -147 -26 -53 0 -139 7 -191 16 -67
11 -107 13 -138 7 l-44 -9 63 -8 c34 -4 62 -11 62 -16 0 -4 -24 -10 -52 -13
-29 -2 -64 -8 -78 -12 -19 -5 -22 -4 -10 4 13 9 13 11 -2 11 -10 0 -18 -3 -18
-8 0 -4 -13 -13 -29 -20 -17 -7 -31 -20 -33 -29 -2 -11 -19 -16 -68 -20 l-65
-4 -23 113 c-24 119 -37 181 -48 237 -5 27 -3 32 7 25 8 -5 19 -9 24 -9z
m10958 -132 c5 -65 -4 -83 -60 -112 -26 -13 -56 -15 -49 -2 3 5 -18 8 -47 7
-58 -2 -77 2 -77 16 0 5 19 8 42 6 36 -3 44 0 55 22 7 14 22 33 34 43 13 10
16 17 8 17 -18 -1 -53 -30 -62 -52 -3 -10 -13 -18 -20 -18 -23 0 -28 12 -9 26
15 12 15 15 2 24 -12 8 -11 10 7 10 12 0 25 5 28 10 3 6 14 10 23 10 10 0 23
9 30 20 7 11 23 20 36 20 16 0 26 7 30 23 10 34 22 4 29 -70z m611 11 c28 -5
37 -4 32 4 -5 8 1 12 15 12 17 0 19 -3 10 -14 -6 -8 -11 -18 -10 -22 9 -50 -9
-73 -62 -80 -24 -3 -50 -7 -57 -9 -7 -3 -25 0 -40 6 -15 6 -77 12 -138 14 -61
2 -117 5 -124 7 -10 2 -13 -10 -12 -47 l2 -50 -15 35 c-9 20 -31 44 -53 57
-35 21 -36 22 -11 23 15 0 40 3 57 6 29 6 30 8 17 26 -7 11 -11 27 -8 35 5 13
32 14 182 9 97 -3 194 -9 215 -12z m-9559 -65 c33 -20 45 -21 134 -15 102 7
111 4 111 -38 0 -13 -113 -36 -176 -36 -34 0 -86 21 -110 45 -10 10 -9 65 2
65 1 0 19 -10 39 -21z m-247 -15 c59 -7 60 -7 67 -40 5 -27 11 -34 28 -34 18
0 20 2 7 11 -12 9 -12 10 3 5 10 -3 23 -6 28 -6 5 0 9 -7 9 -15 0 -8 5 -15 11
-15 6 0 9 8 7 18 -5 18 -3 18 81 1 104 -22 206 -24 243 -5 29 15 48 5 48 -25
0 -10 5 -19 12 -21 9 -3 7 -15 -6 -43 l-18 -38 -64 6 c-36 4 -66 2 -69 -3 -10
-16 -35 -12 -29 5 8 19 -26 21 -44 3 -10 -10 -17 -10 -32 0 -12 7 -53 12 -98
12 -145 0 -297 6 -309 13 -17 11 -4 43 23 56 36 16 65 14 58 -4 -8 -19 10 -20
25 -1 7 8 27 17 47 20 73 14 0 33 -151 39 -46 2 -50 4 -53 29 -3 22 1 27 25
31 48 7 88 7 151 1z m6850 -116 c-2 -7 6 -14 17 -14 53 -4 51 -4 35 -14 -8 -5
-11 -10 -6 -10 5 0 18 8 29 17 18 17 19 17 16 -1 -3 -15 2 -19 24 -20 16 -1
27 4 27 11 0 16 -1 16 79 2 35 -5 73 -16 85 -24 27 -19 42 -19 26 0 -17 20 1
20 46 -1 19 -9 38 -14 41 -10 3 3 1 6 -5 6 -7 0 -12 5 -12 10 0 15 36 12 50
-5 13 -16 40 -20 40 -7 0 15 49 32 90 32 29 0 40 -4 40 -15 0 -17 4 -18 49 -9
21 4 30 11 27 20 -3 9 1 11 12 8 31 -10 67 -29 74 -39 4 -6 21 -6 48 1 31 9
38 9 30 -1 -7 -8 -2 -10 21 -7 28 4 30 2 27 -19 -4 -32 -62 -42 -193 -35 -79
5 -96 4 -80 -6 19 -11 19 -11 0 -19 -11 -4 -29 -8 -40 -8 l-20 0 20 9 c17 6
13 9 -20 15 -22 3 -53 11 -68 16 -17 5 -36 5 -45 0 -13 -6 -167 -7 -167 0 0 4
-260 12 -337 10 -93 -2 -98 -1 -98 18 0 12 -4 21 -10 21 -5 0 -10 -7 -10 -15
0 -25 -27 -12 -59 28 -12 15 -11 17 2 17 9 0 23 -7 32 -16 18 -18 31 -11 37
20 4 25 36 45 46 30 4 -6 24 -14 44 -18 20 -4 38 -12 41 -19 3 -9 9 -9 28 0
l24 12 -23 0 c-13 1 -32 10 -44 21 l-22 20 27 0 c16 0 26 -5 25 -12z m2045
-83 c-22 -17 -94 -29 -130 -22 -33 6 -76 -12 -69 -30 9 -23 -35 -43 -95 -43
-40 0 -70 7 -105 25 -27 14 -58 25 -70 25 -28 0 -36 10 -23 27 17 20 43 16 70
-13 22 -23 29 -25 89 -21 39 2 99 16 150 35 47 17 99 32 115 32 17 0 41 6 55
13 21 11 26 11 28 -1 2 -7 -5 -20 -15 -27z m-10875 -10 c-2 -5 -15 -9 -30 -9
-33 2 -34 -3 -8 -31 11 -12 20 -38 22 -64 3 -40 0 -45 -22 -52 -30 -9 -144
-11 -152 -3 -15 15 21 68 69 101 29 20 53 42 53 49 0 7 6 15 13 18 19 8 58 2
55 -9z m-4123 -691 c14 -9 25 -20 25 -25 0 -5 -32 -25 -72 -45 -39 -20 -89
-47 -110 -61 -34 -23 -45 -25 -99 -20 -49 4 -59 3 -55 -9 4 -10 -2 -14 -22
-13 -16 1 -20 3 -10 6 9 2 15 10 12 17 -3 7 4 20 15 30 11 10 18 23 15 27 -3
5 7 4 21 -1 33 -13 136 -13 116 -1 -11 7 -9 10 10 14 21 4 21 5 -6 6 -16 1
-39 6 -50 11 -14 6 -4 9 38 9 32 1 67 -4 77 -9 15 -8 24 -6 38 7 10 10 27 23
38 30 31 20 -2 34 -73 31 -34 -2 -65 1 -69 5 -4 4 25 7 65 7 49 0 79 -5 96
-16z"/>
<path d="M19180 7258 c-56 -9 -93 -13 -164 -16 -46 -2 -40 -16 7 -16 25 -1 33
-6 35 -23 3 -22 62 -74 62 -55 0 5 11 7 25 4 14 -2 25 -9 25 -14 0 -6 7 -5 15
2 8 7 15 9 15 4 1 -5 8 3 16 19 8 15 12 32 9 37 -3 6 0 10 7 10 7 1 2 7 -12
15 l-25 14 33 7 c35 7 55 25 25 23 -10 -1 -43 -6 -73 -11z"/>
<path d="M2812 7144 c-12 -8 -46 -18 -76 -21 -48 -5 -54 -8 -64 -37 -19 -53
-12 -163 9 -150 5 3 12 -2 15 -10 7 -17 -19 -48 -37 -44 -13 3 -21 -29 -14
-51 4 -10 8 -11 20 -1 12 10 20 7 45 -13 27 -23 28 -26 11 -32 -20 -6 -36 -34
-25 -44 3 -3 10 2 15 12 6 9 14 15 18 13 7 -5 13 5 44 72 18 39 10 151 -13
169 -8 7 -10 13 -5 14 6 1 -3 5 -20 9 -27 7 -26 8 16 9 31 1 51 -4 59 -14 10
-12 33 -15 104 -14 162 4 175 2 207 -30 26 -26 29 -27 29 -10 0 26 -44 69 -70
69 -11 0 -31 7 -44 15 -13 9 -36 15 -52 13 -16 -1 -35 1 -41 5 -6 4 -21 -2
-34 -12 -13 -10 -41 -19 -63 -19 -35 -1 -38 0 -31 21 4 12 8 31 9 42 2 16 12
21 52 25 45 5 47 6 27 18 -29 16 -64 15 -91 -4z"/>
<path d="M10249 7146 c-62 -16 -112 -47 -126 -77 -17 -36 -42 -135 -47 -188
-2 -24 -9 -47 -16 -51 -19 -12 -6 -151 15 -166 26 -19 31 -81 9 -105 -29 -32
-32 -131 -5 -185 12 -24 28 -47 35 -51 31 -18 76 -230 82 -383 4 -97 21 -201
43 -275 6 -21 10 -24 10 -10 1 11 6 90 12 175 10 146 13 160 50 245 54 126
107 235 124 251 27 27 38 156 21 239 -7 35 -5 44 17 67 19 21 27 43 32 94 5
43 4 69 -3 73 -7 4 -7 21 -1 51 5 28 4 75 -3 125 -12 88 -32 116 -109 156 -46
23 -60 24 -53 4 4 -8 14 -15 23 -15 21 0 47 -17 39 -26 -4 -3 -22 -9 -40 -13
l-33 -7 29 -15 c51 -24 43 -39 -11 -23 -29 9 -66 13 -93 9 -42 -5 -44 -4 -26
10 11 8 29 15 40 16 20 0 20 0 -1 16 -13 8 -23 22 -23 30 0 9 8 13 23 12 24
-4 47 7 47 22 0 11 -3 11 -61 -5z"/>
<path d="M1955 7012 c-34 -11 -44 -18 -30 -20 11 -2 24 -8 30 -13 12 -12 38
-11 30 1 -3 6 -2 10 3 10 6 0 12 -7 16 -15 3 -8 18 -15 33 -16 22 0 16 -5 -27
-19 -30 -11 -74 -24 -97 -30 -34 -8 -46 -18 -59 -45 -14 -31 -15 -36 0 -50 15
-15 23 -46 28 -110 2 -19 9 -31 20 -33 14 -3 16 1 11 15 -4 12 5 8 28 -13 41
-38 106 -55 174 -45 104 15 205 84 205 140 0 16 7 34 16 41 10 9 14 26 12 49
-3 35 -4 36 -83 63 -44 14 -101 29 -127 33 -37 5 -48 11 -48 25 0 54 -40 64
-135 32z"/>
<path d="M9288 6996 c-96 -26 -118 -56 -138 -190 -7 -44 -19 -90 -27 -103 -14
-20 -14 -30 -3 -66 12 -43 48 -89 62 -81 16 10 8 89 -12 119 -26 39 -26 55 1
21 19 -24 22 -25 52 -13 18 7 49 10 72 7 22 -3 51 -1 64 4 18 8 26 7 35 -6 8
-11 24 -15 59 -13 26 2 45 0 42 -5 -3 -5 4 -14 15 -20 13 -7 20 -7 20 0 0 5 5
10 10 10 16 0 12 -18 -10 -48 -11 -15 -22 -47 -26 -72 l-6 -45 20 31 c11 17
23 45 27 62 3 18 11 34 16 37 11 8 12 55 1 55 -5 0 -7 46 -4 103 l4 102 -36
47 c-20 27 -50 55 -66 63 -35 18 -107 18 -172 1z m58 -130 c7 -8 33 -17 56
-21 51 -9 84 -29 91 -55 4 -16 -3 -19 -57 -22 -65 -4 -126 7 -126 22 0 6 -6
10 -14 10 -23 0 -27 27 -4 33 15 4 19 11 15 26 -6 25 17 29 39 7z"/>
<path d="M1355 6880 c-3 -5 -12 -7 -20 -3 -8 3 -15 0 -15 -6 0 -6 5 -11 10
-11 17 0 11 -28 -9 -42 -20 -14 -21 -17 -21 -53 0 -19 -7 -26 -32 -33 -22 -6
-35 -5 -40 2 -4 6 -10 7 -14 4 -3 -4 6 -18 22 -31 24 -21 26 -27 15 -41 -13
-15 -36 -13 -26 4 3 4 -2 14 -11 21 -14 11 -15 10 -12 -7 2 -11 -2 -18 -9 -17
-10 2 -9 -5 1 -30 8 -17 19 -54 25 -82 14 -59 28 -77 42 -53 7 14 15 15 45 6
45 -12 64 -5 64 25 0 20 -4 23 -24 20 -13 -3 -27 0 -30 6 -11 16 -46 13 -46
-4 0 -8 -4 -15 -10 -15 -5 0 -10 6 -10 14 0 8 -6 17 -12 19 -8 4 -4 8 10 12
12 4 22 11 22 16 0 16 52 10 65 -8 8 -10 19 -14 30 -10 14 6 16 17 14 70 -2
34 -8 65 -14 69 -7 5 -6 14 3 28 16 27 15 40 -5 56 -17 13 -17 15 0 25 9 5 17
21 17 34 0 25 -14 33 -25 15z"/>
<path d="M1090 6654 c0 -3 8 -13 17 -22 16 -16 15 -17 -5 -20 -24 -4 -29 -21
-10 -40 9 -9 7 -12 -9 -12 -12 0 -23 -6 -26 -12 -5 -16 -18 -6 -21 18 -3 23
-26 31 -26 10 0 -16 -15 -22 -23 -8 -2 4 -2 1 -1 -5 2 -7 -1 -13 -7 -13 -6 0
-7 -4 -4 -10 4 -6 -19 -10 -62 -10 -56 0 -72 4 -86 20 -23 27 -41 27 -27 -1 7
-11 9 -23 6 -27 -3 -3 -6 -1 -6 4 0 5 -17 8 -38 6 -26 -3 -42 1 -51 12 -14 16
-39 11 -59 -13 -10 -12 -15 -13 -18 -3 -7 16 -24 15 -24 -2 0 -28 -96 -38
-106 -11 -8 20 -21 19 -27 -2 -4 -17 -5 -17 -6 0 -1 20 -19 23 -27 3 -3 -8
-13 -12 -25 -9 -10 3 -19 0 -19 -6 0 -6 5 -11 10 -11 6 0 10 -4 10 -10 0 -17
-26 -11 -44 9 -10 11 -15 25 -11 30 10 16 2 13 -35 -14 -19 -14 -29 -25 -23
-25 7 0 24 -5 39 -10 l27 -11 -21 -15 c-12 -8 -26 -13 -31 -10 -4 3 -17 -1
-27 -9 -18 -14 -18 -14 3 -15 12 0 25 -4 28 -10 11 -18 26 -10 20 10 -6 19 -3
20 32 18 21 -1 41 -7 45 -12 4 -6 10 -8 13 -4 3 3 -2 13 -11 22 -21 22 -17 25
42 34 58 10 99 2 99 -18 0 -15 14 -30 27 -30 4 0 3 11 -2 25 -9 23 -7 25 18
25 36 0 60 -15 38 -23 -9 -4 -21 -18 -27 -31 -16 -33 -39 -42 -46 -16 -6 21
-29 27 -35 9 -2 -6 -14 -1 -28 11 -23 20 -24 20 -31 2 -5 -14 -16 -18 -42 -18
-21 1 -33 -3 -31 -9 3 -7 -10 -11 -33 -12 -21 -1 -42 -8 -49 -17 -6 -9 -17
-16 -25 -16 -10 -1 -8 -5 5 -15 11 -8 14 -15 7 -15 -7 0 -10 -4 -6 -9 6 -11
-77 -27 -112 -23 -14 2 -23 -3 -23 -10 0 -9 15 -12 49 -11 l49 2 -14 -28 c-9
-19 -27 -32 -55 -40 -22 -7 -39 -15 -36 -18 9 -8 87 8 87 18 0 5 8 9 17 9 16
0 16 -1 1 -16 -17 -18 -92 -23 -137 -11 -39 11 -37 17 6 17 27 0 43 5 47 15 4
10 -1 15 -15 15 -11 0 -30 5 -41 11 -13 7 -18 7 -14 0 7 -11 -28 -34 -38 -24
-3 3 -6 -1 -6 -11 0 -13 -5 -16 -21 -11 -15 5 -19 4 -15 -4 4 -6 1 -11 -8 -11
-8 0 -17 10 -19 23 -3 16 -5 13 -6 -10 -1 -26 3 -33 18 -33 11 0 21 -9 24 -21
4 -15 11 -20 21 -16 9 4 16 2 16 -3 0 -13 -58 -42 -70 -35 -6 4 -10 -28 -10
-84 0 -86 1 -91 21 -91 12 0 28 8 35 18 11 13 16 14 22 4 5 -7 19 -11 33 -10
22 3 24 0 21 -32 -1 -19 -9 -41 -17 -50 -8 -9 -15 -24 -15 -33 0 -20 -16 -23
-23 -4 -4 10 -6 10 -6 0 -1 -18 -31 -16 -31 2 0 17 -16 20 -25 6 -3 -6 3 -15
12 -20 17 -10 17 -12 -5 -30 -29 -25 -30 -61 -1 -61 12 0 19 -5 16 -12 -2 -7
-11 -12 -21 -10 -9 2 -16 -2 -16 -9 0 -7 9 -9 23 -5 12 3 25 6 28 6 4 0 9 9
12 20 8 31 77 24 77 -7 0 -12 -7 -14 -30 -9 -18 3 -30 1 -30 -5 0 -6 5 -7 10
-4 6 4 10 -5 10 -20 0 -21 4 -26 16 -21 9 3 18 6 20 6 2 0 4 7 4 15 0 22 23
18 38 -5 10 -17 10 -20 -3 -20 -9 0 -12 -6 -9 -15 4 -8 13 -15 21 -15 8 0 11
-5 8 -10 -4 -6 -11 -8 -16 -5 -5 4 -9 0 -9 -8 0 -10 -9 -12 -32 -9 -28 4 -30
3 -18 -9 8 -8 33 -22 54 -32 31 -14 41 -15 47 -5 17 27 19 -3 3 -51 -10 -31
-22 -51 -31 -51 -11 0 -13 -3 -5 -13 6 -7 9 -44 7 -87 l-4 -75 -38 -9 c-39 -8
-57 -16 -106 -42 -23 -13 -28 -21 -23 -40 4 -13 1 -34 -6 -47 -15 -28 -23
-167 -9 -167 6 0 13 10 16 23 5 19 11 23 35 19 l30 -4 -22 -18 c-15 -11 -18
-19 -10 -24 7 -4 12 -1 12 7 0 7 12 20 26 28 14 7 30 24 35 36 4 12 20 25 34
29 14 3 25 10 25 15 0 5 7 6 16 2 9 -3 20 0 24 7 9 14 30 5 30 -13 0 -7 -12
-14 -27 -15 -15 -1 -34 -9 -43 -18 -14 -15 -12 -15 18 -9 24 5 32 3 30 -7 -2
-8 8 -14 25 -16 15 -2 27 -7 27 -12 0 -5 -7 -7 -16 -3 -22 8 -64 -16 -57 -34
4 -10 0 -14 -13 -12 -21 4 -84 -22 -84 -33 0 -4 -7 -5 -15 -2 -9 4 -15 0 -15
-9 0 -8 -6 -17 -12 -20 -7 -2 -10 -8 -6 -12 4 -4 13 -3 20 3 9 7 19 6 32 -4
25 -18 37 -18 30 0 -4 11 0 13 16 9 23 -6 72 15 64 28 -2 5 -11 6 -19 2 -8 -3
-15 0 -15 6 0 6 -7 11 -16 11 -8 0 -13 4 -10 8 3 5 24 6 48 2 31 -4 42 -10 39
-20 -2 -8 -4 -21 -4 -27 0 -7 -11 -13 -24 -13 -14 0 -23 -6 -23 -15 0 -9 -11
-20 -24 -26 l-24 -11 21 -23 c12 -12 30 -20 39 -17 10 2 18 -1 18 -7 0 -6 -9
-11 -19 -11 -11 0 -23 -4 -26 -10 -3 -5 -11 -10 -17 -10 -6 0 -5 7 3 17 13 14
11 16 -11 11 -14 -3 -34 -9 -44 -13 -14 -6 -17 -5 -12 3 7 11 -18 17 -52 13
-6 -1 -20 3 -30 8 -9 6 -11 11 -4 11 6 0 12 6 12 13 -1 6 -9 2 -19 -10 -17
-20 -19 -42 -20 -173 l-2 -150 36 0 c21 0 35 5 35 13 0 8 3 8 9 -2 8 -12 12
-12 26 2 20 21 35 22 35 2 0 -12 14 -15 71 -14 53 1 69 4 65 14 -3 8 6 14 24
17 22 3 27 1 23 -11 -5 -14 -4 -14 9 -1 9 8 22 36 31 62 14 43 14 49 0 56 -13
8 -11 13 11 35 17 17 26 37 25 54 0 16 2 45 6 65 10 52 -1 106 -22 104 -9 0
-18 5 -21 13 -3 9 0 12 10 8 9 -3 21 0 27 6 8 8 11 7 13 -4 2 -18 16 96 23
189 5 54 3 72 -6 72 -8 0 -5 5 5 13 10 7 17 20 15 28 -4 20 10 74 32 124 39
88 198 199 324 225 30 6 55 13 55 16 0 14 -71 44 -102 44 -21 0 -38 4 -38 9 0
23 22 64 43 82 12 10 16 18 10 19 -19 0 -16 40 3 40 8 0 13 4 10 9 -8 13 4 42
15 35 5 -3 9 -1 9 4 0 6 -7 12 -15 16 -19 7 -19 29 0 66 10 19 20 27 30 24 8
-4 15 -1 15 5 0 6 5 11 10 11 20 0 9 -21 -19 -38 -25 -15 -27 -19 -13 -32 12
-10 17 -11 20 -2 5 16 69 16 75 0 6 -18 14 -8 21 27 5 24 4 26 -3 10 -9 -18
-10 -17 -10 9 -1 16 2 26 7 22 4 -4 12 9 19 31 l11 38 7 -32 c4 -17 15 -35 24
-39 30 -13 51 -11 51 5 1 11 5 8 14 -8 11 -19 14 -21 19 -7 4 9 13 13 22 10
11 -4 14 -2 9 9 -3 9 -1 25 6 36 9 18 8 21 -10 21 -21 0 -27 14 -10 25 5 3 19
-5 31 -19 11 -13 36 -27 55 -30 18 -4 38 -14 43 -24 11 -19 16 -16 25 15 5 16
2 23 -11 26 -16 4 -16 5 -1 6 18 1 48 81 48 127 0 30 -28 40 -32 12 -3 -20 -5
-20 -18 -6 -9 8 -22 17 -30 20 -8 3 4 9 28 13 23 4 42 13 42 20 0 7 8 16 17
19 14 6 15 9 4 15 -10 7 -9 10 3 14 9 4 16 18 16 34 0 25 -4 28 -32 28 -18 0
-41 -8 -50 -17 -20 -20 -78 -24 -78 -6 0 9 -3 9 -12 0 -8 -8 -15 -8 -23 -2 -7
6 -27 7 -44 4 -23 -5 -29 -9 -19 -15 10 -7 9 -9 -4 -9 -10 0 -18 5 -18 10 0 6
-5 10 -10 10 -7 0 -7 -6 0 -19 14 -28 13 -31 -14 -31 -26 0 -41 14 -49 45 -5
20 -5 20 -6 0 0 -12 15 -38 34 -58 20 -21 33 -42 30 -46 -7 -12 -56 11 -51 25
2 6 -8 10 -24 10 -16 0 -27 -3 -24 -8 3 -4 -2 -8 -10 -8 -9 0 -16 -6 -16 -14
0 -9 8 -12 25 -8 35 6 31 -11 -5 -25 -35 -13 -44 -4 -31 30 5 14 7 28 3 31 -3
4 4 10 17 13 19 5 22 11 17 34 -4 22 -2 29 9 29 11 0 15 11 15 40 0 23 5 40
11 40 7 0 10 -12 7 -27 l-4 -28 78 -1 c43 0 78 3 78 8 0 4 11 8 25 8 13 0 35
5 48 11 18 8 30 8 46 -1 20 -10 21 -10 9 9 -7 12 -19 21 -27 21 -8 0 -4 10 13
25 15 14 35 25 44 25 16 -1 16 -2 0 -14 -26 -19 -22 -26 12 -21 27 3 30 1 31
-23 1 -24 3 -22 14 13 16 46 19 87 7 67 -12 -17 -42 -4 -42 18 0 24 -12 31
-30 19 -10 -6 -11 -9 -2 -9 6 0 12 -5 12 -11 0 -6 -7 -9 -14 -6 -11 4 -13 1
-9 -10 5 -12 1 -14 -17 -8 -15 5 -20 4 -16 -4 5 -7 -1 -11 -15 -11 -22 0 -22
-1 -4 -14 18 -13 17 -14 -8 -31 -28 -18 -59 -14 -55 7 2 7 -10 12 -34 12 -20
1 -34 -2 -31 -6 2 -5 -11 -8 -30 -8 -26 0 -36 5 -45 25 -10 21 -9 27 2 31 23
9 0 49 -29 50 -14 1 -22 -2 -19 -7 3 -5 -4 -9 -15 -9 -30 0 -34 17 -6 24 27 7
34 26 10 26 -8 0 -15 4 -15 10 0 5 -6 7 -13 4 -8 -3 -18 6 -25 21 -11 23 -10
25 12 25 14 0 31 3 40 6 11 4 16 0 16 -12 0 -16 2 -17 10 -4 8 13 10 13 10 -1
0 -9 -10 -20 -22 -24 -22 -7 -22 -7 -3 -12 11 -3 22 -9 25 -13 3 -4 28 -10 55
-11 47 -4 50 -2 49 19 -1 20 3 22 28 17 17 -4 28 -2 28 4 0 6 9 11 20 11 14 0
18 5 13 17 -4 10 -2 14 4 10 5 -4 19 0 29 8 13 11 15 15 4 13 -9 -2 -15 5 -16
17 0 11 -6 31 -13 43 -7 13 -10 26 -7 30 4 3 -8 12 -25 19 -34 14 -49 16 -49
7z m-365 -821 c-4 -16 -8 -37 -7 -48 0 -11 -2 -14 -5 -7 -3 6 -11 12 -19 12
-10 0 -12 5 -8 13 5 8 2 8 -9 -2 -23 -18 -22 -44 1 -37 26 8 55 -18 47 -43 -8
-26 -38 -43 -59 -35 -20 8 -20 20 -1 28 8 3 15 10 15 16 0 6 -40 10 -105 10
-63 0 -105 4 -105 10 0 6 9 10 19 10 13 0 21 9 26 28 7 36 39 57 57 38 16 -15
38 -10 38 10 0 8 5 14 11 14 6 0 9 -6 6 -14 -3 -8 -3 -16 0 -19 7 -7 65 14 81
30 20 20 25 16 17 -14z m-187 -112 c10 -6 7 -12 -12 -24 -14 -10 -29 -17 -33
-17 -14 0 -30 -46 -23 -65 5 -13 -1 -28 -16 -44 -23 -25 -23 -41 0 -41 6 0 18
16 25 35 7 19 18 35 25 35 7 0 26 13 42 30 25 26 36 29 86 30 36 0 58 5 61 13
2 6 6 10 9 7 9 -9 -11 -65 -34 -93 -20 -24 -33 -28 -91 -34 -50 -4 -74 -12
-95 -29 -36 -32 -70 -31 -78 1 -3 14 -12 25 -20 25 -8 0 -14 5 -14 10 0 6 -9
19 -21 31 l-21 21 24 33 c14 22 30 33 41 31 11 -1 32 10 47 26 29 28 71 37 98
19z"/>
<path d="M4830 6634 c0 -4 19 -23 42 -44 l43 -38 -38 -16 -39 -16 7 -47 c3
-26 7 -48 8 -49 1 -1 25 2 52 7 60 12 89 17 93 18 2 1 -4 14 -13 29 -13 21
-24 28 -44 26 -19 -1 -20 0 -3 3 20 4 33 33 14 33 -4 0 -30 22 -57 50 -47 46
-65 59 -65 44z"/>
<path d="M4712 6533 c-14 -5 -52 -84 -52 -107 0 -8 24 -11 77 -11 l78 0 3 47
c3 44 1 49 -23 58 -39 15 -68 20 -83 13z"/>
<path d="M9177 6484 c5 -31 2 -39 -21 -58 -49 -38 -39 -88 36 -191 81 -109
124 -173 139 -207 7 -16 16 -28 20 -28 5 0 23 28 40 62 17 34 53 98 80 141 27
43 49 82 49 87 0 5 7 16 16 25 9 8 18 33 21 53 5 36 3 39 -36 57 -37 16 -43
17 -54 3 -6 -8 -29 -25 -50 -38 -75 -44 -156 -11 -214 88 -14 23 -26 42 -28
42 -2 0 -1 -16 2 -36z"/>
<path d="M622 4893 c-6 -16 -21 -95 -32 -178 -18 -133 -18 -151 -5 -161 14
-11 22 -64 9 -64 -4 0 -13 8 -20 18 -12 15 -13 13 -13 -18 0 -19 3 -29 6 -22
3 7 24 12 53 12 44 0 48 2 55 27 4 19 2 29 -10 36 -13 7 -14 12 -4 23 13 15
33 9 23 -8 -4 -6 -2 -13 3 -17 6 -3 17 -19 26 -36 l15 -30 12 30 c6 17 16 67
21 113 10 92 4 139 -16 122 -16 -13 -28 -1 -15 16 8 8 6 16 -5 27 -8 9 -15 21
-15 27 0 7 -8 9 -22 5 -17 -6 -20 -4 -15 9 7 17 -21 58 -33 51 -4 -3 -5 7 -2
20 6 33 -3 32 -16 -2z"/>
<path d="M514 3441 c-11 -10 -29 -21 -40 -25 -16 -5 -19 -17 -22 -80 -4 -83 7
-98 64 -92 l29 3 3 107 c1 58 -1 106 -6 106 -4 0 -17 -8 -28 -19z"/>
<path d="M18507 2595 c-9 -9 -17 -25 -17 -37 0 -17 -4 -19 -30 -13 -19 4 -36
2 -45 -5 -18 -15 -20 -73 -3 -103 6 -12 12 -49 13 -82 0 -33 4 -73 9 -90 6
-25 5 -27 -4 -12 -9 14 -15 16 -25 7 -8 -7 -24 -9 -37 -6 -13 3 -17 3 -11 0
10 -4 10 -11 2 -26 -6 -11 -8 -23 -4 -26 3 -3 8 4 12 16 7 27 23 29 23 3 0
-23 -27 -46 -53 -46 -11 0 -22 -6 -25 -14 -4 -11 4 -13 39 -9 24 3 37 3 29 0
-9 -3 4 -10 30 -16 32 -8 46 -17 49 -31 2 -11 8 -23 14 -27 21 -13 102 -19
127 -10 25 10 25 10 -10 20 l-35 10 47 1 c38 1 46 -2 42 -14 -5 -12 1 -15 27
-14 19 1 26 3 17 6 -10 2 -18 9 -18 14 0 10 8 14 51 23 22 5 60 56 41 56 -4 0
-7 21 -8 48 0 28 -8 59 -19 76 -16 24 -19 45 -17 123 l3 93 -25 0 c-19 0 -26
5 -26 19 0 50 -128 102 -163 66z"/>
<path d="M10617 2449 c-5 -18 -11 -20 -69 -14 -35 3 -73 8 -85 11 -12 2 -25
-1 -29 -7 -9 -15 -266 -2 -276 14 -5 8 -11 7 -22 -2 -9 -7 -23 -10 -33 -7 -21
8 -133 -4 -133 -15 0 -4 13 -16 30 -25 20 -13 26 -21 20 -30 -15 -17 65 -24
291 -24 188 0 197 1 202 20 3 13 13 20 29 20 16 0 19 -3 10 -9 -11 -7 -10 -9
3 -15 9 -3 13 -10 10 -16 -3 -5 3 -10 14 -10 16 0 19 6 16 28 -3 26 -1 28 21
24 13 -2 27 -9 30 -14 4 -6 -2 -8 -15 -3 -11 3 -21 2 -21 -3 0 -12 68 -23 98
-16 17 5 21 3 16 -9 -3 -9 -21 -18 -42 -20 -21 -2 -8 -4 28 -3 57 1 65 3 66
21 1 11 3 22 4 25 1 3 3 15 4 27 2 20 -3 22 -71 28 -62 6 -73 10 -73 26 0 25
-16 24 -23 -2z"/>
<path d="M2660 2006 c0 -6 17 -20 38 -31 40 -21 71 -53 72 -72 0 -7 8 -17 18
-22 15 -9 15 -10 1 -11 -9 0 -19 -8 -21 -18 -5 -16 -15 -18 -97 -14 -62 3 -96
1 -106 -8 -8 -6 -22 -9 -32 -6 -10 3 -76 16 -148 29 -104 19 -145 22 -206 16
-75 -7 -119 -21 -119 -38 0 -15 27 -21 138 -31 107 -10 153 -18 162 -29 13
-16 113 -42 183 -48 43 -3 80 -10 83 -14 3 -5 13 -9 22 -9 14 0 14 2 3 9 -9 6
-1 10 27 13 22 2 39 1 37 -3 -6 -8 43 -34 50 -27 3 3 0 12 -8 20 -13 12 -7 14
45 14 41 -1 62 -6 68 -16 7 -11 12 -12 21 -3 9 9 16 9 31 0 16 -10 22 -9 33 7
10 14 23 17 51 14 30 -4 38 -1 42 15 4 17 11 19 66 14 60 -5 60 -5 33 11 -29
18 -37 38 -11 28 39 -15 64 -18 64 -7 0 6 9 11 20 11 29 0 24 -18 -10 -38 -30
-17 -39 -32 -20 -32 6 0 10 4 10 9 0 5 8 12 18 16 9 3 25 12 35 19 18 14 18
15 -1 34 -33 33 -58 42 -116 42 -30 0 -57 4 -60 9 -4 5 22 9 59 10 36 0 65 -3
65 -7 0 -9 122 -7 193 3 43 6 47 5 47 -14 0 -12 6 -21 14 -21 19 0 29 17 19
33 -4 6 -6 20 -5 30 2 9 0 17 -3 17 -18 0 -101 -24 -105 -31 -3 -4 -22 -4 -43
0 -20 5 -37 6 -37 2 0 -9 -57 -8 -66 2 -4 4 9 7 29 7 21 0 37 5 37 10 0 6 7
10 15 10 8 0 15 5 15 11 0 11 15 9 55 -7 19 -7 19 -7 3 9 -9 9 -22 17 -29 17
-19 0 2 17 26 22 43 9 -246 29 -345 24 -58 -2 -108 -5 -112 -5 -4 -1 -13 -7
-20 -15 -8 -7 -25 -17 -38 -21 -22 -7 -23 -6 -8 9 9 9 21 16 26 16 22 0 18 25
-4 26 -13 1 -21 -2 -18 -7 3 -5 -2 -9 -11 -9 -8 0 -18 -7 -21 -15 -8 -21 -27
-19 -20 3 3 9 1 24 -4 32 -8 13 -13 13 -41 -3 -22 -12 -36 -14 -47 -7 -16 9
-15 9 1 10 10 0 16 4 13 9 -8 13 -56 10 -56 -3z"/>
<path d="M3912 1807 c-5 -7 -12 -20 -15 -29 -9 -27 -27 -22 -27 7 0 24 -2 25
-42 20 -24 -3 -59 -10 -78 -15 -19 -5 -44 -11 -55 -14 -11 -2 -1 -4 23 -5 24
0 42 4 42 10 0 6 14 9 33 7 38 -4 43 -22 7 -26 -14 -2 -29 -8 -34 -13 -13 -12
-29 -12 -21 1 3 6 -1 10 -9 10 -10 0 -16 -9 -16 -21 0 -19 4 -20 33 -15 17 4
49 7 70 6 20 0 47 5 60 12 12 7 57 13 100 14 72 1 96 -7 62 -20 -8 -3 -15 -10
-15 -16 0 -5 7 -10 15 -10 8 0 15 4 15 10 0 5 18 19 40 30 22 11 40 25 40 30
0 14 -11 12 -29 -4 -16 -14 -71 -11 -71 4 0 11 30 21 40 15 5 -3 11 -1 15 5 4
6 -9 10 -32 11 -21 0 -61 2 -90 4 -32 2 -55 -1 -61 -8z"/>
</g>
</svg>
