<?xml version="1.0" standalone="no"?>
<!DOCTYPE svg PUBLIC "-//W3C//DTD SVG 20010904//EN"
 "http://www.w3.org/TR/2001/REC-SVG-20010904/DTD/svg10.dtd">
<svg version="1.0" xmlns="http://www.w3.org/2000/svg"
 width="1944.000000pt" height="1296.000000pt" viewBox="0 0 1944.000000 1296.000000"
 preserveAspectRatio="xMidYMid meet">
<metadata>
Created by potrace 1.16, written by Peter Selinger 2001-2019
</metadata>
<g transform="translate(0.000000,1296.000000) scale(0.100000,-0.100000)"
fill="#000000" stroke="none">
<path d="M2280 12920 c0 -22 -4 -40 -10 -40 -6 0 -10 -43 -10 -109 0 -91 4
-123 26 -189 19 -56 32 -82 45 -85 45 -12 65 91 34 166 -10 23 -15 69 -15 126
0 81 2 92 25 119 37 45 32 52 -35 52 l-60 0 0 -40z"/>
<path d="M667 12726 c-9 -7 -17 -25 -17 -40 0 -28 -56 -96 -79 -96 -6 0 -11
-14 -11 -31 l0 -32 53 6 c65 6 105 -7 87 -28 -6 -8 -9 -19 -6 -24 4 -5 -1 -26
-11 -45 -15 -33 -16 -39 -1 -70 17 -35 18 -52 4 -74 -5 -9 -1 -15 14 -19 21
-5 20 -7 -10 -19 -18 -8 -43 -14 -55 -14 -19 0 -24 -7 -30 -47 -7 -52 -29 -85
-50 -77 -22 9 -55 -33 -55 -68 0 -44 13 -62 39 -55 19 5 21 1 21 -36 0 -23 -3
-59 -6 -79 -6 -37 -8 -38 -47 -38 l-40 0 5 50 5 50 -41 1 c-89 3 -96 -2 -96
-71 0 -44 16 -78 53 -115 28 -27 160 -33 219 -11 68 26 82 58 114 266 14 97
24 175 27 220 1 14 4 27 8 30 3 3 9 17 13 33 5 20 3 27 -9 27 -19 0 -21 65 -2
85 27 31 33 42 52 98 26 78 17 92 -57 88 -47 -2 -58 1 -67 17 -9 17 -7 85 4
101 2 4 1 12 -3 18 -5 8 -12 8 -25 -1z"/>
<path d="M9640 12298 c-7 -29 -19 -66 -27 -83 l-14 -30 5 33 c3 18 2 31 -3 28
-5 -3 -9 10 -8 29 1 19 -4 40 -11 47 -15 15 -16 -46 -2 -122 8 -40 7 -57 -2
-68 -10 -12 -10 -16 0 -19 6 -3 12 -12 12 -20 0 -9 -6 -13 -14 -10 -8 3 -20 0
-26 -8 -6 -7 -21 -12 -32 -10 -28 6 -42 -4 -28 -20 8 -9 5 -16 -12 -27 -20
-13 -67 -29 -90 -32 -9 -1 -46 -26 -68 -46 -9 -8 -46 -30 -83 -47 -37 -18 -67
-37 -67 -43 0 -5 -10 -10 -22 -10 -21 1 -22 2 -5 14 9 7 17 18 17 24 0 5 7 13
16 16 8 3 12 11 9 17 -5 7 -17 1 -34 -15 -15 -14 -32 -26 -39 -26 -7 0 -12 -7
-12 -15 0 -8 -11 -22 -25 -31 -14 -9 -25 -22 -25 -30 0 -7 -11 -25 -24 -41
-20 -23 -26 -25 -39 -14 -13 10 -21 9 -47 -11 -29 -21 -30 -23 -13 -36 13 -11
15 -16 5 -19 -7 -3 -21 -21 -32 -41 -10 -21 -39 -58 -63 -83 -24 -25 -47 -53
-50 -63 -4 -9 -13 -16 -22 -16 -8 0 -15 -6 -15 -14 0 -8 -4 -16 -8 -18 -9 -3
-106 -119 -137 -163 -11 -16 -26 -34 -32 -41 -7 -7 -13 -15 -13 -19 0 -7 -39
-62 -57 -83 -7 -7 -28 -45 -48 -85 -19 -40 -56 -101 -80 -136 -27 -39 -43 -71
-40 -81 3 -9 -1 -33 -10 -53 -8 -20 -15 -46 -15 -58 0 -27 -51 -109 -67 -109
-21 0 -15 -28 7 -35 11 -3 20 -11 20 -16 0 -15 -26 -10 -50 9 -19 15 -21 22
-11 40 6 11 11 30 11 41 0 12 6 21 14 21 9 0 12 -9 8 -27 l-5 -28 22 24 c15
18 18 27 10 37 -10 12 4 50 24 65 4 3 3 16 -2 30 -9 22 -10 23 -10 3 -1 -12
-7 -27 -15 -33 -11 -10 -12 -4 -4 36 9 49 1 173 -11 173 -14 0 -51 -32 -50
-43 0 -9 2 -9 6 1 20 51 30 -84 12 -175 -11 -53 -16 -63 -33 -64 -59 -1 -132
-11 -141 -19 -5 -4 -19 -10 -30 -12 -15 -3 -9 -8 22 -18 38 -12 45 -11 61 3
22 20 87 24 78 5 -3 -7 -9 -21 -12 -30 -3 -10 -15 -20 -26 -24 -24 -7 -88 4
-105 18 -7 6 -19 8 -27 5 -10 -4 -13 -1 -9 9 4 11 -2 14 -24 12 -16 -1 -34 1
-41 6 -7 4 -12 2 -12 -7 0 -14 -28 -27 -57 -27 -7 0 -13 8 -14 18 0 9 -3 12
-5 5 -4 -9 -15 -6 -39 10 -38 24 -47 39 -39 62 9 21 24 8 24 -21 0 -13 3 -24
6 -24 11 0 34 29 34 42 0 7 11 18 25 25 20 9 25 8 25 -3 0 -8 5 -14 10 -14 7
0 8 14 4 38 -9 52 -14 57 -31 33 -8 -12 -19 -19 -24 -16 -5 4 -14 -5 -21 -19
-11 -25 -12 -25 -35 32 -14 34 -23 72 -21 94 2 20 0 34 -5 31 -5 -3 -14 2 -20
10 -7 8 -21 17 -32 19 -22 4 -71 -35 -80 -63 -12 -38 -68 -28 -138 25 -19 15
-39 26 -44 26 -14 0 -75 59 -92 90 -8 14 -16 41 -18 60 -10 97 -54 150 -123
150 -18 0 -43 9 -57 20 -14 11 -31 20 -38 20 -7 0 -24 9 -38 20 -14 11 -29 20
-34 19 -24 -4 -43 3 -43 15 0 7 -9 16 -20 19 -11 3 -20 1 -20 -5 0 -6 -16 -7
-40 -3 -28 5 -40 3 -40 -5 0 -6 -19 5 -42 24 -43 37 -58 44 -58 25 0 -6 -9 -8
-22 -3 -13 4 -52 8 -87 9 -43 1 -66 6 -69 14 -3 8 -13 21 -23 30 -70 59 -96
94 -113 148 -20 63 -88 143 -138 162 -125 48 -286 -3 -355 -111 -47 -75 -57
-121 -43 -191 8 -34 26 -89 41 -122 32 -70 39 -99 46 -178 5 -54 3 -60 -24
-83 -15 -14 -48 -36 -73 -49 -135 -73 -218 -226 -224 -410 -8 -231 -26 -386
-53 -462 -11 -30 -14 -66 -11 -125 6 -107 37 -173 105 -219 54 -38 148 -78
180 -79 29 0 91 -37 104 -62 8 -14 6 -32 -7 -70 -11 -34 -14 -65 -10 -97 8
-58 -15 -92 -65 -96 -67 -5 -149 -108 -164 -205 -13 -89 -38 -146 -106 -237
-38 -51 -69 -97 -69 -102 0 -5 -3 -11 -7 -13 -5 -1 -22 -23 -39 -48 -33 -49
-50 -99 -58 -172 -3 -26 -10 -56 -15 -65 -6 -10 -16 -34 -24 -53 -8 -19 -25
-57 -37 -85 -12 -27 -28 -66 -35 -86 -7 -19 -22 -56 -34 -82 -39 -85 -43 -101
-51 -187 -5 -47 -13 -105 -19 -130 -6 -25 -15 -106 -21 -181 -6 -74 -14 -149
-19 -165 -4 -16 -7 -91 -5 -167 3 -118 1 -144 -16 -190 -22 -58 -25 -95 -10
-147 13 -46 -1 -79 -42 -103 -24 -14 -59 -19 -142 -22 -165 -6 -218 -12 -226
-25 -6 -9 -38 -12 -105 -11 -57 0 -103 -3 -111 -10 -9 -7 -19 -7 -33 0 -11 6
-53 11 -94 11 -51 0 -78 4 -86 14 -6 7 -35 17 -63 20 -29 4 -57 11 -63 16 -14
12 -98 20 -258 27 -112 4 -145 2 -178 -11 -35 -14 -43 -15 -75 -1 -20 8 -53
15 -73 15 -20 0 -43 6 -49 12 -10 10 -17 10 -32 0 -11 -6 -34 -12 -52 -12 -18
0 -42 -7 -52 -15 -28 -21 -41 -19 -78 16 -18 17 -45 37 -60 45 -16 8 -28 19
-28 24 0 6 -7 10 -15 10 -8 0 -15 4 -15 9 0 6 -19 13 -43 16 -53 8 -117 -15
-117 -42 0 -22 -42 -63 -64 -63 -9 0 -16 -5 -16 -12 0 -9 -3 -9 -12 0 -7 7
-24 12 -39 12 -15 0 -29 5 -31 11 -2 6 -51 12 -118 15 -63 3 -133 9 -155 15
-22 5 -94 11 -160 12 -145 4 -165 12 -165 67 0 25 5 40 12 40 7 0 3 10 -9 21
-14 14 -38 23 -71 27 l-49 4 -6 -38 c-4 -22 -7 -53 -7 -70 0 -40 -26 -62 -82
-70 -42 -6 -147 16 -173 36 -5 4 -35 10 -65 14 -30 3 -86 11 -125 16 -136 21
-251 28 -308 20 -33 -5 -139 -4 -240 1 -100 6 -240 11 -312 13 -123 2 -202 16
-234 40 -15 11 -73 35 -109 43 -12 3 -22 9 -22 14 0 14 -110 10 -160 -5 -25
-7 -71 -16 -102 -20 -38 -5 -62 -14 -70 -25 -22 -31 -89 -71 -120 -71 -16 0
-45 7 -65 15 -19 8 -37 15 -39 15 -2 0 -4 -83 -4 -185 0 -140 3 -187 13 -189
15 -5 266 -35 329 -39 26 -2 90 1 141 8 52 7 108 10 125 7 18 -2 32 0 32 4 0
5 19 9 43 10 23 0 67 1 97 3 30 2 84 0 118 -4 l64 -8 -4 -37 c-3 -31 -1 -36
14 -32 13 3 18 14 18 42 0 30 5 39 25 48 15 7 25 8 25 2 0 -6 18 -10 40 -10
22 0 40 5 40 10 0 6 18 10 40 10 22 0 40 -4 40 -10 0 -5 -4 -10 -9 -10 -5 0
-27 -17 -49 -38 -36 -35 -45 -38 -91 -38 -28 1 -51 -2 -51 -6 0 -4 -9 -10 -20
-13 -28 -9 -17 -21 24 -29 19 -4 36 -11 38 -16 3 -11 100 -16 116 -6 6 3 43 1
84 -5 93 -13 349 -13 358 0 3 6 51 18 105 26 82 14 138 15 315 9 118 -4 267
-6 330 -5 161 2 285 -14 337 -45 51 -29 144 -33 218 -7 36 12 50 13 53 5 2 -7
9 -9 15 -5 13 8 53 15 182 32 220 30 254 33 310 21 30 -6 69 -9 85 -5 18 4 50
0 80 -10 41 -14 55 -24 76 -62 l27 -44 141 5 c77 3 172 8 210 12 44 4 71 2 75
-5 9 -13 241 -42 284 -35 75 13 82 15 66 25 -12 8 -12 10 1 19 17 13 106 6
124 -9 21 -18 317 -6 508 19 153 21 184 22 224 12 26 -7 88 -15 139 -19 111
-7 159 6 181 48 8 16 49 55 92 86 129 94 192 154 209 194 17 43 50 69 89 69
24 0 156 -78 170 -101 3 -6 -1 -16 -10 -22 -24 -19 -33 -57 -24 -101 5 -23 12
-71 16 -108 4 -37 11 -71 16 -75 11 -12 237 -24 520 -28 263 -3 284 -7 305
-52 6 -13 11 -71 11 -129 0 -101 11 -180 31 -216 5 -10 9 -28 9 -40 1 -13 7
-34 15 -48 17 -30 19 -103 4 -132 -15 -28 -92 -133 -114 -155 -21 -21 -54 -91
-55 -115 0 -10 -19 -29 -41 -44 -79 -49 -234 -172 -294 -232 -67 -66 -285
-384 -362 -527 -27 -49 -59 -118 -73 -153 -14 -34 -28 -62 -32 -62 -5 0 -8 -8
-8 -19 0 -10 -6 -24 -13 -30 -8 -6 -20 -29 -27 -51 -13 -38 -12 -41 13 -64 35
-33 36 -29 -14 -143 -11 -24 -19 -47 -19 -51 0 -5 -9 -17 -20 -27 -11 -10 -20
-24 -20 -32 0 -7 -5 -13 -10 -13 -6 0 -18 -13 -29 -30 -19 -32 -37 -31 -20 1
17 34 -20 22 -63 -18 -34 -33 -68 -81 -68 -98 0 -3 14 -5 30 -5 17 0 30 -3 30
-6 0 -10 -29 -34 -42 -34 -17 0 -86 -24 -94 -33 -4 -4 -20 -7 -35 -7 -35 0
-199 -108 -230 -151 -24 -35 -21 -36 26 -8 20 12 57 24 81 26 39 3 45 1 42
-14 -4 -23 -77 -71 -100 -65 -10 2 -20 -2 -24 -12 -3 -9 -12 -16 -19 -16 -29
0 -24 -19 10 -39 41 -24 43 -41 13 -84 -12 -17 -17 -27 -10 -23 7 4 12 1 12
-8 0 -8 -4 -18 -10 -21 -5 -3 -10 -2 -10 3 0 6 -12 13 -27 17 -25 6 -36 -2
-115 -87 -48 -51 -88 -99 -88 -105 0 -7 -4 -13 -9 -13 -16 0 -81 -66 -81 -83
0 -9 5 -17 10 -17 17 0 11 -29 -10 -50 -11 -11 -20 -25 -20 -31 0 -6 -14 -28
-30 -48 -17 -20 -35 -42 -41 -49 -5 -7 -7 -17 -4 -22 3 -5 1 -18 -4 -27 -6
-10 -11 -12 -11 -5 0 28 -21 9 -41 -39 -15 -33 -27 -48 -35 -45 -8 3 -14 -1
-14 -9 0 -17 17 -29 22 -15 1 5 22 11 45 13 23 2 49 11 57 20 9 9 25 19 36 22
11 3 20 11 20 17 0 6 3 9 6 5 3 -3 -15 -27 -40 -53 -25 -26 -46 -41 -46 -33 0
36 -100 -102 -100 -139 0 -9 -7 -26 -15 -36 -8 -11 -13 -28 -9 -38 3 -10 1
-18 -5 -18 -6 0 -11 -13 -11 -30 0 -16 -5 -30 -11 -30 -6 0 -9 -7 -5 -15 3 -8
-6 -27 -20 -42 -72 -77 -105 -123 -90 -123 9 0 16 5 16 10 0 6 10 15 23 20 12
6 30 14 40 20 9 5 25 14 34 18 9 5 27 40 41 78 13 38 27 71 32 74 4 3 11 20
15 38 3 18 11 30 16 26 16 -9 10 -62 -11 -99 -16 -29 -17 -35 -5 -35 8 0 15 7
15 15 0 8 7 15 15 15 19 0 19 -24 0 -40 -8 -7 -15 -18 -15 -26 0 -7 -6 -19
-13 -26 -8 -7 -17 -27 -21 -43 -5 -22 -4 -26 4 -15 5 8 10 10 10 4 0 -6 -10
-18 -21 -26 -12 -8 -20 -20 -18 -27 5 -14 69 39 69 57 0 5 6 15 14 21 7 6 16
25 20 41 4 22 11 30 27 30 11 0 34 14 50 31 19 20 27 25 23 13 -4 -11 -15 -27
-26 -37 -10 -10 -18 -22 -18 -26 0 -5 -8 -7 -17 -5 -13 3 -23 -7 -35 -34 -10
-21 -18 -43 -18 -49 0 -6 -7 -16 -15 -23 -8 -7 -15 -23 -15 -36 0 -19 -5 -24
-25 -24 -14 0 -25 -6 -25 -13 0 -13 -40 -43 -52 -39 -4 1 -6 -12 -5 -28 1 -17
7 -30 12 -30 15 0 65 59 65 76 0 8 7 14 15 14 8 0 15 -4 15 -9 0 -14 -40 -82
-63 -108 -13 -14 -16 -23 -8 -23 16 0 41 25 41 40 0 6 4 9 9 6 16 -11 0 -41
-28 -54 -31 -14 -55 -35 -91 -83 -14 -17 -39 -48 -57 -68 -35 -38 -58 -93 -50
-115 8 -20 52 -8 81 21 18 17 31 23 45 18 25 -8 27 -24 6 -51 -8 -10 -15 -40
-15 -65 0 -26 -9 -66 -20 -90 -22 -49 -25 -69 -10 -69 6 0 10 7 10 15 0 8 4
15 9 15 24 0 -15 -118 -55 -170 -24 -31 -26 -58 -5 -79 16 -16 21 -17 25 -5 3
8 -1 14 -9 14 -8 0 -15 5 -15 10 0 6 4 10 9 10 5 0 16 3 25 6 12 4 16 0 16
-15 0 -31 15 -26 39 14 13 22 28 35 41 35 24 0 26 -24 5 -60 -19 -33 -19 -100
1 -128 14 -21 14 -30 0 -101 -20 -99 -20 -105 2 -96 9 4 23 8 30 8 6 0 12 10
12 21 0 12 14 50 31 86 18 38 26 66 20 68 -14 5 -14 23 2 60 12 30 13 31 44
15 l31 -15 -14 -41 c-8 -23 -31 -75 -50 -115 -36 -72 -39 -97 -9 -72 13 11 15
7 17 -26 0 -22 1 -46 0 -55 -1 -13 4 -15 20 -11 15 4 19 2 13 -7 -8 -14 -55
-180 -55 -196 0 -5 14 4 30 22 17 18 30 39 30 47 0 8 5 18 10 21 6 3 10 -1 10
-10 0 -9 4 -14 9 -11 5 3 11 -13 14 -36 4 -33 2 -45 -14 -59 -19 -17 -25 -40
-12 -53 9 -9 53 43 53 64 0 22 53 60 85 60 27 0 31 -13 16 -54 -7 -17 -7 -26
1 -28 12 -4 -4 -67 -27 -103 -13 -22 -8 -95 6 -95 5 0 12 8 16 18 3 9 15 26
26 36 22 22 22 33 1 -104 -10 -62 11 -48 37 25 12 36 26 65 31 65 4 0 8 8 8
17 0 12 3 14 11 6 8 -8 7 -19 -4 -40 -8 -15 -20 -53 -27 -82 -13 -56 -50 -113
-50 -78 0 9 -5 17 -11 17 -8 0 -10 -16 -6 -51 4 -29 8 -54 11 -56 2 -2 22 -4
44 -5 37 0 42 -3 47 -29 6 -24 12 -77 14 -122 1 -15 21 4 21 20 0 9 10 43 22
77 l23 61 7 -55 c4 -30 5 -65 3 -77 -3 -12 -1 -25 5 -28 5 -3 10 0 10 8 0 14
20 27 41 27 5 0 9 -9 9 -20 0 -11 4 -20 10 -20 15 0 35 -43 21 -48 -7 -2 -11
-32 -10 -85 0 -64 2 -77 10 -58 5 14 12 50 16 80 6 66 3 60 32 64 12 2 27 10
32 18 8 12 11 11 20 -5 9 -15 13 -16 20 -5 6 10 9 7 9 -10 0 -13 7 -29 17 -36
10 -8 18 -32 21 -69 3 -39 9 -56 18 -56 10 0 15 14 16 43 1 36 2 38 5 9 4 -30
7 -32 44 -32 21 0 39 -5 39 -10 0 -6 21 -10 50 -9 35 2 50 7 53 18 4 13 5 13
6 -1 1 -17 276 -18 5552 -18 l5550 0 -7 22 c-4 13 -13 32 -20 43 -8 11 -14 27
-14 36 0 9 -7 19 -15 23 -8 3 -15 10 -15 16 0 5 7 10 15 10 8 0 15 -4 15 -10
0 -5 25 -36 56 -67 39 -40 49 -47 32 -23 -107 153 -132 198 -133 240 0 29 3
36 15 33 8 -3 -1 10 -21 29 -20 18 -45 49 -56 67 -10 19 -32 42 -49 50 -24 12
-30 22 -30 47 0 25 4 31 21 30 15 -1 19 -7 18 -24 -3 -19 1 -23 19 -20 15 2
24 -3 27 -18 4 -11 12 -27 19 -35 36 -40 62 -75 62 -80 0 -4 20 -16 44 -27 24
-12 47 -29 50 -39 7 -17 8 -17 22 1 8 12 14 15 14 7 0 -11 3 -11 15 -1 11 9
19 8 39 -7 14 -10 26 -25 26 -33 0 -25 71 -93 123 -118 31 -16 47 -30 47 -42
0 -10 11 -25 24 -32 13 -7 48 -28 77 -45 l54 -33 156 0 157 0 -35 38 c-97 102
-111 119 -128 147 -10 17 -24 34 -32 38 -7 4 -13 14 -13 22 0 7 -5 15 -11 17
-14 5 -25 133 -12 141 6 4 29 9 52 12 53 6 80 20 91 48 l9 22 0 -22 c1 -12 5
-24 10 -28 12 -7 10 -45 -3 -45 -5 0 -6 -3 -2 -7 4 -4 14 -8 22 -8 7 0 13 -3
11 -7 -3 -8 79 -68 93 -68 20 0 9 -38 -16 -55 -22 -14 -25 -23 -22 -57 2 -29
-1 -43 -11 -46 -9 -3 -11 0 -6 8 5 8 3 11 -6 8 -8 -2 -15 -20 -16 -39 -1 -19
0 -28 3 -21 9 20 24 14 24 -9 0 -12 7 -27 15 -33 9 -6 17 -21 18 -34 l1 -22
635 0 634 0 -9 53 c-5 28 -9 129 -9 222 l0 171 -40 64 c-50 79 -59 103 -80
205 -19 87 -46 148 -107 238 -36 52 -41 67 -48 145 -8 81 -39 187 -65 222 -21
29 -53 105 -59 145 -4 22 -13 60 -20 85 -8 25 -22 79 -31 120 -43 192 -101
339 -178 445 l-36 51 21 32 20 32 -35 47 c-19 27 -45 68 -57 93 -12 25 -40 64
-61 86 -27 30 -45 65 -62 120 -22 69 -30 83 -69 111 -118 88 -109 77 -168 229
-41 107 -75 138 -155 145 -33 3 -40 1 -37 -13 3 -21 -35 -48 -57 -41 -39 12
-59 26 -54 38 3 8 -5 15 -19 17 -17 2 -32 20 -57 68 -42 78 -121 156 -216 212
-38 22 -94 57 -124 77 -55 36 -68 43 -162 92 -77 40 -89 38 -89 -10 0 -22 -4
-42 -8 -45 -5 -3 -8 16 -6 42 2 26 5 90 8 142 3 63 11 115 26 155 30 84 25
175 -13 230 -15 22 -27 43 -27 46 0 7 71 45 222 121 31 15 58 32 60 37 7 20
261 161 413 230 17 7 64 28 105 46 41 19 118 57 170 86 102 56 398 206 545
277 50 24 101 49 115 57 14 7 66 26 115 40 50 15 96 29 103 31 8 2 12 12 10
21 -3 15 -15 18 -68 20 -82 3 -170 22 -192 41 -10 9 -18 29 -18 47 0 24 6 34
25 43 35 16 125 15 243 -2 53 -8 142 -17 197 -21 55 -3 135 -8 178 -11 l77 -6
0 497 c0 396 -3 495 -12 488 -7 -6 -53 -23 -101 -38 -48 -16 -90 -32 -93 -37
-3 -4 -12 -8 -21 -8 -8 0 -48 -20 -87 -45 -40 -25 -80 -45 -89 -45 -10 0 -17
-4 -17 -10 0 -5 -13 -10 -30 -10 -16 0 -30 -4 -30 -8 0 -10 -70 -43 -150 -71
-50 -17 -73 -26 -165 -66 -48 -20 -177 -72 -215 -86 -33 -12 -59 -25 -168 -85
-23 -13 -47 -24 -52 -24 -5 0 -40 -14 -77 -31 -75 -34 -104 -47 -178 -77 -27
-12 -81 -35 -118 -51 -38 -17 -72 -31 -77 -31 -5 0 -30 -11 -57 -24 -26 -13
-77 -34 -113 -47 -36 -13 -71 -29 -78 -36 -7 -7 -20 -13 -28 -13 -16 0 -214
-99 -255 -127 -14 -10 -50 -46 -78 -81 -29 -35 -65 -68 -79 -73 -15 -6 -30
-16 -35 -22 -11 -16 1 121 13 142 4 9 13 60 19 113 6 53 18 129 27 170 8 40
20 107 25 148 5 41 13 107 19 145 18 134 8 414 -19 535 -40 178 -50 218 -59
241 -15 38 13 95 51 103 47 10 87 -3 87 -29 0 -28 18 -36 64 -28 40 6 73 37
78 73 2 16 9 24 19 22 9 -1 24 7 34 18 18 20 18 20 -18 20 -23 0 -37 5 -37 13
0 14 -56 126 -71 142 -5 5 -9 19 -9 31 0 63 -56 130 -138 165 -59 26 -64 25
-108 -20 -31 -30 -50 -40 -89 -45 -69 -10 -95 -29 -95 -69 0 -17 4 -37 8 -42
9 -13 72 -35 99 -35 27 0 68 -34 59 -48 -4 -7 -14 -12 -22 -12 -8 0 -14 -6
-14 -14 0 -14 -48 -36 -78 -36 -8 0 -31 -13 -51 -30 -39 -30 -100 -49 -161
-50 -39 0 -231 -75 -277 -108 -16 -11 -42 -22 -58 -24 -34 -3 -55 -38 -76
-120 -8 -33 -28 -65 -70 -113 -80 -90 -95 -122 -144 -309 -22 -86 -23 -88 -4
-107 10 -10 29 -19 42 -19 16 0 32 -12 50 -41 15 -22 27 -47 27 -55 0 -8 5
-14 10 -14 16 0 11 -38 -10 -80 -21 -40 -38 -130 -26 -130 4 0 35 7 70 16 59
15 67 15 98 0 77 -37 170 -231 212 -443 26 -132 46 -239 46 -251 0 -17 -23
-15 -67 5 -46 22 -53 30 -53 66 0 16 -5 38 -11 50 -7 11 -11 48 -10 80 1 33
-3 76 -10 96 -21 69 -63 151 -76 151 -7 0 -13 9 -13 20 0 12 -7 20 -16 20 -23
0 -74 -32 -74 -47 0 -6 -10 -19 -22 -27 -14 -10 -17 -16 -8 -16 10 0 9 -4 -4
-13 -17 -13 -16 -16 18 -61 20 -26 36 -51 37 -54 3 -31 10 -48 23 -58 9 -6 16
-21 16 -32 0 -12 15 -36 33 -54 18 -18 43 -51 57 -73 13 -22 27 -42 31 -45 23
-18 39 -75 37 -135 -1 -36 -5 -65 -9 -65 -4 0 -11 -9 -14 -20 -4 -12 -14 -20
-23 -19 -31 3 -43 -1 -37 -12 4 -5 -5 -34 -19 -64 -26 -53 -27 -53 -74 -54
-26 0 -63 -5 -82 -11 -39 -11 -164 -13 -223 -3 -44 7 -64 38 -41 61 8 7 14 20
14 28 0 8 7 14 15 14 7 0 19 8 24 17 9 15 12 15 19 5 7 -11 10 -9 15 7 3 12 1
21 -4 21 -14 0 -11 24 6 46 11 14 17 16 23 7 5 -8 12 -2 22 20 7 18 26 45 42
60 15 16 28 33 28 38 0 5 5 9 11 9 16 0 38 31 39 52 1 43 -71 158 -98 158 -8
0 -15 20 -38 110 -2 9 13 33 33 55 43 46 30 57 -24 21 -21 -14 -44 -26 -52
-26 -8 0 -39 -14 -69 -31 l-54 -31 -173 17 c-177 17 -210 17 -210 0 0 -22 -77
-164 -104 -193 -22 -22 -27 -36 -23 -57 3 -20 0 -32 -12 -41 -11 -8 -13 -14
-7 -19 16 -9 13 -42 -4 -49 -26 -10 -16 -26 17 -26 43 0 27 -12 -24 -19 -45
-6 -40 -1 -97 -120 -9 -18 -22 -35 -28 -38 -7 -3 -13 -11 -13 -19 0 -8 -5 -14
-11 -14 -5 0 -7 -5 -4 -11 12 -19 -5 -60 -40 -95 -26 -26 -43 -34 -70 -34 -24
0 -35 4 -35 15 0 8 -5 15 -11 15 -7 0 -9 -10 -5 -26 7 -26 7 -27 -38 -22 -35
4 -46 2 -46 -8 0 -8 -9 -14 -20 -14 -25 0 -25 -9 -2 -26 16 -12 16 -13 0 -14
-9 0 -20 5 -23 10 -3 6 -19 10 -34 10 -16 0 -34 6 -40 14 -11 13 -18 13 -53 0
-23 -8 -44 -11 -47 -6 -3 5 -14 11 -23 15 -10 3 -20 18 -24 32 -4 16 -13 25
-26 25 -10 0 -16 -4 -13 -10 3 -6 -5 -10 -19 -10 -14 0 -27 4 -30 9 -4 5 -30
13 -59 17 -28 4 -44 9 -34 12 10 2 29 9 42 16 25 13 25 13 -15 25 -41 12 -56
41 -21 41 10 0 24 7 31 15 10 13 9 15 -8 15 -12 0 -24 5 -27 10 -4 7 -13 6
-27 -1 -15 -8 -17 -13 -8 -19 16 -10 6 -40 -14 -40 -8 0 -22 7 -30 16 -20 20
-62 15 -58 -7 3 -19 -38 -33 -52 -19 -6 6 -17 10 -26 10 -8 0 -28 14 -43 30
-16 17 -35 30 -42 30 -25 0 -45 -12 -38 -23 4 -7 -12 -8 -51 -4 -42 4 -67 1
-91 -10 -64 -30 -79 -1 -48 88 20 56 38 66 79 44 55 -30 278 -8 325 32 8 7 20
13 27 13 15 0 96 97 120 145 27 54 53 76 95 78 32 2 34 3 25 28 -9 26 -36 43
-130 84 -68 29 -120 45 -147 45 -14 0 -39 7 -55 15 -34 18 -39 19 -30 3 5 -7
2 -9 -9 -5 -52 20 -89 18 -165 -7 -96 -32 -185 -97 -215 -157 -11 -22 -26 -43
-33 -46 -8 -3 -14 -12 -14 -20 0 -8 -9 -26 -20 -40 -11 -14 -20 -31 -20 -38 0
-7 -7 -18 -15 -25 -8 -7 -15 -22 -15 -34 0 -12 -7 -31 -15 -42 -16 -21 -21
-134 -6 -134 5 0 15 -15 21 -34 9 -28 15 -34 35 -31 21 2 25 -2 25 -22 0 -20
2 -22 13 -11 8 7 16 20 20 28 5 13 6 13 6 -1 1 -19 65 -24 98 -7 12 6 34 7 50
3 l28 -7 -24 -20 c-21 -16 -22 -21 -10 -29 7 -5 26 -9 42 -9 20 0 27 -5 27
-20 0 -12 16 -30 40 -46 22 -15 40 -31 40 -35 0 -5 7 -9 15 -9 19 0 19 -24 0
-40 -8 -7 -15 -21 -15 -31 0 -13 -7 -19 -22 -20 -13 0 49 -15 137 -34 204 -42
373 -93 450 -134 33 -18 51 -29 40 -25 -117 43 -230 77 -326 98 -162 36 -354
68 -387 64 -17 -2 1 -8 48 -16 220 -37 262 -46 345 -74 50 -17 128 -47 175
-68 105 -47 184 -60 325 -55 162 5 284 41 410 121 28 17 61 37 75 44 l25 12
-25 -25 c-32 -32 -161 -101 -236 -126 -115 -38 -168 -46 -302 -45 l-133 0 78
-41 c75 -40 180 -103 206 -123 45 -35 177 -96 209 -96 40 -1 45 3 26 22 -9 9
-9 12 0 12 6 0 15 -7 20 -16 11 -20 32 -10 32 14 0 15 -2 15 -10 2 -8 -12 -10
-9 -10 13 0 24 2 26 19 17 16 -8 21 -5 33 20 7 17 18 30 23 30 16 0 65 24 65
32 0 3 16 15 35 27 19 11 35 16 35 11 0 -18 27 -10 54 15 15 14 35 26 44 27 9
0 22 2 29 2 6 1 15 5 19 9 4 4 26 7 48 7 23 0 57 4 76 9 19 6 85 12 145 16
126 6 232 25 225 40 -3 6 -13 10 -22 9 -10 0 -18 5 -18 11 0 7 26 16 62 21 40
6 63 14 66 24 3 8 1 12 -3 8 -10 -9 -40 30 -31 39 10 10 55 -18 58 -36 8 -36
-6 -72 -33 -92 -31 -22 -141 -43 -279 -54 -47 -4 -88 -11 -91 -17 -4 -6 -35
-12 -69 -14 -78 -6 -139 -35 -140 -66 0 -5 11 -8 25 -8 18 0 25 -5 25 -20 0
-11 3 -19 8 -18 4 2 8 -1 10 -6 1 -6 -17 -11 -40 -13 -23 -2 -56 -11 -72 -19
-44 -22 -78 -27 -87 -12 -6 10 -9 8 -9 -6 0 -12 -5 -16 -15 -12 -10 4 -14 -1
-12 -17 1 -16 -7 -26 -32 -39 -19 -9 -39 -22 -44 -27 -6 -6 -20 -11 -31 -11
-23 0 -96 -31 -96 -41 0 -4 12 -18 28 -31 15 -13 34 -32 42 -43 8 -11 -1 -6
-20 11 -66 58 -93 75 -112 68 -14 -4 -21 0 -25 15 -3 12 -12 21 -19 21 -8 0
-18 8 -21 18 -9 22 -9 22 -193 147 -150 101 -277 172 -288 161 -3 -3 -10 -2
-16 3 -18 15 -116 49 -188 66 -37 8 -89 26 -116 40 -28 14 -55 25 -62 25 -7 0
-26 6 -43 14 -52 22 -112 36 -153 35 l-39 -1 35 -15 c41 -17 104 -58 140 -91
14 -12 81 -51 150 -86 69 -34 152 -79 183 -99 32 -21 59 -37 62 -37 2 0 6 17
8 38 4 36 4 35 5 -8 2 -34 7 -48 24 -59 l21 -13 -6 83 c-3 59 -3 72 3 44 5
-22 9 -61 9 -86 1 -43 4 -48 49 -79 26 -19 52 -39 58 -45 7 -5 46 -39 88 -74
42 -35 76 -68 76 -73 0 -4 -33 19 -72 53 -80 67 -179 140 -190 139 -5 0 -18
10 -30 22 l-23 23 -6 -30 -7 -30 -1 35 c-1 33 -6 39 -63 72 -82 47 -185 98
-198 98 -6 0 -28 11 -49 25 -38 25 -88 47 -211 91 -68 24 -87 24 -54 -1 23
-17 3 -20 -28 -4 -19 10 -20 9 -14 -15 5 -22 3 -26 -14 -26 -14 0 -19 -4 -14
-12 6 -10 4 -10 -7 -1 -7 7 -20 13 -29 13 -9 0 -11 -3 -5 -8 23 -16 113 -141
138 -190 15 -29 40 -73 57 -97 19 -27 25 -42 16 -39 -9 3 -25 21 -37 40 -11
19 -26 40 -33 47 -13 13 -16 20 -16 41 0 23 -116 162 -154 184 -35 21 -36 21
-36 2 0 -25 -20 -27 -21 -2 -1 9 -1 20 0 25 0 4 -3 7 -8 7 -13 0 -20 -25 -14
-52 3 -17 2 -20 -5 -9 -9 12 -13 12 -26 2 -9 -7 -23 -10 -32 -7 -14 5 -48 -16
-40 -25 2 -2 0 -22 -4 -44 l-8 -40 -1 40 c-1 22 -6 47 -12 55 -8 12 -9 10 -4
-7 7 -24 -9 -32 -19 -10 -2 6 -3 -22 -1 -63 4 -70 2 -69 -10 6 -5 31 -38 74
-56 74 -6 0 -8 -4 -5 -9 3 -4 -15 -1 -39 8 -26 9 -43 21 -41 28 3 6 -1 14 -9
17 -8 3 -16 0 -18 -7 -3 -7 -10 0 -16 16 -8 21 -17 27 -39 27 -53 0 -108 62
-64 73 9 2 5 3 -10 1 -22 -3 -28 1 -28 16 0 12 -10 24 -22 29 -13 5 -31 18
-42 30 -18 20 -18 20 10 33 16 7 48 25 70 41 27 19 56 30 83 31 23 1 46 7 53
14 7 7 21 12 31 12 25 0 77 37 77 55 0 8 -11 26 -24 42 -20 24 -26 25 -40 14
-9 -7 -16 -23 -16 -34 0 -19 -1 -19 -19 -3 -11 10 -25 15 -32 11 -7 -5 -19 1
-29 15 -10 13 -26 24 -36 25 -11 1 -32 7 -47 14 -16 6 -39 8 -53 5 -13 -3 -24
-2 -24 4 0 5 -19 22 -42 38 -31 20 -56 28 -88 29 -38 0 -45 3 -43 20 1 18 -20
41 -42 44 -29 3 3 -116 47 -172 19 -24 38 -62 44 -92 6 -27 14 -57 18 -66 5
-11 -1 -19 -19 -27 -15 -7 -25 -20 -25 -32 0 -11 -4 -20 -10 -20 -5 0 -19 -9
-30 -20 -11 -11 -32 -22 -47 -26 -46 -10 -53 -13 -53 -24 0 -6 10 -14 23 -19
12 -5 38 -28 57 -51 38 -45 77 -70 109 -70 13 0 26 -12 36 -29 13 -26 19 -29
50 -24 24 4 44 0 69 -15 20 -12 38 -17 41 -11 10 16 25 10 25 -10 0 -11 5 -21
12 -23 6 -2 -11 -11 -38 -20 -29 -9 -53 -12 -60 -7 -6 5 -23 10 -39 11 -15 2
-29 8 -32 14 -2 7 -19 11 -40 9 -29 -3 -40 1 -55 21 -11 13 -25 24 -32 24 -6
0 -36 25 -65 55 -30 30 -57 55 -61 55 -3 0 -13 11 -20 25 -7 13 -20 27 -29 30
-9 2 -22 19 -30 36 -8 17 -22 34 -32 36 -11 3 -19 12 -19 19 0 8 -6 14 -13 14
-7 0 -18 9 -25 20 -7 11 -19 20 -27 20 -7 0 -26 11 -41 25 l-27 25 24 9 c18 8
6 10 -53 10 -60 1 -78 4 -78 15 0 7 10 17 23 21 25 8 34 5 -77 28 -41 8 -61
17 -64 29 -2 10 -13 18 -23 18 -11 0 -19 5 -19 10 0 6 -18 10 -40 10 -35 0
-40 -3 -40 -22 0 -14 -11 -31 -29 -43 -25 -16 -27 -21 -15 -30 13 -9 10 -15
-17 -39 -17 -16 -43 -29 -56 -29 -17 1 -21 -3 -14 -10 15 -15 14 -47 -2 -53
-8 -3 -11 -18 -9 -44 6 -57 -12 -70 -88 -68 -33 1 -63 5 -66 10 -8 13 -102 9
-107 -4 -2 -7 -8 -10 -12 -5 -5 4 -3 13 3 19 7 7 12 27 12 46 0 26 9 43 40 73
43 43 43 50 -1 111 -14 20 -32 51 -39 67 -7 17 -17 28 -22 25 -5 -4 -5 -10 1
-18 5 -6 13 -35 17 -63 5 -43 10 -52 28 -55 23 -3 31 -25 17 -48 -8 -12 -13
-12 -30 4 -11 10 -26 35 -32 55 -6 20 -16 41 -21 48 -5 7 -7 17 -4 22 4 5 2
12 -2 15 -5 3 -9 19 -10 36 0 16 -4 39 -7 50 -7 23 13 28 33 8 25 -25 12 21
-13 48 l-25 27 -7 -34 -7 -34 -8 40 c-4 25 -3 49 4 62 13 27 38 31 38 7 0 -14
2 -14 16 -3 14 11 18 11 29 -4 7 -9 20 -17 29 -17 11 0 14 -5 10 -12 -5 -7 -2
-9 9 -5 11 4 14 2 10 -9 -3 -9 3 -21 16 -30 24 -17 29 -39 6 -30 -56 21 -60
-122 -4 -157 23 -14 49 13 49 50 0 16 5 34 11 40 17 17 3 58 -32 98 -30 34
-30 35 -9 35 27 0 70 -43 70 -69 0 -25 25 -34 41 -15 12 14 15 71 5 81 -3 3 4
13 14 22 17 14 18 22 10 56 -5 24 -5 41 0 43 5 2 14 19 20 38 6 19 15 34 20
34 5 0 14 16 20 36 10 29 10 38 0 44 -18 11 -3 150 16 150 8 0 14 -5 14 -10 0
-6 3 -9 8 -8 15 5 137 -48 160 -69 7 -7 25 -16 38 -19 14 -4 29 -16 34 -28 7
-16 9 -11 9 24 -1 25 -3 39 -6 32 -4 -10 -13 -6 -34 15 -15 15 -37 37 -48 47
-13 12 -17 22 -11 26 17 10 -32 30 -70 28 -19 0 -45 2 -57 5 -19 5 -23 2 -24
-16 0 -21 -1 -21 -12 2 -9 19 -9 25 1 29 19 6 14 40 -8 47 -22 7 -25 18 -11
44 7 13 5 21 -11 32 -11 8 -26 19 -34 24 -16 11 -17 25 -10 90 2 21 -1 49 -6
61 -7 14 -7 28 0 41 8 14 7 27 -3 46 -7 14 -11 35 -8 46 8 31 -37 159 -67 188
-14 14 -32 36 -41 50 l-16 25 0 -27 c0 -69 -60 -66 -83 4 -7 22 -19 42 -26 45
-8 3 -14 12 -14 19 0 8 -6 20 -14 26 -7 6 -16 25 -20 41 -3 18 -15 35 -28 41
-21 9 -58 67 -58 89 0 6 7 10 15 10 18 0 19 5 3 29 -8 14 -9 42 -2 105 11 103
4 108 -63 41 -24 -25 -51 -45 -59 -45 -16 0 -51 -18 -71 -37 -7 -6 -26 -14
-43 -18 -16 -4 -30 -12 -30 -20 0 -21 -112 -36 -124 -16 -3 4 -22 11 -42 14
-61 10 -67 22 -38 78 23 46 62 81 164 149 12 8 28 21 35 27 8 7 25 17 40 23
30 11 55 63 55 112 0 18 -9 58 -21 88 -11 30 -19 65 -16 77 4 20 0 23 -29 23
-40 0 -44 16 -9 32 14 6 25 15 25 19 0 10 57 29 87 29 98 0 154 -169 124 -379
-8 -53 -7 -54 10 -33 9 12 21 22 26 22 5 0 35 27 66 60 62 66 75 65 27 -1 -16
-23 -27 -45 -25 -49 3 -5 19 -11 35 -15 16 -4 32 -11 35 -16 4 -5 15 -9 25 -9
10 0 21 -9 25 -19 3 -11 12 -18 19 -15 7 3 16 -2 19 -10 4 -9 13 -16 20 -16 8
0 22 -9 32 -20 10 -11 40 -34 67 -51 46 -30 61 -50 102 -135 12 -26 20 -31 41
-27 18 4 25 12 25 29 0 12 5 26 11 30 6 3 8 17 5 29 -3 13 0 29 7 37 7 7 27
33 44 58 17 25 47 62 67 82 34 35 37 44 47 125 10 88 45 187 61 177 5 -3 6 7
2 22 -7 27 -6 27 32 21 21 -3 34 -3 28 -1 -7 3 -10 14 -7 25 4 12 11 18 20 15
22 -9 58 13 44 27 -19 19 -12 29 18 25 33 -5 33 17 0 25 -26 7 -24 23 4 21 41
-4 66 -16 82 -40 8 -13 25 -24 38 -24 12 0 31 -7 41 -15 11 -8 34 -15 52 -15
21 0 37 -6 43 -17 5 -10 13 -15 16 -11 8 8 -18 38 -33 38 -5 0 -15 7 -22 15
-7 9 -19 14 -26 11 -7 -3 -18 2 -24 10 -7 8 -17 14 -22 14 -9 0 -25 10 -132
83 -42 29 -56 28 -56 -7 0 -32 -29 -36 -285 -36 l-210 0 -29 -41 c-15 -22 -30
-38 -33 -36 -6 7 18 49 36 63 8 6 11 16 8 21 -4 6 -1 13 6 16 16 6 67 109 67
136 0 10 5 21 11 23 18 6 29 80 17 121 -6 20 -14 37 -18 37 -4 0 -11 16 -14
35 -4 19 -19 47 -34 63 -39 41 -54 62 -82 118 -14 27 -30 55 -37 62 -7 7 -13
24 -13 37 0 15 -9 29 -22 36 -13 7 -25 15 -28 20 -3 4 -12 9 -20 11 -13 3 -15
-19 -15 -142 0 -130 -2 -147 -20 -167 -11 -13 -24 -23 -30 -23 -22 -1 -72 -57
-92 -105 -16 -37 -27 -49 -40 -47 -10 2 -19 8 -21 13 -2 5 -17 9 -33 9 -26 0
-29 3 -29 35 0 19 9 58 19 87 22 61 59 209 63 252 3 25 12 34 57 58 83 42 87
48 65 97 -11 22 -26 41 -35 41 -8 0 -48 11 -87 25 -39 14 -78 25 -86 25 -9 0
-35 11 -60 25 -25 14 -51 25 -58 25 -7 0 -24 6 -38 13 -32 17 -100 29 -100 17
0 -4 -12 -11 -27 -15 -15 -3 -46 -15 -69 -25 -32 -15 -63 -19 -143 -18 -56 1
-104 5 -107 10 -3 4 -9 6 -14 3 -16 -10 -22 36 -7 58 22 33 76 87 87 87 6 0
10 3 10 8 0 4 13 13 30 20 33 15 98 18 160 7 43 -7 46 -3 30 40 -10 27 -84
105 -100 105 -6 0 -10 5 -10 10 0 6 -7 10 -15 10 -8 0 -19 9 -25 20 -11 21 4
70 33 106 9 11 37 48 64 84 26 35 58 76 71 89 13 14 44 55 70 91 85 119 134
161 192 162 48 2 77 -44 94 -142 3 -19 33 -116 65 -214 52 -157 64 -183 95
-212 21 -19 43 -31 51 -28 9 4 17 -3 21 -23 l8 -28 6 25 c7 31 58 40 83 16 19
-20 27 -20 27 -2 0 8 9 24 19 37 20 24 20 24 35 4 15 -20 15 -20 16 1 0 29 46
60 65 44 8 -7 15 -7 19 -1 3 5 0 11 -6 14 -10 3 -10 8 -1 23 7 11 27 44 45 74
17 30 39 60 49 67 9 7 22 26 29 43 7 16 17 30 22 30 6 0 7 17 3 42 -6 35 -5
40 8 35 10 -4 25 5 40 23 21 25 31 28 72 27 41 -2 48 1 56 21 7 20 5 25 -11
29 -20 5 -28 23 -10 23 20 0 9 19 -12 22 -19 2 -22 8 -20 33 2 17 7 36 11 42
3 7 2 50 -3 96 -7 66 -6 91 5 116 8 17 17 31 21 31 12 0 50 88 43 100 -3 5 1
10 9 10 21 0 20 20 0 34 -13 10 -13 12 5 12 12 0 21 -6 21 -13 0 -16 12 -17
26 -3 11 11 298 24 719 35 110 3 238 7 285 10 47 3 180 9 295 15 461 23 520
50 569 267 9 39 20 83 26 98 13 34 28 168 40 350 5 77 14 201 20 275 16 182
16 1143 1 1148 -6 2 -11 9 -11 16 0 7 -13 25 -30 41 -16 16 -30 26 -30 23 0
-3 -21 0 -46 8 -26 8 -115 16 -198 20 -83 3 -157 7 -164 9 -7 3 -24 0 -38 -5
-18 -7 -31 -7 -40 1 -8 6 -26 8 -44 4 -19 -4 -30 -3 -30 4 0 14 -332 10 -342
-3 -4 -6 -15 -6 -30 0 -25 10 -137 11 -420 4 -163 -5 -178 -7 -192 -25 -14
-19 -15 -19 -29 -1 -9 12 -29 19 -61 21 -26 2 -50 6 -54 9 -3 3 -11 1 -17 -4
-13 -11 -90 -9 -101 2 -4 4 -15 3 -26 -3 -10 -5 -48 -9 -84 -8 -36 1 -69 -2
-75 -8 -11 -11 -105 11 -123 28 -6 5 -23 9 -38 9 -20 0 -28 -5 -28 -17 0 -25
-11 -39 -37 -47 -16 -5 -23 -2 -28 14 -3 11 -14 20 -23 20 -9 0 -30 9 -47 20
-16 11 -42 20 -57 20 -16 0 -28 6 -28 13 0 12 -68 47 -91 47 -6 0 -9 6 -6 14
7 17 -20 56 -38 56 -8 0 -19 10 -26 21 -6 12 -43 54 -81 93 -39 39 -77 81 -85
93 -8 12 -39 38 -67 57 -29 19 -60 46 -69 60 -9 13 -26 27 -37 31 -11 3 -20
13 -20 21 0 8 -17 22 -37 30 -21 8 -46 19 -55 24 -10 6 -26 10 -37 10 -10 0
-22 7 -25 15 -3 9 -22 23 -41 31 -19 8 -35 18 -35 22 0 5 -12 9 -27 10 -16 0
-66 12 -113 25 -69 19 -85 27 -85 43 -1 10 -6 18 -13 16 -7 -1 -29 5 -50 14
-20 9 -58 22 -84 30 -27 8 -48 19 -48 23 0 5 -9 11 -20 14 -14 3 -20 0 -20
-10 0 -14 -3 -13 -20 2 -11 10 -20 15 -20 12 0 -4 -9 1 -20 10 -13 11 -16 19
-9 24 8 5 8 15 1 35 -6 18 -11 22 -11 12 -1 -25 -18 -22 -46 7 -14 16 -26 22
-30 15 -11 -17 -25 -11 -35 16 -6 14 -16 24 -23 21 -15 -5 -59 16 -76 37 -7 9
-17 13 -23 10 -5 -3 -16 0 -24 7 -8 6 -17 9 -21 5 -3 -3 -17 1 -30 9 -14 10
-33 13 -49 9 -17 -4 -29 -2 -35 7 -8 12 -11 12 -19 -1 -6 -10 -10 -11 -10 -3
0 9 -18 12 -60 11 -57 -1 -59 -2 -44 -20 15 -16 15 -18 1 -24 -22 -8 -70 17
-82 44 -5 12 -23 26 -40 32 -42 14 -104 20 -109 12 -2 -4 -29 -7 -60 -6 -31 1
-56 -2 -56 -6 0 -4 -37 -11 -82 -15 -46 -4 -89 -12 -95 -17 -7 -6 -13 -7 -13
-4 0 4 -9 2 -20 -4 -11 -6 -20 -7 -20 -2 0 14 -36 7 -66 -14 -41 -27 -84 -45
-95 -38 -5 3 -7 30 -4 60 2 35 0 52 -6 48 -7 -4 -9 6 -7 26 5 55 -19 46 -32
-12z m230 -752 c5 -13 16 -26 24 -29 9 -4 16 -15 16 -25 0 -10 9 -27 20 -37
11 -10 20 -23 20 -30 0 -7 9 -20 20 -30 11 -10 20 -23 20 -29 0 -7 9 -19 20
-29 11 -9 20 -23 20 -30 0 -8 9 -22 20 -32 11 -10 20 -25 20 -34 0 -9 9 -22
20 -29 35 -21 24 -47 -31 -76 -59 -30 -60 -31 -53 -11 4 9 0 15 -9 15 -16 0
-27 20 -27 51 0 12 -4 17 -11 13 -15 -9 -28 14 -30 51 0 17 -3 24 -6 17 -8
-20 -33 6 -33 34 0 14 -6 24 -14 24 -8 0 -18 10 -22 23 -4 12 -15 33 -26 46
-10 13 -16 32 -13 42 4 12 0 16 -12 15 -12 0 -19 7 -21 22 -4 25 10 29 28 7 7
-8 18 -15 25 -15 7 0 15 -14 19 -31 5 -27 8 -30 21 -19 21 17 19 43 -6 58 -13
9 -18 19 -14 32 4 13 -1 24 -19 35 -30 20 -25 51 5 34 11 -6 24 -21 29 -33z
m1692 -168 c-19 -19 -14 -28 16 -28 15 0 36 -7 46 -15 11 -8 25 -15 30 -15 6
0 1 8 -11 18 -36 28 -16 45 42 35 26 -4 46 -12 45 -18 -1 -5 -5 -9 -8 -8 -31
7 -49 6 -51 -2 -1 -5 21 -11 49 -13 28 -2 63 -10 78 -18 l27 -15 -30 5 c-16 3
-47 8 -67 12 l-38 6 7 -33 c6 -31 5 -33 -10 -20 -11 8 -17 9 -17 3 0 -6 -7 -9
-16 -5 -13 5 -13 8 -2 15 9 7 7 8 -7 4 -11 -3 -32 -8 -47 -12 -16 -3 -25 -10
-22 -15 3 -5 9 -7 14 -4 4 3 10 -2 14 -10 8 -21 -37 -20 -69 1 -30 19 -33 5
-5 -21 15 -13 30 -16 60 -12 22 3 42 2 45 -3 2 -4 19 -10 36 -14 18 -3 38 -11
45 -16 16 -14 7 -48 -15 -53 -11 -3 -9 -5 7 -6 24 -1 31 -21 7 -21 -11 0 -12
-5 -5 -25 9 -24 8 -25 -17 -19 -15 4 -24 3 -20 -3 3 -5 -3 -14 -13 -21 -11 -7
-21 -8 -25 -2 -3 5 -1 11 5 15 19 12 10 23 -32 37 -57 19 -65 43 -12 34 35 -6
37 -5 20 8 -28 23 -10 38 36 31 27 -5 38 -4 34 3 -7 12 -64 32 -86 30 -58 -5
-78 3 -90 32 -12 30 -49 48 -69 35 -6 -3 -11 0 -11 9 0 19 19 25 55 15 18 -6
33 -5 39 1 6 6 21 10 36 11 l25 1 -25 7 c-14 5 -29 5 -33 1 -8 -7 -77 6 -112
21 -17 8 -16 9 8 6 31 -5 34 0 10 19 -16 12 -15 13 10 14 19 0 27 -5 28 -17 0
-11 5 -7 11 10 6 18 15 26 24 23 8 -3 14 -1 14 4 0 6 12 10 27 10 21 0 24 -3
15 -12z m2679 -510 c4 -7 14 -6 27 1 32 17 71 13 103 -10 22 -16 29 -17 29 -6
0 14 40 27 86 27 23 0 25 -2 39 -73 2 -10 -3 -21 -10 -24 -10 -3 -11 -10 -5
-24 6 -10 14 -27 19 -38 20 -39 2 -842 -19 -882 -11 -19 -17 -21 -58 -13 -26
4 -123 9 -215 10 -182 2 -270 -12 -343 -55 -19 -12 -42 -21 -50 -21 -25 0
-164 -73 -164 -86 0 -7 -8 -15 -17 -18 -10 -3 -43 -28 -73 -56 -30 -27 -58
-49 -62 -50 -5 0 -8 -4 -8 -9 0 -5 -22 -32 -49 -59 -27 -28 -52 -60 -56 -71
-7 -22 -46 -38 -64 -26 -6 3 -11 23 -11 44 0 20 -6 60 -14 87 -7 27 -19 83
-25 124 -7 41 -18 102 -25 135 -9 40 -10 71 -4 94 15 51 -3 251 -22 251 -12 0
-22 33 -12 39 12 8 23 81 12 81 -4 0 -3 15 2 34 12 38 1 206 -13 206 -5 0 -9
42 -9 94 0 93 11 128 25 83 6 -19 8 -15 16 21 6 31 4 55 -5 83 -12 33 -12 39
0 39 8 0 18 8 21 18 9 24 19 29 54 24 26 -4 30 -8 24 -26 -3 -11 -8 -37 -11
-56 -12 -78 -13 -80 -45 -80 -24 0 -30 -4 -27 -17 4 -21 48 -31 48 -11 0 7 9
21 20 31 16 13 25 15 40 7 13 -7 21 -7 25 1 9 14 -2 24 -27 24 -12 0 -23 6
-26 14 -3 9 0 11 7 7 7 -4 18 -5 26 -2 12 4 13 10 4 30 -16 35 7 56 63 56 24
0 81 5 127 11 61 7 86 7 91 -1 5 -8 20 -8 51 -1 49 11 57 8 39 -14 -8 -10 -9
-15 -1 -15 6 0 11 -7 11 -15 0 -17 29 -34 48 -28 6 3 12 11 12 18 0 7 13 27
30 43 27 28 37 31 111 35 45 3 86 10 92 16 13 13 160 12 168 -1z m-1864 -249
c39 -33 107 -61 137 -56 17 3 26 4 20 1 -24 -10 -1 -53 42 -80 24 -15 44 -34
44 -41 0 -17 -17 -17 -23 0 -2 6 -8 8 -13 4 -5 -4 -2 -12 6 -18 13 -8 13 -10
0 -20 -12 -8 -11 -9 6 -4 17 4 22 1 20 -12 0 -10 6 -18 14 -18 8 0 15 -7 16
-15 0 -8 4 -23 9 -32 4 -10 5 -24 2 -32 -3 -8 -1 -30 4 -48 73 -243 93 -398
85 -658 -3 -107 -9 -292 -12 -410 -4 -119 -11 -218 -17 -221 -5 -4 -5 -9 2
-13 6 -4 11 -21 11 -38 l0 -31 -21 27 c-11 14 -26 26 -33 26 -7 0 -25 11 -40
25 -26 24 -28 24 -51 9 -16 -10 -25 -12 -25 -5 0 6 -5 11 -11 11 -5 0 -8 -4
-5 -9 3 -4 -17 -11 -44 -14 -27 -3 -63 -13 -80 -22 -24 -12 -35 -14 -45 -5 -8
7 -19 9 -25 5 -21 -13 -55 -14 -94 -3 -23 7 -43 15 -46 18 -3 3 -13 17 -23 31
-12 16 -20 20 -25 13 -5 -9 -24 -8 -72 2 -117 24 -261 36 -278 22 -13 -11 -14
-10 -8 9 5 17 2 23 -15 28 -12 4 -37 23 -56 41 -18 19 -38 34 -43 34 -6 0 -10
4 -10 8 0 5 -11 14 -26 20 -14 7 -30 26 -36 43 -8 22 -13 27 -19 18 -11 -18
-13 -13 -26 46 -11 51 -29 106 -44 137 -5 10 -9 34 -9 53 0 26 -7 42 -26 59
-23 19 -26 27 -20 59 4 21 15 41 26 47 32 17 23 44 -29 83 -26 20 -52 37 -57
37 -12 1 -54 36 -54 45 0 14 -63 66 -75 61 -6 -2 -18 0 -26 4 -11 7 -10 10 4
16 26 10 21 34 -8 34 -14 0 -28 7 -31 15 -4 8 -15 15 -26 15 -11 0 -29 11 -40
25 -14 18 -26 24 -39 20 -23 -8 -159 15 -159 25 0 4 -16 11 -35 14 -19 4 -52
22 -72 41 -21 19 -49 39 -63 45 -25 10 -37 27 -60 82 -9 21 -24 31 -58 41 -44
13 -47 16 -54 58 -5 26 -4 45 3 49 5 4 7 15 3 25 -5 13 -4 16 4 11 7 -4 12 -2
12 6 1 19 41 62 76 80 55 30 95 41 162 44 37 2 81 6 97 9 60 11 194 18 212 9
10 -4 29 -9 43 -10 14 -2 39 -6 55 -10 26 -6 28 -5 17 8 -29 36 88 61 159 33
10 -3 23 0 29 7 9 9 34 12 87 10 45 -3 79 0 87 7 9 8 33 9 72 4 33 -4 64 -6
69 -4 88 32 125 41 151 39 17 -1 42 4 55 13 25 15 69 14 69 -2 0 -5 10 -9 23
-9 36 0 104 24 100 35 -5 17 153 11 174 -6z m-4267 -69 c12 -8 13 -13 3 -30
-14 -22 -18 -70 -5 -70 4 0 12 10 17 23 6 12 20 23 33 25 12 2 22 8 22 13 0 5
8 9 18 8 10 0 12 -3 5 -6 -17 -6 -16 -23 1 -23 19 0 3 -81 -28 -136 -13 -24
-27 -57 -31 -74 -4 -16 -11 -33 -17 -36 -18 -11 -2 79 16 92 9 6 16 21 16 34
0 12 8 35 17 51 15 25 15 31 4 38 -7 5 -10 14 -7 20 4 6 2 11 -5 11 -7 0 -9
-9 -6 -22 8 -31 -2 -68 -19 -68 -8 0 -14 -10 -14 -22 0 -44 -21 -98 -37 -98
-13 0 -15 10 -10 62 3 34 2 57 -1 52 -4 -5 -20 -15 -36 -22 -23 -10 -27 -17
-23 -37 6 -37 -22 -32 -36 5 -7 19 -17 28 -25 25 -8 -3 -19 -2 -25 2 -7 4 -18
8 -26 8 -20 0 -26 25 -6 25 12 0 9 6 -11 23 l-27 24 21 21 c12 12 18 22 12 22
-5 0 -10 9 -10 20 0 19 34 45 48 36 4 -2 34 -1 67 4 86 11 88 11 105 0z
m-2035 -450 c3 -5 31 -10 61 -10 63 0 116 -23 113 -48 -3 -30 1 -42 12 -42 25
0 95 -112 83 -131 -6 -11 -63 -7 -97 7 -8 3 -28 -7 -45 -21 -36 -30 -64 -27
-106 12 -22 20 -26 30 -21 55 4 17 16 39 27 50 17 17 24 18 45 9 33 -15 43
-14 37 4 -4 8 -13 15 -21 15 -9 0 -21 8 -28 17 -12 16 -15 16 -57 0 -56 -22
-71 -21 -92 2 -30 33 7 90 61 91 12 0 25 -4 28 -10z m3445 -1500 l0 -40 40 0
40 0 0 -40 c0 -33 3 -40 20 -40 17 0 20 -7 20 -40 0 -22 5 -40 10 -40 6 0 10
-18 10 -40 0 -29 -4 -40 -15 -40 -23 0 -18 -18 10 -36 26 -17 33 -40 14 -46
-9 -3 -9 -25 -2 -83 7 -59 11 -69 12 -37 l1 42 55 0 55 0 0 -40 c0 -29 -4 -40
-15 -40 -12 0 -15 -14 -15 -65 l0 -65 40 0 40 0 0 -95 c0 -88 2 -95 20 -95 18
0 19 -6 13 -120 l-6 -120 24 0 c23 0 22 -2 -16 -40 -22 -21 -43 -39 -47 -40
-10 0 -58 49 -58 60 0 6 -9 15 -20 22 -17 11 -20 24 -20 85 0 71 -1 73 -25 73
-22 0 -25 -4 -25 -40 l0 -40 -40 0 -40 0 0 40 c0 22 5 40 10 40 6 0 10 18 10
40 0 22 -4 40 -9 40 -13 0 -22 -105 -15 -176 l7 -65 -49 3 c-49 3 -49 3 -52
41 l-3 37 40 0 41 0 0 40 0 40 -40 0 -40 0 0 40 c0 31 -6 47 -27 68 l-28 27
-3 -27 c-5 -43 -22 -33 -22 12 0 29 -4 40 -15 40 -11 0 -15 11 -15 40 0 29 -4
40 -15 40 -8 0 -15 7 -15 15 0 11 -11 15 -40 15 -29 0 -40 -4 -40 -15 0 -8 -4
-15 -10 -15 -5 0 -10 18 -10 40 0 38 -2 40 -30 40 -28 0 -30 -2 -30 -40 0 -60
-16 -48 -23 17 -9 89 17 423 33 423 4 0 15 18 25 40 10 22 24 40 32 40 9 0 13
-13 13 -40 0 -29 4 -40 15 -40 11 0 15 11 15 36 0 19 6 42 13 49 6 8 18 21 25
29 6 8 12 40 12 71 l0 55 80 0 80 0 0 -40z m-1840 -24 c62 -5 71 -14 65 -57
-4 -26 -2 -39 6 -39 6 0 -3 -16 -20 -35 -26 -29 -29 -39 -21 -55 7 -13 7 -26
1 -38 -6 -10 -8 -28 -5 -39 3 -11 -1 -27 -11 -36 -14 -14 -14 -23 -4 -59 7
-24 11 -56 10 -72 -1 -16 1 -37 4 -46 7 -24 36 -34 47 -18 6 10 8 10 8 -1 0
-11 5 -10 21 5 15 14 24 16 37 8 25 -15 142 -18 142 -4 0 6 10 10 23 8 12 -2
22 -10 22 -18 0 -10 12 -16 32 -18 36 -4 79 -52 69 -78 -4 -9 3 -18 18 -24 13
-5 27 -15 30 -22 3 -7 3 3 0 22 -4 19 -13 45 -22 58 -8 12 -12 25 -9 29 3 3
14 -12 24 -33 10 -22 20 -41 23 -44 3 -3 24 -30 47 -60 23 -30 55 -70 72 -89
17 -19 31 -41 31 -48 0 -7 4 -13 8 -13 5 0 20 -21 33 -47 13 -27 27 -49 32
-51 4 -2 7 -10 7 -18 0 -11 -7 -9 -30 8 -16 12 -30 28 -30 35 0 7 -5 13 -10
13 -6 0 -15 11 -20 24 -12 33 -51 77 -62 70 -4 -3 -8 4 -8 16 0 23 -46 90 -62
90 -7 0 -8 -21 -3 -56 6 -47 4 -58 -12 -69 -17 -13 -16 -14 9 -15 47 0 57 -8
44 -35 -6 -13 -19 -26 -28 -29 -19 -4 -25 -36 -8 -36 6 0 10 5 10 10 0 6 7 10
15 10 11 0 13 -7 9 -29 -5 -23 -1 -32 22 -50 21 -16 25 -24 16 -33 -9 -9 -12
-7 -12 7 -1 17 -3 16 -21 -7 -11 -16 -29 -28 -40 -28 -10 0 -19 -4 -19 -10 0
-14 -27 -13 -36 2 -4 6 -3 13 3 15 22 8 75 65 66 73 -9 9 -55 -23 -53 -37 2
-13 -83 -31 -107 -22 -13 5 -29 6 -37 3 -8 -3 -16 3 -19 16 -4 15 -13 20 -34
19 -15 0 -73 15 -128 34 -113 39 -244 73 -324 83 -83 11 -88 20 -89 164 -1
114 7 155 29 170 13 9 34 99 25 107 -5 4 -11 2 -13 -4 -9 -24 -33 14 -33 51 0
25 4 36 15 36 8 0 15 -7 15 -15 0 -8 5 -15 10 -15 6 0 13 7 16 15 4 8 16 15
28 15 18 0 24 8 32 43 6 24 9 48 6 55 -5 17 -32 15 -38 -3 -4 -10 -20 -15 -49
-15 l-44 0 -3 88 c-3 77 -1 89 17 105 45 41 56 47 80 47 16 0 25 6 25 15 0 13
10 15 63 10 34 -4 78 -8 97 -9z m1319 -321 c6 3 11 1 11 -4 0 -6 -9 -11 -21
-11 -19 0 -21 -5 -17 -40 2 -22 0 -40 -4 -40 -5 0 -8 -36 -8 -80 0 -47 4 -80
10 -80 6 0 10 -18 10 -40 0 -22 -4 -40 -10 -40 -5 0 -10 -7 -10 -16 0 -8 -4
-13 -10 -9 -5 3 -7 12 -3 20 3 9 0 22 -7 30 -6 8 -14 41 -17 75 -3 33 -10 60
-16 60 -6 0 -7 27 -3 73 9 98 13 109 37 102 14 -5 19 -1 19 12 1 17 1 17 15
-1 7 -10 18 -15 24 -11z m-679 -693 c0 -5 14 -24 30 -42 17 -18 30 -37 30 -41
0 -6 -56 -39 -66 -39 -2 0 0 8 3 17 5 13 2 15 -11 10 -10 -4 -26 -7 -37 -7
-11 0 -23 -10 -28 -22 -8 -21 -10 -21 -16 -5 -4 9 -2 24 5 32 17 21 6 29 -18
14 -25 -15 -55 -5 -50 18 2 12 14 19 36 21 22 2 32 8 32 20 0 13 2 14 9 4 6
-10 13 -8 32 7 25 21 49 27 49 13z m-896 -125 c9 -23 16 -50 16 -59 0 -9 6
-18 13 -21 10 -4 10 -7 0 -18 -7 -7 -13 -20 -13 -29 0 -19 -34 -50 -55 -50
-21 0 -45 64 -45 119 0 102 53 138 84 58z m9282 -1627 c15 -6 35 -21 43 -33
31 -43 72 -164 92 -277 12 -63 27 -136 34 -161 8 -26 23 -107 35 -180 12 -74
27 -163 35 -199 10 -46 12 -101 8 -190 -5 -110 -4 -128 11 -143 21 -21 38 -75
26 -82 -5 -3 -15 13 -21 36 l-13 41 -45 -7 c-25 -3 -53 -8 -62 -11 -10 -3 -30
9 -50 29 -33 34 -33 35 -30 118 4 120 -18 337 -46 459 -13 58 -28 129 -34 159
-5 29 -18 79 -28 110 -56 172 -62 202 -57 249 5 33 14 54 32 70 29 25 33 26
70 12z m-4831 -80 c83 -57 131 -141 122 -211 -6 -47 -29 -76 -74 -95 -45 -20
-144 -18 -190 3 -61 28 -123 73 -123 89 0 17 65 106 72 99 6 -6 86 80 111 118
22 34 29 34 82 -3z m-505 -861 c12 -18 3 -29 -22 -29 -16 0 -19 -5 -16 -25 4
-17 1 -25 -8 -25 -8 0 -14 -4 -14 -8 0 -10 54 -42 72 -42 7 0 27 -11 43 -24
27 -22 28 -26 15 -39 -23 -24 -89 -57 -110 -57 -11 0 -28 12 -37 27 -10 15
-27 37 -38 48 -39 42 -115 143 -115 153 0 44 205 63 230 21z m-3609 -129 c4
-14 23 -60 43 -104 33 -71 35 -78 16 -73 -11 3 -18 1 -14 -4 3 -5 1 -9 -5 -9
-6 0 -16 10 -22 22 -6 12 -24 32 -40 45 -37 31 -55 88 -40 126 14 36 51 34 62
-3z m1622 -353 c35 -19 79 -37 97 -40 50 -10 256 -113 272 -136 8 -12 18 -18
21 -14 4 3 7 -1 7 -11 0 -9 -5 -14 -10 -11 -6 4 -32 8 -58 11 -26 2 -62 6 -81
9 -19 2 -37 2 -42 0 -11 -7 29 -47 78 -78 23 -14 44 -30 47 -36 3 -5 15 -7 26
-4 14 4 20 0 20 -11 0 -10 -5 -14 -11 -10 -8 4 -8 0 0 -15 13 -24 27 -27 35
-8 3 6 3 2 1 -9 -4 -14 3 -32 20 -52 14 -16 25 -35 25 -41 0 -6 5 -11 10 -11
6 0 10 -9 10 -20 0 -11 4 -20 8 -20 4 0 15 -12 24 -27 9 -16 26 -38 38 -51 12
-13 19 -26 15 -30 -4 -4 -10 -1 -12 6 -3 6 -11 12 -18 12 -7 0 -34 16 -59 35
-26 19 -50 35 -55 35 -4 0 -16 9 -27 21 -19 22 -100 79 -111 79 -4 0 -15 7
-24 16 -10 9 -37 19 -59 21 -37 4 -40 3 -40 -19 -1 -20 -2 -21 -11 -5 -5 9
-15 17 -21 17 -6 0 -20 7 -30 17 -11 9 -18 11 -18 5 0 -7 -4 -12 -10 -12 -5 0
-10 9 -10 21 0 12 -4 17 -11 14 -11 -7 -49 21 -49 36 0 5 15 6 33 2 l32 -6
-30 26 c-29 26 -30 51 0 27 8 -7 15 -8 15 -2 0 12 -29 26 -47 23 -7 -1 -13 5
-13 14 0 9 5 13 10 10 6 -3 10 -2 10 4 0 6 -9 15 -19 21 -16 8 -20 6 -24 -13
-4 -19 -4 -19 -6 5 0 15 -10 33 -22 42 -14 9 -19 21 -15 31 5 14 9 15 21 5 8
-7 21 -10 30 -7 8 4 17 2 20 -2 2 -5 20 -12 40 -15 19 -4 62 -22 96 -41 33
-19 66 -35 72 -34 7 0 1 5 -12 10 -19 8 -21 12 -11 24 11 13 8 15 -19 15 -19
0 -34 6 -38 16 -8 22 11 38 33 26 25 -12 124 -23 124 -13 0 10 -163 81 -186
81 -21 0 -184 82 -184 92 0 17 42 6 103 -25z m1184 -86 c8 -12 19 -17 32 -14
13 3 23 -2 30 -15 13 -24 65 -54 186 -106 50 -21 125 -54 168 -73 90 -40 145
-52 157 -34 10 18 244 -96 258 -126 6 -11 26 -26 45 -32 38 -13 50 -30 36 -52
-6 -9 -9 -10 -9 -2 0 8 -10 11 -30 7 -22 -5 -31 -2 -36 9 -3 9 -24 19 -47 22
-23 4 -57 18 -77 30 -19 12 -61 34 -93 48 -79 37 -189 89 -345 163 -73 35
-135 64 -137 64 -3 0 -34 18 -70 40 -36 22 -69 40 -74 40 -12 0 -41 29 -41 41
0 17 35 9 47 -10z m5727 -2 c13 11 16 11 16 -3 0 -9 5 -16 10 -16 6 0 10 -7
10 -15 0 -8 -4 -15 -10 -15 -5 0 -10 5 -10 10 0 6 -4 10 -9 10 -5 0 -7 -8 -5
-17 2 -10 -7 -31 -21 -48 -22 -27 -29 -30 -82 -28 -62 1 -113 16 -113 33 0 5
7 10 16 10 9 0 18 9 21 20 5 18 32 26 66 21 4 0 7 4 7 9 0 6 8 18 18 28 16 17
19 18 44 4 22 -13 29 -13 42 -3z m-5323 -40 c9 -5 19 -6 21 -3 11 11 239 -110
313 -165 28 -21 68 -48 89 -61 22 -13 34 -26 28 -28 -15 -5 -122 45 -213 100
-41 25 -82 48 -91 51 -10 4 -18 11 -18 16 0 11 -38 26 -56 23 -6 -1 -19 9 -28
24 -10 14 -24 23 -31 20 -7 -2 -19 2 -25 10 -7 8 -21 14 -31 14 -10 0 -21 5
-24 10 -7 12 37 4 66 -11z m-855 -764 c32 -4 70 -16 83 -26 13 -11 33 -19 43
-19 11 0 34 -6 51 -14 18 -7 49 -21 69 -30 20 -9 40 -15 45 -14 4 1 18 -3 31
-10 18 -11 22 -10 22 2 0 12 7 11 40 -5 43 -21 65 -24 55 -9 -9 14 8 12 25 -2
8 -7 7 -4 -3 8 -30 36 -18 39 18 4 36 -35 43 -34 24 3 -10 22 -10 22 8 2 27
-29 63 -48 63 -34 0 7 9 1 21 -12 21 -24 86 -66 148 -95 30 -14 87 -50 101
-64 3 -3 14 -12 24 -20 18 -14 18 -13 12 8 -8 24 11 32 20 7 7 -16 69 -39 83
-31 5 4 14 -2 20 -11 6 -10 11 -13 11 -8 0 6 5 3 11 -5 8 -11 12 -12 16 -2 2
6 9 9 15 6 7 -4 6 -9 -1 -13 -8 -5 -4 -14 10 -27 20 -17 22 -17 16 -1 -5 15
-2 16 21 11 34 -9 32 -6 37 -44 2 -18 10 -40 18 -49 8 -9 17 -24 21 -34 8 -25
-3 -44 -16 -26 -6 9 -7 -2 -2 -31 4 -25 6 -62 5 -82 -1 -21 3 -38 9 -38 5 0
10 -4 10 -10 0 -15 -33 -50 -42 -44 -12 8 -10 -10 4 -24 9 -9 7 -13 -7 -19
-24 -9 -55 -35 -55 -46 0 -5 14 -6 30 -2 30 6 30 6 19 -19 -10 -20 -9 -39 0
-81 7 -31 10 -69 6 -86 l-7 -30 -75 5 c-41 3 -81 10 -89 17 -22 18 -213 109
-230 109 -8 0 -17 6 -19 13 -4 8 -39 13 -118 15 -89 2 -115 6 -124 19 -11 15
-13 15 -19 0 -7 -19 -54 -23 -54 -6 0 6 -9 9 -20 6 -10 -3 -21 0 -22 5 -3 7
-31 7 -88 -2 -74 -11 -126 -10 -218 3 -13 2 -27 9 -31 16 -5 8 -18 10 -34 5
-23 -5 -27 -3 -27 14 0 15 -9 21 -37 27 -21 4 -41 12 -45 18 -6 10 -65 -7 -78
-23 -15 -17 -61 -39 -107 -50 -29 -8 -53 -17 -53 -22 0 -4 -4 -8 -9 -8 -14 0
-21 42 -10 62 15 28 22 108 10 108 -5 0 -24 -20 -41 -45 -35 -51 -60 -56 -140
-31 -25 8 -67 18 -95 23 l-50 8 -3 48 c-3 39 2 55 21 80 45 59 47 109 4 85
-12 -6 -27 -17 -35 -24 -34 -34 -71 28 -48 79 8 18 18 51 21 75 8 48 32 102
46 102 5 0 9 7 9 15 0 8 -8 15 -17 15 -22 0 20 24 60 34 15 3 27 11 27 17 0 5
10 20 23 32 12 13 28 35 34 50 7 15 19 27 28 27 8 0 16 5 16 10 1 6 2 16 3 22
0 7 10 14 21 16 11 3 24 10 28 18 4 8 17 14 27 14 10 0 22 5 26 11 3 6 15 8
26 6 11 -3 29 -2 39 4 11 5 27 13 37 18 11 5 25 5 33 0 17 -11 69 -12 69 -1 0
4 -5 13 -12 20 -10 10 -6 11 17 7 17 -4 48 -2 70 3 22 6 45 9 51 7 6 -2 37 -6
70 -10z m-1561 -55 c68 -3 193 -27 286 -54 53 -16 229 -59 309 -74 30 -6 73
-15 94 -19 22 -5 41 -14 44 -21 3 -9 -41 -12 -192 -11 -108 1 -199 6 -202 10
-10 16 -23 9 -17 -8 6 -14 2 -14 -23 4 -16 11 -31 21 -34 20 -14 -1 -50 15
-50 23 0 5 -3 16 -7 26 -6 15 -3 14 17 -4 30 -28 40 -28 39 1 0 21 -1 21 -9 2
-6 -14 -9 -16 -10 -5 -2 8 -2 18 -1 23 0 4 -8 7 -19 7 -12 0 -31 6 -43 14 -12
8 -58 22 -102 31 -106 22 -118 23 -200 25 -39 1 -62 5 -52 8 10 4 37 7 60 6
23 -1 74 -3 112 -4z m6337 -415 c-5 -27 7 -32 37 -16 24 13 41 0 34 -27 -3
-14 -13 -22 -27 -22 -17 0 -18 -2 -6 -9 8 -6 17 -8 21 -5 4 2 12 -3 19 -11 8
-9 8 -15 2 -15 -6 0 -13 -8 -15 -17 -3 -13 -5 -11 -6 6 -1 18 -4 21 -14 13 -7
-6 -22 -9 -33 -6 -12 3 -23 -2 -32 -16 -10 -16 -10 -20 2 -20 9 0 17 -15 21
-40 4 -25 12 -40 21 -40 8 0 14 -6 13 -12 -3 -24 3 -53 8 -40 8 21 35 15 28
-7 -4 -13 0 -23 11 -29 12 -7 13 -11 5 -17 -9 -5 -9 -11 1 -23 10 -12 10 -16
1 -19 -7 -3 -13 -12 -13 -20 0 -14 -2 -14 -17 -2 -10 9 -34 16 -53 18 -37 3
-60 14 -101 52 -14 13 -44 37 -67 53 -23 16 -42 33 -42 38 0 8 -80 48 -192 96
-27 12 -48 26 -48 33 0 16 129 7 139 -10 11 -17 23 2 15 23 -7 19 0 20 27 5
18 -9 20 -8 19 13 -5 51 -1 60 22 53 15 -6 20 -4 16 6 -4 9 2 14 17 14 12 0
21 -5 18 -11 -2 -7 7 -9 27 -6 16 2 30 8 30 12 0 4 9 10 20 13 11 3 18 1 14
-4 -8 -13 10 -11 23 2 9 9 10 7 6 -10 -4 -15 -1 -21 12 -21 12 0 15 -5 10 -17
-5 -15 -4 -16 7 -5 9 9 10 19 1 42 -8 21 -8 30 1 33 18 7 24 -1 18 -28z m2979
-115 c-3 -84 -24 -134 -53 -124 -9 3 -36 6 -60 6 -24 1 -46 7 -50 12 -5 7 -11
6 -17 -3 -8 -12 -12 -12 -24 -2 -11 8 -34 10 -76 5 -33 -3 -68 -3 -78 1 -28
12 -64 15 -58 4 4 -5 0 -9 -8 -9 -22 0 -9 38 22 70 29 29 65 45 126 55 21 4
52 13 67 21 44 23 130 43 172 41 l39 -2 -2 -75z m-107 -156 c23 -9 20 -43 -6
-65 -16 -15 -24 -16 -35 -7 -11 8 -17 7 -28 -8 -8 -10 -15 -15 -15 -10 0 4
-10 1 -23 -7 -13 -8 -50 -18 -83 -22 -166 -20 -323 -93 -272 -127 40 -27 58
-30 177 -27 69 1 197 1 284 1 140 -2 157 -4 157 -19 0 -22 -39 -63 -59 -63 -9
0 -30 -8 -46 -19 -32 -19 -98 -33 -89 -19 3 4 22 13 42 19 43 12 90 44 81 54
-4 3 -115 9 -248 12 -218 6 -246 8 -283 27 -57 28 -70 65 -37 98 29 29 95 60
174 82 33 10 71 25 85 35 23 16 149 51 184 51 9 0 16 5 16 10 0 12 3 12 24 4z
m-3196 -214 c29 -21 42 -38 42 -54 0 -23 36 -61 110 -116 18 -14 49 -39 68
-57 33 -31 33 -33 16 -50 -12 -13 -19 -14 -22 -5 -2 6 -12 12 -23 12 -21 0
-69 38 -69 54 0 13 -78 96 -90 96 -5 0 -11 8 -14 18 -4 10 -22 26 -41 35 -19
9 -35 24 -35 33 0 9 -7 22 -17 29 -19 14 -10 35 16 35 10 0 37 -14 59 -30z
m-3982 -6 c46 -31 54 -42 46 -62 -3 -10 -1 -13 6 -8 26 16 11 -32 -18 -57 -16
-15 -30 -31 -30 -36 0 -11 29 -23 40 -16 5 3 11 1 14 -4 3 -5 24 -7 46 -4 33
5 40 3 40 -11 0 -9 5 -16 10 -16 6 0 10 -7 10 -15 0 -9 -6 -15 -12 -14 -7 2
-37 -3 -66 -9 -29 -7 -65 -12 -80 -12 -15 0 -38 -9 -52 -19 -20 -16 -22 -21
-11 -35 15 -18 10 -20 -42 -29 -20 -3 -32 1 -42 17 -13 17 -15 18 -15 3 0 -9
-4 -17 -10 -17 -5 0 -10 6 -10 14 0 7 -16 21 -35 30 -19 9 -35 23 -35 30 0 15
48 89 61 94 5 2 9 10 9 19 0 8 6 13 13 10 6 -2 28 8 47 23 19 15 46 31 60 35
58 17 67 55 20 80 -31 16 -40 35 -16 35 7 0 31 -12 52 -26z m3595 -154 c20 0
27 -4 23 -14 -4 -9 6 -16 31 -20 27 -5 53 -24 99 -72 34 -35 67 -64 74 -64 7
0 27 -15 45 -33 17 -18 48 -44 67 -57 19 -13 37 -27 40 -30 10 -13 177 -89
218 -100 24 -6 52 -8 62 -5 11 3 29 1 41 -6 20 -10 21 -9 14 12 -4 13 -8 34
-9 46 0 13 -6 22 -11 20 -6 -1 -17 4 -25 11 -8 7 -27 21 -42 33 -18 13 -27 28
-26 44 1 13 5 22 9 19 4 -2 9 3 12 10 12 31 107 -5 107 -40 0 -8 6 -17 14 -20
23 -9 27 -34 11 -57 -9 -12 -15 -16 -15 -8 0 11 -3 11 -15 1 -25 -20 -17 -30
18 -25 41 7 54 -6 63 -62 5 -33 2 -45 -13 -60 -11 -11 -23 -28 -26 -37 -5 -12
-13 -16 -25 -11 -9 3 -39 11 -67 16 -71 13 -141 37 -205 69 -132 67 -155 75
-228 78 -98 6 -93 27 6 27 59 0 72 3 76 18 4 15 -5 22 -26 18 -5 0 -17 8 -29
20 -16 16 -23 18 -35 8 -11 -9 -14 -8 -14 9 0 13 -9 22 -25 26 -14 4 -25 11
-25 17 0 6 -9 8 -20 4 -15 -5 -20 -2 -21 12 0 10 -3 13 -6 6 -8 -21 -35 -16
-28 5 5 17 0 19 -47 15 -29 -2 -60 -4 -68 -6 -29 -4 -19 18 13 29 19 6 33 19
35 30 3 16 1 17 -8 4 -9 -13 -12 -13 -24 3 -14 18 -15 17 -19 -5 -4 -21 -4
-20 -6 5 0 17 -7 27 -16 27 -8 0 -15 4 -15 9 0 5 -3 16 -6 24 -3 8 2 17 10 20
10 4 13 1 9 -9 -3 -7 -1 -14 3 -15 5 0 16 -2 24 -4 10 -1 16 5 16 16 0 11 -6
19 -12 19 -12 0 -25 23 -23 43 0 8 2 8 6 0 2 -7 18 -13 34 -13z m3819 -11 c0
-6 -9 -18 -21 -28 l-20 -16 20 -27 c31 -39 28 -67 -9 -74 -16 -4 -40 -19 -52
-34 -16 -20 -26 -25 -37 -19 -9 4 -41 13 -72 19 -44 9 -59 16 -64 33 l-8 22
-4 -22 c-6 -30 -40 -31 -45 -1 -5 39 70 98 170 134 71 25 142 31 142 13z
m-333 -250 c15 -15 183 -22 199 -8 7 6 18 8 24 4 6 -4 24 -8 39 -9 22 -2 91
-55 91 -70 0 -11 -53 -15 -71 -6 -18 10 -19 10 -7 -9 7 -12 16 -21 19 -21 4 0
12 -13 19 -29 6 -16 18 -32 27 -35 8 -3 11 -11 7 -18 -5 -7 -2 -9 8 -5 20 7
61 -21 54 -38 -2 -7 0 -17 6 -23 22 -22 -24 -45 -47 -23 -18 16 -93 20 -112 5
-24 -18 -48 -17 -63 1 -7 8 -17 12 -22 9 -6 -4 -15 0 -20 7 -6 8 -11 10 -14 4
-2 -6 -24 -10 -49 -9 -25 1 -48 -2 -51 -7 -3 -5 -1 -9 4 -9 4 0 17 -8 28 -18
26 -25 81 -43 109 -36 15 4 24 0 29 -12 8 -22 -2 -33 -15 -14 -8 13 -10 13
-18 1 -6 -10 -2 -22 15 -40 13 -14 24 -29 24 -33 0 -4 6 -5 14 -2 8 3 17 0 21
-5 3 -6 10 -9 15 -6 5 3 12 -5 16 -19 3 -14 11 -24 17 -23 6 1 15 -7 21 -19 6
-11 17 -19 23 -17 7 3 15 -7 19 -21 3 -14 12 -26 20 -26 8 0 14 -7 14 -15 0
-8 9 -19 20 -25 11 -6 20 -16 20 -23 0 -17 39 -49 50 -42 5 3 11 -4 15 -15 3
-11 15 -25 26 -30 10 -6 19 -17 19 -25 0 -8 6 -15 14 -15 36 0 27 -57 -10 -65
-13 -3 -35 -7 -49 -10 -29 -6 -89 20 -130 56 -45 41 -144 89 -181 89 -38 0
-54 -18 -32 -34 10 -8 15 -29 15 -69 0 -59 -6 -68 -28 -41 -7 8 -47 39 -88 67
-72 48 -80 51 -144 53 -50 1 -70 -3 -74 -12 -3 -8 -10 -14 -15 -14 -6 0 -16
-7 -22 -16 -11 -14 -18 -14 -57 -3 -24 7 -48 17 -54 22 -5 4 -19 14 -30 22
-18 13 -18 14 -2 15 9 0 17 4 17 9 0 5 14 17 30 25 17 9 44 23 60 32 17 8 30
22 30 30 0 8 2 14 4 14 2 0 11 3 19 6 10 3 19 -5 27 -28 7 -18 14 -27 17 -20
2 6 10 12 17 12 27 0 60 59 57 104 -2 20 1 27 11 24 8 -3 12 -17 10 -34 -3
-28 -2 -27 18 10 23 41 20 72 -6 62 -10 -4 -18 0 -21 13 -5 20 -55 36 -61 20
-2 -5 -16 -2 -32 6 -33 17 -43 54 -24 91 13 25 13 26 -10 22 -29 -6 -26 9 10
58 20 28 21 34 9 44 -8 7 -12 17 -9 22 4 6 0 15 -7 20 -11 7 -11 11 -1 15 6 2
9 9 6 14 -3 6 -11 5 -20 -2 -11 -9 -17 -9 -29 1 -19 16 -10 30 19 30 15 0 26
7 29 20 4 15 14 20 41 20 26 0 36 4 36 16 0 9 7 14 18 12 10 -2 24 7 34 24 19
30 28 34 45 17z m-4206 -224 c40 -38 152 -120 184 -134 47 -21 345 -349 345
-380 0 -6 4 -11 9 -11 11 0 44 -67 39 -81 -2 -5 -12 7 -23 28 -11 21 -29 47
-40 59 -11 12 -36 39 -55 60 -20 21 -49 50 -65 64 -17 14 -57 57 -90 95 -80
93 -152 163 -176 170 -10 4 -19 11 -19 16 0 5 -7 9 -16 9 -9 0 -18 9 -21 20
-3 11 -10 17 -15 14 -5 -3 -15 2 -22 12 -8 11 -21 15 -34 12 -29 -8 -72 47
-56 73 9 15 18 11 55 -26z m126 -180 c75 -49 119 -94 76 -78 -11 4 -14 3 -9
-6 4 -6 15 -9 25 -6 11 3 22 -5 35 -28 11 -17 35 -50 53 -72 50 -59 53 -63 53
-75 0 -5 4 -10 9 -10 9 0 59 -116 64 -150 2 -11 6 -23 10 -26 4 -4 7 -15 7
-25 0 -10 6 -24 14 -32 19 -19 39 -93 31 -117 -4 -12 -2 -20 4 -20 14 0 14
-47 1 -52 -5 -2 -11 -22 -12 -45 -1 -42 -18 -57 -34 -31 -5 8 -10 6 -15 -8 -6
-15 -8 -12 -8 14 -1 18 -8 44 -17 57 -9 14 -13 25 -9 25 5 0 0 9 -10 20 -10
11 -18 34 -17 52 0 18 -3 37 -7 43 -4 5 -8 20 -9 33 -1 22 -9 43 -71 174 -17
36 -31 71 -31 77 0 6 -4 11 -9 11 -5 0 -11 14 -15 31 -3 17 -10 28 -15 25 -5
-3 -14 9 -22 27 -7 17 -22 45 -33 62 -30 43 -44 66 -56 97 -6 14 -18 29 -26
32 -9 3 -12 10 -9 16 8 14 9 13 52 -15z m3189 -42 c-3 -7 1 -13 9 -13 18 0 20
-17 3 -23 -9 -3 -6 -11 10 -24 29 -26 28 -51 -2 -86 -22 -26 -27 -27 -44 -15
-11 7 -20 17 -20 23 0 5 -5 11 -11 13 -6 2 -8 -3 -5 -12 9 -23 -15 -20 -34 5
-11 13 -34 22 -62 26 -25 3 -52 12 -62 20 -22 19 -31 2 -18 -33 8 -21 8 -30
-2 -37 -9 -6 -8 -7 5 -3 11 3 27 -2 39 -14 12 -11 28 -20 36 -20 22 0 8 24
-24 40 -27 14 -28 15 -7 18 12 2 31 -2 42 -7 11 -6 26 -11 35 -11 8 0 26 -11
40 -24 27 -24 35 -43 14 -29 -25 15 -78 31 -78 22 0 -5 5 -9 11 -9 6 0 9 -6 6
-14 -4 -10 2 -16 21 -18 15 -2 27 -7 27 -13 0 -5 4 -16 9 -24 8 -13 -19 -11
-79 6 -16 5 -18 3 -9 -8 6 -8 14 -21 17 -30 4 -13 1 -16 -14 -12 -28 8 -23 -8
13 -39 l33 -27 -33 -12 c-60 -21 -25 -79 48 -79 21 0 41 -4 44 -8 7 -12 -151
-7 -166 5 -26 21 -72 22 -97 2 -27 -22 -55 -25 -48 -6 2 6 12 55 21 107 28
151 39 205 46 210 13 12 30 64 30 94 0 39 38 71 79 68 19 -2 21 1 12 12 -9 11
-9 16 0 21 6 4 16 1 21 -6 7 -10 8 -8 3 7 -5 21 -5 21 70 -4 53 -18 74 -29 71
-39z m-4559 -39 c6 -47 -23 -210 -43 -241 -8 -12 -14 -27 -14 -33 0 -13 -36
-55 -118 -138 -60 -60 -75 -91 -32 -64 34 21 46 13 18 -13 -15 -14 -30 -25
-33 -25 -8 0 -69 -44 -73 -52 -2 -5 -10 -8 -18 -8 -8 0 -14 -4 -14 -10 0 -18
-29 -10 -46 13 l-16 22 5 -23 c4 -16 -1 -25 -15 -33 -18 -10 -19 -11 -2 -23
23 -17 8 -24 -57 -27 -63 -1 -121 11 -127 29 -3 10 24 18 51 13 12 -2 47 19
47 28 0 5 -16 9 -35 8 -19 -1 -35 -5 -35 -9 0 -12 -43 -3 -47 9 -5 15 9 22 48
24 45 2 166 37 198 57 26 16 105 68 151 99 32 22 122 114 136 139 16 27 41
120 48 177 4 36 2 47 -8 47 -14 0 -26 29 -26 63 0 10 4 16 9 13 5 -4 7 4 4 16
l-6 23 22 -21 c13 -12 25 -38 28 -60z m200 -329 c17 4 23 1 23 -10 0 -9 7 -18
15 -21 8 -3 20 -21 27 -40 8 -22 17 -33 26 -29 7 2 11 1 8 -4 -3 -4 12 -43 33
-84 58 -114 90 -257 86 -382 -4 -137 -4 -136 -25 -84 -10 25 -22 83 -26 129
-4 46 -13 95 -20 109 -8 14 -14 31 -14 36 0 6 -10 21 -21 34 -37 45 -44 16
-40 -168 2 -79 -5 -115 -20 -106 -5 4 -9 -1 -9 -9 0 -9 5 -16 12 -16 6 0 9 -2
6 -5 -11 -12 -39 8 -34 24 4 10 -1 7 -13 -6 -22 -26 -36 -30 -27 -8 7 19 -3
47 -15 39 -5 -3 -9 -4 -10 -2 0 2 -2 22 -6 46 -5 41 -46 103 -55 85 -3 -4 -3
-3 -2 4 2 7 -1 15 -7 19 -5 3 -7 14 -4 24 3 11 -1 33 -10 50 -13 24 -19 29
-29 20 -10 -8 -15 -7 -20 5 -3 9 -11 13 -16 10 -7 -5 -10 6 -8 32 3 38 3 38
-34 40 -30 2 -38 -2 -39 -15 -1 -15 -2 -15 -6 0 -3 14 -10 15 -41 6 -20 -5
-44 -16 -53 -24 -8 -8 -33 -14 -55 -14 l-39 0 27 25 c15 14 34 25 43 25 19 0
200 145 250 201 20 23 39 39 42 36 7 -8 40 28 49 55 l8 23 10 -28 c8 -23 15
-27 33 -22z m944 -62 c30 -35 99 -168 99 -192 0 -6 4 -11 9 -11 5 0 11 -10 14
-22 7 -29 100 -295 116 -328 6 -14 19 -36 28 -50 l17 -25 -23 20 c-31 27 -64
79 -86 140 -11 28 -27 64 -36 80 -9 17 -25 53 -35 80 -9 28 -21 55 -26 61 -4
6 -17 40 -28 76 -24 79 -57 155 -70 163 -6 3 -15 15 -20 26 -18 32 6 22 41
-18z m3084 -107 c-13 -9 -8 -14 32 -24 26 -7 62 -17 78 -22 17 -5 41 -7 54 -3
14 4 22 2 18 -3 -3 -6 14 -16 39 -23 49 -15 50 -32 1 -31 -18 1 -44 -2 -59 -6
-16 -3 -48 1 -78 11 -38 13 -55 14 -63 6 -6 -6 -24 -11 -40 -11 -38 0 -25 -18
18 -26 20 -3 35 -12 35 -20 0 -16 -16 -19 -25 -4 -11 18 -47 11 -52 -10 -3
-11 -9 -20 -14 -20 -5 0 -9 -4 -9 -10 0 -5 6 -10 14 -10 7 0 19 -7 27 -16 11
-13 9 -14 -15 -8 -19 4 -31 2 -37 -7 -4 -7 -12 -10 -16 -5 -4 5 -2 11 5 13 14
5 17 33 2 33 -5 0 2 22 15 49 14 27 26 71 28 98 4 59 11 73 37 66 18 -5 19 -7
5 -17z m1518 -60 c3 -7 18 -13 32 -13 15 0 30 -4 34 -9 3 -5 12 -9 19 -10 6
-1 22 -2 35 -2 25 -2 129 -76 120 -86 -10 -10 19 -56 34 -56 8 0 30 -12 50
-27 37 -28 63 -35 74 -19 18 24 103 -42 113 -89 4 -19 2 -37 -7 -49 -14 -19
-15 -18 -36 3 -14 14 -20 29 -16 42 4 11 2 19 -5 19 -6 0 -8 -5 -4 -12 5 -8 2
-9 -9 -5 -12 4 -17 1 -17 -11 0 -35 13 -63 26 -58 7 3 16 0 20 -6 4 -7 3 -8
-4 -4 -22 13 -13 -29 13 -64 29 -39 32 -72 8 -99 -12 -15 -21 -18 -35 -10 -14
8 -18 6 -19 -8 0 -12 -4 -9 -10 8 -6 15 -19 29 -30 32 -11 3 -19 9 -18 14 3
19 -2 34 -9 29 -8 -5 -82 66 -82 78 0 14 -49 53 -54 43 -3 -8 -8 -7 -15 3 -10
13 -11 13 -11 0 0 -10 -8 -6 -23 12 -12 15 -39 41 -61 58 -21 16 -36 30 -33
30 15 0 -110 111 -130 116 -26 7 -30 19 -8 28 8 3 15 1 15 -4 0 -6 23 -10 50
-10 28 0 50 -4 50 -9 0 -5 14 -12 31 -16 38 -9 58 7 39 30 -11 14 -14 13 -26
-2 -12 -16 -15 -16 -23 -3 -7 10 -6 17 5 23 18 10 9 28 -11 21 -8 -4 -17 1
-21 9 -3 8 -23 27 -45 41 -21 15 -39 33 -39 41 0 19 26 20 33 1z m-4164 -96
c14 -14 28 -24 32 -23 4 1 10 -15 14 -37 4 -22 10 -40 14 -40 4 0 7 -18 6 -40
0 -22 -3 -40 -7 -40 -5 0 -8 4 -8 8 0 5 -7 9 -16 9 -14 0 -15 -9 -11 -51 3
-28 9 -64 12 -81 6 -27 5 -27 -15 10 -35 63 -67 155 -74 217 -6 48 -5 58 11
67 17 10 17 10 1 11 -19 0 -22 8 -12 35 6 16 8 16 17 -1 6 -10 22 -30 36 -44z
m4149 -197 c9 -10 28 -27 42 -38 14 -11 36 -33 48 -50 13 -16 40 -48 61 -70
115 -124 210 -322 212 -445 1 -78 -3 -90 -35 -90 -19 0 -32 17 -72 95 -73 142
-73 141 -90 156 -16 13 -16 12 -1 -18 18 -34 22 -63 10 -63 -14 0 -138 123
-174 171 -18 26 -39 45 -45 42 -7 -2 -11 4 -11 13 2 12 -5 18 -20 19 -13 0
-22 5 -20 10 1 6 9 9 17 8 8 -1 18 3 22 10 10 17 41 18 34 1 -6 -15 78 -104
97 -104 5 0 7 -6 4 -13 -3 -7 10 -23 29 -35 54 -36 40 -10 -41 73 -44 44 -75
85 -75 97 0 11 -8 22 -19 25 -20 5 -48 63 -30 63 5 0 9 -7 9 -15 0 -8 6 -15
13 -15 8 0 24 -11 37 -25 13 -14 27 -25 31 -25 13 0 107 -98 113 -118 4 -11
13 -23 21 -26 8 -3 21 -18 29 -33 8 -16 33 -49 56 -73 l42 -45 -7 32 c-9 47
-67 181 -100 233 -24 39 -56 76 -192 230 -34 37 -30 57 5 23z"/>
<path d="M1828 12303 c-27 -3 -38 -9 -38 -20 0 -32 -44 -82 -80 -91 l-35 -8 2
-63 c5 -127 75 -274 190 -398 l48 -51 46 46 c25 26 59 67 75 92 16 25 31 47
34 50 9 8 68 152 75 185 4 17 8 55 9 85 1 51 -1 55 -24 60 -45 9 -70 33 -77
73 l-6 37 -77 0 c-43 0 -84 1 -92 3 -7 2 -30 2 -50 0z m187 -72 c8 -16 29 -40
47 -52 18 -13 36 -28 40 -34 9 -12 -1 -106 -13 -119 -5 -6 -9 -17 -9 -26 0
-40 -97 -198 -149 -242 -19 -16 -21 -15 -50 17 -16 19 -34 42 -40 52 -9 15
-12 15 -20 4 -5 -8 -11 -9 -15 -3 -3 6 -1 12 6 14 8 3 3 18 -14 46 -13 23 -26
40 -29 38 -2 -2 -5 11 -6 31 -1 19 -7 41 -14 49 -17 20 -25 154 -10 154 24 0
81 58 81 82 0 16 10 18 90 18 89 0 90 0 105 -29z"/>
<path d="M970 12243 c-51 -10 -136 -86 -147 -132 -3 -14 -11 -29 -16 -33 -6
-3 -11 -46 -11 -95 -1 -94 9 -125 62 -188 75 -90 269 -89 351 3 18 20 39 55
47 77 14 40 10 61 -6 35 -7 -10 -10 -11 -10 -2 0 8 -19 12 -60 12 -44 0 -60
-4 -60 -14 0 -7 -10 -26 -22 -41 -19 -24 -26 -27 -67 -22 -62 7 -91 43 -91
113 0 79 10 113 45 150 26 28 40 34 72 34 46 0 83 -26 83 -59 0 -23 15 -29 23
-8 4 10 6 10 6 0 1 -9 19 -13 56 -13 30 0 55 1 55 3 0 1 -10 30 -23 62 -19 48
-32 66 -68 90 -38 26 -54 30 -119 32 -41 0 -86 -1 -100 -4z"/>
<path d="M1391 12153 c-7 -49 -16 -108 -21 -133 -9 -47 -25 -152 -35 -232 l-6
-46 54 -4 c73 -4 86 0 91 25 30 169 65 410 66 450 0 27 0 27 -68 27 l-69 0
-12 -87z"/>
<path d="M16445 11283 c-137 -13 -360 -46 -436 -64 -86 -21 -89 -23 -89 -51 0
-18 5 -28 14 -28 8 0 14 -8 14 -17 -1 -10 1 -30 5 -45 4 -14 9 -77 11 -140 4
-114 23 -212 66 -338 34 -102 105 -267 121 -280 3 -3 18 -31 33 -62 35 -73 26
-98 -36 -98 l-41 0 7 -106 c4 -58 13 -156 21 -217 7 -62 17 -155 21 -207 3
-52 8 -104 11 -115 2 -11 8 -60 13 -110 16 -151 28 -228 44 -280 22 -76 45
-157 52 -189 10 -40 117 -149 141 -143 16 4 16 5 1 6 -10 0 -18 7 -18 15 0 15
49 26 117 26 23 0 44 4 48 9 13 22 240 35 276 16 21 -12 21 -13 3 -23 -15 -8
-16 -13 -5 -26 16 -19 59 -21 112 -5 41 13 43 29 4 29 -14 0 -29 8 -35 19 -5
11 -20 21 -32 23 -13 2 -24 10 -26 19 -2 14 6 16 55 13 32 -2 105 -5 163 -8
58 -2 110 -5 115 -7 16 -4 125 21 183 42 29 10 70 19 91 19 21 0 59 9 84 20
37 17 53 19 87 11 37 -8 145 -1 208 14 23 6 56 -7 80 -32 21 -21 29 -16 36 21
4 22 -1 60 -15 108 -12 40 -24 87 -26 103 -3 17 -9 35 -13 40 -5 6 -15 35 -23
65 -15 54 -66 193 -93 257 -8 17 -14 34 -14 37 0 3 -9 25 -19 49 -11 23 -34
80 -52 127 -33 83 -249 518 -293 589 -12 20 -25 43 -28 51 -10 27 -154 270
-171 291 -9 10 -17 24 -17 30 0 10 -5 19 -71 114 -19 28 -59 87 -89 132 -30
44 -92 128 -137 186 -73 92 -87 105 -120 111 -39 6 -267 6 -338 -1z m-163
-262 c27 -26 127 -36 215 -23 61 9 72 8 106 -11 26 -15 37 -27 37 -44 0 -13 4
-23 10 -23 5 0 19 -19 30 -42 11 -24 32 -61 46 -83 13 -22 27 -47 31 -55 4 -8
9 -17 12 -20 12 -10 31 -50 31 -64 0 -8 6 -16 13 -19 8 -3 26 -29 42 -59 15
-29 36 -64 47 -77 26 -34 58 -109 58 -137 0 -29 47 -104 66 -104 7 0 12 -10
12 -22 -5 -82 1 -98 40 -116 77 -36 82 -42 82 -102 0 -30 7 -68 15 -84 16 -31
20 -96 6 -96 -23 0 -15 -230 9 -238 5 -2 -3 -21 -18 -42 -25 -37 -30 -39 -79
-40 -40 0 -53 -4 -53 -15 0 -21 -72 -20 -118 2 -26 12 -37 14 -40 5 -4 -14
-82 -16 -82 -2 0 6 -25 10 -55 10 -48 0 -59 4 -80 28 -14 15 -29 43 -35 62 -5
20 -20 62 -33 93 -19 48 -22 67 -16 105 11 64 11 192 0 192 -4 0 -16 30 -25
67 -23 95 -35 109 -103 124 -68 14 -92 35 -117 104 -10 28 -24 57 -31 65 -7 8
-16 26 -20 40 -4 14 -16 39 -26 56 -11 17 -19 39 -19 48 0 9 -5 16 -10 16 -6
0 -19 20 -30 44 -10 24 -22 45 -27 47 -4 2 -21 33 -38 69 -16 35 -42 78 -56
95 -14 16 -34 46 -45 65 -10 19 -21 37 -24 40 -11 11 -38 99 -33 104 4 3 25 6
48 6 46 0 155 26 170 41 16 16 65 10 87 -10z"/>
<path d="M17074 11277 c-6 -16 90 -164 131 -201 50 -46 61 -49 150 -41 58 5
85 3 85 -4 0 -6 6 -8 13 -5 24 9 82 -25 122 -72 63 -73 82 -91 136 -126 14 -9
32 -23 40 -30 8 -7 52 -47 99 -88 47 -41 91 -83 98 -93 7 -9 26 -24 43 -32 16
-9 29 -22 29 -29 0 -24 109 -110 155 -122 53 -14 65 -21 65 -40 0 -8 7 -14 15
-14 9 0 15 -9 15 -24 0 -22 23 -41 39 -32 4 3 8 -14 10 -36 1 -23 4 -44 6 -47
2 -3 -17 -4 -41 -2 -24 1 -44 7 -44 12 0 14 -90 49 -126 49 -31 0 -34 -3 -34
-30 0 -20 5 -30 15 -30 11 0 15 -11 15 -36 0 -19 11 -59 25 -89 17 -35 27 -75
29 -118 3 -61 6 -68 40 -100 20 -19 36 -44 36 -55 0 -16 9 -22 43 -27 57 -10
73 -19 136 -81 30 -30 60 -54 66 -54 7 0 24 -18 38 -39 26 -39 26 -40 8 -63
-18 -22 -20 -22 -92 -10 -40 7 -78 17 -85 23 -7 6 -46 11 -86 12 -40 0 -79 5
-87 11 -11 8 -15 8 -18 -1 -3 -7 -20 -13 -38 -13 -18 0 -36 6 -38 13 -4 10 -6
10 -6 0 -1 -7 -7 -13 -15 -13 -21 0 -10 -60 26 -138 15 -34 28 -69 28 -77 0
-8 9 -30 20 -50 11 -20 20 -47 20 -61 0 -14 6 -37 14 -52 7 -15 21 -63 31
-107 9 -44 25 -92 36 -107 10 -15 19 -31 19 -37 0 -5 5 -11 12 -13 6 -2 -4
-10 -23 -17 -74 -28 -77 -30 -41 -30 17 -1 32 4 32 9 0 6 15 10 33 10 50 0 78
11 75 28 -3 18 20 23 40 9 7 -6 12 -6 12 1 0 11 75 23 150 24 32 0 48 6 58 19
16 23 32 25 32 3 0 -13 6 -15 33 -9 17 3 88 6 157 5 69 -2 179 -2 245 -1 111
1 122 3 156 27 41 28 70 26 102 -7 10 -11 23 -19 30 -19 7 0 24 -11 39 -25 15
-14 30 -25 33 -25 3 0 5 85 5 189 0 155 -3 192 -15 205 -8 8 -15 18 -15 21 0
4 -29 51 -65 105 -36 54 -65 103 -65 109 0 6 -4 11 -8 11 -4 0 -26 30 -47 66
-73 121 -80 132 -117 176 -19 24 -52 63 -72 88 -21 25 -44 54 -53 64 -9 11
-37 47 -62 80 -25 34 -69 86 -97 116 -29 30 -65 71 -80 90 -16 19 -31 37 -34
40 -11 11 -88 99 -140 160 -94 112 -385 405 -517 522 -134 118 -291 206 -413
232 -108 22 -285 44 -432 52 -111 6 -128 5 -134 -9z"/>
<path d="M18685 8458 c-16 -6 -38 -17 -49 -24 -10 -7 -25 -10 -33 -7 -8 3 -23
-4 -35 -17 -28 -29 -21 -104 17 -193 31 -73 49 -86 92 -64 66 35 121 136 122
224 1 44 -3 55 -25 72 -29 23 -44 25 -89 9z"/>
<path d="M16839 8220 c-60 -10 -114 -46 -128 -85 -14 -39 -15 -135 -1 -135 6
0 10 -7 10 -15 0 -27 49 -114 71 -126 39 -20 94 5 157 73 56 59 84 111 77 145
-17 93 -46 143 -82 143 -10 0 -27 2 -38 4 -11 2 -41 0 -66 -4z"/>
<path d="M13895 8185 c-51 -25 -59 -26 -258 -24 -22 1 -46 -6 -56 -15 -10 -9
-28 -16 -42 -16 -26 -1 -69 -31 -69 -49 0 -6 -7 -11 -15 -11 -8 0 -15 -4 -15
-8 0 -18 -119 -34 -199 -27 -77 7 -81 6 -81 -13 0 -37 37 -52 131 -52 65 0
102 6 151 24 57 20 83 23 204 23 77 0 154 3 171 7 18 4 66 2 107 -4 69 -12 76
-11 113 9 61 35 98 102 75 137 -9 14 -106 44 -141 44 -14 0 -48 -12 -76 -25z"/>
<path d="M14545 7669 c-70 -9 -118 -17 -270 -46 -44 -8 -100 -18 -125 -23 -25
-4 -83 -17 -130 -28 -47 -11 -103 -23 -125 -27 -177 -30 -392 -172 -463 -305
-59 -111 -81 -201 -73 -312 1 -19 70 -90 81 -83 11 7 64 -21 93 -50 25 -26 82
-41 92 -24 6 9 38 -6 63 -29 25 -22 46 -28 115 -27 37 1 67 -2 67 -7 0 -4 11
-8 24 -8 13 0 27 -6 29 -12 4 -10 6 -10 6 0 1 6 6 12 11 12 6 0 10 -8 8 -17
-2 -13 6 -17 36 -19 22 -2 43 -8 47 -15 3 -6 11 -9 17 -5 5 3 13 -1 16 -10 3
-9 13 -14 20 -11 8 3 17 -1 20 -9 4 -10 13 -13 31 -8 15 4 32 1 40 -6 12 -10
18 -10 31 1 10 8 18 9 22 2 8 -12 61 -23 79 -16 7 3 13 13 13 22 0 10 3 12 8
5 11 -16 44 -13 72 7 25 17 26 17 48 -8 l22 -25 31 26 c17 14 34 26 39 26 5 0
15 3 24 6 11 4 16 1 16 -11 0 -14 6 -16 28 -11 43 10 46 11 59 19 8 5 18 -3
27 -22 13 -25 21 -29 43 -25 15 3 33 10 40 16 7 6 21 7 30 3 40 -18 341 -10
468 12 17 3 44 6 60 7 17 2 55 8 85 16 52 12 68 18 139 55 16 8 36 15 45 15 9
0 16 4 16 8 0 9 64 42 83 42 16 0 22 414 7 480 -34 151 -72 292 -89 332 -10
25 -35 57 -54 72 l-34 26 -459 -1 c-252 -1 -490 -6 -529 -10z m845 -99 c25 -6
54 -12 66 -15 24 -5 64 -38 64 -52 0 -6 7 -24 16 -42 8 -17 18 -65 21 -106 8
-109 0 -119 -119 -134 -125 -15 -311 -30 -320 -24 -4 2 -33 4 -63 4 l-57 1 6
67 c4 36 8 98 9 136 2 39 8 81 14 95 7 14 12 22 12 18 1 -9 75 12 82 23 3 5
36 12 75 15 38 3 85 9 104 14 19 4 37 8 40 9 3 0 25 -4 50 -9z"/>
<path d="M3185 7512 c-44 -9 -87 -72 -49 -72 15 0 15 -2 0 -25 -21 -31 -21
-118 -1 -138 27 -27 148 -45 203 -31 23 7 31 34 10 34 -9 0 -9 3 0 12 25 25
13 62 -28 92 -24 18 -40 38 -40 50 0 27 -69 83 -95 78z"/>
<path d="M18541 7337 c-10 -18 -10 -60 -3 -181 5 -86 14 -162 19 -167 22 -22
98 -6 134 27 14 14 29 21 33 17 4 -4 4 0 0 10 -5 14 -9 15 -21 5 -13 -10 -19
-7 -39 17 -23 28 -30 67 -27 135 6 105 4 122 -13 141 -24 27 -68 25 -83 -4z"/>
<path d="M16593 6803 c-18 -2 -33 -8 -33 -13 0 -5 -14 -4 -30 2 -24 8 -38 7
-64 -6 -19 -9 -41 -16 -50 -16 -9 0 -16 -4 -16 -10 0 -5 -7 -10 -15 -10 -9 0
-18 -7 -21 -15 -9 -24 -33 -18 -60 15 -32 37 -92 57 -123 41 -28 -16 -27 -33
7 -69 25 -27 41 -72 55 -162 3 -24 34 -63 45 -56 5 3 17 35 27 71 9 36 21 65
25 65 4 0 10 14 14 30 5 28 8 30 27 20 13 -7 64 -10 139 -8 95 2 122 6 137 21
11 9 27 17 36 17 13 0 17 10 17 43 0 27 3 37 9 28 5 -8 11 -9 15 -3 12 20 -48
26 -141 15z"/>
<path d="M12810 6524 c0 -5 14 -18 30 -29 16 -11 30 -23 30 -27 0 -4 -35 -6
-77 -5 -72 2 -78 0 -81 -19 -2 -12 -13 -27 -25 -33 -18 -10 -22 -19 -19 -46 3
-25 0 -36 -12 -41 -13 -5 -16 -22 -17 -78 0 -101 -20 -201 -39 -201 -8 0 -19
-10 -25 -22 -5 -13 -13 -23 -18 -23 -4 0 -5 -5 -1 -12 4 -6 -1 -17 -12 -25
-15 -11 -18 -27 -19 -78 0 -65 14 -90 39 -65 15 15 67 12 80 -5 6 -8 25 -16
41 -19 17 -2 24 -1 18 1 -7 2 -13 12 -14 21 0 11 -2 12 -6 5 -6 -15 -33 -17
-33 -3 0 6 7 10 15 10 8 0 23 9 32 20 17 20 17 19 45 -7 15 -15 30 -24 32 -22
3 2 1 24 -5 47 -9 43 1 82 21 82 6 0 10 11 10 25 0 14 -4 25 -9 25 -5 0 -27
15 -48 34 -21 19 -51 46 -68 61 l-30 26 30 -3 c26 -3 30 0 28 20 -2 12 2 22 7
22 6 0 10 -9 10 -19 0 -10 7 -22 16 -25 25 -9 27 -7 13 10 -19 23 -20 74 -3
81 8 3 26 -3 41 -12 l26 -18 -21 35 c-29 47 -17 61 47 57 46 -4 51 -2 47 13
-4 16 1 17 36 12 38 -7 39 -6 36 21 -3 24 0 27 30 30 18 1 35 -1 38 -6 3 -5 9
-7 14 -4 5 3 11 1 15 -5 3 -5 14 -10 24 -10 10 0 30 -9 44 -20 35 -28 45 -25
18 4 -22 23 -22 24 -3 30 23 8 49 -1 74 -26 10 -10 29 -18 43 -18 22 0 24 3
19 29 -6 28 -5 28 35 25 40 -3 42 -1 48 29 5 27 7 28 14 12 5 -12 6 -4 2 20
-7 47 -13 58 -13 24 0 -13 -4 -30 -9 -38 -7 -11 -12 -4 -21 27 -11 43 -23 52
-36 30 -6 -9 -10 -5 -15 12 l-6 25 -8 -29 c-6 -20 -4 -31 3 -34 11 -3 18 -42
8 -42 -2 0 -11 -3 -20 -6 -11 -4 -16 -1 -16 11 0 13 -6 16 -27 12 -33 -6 -97
28 -70 39 23 9 21 24 -3 24 -11 0 -20 -7 -20 -15 0 -9 -6 -12 -15 -9 -13 5
-13 8 0 21 8 8 15 15 15 16 0 1 -20 2 -44 2 -24 0 -42 3 -39 8 3 5 -4 6 -15 3
-11 -4 -23 -2 -27 4 -3 5 -16 10 -29 10 -12 0 -26 4 -31 9 -13 13 -125 26
-125 15z"/>
<path d="M15920 6361 c0 -12 -6 -21 -14 -21 -7 0 -20 -10 -28 -22 -11 -16 -25
-22 -54 -22 -21 -1 -50 -9 -64 -18 -14 -8 -38 -23 -55 -32 l-30 -15 28 -1 c37
0 34 -13 -8 -36 -46 -24 -40 -38 19 -42 43 -3 46 -5 41 -25 -4 -12 -16 -30
-28 -40 -12 -10 -30 -25 -40 -33 -9 -7 -32 -14 -49 -14 -39 0 -26 -17 17 -22
20 -3 8 -7 -37 -12 -38 -5 -68 -13 -68 -18 0 -6 14 -8 35 -5 44 7 56 -10 14
-21 -23 -5 -33 -15 -36 -31 -2 -17 1 -21 14 -17 38 10 88 18 83 13 -3 -3 -19
-13 -35 -22 -30 -16 -30 -16 28 -9 31 3 57 4 57 0 0 -3 -24 -18 -52 -32 -78
-40 -88 -55 -88 -138 -1 -47 -6 -78 -15 -90 -16 -21 -20 -52 -7 -60 4 -2 30 0
57 5 28 5 73 12 100 15 28 3 52 10 55 14 3 4 13 9 24 11 17 4 18 18 22 188 3
154 6 186 19 193 8 5 15 20 15 34 0 13 4 32 9 42 6 9 19 47 31 84 12 37 34 83
51 104 29 36 38 74 19 74 -5 0 -10 6 -10 14 0 8 -4 18 -10 21 -5 3 -10 -3 -10
-14z"/>
<path d="M14994 6078 c-3 -5 -13 -7 -22 -6 -11 2 -18 -8 -23 -32 -4 -19 -5
-38 -3 -42 3 -5 0 -8 -5 -8 -6 0 -11 -7 -11 -16 0 -9 -11 -25 -25 -36 -14 -11
-23 -23 -20 -28 5 -8 -24 -25 -38 -21 -5 1 -6 -3 -2 -9 8 -13 51 -13 76 0 22
12 26 35 4 27 -8 -4 -17 -2 -20 2 -7 13 27 23 38 12 7 -7 7 -19 -1 -35 -7 -16
-8 -28 -2 -31 6 -4 10 -1 10 5 0 15 42 8 48 -7 2 -8 -5 -13 -17 -13 -12 0 -21
-4 -21 -9 0 -5 -19 -13 -42 -17 l-43 -8 40 -7 c22 -4 44 -5 49 -2 4 3 37 7 71
8 60 2 97 -7 84 -20 -9 -8 -112 -8 -138 0 -12 3 -21 2 -21 -4 0 -5 9 -13 20
-16 11 -4 18 -10 15 -15 -9 -15 79 -18 91 -4 14 17 28 19 18 3 -5 -9 1 -10 20
-5 27 7 30 1 27 -36 -2 -12 5 -18 19 -18 14 0 20 5 18 17 -3 14 5 16 45 14 28
-1 47 2 47 8 0 6 -9 11 -19 11 -11 0 -23 5 -27 12 -5 8 4 10 33 6 53 -7 77 7
27 15 -26 4 -46 2 -61 -8 -29 -19 -39 -19 -23 0 7 8 9 16 4 16 -5 1 -13 2 -19
3 -5 0 -10 6 -10 11 0 6 28 9 70 7 49 -3 67 -1 60 7 -6 5 -34 11 -62 13 -29 2
-53 5 -53 8 0 3 -20 7 -46 8 -46 2 -77 17 -81 40 -4 15 19 16 35 0 9 -9 18 -9
37 0 17 8 40 9 72 3 43 -8 82 -7 141 5 20 4 21 6 8 19 -8 8 -19 15 -24 15 -9
0 -24 24 -26 42 -2 15 -16 19 -37 13 -16 -6 -18 -9 -8 -16 18 -11 11 -16 -37
-27 -33 -7 -49 -6 -78 9 -21 10 -58 19 -84 21 -47 3 -47 3 -44 37 2 32 1 33
-24 27 l-27 -7 26 34 c18 24 21 34 11 34 -8 0 -17 -4 -20 -9z"/>
<path d="M12570 5540 c0 -14 7 -20 23 -20 12 0 37 -9 55 -20 18 -11 44 -20 57
-20 14 0 25 -5 25 -11 0 -7 10 -9 25 -7 14 3 29 0 33 -6 5 -6 9 -69 9 -141 1
-151 11 -187 76 -253 49 -51 91 -74 170 -92 43 -10 57 -18 57 -31 0 -10 -5
-21 -10 -24 -13 -8 -50 -84 -50 -102 0 -7 -7 -13 -15 -13 -8 0 -12 6 -9 14 6
15 -60 56 -91 56 -10 0 -15 10 -15 30 0 18 -6 33 -15 36 -8 4 -15 12 -15 19 0
7 -14 29 -32 49 -24 28 -39 36 -65 36 -18 0 -33 5 -33 11 0 7 10 9 25 7 19 -4
25 -1 25 12 0 10 -9 20 -20 23 -13 3 -20 14 -20 29 0 21 -49 77 -104 118 -18
14 -19 13 -12 -13 4 -16 3 -26 -2 -23 -5 3 -6 -8 -4 -24 2 -17 8 -27 13 -24
14 8 29 -5 22 -21 -6 -18 -30 -20 -35 -3 -3 9 -6 9 -12 0 -4 -7 -2 -12 4 -12
6 0 9 -4 6 -9 -3 -4 3 -19 14 -31 11 -13 20 -30 20 -40 0 -9 5 -21 12 -28 8
-8 8 -15 -2 -27 -12 -14 -11 -18 1 -26 8 -5 10 -9 5 -9 -6 0 5 -16 24 -35 19
-19 29 -35 22 -35 -7 0 -12 -10 -12 -23 0 -25 60 -64 90 -59 11 2 26 -11 40
-35 l22 -37 13 24 c9 17 22 25 44 26 27 1 31 -1 31 -26 0 -19 7 -30 25 -38 14
-6 25 -18 25 -27 0 -9 -9 -15 -25 -15 -33 0 -34 -32 0 -54 31 -21 35 -20 35 4
0 11 5 20 10 20 6 0 10 -6 10 -14 0 -10 9 -14 28 -13 25 2 27 -1 26 -35 -1
-21 3 -38 8 -38 26 0 98 59 98 80 0 5 5 21 12 37 6 15 13 45 14 66 1 21 9 49
18 62 9 13 16 36 16 50 0 14 5 25 11 25 8 0 10 14 6 43 -3 23 0 81 6 127 18
116 5 181 -56 285 -38 67 -107 152 -107 134 0 -3 -28 0 -62 6 -35 7 -62 16
-61 21 1 5 -20 9 -45 9 -108 1 -205 16 -234 38 -24 18 -33 20 -58 10 -25 -9
-34 -8 -54 8 -30 24 -36 24 -36 -1z"/>
<path d="M4926 2376 c-9 -14 -14 -31 -11 -38 2 -7 -16 -28 -41 -46 -25 -19
-50 -44 -56 -58 -6 -13 -15 -24 -20 -24 -4 0 -8 -6 -8 -14 0 -8 -7 -16 -15
-20 -22 -8 -18 -26 5 -26 11 0 20 6 20 14 0 17 37 10 63 -12 9 -8 17 -10 17
-4 0 6 18 29 40 51 22 22 35 43 30 46 -15 9 -12 44 5 61 19 19 19 35 1 28 -21
-8 -32 17 -13 31 18 13 23 35 8 35 -5 0 -16 -11 -25 -24z"/>
</g>
</svg>
