<?xml version="1.0" standalone="no"?>
<!DOCTYPE svg PUBLIC "-//W3C//DTD SVG 20010904//EN"
 "http://www.w3.org/TR/2001/REC-SVG-20010904/DTD/svg10.dtd">
<svg version="1.0" xmlns="http://www.w3.org/2000/svg"
 width="2025.000000pt" height="2048.000000pt" viewBox="0 0 2025.000000 2048.000000"
 preserveAspectRatio="xMidYMid meet">
<metadata>
Created by potrace 1.16, written by Peter Selinger 2001-2019
</metadata>
<g transform="translate(0.000000,2048.000000) scale(0.100000,-0.100000)"
fill="#000000" stroke="none">
<path d="M15303 19943 c-69 -3 -84 -7 -93 -23 -8 -15 -23 -20 -73 -22 -47 -2
-62 -7 -62 -18 0 -10 -13 -17 -40 -20 -26 -3 -40 -10 -40 -20 0 -8 -17 -18
-43 -25 -24 -5 -40 -13 -36 -18 4 -4 -2 -7 -13 -7 -22 0 -47 -23 -36 -33 3 -4
-6 -7 -21 -7 -18 0 -29 -7 -36 -22 -8 -21 -9 -22 -10 -3 -1 17 -3 17 -12 -5
-5 -14 -11 -32 -13 -40 -1 -8 -9 -14 -18 -12 -11 2 -17 -6 -19 -25 -2 -20 -8
-27 -20 -25 -21 3 -24 -23 -5 -35 8 -4 16 -16 20 -25 3 -10 16 -18 28 -18 17
0 20 -4 15 -22 -3 -13 -6 -32 -7 -43 -1 -13 -4 -10 -8 10 -7 28 -8 26 -20 -27
-11 -52 -16 -58 -47 -70 -19 -6 -34 -18 -34 -24 0 -18 -17 -26 -40 -19 -11 4
-20 15 -20 26 0 10 -4 19 -10 19 -5 0 -10 -9 -10 -20 0 -17 -7 -20 -55 -22
-30 -1 -63 -2 -72 -2 -11 -1 -19 8 -21 22 -2 12 -10 22 -18 22 -19 0 -14 -48
6 -60 8 -5 11 -12 7 -17 -4 -4 -16 -2 -25 4 -16 9 -18 7 -16 -17 1 -16 5 -33
8 -38 3 -6 -3 -21 -14 -33 l-21 -24 3 42 c1 24 -3 48 -9 54 -13 13 -37 1 -39
-18 -1 -7 -2 -22 -2 -33 -1 -12 -9 -20 -21 -20 -10 0 -21 -9 -24 -20 -3 -11
-12 -20 -21 -20 -9 0 -16 -8 -16 -20 0 -13 -7 -20 -19 -20 -13 0 -21 -8 -23
-22 -2 -15 -9 -22 -21 -22 -13 1 -19 -8 -23 -36 -4 -26 -11 -37 -19 -34 -17 7
-24 -6 -27 -46 -2 -22 -9 -35 -20 -38 -16 -4 -24 -34 -19 -65 1 -5 -7 -11 -18
-14 -14 -3 -22 -17 -26 -44 -4 -22 -12 -39 -20 -39 -8 0 -16 -17 -20 -40 -4
-22 -12 -40 -20 -40 -13 0 -25 -43 -25 -91 0 -18 -5 -29 -14 -29 -14 0 -26
-41 -26 -94 0 -34 -12 -60 -26 -54 -5 1 -10 -18 -12 -44 -3 -39 -7 -47 -25
-50 -12 -2 -23 -10 -24 -18 -1 -8 -5 -46 -8 -84 -4 -43 -10 -64 -15 -56 -6 10
-10 8 -14 -11 -8 -31 -14 -99 -17 -169 -1 -30 -3 -47 -6 -37 -9 36 -23 15 -23
-35 0 -67 -9 -98 -26 -98 -10 0 -14 -14 -14 -47 0 -27 -3 -93 -7 -148 -6 -91
-8 -97 -18 -71 -11 26 -14 8 -20 -135 -7 -138 -10 -158 -19 -129 -9 31 -11 24
-18 -75 -4 -60 -8 -117 -9 -125 -1 -8 -7 -22 -14 -30 -7 -8 -16 -44 -20 -80
-4 -36 -11 -72 -16 -81 -4 -9 -17 -47 -28 -85 -29 -104 -63 -194 -72 -194 -5
0 -9 -8 -9 -17 0 -10 -11 -36 -25 -58 -13 -22 -25 -50 -25 -62 0 -13 -4 -23
-8 -23 -10 0 -32 -45 -32 -65 0 -8 7 -15 15 -15 17 0 19 -13 6 -58 -8 -25 -7
-32 5 -32 8 0 14 -5 14 -11 0 -6 -6 -9 -14 -6 -10 4 -16 -2 -18 -21 -2 -17
-11 -28 -24 -32 -17 -4 -21 -14 -23 -65 -3 -73 -8 -95 -25 -95 -9 0 -16 -22
-21 -62 -4 -35 -9 -57 -12 -50 -6 16 -23 6 -23 -14 0 -8 -8 -27 -18 -42 -62
-90 -89 -148 -85 -178 4 -25 1 -32 -16 -37 -12 -3 -21 -13 -21 -24 0 -27 -10
-34 -31 -22 -21 11 -25 -1 -7 -19 9 -9 9 -12 -3 -13 -41 -3 -79 -18 -79 -30 0
-11 -60 -69 -72 -69 -5 0 -6 -5 -3 -10 9 -14 -22 -61 -37 -57 -7 1 -12 -7 -13
-18 0 -13 -8 -21 -22 -23 -15 -2 -23 -10 -23 -23 0 -12 -7 -19 -20 -19 -13 0
-20 -7 -20 -20 0 -11 -4 -21 -10 -21 -5 -1 -16 -2 -22 -3 -7 0 -13 -7 -12 -13
3 -35 4 -38 15 -23 8 12 9 11 6 -5 -2 -11 -9 -19 -15 -18 -7 2 -12 -2 -12 -7
0 -6 -8 -10 -17 -8 -12 2 -19 -4 -21 -19 -2 -15 -10 -23 -23 -23 -13 0 -20 -8
-21 -22 -1 -24 -3 -54 -6 -99 -1 -17 -9 -29 -22 -32 -13 -3 -18 -10 -14 -21 3
-9 1 -16 -4 -16 -6 0 -13 -8 -16 -17 -3 -10 -4 -4 -2 14 4 51 -11 29 -18 -27
-5 -40 -10 -50 -24 -48 -12 2 -18 -5 -20 -25 -3 -22 -8 -27 -25 -25 -14 2 -21
-2 -19 -10 1 -7 -9 -17 -23 -22 -15 -6 -25 -17 -25 -30 0 -13 -7 -20 -20 -20
-11 0 -19 -3 -19 -7 4 -23 -3 -33 -21 -33 -13 0 -20 -7 -20 -20 0 -11 -6 -20
-13 -20 -8 0 -19 -11 -25 -25 -6 -14 -18 -25 -27 -25 -9 0 -15 -9 -15 -26 0
-17 -6 -28 -20 -31 -11 -3 -20 -14 -20 -25 0 -11 -9 -22 -20 -25 -14 -4 -22
-17 -26 -44 -4 -22 -12 -39 -18 -38 -26 3 -47 -2 -42 -10 3 -5 -3 -11 -14 -14
-12 -3 -20 -14 -20 -27 0 -13 -8 -24 -20 -27 -11 -3 -17 -9 -15 -14 3 -4 -3
-13 -13 -18 -11 -6 -24 -30 -31 -57 -7 -25 -14 -44 -17 -41 -9 9 -53 -39 -67
-72 -8 -18 -18 -32 -23 -31 -5 1 -13 -16 -19 -38 -6 -24 -15 -37 -22 -35 -7 3
-16 -4 -20 -14 -3 -10 -17 -29 -30 -42 -13 -13 -23 -33 -23 -43 0 -11 -9 -22
-19 -25 -11 -3 -21 -14 -24 -24 -3 -11 -11 -18 -18 -17 -7 2 -15 -10 -19 -27
-3 -16 -9 -28 -14 -27 -12 5 -26 -19 -26 -45 0 -16 -6 -23 -20 -23 -16 0 -20
-7 -20 -36 0 -27 -5 -37 -20 -41 -11 -3 -20 -14 -20 -24 0 -12 -7 -19 -20 -19
-13 0 -20 -7 -20 -20 0 -11 -4 -20 -10 -20 -11 0 -30 -32 -35 -61 -3 -14 2
-19 19 -19 12 0 26 4 32 9 16 16 74 1 74 -19 0 -13 -11 -20 -40 -25 -22 -4
-40 -11 -40 -16 0 -5 -11 -14 -25 -19 -14 -5 -25 -14 -25 -20 0 -6 -8 -20 -18
-31 -18 -19 -19 -19 -19 11 0 16 -2 33 -6 36 -3 4 -26 -14 -51 -40 -25 -25
-51 -46 -56 -46 -6 0 -15 -12 -20 -26 -6 -14 -14 -22 -20 -19 -5 3 -10 -1 -10
-10 0 -8 -8 -19 -17 -22 -10 -4 -24 -15 -31 -25 -7 -10 -18 -16 -23 -13 -5 4
-13 -5 -19 -19 -5 -14 -16 -26 -25 -26 -8 0 -15 -9 -15 -20 0 -13 -7 -20 -20
-20 -11 0 -23 -7 -27 -16 -3 -9 -17 -28 -29 -42 -13 -14 -24 -31 -24 -38 0
-20 47 -17 54 3 6 15 8 15 17 3 8 -13 10 -13 19 0 6 8 13 27 17 43 3 15 10 27
15 27 5 0 6 5 3 10 -8 13 5 13 25 0 13 -8 13 -10 -1 -10 -21 0 -31 -24 -21
-51 9 -24 3 -81 -7 -75 -15 9 -76 -11 -76 -24 0 -10 -13 -16 -42 -18 -34 -3
-43 -7 -43 -22 0 -12 8 -20 23 -22 32 -4 28 -32 -5 -36 -20 -2 -28 1 -28 12 0
16 -9 19 -72 20 -30 1 -38 -3 -38 -16 0 -17 19 -22 68 -21 13 1 15 -10 6 -44
-7 -26 -24 -31 -24 -8 0 11 -12 15 -49 15 -28 0 -52 -4 -56 -9 -8 -14 28 -31
64 -31 24 0 31 -4 31 -20 0 -18 -7 -20 -62 -20 -45 0 -59 -3 -48 -10 13 -8 12
-10 -3 -10 -10 0 -15 -4 -12 -10 3 -5 24 -10 46 -10 32 0 39 -3 39 -20 0 -16
-7 -20 -30 -20 -22 0 -28 4 -24 15 4 10 0 15 -11 15 -9 0 -13 -4 -10 -10 3 -5
1 -10 -5 -10 -7 0 -10 7 -6 15 4 11 -1 15 -17 15 -60 -1 -90 -29 -36 -36 71
-10 91 -16 82 -25 -5 -5 -33 -11 -62 -12 -44 -1 -55 -5 -61 -22 -5 -12 -15
-22 -24 -23 -9 -1 -23 -3 -31 -4 -30 -3 -10 -33 25 -38 52 -7 47 -34 -7 -38
-35 -3 -43 -7 -43 -23 0 -17 7 -19 56 -19 47 0 55 2 45 14 -9 10 -9 16 -1 21
18 11 24 -3 14 -33 -8 -23 -15 -27 -54 -30 -67 -4 -90 -11 -90 -27 0 -9 -10
-15 -25 -15 -20 0 -25 -5 -25 -25 0 -22 4 -25 40 -25 49 0 55 -24 9 -34 -48
-9 -57 -7 -55 11 0 10 -7 19 -16 21 -27 5 -23 -34 3 -41 35 -9 16 -32 -30 -35
-25 -2 -44 -9 -48 -18 -3 -8 -11 -14 -19 -14 -8 0 -14 -9 -14 -20 0 -12 7 -20
16 -20 9 0 18 9 21 20 4 16 14 20 49 20 37 0 44 -3 44 -19 0 -13 -8 -21 -22
-23 -18 -2 -24 -11 -28 -38 -3 -20 -11 -34 -18 -33 -10 3 -25 -16 -33 -42 -2
-5 -9 -9 -16 -7 -7 2 -14 -3 -15 -10 0 -7 -2 -17 -3 -23 -2 -5 -3 -18 -4 -27
-1 -11 -9 -18 -21 -18 -17 0 -20 -7 -20 -42 0 -44 -15 -43 -23 2 -3 18 -5 14
-6 -13 0 -21 -5 -36 -10 -33 -5 3 -12 -1 -15 -10 -8 -22 -26 -7 -26 22 0 28
-24 42 -44 25 -7 -6 -16 -8 -19 -4 -4 3 -7 -10 -7 -30 0 -26 4 -37 15 -37 8 0
15 -9 15 -20 0 -14 7 -20 21 -20 19 0 21 -4 15 -31 -3 -17 -6 -35 -6 -40 0 -5
-7 -9 -15 -9 -8 0 -15 8 -15 19 0 10 -9 21 -20 24 -11 3 -20 12 -20 21 0 9 -8
16 -20 16 -13 0 -20 -7 -20 -20 0 -13 7 -20 20 -20 13 0 20 -7 20 -18 0 -10 9
-24 20 -32 12 -8 20 -26 20 -42 0 -26 -3 -28 -40 -28 -33 0 -40 4 -40 19 0 15
-9 20 -45 23 -42 3 -45 1 -45 -20 0 -15 7 -26 20 -29 11 -3 20 -12 20 -19 0
-8 10 -14 25 -14 19 0 25 -5 25 -23 0 -20 -4 -22 -45 -19 -37 3 -45 8 -45 24
0 14 -6 19 -22 16 -19 -2 -23 -9 -23 -38 0 -33 2 -35 36 -38 27 -2 38 -9 42
-23 3 -13 14 -19 31 -19 19 0 26 -5 26 -20 0 -16 -7 -20 -30 -20 -23 0 -30 4
-30 20 0 11 -7 20 -15 20 -8 0 -15 -9 -15 -19 0 -19 -23 -35 -34 -24 -3 4 -6
15 -6 25 0 14 -8 18 -40 18 -34 0 -41 -4 -46 -24 -3 -14 -3 -30 1 -36 4 -7 -2
-14 -14 -17 -21 -5 -36 -40 -34 -78 1 -16 1 -16 -3 -2 -9 28 -24 19 -24 -14 0
-22 -6 -32 -19 -36 -14 -4 -21 -18 -26 -60 -5 -41 -10 -53 -21 -49 -7 3 -18
-3 -24 -14 -13 -24 -13 -70 0 -70 6 0 10 -8 10 -17 -1 -17 -1 -17 -11 0 -15
25 -38 21 -45 -8 -8 -34 1 -55 26 -55 11 0 20 -7 20 -15 0 -8 9 -15 19 -15 10
0 21 -6 23 -12 15 -40 -46 -55 -62 -15 -5 13 -9 16 -10 7 0 -8 -9 0 -19 19
-18 33 -19 34 -30 13 -6 -11 -11 -28 -11 -37 0 -9 -7 -23 -15 -32 -9 -8 -19
-28 -22 -44 -3 -16 -12 -29 -19 -29 -8 0 -14 -4 -14 -10 0 -5 0 -13 0 -17 0
-4 25 -5 55 -4 50 2 55 0 55 -18 0 -15 -6 -21 -22 -21 -38 0 -68 -12 -68 -25
0 -7 -16 -16 -35 -19 -33 -6 -35 -9 -32 -41 1 -20 7 -35 15 -35 6 0 11 6 10
13 -2 7 13 14 42 17 31 3 45 10 45 20 0 19 76 21 83 3 2 -8 -5 -13 -18 -13
-13 0 -24 -8 -27 -20 -4 -14 -17 -22 -44 -26 -21 -4 -40 -13 -43 -20 -3 -9
-21 -14 -46 -14 -33 0 -40 -3 -40 -20 0 -27 -18 -25 -23 3 -2 12 -5 3 -6 -20
0 -23 3 -44 8 -47 16 -10 71 6 71 20 0 8 10 14 24 14 13 0 31 3 40 6 12 4 16
0 16 -15 0 -18 -6 -21 -40 -21 -33 0 -40 -3 -40 -19 0 -15 -10 -21 -40 -26
-30 -5 -40 -11 -40 -26 0 -12 -7 -19 -20 -19 -11 0 -20 -5 -20 -10 0 -6 -12
-15 -26 -20 -14 -6 -24 -16 -21 -23 6 -18 52 -15 52 3 0 10 12 16 38 18 32 3
37 0 37 -17 0 -14 -6 -21 -20 -21 -13 0 -20 -7 -20 -20 0 -13 -7 -20 -20 -20
-11 0 -23 -7 -26 -15 -4 -8 -24 -18 -45 -21 -29 -5 -39 -11 -39 -25 0 -26 10
-29 73 -22 39 4 57 10 57 19 0 8 9 14 20 14 11 0 20 -7 20 -15 0 -8 -9 -15
-20 -15 -13 0 -20 -7 -20 -19 0 -16 -8 -20 -42 -23 -35 -2 -42 -6 -40 -20 2
-14 -4 -18 -27 -18 -24 0 -32 -5 -37 -25 -3 -14 -11 -22 -16 -19 -6 4 -8 -2
-6 -12 1 -9 16 -21 32 -25 25 -7 29 -5 39 22 7 18 19 29 32 30 17 1 16 2 -5 9
-42 12 2 23 46 11 20 -6 41 -8 46 -5 4 3 8 0 8 -5 0 -6 -8 -12 -17 -12 -10 -1
-25 -2 -33 -3 -8 0 -16 -11 -18 -23 -3 -17 -10 -23 -29 -23 -16 0 -27 -7 -30
-20 -3 -11 -9 -18 -13 -15 -5 3 -11 1 -15 -5 -3 -5 -16 -10 -28 -11 -21 0 -21
-1 -2 -8 18 -7 17 -8 -7 -14 -41 -11 -27 -45 20 -49 21 -2 37 -9 39 -18 4 -13
3 -13 -6 0 -10 13 -13 13 -22 -2 -13 -23 -25 -23 -46 2 -22 26 -33 26 -26 0 3
-11 12 -20 19 -20 8 0 14 -9 14 -21 0 -16 -5 -20 -27 -17 -16 2 -29 9 -29 16
-3 26 -6 26 -13 2 -5 -14 -3 -31 3 -39 8 -11 8 -13 -1 -7 -9 5 -13 0 -14 -16
0 -13 -2 -36 -3 -53 -1 -16 -3 -45 -4 -62 -1 -18 -7 -33 -13 -33 -6 0 -8 7 -4
18 5 14 4 15 -7 4 -8 -8 -14 -45 -16 -97 -3 -72 -7 -84 -23 -88 -17 -5 -19
-16 -20 -129 0 -123 -7 -162 -24 -156 -6 2 -11 -113 -13 -303 -3 -267 -1 -307
12 -305 8 0 15 -3 15 -9 0 -5 -7 -9 -15 -7 -11 2 -14 -12 -14 -71 0 -74 0 -74
25 -69 14 2 25 9 25 14 0 5 5 6 10 3 6 -3 10 -15 10 -27 0 -18 -4 -19 -35 -14
l-36 7 3 -88 c3 -96 -2 -90 63 -80 5 1 11 -8 13 -20 2 -16 -3 -22 -20 -25 -13
-2 -22 -9 -20 -16 1 -6 -7 -12 -19 -12 -18 0 -20 -5 -17 -42 2 -31 8 -44 21
-46 12 -2 17 3 17 17 0 15 6 21 21 21 16 0 20 -5 17 -22 -2 -13 -9 -22 -16
-20 -6 1 -12 -2 -12 -8 0 -5 6 -10 13 -11 6 0 1 -5 -13 -11 -14 -6 -29 -10
-33 -9 -5 1 -7 -18 -5 -41 3 -47 17 -56 33 -20 5 12 16 22 23 22 8 0 16 9 19
21 4 12 11 18 20 15 8 -3 16 -6 17 -6 1 0 1 -13 -2 -30 -5 -32 -28 -40 -50
-18 -9 9 -12 9 -12 0 0 -7 5 -12 10 -12 20 0 10 -39 -12 -46 -43 -13 -48 -27
-41 -111 6 -76 25 -122 49 -123 7 0 14 9 17 20 3 11 12 20 21 20 23 0 20 -37
-4 -43 -15 -4 -20 -14 -20 -41 0 -32 3 -36 25 -36 16 0 25 6 25 15 0 15 21 21
32 9 11 -10 -8 -59 -23 -59 -8 0 -15 -10 -17 -23 -2 -14 -10 -22 -23 -22 -13
0 -19 -7 -19 -21 0 -14 -5 -19 -17 -17 -24 4 -26 83 -3 83 8 0 15 6 14 13 -4
45 -4 47 -13 34 -6 -10 -10 -8 -16 10 -4 12 -7 26 -6 31 1 4 -3 7 -9 7 -9 0
-14 -16 -13 -46 3 -110 15 -409 19 -470 6 -74 8 -81 25 -77 13 4 19 0 19 -12
0 -12 -6 -16 -20 -12 -20 5 -21 2 -18 -121 3 -104 6 -127 18 -128 43 -3 50 -5
50 -15 0 -5 -5 -7 -10 -4 -6 4 -17 1 -25 -5 -8 -7 -16 -9 -16 -4 -1 5 -4 -7
-8 -26 -3 -19 -3 -100 1 -180 4 -80 9 -550 12 -1045 3 -495 11 -981 17 -1080
7 -124 8 -188 1 -205 -6 -14 -11 -19 -11 -11 -1 9 -9 6 -24 -10 -13 -13 -51
-48 -85 -77 -42 -37 -59 -58 -56 -70 4 -11 3 -13 -3 -5 -10 14 -117 -73 -107
-88 3 -5 -2 -9 -10 -9 -8 0 -24 -11 -35 -26 -11 -14 -23 -24 -26 -24 -4 1 -49
-38 -101 -87 -53 -48 -99 -89 -104 -91 -4 -2 -41 -35 -81 -75 -70 -69 -186
-173 -212 -189 -9 -6 -8 -11 3 -19 13 -9 13 -10 -2 -5 -24 7 -139 -99 -131
-122 4 -14 3 -14 -5 -3 -10 14 -23 5 -163 -130 -15 -14 -42 -38 -61 -54 -18
-15 -73 -64 -122 -109 -48 -44 -93 -84 -100 -88 -6 -3 -45 -39 -87 -80 -41
-40 -113 -107 -159 -148 -80 -71 -107 -95 -259 -235 -71 -65 -126 -116 -170
-155 -15 -14 -67 -61 -116 -105 -48 -44 -91 -81 -95 -83 -4 -2 -41 -35 -82
-75 -40 -40 -96 -92 -124 -117 -151 -133 -223 -204 -217 -213 3 -6 1 -7 -6 -3
-7 5 -25 -5 -44 -24 -18 -18 -65 -62 -106 -98 -41 -37 -123 -112 -183 -167
-60 -55 -116 -101 -124 -103 -8 -2 -14 -7 -14 -12 0 -11 -8 -19 -225 -214 -22
-20 -44 -36 -49 -36 -4 0 -5 -7 -2 -16 3 -8 2 -13 -3 -10 -5 3 -35 -18 -67
-48 -190 -172 -239 -220 -237 -227 2 -5 -3 -9 -11 -9 -8 0 -22 -10 -31 -22 -8
-13 -18 -22 -21 -20 -10 5 -184 -163 -180 -174 3 -7 -3 -10 -12 -7 -11 3 -45
-23 -98 -74 -44 -43 -118 -112 -164 -153 -160 -143 -189 -173 -183 -183 3 -6
1 -7 -6 -3 -6 4 -18 1 -25 -6 -8 -7 -38 -35 -68 -63 -29 -27 -101 -93 -160
-145 l-107 -95 186 -3 186 -2 34 26 c49 38 118 107 116 116 -2 4 1 7 6 5 5 -1
49 34 97 78 48 44 113 103 143 131 97 88 138 124 143 124 3 0 40 35 84 78 43
42 98 93 120 112 109 91 223 203 217 213 -3 6 -1 7 6 3 6 -4 24 5 40 21 16 15
61 57 101 93 79 70 163 147 251 228 31 29 58 52 61 52 2 0 40 35 84 78 87 83
159 150 273 252 40 36 86 76 101 90 126 115 201 183 253 230 33 30 84 76 111
102 28 26 57 48 64 48 12 0 16 12 13 40 -1 11 0 12 6 3 6 -9 28 7 74 50 79 75
173 161 263 241 36 32 63 63 59 69 -3 6 -1 7 5 3 13 -8 74 43 66 56 -3 5 -1 7
3 6 13 -4 193 155 187 164 -3 5 -2 7 3 6 8 -3 26 13 137 114 28 26 54 48 57
48 3 0 41 35 85 78 43 42 109 104 146 136 37 32 66 62 63 65 -2 4 1 13 7 21 8
12 9 12 4 -3 -8 -25 2 -21 38 16 18 17 54 51 80 74 26 24 45 47 42 52 -3 5 0
8 8 7 13 -1 59 39 288 249 60 55 113 101 118 103 4 2 43 38 87 80 43 42 114
109 157 147 120 106 181 168 178 177 -1 5 6 8 15 6 15 -2 19 6 24 47 4 36 6
41 7 17 1 -18 6 -40 11 -50 6 -9 15 -73 21 -142 6 -69 15 -172 20 -230 5 -58
16 -152 24 -210 8 -58 20 -143 25 -190 12 -105 57 -432 70 -508 6 -32 15 -99
22 -150 7 -53 17 -96 24 -98 7 -3 10 -15 8 -27 -6 -31 13 -177 25 -189 6 -6
45 -5 108 2 55 6 151 17 214 23 l115 12 17 50 c9 28 31 104 48 170 78 296 102
375 114 376 50 5 358 19 621 29 l320 11 52 35 c29 18 55 34 57 34 3 0 31 18
63 39 56 37 65 40 160 46 56 4 145 4 197 0 l96 -7 0 -64 c0 -51 -3 -62 -15
-58 -16 7 -21 -11 -30 -95 -5 -54 -15 -82 -15 -45 0 16 -2 17 -10 4 -11 -17
-14 -100 -4 -100 4 0 28 19 53 42 178 162 238 216 326 294 55 48 120 106 144
129 50 46 48 44 162 145 46 41 89 79 95 85 6 5 48 44 94 85 46 41 104 94 128
118 25 24 51 46 58 50 6 4 52 43 100 88 49 44 109 98 134 120 25 21 47 42 50
45 3 3 52 47 110 99 58 51 132 118 165 149 52 48 112 101 211 188 12 10 55 49
96 86 42 37 85 76 96 85 23 20 178 160 201 182 9 8 57 51 106 94 50 44 128
115 175 157 47 43 157 142 245 221 88 78 165 147 171 153 6 5 44 39 84 75 41
36 83 74 94 85 12 11 74 66 138 123 64 57 118 106 120 110 2 4 26 25 53 47 28
22 66 56 86 75 48 45 87 81 179 160 92 80 77 67 195 175 54 50 106 97 115 105
9 8 46 41 81 72 35 31 75 66 89 78 13 12 48 42 76 68 62 57 193 176 253 228
74 65 378 340 391 354 3 3 39 34 80 70 41 35 82 71 90 80 8 8 33 30 55 49 22
19 81 71 130 116 50 45 110 99 135 121 25 21 52 46 60 54 8 9 49 45 90 80 40
36 101 90 135 122 33 31 85 77 115 104 30 26 93 82 140 124 144 130 268 241
374 333 55 49 106 94 111 100 6 7 48 46 95 87 90 80 156 138 174 155 6 6 56
51 111 100 55 49 102 92 105 95 3 3 43 39 90 80 46 41 91 82 100 90 24 23 173
157 295 265 131 117 269 241 345 310 30 28 78 70 105 94 28 25 82 74 120 110
39 36 86 79 105 95 19 15 55 47 80 70 25 22 68 61 95 85 28 25 92 83 144 130
52 47 124 112 160 144 36 32 81 73 98 90 l33 32 0 633 c0 555 -2 632 -15 632
-8 0 -15 9 -15 20 0 11 7 20 15 20 12 0 15 13 15 60 0 46 -3 60 -14 60 -21 0
-30 20 -17 33 6 6 11 20 11 31 0 17 2 18 10 6 6 -10 10 78 10 258 0 175 -4
272 -10 272 -5 0 -10 5 -10 11 0 5 5 7 10 4 6 -4 10 8 10 29 0 19 -6 36 -12
39 -10 4 -10 7 0 18 9 10 12 145 12 605 l0 592 -69 80 c-38 44 -95 120 -127
169 -31 48 -61 91 -67 94 -5 4 -14 51 -19 105 -7 74 -14 104 -29 120 -10 11
-19 25 -19 31 0 6 -3 13 -7 15 -13 5 -116 129 -148 177 -16 24 -35 45 -42 48
-7 3 -13 12 -13 19 0 8 -11 19 -26 24 -20 8 -23 14 -16 27 7 11 5 24 -7 43
-27 43 -58 80 -69 80 -19 0 -20 49 -1 66 22 20 130 28 141 10 5 -7 8 -5 8 7 0
9 -7 17 -16 17 -8 0 -13 4 -10 9 7 11 -17 21 -48 21 -28 0 -56 29 -56 57 0 12
-6 21 -12 20 -50 -2 -69 4 -66 19 2 11 -5 18 -18 19 -12 1 -30 10 -40 20 -17
17 -17 18 -2 12 10 -3 20 -2 24 4 3 6 12 8 20 5 10 -4 14 2 14 20 0 20 -4 25
-16 20 -10 -4 -18 1 -21 13 -3 12 -15 21 -32 23 -18 2 -25 8 -23 21 2 13 -4
17 -26 17 -16 0 -45 3 -63 7 -33 7 -33 7 -9 14 24 7 24 7 3 8 -16 1 -23 7 -23
21 0 25 -29 38 -41 19 -6 -9 -7 -2 -3 19 l7 32 -43 0 c-29 0 -47 6 -56 18 -13
16 -13 16 -14 -3 -1 -18 -2 -18 -10 3 -5 12 -18 22 -29 22 -10 0 -21 9 -24 20
-3 12 -14 20 -26 20 -12 0 -21 6 -21 15 0 8 -5 15 -11 15 -6 0 -9 -6 -6 -14 4
-10 0 -12 -19 -7 -32 8 -31 25 3 27 34 2 87 22 61 23 -10 1 -18 6 -18 11 0 6
-22 10 -49 10 -40 0 -53 4 -65 22 -9 12 -16 31 -16 41 0 13 -5 17 -19 12 -10
-3 -24 1 -31 10 -9 11 -9 15 -1 15 7 0 9 5 6 10 -11 18 -24 10 -28 -17 -4 -27
-4 -27 -7 5 -1 17 -3 38 -4 45 0 6 -11 16 -23 22 -13 5 -23 18 -23 27 0 10 -9
27 -20 38 -11 11 -20 24 -20 30 0 5 -6 13 -13 17 -6 4 -19 22 -27 38 -8 17
-21 34 -27 38 -7 4 -13 13 -13 19 0 5 -11 23 -25 40 -14 16 -25 36 -25 44 0 8
-7 14 -15 14 -8 0 -17 11 -21 25 -3 13 -13 27 -22 30 -10 3 -18 17 -19 32 0
16 -10 34 -22 42 -12 7 -21 20 -21 28 0 8 -10 24 -22 37 -13 13 -33 43 -45 67
-12 24 -36 75 -55 112 -60 122 -69 140 -84 154 -8 8 -14 21 -14 28 0 8 -6 18
-14 22 -7 4 -18 22 -23 38 -6 17 -15 29 -21 28 -5 -1 -13 13 -16 31 -3 18 -14
41 -24 52 -29 34 -112 192 -112 215 0 11 -4 21 -53 129 -13 30 -28 66 -32 80
-4 14 -11 27 -14 30 -11 8 -121 235 -121 248 0 7 -4 12 -9 12 -5 0 -13 10 -17
23 -3 12 -28 67 -54 122 -26 55 -64 141 -84 190 -52 124 -85 202 -107 252 -11
23 -19 49 -19 57 0 8 -4 17 -9 20 -4 3 -18 33 -30 66 -12 33 -26 60 -32 60 -5
0 -9 7 -9 16 0 9 -16 51 -36 93 -20 42 -50 105 -66 141 -17 36 -41 88 -54 115
-13 28 -24 55 -24 61 0 7 -6 17 -14 23 -8 7 -17 23 -20 37 -4 13 -15 33 -26
44 -11 11 -20 29 -20 40 0 25 -17 26 -23 3 -2 -10 -8 1 -12 25 -5 28 -12 41
-20 38 -17 -6 -35 13 -35 37 0 13 -5 17 -15 13 -8 -3 -15 -1 -15 4 0 6 4 10
10 10 5 0 -1 10 -13 23 -12 12 -25 18 -28 14 -7 -10 -19 17 -19 44 0 12 -7 19
-19 19 -14 0 -21 8 -23 28 -2 16 -8 26 -16 24 -8 -1 -11 2 -8 7 4 5 -28 44
-69 87 -41 43 -75 81 -75 86 0 4 -9 8 -20 8 -11 0 -18 5 -15 13 6 16 -21 51
-33 43 -6 -3 -15 8 -21 25 -6 17 -15 28 -21 24 -5 -3 -13 0 -16 9 -3 8 -11 13
-19 10 -7 -3 -15 4 -18 15 -3 13 -13 21 -26 21 -12 0 -21 6 -21 15 0 8 -5 15
-12 15 -6 0 -26 11 -44 25 -18 14 -40 25 -48 25 -9 0 -16 6 -16 14 0 9 -18 16
-52 20 -37 5 -48 10 -38 16 8 6 13 10 10 10 -82 3 -180 45 -180 77 0 7 -4 13
-8 13 -4 0 -25 16 -46 35 -21 19 -47 35 -57 35 -10 0 -20 4 -24 10 -3 5 -13 6
-22 3 -12 -5 -15 -2 -10 9 7 20 -11 28 -60 28 -27 0 -34 3 -29 15 6 16 -4 19
-88 30 -30 4 -44 10 -37 15 8 5 9 10 3 14 -12 7 -466 14 -589 9z m351 -617
c-4 -9 10 -17 43 -26 26 -7 51 -13 56 -12 4 1 6 -1 6 -5 -3 -21 2 -33 12 -27
7 4 20 -4 30 -17 16 -20 20 -22 29 -9 8 13 10 12 10 -2 0 -10 7 -18 15 -18 9
0 20 -11 24 -24 5 -13 19 -26 32 -29 16 -4 20 -11 16 -26 -3 -14 1 -22 15 -27
12 -3 17 -12 14 -20 -4 -10 4 -16 23 -20 18 -4 31 -14 34 -26 3 -11 10 -17 15
-14 9 5 27 -39 24 -56 -1 -5 2 -8 8 -8 6 0 10 5 10 11 0 5 5 7 10 4 6 -4 8
-10 5 -15 -6 -9 18 -20 46 -20 10 0 19 -7 19 -15 0 -9 6 -12 15 -9 9 4 18 -2
24 -17 5 -13 10 -18 10 -11 1 20 28 14 34 -8 3 -11 11 -19 19 -18 7 2 13 -6
14 -17 1 -30 -9 -41 -17 -19 -7 17 -8 17 -8 -3 -1 -14 5 -23 14 -23 8 0 15 -9
15 -20 0 -28 20 -25 21 3 1 13 6 5 12 -21 7 -23 18 -46 25 -51 7 -4 14 -22 15
-39 2 -26 6 -32 25 -32 13 0 20 -4 17 -10 -3 -5 -1 -10 4 -10 6 0 11 -7 11
-15 0 -8 7 -15 16 -15 12 0 14 -7 9 -28 -8 -36 21 -64 61 -60 26 3 29 0 29
-27 0 -38 36 -100 47 -82 4 7 8 -7 8 -33 0 -29 7 -54 20 -70 11 -14 20 -31 20
-37 0 -7 7 -13 15 -13 10 0 15 -10 15 -26 0 -21 4 -25 19 -21 16 4 20 -3 26
-52 7 -57 20 -85 36 -75 5 3 9 -6 9 -20 0 -14 5 -49 12 -78 l12 -53 7 35 c5
27 7 18 8 -37 0 -41 5 -73 11 -73 6 0 10 -8 11 -17 0 -15 2 -15 9 2 6 14 8 -3
8 -50 -1 -38 -3 -58 -5 -42 -3 15 -11 27 -19 27 -13 0 -14 -26 -8 -197 4 -109
11 -199 15 -201 5 -2 9 -39 9 -83 0 -46 4 -79 10 -79 6 0 10 18 10 40 0 29 4
40 15 40 11 0 15 -11 15 -40 0 -22 5 -40 10 -40 6 0 11 -19 11 -42 1 -24 4
-33 6 -20 10 49 23 17 23 -55 0 -92 -7 -123 -26 -123 -8 0 -17 -7 -20 -15 -4
-8 -10 -13 -14 -10 -16 10 -20 -13 -13 -76 7 -62 8 -62 13 -24 5 36 7 32 14
-37 5 -43 5 -86 1 -95 -8 -17 -8 -17 -12 0 -11 43 -32 8 -35 -57 -1 -20 -5
-36 -9 -36 -11 0 -29 -59 -29 -96 0 -19 -4 -34 -10 -34 -5 0 -10 8 -10 18 0
14 -2 15 -10 2 -5 -8 -10 -34 -10 -57 0 -24 -4 -43 -9 -43 -17 0 -141 -135
-141 -153 0 -10 -10 -22 -22 -27 -13 -5 -51 -38 -86 -74 -35 -36 -72 -66 -82
-66 -10 0 -25 -8 -32 -18 -23 -32 -75 -62 -108 -62 -21 0 -38 -8 -55 -27 -17
-19 -25 -23 -25 -13 -1 9 -5 6 -10 -8 -5 -12 -17 -25 -26 -29 -21 -8 -54 -40
-54 -51 0 -16 -52 -53 -102 -72 -28 -11 -54 -23 -57 -27 -17 -23 -71 -41 -124
-41 -58 0 -117 -17 -117 -33 0 -5 -36 -9 -80 -9 -44 0 -80 -4 -80 -9 0 -5 -15
-9 -32 -9 -18 0 -37 -1 -43 -2 -5 -1 -12 -1 -15 0 -3 1 -16 3 -30 5 -49 6
-115 26 -121 37 -4 6 -30 13 -59 16 -46 4 -53 8 -62 33 -11 31 -23 37 -31 17
-3 -7 -6 -3 -6 8 -1 16 -10 23 -33 29 -29 6 -31 8 -13 15 18 8 17 9 -7 9 -16
1 -28 6 -28 11 0 6 -12 10 -26 10 -14 0 -23 4 -19 10 3 6 15 10 26 10 12 0 19
7 19 20 0 15 -7 20 -29 20 -17 0 -33 5 -36 10 -4 6 -10 8 -15 5 -13 -8 -40 6
-40 21 0 8 7 14 15 14 8 0 15 5 15 11 0 5 -4 8 -9 5 -5 -4 -7 3 -4 14 5 20
-12 29 -19 10 -2 -7 -17 -8 -43 -2 -30 6 -39 13 -37 25 2 9 -2 17 -8 17 -5 0
-10 6 -10 14 0 7 -9 16 -20 19 -11 3 -20 14 -20 25 0 11 -8 22 -19 25 -11 3
-21 17 -25 40 -4 23 -13 37 -26 40 -14 3 -20 14 -20 32 0 19 -4 26 -14 22 -11
-5 -16 7 -22 49 -3 30 -11 54 -16 54 -6 0 -8 -6 -5 -13 3 -8 1 -20 -3 -27 -5
-8 -11 9 -15 46 -9 88 -15 110 -24 95 -5 -7 -11 23 -15 71 -12 141 -17 170
-32 185 -8 8 -14 28 -14 44 0 27 -11 35 -42 30 -5 0 -8 29 -9 66 0 38 -3 62
-6 56 -2 -7 -9 -13 -14 -13 -13 0 -12 387 1 395 6 4 11 -16 12 -52 1 -47 2
-50 5 -18 3 22 10 43 16 47 6 4 10 23 9 43 -3 24 1 35 10 35 18 1 44 39 52 78
5 22 13 32 26 32 10 0 20 9 23 20 3 13 14 20 29 20 28 0 42 9 51 34 5 12 13
16 24 12 18 -7 56 21 47 35 -3 5 2 9 10 9 9 0 16 5 16 11 0 5 5 7 12 3 7 -4 8
-3 4 4 -4 6 3 21 15 33 17 17 23 19 30 8 5 -9 10 0 15 29 6 41 23 67 25 40 1
-7 7 10 14 37 6 28 17 49 22 48 6 -1 16 17 22 40 7 23 15 48 18 56 3 8 1 11
-5 7 -6 -3 -8 1 -6 11 3 10 1 59 -4 108 -8 85 -9 88 -19 55 l-11 -35 -1 32
c-1 47 -21 52 -23 6 l-1 -38 -7 45 c-6 39 -7 40 -8 13 -1 -18 -7 -33 -13 -33
-5 0 -7 -4 -4 -10 11 -18 -45 -23 -64 -6 -10 9 -32 16 -49 16 -21 0 -32 5 -32
14 0 7 -13 16 -30 20 -16 3 -30 10 -30 16 0 11 7 14 52 24 16 4 27 12 25 18
-1 7 9 14 23 16 56 8 78 66 32 83 -13 5 -20 14 -17 19 11 19 -14 22 -195 28
-43 2 -46 4 -44 30 2 47 4 52 16 49 8 -1 15 19 19 61 6 67 18 94 20 46 1 -29
1 -29 9 -4 4 14 9 45 9 70 1 25 4 62 7 83 5 30 9 35 20 26 11 -9 14 -8 13 7
-1 11 -1 38 -1 62 2 36 5 42 23 42 17 0 20 5 17 25 -6 29 5 40 50 50 18 4 31
9 28 12 -2 3 2 26 10 51 7 26 14 58 15 72 l1 25 8 -25 c7 -23 8 -22 9 11 2 63
20 88 71 94 66 9 70 12 70 43 0 35 22 42 126 42 35 0 64 4 64 10 0 5 22 12 49
16 48 6 91 37 91 64 0 6 7 22 16 35 16 25 16 25 190 25 142 0 172 -2 168 -14z
m3244 -3754 c3 -36 0 -41 -20 -44 -15 -2 -22 -9 -20 -20 2 -11 -5 -18 -20 -20
-15 -2 -24 -13 -30 -35 -5 -20 -15 -33 -24 -33 -9 0 -18 -9 -21 -20 -3 -11
-11 -20 -19 -20 -8 0 -14 -15 -16 -42 -2 -35 -7 -43 -23 -43 -11 0 -21 6 -21
13 -1 6 -2 17 -3 22 0 6 -8 10 -16 10 -8 0 -15 7 -15 16 0 10 -7 14 -22 12
-17 -2 -24 3 -26 20 -3 16 2 22 17 22 13 0 21 8 23 23 2 14 11 23 26 25 12 2
22 7 22 11 0 4 16 13 35 21 19 8 35 20 35 27 0 8 8 17 18 20 23 9 32 23 32 55
0 27 2 28 43 24 41 -4 42 -4 45 -44z m-2458 -18 c39 -16 40 -17 40 -68 0 -36
-3 -47 -10 -36 -6 10 -10 11 -10 3 0 -7 -7 -13 -15 -13 -11 0 -15 -11 -15 -40
0 -36 3 -40 25 -40 23 0 25 -4 25 -40 0 -22 -4 -40 -9 -40 -5 0 -24 -14 -41
-32 -29 -28 -31 -35 -25 -75 6 -39 4 -44 -19 -52 -21 -9 -25 -18 -31 -73 -4
-35 -2 -124 3 -198 l9 -135 2 134 c0 74 4 132 7 128 3 -3 8 -93 10 -199 2
-106 8 -213 13 -238 9 -44 9 -44 10 -10 1 27 4 31 11 20 18 -28 9 -117 -11
-104 -5 3 -9 -10 -9 -29 0 -32 3 -35 34 -41 22 -4 36 -13 39 -26 4 -16 14 -20
46 -20 27 0 40 -4 38 -12 -3 -17 43 -22 113 -12 48 7 51 8 25 14 -29 6 -28 6
14 12 24 4 78 6 120 5 59 -2 75 -5 73 -16 -5 -24 13 -27 133 -27 83 1 116 -2
120 -11 3 -9 -9 -13 -40 -13 -37 0 -45 -3 -45 -19 0 -20 -30 -30 -86 -27 -18
1 -31 0 -29 -3 3 -2 0 -12 -5 -22 -7 -12 -24 -19 -53 -21 -25 -2 -41 -8 -40
-15 2 -7 -19 -14 -55 -18 -95 -10 -111 -15 -106 -30 4 -10 -7 -15 -43 -17 -29
-2 -47 -7 -46 -14 1 -7 -23 -14 -62 -19 -45 -4 -65 -11 -65 -20 0 -9 -17 -16
-47 -20 -27 -3 -55 -7 -63 -8 -8 -1 -15 -9 -15 -17 0 -11 -16 -17 -58 -21 -55
-6 -91 -19 -52 -19 10 0 15 -3 11 -7 -4 -4 -41 -10 -84 -13 -59 -4 -77 -8 -77
-20 0 -11 -14 -16 -55 -18 -30 -2 -59 -9 -65 -16 -5 -7 -32 -15 -58 -18 -54
-6 -68 -15 -47 -28 11 -7 6 -10 -20 -10 -49 0 -116 -20 -101 -29 15 -10 -44
-21 -108 -21 -36 0 -41 -2 -32 -14 10 -12 5 -15 -29 -20 -22 -3 -58 -9 -79
-12 -22 -3 -42 -12 -45 -20 -3 -9 -20 -14 -48 -14 -24 0 -53 -6 -64 -14 -11
-8 -38 -16 -60 -18 -27 -2 -39 -8 -39 -18 0 -9 -11 -16 -30 -18 -69 -6 -95
-13 -95 -27 0 -11 -13 -15 -54 -15 -77 0 -118 -10 -112 -26 4 -11 -6 -14 -39
-14 -34 0 -43 3 -39 14 3 9 -6 17 -26 24 -16 6 -29 17 -28 24 2 7 -7 14 -19
16 -14 2 -23 10 -23 21 0 14 -11 20 -42 25 -32 5 -39 9 -28 16 12 8 11 10 -5
11 -11 1 -26 2 -32 2 -12 -1 -18 31 -14 65 1 6 -3 13 -9 13 -34 4 -31 1 -29
37 0 9 3 12 5 6 3 -7 23 -7 67 0 52 8 58 11 37 18 -16 5 -5 6 33 4 35 -3 57
-1 57 6 0 6 15 8 38 6 36 -5 92 8 102 22 3 4 43 11 90 14 47 4 98 9 115 12 38
8 82 41 88 66 3 11 10 17 16 13 6 -3 11 -1 11 4 0 6 -8 11 -17 12 -14 0 -15 2
-3 6 8 2 22 7 30 10 8 4 20 7 25 7 6 1 11 11 13 24 2 14 10 22 22 22 10 0 20
4 22 8 4 12 68 23 68 12 0 -4 -8 -11 -17 -13 -17 -4 -17 -5 0 -6 10 0 19 5 21
12 25 88 30 97 48 91 14 -4 18 0 19 18 1 17 3 18 6 6 6 -25 23 -23 23 2 0 11
7 23 16 27 10 4 12 8 5 12 -15 10 24 51 48 51 15 0 19 11 24 66 4 60 11 83 21
73 2 -2 6 -33 9 -68 3 -35 10 -68 15 -73 17 -17 32 1 32 36 0 24 7 38 23 49
19 12 22 21 19 58 -3 24 -11 48 -18 54 -7 5 -15 27 -17 49 -3 28 -10 42 -27
51 l-23 12 26 18 27 17 0 172 c0 94 -5 189 -10 211 -6 22 -13 91 -17 153 -5
100 -8 112 -25 112 -14 0 -18 8 -18 40 0 30 4 40 16 40 11 0 14 6 9 23 -4 14
-3 17 3 9 11 -17 82 12 82 33 0 9 9 15 22 15 12 0 30 7 40 17 17 15 18 15 18
0 0 -25 19 -21 42 8 18 23 25 25 109 25 l89 0 0 32 0 31 124 -7 c98 -5 130 -3
157 9 19 8 35 14 36 15 2 0 21 -7 43 -16z m1800 -1023 c14 -3 25 -13 25 -21 0
-8 7 -14 17 -12 11 2 18 -5 20 -20 2 -13 8 -23 15 -23 6 0 15 -3 19 -7 4 -5 1
-8 -6 -8 -10 0 -10 -3 2 -12 9 -7 18 -22 20 -33 2 -11 10 -20 18 -20 8 0 16
-9 19 -20 2 -11 8 -23 15 -27 8 -6 7 -8 -1 -8 -7 0 -13 -4 -13 -10 0 -5 9 -10
20 -10 13 0 20 -7 20 -19 0 -29 17 -35 30 -11 17 32 9 64 -17 68 -28 4 -30 32
-3 39 10 3 22 14 26 25 5 18 13 20 60 16 30 -3 60 -11 67 -18 10 -10 9 -12 -5
-7 -10 4 -18 2 -18 -3 0 -6 -14 -10 -31 -10 -24 0 -30 -4 -27 -17 4 -22 53
-25 53 -4 0 9 13 16 35 18 47 5 62 11 55 22 -8 14 15 25 28 12 7 -7 14 -7 24
0 10 9 13 7 13 -9 0 -15 -5 -20 -15 -16 -11 5 -15 -1 -15 -19 0 -23 5 -26 38
-29 33 -3 37 -6 40 -35 3 -29 1 -31 -37 -38 -26 -4 -42 -13 -46 -25 -3 -11
-20 -21 -40 -24 -20 -4 -35 -13 -35 -21 0 -10 -15 -15 -47 -17 l-48 -3 0 -40
c0 -36 2 -40 23 -37 20 3 22 -1 22 -42 0 -25 -1 -49 -2 -52 -2 -4 7 -10 20
-15 14 -5 22 -17 23 -34 1 -14 3 -29 4 -35 1 -5 3 -14 4 -20 0 -6 7 -9 14 -8
8 2 13 -15 15 -54 3 -51 6 -58 24 -58 14 0 18 -5 15 -15 -4 -8 -2 -17 3 -20 6
-4 10 -14 10 -24 0 -11 9 -21 21 -24 12 -3 18 -10 14 -17 -4 -7 1 -14 13 -17
15 -3 23 -16 27 -44 5 -29 11 -39 23 -37 13 2 18 -6 20 -36 2 -28 9 -40 23
-43 11 -3 19 -10 18 -17 -5 -43 2 -66 21 -66 15 0 20 -7 20 -24 0 -14 -5 -28
-10 -31 -7 -4 -9 2 -4 19 5 20 3 25 -8 21 -8 -3 -13 -16 -12 -28 1 -12 3 -26
3 -30 1 -5 5 -6 11 -2 15 9 60 -6 60 -21 0 -8 -6 -13 -12 -11 -9 1 -13 -15
-12 -58 0 -45 4 -60 15 -60 9 0 15 -13 17 -34 2 -22 10 -35 22 -38 10 -3 20
-17 23 -33 4 -19 12 -27 24 -26 10 0 17 -5 15 -12 -1 -8 7 -16 18 -19 17 -4
20 -14 20 -57 0 -64 9 -96 25 -96 17 0 23 -19 20 -53 -3 -21 2 -30 18 -36 20
-8 23 -17 25 -77 4 -76 8 -88 28 -80 10 4 14 -4 14 -30 0 -32 2 -34 21 -24 18
10 20 9 17 -7 -2 -10 -11 -17 -21 -17 -13 1 -17 -6 -17 -32 0 -42 20 -90 31
-72 4 7 10 -3 14 -25 5 -27 12 -37 26 -37 17 0 19 -8 19 -77 0 -43 5 -85 10
-93 5 -8 10 -10 10 -5 0 6 5 3 10 -5 9 -14 14 -100 6 -100 -23 0 -36 17 -36
45 0 23 -5 34 -19 38 -11 3 -21 17 -25 40 -4 22 -13 37 -25 40 -11 2 -21 18
-25 38 -5 24 -9 30 -15 21 -14 -23 -21 12 -21 104 0 77 -2 84 -20 84 -18 0
-27 21 -21 53 1 5 -7 11 -18 14 -20 5 -31 40 -31 99 0 19 -4 34 -10 34 -5 0
-7 -7 -4 -15 4 -8 4 -15 1 -15 -16 0 -13 33 4 49 17 15 20 29 17 77 -2 49 -6
59 -20 56 -12 -2 -18 6 -20 25 -2 20 -8 27 -20 25 -12 -2 -19 7 -24 33 -4 25
-11 35 -23 33 -12 -2 -17 8 -21 45 -3 26 -8 47 -12 47 -5 0 -12 0 -18 0 -5 0
-10 25 -10 56 0 52 -1 55 -22 52 -20 -3 -23 2 -26 39 -2 31 -7 41 -17 37 -17
-7 -24 18 -27 101 -2 46 -7 60 -18 60 -8 0 -16 10 -18 23 -2 13 -10 22 -22 22
-12 0 -20 10 -24 34 -4 22 -13 36 -26 39 -15 4 -20 14 -20 40 0 26 -5 36 -20
40 -15 4 -20 14 -20 40 0 26 -5 36 -17 39 -10 2 -18 10 -19 18 -1 8 -2 25 -2
38 -2 15 -8 22 -22 22 -17 0 -20 7 -20 40 0 29 -4 40 -15 40 -8 0 -15 -5 -15
-12 0 -27 -12 4 -18 49 -5 33 -12 48 -22 48 -10 0 -16 13 -18 39 -2 28 -9 40
-23 43 -13 4 -19 14 -19 35 0 21 -6 31 -19 35 -11 3 -21 15 -23 27 -2 11 -9
20 -15 19 -9 -2 -14 8 -28 60 -2 4 -3 19 -4 33 -1 20 -5 25 -17 20 -11 -4 -18
1 -21 14 -3 11 -11 20 -18 20 -7 0 -16 11 -19 24 -3 13 -14 26 -24 28 -11 3
-18 16 -20 38 -3 41 -9 51 -26 44 -14 -5 -26 34 -26 87 0 31 13 35 70 20z
m1414 -1566 c-4 -8 3 -15 18 -17 13 -2 23 -10 23 -18 0 -8 -6 -14 -12 -12 -7
1 -13 -6 -13 -17 0 -12 9 -20 24 -23 19 -4 22 -1 18 14 -3 13 1 18 16 18 11 0
23 6 26 13 3 6 3 0 0 -15 -4 -17 -2 -28 5 -28 6 0 11 10 12 23 1 21 1 21 8 -3
5 -18 15 -26 36 -28 21 -3 25 -6 14 -13 -10 -6 -10 -9 -1 -9 6 0 12 -4 12 -8
0 -4 -12 -8 -27 -7 -22 0 -29 -5 -31 -23 -2 -16 -9 -22 -20 -20 -9 2 -16 11
-14 20 2 14 -8 16 -63 17 -68 0 -69 0 -65 -51 1 -23 -3 -28 -21 -28 -20 0 -21
4 -15 40 4 29 3 40 -6 41 -7 1 -20 2 -27 3 -13 1 -17 20 -12 66 1 13 41 13 41
-1 0 -5 5 -7 10 -4 6 3 10 1 10 -4 0 -23 15 -10 16 14 1 14 5 33 10 43 7 16
10 25 13 38 0 3 5 3 11 -1 5 -3 7 -12 4 -20z m-902 -55 c175 0 189 -1 186 -17
-3 -16 -20 -18 -163 -20 -88 -2 -184 0 -212 3 -49 5 -52 7 -42 25 6 13 17 18
26 15 8 -3 100 -6 205 -6z m988 -335 c0 -48 -2 -55 -20 -55 -15 0 -20 -7 -20
-25 0 -18 5 -25 20 -25 11 0 20 -6 20 -14 0 -8 10 -16 23 -18 14 -2 23 -11 25
-25 4 -31 52 -33 52 -3 0 12 5 17 14 14 10 -4 16 5 21 25 5 22 12 31 26 31 27
0 28 -75 1 -82 -14 -4 -20 -18 -25 -58 -7 -60 -4 -70 24 -70 10 0 19 -7 19
-15 0 -8 9 -15 20 -15 11 0 20 7 20 15 0 8 9 15 20 15 11 0 20 -7 20 -15 0 -8
-9 -15 -20 -15 -15 0 -20 -7 -20 -29 0 -24 3 -28 20 -24 14 4 20 0 20 -11 0
-20 -36 -21 -44 -1 -8 22 -36 18 -36 -5 0 -13 7 -20 20 -20 11 0 20 -7 20 -15
0 -8 -9 -15 -20 -15 -13 0 -20 -7 -20 -20 0 -17 7 -20 40 -20 33 0 40 -3 40
-20 0 -17 -7 -20 -40 -20 -33 0 -40 4 -40 19 0 10 -9 21 -20 24 -11 3 -20 10
-20 17 0 7 9 14 20 17 11 3 20 12 20 19 0 8 -9 14 -20 14 -13 0 -20 7 -20 20
0 15 -7 20 -25 20 -20 0 -25 5 -25 25 0 19 5 25 23 26 16 1 18 2 5 6 -17 4
-40 63 -29 73 15 13 9 30 -10 30 -12 0 -23 8 -26 20 -3 13 -14 20 -28 20 -14
0 -25 -7 -28 -20 -3 -11 -10 -20 -16 -20 -6 0 -11 9 -11 20 0 11 7 20 15 20 8
0 15 9 15 20 0 13 -7 20 -19 20 -11 0 -23 5 -27 11 -4 8 -9 7 -15 -2 -6 -9 -9
1 -9 29 0 38 -2 42 -25 42 -20 0 -25 5 -25 23 0 34 9 38 40 22 30 -15 31 -14
54 58 11 36 26 15 26 -38z m-352 -538 c7 3 12 -4 12 -16 0 -12 -6 -21 -14 -21
-17 0 -28 -50 -19 -90 3 -16 12 -30 19 -30 8 0 14 -8 14 -19 0 -14 10 -20 40
-25 26 -4 40 -11 40 -21 0 -9 11 -20 25 -25 36 -14 31 -27 -15 -35 -60 -10
-117 2 -123 27 -4 14 -12 19 -29 16 -21 -3 -23 -7 -21 -60 0 -32 0 -58 -2 -58
-15 0 -35 15 -35 25 0 7 -12 15 -26 18 -40 7 -603 -4 -633 -13 l-26 -8 25 -2
c58 -4 -33 -19 -131 -21 -54 -2 -99 -6 -99 -11 0 -4 8 -8 18 -9 14 0 14 -2 -3
-9 -11 -5 -67 -9 -123 -9 -95 -1 -104 -3 -109 -21 -5 -18 -14 -20 -115 -20
-70 0 -107 4 -103 10 3 6 -3 10 -13 10 -11 0 -22 -7 -26 -15 -3 -8 -10 -15
-16 -15 -5 0 -10 7 -10 15 0 8 -6 16 -12 16 -34 4 109 17 195 18 90 1 97 2 97
21 0 19 7 20 113 21 61 1 118 1 125 0 6 -1 12 3 12 9 0 5 -8 10 -17 11 -15 0
-15 2 2 9 11 5 50 9 88 9 53 1 67 4 67 16 0 15 8 16 190 19 249 4 270 6 270
21 0 16 2 16 125 20 85 3 108 -2 101 -21 -3 -9 1 -14 14 -14 13 0 20 7 20 20
0 11 5 20 10 20 6 0 10 7 10 16 0 8 -4 12 -10 9 -5 -3 -10 -1 -10 4 0 6 -9 11
-20 11 -21 0 -25 16 -14 58 4 12 13 22 20 22 10 0 14 15 14 53 0 51 1 53 33
63 17 5 39 7 47 3 8 -3 21 -4 28 -2z m136 -594 c3 -10 6 -49 7 -88 2 -38 5
-81 9 -95 6 -24 7 -23 15 10 7 31 10 23 18 -62 10 -102 2 -191 -13 -153 l-9
20 -1 -20 c-4 -46 -18 33 -19 108 -1 44 -5 77 -11 77 -5 0 -10 -8 -11 -17 -3
-46 -17 39 -18 105 -1 65 -3 72 -21 72 -13 0 -20 7 -20 20 0 15 7 20 25 20 14
0 25 5 25 10 0 17 18 11 24 -7z m-374 -100 c0 -7 -11 -14 -25 -14 -14 -1 -31
-2 -37 -3 -7 -1 -15 -10 -18 -21 -3 -11 -16 -21 -28 -23 -12 -2 -22 -10 -22
-18 0 -8 -5 -14 -12 -14 -6 0 -62 -5 -124 -11 -88 -9 -111 -15 -107 -25 4 -12
-23 -14 -150 -14 -123 0 -156 3 -160 14 -6 16 38 26 118 26 64 0 95 9 95 26 0
8 9 14 21 14 12 0 23 8 26 19 4 17 18 20 91 26 125 9 127 9 124 23 -1 9 24 12
103 10 79 -1 105 -5 105 -15z m-3177 -420 c91 -3 164 -10 161 -14 -8 -14 35
-21 170 -29 72 -4 117 -8 99 -8 -17 -1 -34 -6 -37 -11 -6 -10 74 -21 153 -21
41 0 52 -3 48 -14 -6 -14 37 -26 96 -26 21 0 27 -4 25 -17 -2 -15 5 -19 40
-21 28 -2 42 -8 42 -18 0 -12 31 -14 190 -14 l190 0 0 -25 c0 -15 -6 -25 -14
-25 -7 0 -16 -9 -19 -20 -3 -12 -14 -20 -26 -20 -12 0 -21 -6 -21 -15 0 -8 -9
-15 -20 -15 -12 0 -24 -10 -30 -22 -5 -14 -9 -17 -10 -8 0 12 -3 11 -11 -2 -5
-10 -18 -18 -28 -18 -11 0 -21 -6 -24 -14 -3 -8 -16 -16 -29 -18 -13 -2 -22
-8 -21 -14 1 -6 -16 -17 -37 -24 -21 -7 -41 -19 -44 -26 -3 -8 -12 -14 -21
-14 -8 0 -20 -11 -25 -25 -5 -14 -16 -25 -25 -25 -8 0 -15 -9 -15 -20 0 -13
-7 -20 -20 -20 -11 0 -20 -7 -20 -15 0 -8 -9 -15 -20 -15 -13 0 -20 -7 -20
-20 0 -15 -7 -20 -25 -20 -19 0 -25 -5 -23 -17 2 -15 -5 -18 -42 -21 -66 -3
-90 -11 -90 -26 0 -8 -9 -16 -21 -19 -12 -3 -18 -10 -14 -16 6 -11 0 -15 -47
-25 -16 -4 -28 -13 -28 -21 0 -8 -5 -15 -11 -15 -6 0 -9 7 -5 15 3 8 1 15 -4
15 -6 0 -10 -9 -10 -21 0 -11 -4 -18 -9 -14 -5 3 -11 -3 -13 -12 -2 -10 -10
-18 -18 -19 -8 -1 -25 -2 -37 -2 -15 -1 -23 -8 -23 -21 0 -14 -10 -21 -37 -26
-30 -6 -34 -9 -19 -14 14 -5 16 -10 8 -15 -7 -4 -17 -4 -22 -1 -12 8 -70 -4
-69 -13 3 -19 -2 -30 -13 -29 -7 0 -26 -1 -43 -2 -26 -2 -27 -4 -10 -11 27
-11 6 -18 -66 -23 -64 -4 -89 -15 -68 -28 10 -6 5 -9 -16 -10 -50 -1 -103 -9
-127 -19 -21 -8 -22 -9 -3 -10 39 -4 -27 -18 -85 -19 -30 -1 -62 -6 -70 -11
-13 -9 -13 -10 0 -11 27 -2 -44 -17 -90 -18 -39 -1 -97 -20 -62 -21 6 0 12 -4
12 -9 0 -4 -37 -9 -82 -10 -46 -1 -85 -7 -89 -13 -4 -6 -29 -13 -56 -15 -55
-6 -65 3 -52 47 7 25 7 25 8 -4 1 -24 3 -27 16 -16 12 10 15 45 15 199 0 103
5 193 10 201 8 12 10 12 10 1 0 -8 3 -11 8 -7 4 4 9 51 12 104 4 85 7 97 23
94 14 -2 17 6 18 55 1 56 15 134 18 103 3 -30 18 13 25 72 5 42 11 56 21 52
10 -4 15 9 20 50 5 38 11 53 20 50 15 -6 25 26 25 87 0 38 4 48 20 52 13 3 18
11 14 21 -5 12 5 16 48 19 101 7 305 7 471 0z m-2979 -1571 c-1 -6 -2 -57 -2
-113 -2 -85 -4 -100 -18 -97 -8 2 -15 5 -14 8 1 3 -3 17 -9 31 -6 18 -6 30 1
37 8 8 8 15 -2 27 -18 21 -30 19 -30 -7 0 -13 -7 -31 -14 -40 -14 -19 -32 -25
-21 -8 4 6 2 17 -4 24 -7 8 -11 18 -10 22 4 22 -2 44 -12 44 -5 0 -8 -4 -4 -9
3 -5 1 -12 -5 -16 -6 -4 -9 4 -8 19 3 31 12 33 31 5 15 -20 15 -20 36 7 23 30
26 40 11 49 -18 11 -10 24 18 28 40 6 57 3 56 -11z m3779 -362 c4 -16 14 -20
50 -20 31 0 47 -5 51 -15 4 -11 20 -15 57 -15 42 0 52 -3 56 -20 4 -16 14 -20
47 -20 56 0 86 -9 80 -25 -4 -9 13 -14 56 -19 74 -9 76 -28 4 -37 -60 -8 -104
-1 -104 16 0 15 -45 25 -112 25 -45 0 -50 2 -45 20 4 17 0 20 -31 22 -21 0
-43 1 -49 1 -7 -1 -13 3 -13 7 0 5 6 10 13 13 6 2 -12 9 -40 16 -29 7 -50 17
-47 22 3 5 -1 10 -8 10 -7 1 -20 2 -28 3 -8 0 -16 9 -18 19 -5 27 74 25 81 -3z"/>
<path d="M15850 18591 c-56 -3 -94 -10 -92 -16 1 -6 -36 -14 -85 -20 -58 -7
-87 -14 -86 -22 2 -7 -16 -15 -42 -19 -26 -3 -49 -13 -55 -23 -6 -9 -10 -11
-10 -3 0 17 -20 15 -20 -2 0 -8 -16 -16 -40 -20 -33 -5 -40 -10 -40 -29 0 -13
-6 -29 -12 -35 -10 -10 -10 -15 2 -22 10 -7 11 -10 3 -10 -7 0 -13 -5 -13 -11
0 -16 228 -8 239 9 8 14 143 31 261 32 41 1 58 4 45 9 -18 7 -17 8 6 14 14 4
58 10 97 13 40 4 72 11 72 15 0 5 9 9 20 9 11 0 20 -4 20 -9 0 -5 14 -14 30
-20 17 -5 30 -15 30 -20 0 -6 12 -11 28 -12 38 -1 67 -14 67 -29 0 -8 16 -18
35 -23 19 -5 41 -13 48 -19 9 -8 12 -4 12 15 0 14 -4 29 -10 32 -5 3 -10 14
-10 24 0 25 -49 81 -66 74 -8 -3 -14 1 -14 11 0 9 -11 21 -25 26 -14 5 -24 15
-23 21 3 14 -33 27 -79 28 -22 1 -33 6 -33 16 0 11 -11 15 -39 15 -21 0 -58 2
-82 4 -24 2 -87 0 -139 -3z"/>
<path d="M15633 18290 c-18 -16 -33 -34 -33 -40 0 -5 -7 -10 -15 -10 -9 0 -12
-6 -9 -15 4 -10 -3 -18 -20 -25 -17 -6 -26 -17 -26 -30 0 -12 -4 -19 -9 -16
-5 3 -11 -4 -14 -15 -3 -11 -14 -23 -25 -26 -23 -5 -31 -29 -33 -88 -1 -33 -2
-36 -8 -15 -4 14 -17 27 -31 30 -15 4 -24 13 -24 23 3 29 -43 22 -50 -8 -4
-14 -16 -35 -27 -46 -25 -25 -19 -46 13 -51 15 -2 22 -9 20 -19 -1 -10 6 -19
18 -22 14 -3 20 -12 18 -24 -2 -13 4 -19 25 -21 16 -2 31 -10 34 -18 4 -10 23
-14 69 -14 51 0 62 -3 58 -14 -4 -11 9 -18 55 -27 58 -11 76 -22 49 -31 -7 -3
76 -8 184 -11 189 -7 228 -4 228 13 0 19 63 70 86 70 13 0 24 4 24 8 0 5 13
23 28 40 25 28 35 32 78 32 47 0 50 2 70 39 16 30 18 41 9 45 -7 2 -15 21 -19
40 -4 21 -13 36 -21 36 -7 0 -15 4 -17 10 -4 13 -78 42 -78 30 0 -5 -7 -7 -15
-4 -8 4 -13 9 -10 14 6 9 -39 30 -65 30 -11 0 -20 7 -20 15 0 22 -24 30 -105
34 -29 2 -29 2 -11 16 18 14 10 15 -77 15 -90 0 -97 1 -97 20 0 17 -7 20 -40
20 -29 0 -40 4 -40 15 0 10 -10 15 -34 15 -19 0 -40 2 -48 5 -7 2 -28 -9 -45
-25z"/>
<path d="M15396 17503 c-5 -11 -1 -22 11 -30 10 -7 23 -17 30 -23 7 -5 23 -10
35 -10 17 0 27 -9 37 -32 11 -30 13 -31 21 -13 6 15 9 8 9 -27 1 -45 -11 -64
-22 -35 -3 6 -6 -3 -6 -20 -1 -30 -4 -33 -31 -33 -16 0 -33 0 -37 -1 -5 0 -12
18 -17 40 l-9 41 -102 0 c-94 0 -103 -2 -108 -20 -3 -13 -11 -18 -20 -14 -8 3
-22 -2 -31 -11 -9 -9 -20 -13 -26 -10 -6 4 -10 -8 -10 -29 0 -29 4 -36 19 -36
11 0 22 -4 25 -8 3 -5 33 -5 68 -1 35 4 79 4 98 -1 29 -7 31 -8 10 -10 -14 -1
-33 -4 -42 -8 -10 -4 43 -8 116 -10 133 -3 134 -3 142 20 6 20 8 21 13 5 6
-15 9 -12 21 17 7 20 20 36 27 36 7 0 13 8 13 18 0 33 -12 62 -26 62 -10 0
-14 13 -14 40 0 28 -4 40 -14 40 -8 0 -23 17 -33 38 -19 36 -22 37 -80 40 -50
2 -62 0 -67 -15z"/>
<path d="M14914 17269 c-8 -14 8 -38 22 -32 9 3 14 -2 14 -16 0 -12 -4 -21 -8
-21 -10 0 -32 -45 -32 -65 0 -11 12 -15 40 -15 38 0 40 2 40 30 0 21 -5 30
-16 30 -8 0 -12 5 -8 11 4 8 9 8 17 0 14 -14 57 -14 57 -1 0 6 9 10 20 10 17
0 20 7 20 41 l0 40 -81 -2 c-44 -2 -82 -6 -85 -10z"/>
<path d="M15308 17002 c-16 -2 -28 -9 -28 -16 0 -18 -32 -26 -102 -26 -51 0
-58 -2 -58 -20 0 -13 7 -20 19 -20 19 0 35 -23 24 -34 -4 -3 -25 -6 -49 -6
-31 0 -44 5 -49 18 -6 16 -8 16 -22 -3 -13 -16 -15 -17 -10 -2 5 13 1 17 -18
17 -15 0 -24 -5 -22 -12 1 -7 -9 -14 -23 -16 -14 -2 -28 -9 -32 -16 -5 -7 -8
-6 -8 4 -1 28 -20 -12 -20 -42 0 -21 -5 -28 -20 -28 -17 0 -20 -7 -20 -40 0
-36 -2 -40 -25 -40 -21 0 -25 -5 -25 -27 0 -29 12 -55 24 -54 18 3 24 -1 33
-21 l9 -21 25 25 c29 31 86 35 81 6 -3 -16 6 -18 80 -17 70 1 163 15 119 18
-37 3 5 14 64 17 37 2 85 9 108 15 23 5 58 12 77 15 90 12 102 15 97 28 -4 10
9 16 43 20 38 5 48 10 44 21 -5 11 1 15 21 15 18 0 29 6 32 19 3 13 17 21 44
25 24 4 39 12 39 21 0 14 63 28 125 28 40 0 53 12 47 42 -2 15 0 25 7 25 6 0
11 -10 12 -22 1 -22 1 -22 8 2 4 14 12 25 18 25 6 0 15 3 19 8 4 4 0 7 -9 7
-10 0 -17 4 -17 10 0 5 7 7 15 4 11 -5 15 1 15 19 0 25 -1 25 -112 30 -119 6
-533 5 -580 -1z m50 -252 c2 -6 -4 -20 -13 -30 -9 -10 -14 -24 -10 -29 4 -8
-29 -11 -104 -11 -104 0 -111 1 -111 20 0 13 -7 20 -19 20 -21 0 -37 17 -26
28 21 21 276 23 283 2z"/>
<path d="M3770 18255 l0 -1065 3818 2 3817 3 0 1060 0 1060 -3817 3 -3818 2 0
-1065z m2620 343 l0 -201 31 42 c55 76 142 91 201 34 66 -63 77 -120 78 -411
l0 -233 -42 3 -43 3 -5 245 c-5 224 -7 248 -26 280 -40 69 -107 65 -159 -8
l-30 -44 -3 -239 -3 -239 -40 0 -39 0 0 485 0 485 40 0 40 0 0 -202z m1302 0
c2 -164 5 -198 15 -177 15 35 66 76 104 84 54 12 101 -3 141 -46 103 -110 117
-379 30 -543 -65 -120 -208 -135 -274 -29 l-23 38 -3 -47 -3 -48 -37 0 -37 0
3 485 2 485 40 0 40 0 2 -202z m1998 5 l0 -197 25 34 c81 110 212 82 258 -54
6 -17 13 -149 16 -294 l6 -262 -42 0 -43 0 0 218 c0 119 -5 235 -10 256 -26
114 -125 139 -182 47 -22 -34 -23 -49 -28 -276 l-5 -240 -42 -3 -43 -3 0 485
0 486 45 0 45 0 0 -197z m-4660 97 l0 -50 -130 0 -131 0 3 -152 3 -153 118 -3
118 -3 -3 -46 -3 -46 -117 2 -118 2 0 -210 0 -211 -40 0 -40 0 -2 453 c-2 248
-2 455 0 460 2 4 79 7 173 7 l169 0 0 -50z m2282 5 c4 -22 33 -143 63 -270 31
-126 65 -270 76 -320 26 -115 59 -256 65 -273 3 -10 -8 -12 -43 -10 l-46 3
-27 115 c-14 63 -30 128 -33 143 l-8 28 -112 -3 -112 -3 -31 -140 -31 -140
-41 -3 c-30 -2 -42 1 -42 10 0 13 112 494 177 761 l36 148 50 -3 c51 -3 51 -3
59 -43z m-1981 -218 c44 -30 77 -90 83 -152 3 -27 7 -153 9 -278 l4 -228 -36
3 c-33 3 -36 6 -39 36 -2 17 -7 32 -13 32 -5 0 -9 -4 -9 -10 0 -19 -52 -60
-90 -70 -68 -18 -119 10 -154 84 -18 39 -21 142 -6 198 22 79 96 133 198 146
l57 8 -2 47 c-2 69 -40 117 -91 117 -21 0 -55 -9 -77 -20 -43 -22 -50 -19 -59
26 -7 30 -5 33 45 58 68 34 133 35 180 3z m447 -33 c-3 -54 -4 -57 -31 -60
-36 -4 -53 -18 -80 -68 -20 -38 -22 -57 -25 -269 l-3 -228 -42 3 -42 3 -3 328
-2 327 34 0 c32 0 36 -3 42 -35 3 -19 4 -41 1 -49 -3 -8 -3 -17 0 -20 3 -3 16
16 29 42 25 50 64 81 102 82 22 0 23 -3 20 -56z m309 36 c26 -16 61 -69 75
-111 6 -19 13 -145 15 -292 l5 -258 -38 3 c-36 3 -39 6 -44 38 -5 34 -6 35
-18 12 -36 -63 -145 -83 -200 -37 -38 31 -62 101 -62 176 0 123 85 215 209
226 l61 6 0 39 c0 108 -79 157 -175 108 -21 -11 -40 -18 -42 -16 -2 2 -8 17
-12 34 -11 36 6 56 66 78 43 16 130 13 160 -6z m2318 1 c58 -26 98 -77 124
-159 20 -62 23 -85 18 -189 -5 -136 -16 -176 -60 -234 -42 -56 -74 -78 -127
-90 -98 -22 -187 43 -229 168 -26 78 -29 252 -6 330 45 152 165 227 280 174z
m1064 3 c38 -15 39 -17 34 -52 -7 -49 -14 -55 -47 -42 -15 5 -48 10 -73 10
-38 0 -50 -5 -77 -32 -18 -18 -43 -60 -55 -93 -41 -107 -14 -280 52 -337 45
-40 101 -49 151 -23 37 20 46 12 46 -39 l0 -44 -63 -17 c-112 -30 -193 10
-248 121 -28 57 -32 76 -37 178 -4 97 -2 124 17 184 49 162 171 238 300 186z
m863 7 c46 -18 77 -56 101 -125 6 -17 13 -147 16 -289 l6 -257 -37 0 c-35 0
-38 2 -38 28 0 43 -8 44 -49 3 -47 -47 -93 -58 -150 -35 -48 19 -79 74 -88
157 -15 143 70 252 207 264 l60 6 0 39 c0 110 -75 156 -172 107 -33 -17 -42
-18 -49 -7 -14 21 -10 64 6 78 40 33 139 50 187 31z m-1591 -248 c4 -218 6
-241 25 -278 40 -78 108 -79 161 -3 l28 41 3 239 3 238 40 0 39 0 0 -330 0
-330 -35 0 c-35 0 -35 0 -35 46 l0 47 -47 -50 c-59 -62 -102 -74 -160 -44 -85
43 -103 117 -103 424 l0 237 39 0 39 0 3 -237z"/>
<path d="M7752 18379 c-47 -46 -65 -117 -60 -242 2 -81 8 -112 25 -147 58
-118 174 -98 218 37 13 40 16 78 14 160 -4 96 -7 113 -32 155 -32 54 -52 68
-99 68 -25 0 -43 -9 -66 -31z"/>
<path d="M7240 18602 c0 -13 -9 -62 -21 -110 -11 -48 -29 -124 -40 -169 -28
-121 -33 -113 71 -113 50 0 90 3 90 6 0 4 -13 63 -29 133 -16 69 -35 155 -42
191 -12 67 -29 102 -29 62z"/>
<path d="M5233 18150 c-74 -33 -103 -114 -68 -195 28 -69 101 -65 148 7 24 37
27 52 27 125 l0 83 -32 0 c-18 0 -52 -9 -75 -20z"/>
<path d="M5997 18156 c-54 -20 -73 -40 -86 -92 -8 -33 -9 -56 -1 -87 13 -50
33 -67 75 -67 67 0 100 52 110 178 l8 82 -34 0 c-19 -1 -51 -7 -72 -14z"/>
<path d="M8285 18408 c-32 -19 -44 -34 -68 -85 -17 -39 -21 -67 -22 -153 0
-124 14 -177 59 -225 28 -29 40 -35 75 -35 81 0 141 106 141 250 0 179 -92
302 -185 248z"/>
<path d="M10265 18155 c-22 -8 -41 -15 -42 -15 -1 0 -11 -15 -22 -34 -24 -38
-28 -119 -10 -160 7 -13 24 -30 40 -36 24 -10 34 -9 61 7 50 29 70 72 76 168
l5 85 -34 0 c-19 -1 -52 -7 -74 -15z"/>
<path d="M5614 16625 c-2 -5 -3 -572 -2 -1260 l3 -1250 160 0 160 0 3 1240 c1
682 0 1249 -2 1260 -5 19 -13 20 -162 20 -95 0 -158 -4 -160 -10z"/>
<path d="M8104 16231 c-2 -2 -4 -78 -4 -169 l0 -164 -28 30 c-82 87 -200 34
-243 -109 -17 -58 -21 -89 -18 -182 4 -101 7 -118 34 -172 34 -67 80 -105 129
-105 37 0 102 41 111 70 11 34 25 22 25 -21 0 -39 1 -40 33 -37 18 2 32 8 31
16 -1 6 -2 200 -2 430 l-2 418 -31 -1 c-17 0 -33 -2 -35 -4z m-50 -381 c37
-44 49 -101 44 -210 -4 -108 -27 -161 -76 -177 -85 -28 -142 57 -142 211 0
161 101 263 174 176z"/>
<path d="M6270 16192 l-25 -8 0 -404 0 -405 38 -3 37 -3 0 159 0 159 61 7
c142 14 206 107 197 288 -4 98 -24 145 -76 185 -32 24 -46 27 -121 30 -48 1
-97 -1 -111 -5z m195 -115 c41 -41 53 -104 36 -182 -18 -79 -68 -117 -143
-107 l-38 4 0 159 0 159 56 0 c50 0 60 -4 89 -33z"/>
<path d="M9183 16116 c-19 -9 -23 -20 -25 -81 l-3 -70 -32 -3 c-31 -3 -33 -6
-33 -42 0 -36 2 -39 33 -42 l32 -3 3 -210 c3 -222 8 -252 50 -285 45 -36 122
-20 122 25 0 42 -10 55 -44 55 -50 0 -56 24 -56 235 l0 185 50 0 50 0 0 40 0
40 -50 0 -49 0 -3 82 c-2 45 -7 82 -13 83 -5 2 -20 -3 -32 -9z"/>
<path d="M6782 15954 c-12 -8 -31 -32 -42 -52 l-19 -37 -1 48 0 47 -35 0 -36
0 3 -292 3 -293 38 -3 37 -3 0 193 c0 165 3 199 19 233 21 47 37 62 71 67 23
3 25 8 28 56 3 49 2 52 -20 52 -13 0 -34 -7 -46 -16z"/>
<path d="M6994 15945 c-127 -76 -148 -415 -34 -534 50 -52 134 -65 207 -31 40
18 42 21 36 52 -8 43 -7 42 -44 29 -59 -20 -112 -14 -142 17 -32 33 -57 91
-57 131 l0 30 133 3 132 3 0 85 c-1 190 -107 289 -231 215z m106 -70 c30 -15
48 -54 52 -115 l3 -35 -97 -3 -98 -3 0 26 c0 35 38 112 63 130 27 19 41 19 77
0z"/>
<path d="M7372 15950 c-64 -39 -91 -152 -55 -228 19 -40 36 -57 100 -98 64
-42 81 -99 42 -148 -25 -31 -75 -35 -120 -9 -34 20 -35 19 -44 -29 -6 -32 -4
-38 19 -53 40 -26 106 -30 150 -10 50 24 76 65 83 129 11 108 -15 158 -112
221 -57 36 -71 66 -53 115 14 40 50 54 95 35 41 -17 48 -13 56 32 6 28 3 33
-27 47 -46 22 -94 20 -134 -4z"/>
<path d="M8369 15946 c-72 -50 -109 -147 -109 -288 0 -150 46 -248 131 -282
50 -20 83 -20 142 0 41 14 47 19 47 44 0 16 -3 35 -6 44 -5 14 -9 14 -34 1
-16 -8 -50 -15 -76 -15 -64 0 -107 42 -124 124 -6 32 -10 60 -7 63 3 2 61 4
130 4 85 0 129 4 135 12 14 19 -3 169 -26 218 -28 64 -62 91 -119 96 -39 4
-55 0 -84 -21z m110 -72 c29 -21 51 -72 51 -119 l0 -36 -97 3 -98 3 4 30 c5
45 39 111 64 123 32 15 49 14 76 -4z"/>
<path d="M8830 15953 c-33 -22 -44 -34 -58 -58 -10 -17 -11 -15 -12 23 0 41
-1 42 -35 42 l-35 0 0 -296 0 -295 36 3 36 3 2 195 c3 218 13 262 66 293 43
26 76 13 102 -37 20 -37 22 -61 26 -248 l4 -208 35 0 35 0 -4 233 c-3 213 -5
236 -25 279 -36 78 -116 111 -173 71z"/>
<path d="M9485 15952 c-42 -26 -84 -90 -101 -153 -32 -124 -8 -316 49 -377 41
-45 95 -65 153 -58 30 3 65 11 80 18 23 11 25 16 20 46 -7 44 -11 48 -41 34
-14 -7 -46 -12 -70 -12 -59 0 -100 35 -120 103 -27 91 -33 87 114 87 89 0 132
4 137 12 12 19 4 128 -12 188 -11 37 -28 66 -54 92 -32 32 -44 38 -81 38 -25
0 -57 -8 -74 -18z m115 -92 c29 -31 49 -107 35 -129 -10 -17 -184 -14 -191 2
-8 22 35 125 59 142 33 23 66 18 97 -15z"/>
<path d="M7640 15665 l0 -295 35 0 35 0 0 295 0 295 -35 0 -35 0 0 -295z"/>
</g>
</svg>
