<?xml version="1.0" standalone="no"?>
<!DOCTYPE svg PUBLIC "-//W3C//DTD SVG 20010904//EN"
 "http://www.w3.org/TR/2001/REC-SVG-20010904/DTD/svg10.dtd">
<svg version="1.0" xmlns="http://www.w3.org/2000/svg"
 width="2048.000000pt" height="2031.000000pt" viewBox="0 0 2048.000000 2031.000000"
 preserveAspectRatio="xMidYMid meet">
<metadata>
Created by potrace 1.16, written by Peter Selinger 2001-2019
</metadata>
<g transform="translate(0.000000,2031.000000) scale(0.100000,-0.100000)"
fill="#000000" stroke="none">
<path d="M3902 18108 l3 -1063 3818 -3 3817 -2 0 1065 0 1065 -3820 0 -3820 0
2 -1062z m998 82 l0 -410 135 0 135 0 0 -50 0 -50 -175 0 -175 0 0 460 0 460
40 0 40 0 0 -410z m1848 213 l2 -193 150 0 150 0 2 193 3 192 40 0 40 0 0
-455 0 -455 -42 -3 -43 -3 0 215 0 216 -150 0 -150 0 0 -215 0 -215 -45 0 -45
0 0 453 c0 250 3 457 7 461 4 4 23 6 43 4 l35 -3 3 -192z m-994 -57 c37 -15
76 -63 96 -116 10 -24 15 -113 18 -292 l4 -258 -40 0 -40 0 -4 233 c-3 209 -6
237 -25 278 -28 62 -70 81 -120 54 -20 -11 -44 -37 -56 -60 -20 -37 -22 -57
-25 -272 l-4 -233 -39 0 -39 0 0 330 0 330 35 0 c34 0 35 -1 35 -40 0 -22 3
-40 8 -40 4 0 20 16 36 36 28 36 75 63 109 64 10 0 33 -6 51 -14z m466 -4 c40
-20 76 -69 89 -121 5 -20 11 -150 14 -288 l5 -253 -39 0 c-38 0 -39 1 -39 35
l0 35 -39 -39 c-63 -63 -134 -66 -191 -8 -39 40 -53 95 -48 177 6 73 24 117
68 159 33 31 114 61 166 61 33 0 34 2 34 38 0 47 -28 103 -60 120 -30 15 -83
8 -128 -19 -35 -20 -35 -20 -46 33 -7 31 14 50 82 74 51 18 91 17 132 -4z
m1270 -4 c34 -18 50 -35 69 -73 27 -54 25 -30 34 -450 l3 -135 -38 0 c-37 0
-38 1 -38 38 l0 37 -35 -38 c-55 -60 -114 -73 -173 -37 -48 30 -72 88 -72 181
0 137 63 211 199 232 79 13 80 13 60 94 -21 80 -108 106 -181 53 -30 -22 -33
-20 -43 32 -6 34 -5 38 26 54 78 40 128 43 189 12z m940 2 c74 -38 126 -175
118 -306 l-3 -49 -159 0 -158 0 5 -51 c6 -58 27 -106 65 -146 33 -35 91 -44
156 -24 27 8 53 13 58 10 4 -3 8 -22 8 -43 0 -33 -4 -38 -34 -49 -55 -20 -130
-26 -170 -12 -57 18 -97 59 -129 130 -52 113 -49 304 6 424 54 117 147 162
237 116z m497 0 c18 -10 42 -38 54 -62 20 -40 23 -41 33 -23 6 11 27 36 47 57
60 62 118 63 176 2 54 -57 61 -103 64 -381 l2 -248 -41 -3 -41 -3 -3 248 c-3
216 -5 252 -21 281 -26 48 -60 60 -102 38 -64 -35 -70 -62 -73 -328 l-3 -238
-40 0 -39 0 0 228 c0 263 -9 307 -67 339 -30 16 -36 16 -61 3 -15 -8 -38 -38
-52 -65 -24 -48 -25 -58 -28 -277 l-3 -228 -40 0 -39 0 0 330 0 330 35 0 c34
0 35 -1 35 -40 0 -47 14 -51 34 -11 16 30 86 71 121 71 11 0 34 -9 52 -20z
m-3587 -330 l0 -330 -40 0 -40 0 0 330 0 330 40 0 40 0 0 -330z m2480 -37 c0
-389 -5 -435 -49 -506 -23 -38 -91 -80 -124 -75 -18 2 -23 10 -25 45 -3 41 -2
43 36 58 27 11 45 27 58 53 17 34 19 67 22 415 l3 377 40 0 39 0 0 -367z m228
-25 c-3 -381 -4 -394 -25 -441 -25 -54 -37 -67 -84 -96 -52 -32 -77 -28 -85
14 -8 43 0 65 24 65 23 0 60 33 75 68 8 19 13 146 15 405 l3 377 40 0 40 0 -3
-392z"/>
<path d="M6148 18004 c-65 -20 -93 -61 -93 -136 0 -99 64 -148 128 -98 41 32
57 81 57 171 0 90 -1 91 -92 63z"/>
<path d="M7403 18000 c-24 -10 -52 -33 -63 -52 -43 -68 -8 -198 52 -198 71 0
118 77 118 193 l0 77 -32 0 c-18 0 -52 -9 -75 -20z"/>
<path d="M8291 18235 c-27 -31 -61 -116 -61 -152 0 -10 27 -13 120 -13 l120 0
0 35 c0 19 -7 54 -16 77 -37 94 -106 117 -163 53z"/>
<path d="M13845 19080 c-22 -6 -76 -16 -120 -24 -44 -8 -105 -23 -135 -33 -30
-11 -73 -25 -95 -32 -22 -7 -78 -27 -124 -44 -70 -27 -86 -37 -96 -62 -20 -45
-52 -71 -132 -103 -66 -27 -262 -140 -291 -169 -7 -7 -17 -13 -21 -13 -4 0
-32 -18 -62 -40 -30 -21 -72 -52 -93 -67 -150 -107 -247 -191 -301 -264 -11
-14 -39 -51 -63 -80 -126 -157 -176 -226 -390 -544 -75 -112 -139 -259 -156
-360 l-6 -40 15 34 c8 18 15 40 15 48 0 8 5 11 10 8 12 -8 13 -55 1 -55 -5 0
-12 -12 -15 -26 -4 -16 -12 -24 -20 -21 -14 6 -46 -81 -46 -126 0 -29 15 -44
24 -25 3 7 3 -5 -1 -27 -3 -22 -10 -48 -15 -58 -13 -26 -12 -291 1 -295 6 -2
11 -26 11 -54 0 -41 -2 -47 -13 -36 -20 20 -27 46 -14 52 7 2 4 5 -5 5 -20 1
-23 -20 -8 -47 26 -48 90 -207 90 -225 0 -11 4 -36 10 -56 5 -20 17 -67 26
-106 8 -38 21 -79 28 -90 7 -11 27 -46 45 -77 l31 -58 -15 -107 c-9 -58 -14
-117 -10 -130 3 -13 1 -31 -4 -41 -5 -10 -15 -53 -21 -97 -7 -44 -16 -100 -20
-125 -5 -25 -15 -88 -23 -140 -9 -52 -25 -140 -37 -195 -11 -55 -30 -154 -41
-220 -10 -66 -23 -138 -28 -160 -5 -22 -15 -74 -21 -115 -12 -81 -22 -108 -85
-245 -23 -49 -50 -108 -60 -130 -41 -92 -74 -155 -227 -440 -29 -55 -60 -120
-67 -145 -8 -25 -21 -57 -28 -72 -7 -15 -17 -70 -23 -122 -9 -88 -33 -166 -51
-166 -10 0 -88 -67 -173 -149 -89 -85 -216 -238 -251 -302 -45 -84 -64 -202
-55 -354 9 -144 27 -252 47 -276 8 -10 9 -19 3 -25 -7 -7 -3 -32 11 -75 12
-35 24 -66 26 -69 2 -2 15 9 28 25 29 36 30 64 9 211 -29 197 -30 223 -23 326
5 84 12 115 36 168 53 115 135 209 303 349 97 81 90 82 141 -26 17 -35 31 -63
33 -63 2 0 24 31 50 68 l46 69 -10 69 c-17 117 -14 140 20 170 48 43 151 207
249 397 18 35 33 35 25 0 -4 -22 -3 -25 5 -13 9 12 11 11 11 -7 0 -13 -4 -23
-10 -23 -5 0 -10 -11 -10 -25 0 -14 -4 -33 -9 -43 -5 -9 -14 -44 -19 -77 -11
-69 -40 -175 -52 -190 -4 -5 -10 -21 -13 -35 -21 -92 -68 -184 -129 -250 -9
-10 -47 -65 -83 -122 -37 -57 -109 -164 -161 -238 -172 -247 -190 -284 -271
-563 -29 -99 -45 -137 -69 -165 -50 -57 -117 -142 -151 -192 -16 -25 -70 -103
-119 -175 -157 -229 -248 -376 -252 -409 -19 -155 -24 -341 -13 -553 6 -127
16 -257 22 -290 13 -72 13 -58 4 -181 -5 -62 -11 -98 -16 -90 -6 9 -9 4 -9
-14 0 -16 -4 -28 -10 -28 -5 0 -19 -19 -31 -41 -17 -34 -18 -41 -5 -36 8 3 18
1 22 -6 4 -7 4 -9 -1 -5 -7 7 -76 -124 -88 -167 -3 -11 -16 -58 -30 -105 -14
-47 -33 -132 -42 -190 -9 -58 -20 -123 -25 -145 -5 -22 -12 -76 -15 -120 -3
-44 -10 -98 -15 -120 -9 -41 -16 -153 -27 -445 -7 -200 -8 -211 -16 -230 -3
-8 -8 -51 -11 -95 -3 -44 -7 -100 -11 -125 -3 -25 -15 -121 -26 -215 -24 -198
-20 -173 -53 -345 -105 -549 -105 -554 -88 -606 16 -49 16 -49 24 -19 4 18 5
7 2 -25 -4 -44 4 -91 41 -235 26 -99 50 -198 55 -220 4 -22 17 -78 28 -125 33
-137 61 -415 66 -650 2 -118 9 -327 16 -465 13 -262 7 -900 -10 -1089 -5 -56
-14 -191 -20 -301 -6 -110 -17 -231 -25 -270 -38 -191 -71 -461 -86 -705 -11
-179 -19 -240 -55 -400 -9 -41 -18 -106 -19 -145 -2 -38 -8 -90 -13 -115 -6
-25 -11 -77 -12 -117 0 -47 -4 -73 -12 -76 -10 -4 -10 -8 -2 -14 6 -4 15 -27
19 -51 11 -65 26 -75 108 -70 65 4 72 6 101 39 17 20 38 38 47 41 9 4 24 23
34 45 10 21 21 40 24 43 3 3 18 28 33 55 15 28 34 52 44 53 24 6 66 -19 55
-32 -45 -58 -82 -448 -62 -656 6 -58 12 -144 13 -192 2 -99 10 -107 56 -61 15
16 72 68 127 117 55 49 136 121 180 161 44 39 98 87 120 106 21 19 46 41 55
49 9 8 49 44 90 80 40 36 128 115 195 175 264 240 313 284 400 360 50 43 99
88 111 99 11 12 52 48 90 81 37 33 120 107 184 164 194 176 214 194 296 266
43 39 130 117 194 175 63 57 124 112 135 122 11 9 31 26 45 38 14 12 48 43 75
68 28 26 68 62 90 81 22 19 65 57 96 85 30 28 88 80 129 116 40 36 81 72 89
81 9 9 41 38 71 64 117 102 196 172 259 232 108 101 135 122 145 116 5 -3 6
-1 2 5 -3 6 2 17 12 24 17 12 75 63 247 218 34 30 101 91 151 136 49 44 154
138 234 209 80 71 165 148 189 170 24 22 49 45 55 50 6 6 90 80 186 166 96 86
190 170 209 187 18 18 47 44 65 58 17 15 74 66 126 114 94 86 149 134 204 181
15 13 43 38 61 54 94 87 145 133 176 159 19 17 104 93 189 169 85 77 211 189
279 251 69 61 175 156 236 211 61 55 147 132 190 171 44 39 154 138 245 219
203 182 298 268 415 372 50 45 108 98 130 118 22 21 54 49 70 62 17 14 55 48
85 77 30 28 93 85 140 126 47 41 87 78 90 81 3 3 32 29 65 58 33 29 78 70 100
90 22 20 96 86 165 146 69 61 134 119 146 130 11 11 58 54 105 96 46 42 131
118 188 170 58 52 147 132 199 177 53 46 101 89 107 95 7 7 47 44 90 82 141
125 299 267 345 310 25 23 131 117 235 209 105 92 197 175 205 184 8 10 33 32
55 51 22 19 67 59 100 90 34 31 79 72 101 91 26 23 40 44 40 60 0 14 10 61 22
104 26 94 29 225 8 301 -48 171 -111 310 -199 439 -33 49 -41 70 -42 107 0 52
17 79 49 79 46 0 68 144 42 267 -9 43 -24 112 -32 153 -39 187 -121 382 -208
494 -25 32 -46 64 -46 71 0 37 -181 322 -284 446 -7 8 -31 40 -53 70 -22 30
-50 65 -63 79 -12 14 -43 49 -68 78 -54 62 -171 153 -273 214 l-71 42 26 19
c23 17 26 26 26 81 0 145 -92 323 -210 406 l-50 35 2 66 c2 49 -1 70 -12 80
-8 8 -17 13 -20 12 -3 -1 -6 6 -7 15 -3 46 -13 82 -34 117 -12 22 -25 54 -29
70 -4 17 -12 29 -19 27 -7 -1 -11 3 -8 10 8 24 -14 56 -107 155 -34 36 -60 73
-60 86 -1 12 -31 65 -68 117 -72 104 -137 226 -196 371 -21 52 -56 117 -77
144 -104 136 -204 427 -244 715 -12 83 -87 330 -158 520 -19 52 -41 118 -49
145 -22 85 -109 326 -143 400 -49 107 -163 384 -221 540 -28 77 -63 168 -76
203 -14 35 -33 101 -44 148 -11 46 -31 112 -45 146 -14 34 -25 66 -25 70 0 19
-115 247 -186 371 -41 70 -84 152 -95 182 -11 31 -30 66 -42 78 -12 12 -33 39
-47 59 -14 21 -28 38 -32 38 -5 0 -8 4 -8 9 0 10 -17 30 -100 120 -112 121
-145 153 -174 168 -17 8 -38 21 -46 28 -8 7 -112 62 -230 122 -118 61 -250
129 -293 152 -118 65 -253 112 -291 103 -4 -2 -15 3 -23 10 -22 18 -217 37
-273 26 -28 -6 -73 -5 -120 2 -78 12 -160 1 -236 -31 -27 -10 -37 -10 -65 3
-33 15 -194 78 -309 120 -62 23 -185 32 -245 18z m55 -535 c25 -4 55 -13 67
-21 12 -8 30 -14 40 -14 10 0 27 -6 38 -13 31 -21 150 -58 176 -55 18 2 23 -1
21 -14 -2 -10 3 -18 10 -18 7 0 19 -9 26 -20 7 -11 23 -20 38 -20 14 0 38 -7
54 -15 17 -9 30 -11 30 -5 0 5 9 10 21 10 12 0 19 -5 17 -12 -5 -14 35 -38 63
-38 12 0 19 -7 19 -20 0 -19 13 -28 101 -72 19 -9 51 -20 72 -23 21 -3 35 -10
32 -16 -4 -5 5 -9 19 -9 14 0 31 -8 38 -18 7 -10 39 -27 71 -37 31 -10 57 -21
57 -26 0 -4 23 -20 50 -35 37 -20 47 -30 38 -37 -9 -6 -5 -7 10 -4 30 7 52 -1
52 -19 0 -14 39 -35 70 -38 8 -1 42 -14 75 -29 42 -20 56 -30 46 -36 -11 -7
-9 -11 8 -20 11 -6 28 -25 36 -41 9 -17 23 -30 33 -30 18 0 69 -50 116 -112
16 -21 34 -38 40 -38 14 0 56 -45 56 -59 0 -5 12 -20 28 -33 41 -36 76 -87
102 -152 13 -32 34 -70 47 -84 13 -14 23 -35 23 -48 0 -12 7 -30 16 -39 10
-10 14 -26 11 -43 -3 -15 -1 -34 4 -44 6 -11 5 -19 -1 -23 -13 -8 -3 -43 16
-63 8 -7 14 -22 14 -32 0 -10 5 -22 10 -25 6 -4 8 -16 4 -27 -4 -13 1 -26 13
-38 29 -28 57 -63 68 -85 6 -11 16 -21 23 -21 22 -3 23 -4 15 -16 -11 -19 -13
-38 -3 -38 5 0 11 -14 15 -31 4 -17 13 -33 20 -36 8 -2 17 -17 20 -33 8 -36
34 -66 68 -79 20 -8 27 -7 27 2 1 6 11 -1 24 -16 14 -18 28 -26 38 -22 11 4
18 0 22 -13 4 -11 18 -23 31 -26 16 -4 25 -14 25 -26 0 -10 7 -23 16 -28 15
-8 12 -16 -20 -64 -24 -38 -36 -66 -36 -91 0 -50 27 -57 92 -23 27 14 57 26
67 26 29 0 54 -56 48 -105 -7 -47 9 -165 24 -179 17 -18 9 -51 -17 -70 -41
-29 -121 -46 -226 -46 l-97 0 23 -23 c21 -21 23 -31 19 -93 -2 -38 -8 -143
-14 -234 -15 -260 -18 -292 -30 -347 -16 -71 -7 -509 11 -543 7 -13 14 -61 16
-107 3 -95 8 -107 38 -101 21 4 23 0 25 -44 1 -36 -2 -48 -13 -48 -13 0 -36
-73 -36 -118 0 -9 -6 -29 -14 -43 -7 -14 -16 -37 -20 -52 -7 -29 -37 -51 -76
-56 -5 0 -10 -8 -10 -16 0 -17 -20 -40 -220 -247 -211 -218 -230 -238 -270
-287 -19 -23 -47 -56 -62 -73 -16 -17 -28 -36 -28 -41 0 -6 -3 -7 -6 -4 -4 4
-23 -15 -43 -41 -20 -26 -49 -61 -66 -79 -16 -17 -48 -51 -70 -75 -105 -116
-245 -267 -290 -313 -47 -49 -70 -77 -105 -130 -88 -133 -131 -192 -147 -201
-11 -7 -53 -56 -93 -110 -41 -55 -77 -102 -80 -107 -4 -4 -43 -12 -87 -17 -72
-8 -191 -37 -248 -60 -11 -4 -40 -14 -64 -21 -24 -7 -54 -21 -66 -31 -13 -10
-28 -18 -33 -18 -6 0 -26 -13 -44 -30 -18 -16 -37 -30 -43 -30 -7 0 -22 -11
-35 -25 -13 -14 -31 -25 -39 -25 -9 0 -33 -16 -54 -35 -21 -19 -42 -35 -46
-35 -5 0 -30 -17 -57 -38 -27 -22 -74 -52 -104 -68 -30 -16 -63 -37 -74 -46
-11 -10 -29 -21 -40 -24 -12 -4 -41 -22 -65 -40 -24 -19 -52 -34 -61 -34 -10
0 -20 -7 -24 -15 -3 -8 -12 -15 -21 -15 -8 0 -15 -4 -15 -10 0 -5 -4 -10 -10
-10 -10 0 -69 -37 -112 -69 -14 -12 -31 -21 -36 -21 -5 0 -12 -7 -16 -15 -3
-8 -14 -15 -25 -15 -10 0 -26 -11 -35 -25 -9 -13 -34 -29 -55 -36 -37 -11 -39
-14 -34 -44 4 -28 0 -36 -38 -69 -48 -41 -78 -44 -94 -8 -11 25 -37 29 -57 8
-20 -19 -98 -56 -120 -56 -10 0 -18 -4 -18 -8 0 -14 -51 -33 -71 -27 -13 4
-19 1 -19 -9 0 -9 5 -16 11 -16 18 0 -21 -55 -57 -79 -32 -22 -64 -23 -64 -1
0 6 7 13 15 16 8 4 15 12 15 20 0 7 9 18 21 24 30 16 20 50 -21 76 -50 32
-100 83 -100 102 0 10 11 40 25 67 l25 50 -6 -40 c-3 -22 -11 -43 -17 -47 -34
-21 95 -128 155 -128 38 0 103 21 120 38 7 7 17 12 23 12 7 0 32 11 56 25 24
14 56 30 72 36 15 6 27 15 27 20 0 5 12 14 28 19 44 17 73 33 138 76 33 23 70
45 82 48 12 4 22 14 22 22 0 8 6 14 14 14 8 0 35 16 60 35 25 19 69 47 97 62
73 40 89 49 102 62 6 6 19 11 29 11 10 0 18 5 18 10 0 6 6 10 14 10 7 0 20 7
27 16 7 9 32 26 55 38 23 11 79 47 124 79 45 31 83 57 85 57 2 0 29 18 61 40
33 23 70 48 84 57 14 9 35 25 47 36 26 23 57 42 96 58 15 6 27 15 27 19 0 9
-289 4 -328 -5 -25 -6 -56 11 -46 26 3 5 1 9 -4 9 -6 0 -12 -7 -16 -15 -10
-26 -43 -18 -49 12 -5 26 11 53 31 53 5 0 12 24 16 53 10 73 85 209 134 240 6
4 12 15 12 24 0 9 15 30 34 47 18 18 38 42 45 54 6 12 22 24 36 28 13 3 26 12
29 21 3 8 10 12 15 9 5 -3 14 8 21 25 7 17 19 37 27 45 15 15 20 84 16 257 -2
61 -7 106 -12 103 -5 -3 -11 15 -14 42 -8 70 -25 175 -43 277 -10 50 -20 117
-24 150 -4 33 -8 56 -9 50 -4 -19 -31 80 -58 212 -14 73 -30 130 -34 128 -3
-3 -10 16 -14 42 -4 26 -14 61 -23 78 -8 16 -18 43 -21 59 -7 33 -7 33 -116
76 -44 17 -107 49 -140 70 -33 21 -71 41 -85 45 -14 5 -52 25 -86 46 -34 22
-65 39 -69 39 -30 0 -361 252 -424 323 -9 9 -36 39 -61 66 -70 77 -104 122
-135 176 -16 28 -34 57 -41 65 -6 8 -29 48 -50 88 -22 40 -60 112 -86 160 -89
162 -128 268 -128 345 0 18 -6 39 -12 46 -18 17 -17 286 0 303 7 7 12 18 12
26 0 16 24 42 39 42 6 0 11 13 11 29 0 31 51 93 72 88 6 -1 15 13 20 31 5 18
27 52 50 75 35 36 51 44 117 60 42 9 93 20 114 24 21 3 41 12 44 19 2 7 19 16
36 20 17 3 38 10 47 14 34 18 89 40 98 40 6 0 33 11 61 26 44 22 51 29 51 55
0 17 -5 29 -13 29 -7 0 -23 7 -35 16 -22 15 -22 17 -7 35 16 17 16 18 -8 24
-14 4 -27 15 -30 25 -8 31 -104 52 -228 48 -60 -2 -109 -2 -109 -1 0 1 14 9
30 18 32 17 40 35 15 35 -9 0 -15 9 -15 23 0 13 -9 32 -20 42 -11 10 -20 23
-19 29 0 6 3 6 6 -1 8 -20 19 -16 65 27 24 22 60 45 81 51 32 8 38 14 34 31
-3 11 -1 28 6 38 15 25 -27 108 -58 116 -19 5 -23 13 -23 52 -1 25 2 51 7 56
5 6 12 29 15 50 5 24 11 35 15 27 5 -7 8 0 8 17 0 16 9 39 20 51 12 13 24 38
27 57 3 19 9 50 12 69 6 34 24 49 24 20 0 -27 23 -66 37 -61 8 3 13 -2 13 -14
0 -11 5 -20 11 -20 6 0 8 11 5 28 -31 153 -28 208 17 279 15 24 27 47 27 53 0
6 10 22 23 35 56 59 67 74 67 89 0 8 9 20 20 26 11 6 18 15 15 21 -4 5 -2 9 3
9 6 0 33 23 61 50 35 34 59 50 77 50 21 0 24 3 15 13 -12 15 -5 27 16 27 8 0
21 6 28 13 8 6 30 23 49 37 20 14 36 31 36 39 0 8 3 11 6 8 11 -10 44 12 44
29 0 13 7 15 38 10 25 -5 32 -4 23 3 -11 7 -6 13 24 25 20 9 44 16 51 16 7 0
42 9 76 19 35 11 75 22 90 26 19 4 26 10 21 21 -4 11 0 14 18 11 13 -3 44 -8
69 -12z m-2310 -4530 c0 -14 -5 -25 -11 -25 -8 0 -7 -5 1 -15 10 -12 10 -21 2
-38 -6 -12 -14 -33 -18 -47 -8 -29 -45 -113 -53 -120 -10 -8 -30 -43 -45 -78
-17 -36 -39 -62 -55 -62 -5 0 -15 -8 -21 -17 -12 -20 -13 -24 11 87 7 32 24
69 40 89 15 19 26 38 24 41 -7 11 25 72 49 95 22 20 56 84 56 104 0 6 5 11 10
11 6 0 10 -11 10 -25z m-758 -2838 c6 -88 0 -97 -47 -73 -19 10 -34 12 -46 5
-11 -6 -20 -6 -24 1 -6 10 9 76 23 98 13 20 76 61 83 54 4 -4 9 -42 11 -85z
m-79 -99 c29 -14 44 -38 24 -39 -7 0 -2 -4 11 -9 22 -9 31 -30 12 -30 -5 0
-10 -12 -10 -27 0 -36 -29 -113 -52 -139 -10 -11 -18 -26 -18 -33 0 -7 -22
-36 -50 -64 -40 -41 -51 -47 -56 -34 -11 29 6 140 24 161 11 12 12 16 3 11
-11 -6 -13 -3 -7 16 4 13 9 40 12 59 2 19 8 44 11 55 4 11 7 24 8 28 0 13 39
56 51 57 5 0 22 -6 37 -12z m827 -4951 c67 -13 177 -48 385 -120 39 -13 144
-48 235 -76 172 -55 317 -118 360 -158 14 -13 21 -24 17 -24 -4 -1 -11 -3 -17
-4 -5 -1 -19 -3 -29 -4 -11 0 -38 -20 -61 -42 -36 -36 -40 -43 -26 -51 9 -5
16 -15 16 -22 0 -18 22 -26 69 -26 20 0 46 -7 58 -15 24 -17 57 -9 59 15 1 8
5 22 8 31 8 19 -31 33 -59 23 -12 -5 -16 -2 -13 12 2 11 -2 18 -9 17 -19 -4
-16 14 7 37 13 13 33 20 58 20 l38 0 12 -72 c14 -90 11 -150 -7 -172 -8 -10
-14 -41 -14 -81 0 -36 -5 -65 -9 -65 -5 0 -4 -9 2 -20 6 -11 8 -30 5 -42 -3
-14 2 -32 15 -48 17 -21 20 -22 20 -7 0 12 6 17 18 15 23 -4 30 -66 8 -74 -20
-8 -11 -63 14 -84 20 -18 45 -102 37 -125 -4 -8 -15 -15 -26 -15 -14 0 -21 -9
-25 -35 -4 -19 -11 -35 -15 -35 -16 0 -18 -36 -5 -55 10 -14 11 -22 2 -32 -8
-10 -7 -18 5 -31 9 -10 13 -27 10 -43 -3 -16 1 -30 11 -38 10 -9 13 -19 7 -30
-10 -19 -7 -94 5 -112 5 -8 9 -18 9 -24 2 -26 19 -72 32 -87 8 -9 12 -21 9
-27 -4 -6 2 -18 12 -27 12 -10 17 -24 15 -35 -4 -13 0 -19 10 -19 9 0 22 -12
29 -27 7 -16 23 -29 35 -31 12 -2 24 -10 27 -18 4 -11 -6 -14 -48 -14 -49 0
-55 3 -88 39 l-34 39 -60 -9 c-52 -8 -113 -28 -179 -59 -20 -10 -180 -55 -245
-70 -19 -4 -55 -13 -80 -19 -235 -60 -325 -79 -445 -91 -44 -4 -125 -15 -180
-24 -233 -36 -364 -43 -490 -27 -171 22 -252 48 -344 110 -159 106 -169 115
-185 148 -20 42 -21 103 -1 129 22 29 19 37 -27 72 -24 18 -68 64 -99 101 -67
83 -91 156 -70 224 26 88 27 85 -21 130 -25 23 -64 74 -87 113 -36 62 -41 77
-40 130 1 55 14 132 19 109 2 -11 18 24 19 42 1 6 -5 18 -11 25 -25 27 -41 63
-64 146 -12 47 -28 90 -33 95 -17 17 -13 36 21 105 22 42 48 77 78 100 25 20
50 41 55 47 6 7 26 18 47 25 32 12 37 18 43 57 13 89 78 164 157 181 126 28
252 44 378 51 195 9 580 -3 670 -22z m1220 -1406 c0 -11 5 -23 10 -26 6 -3 10
-17 10 -31 0 -14 6 -32 14 -40 8 -7 17 -33 21 -56 3 -24 13 -73 22 -110 20
-88 13 -103 -22 -43 -16 28 -37 56 -47 63 -10 7 -18 22 -18 32 0 10 -4 22 -10
25 -5 3 -9 50 -8 105 1 77 4 100 14 100 8 0 14 -9 14 -19z"/>
<path d="M14408 17145 c-2 -2 -41 -5 -88 -6 -75 -3 -162 -22 -225 -49 -11 -5
-37 -11 -57 -15 -24 -4 -38 -11 -38 -20 0 -19 -9 -19 -32 2 -17 15 -19 15 -36
0 -10 -10 -24 -17 -32 -17 -10 0 -10 -3 0 -15 7 -8 19 -15 26 -15 23 0 16 -20
-11 -30 -14 -5 -25 -16 -25 -24 0 -7 -9 -16 -21 -19 -21 -6 -22 -33 -1 -31 7
1 32 2 57 3 42 1 45 3 36 20 -14 25 21 71 53 71 13 0 34 9 48 19 32 25 83 32
83 11 0 -8 9 -35 21 -59 l21 -44 74 2 c40 1 78 6 84 11 5 4 24 10 40 12 17 1
36 9 43 16 9 8 29 11 53 8 28 -4 39 -1 39 9 0 8 21 18 53 25 64 14 97 30 97
46 0 12 -69 44 -96 44 -9 0 -28 7 -42 15 -25 13 -118 36 -124 30z"/>
<path d="M14458 15685 c-2 -3 -38 -7 -78 -10 -41 -2 -77 -10 -81 -16 -4 -7
-33 -14 -66 -17 -32 -2 -63 -8 -69 -13 -5 -4 -20 -6 -32 -2 -12 3 -30 2 -39
-2 -10 -4 -51 -9 -92 -11 -49 -2 -88 -11 -113 -24 -21 -11 -51 -20 -66 -20
-15 0 -36 -7 -46 -15 -11 -8 -34 -15 -52 -15 -21 0 -37 -6 -43 -17 -8 -15 -15
-16 -50 -7 -23 6 -44 7 -47 3 -3 -5 -27 -9 -53 -9 -26 0 -51 -4 -56 -9 -16
-16 -140 -25 -174 -13 -25 9 -31 8 -31 -4 0 -7 -9 -14 -19 -14 -10 0 -31 -15
-46 -34 -15 -19 -40 -36 -56 -40 -16 -3 -29 -12 -29 -20 0 -17 29 -35 47 -29
6 2 32 -3 58 -11 56 -19 55 -19 55 -1 0 9 -6 12 -15 9 -8 -4 -15 -1 -15 5 0 6
7 11 15 11 8 0 15 4 15 9 0 19 133 51 209 51 105 0 191 11 166 21 -14 5 -4 8
30 8 28 1 62 7 77 15 14 8 59 19 100 26 40 6 100 23 133 36 33 13 69 24 80 24
11 0 38 2 60 5 22 2 76 6 120 8 70 3 89 9 147 40 36 21 77 37 90 37 29 1 62
25 53 39 -6 11 -77 16 -87 6z"/>
<path d="M5390 16485 c0 -3 0 -571 0 -1262 l0 -1258 157 0 158 0 0 1260 0
1260 -157 3 c-87 1 -158 0 -158 -3z"/>
<path d="M5840 15995 l0 -45 85 0 85 0 0 -365 0 -365 35 0 35 0 0 365 0 365
85 0 85 0 0 45 0 45 -205 0 -205 0 0 -45z"/>
<path d="M6401 15806 c-13 -7 -34 -31 -47 -52 l-24 -39 0 48 c0 47 0 47 -34
47 l-33 0 4 -277 c2 -153 4 -286 3 -295 0 -14 8 -18 35 -18 l35 0 0 178 c0 98
5 195 11 217 17 61 45 95 80 95 29 0 29 1 29 55 0 60 -11 68 -59 41z"/>
<path d="M6615 15801 c-64 -39 -99 -108 -116 -226 -21 -151 23 -292 106 -341
50 -29 115 -32 175 -8 39 16 40 18 34 53 -8 46 -9 46 -39 33 -14 -7 -48 -12
-75 -12 -41 0 -53 5 -79 30 -31 31 -51 83 -51 133 l0 27 135 0 135 0 0 63 c0
71 -19 150 -46 197 -39 65 -119 88 -179 51z m111 -86 c20 -19 31 -49 38 -97
l7 -48 -100 0 c-99 0 -101 0 -101 23 0 41 52 131 80 138 29 6 60 0 76 -16z"/>
<path d="M6990 15802 c-47 -25 -80 -90 -80 -157 0 -64 34 -120 96 -159 66 -42
87 -73 81 -120 -3 -21 -13 -46 -21 -55 -21 -21 -85 -19 -120 4 -14 10 -28 16
-30 14 -2 -2 -7 -22 -10 -44 -7 -39 -6 -41 29 -58 51 -24 115 -22 156 6 52 35
71 79 67 163 -4 84 -30 127 -105 170 -48 29 -78 78 -66 111 18 52 75 70 120
38 21 -15 22 -14 32 22 9 32 8 41 -7 55 -27 28 -100 33 -142 10z"/>
<path d="M7350 15798 c-51 -26 -103 -102 -114 -165 -10 -61 -7 -215 5 -258 35
-130 133 -193 235 -150 172 72 180 499 11 576 -55 24 -83 24 -137 -3z m126
-97 c73 -78 73 -296 -1 -375 -33 -36 -85 -36 -119 0 -64 69 -75 243 -21 341
15 29 35 54 44 56 44 12 70 6 97 -22z"/>
<path d="M7807 15788 c-17 -18 -37 -42 -44 -53 -10 -17 -12 -14 -12 28 l-1 48
-32 -3 c-18 -2 -32 -6 -30 -10 1 -5 2 -136 2 -293 l0 -285 35 0 35 0 0 165 c0
90 5 187 11 215 13 60 49 108 87 112 25 3 27 6 27 53 0 44 -3 50 -23 53 -15 2
-33 -7 -55 -30z"/>
<path d="M8242 15803 c-45 -22 -76 -65 -102 -143 -29 -87 -26 -260 7 -330 50
-105 145 -145 253 -106 32 12 35 16 35 52 0 34 -3 39 -20 35 -64 -11 -119 -12
-144 -1 -35 14 -67 70 -76 133 l-7 47 136 0 136 0 6 26 c9 37 -13 151 -41 212
-39 84 -108 112 -183 75z m83 -73 c30 -12 64 -79 65 -128 l0 -33 -97 3 -98 3
2 28 c3 48 41 115 71 126 15 5 28 10 29 10 1 1 13 -3 28 -9z"/>
<path d="M8672 15795 c-17 -14 -34 -35 -37 -45 -11 -34 -25 -22 -25 20 0 38
-2 40 -30 40 l-30 0 0 -295 0 -295 33 0 34 0 6 193 c5 200 14 244 53 279 11 9
30 18 44 20 23 3 25 7 25 53 0 43 -3 50 -21 53 -12 2 -35 -9 -52 -23z"/>
<path d="M8900 15802 c-132 -65 -163 -415 -47 -541 46 -50 139 -66 211 -36 33
14 36 19 36 56 0 38 -2 41 -22 34 -13 -4 -49 -10 -81 -12 -54 -5 -59 -3 -91
29 -24 24 -37 49 -45 87 -6 29 -9 57 -5 62 3 5 64 9 135 9 112 0 130 2 136 17
4 9 1 55 -6 102 -24 171 -111 247 -221 193z m109 -86 c21 -17 41 -71 41 -111
l0 -35 -93 0 c-52 0 -96 3 -99 6 -10 9 20 105 39 126 34 38 76 43 112 14z"/>
<path d="M7960 15516 l0 -296 40 0 40 0 -2 293 -3 292 -37 3 -38 3 0 -295z"/>
<path d="M25 6070 c0 -3341 1 -4708 2 -3037 2 1670 2 4404 0 6075 -1 1670 -2
303 -2 -3038z"/>
<path d="M65 10155 c0 -1006 1 -1417 2 -912 2 505 2 1329 0 1830 -1 502 -2 89
-2 -918z"/>
<path d="M9617 4809 c-32 -29 -54 -56 -51 -64 3 -7 0 -16 -7 -21 -9 -5 -10 -2
-6 9 3 10 3 17 -2 17 -14 0 -41 -36 -34 -45 5 -4 2 -4 -6 0 -11 6 -13 4 -8 -8
4 -10 2 -14 -6 -11 -7 2 -24 -7 -39 -21 -28 -25 -37 -42 -18 -30 5 3 7 0 4 -9
-3 -8 -11 -13 -18 -10 -16 6 -78 -44 -71 -57 4 -5 0 -7 -7 -4 -15 5 -194 -160
-181 -167 4 -3 2 -3 -5 -1 -18 4 -47 -26 -47 -50 0 -11 -7 -22 -15 -24 -13 -4
-13 -3 0 6 8 5 11 13 7 17 -4 4 -29 -15 -57 -42 -35 -34 -46 -51 -37 -57 7 -5
4 -6 -9 -2 -25 7 -58 -20 -47 -38 3 -7 3 -9 -2 -5 -9 8 -33 -11 -178 -145 -54
-50 -109 -99 -123 -109 -13 -11 -21 -24 -18 -30 4 -6 3 -8 -2 -5 -6 3 -41 -23
-79 -59 -38 -35 -74 -64 -78 -64 -5 0 -6 -7 -3 -16 4 -9 2 -13 -5 -8 -14 8
-100 -76 -92 -89 3 -6 2 -8 -3 -4 -5 3 -29 -13 -54 -35 -30 -26 -37 -36 -20
-28 23 10 24 10 6 -4 -10 -9 -23 -13 -27 -10 -5 2 -17 -4 -29 -16 -22 -22 -27
-35 -9 -24 8 5 8 1 0 -13 -6 -11 -7 -23 -3 -27 3 -4 -1 -4 -11 0 -12 4 -17 1
-17 -10 0 -9 -5 -16 -10 -16 -7 0 -7 6 0 20 6 11 15 20 20 20 6 0 10 5 10 11
0 16 -13 8 -65 -40 -37 -34 -44 -46 -34 -53 10 -7 8 -8 -7 -4 -15 5 -33 -6
-70 -41 -87 -84 -210 -197 -258 -237 -25 -21 -43 -42 -40 -47 3 -5 2 -8 -3 -7
-11 4 -74 -48 -72 -59 1 -4 1 -15 -1 -23 -1 -12 -3 -12 -8 2 -6 14 -12 12 -45
-18 -21 -19 -35 -39 -32 -44 3 -6 0 -7 -8 -5 -7 3 -41 -23 -80 -64 -37 -38
-67 -67 -67 -63 0 3 -9 -3 -20 -13 -11 -10 -17 -22 -13 -28 3 -6 1 -7 -5 -3
-6 4 -20 -1 -32 -11 -21 -18 -28 -39 -9 -27 7 4 10 1 7 -6 -2 -7 -15 -20 -29
-28 -22 -13 -23 -13 -5 2 11 9 16 19 13 23 -4 3 -30 -17 -59 -45 -29 -29 -59
-55 -68 -58 -8 -3 -28 -22 -45 -42 -22 -26 -25 -34 -12 -29 11 4 16 3 12 -4
-4 -6 -14 -8 -22 -5 -12 5 -50 -25 -138 -109 -12 -11 -49 -45 -83 -74 -34 -30
-59 -58 -56 -63 3 -4 1 -7 -4 -6 -13 4 -163 -133 -157 -142 3 -4 -1 -7 -8 -6
-17 1 -183 -153 -179 -166 1 -5 -2 -6 -8 -3 -13 8 -41 -26 -33 -39 4 -5 1 -6
-5 -2 -18 11 -126 -95 -110 -106 9 -6 6 -7 -8 -4 -15 5 -33 -6 -70 -41 -59
-58 -226 -210 -272 -248 -17 -15 -29 -32 -25 -37 3 -6 2 -8 -3 -5 -6 3 -41
-23 -79 -59 -38 -35 -74 -64 -78 -64 -5 0 -7 -7 -4 -14 4 -9 1 -13 -6 -11 -7
2 -52 -34 -102 -82 -49 -47 -82 -83 -72 -79 11 3 16 2 12 -5 -4 -6 -14 -8 -22
-5 -17 7 -47 -20 -38 -34 4 -6 3 -10 -2 -9 -22 4 -35 -2 -30 -15 4 -9 1 -13
-6 -11 -11 4 -71 -45 -144 -117 -23 -24 -29 -35 -20 -41 8 -6 6 -7 -6 -3 -18
6 -26 -1 -167 -131 -25 -23 -62 -56 -82 -73 -21 -18 -35 -36 -32 -41 3 -5 1
-8 -4 -7 -15 5 -161 -125 -157 -139 2 -7 -1 -10 -8 -8 -7 3 -44 -25 -82 -63
-39 -37 -90 -83 -113 -102 -23 -19 -42 -38 -42 -43 0 -4 5 -5 10 -2 6 3 10 2
10 -3 0 -14 -29 -36 -37 -28 -3 3 -1 6 5 6 7 0 12 5 12 11 0 20 -10 12 -169
-133 -26 -24 -30 -33 -20 -40 11 -8 10 -9 -3 -5 -10 4 -28 -5 -45 -21 -16 -15
-55 -51 -87 -80 -32 -28 -51 -52 -43 -52 9 0 18 6 21 13 5 9 7 9 12 0 4 -10
48 -13 169 -13 l164 0 37 32 c20 18 66 60 103 94 36 33 85 78 108 98 23 21 40
43 37 51 -3 7 0 16 7 21 9 5 10 2 6 -9 -9 -25 6 -21 33 8 18 20 21 28 12 37
-7 7 -12 16 -12 22 0 5 6 2 14 -9 13 -18 14 -18 39 1 15 10 25 24 22 31 -2 7
1 15 7 19 7 4 8 3 4 -4 -14 -23 6 -12 44 25 22 20 36 41 33 46 -3 6 -2 7 4 4
12 -7 53 20 53 35 0 6 -8 4 -18 -5 -26 -24 -39 -21 -17 3 10 11 25 18 34 16
10 -3 42 19 81 55 36 33 57 57 48 53 -10 -3 -18 -11 -18 -17 0 -6 -3 -7 -7 -4
-3 4 3 16 14 27 12 10 23 17 26 14 3 -3 14 0 26 8 14 9 19 19 15 33 -4 16 -3
17 5 5 9 -12 20 -6 67 40 31 30 66 64 79 75 12 11 64 58 115 105 51 47 110
100 131 118 21 18 36 39 33 47 -3 7 0 16 7 21 9 5 10 2 6 -9 -10 -25 6 -20 34
10 13 14 18 23 12 19 -9 -5 -11 -2 -7 8 3 8 11 13 17 11 18 -6 60 32 51 46 -4
7 -3 9 4 5 6 -3 25 7 43 24 19 16 37 30 42 30 5 0 5 9 2 20 -4 12 -2 20 5 20
6 0 8 -5 4 -11 -4 -7 -1 -10 7 -7 8 3 14 14 14 25 0 12 4 25 8 29 4 5 5 1 1
-9 -11 -29 9 -19 56 26 98 95 281 257 290 257 6 0 10 7 10 15 0 8 3 15 8 15
15 0 82 72 76 81 -7 12 24 49 40 49 6 0 0 -7 -12 -16 -21 -15 -31 -39 -13 -32
5 2 36 28 68 58 32 30 82 75 110 99 29 24 50 48 47 53 -3 4 -2 7 3 6 14 -5 75
51 68 61 -3 5 0 13 6 17 8 4 9 3 5 -4 -14 -23 6 -12 44 25 22 20 37 40 34 45
-3 5 -2 8 3 7 23 -4 33 3 30 22 -1 12 5 24 13 27 13 5 13 3 1 -11 -7 -10 -10
-17 -6 -17 13 0 150 132 147 142 -1 5 2 7 7 4 5 -3 43 26 85 66 56 52 73 74
64 80 -9 6 -6 7 9 3 27 -7 100 64 80 78 -8 6 -6 7 6 3 12 -4 39 14 90 63 40
37 88 82 109 100 26 22 35 37 31 51 -3 12 0 20 7 20 7 0 10 -7 6 -15 -9 -23 8
-18 35 12 13 14 18 23 12 19 -9 -5 -11 -2 -7 8 3 9 10 13 16 10 13 -8 59 36
51 49 -3 6 -1 7 6 3 7 -4 29 9 54 32 82 77 162 150 195 177 17 15 29 31 26 36
-3 5 -2 8 3 7 4 -2 18 4 31 13 15 11 20 22 16 35 -5 16 -4 16 5 4 9 -13 19 -7
60 35 37 35 47 51 38 58 -7 5 -3 6 11 2 16 -5 22 -2 22 9 0 9 4 16 9 16 4 0
21 10 35 21 22 17 25 24 14 31 -9 7 -8 8 5 4 13 -4 35 10 75 48 31 29 80 75
109 101 29 26 49 53 47 60 -3 7 0 16 7 21 9 5 10 2 6 -9 -3 -10 -3 -17 2 -17
14 0 41 36 34 44 -5 4 -3 6 2 4 17 -5 77 50 69 63 -5 8 -3 9 5 4 15 -8 93 63
85 77 -3 5 -2 8 3 7 23 -4 33 3 30 22 -1 12 5 24 13 27 13 5 13 3 1 -11 -29
-35 5 -15 58 36 31 29 75 68 99 87 44 36 54 54 25 43 -16 -6 -16 -4 1 15 11
12 24 22 30 22 6 0 4 -4 -4 -10 -8 -5 -11 -12 -7 -16 4 -4 30 14 57 41 36 35
46 51 37 58 -7 5 -4 6 10 2 27 -7 100 64 80 78 -8 6 -6 7 6 3 12 -4 37 13 85
58 37 35 87 81 112 102 69 60 106 96 91 88 -9 -5 -12 -3 -7 4 4 7 13 12 20 12
19 0 139 114 142 135 3 20 35 58 42 50 3 -3 -5 -16 -18 -30 -38 -41 -12 -28
36 17 24 22 41 45 38 50 -3 5 -1 7 5 6 12 -4 130 93 130 107 1 16 -150 175
-160 169 -5 -3 -6 2 -3 10 9 25 1 20 -59 -35z"/>
</g>
</svg>
