<?xml version="1.0" standalone="no"?>
<!DOCTYPE svg PUBLIC "-//W3C//DTD SVG 20010904//EN"
 "http://www.w3.org/TR/2001/REC-SVG-20010904/DTD/svg10.dtd">
<svg version="1.0" xmlns="http://www.w3.org/2000/svg"
 width="2048.000000pt" height="2028.000000pt" viewBox="0 0 2048.000000 2028.000000"
 preserveAspectRatio="xMidYMid meet">
<metadata>
Created by potrace 1.16, written by Peter Selinger 2001-2019
</metadata>
<g transform="translate(0.000000,2028.000000) scale(0.100000,-0.100000)"
fill="#000000" stroke="none">
<path d="M15795 19833 c-11 -2 -38 -10 -60 -18 -23 -9 -94 -16 -170 -19 -119
-4 -188 -15 -362 -57 -46 -11 -60 -10 -125 9 -93 28 -198 40 -198 23 0 -9 -18
-10 -69 -5 -104 10 -153 -6 -349 -112 -287 -156 -307 -170 -380 -254 -37 -42
-74 -87 -82 -100 -8 -13 -22 -30 -32 -38 -9 -8 -14 -21 -11 -28 5 -15 -18 -54
-64 -107 -18 -20 -33 -43 -33 -51 0 -7 -6 -19 -14 -25 -13 -11 -125 -233 -126
-250 -1 -3 -9 -24 -20 -46 -11 -22 -19 -45 -20 -51 0 -7 -20 -65 -44 -130 -80
-219 -127 -380 -120 -409 5 -19 3 -26 -4 -21 -13 8 -29 -44 -39 -122 -3 -30
-11 -59 -18 -65 -6 -7 -14 -24 -17 -37 -3 -14 -15 -59 -26 -100 -11 -41 -23
-111 -26 -155 -7 -82 -12 -103 -52 -215 -26 -72 -43 -176 -25 -150 6 8 11 26
11 40 0 14 7 36 16 50 l15 25 -6 -30 c-16 -87 -34 -169 -44 -200 -9 -25 -10
-20 -6 30 4 53 3 55 -5 20 -5 -22 -9 -72 -8 -111 0 -38 -5 -88 -10 -110 -6
-21 -14 -82 -17 -134 -4 -52 -16 -151 -26 -219 -17 -102 -21 -186 -23 -458 -2
-188 0 -330 5 -327 5 3 9 -30 9 -73 1 -174 11 -400 19 -430 5 -18 5 -62 1
-100 -5 -37 -7 -77 -4 -88 3 -11 9 -81 15 -155 5 -74 13 -160 16 -190 4 -30 6
-88 5 -127 -1 -46 3 -73 10 -73 5 0 8 -6 5 -13 -2 -6 0 -60 5 -119 8 -93 7
-110 -6 -124 -9 -8 -16 -32 -16 -52 0 -20 -3 -48 -5 -62 -5 -22 -4 -22 4 -5 8
16 10 12 10 -22 1 -24 -3 -43 -8 -43 -11 0 -41 73 -42 103 0 12 -4 31 -9 42
-6 13 -7 -7 -3 -54 3 -43 2 -76 -4 -80 -5 -3 -6 -17 -2 -31 l7 -25 1 25 c1 23
3 23 12 7 6 -10 8 -28 5 -39 -3 -12 0 -30 5 -41 12 -22 4 -67 -13 -67 -6 0
-26 -16 -44 -36 -19 -19 -43 -36 -55 -37 -39 -3 -67 -67 -32 -73 24 -4 40 11
23 21 -5 3 -10 14 -10 23 0 13 2 14 9 4 6 -10 21 0 59 37 29 28 59 51 67 51 8
0 19 8 25 18 9 14 10 10 5 -18 -3 -19 -9 -55 -12 -80 -4 -26 -14 -52 -26 -62
-22 -20 -31 -23 -22 -8 3 6 -1 10 -9 10 -9 0 -16 -4 -16 -10 0 -5 -9 -10 -20
-10 -11 0 -20 -4 -20 -9 0 -5 -13 -14 -29 -21 -28 -11 -72 -50 -57 -50 3 0 26
9 51 21 24 11 49 18 54 14 7 -3 8 0 5 9 -3 9 -1 16 5 16 6 0 11 -4 11 -10 0
-16 22 -12 36 8 12 16 13 15 14 -5 0 -20 -6 -28 -45 -61 -8 -7 -15 -24 -15
-37 0 -15 -16 -41 -40 -66 -27 -29 -40 -51 -40 -71 0 -15 -4 -28 -8 -28 -15 0
-132 -180 -132 -204 0 -13 -7 -29 -15 -36 -12 -10 -15 -9 -15 6 -1 18 -1 18
-12 0 -7 -13 -8 -24 -1 -36 8 -12 6 -22 -8 -39 -14 -17 -19 -19 -19 -8 0 9 5
19 10 22 12 8 13 25 2 25 -14 0 -32 -48 -32 -83 0 -18 -5 -39 -11 -47 -8 -11
-9 -6 -4 20 l6 35 -20 -40 c-11 -22 -20 -50 -21 -62 0 -33 -11 -53 -27 -53
-10 0 -13 -6 -9 -16 3 -8 -1 -26 -10 -39 -8 -13 -16 -35 -17 -49 -1 -15 -9
-31 -17 -36 -13 -8 -12 -10 3 -10 22 0 22 -20 -2 -73 -10 -23 -23 -53 -29 -67
-10 -24 -11 -24 -12 10 0 30 -2 32 -11 17 -8 -13 -6 -29 5 -59 12 -30 13 -39
4 -35 -7 2 -12 11 -10 21 2 9 -1 16 -6 16 -12 0 -24 -29 -17 -41 3 -4 -6 -33
-20 -62 -14 -30 -25 -63 -25 -74 0 -11 -7 -40 -15 -63 -8 -23 -15 -54 -15 -69
0 -14 -11 -44 -25 -66 -26 -43 -31 -60 -15 -50 14 9 12 -8 -2 -24 -11 -11 -9
-12 7 -7 11 3 26 1 34 -3 15 -10 9 -45 -20 -119 -5 -13 -9 -32 -9 -42 0 -20
-52 -80 -70 -80 -5 0 -10 -4 -10 -10 0 -14 11 -12 34 5 22 17 36 19 36 7 0 -4
-18 -19 -40 -32 -22 -14 -42 -32 -45 -42 -3 -9 -18 -19 -32 -23 -15 -3 -40
-17 -56 -31 -16 -13 -33 -24 -38 -24 -5 0 -9 -7 -9 -15 0 -17 16 -20 25 -5 11
17 72 39 97 34 13 -2 17 -2 11 2 -18 8 -16 24 2 24 8 0 15 -4 15 -10 0 -5 7
-7 15 -4 11 5 15 -1 15 -24 0 -17 6 -33 13 -35 9 -4 9 -8 -2 -15 -8 -6 -19
-25 -25 -43 -6 -18 -17 -35 -25 -37 -8 -3 -11 0 -7 7 4 6 2 11 -4 11 -7 0 -9
-7 -6 -16 8 -22 -4 -40 -16 -23 -6 10 -8 5 -6 -15 2 -16 -2 -31 -10 -33 -7 -3
-10 1 -6 11 3 9 2 16 -3 16 -18 0 -22 -12 -10 -31 10 -16 8 -23 -16 -44 -15
-14 -27 -30 -27 -35 0 -10 -86 -95 -201 -200 -120 -110 -193 -187 -214 -227
-10 -21 -37 -56 -60 -79 -22 -22 -45 -47 -51 -55 -23 -30 -140 -132 -162 -140
-13 -5 -20 -14 -17 -19 4 -7 -3 -9 -22 -5 -22 5 -25 4 -13 -4 13 -10 13 -13
-2 -22 -10 -5 -18 -17 -18 -24 0 -8 -4 -15 -10 -15 -5 0 -10 -7 -10 -15 0 -9
-7 -18 -15 -21 -8 -4 -15 -12 -15 -18 0 -7 -9 -22 -20 -34 -11 -12 -20 -26
-20 -31 0 -6 -11 -18 -25 -27 -24 -15 -35 -44 -17 -44 18 0 62 26 62 36 0 16
34 44 53 44 12 0 7 -11 -21 -39 -34 -36 -162 -175 -204 -222 -20 -21 -23 -39
-8 -39 6 0 10 5 10 12 0 14 80 89 90 83 3 -2 21 13 38 35 23 26 38 37 51 33
10 -3 22 1 27 8 5 9 2 11 -9 6 -10 -3 -17 -3 -17 2 0 14 28 33 39 26 7 -4 8 0
5 10 -5 11 -2 16 7 14 28 -4 76 27 129 84 49 53 55 57 67 41 7 -10 13 -13 13
-7 0 6 8 13 18 17 9 3 23 9 30 12 7 3 12 -1 12 -9 0 -9 -4 -17 -8 -19 -5 -2
-12 -15 -15 -30 -5 -20 -3 -26 8 -24 15 2 55 44 55 58 0 4 8 8 18 8 9 0 23 10
31 23 10 17 11 19 0 10 -7 -7 -24 -13 -39 -12 -21 0 -19 2 15 17 37 15 105 75
149 132 24 32 98 115 139 158 36 37 174 123 227 141 29 10 37 9 46 -4 6 -8 17
-15 25 -15 8 0 -1 -13 -20 -29 -23 -19 -32 -33 -28 -45 4 -9 10 -16 14 -15 25
4 41 -3 46 -20 3 -12 17 -21 42 -25 25 -5 39 -14 42 -27 3 -10 13 -19 22 -19
9 0 22 -10 30 -21 10 -18 15 -19 22 -8 7 11 9 8 9 -8 0 -27 10 -28 104 -8 61
13 72 13 86 0 15 -14 99 -13 122 1 5 3 14 1 21 -4 20 -16 125 -21 131 -5 6 15
42 18 51 3 3 -5 12 -7 20 -4 9 4 18 -3 24 -17 l9 -24 11 28 c6 16 11 35 11 43
0 8 5 14 10 14 6 0 10 -12 10 -27 1 -24 2 -26 11 -10 6 9 14 15 20 12 5 -4 9
1 9 9 0 8 6 19 13 23 8 4 17 17 21 27 4 12 10 16 16 10 12 -12 13 -46 4 -91
-3 -18 -3 -33 1 -33 12 0 65 41 65 51 0 10 52 121 75 159 15 24 15 23 11 -25
-3 -27 -3 -41 0 -30 3 11 12 37 20 58 9 24 10 36 3 32 -7 -5 -10 0 -7 11 2 11
10 19 17 19 8 0 26 31 43 75 53 137 53 137 94 144 20 4 43 14 51 22 17 17 33
18 33 3 0 -13 36 -2 70 21 14 9 42 20 62 24 21 4 45 14 54 23 13 14 17 14 25
2 5 -9 9 -10 9 -2 0 6 13 18 28 26 23 11 32 12 46 1 13 -9 14 -13 4 -17 -9 -4
-7 -6 4 -6 10 -1 18 -11 21 -28 3 -21 4 -18 6 12 2 45 8 59 34 68 17 6 24 -7
8 -17 -5 -3 -11 -16 -14 -28 -5 -19 0 -16 28 14 26 27 35 33 35 20 0 -9 -8
-29 -18 -43 -9 -15 -30 -46 -46 -70 -16 -24 -49 -74 -73 -112 -25 -37 -43 -72
-41 -78 2 -6 14 9 28 33 34 62 119 176 138 187 11 6 24 4 40 -7 20 -13 25 -13
32 -1 42 67 60 66 61 -3 0 -68 10 -182 15 -187 2 -2 4 19 4 47 0 48 12 68 23
40 3 -7 6 -3 6 10 1 34 21 26 21 -9 0 -24 -4 -30 -15 -25 -9 3 -15 0 -15 -10
0 -11 6 -15 20 -11 12 3 23 -1 29 -10 6 -11 13 -13 25 -6 11 6 37 6 69 1 83
-14 117 -16 123 -7 3 5 23 9 45 9 21 0 39 4 39 9 0 10 47 21 55 13 3 -3 1 -10
-5 -16 -5 -7 -5 -18 0 -26 7 -11 10 -8 15 13 4 15 11 27 15 27 13 0 22 -38 15
-61 -5 -16 -3 -20 10 -17 18 3 29 17 40 53 4 14 8 16 14 7 4 -7 15 -10 26 -6
15 6 17 3 13 -24 -2 -17 -1 -29 4 -26 4 3 13 2 19 -1 14 -9 -29 -39 -56 -40
-23 0 -27 -25 -7 -41 12 -8 10 -13 -9 -26 -13 -8 -36 -18 -52 -22 -27 -6 -125
-48 -227 -96 -8 -4 -17 -17 -18 -30 -2 -14 0 -20 7 -16 6 4 11 16 11 27 0 16
5 18 25 13 15 -4 25 -2 25 5 0 18 28 13 39 -8 12 -22 -9 -45 -53 -55 -15 -4
-26 -10 -23 -13 9 -8 128 38 133 52 5 13 64 8 64 -5 0 -5 -22 -32 -50 -61 -55
-58 -59 -65 -30 -49 11 6 20 15 20 20 0 5 9 11 19 15 10 3 30 17 44 31 24 24
47 18 31 -8 -4 -7 -3 -8 4 -4 7 4 12 13 12 19 0 12 49 47 65 47 6 0 -45 -70
-73 -99 -17 -18 -7 -27 13 -11 25 20 19 -11 -9 -49 -13 -18 -30 -46 -36 -62
-8 -17 -20 -29 -31 -29 -11 0 -19 -4 -19 -10 0 -5 -7 -7 -15 -4 -8 4 -15 1
-15 -5 0 -6 -10 -22 -22 -37 -13 -14 -26 -34 -30 -44 -6 -17 -3 -19 35 -16 46
3 137 40 137 55 0 5 14 16 30 25 32 15 42 2 18 -22 -9 -9 -8 -15 8 -26 10 -8
15 -18 11 -22 -4 -5 11 -13 33 -20 37 -11 45 -10 84 12 24 13 55 35 70 49 15
14 31 25 35 25 5 0 12 7 15 16 4 11 13 14 30 10 14 -3 27 -2 30 3 12 19 133
79 172 86 36 5 42 4 47 -14 9 -37 122 -30 177 10 33 25 70 18 70 -13 0 -14 5
-18 16 -14 45 17 64 18 64 2 0 -9 -7 -16 -15 -16 -8 0 -15 -4 -15 -10 0 -13 7
-12 54 4 21 7 43 21 48 30 5 9 13 16 18 16 11 0 0 -32 -14 -42 -23 -16 15 -8
39 8 14 9 25 13 25 9 0 -6 73 51 130 102 14 13 30 23 37 23 7 0 13 7 13 15 0
11 7 14 25 9 21 -5 32 0 60 32 31 35 34 37 35 17 0 -35 13 -27 34 19 l18 42
14 -24 c13 -24 13 -23 14 21 0 25 7 67 16 93 16 46 17 47 29 23 10 -20 10 -39
-2 -103 -8 -43 -19 -83 -24 -88 -5 -6 -9 -18 -9 -27 0 -27 -59 -197 -81 -232
-10 -18 -19 -39 -19 -48 0 -9 -6 -22 -14 -28 -16 -14 -49 -101 -38 -101 12 0
42 39 42 53 0 7 13 33 28 58 15 24 34 63 41 87 8 23 18 42 23 42 17 0 11 -23
-50 -175 -11 -27 -25 -51 -31 -53 -6 -2 -11 -10 -11 -17 0 -7 -10 -26 -22 -42
-32 -40 -48 -70 -48 -90 0 -10 -11 -30 -25 -45 -14 -15 -25 -31 -25 -35 0 -4
-30 -39 -65 -78 -36 -38 -65 -75 -65 -82 0 -7 -10 -17 -22 -24 -19 -10 -20
-12 -4 -21 9 -5 25 -6 36 -3 15 5 23 -1 34 -27 9 -20 15 -26 15 -15 1 9 7 17
15 17 7 0 19 7 26 15 19 23 99 75 116 75 7 0 14 5 14 10 0 6 4 10 9 10 9 0 1
-45 -14 -85 -7 -18 -5 -17 19 5 14 13 24 30 22 37 -8 19 4 43 21 43 10 0 13
-6 9 -15 -10 -28 28 5 73 63 23 28 46 52 51 52 14 0 21 -18 10 -25 -6 -4 -16
-17 -21 -28 -5 -12 -18 -37 -30 -56 -11 -18 -18 -41 -16 -50 3 -11 7 -7 16 14
12 28 27 45 43 45 4 0 -6 -23 -22 -50 -34 -57 -39 -86 -14 -76 11 4 18 -1 21
-14 6 -22 18 -26 29 -9 4 7 22 9 46 6 35 -5 44 -2 64 21 l23 27 -6 -38 c-4
-24 -2 -37 6 -37 6 0 11 12 11 27 0 20 3 24 11 16 9 -9 9 -19 0 -42 -14 -32
-31 -101 -25 -101 2 0 17 28 34 63 22 43 30 53 25 30 -4 -18 -1 -39 6 -51 9
-14 9 -24 1 -38 -11 -18 -11 -17 -13 6 l-1 25 -8 -25 c-10 -33 -12 -58 -2 -45
4 6 14 10 22 10 8 0 24 14 35 32 11 18 25 32 31 33 6 0 14 19 17 43 2 23 11
56 18 72 l13 30 5 -44 c7 -53 20 -42 39 32 9 34 9 52 1 65 -8 12 -7 36 4 87
11 51 17 65 22 51 5 -11 3 -27 -3 -37 -12 -20 -16 -62 -6 -71 3 -3 7 -131 10
-283 2 -153 8 -283 12 -289 5 -6 9 -27 11 -46 1 -19 6 -39 11 -44 15 -15 12
-29 -6 -22 -8 3 -12 2 -9 -3 11 -19 -24 -26 -145 -27 -69 -1 -138 -6 -155 -12
-27 -11 -23 -11 30 -8 33 2 106 -1 163 -6 l103 -11 57 40 c31 22 72 44 90 48
37 8 47 45 12 45 -11 0 -24 8 -27 17 -6 15 -7 15 -15 -3 -6 -13 -7 -10 -2 11
7 38 24 57 24 28 0 -12 4 -24 9 -28 6 -3 7 17 4 50 -5 47 -3 55 11 55 9 0 21
-10 26 -22 8 -22 9 -22 11 -3 8 81 5 112 -35 370 -16 103 -21 379 -6 370 4 -2
6 57 4 132 -3 105 -1 141 10 157 14 23 11 155 -4 186 -10 18 7 192 19 199 13
9 31 150 37 296 6 119 8 167 12 204 2 11 6 11 21 -3 21 -19 28 -13 26 24 -11
153 -8 390 5 440 5 19 14 68 21 108 6 39 14 70 19 67 4 -3 10 14 14 38 12 93
23 154 34 187 6 19 23 74 37 122 14 48 32 94 41 103 9 9 17 36 18 63 3 47 83
294 98 300 4 2 8 18 8 35 0 30 22 115 51 197 7 19 14 42 16 50 3 12 6 12 13 1
6 -11 9 -10 13 5 2 10 6 1 7 -21 1 -22 8 -56 16 -75 l14 -35 -5 36 c-12 81
-16 279 -5 279 5 0 10 9 10 20 0 11 5 20 10 20 12 0 13 -27 1 -34 -5 -3 -8
-36 -8 -73 1 -38 3 -60 5 -50 2 9 7 17 11 17 4 0 13 11 19 25 15 32 15 38 1
29 -8 -5 -10 3 -5 27 16 82 24 156 19 177 -3 13 -1 22 7 22 7 0 10 -7 7 -14
-4 -10 -1 -13 7 -10 13 5 30 -27 39 -71 4 -18 5 -18 12 -2 4 10 0 32 -10 54
-14 30 -16 51 -11 117 4 45 11 85 16 90 6 6 10 23 10 38 0 16 7 44 14 63 17
39 15 42 -8 19 -15 -14 -16 -5 -16 103 0 122 23 246 112 598 36 144 56 391 48
588 -3 71 -3 152 0 181 3 29 5 95 5 148 0 53 3 91 7 85 5 -7 8 -3 8 11 0 13
-4 20 -10 17 -6 -4 -10 17 -9 57 1 50 3 57 9 33 4 -16 8 113 9 288 0 174 -3
317 -8 317 -4 0 -6 -53 -3 -117 2 -65 2 -115 -2 -112 -4 4 -8 112 -10 240 -3
206 -2 229 10 194 12 -36 13 -27 9 100 -4 139 -14 204 -71 445 -14 58 -31 134
-40 170 -8 36 -28 124 -45 195 -16 72 -53 240 -80 375 -60 293 -102 479 -123
539 -9 24 -16 59 -16 77 0 19 -4 34 -10 34 -5 0 -10 7 -10 16 0 9 -6 28 -14
42 -8 15 -31 63 -51 107 -68 148 -99 207 -130 243 -17 21 -42 55 -57 78 -35
54 -397 419 -425 428 -12 4 -25 15 -28 25 -11 35 -221 129 -530 238 -135 47
-281 71 -350 56z m-825 -773 c8 -9 21 -15 28 -13 6 3 12 0 12 -6 0 -13 32 -51
43 -51 4 0 5 5 2 10 -3 6 -2 10 4 10 5 0 16 2 23 5 9 4 19 -4 26 -20 12 -26
38 -25 28 1 -8 20 11 18 22 -2 5 -9 15 -14 21 -10 6 4 9 12 6 17 -4 5 -2 9 4
9 5 0 12 -6 14 -12 3 -7 6 -4 6 7 1 15 4 16 13 7 7 -7 20 -12 30 -12 10 0 21
-7 24 -15 4 -10 20 -15 45 -15 34 0 39 -3 39 -22 0 -25 15 -14 24 17 3 11 3 3
0 -18 -4 -33 -2 -39 15 -44 12 -3 21 -9 21 -14 0 -5 11 -9 25 -9 27 0 33 -18
13 -39 -11 -11 -9 -12 10 -6 14 4 22 2 22 -5 0 -7 7 -9 16 -6 13 5 15 1 12
-18 -3 -14 -2 -42 2 -63 l8 -38 1 45 c2 61 17 33 25 -48 7 -77 14 -91 33 -67
12 17 13 16 14 -16 0 -19 7 -50 14 -69 12 -32 14 -33 15 -10 2 21 3 22 7 5 3
-11 14 -30 24 -43 12 -16 16 -33 13 -51 -4 -18 2 -40 15 -64 12 -21 21 -52 21
-70 0 -18 9 -50 20 -72 23 -46 23 -45 9 -45 -18 0 -59 -43 -59 -62 0 -10 7
-18 15 -18 22 0 18 -18 -5 -25 -11 -3 -20 -10 -20 -15 0 -5 9 -12 20 -15 14
-4 20 -15 20 -36 0 -28 -2 -29 -45 -29 -25 0 -89 -7 -143 -16 -53 -9 -111 -17
-128 -18 -18 -1 -39 -8 -49 -16 -14 -12 -18 -12 -26 1 -6 9 -9 -1 -9 -33 0
-26 -4 -50 -10 -53 -6 -4 -10 14 -11 47 0 48 -1 51 -12 28 -6 -14 -16 -28 -21
-31 -5 -4 -6 -14 -3 -23 11 -29 -23 -18 -35 12 -11 26 -12 26 -15 5 -3 -13 2
-32 10 -44 13 -18 13 -25 0 -56 -13 -32 -13 -37 2 -52 13 -13 17 -14 24 -2 6
9 15 11 27 6 11 -5 24 -7 29 -5 6 1 17 4 25 5 48 6 139 29 160 40 53 28 212
47 241 30 6 -5 30 -7 52 -7 22 1 47 -4 55 -10 8 -7 27 -11 43 -10 29 4 29 3
29 -55 0 -61 -17 -89 -65 -107 -19 -8 -19 -8 3 -17 20 -8 21 -11 10 -31 -7
-13 -14 -24 -15 -26 0 -2 -30 3 -65 12 -101 24 -303 8 -325 -27 -4 -7 0 -8 13
-2 65 27 94 16 94 -37 0 -25 -3 -28 -36 -28 -29 0 -43 7 -68 34 -28 31 -33 33
-50 20 -19 -13 -19 -14 7 -14 15 0 27 -5 27 -12 0 -6 10 -23 23 -36 l22 -25
-41 6 c-37 4 -41 3 -37 -14 3 -11 0 -19 -7 -19 -7 0 -26 -12 -43 -26 -17 -14
-47 -32 -68 -40 -44 -18 -78 -73 -53 -87 8 -4 19 -5 25 -1 22 13 130 13 163
-1 18 -8 36 -11 40 -8 3 4 6 -6 6 -20 0 -32 25 -37 33 -6 7 25 27 16 27 -11 0
-26 10 -50 22 -50 13 0 38 26 38 39 0 12 6 13 38 5 15 -4 22 -14 22 -30 0 -28
17 -31 36 -6 13 16 13 16 14 0 0 -10 7 -18 15 -18 12 0 14 7 9 28 -7 30 2 25
21 -10 9 -18 18 -22 44 -20 19 1 39 -2 47 -8 9 -8 24 -8 51 -1 25 7 39 7 41 1
2 -6 12 -10 22 -10 24 0 43 -26 37 -51 -3 -12 -1 -19 6 -16 6 2 14 14 18 28
l7 24 2 -25 c1 -17 4 -20 8 -10 10 25 28 -90 25 -159 -1 -35 -7 -69 -12 -74
-11 -11 -4 -37 10 -37 5 0 9 9 9 20 0 11 4 20 8 20 8 0 34 -185 31 -220 -1 -8
-7 3 -15 25 l-14 40 6 -45 c4 -25 10 -83 14 -130 4 -47 8 -74 9 -60 l2 25 13
-25 c24 -45 65 -284 68 -394 1 -68 1 -69 7 -21 5 42 7 46 13 25 4 -14 8 -39 8
-55 0 -17 7 -57 15 -88 25 -96 18 -293 -14 -416 -24 -91 -40 -111 -35 -44 l4
48 -20 -60 c-11 -33 -20 -67 -20 -76 0 -9 -7 -22 -15 -29 -8 -7 -15 -19 -15
-26 0 -8 -6 -14 -13 -14 -22 0 -78 -31 -84 -46 -3 -7 -14 -16 -24 -19 -11 -4
-31 -17 -44 -31 -13 -13 -29 -24 -34 -24 -6 0 -15 -9 -21 -20 -6 -11 -17 -20
-25 -20 -8 0 -15 -8 -15 -17 0 -9 -3 -14 -6 -10 -7 7 -100 -38 -109 -53 -4 -7
-30 -8 -71 -4 -37 4 -64 3 -62 -2 4 -15 -13 -54 -23 -54 -5 0 -9 5 -9 11 0 7
-9 9 -22 6 -12 -3 -41 -1 -65 6 -38 10 -48 9 -78 -7 -19 -11 -35 -25 -35 -32
0 -7 -20 -22 -44 -34 -24 -11 -50 -28 -56 -36 -7 -7 -20 -14 -30 -14 -9 0 -31
-7 -48 -15 -17 -9 -55 -19 -84 -22 -29 -3 -55 -10 -58 -14 -3 -4 -62 -9 -130
-10 -69 -2 -132 -8 -142 -13 -26 -15 -194 19 -240 49 -20 14 -40 25 -43 25 -3
0 -36 20 -73 44 -80 53 -216 188 -309 309 -65 82 -89 120 -154 245 -15 30 -32
59 -37 65 -5 7 -12 23 -15 37 -5 24 -31 93 -67 175 -10 22 -20 61 -23 86 -4
26 -13 66 -22 90 -22 61 -83 260 -105 344 -36 139 -45 211 -44 355 0 163 15
236 79 401 22 56 39 119 42 157 4 44 10 62 20 62 23 0 53 -19 53 -34 0 -16 47
-49 59 -41 5 2 12 -2 15 -11 4 -10 11 -12 21 -6 19 10 75 4 75 -9 0 -4 14 -3
32 3 23 8 33 8 36 0 2 -8 11 -8 29 -1 26 10 47 4 38 -12 -4 -5 -1 -9 4 -9 6 0
11 7 11 15 0 8 5 15 10 15 6 0 10 -7 10 -15 0 -16 16 -20 24 -6 8 12 56 20 56
10 0 -5 6 -9 14 -9 8 0 16 -3 19 -7 2 -5 2 -1 -1 7 -8 28 -12 55 -6 43 9 -19
21 -16 27 8 3 12 10 18 16 15 5 -4 12 -2 16 4 3 5 15 10 27 10 17 0 18 3 9 14
-7 8 -11 32 -9 53 2 31 7 38 26 39 13 1 22 -5 22 -14 0 -12 3 -12 15 -2 12 10
16 9 21 -4 7 -18 -12 -46 -31 -46 -7 0 -15 -6 -18 -13 -3 -9 6 -11 34 -9 28 3
39 9 40 21 0 10 2 11 6 4 7 -19 20 -16 26 7 3 14 -5 27 -29 45 -42 32 -43 43
-4 37 24 -3 30 -1 30 14 0 28 -10 38 -55 56 -171 69 -156 66 -185 36 -16 -17
-20 -19 -20 -6 0 9 6 19 13 21 9 4 8 8 -3 16 -21 15 -30 13 -24 -4 9 -22 -14
-18 -26 5 -16 31 -30 24 -30 -15 0 -31 -2 -34 -22 -26 -13 4 -27 18 -33 29 -5
12 -18 22 -28 22 -16 0 -17 -5 -12 -31 6 -26 4 -30 -11 -27 -10 2 -24 14 -30
26 -6 13 -17 29 -24 35 -9 9 -10 5 -4 -18 7 -32 7 -33 5 -53 -2 -20 -40 4 -53
34 -12 27 -28 32 -28 9 0 -8 4 -15 9 -15 5 0 11 -10 14 -22 5 -21 4 -20 -19 6
-14 15 -28 25 -31 22 -4 -3 6 -20 22 -36 32 -33 31 -34 -7 -44 -21 -5 -32 -1
-45 14 -10 11 -21 20 -25 20 -14 0 -8 -31 7 -36 8 -4 15 -12 15 -20 0 -15 -16
-19 -24 -5 -7 10 -54 2 -62 -11 -3 -5 0 -16 7 -25 11 -13 10 -17 -6 -29 -17
-13 -21 -13 -32 2 -29 40 -28 253 2 311 8 15 15 33 15 39 0 20 66 71 126 96
51 22 73 25 146 23 47 -1 92 -6 99 -11 18 -11 32 -13 91 -16 25 -2 44 -6 42
-10 -7 -11 18 -22 25 -11 7 12 41 13 41 1 0 -4 5 -8 10 -8 17 0 11 14 -20 48
-35 39 -36 42 -12 42 10 0 27 -18 42 -44 13 -25 28 -42 32 -40 5 3 6 10 2 15
-3 6 -3 18 1 27 6 15 8 13 16 -7 7 -17 13 -21 20 -14 7 7 3 24 -12 54 -27 53
-37 61 -60 48 -24 -12 -29 -11 -29 4 0 8 -9 22 -20 32 -24 22 -27 9 -3 -17 23
-26 11 -32 -16 -7 -12 11 -29 18 -37 15 -8 -3 -12 -2 -9 3 3 5 0 13 -6 17 -18
10 -168 14 -194 4 -16 -6 -25 -5 -28 3 -2 8 -11 7 -29 -5 -14 -9 -41 -20 -61
-23 -20 -4 -41 -13 -48 -21 -6 -8 -16 -14 -21 -14 -15 0 -38 -27 -38 -44 0 -9
-4 -16 -9 -16 -5 0 -16 -7 -25 -15 -8 -8 -17 -12 -19 -8 -6 9 38 184 57 227
32 74 75 183 81 206 4 14 13 35 21 46 7 12 22 49 34 83 42 125 110 262 173
347 18 24 45 60 60 82 15 21 51 56 79 78 28 21 58 46 67 54 27 25 63 45 116
64 28 11 57 24 65 30 35 26 63 37 81 31 12 -4 21 -1 25 10 5 13 17 15 67 11
45 -4 67 -2 84 9 13 9 23 12 23 7 0 -7 41 -9 65 -2 6 1 21 1 34 0 16 -1 21 2
16 10 -11 18 37 1 55 -20z m586 -1675 c0 -28 6 -60 12 -72 26 -48 20 -49 -129
-29 -62 9 -82 44 -43 77 8 6 14 17 14 24 0 15 22 25 53 25 12 0 31 7 42 16 35
26 50 14 51 -41z m-1476 -7 c0 -38 7 -65 25 -97 14 -23 25 -46 25 -50 0 -16
-137 3 -192 27 -39 16 -55 56 -21 50 11 -2 19 5 21 17 5 27 40 63 82 85 55 28
60 26 60 -32z m1120 -2682 c0 -10 21 -16 79 -21 l80 -7 3 -31 c3 -31 4 -32 48
-30 159 5 275 15 284 22 6 5 34 12 62 16 l52 7 -6 -27 c-3 -20 -9 -25 -23 -22
-16 4 -19 -1 -19 -39 0 -42 1 -44 30 -44 18 0 30 -5 30 -13 0 -21 -24 -48 -45
-51 -11 -2 -18 -10 -16 -17 11 -40 5 -52 -36 -67 -45 -17 -44 -12 -27 -113 4
-27 1 -40 -12 -54 -10 -10 -19 -25 -19 -34 0 -9 -10 -17 -22 -19 -35 -5 -27
-22 9 -19 31 2 36 8 57 61 16 39 25 26 26 -39 0 -40 -4 -56 -14 -60 -13 -5
-13 -7 -1 -15 16 -10 16 -10 -55 -30 -100 -28 -165 -43 -225 -50 -48 -6 -79
-16 -117 -41 -69 -44 -69 -59 0 -16 36 22 70 34 112 39 190 21 244 31 288 53
27 13 55 21 62 18 8 -3 26 5 41 16 15 12 35 21 45 21 11 0 19 7 19 15 0 13 6
17 26 14 4 0 10 4 14 11 4 6 18 12 31 13 13 1 34 8 47 15 21 12 33 0 12 -13
-6 -4 -9 -12 -8 -18 1 -7 -6 -33 -16 -59 -20 -51 -41 -55 -34 -6 3 16 2 31 -2
33 -4 2 -13 -34 -19 -80 -7 -47 -18 -89 -25 -93 -35 -22 -64 -122 -36 -122 6
0 10 12 10 28 l1 27 14 -25 c13 -23 12 -26 -10 -34 -24 -10 -53 -61 -41 -73 4
-4 9 3 13 15 6 24 23 30 23 8 0 -8 -7 -16 -15 -20 -18 -7 -36 -49 -40 -93 -2
-21 -15 -45 -34 -64 -17 -17 -31 -36 -31 -43 0 -8 -9 -25 -20 -39 -22 -27 -26
-42 -10 -32 6 3 10 -4 10 -16 0 -18 -2 -19 -15 -9 -13 11 -15 9 -13 -11 2 -15
-2 -23 -10 -21 -7 1 -12 -5 -10 -15 2 -10 -2 -17 -9 -16 -7 2 -22 -15 -33 -37
-11 -22 -25 -40 -30 -40 -5 0 -28 -31 -51 -70 -23 -38 -45 -70 -49 -70 -5 0
-12 -9 -15 -20 -3 -11 -12 -20 -19 -20 -12 0 -26 -11 -88 -68 -19 -18 -31 -22
-40 -15 -10 7 -30 -8 -76 -54 -50 -50 -59 -63 -43 -63 31 0 25 -14 -14 -33
-19 -9 -35 -13 -35 -7 0 5 5 12 10 15 6 3 10 11 10 17 0 7 -4 7 -13 -1 -8 -6
-16 -8 -20 -5 -3 3 -10 -3 -16 -14 -6 -11 -24 -23 -40 -27 -16 -3 -35 -13 -42
-21 -6 -8 -17 -14 -24 -14 -7 0 -15 -7 -19 -15 -3 -8 -12 -15 -20 -15 -8 0
-23 -11 -34 -25 -11 -14 -27 -25 -36 -25 -9 0 -16 -4 -16 -9 0 -5 -16 -12 -35
-15 -19 -4 -35 -11 -35 -16 0 -5 -15 -16 -32 -25 -18 -8 -51 -31 -73 -51 -21
-21 -60 -47 -86 -59 -26 -12 -63 -35 -82 -51 -82 -69 -102 -84 -109 -84 -4 0
-8 -4 -8 -10 0 -5 15 -1 33 9 18 10 47 22 64 25 23 5 34 15 42 37 13 38 31 37
31 -1 0 -24 -8 -36 -40 -58 -39 -27 -54 -49 -25 -38 9 3 15 0 15 -9 0 -8 -4
-15 -8 -15 -4 0 -24 -12 -43 -26 -27 -21 -30 -25 -11 -21 l23 5 -22 -36 c-12
-21 -28 -44 -35 -52 -6 -8 -14 -24 -16 -35 -2 -12 -14 -22 -30 -25 -14 -3 -37
-18 -50 -35 -12 -16 -17 -26 -10 -21 8 5 12 0 11 -16 0 -23 -102 -119 -134
-126 -8 -2 -15 -8 -15 -13 0 -6 -13 -22 -30 -36 -16 -13 -30 -30 -30 -37 0
-25 -180 -164 -222 -173 -15 -3 -48 -24 -72 -46 -43 -38 -106 -59 -106 -35 0
5 -6 8 -12 6 -7 -3 -13 -10 -13 -15 0 -27 -13 -21 -19 8 -3 18 -4 34 -1 37 3
3 5 -3 5 -13 0 -15 4 -14 24 8 14 15 27 36 31 47 3 11 11 20 16 20 6 0 8 4 5
8 -3 5 6 15 19 22 13 7 29 27 35 45 6 18 29 50 51 71 55 54 66 74 39 74 -13 0
-20 -7 -20 -20 0 -19 -10 -24 -37 -21 -7 1 -13 -5 -13 -13 0 -18 -43 -32 -61
-20 -9 5 -10 -3 -5 -32 6 -36 5 -38 -9 -20 -8 11 -15 17 -15 14 0 -4 -3 -14
-7 -24 -4 -12 -3 -15 5 -10 7 4 12 3 12 -3 0 -5 -4 -13 -10 -16 -5 -3 -10 -12
-10 -20 0 -17 -41 -88 -47 -82 -3 4 15 53 37 97 4 8 2 23 -4 33 -8 13 -6 26
12 60 12 23 22 49 22 58 0 8 7 24 15 35 14 18 14 18 15 -8 0 -16 5 -28 10 -28
6 0 10 9 10 19 0 11 5 23 10 26 6 3 10 18 10 32 0 20 3 23 14 14 11 -9 14 -3
19 33 8 53 40 123 107 231 28 44 57 95 65 113 9 18 23 40 33 50 20 21 82 146
82 167 0 8 7 35 16 61 9 26 17 74 19 106 3 33 8 65 14 72 5 6 30 76 56 156 52
161 51 159 93 250 39 85 39 83 57 244 17 144 46 295 89 454 14 52 22 100 19
108 -3 8 0 14 6 14 6 0 11 9 11 20 0 27 27 25 41 -2 6 -13 24 -33 40 -46 34
-28 36 -40 9 -92 -11 -22 -20 -43 -20 -48 0 -5 25 -26 55 -46 57 -40 89 -81
101 -131 4 -16 9 -34 11 -38 8 -14 33 15 32 37 0 11 -3 15 -6 9 -9 -23 -21
-14 -27 21 -4 19 -16 46 -27 60 -11 14 -17 31 -13 37 4 7 3 9 -3 6 -6 -4 -16
0 -23 8 -11 13 -10 18 6 29 17 13 17 17 4 40 -10 20 -11 29 -2 38 9 9 12 7 12
-10 0 -36 34 -27 49 13 7 19 10 39 6 45 -3 5 2 24 12 42 13 25 18 29 21 16 5
-24 19 -23 34 2 9 14 24 20 50 20 44 0 47 11 18 55 -26 40 -27 65 -2 42 23
-21 28 -21 36 -1 10 25 -12 56 -35 49 -11 -4 -19 -2 -19 4 0 6 5 11 11 11 12
0 8 91 -6 124 -7 17 -4 18 23 14 22 -3 32 0 32 9 0 7 -11 13 -25 13 -22 0 -25
4 -25 38 0 26 -6 41 -20 50 -25 15 -26 44 -2 59 15 9 21 7 30 -8 15 -23 19
-23 67 -3 l37 15 -21 23 -22 23 36 22 c20 12 53 21 75 21 31 0 38 3 34 15 -4
8 -1 15 5 15 6 0 11 -6 11 -14z"/>
<path d="M14970 16529 c-19 -5 -53 -6 -75 -3 -30 4 -36 2 -25 -5 12 -9 9 -11
-15 -11 -44 0 -59 -13 -51 -44 7 -27 24 -32 61 -17 11 5 25 4 32 -1 9 -7 26
-7 52 0 23 5 58 6 83 2 25 -5 44 -5 46 1 2 5 15 9 28 9 20 0 24 5 24 33 0 24
-3 28 -10 17 -5 -8 -10 -10 -10 -4 0 28 -72 40 -140 23z"/>
<path d="M14866 16113 c-1 -1 -24 -4 -50 -4 -44 -2 -74 -18 -48 -27 15 -5 16
-42 2 -42 -5 0 -10 -7 -10 -16 0 -10 -6 -14 -14 -11 -7 3 -23 -1 -35 -9 -19
-14 -21 -13 -27 12 -6 22 -9 25 -18 13 -6 -8 -30 -21 -53 -28 -46 -15 -108
-66 -98 -81 8 -13 45 -13 45 1 0 5 5 7 10 4 6 -4 8 -11 5 -16 -4 -5 6 -8 21
-7 15 2 29 -2 31 -8 2 -6 17 -8 33 -6 23 3 30 0 30 -12 0 -19 16 -21 23 -3 4
8 6 6 6 -4 1 -19 33 -17 144 8 96 21 200 32 211 21 15 -13 -26 -39 -41 -26
-23 19 -15 -27 8 -48 19 -17 19 -19 3 -31 -10 -7 -26 -13 -35 -13 -10 0 -19
-5 -21 -11 -4 -13 -100 -20 -115 -7 -18 14 -53 0 -53 -23 0 -10 -7 -19 -15
-19 -10 0 -15 10 -15 30 0 20 -5 30 -15 30 -17 0 -55 -35 -55 -50 0 -13 13
-13 28 2 9 9 13 7 18 -5 4 -12 18 -17 45 -17 34 0 39 3 40 23 0 14 3 17 6 7
14 -34 30 -38 134 -37 57 1 107 6 111 11 3 5 15 10 25 11 10 0 24 4 31 9 7 4
19 2 27 -4 8 -7 15 -8 15 -3 0 5 35 20 78 33 42 13 86 29 97 36 20 12 75 26
106 25 9 0 21 11 28 25 8 19 18 24 50 24 58 0 70 21 37 65 -35 45 -64 64 -106
69 -19 2 -36 9 -38 15 -2 6 -8 9 -13 5 -5 -3 -9 -2 -9 3 0 4 -22 8 -49 9 -27
0 -68 7 -92 16 -67 24 -197 51 -218 45 -11 -2 -39 -1 -63 3 -29 6 -45 5 -50
-3 -6 -9 -11 -8 -18 3 -8 12 -64 22 -74 13z"/>
<path d="M3880 18095 l0 -1055 3800 0 3800 0 0 1055 0 1055 -3800 0 -3800 0 0
-1055z m1109 224 c35 -144 73 -309 84 -366 21 -104 29 -112 41 -38 3 22 41
181 83 353 l78 312 51 0 52 0 6 -62 c3 -35 10 -189 16 -343 6 -154 13 -331 16
-392 l7 -113 -40 0 -40 0 -7 98 c-3 53 -9 220 -13 370 -3 150 -10 275 -15 278
-4 3 -8 -3 -8 -13 0 -19 -153 -644 -171 -699 -9 -29 -12 -31 -41 -25 -27 6
-34 13 -40 41 -4 19 -28 123 -53 230 -26 107 -59 257 -75 333 -15 76 -31 141
-34 144 -3 4 -6 -36 -6 -89 0 -80 -14 -443 -23 -613 l-3 -50 -39 -3 -38 -3 7
163 c10 253 26 575 32 666 l6 82 52 0 52 0 63 -261z m3339 214 l-3 -48 -128
-3 -128 -3 3 -142 3 -142 123 -3 122 -3 0 -44 0 -44 -122 -3 -123 -3 0 -160 0
-160 135 -5 135 -5 3 -47 3 -48 -180 0 -181 0 0 455 0 455 171 0 170 0 -3 -47z
m-1531 -215 c21 -13 43 -41 64 -84 28 -56 33 -78 37 -164 l5 -100 -162 0
c-122 0 -161 -3 -161 -12 1 -32 29 -130 44 -154 10 -14 37 -34 60 -45 42 -18
90 -16 164 6 19 6 22 4 22 -18 0 -14 3 -32 6 -41 9 -23 -60 -48 -136 -50 -110
-2 -170 43 -210 158 -25 71 -28 261 -5 340 47 162 161 231 272 164z m494 1
c14 -10 34 -36 44 -58 l18 -40 27 42 c35 55 69 77 121 77 55 0 91 -27 120 -92
23 -51 24 -64 27 -315 l3 -263 -40 0 -41 0 0 229 c0 232 -8 290 -42 324 -40
40 -95 24 -129 -36 -23 -41 -24 -50 -27 -279 l-3 -238 -39 0 -39 0 -3 243 c-3
209 -5 247 -21 278 -35 70 -101 71 -146 2 -30 -47 -41 -140 -41 -338 1 -82 1
-158 0 -168 0 -15 -7 -18 -37 -15 l-38 3 -3 328 -3 328 38 -3 c30 -2 38 -7 39
-23 3 -68 4 -71 16 -50 48 87 129 113 199 64z m2496 -23 c55 -59 63 -109 63
-383 l0 -243 -39 0 -39 0 -4 243 c-3 267 -7 286 -65 320 -32 18 -34 18 -70 0
-72 -35 -78 -57 -81 -325 l-3 -238 -40 0 -39 0 -2 265 c-1 146 -2 293 -3 328
l0 62 35 0 c34 0 35 -1 40 -45 l5 -44 19 29 c29 44 44 57 83 70 51 17 101 3
140 -39z m458 25 c64 -36 101 -129 107 -266 l3 -80 -157 -3 -158 -3 0 -42 c0
-23 9 -62 20 -86 42 -92 116 -122 210 -85 23 9 43 15 45 13 2 -2 5 -21 7 -43
3 -37 1 -39 -42 -56 -120 -50 -232 -3 -289 120 -34 74 -43 264 -16 356 48 169
156 239 270 175z m-4459 -1 c37 -23 74 -92 80 -148 2 -20 5 -142 8 -270 l5
-233 -37 3 c-34 3 -37 6 -40 35 l-3 32 -39 -39 c-62 -62 -132 -65 -187 -7 -79
83 -70 252 17 331 39 35 119 66 172 66 24 0 28 4 28 28 0 118 -78 166 -180
113 -43 -22 -43 -22 -54 30 -5 21 0 31 22 45 38 26 59 32 121 33 38 1 63 -5
87 -19z m434 -35 c0 -53 -1 -55 -27 -55 -36 -1 -69 -29 -90 -77 -14 -31 -18
-78 -21 -260 l-4 -223 -39 0 -39 0 -2 310 c-1 171 -2 318 -2 328 -1 13 7 17
34 17 l35 0 5 -60 c5 -55 6 -57 13 -27 13 49 67 102 106 102 31 0 31 0 31 -55z
m173 -288 l2 -327 -42 0 -43 0 0 331 0 330 40 -3 41 -3 2 -328z m2367 293 c0
-22 -8 -54 -18 -72 -10 -18 -54 -100 -97 -183 -43 -82 -93 -175 -111 -207 -18
-31 -30 -59 -27 -62 4 -3 62 -6 130 -6 l123 0 0 -45 0 -45 -182 2 -181 3 -4
28 c-4 28 11 60 183 379 41 75 74 139 74 142 0 3 -53 7 -117 8 l-118 3 -3 33
c-6 63 -9 62 178 62 l170 0 0 -40z m400 -2 c0 -32 -15 -70 -66 -167 -37 -69
-89 -169 -117 -221 -27 -52 -54 -99 -58 -104 -5 -6 -9 -16 -9 -23 0 -10 30
-13 131 -13 l130 0 -3 -42 -3 -43 -182 -3 -183 -2 0 36 c0 27 28 89 109 244
61 114 120 223 131 244 l22 36 -121 0 -121 0 0 50 0 50 170 0 170 0 0 -42z
m170 -288 l0 -330 -40 0 -40 0 0 330 0 330 40 0 40 0 0 -330z"/>
<path d="M6658 18237 c-14 -12 -32 -33 -39 -47 -17 -34 -38 -118 -31 -124 3
-3 56 -6 119 -6 l113 0 0 33 c0 52 -19 103 -49 136 -35 38 -75 40 -113 8z"/>
<path d="M10114 18241 c-34 -20 -74 -107 -74 -157 l0 -25 117 3 118 3 -3 40
c-8 84 -56 155 -106 155 -11 0 -35 -9 -52 -19z"/>
<path d="M5720 18001 c-58 -18 -88 -41 -104 -81 -20 -50 -20 -81 -2 -125 29
-67 95 -71 143 -8 25 33 28 46 31 130 4 92 4 93 -20 92 -12 0 -34 -4 -48 -8z"/>
<path d="M5360 15225 l0 -1255 160 0 160 0 0 1255 0 1255 -160 0 -160 0 0
-1255z"/>
<path d="M11820 15650 l0 -430 35 0 35 0 0 430 0 430 -35 0 -35 0 0 -430z"/>
<path d="M6005 16036 c-125 -58 -154 -271 -50 -377 19 -20 59 -51 89 -69 64
-39 96 -89 96 -151 0 -42 -28 -104 -54 -121 -24 -16 -111 -8 -145 13 -40 24
-50 17 -54 -37 -2 -36 1 -40 38 -59 27 -14 60 -20 102 -20 54 0 66 4 100 31
60 49 76 85 81 181 7 135 -28 198 -154 274 -61 37 -84 76 -84 139 0 53 25 96
63 110 42 14 57 13 100 -10 l37 -20 10 26 c16 40 12 62 -14 79 -34 23 -124 29
-161 11z"/>
<path d="M9600 16041 c-113 -37 -182 -130 -216 -293 -26 -121 -7 -295 44 -393
29 -58 102 -121 154 -135 54 -15 133 -7 192 19 l46 20 0 195 0 196 -94 0 -93
0 2 -37 c2 -21 4 -42 4 -46 1 -5 25 -7 54 -5 l52 3 -2 -119 c-1 -86 -5 -121
-15 -127 -7 -5 -40 -9 -72 -9 -68 0 -107 21 -145 76 -49 71 -71 211 -52 332
28 179 131 267 268 227 30 -9 57 -15 58 -13 2 2 5 21 7 43 3 35 0 41 -26 53
-34 17 -131 25 -166 13z"/>
<path d="M7770 15961 c-23 -6 -25 -12 -28 -79 l-3 -72 -30 0 c-29 0 -30 -1
-27 -42 3 -39 6 -43 31 -46 l27 -3 0 -191 c0 -212 8 -256 53 -294 30 -25 60
-30 99 -15 21 8 23 14 20 51 -4 39 -6 42 -29 37 -16 -3 -32 2 -44 14 -17 17
-19 36 -19 208 l0 190 48 3 47 3 3 43 3 42 -50 0 -51 0 0 80 c0 84 0 85 -50
71z"/>
<path d="M6425 15813 c-37 -9 -93 -74 -117 -137 -30 -79 -33 -243 -5 -322 43
-125 145 -171 270 -122 23 9 27 16 27 50 0 39 -1 40 -27 33 -67 -17 -121 -17
-148 1 -35 23 -65 84 -65 133 l0 40 133 3 132 3 3 37 c5 55 -15 146 -43 204
-33 68 -87 94 -160 77z m81 -91 c19 -12 42 -66 46 -107 l3 -40 -98 -3 -97 -3
0 31 c0 32 21 82 48 113 15 17 77 23 98 9z"/>
<path d="M6822 15799 c-85 -42 -132 -147 -132 -293 0 -193 91 -313 221 -292
66 10 79 22 79 65 0 48 -5 52 -38 35 -62 -32 -130 -2 -165 74 -42 92 -23 255
37 311 31 29 86 37 125 18 16 -8 32 -12 35 -9 3 3 6 24 6 47 0 40 -2 42 -39
53 -55 17 -80 15 -129 -9z"/>
<path d="M7204 15809 c-11 -6 -33 -29 -47 -52 l-27 -41 0 48 0 47 -32 -3 -33
-3 0 -57 c1 -32 2 -164 3 -293 l2 -235 34 0 34 0 4 203 c3 189 4 204 26 239
23 37 40 48 73 48 16 0 19 7 19 55 0 59 -9 66 -56 44z"/>
<path d="M7410 15798 c-83 -56 -130 -207 -111 -351 15 -107 47 -174 103 -209
46 -30 83 -34 153 -17 55 14 64 25 58 67 -5 29 -9 33 -27 27 -47 -14 -107 -17
-134 -6 -35 15 -69 72 -81 135 l-8 45 136 3 136 3 3 63 c5 106 -42 217 -105
250 -34 19 -87 14 -123 -10z m133 -111 c9 -18 17 -50 19 -72 l3 -40 -97 -3
c-97 -3 -98 -2 -98 21 0 41 48 125 78 135 39 13 78 -4 95 -41z"/>
<path d="M8059 15807 c-55 -25 -73 -59 -50 -95 7 -12 14 -11 39 2 17 9 49 16
70 16 32 0 43 -5 58 -27 10 -15 18 -46 18 -68 l1 -40 -51 -6 c-116 -15 -174
-86 -174 -214 1 -93 54 -165 122 -165 28 0 86 34 94 55 10 25 24 17 24 -15 0
-28 3 -30 35 -30 l36 0 -7 233 c-7 238 -13 278 -56 327 -32 37 -107 50 -159
27z m141 -351 c0 -100 -32 -156 -88 -156 -52 0 -81 60 -62 129 12 45 25 58 77
77 69 24 73 22 73 -50z"/>
<path d="M8704 15809 c-11 -6 -33 -29 -47 -52 l-27 -41 0 47 0 47 -37 0 -36 0
6 -107 c4 -58 7 -191 7 -295 l0 -188 34 0 34 0 4 203 c3 189 4 204 26 239 23
37 40 48 73 48 16 0 19 7 19 55 0 59 -9 66 -56 44z"/>
<path d="M8924 15806 c-77 -35 -126 -147 -127 -291 -1 -109 18 -180 61 -234
58 -71 135 -90 219 -51 40 18 42 21 36 52 -8 43 -8 43 -38 30 -32 -15 -97 -15
-127 -2 -34 16 -68 75 -75 130 l-6 49 134 3 134 3 0 70 c0 93 -20 157 -64 206
-41 46 -94 59 -147 35z m105 -98 c19 -20 28 -48 34 -108 l2 -25 -95 0 -95 0 2
37 c2 38 24 83 52 106 24 20 78 15 100 -10z"/>
<path d="M10015 15796 c-73 -45 -115 -151 -115 -295 0 -227 120 -337 294 -269
25 10 28 15 22 46 -7 44 -11 48 -41 34 -14 -7 -46 -12 -70 -12 -73 0 -112 45
-131 153 l-6 37 137 0 138 0 -5 95 c-8 145 -55 220 -144 231 -30 4 -49 -1 -79
-20z m83 -67 c40 -14 62 -48 69 -109 l6 -50 -96 0 c-53 0 -98 4 -101 9 -12 19
25 110 55 135 36 30 28 29 67 15z"/>
<path d="M10478 15808 c-15 -7 -36 -25 -48 -40 -29 -37 -40 -35 -40 8 0 34 -1
35 -32 32 -19 -2 -33 -8 -32 -15 1 -7 2 -139 3 -293 l1 -280 35 0 35 0 0 181
c0 192 8 249 43 293 25 31 75 38 103 15 38 -31 44 -71 44 -284 l0 -206 38 3
37 3 0 215 c0 240 -7 281 -58 336 -36 39 -86 51 -129 32z"/>
<path d="M10873 15806 c-81 -37 -128 -164 -121 -329 6 -137 39 -207 120 -248
45 -23 78 -24 147 -3 l53 15 -5 36 c-8 45 -9 46 -41 33 -36 -13 -99 -13 -129
1 -32 14 -63 72 -72 132 l-7 47 137 0 137 0 -4 88 c-5 100 -38 189 -82 217
-35 23 -95 28 -133 11z m120 -115 c9 -16 20 -50 23 -76 l7 -46 -99 3 -99 3 2
28 c3 48 41 115 71 125 37 12 74 -2 95 -37z"/>
<path d="M11309 15805 c-15 -8 -35 -31 -45 -52 l-19 -38 -3 48 c-3 48 -4 48
-35 45 -31 -3 -32 -5 -32 -45 1 -24 2 -155 3 -293 l2 -250 34 0 34 0 4 198 c3
158 6 203 20 227 21 40 48 62 78 67 23 3 25 7 24 53 -1 56 -18 66 -65 40z"/>
<path d="M11479 15797 c-40 -22 -44 -27 -41 -58 2 -19 6 -36 8 -38 2 -2 19 4
36 13 75 40 145 4 150 -79 l3 -40 -50 -6 c-118 -15 -178 -85 -178 -209 0 -96
48 -170 110 -170 34 0 92 29 104 51 15 28 29 23 29 -11 0 -27 3 -30 33 -30
l32 0 -3 217 c-3 275 -17 329 -94 369 -40 21 -89 17 -139 -9z m161 -331 c0
-100 -38 -166 -96 -166 -39 0 -54 17 -61 68 -10 77 21 126 92 143 63 15 65 14
65 -45z"/>
<path d="M12115 15806 c-85 -38 -128 -137 -129 -296 -1 -154 35 -240 118 -280
47 -22 83 -25 138 -10 51 15 66 32 60 70 -4 27 -8 31 -26 25 -125 -39 -200 5
-216 127 l-6 47 135 3 136 3 3 34 c5 52 -17 163 -41 206 -26 46 -79 85 -116
85 -14 -1 -39 -7 -56 -14z m108 -108 c19 -26 39 -112 29 -123 -3 -3 -47 -5
-99 -5 -93 0 -93 0 -93 25 0 31 25 93 47 118 26 28 90 20 116 -15z"/>
<path d="M8390 15515 l0 -295 35 0 35 0 0 295 0 295 -35 0 -35 0 0 -295z"/>
<path d="M42 12092 c-1 -33 -6 -51 -12 -47 -7 4 -9 -612 -8 -1842 l3 -1848 5
1645 c3 905 7 1607 9 1560 2 -47 5 -78 7 -70 2 8 1 121 -4 250 -4 129 -4 257
1 283 4 27 6 65 4 85 -3 29 -4 26 -5 -16z"/>
<path d="M65 10200 c0 -1015 1 -1430 2 -923 2 508 2 1338 0 1845 -1 508 -2 93
-2 -922z"/>
<path d="M11901 9941 l-19 -26 40 -72 c47 -86 61 -171 35 -221 -15 -30 -14
-31 29 -71 48 -44 59 -37 19 11 -25 30 -34 55 -15 43 6 -3 10 -1 10 4 0 6 -5
11 -11 11 -5 0 -7 5 -4 10 12 20 13 125 2 132 -9 5 -9 10 1 20 9 9 12 9 12 -1
0 -10 6 -9 25 3 14 9 30 14 35 11 5 -3 29 16 54 42 41 44 46 46 46 24 0 -22 3
-23 53 -18 28 2 63 0 77 -5 17 -6 26 -6 28 2 2 6 17 2 39 -11 25 -16 37 -19
46 -10 8 8 7 11 -5 11 -8 0 -21 7 -28 15 -7 8 -21 15 -30 15 -10 0 -20 4 -22
9 -4 13 -172 61 -212 61 -17 0 -49 5 -71 11 -109 28 -114 28 -134 0z"/>
<path d="M25 4200 c0 -2247 1 -3166 2 -2042 2 1123 2 2961 0 4085 -1 1123 -2
204 -2 -2043z"/>
<path d="M9906 4884 c-24 -21 -27 -28 -15 -36 10 -7 9 -8 -6 -4 -16 5 -36 -8
-81 -51 -33 -32 -81 -77 -106 -101 -35 -32 -45 -47 -40 -64 3 -14 2 -19 -7
-14 -6 4 -9 12 -6 17 11 16 -10 10 -26 -8 -9 -10 -36 -35 -62 -57 -26 -21 -44
-42 -41 -47 3 -5 1 -8 -5 -7 -15 4 -160 -125 -156 -138 2 -6 -2 -11 -9 -10 -6
0 -52 -37 -101 -83 -50 -46 -82 -81 -72 -77 11 3 16 2 12 -5 -4 -6 -13 -8 -21
-5 -8 3 -23 -2 -34 -11 -20 -18 -28 -39 -10 -28 6 3 7 -1 3 -10 -5 -13 -7 -14
-14 -3 -6 10 -20 2 -56 -32 -26 -25 -50 -46 -53 -48 -2 -2 2 -8 10 -13 12 -8
10 -9 -6 -5 -15 5 -33 -6 -70 -41 -57 -55 -220 -204 -270 -247 -19 -15 -31
-33 -27 -39 3 -5 2 -7 -3 -4 -6 3 -41 -23 -79 -59 -38 -35 -74 -64 -78 -64 -5
0 -7 -6 -4 -14 3 -7 0 -13 -7 -12 -16 1 -182 -153 -178 -166 1 -5 -2 -7 -7 -3
-6 3 -18 -2 -29 -12 -10 -10 -44 -42 -77 -71 -46 -43 -56 -56 -44 -63 10 -8 8
-9 -8 -4 -17 4 -29 -3 -55 -31 -18 -20 -32 -41 -30 -46 1 -5 -2 -7 -8 -3 -8 5
-93 -66 -166 -139 -11 -12 -42 -38 -67 -60 -26 -21 -44 -43 -40 -49 3 -5 2 -7
-3 -4 -6 3 -41 -23 -79 -59 -38 -35 -74 -64 -78 -64 -5 0 -7 -6 -4 -14 3 -7 0
-13 -7 -12 -6 0 -52 -37 -101 -83 -50 -46 -82 -81 -72 -77 11 3 16 2 12 -5 -4
-6 -14 -8 -22 -5 -19 7 -48 -22 -48 -47 0 -11 -7 -22 -15 -24 -13 -4 -13 -3 0
6 8 5 11 13 7 18 -4 4 -21 -7 -37 -24 -17 -18 -40 -39 -52 -48 -20 -13 -21
-17 -8 -26 12 -8 10 -9 -7 -4 -16 4 -30 -3 -57 -32 -25 -27 -32 -40 -23 -46 8
-6 8 -7 -3 -4 -27 8 -52 -12 -45 -36 5 -17 4 -18 -4 -8 -8 12 -26 0 -93 -60
-46 -42 -97 -88 -115 -104 -18 -15 -30 -32 -26 -38 3 -6 2 -7 -4 -4 -5 3 -22
-6 -37 -20 -22 -20 -25 -28 -14 -35 10 -7 8 -8 -5 -4 -12 4 -30 -6 -54 -29
-20 -19 -40 -35 -46 -35 -5 0 -6 -7 -3 -16 4 -9 2 -13 -5 -8 -14 8 -100 -76
-92 -89 3 -6 1 -7 -5 -3 -13 8 -93 -64 -85 -77 3 -6 1 -7 -5 -3 -6 4 -20 -1
-32 -11 -20 -18 -28 -39 -10 -28 6 3 10 2 10 -2 0 -12 -22 -33 -35 -33 -5 0
-3 4 5 10 8 5 11 12 7 16 -4 4 -30 -14 -57 -41 -36 -35 -46 -51 -37 -58 7 -5
4 -6 -10 -2 -16 4 -28 -1 -43 -18 -12 -14 -66 -65 -121 -113 -58 -52 -97 -94
-94 -102 3 -7 0 -10 -5 -7 -14 9 -112 -74 -103 -87 3 -6 1 -8 -4 -5 -12 7
-159 -128 -156 -142 1 -5 -4 -8 -11 -7 -7 0 -42 -26 -77 -59 -36 -33 -86 -78
-112 -100 -26 -22 -47 -44 -47 -48 0 -5 5 -5 10 -2 6 3 10 2 10 -4 0 -16 -18
-22 -23 -9 -3 9 -16 2 -38 -20 -19 -18 -43 -39 -54 -47 -17 -13 -18 -16 -5
-25 12 -9 11 -10 -7 -5 -27 7 -100 -64 -80 -78 8 -6 6 -7 -6 -3 -18 6 -27 -2
-172 -135 -27 -26 -65 -59 -83 -74 -17 -15 -29 -31 -26 -36 3 -5 1 -8 -5 -7
-15 4 -160 -125 -156 -139 2 -7 -1 -10 -8 -8 -7 3 -44 -25 -82 -63 -39 -37
-90 -83 -113 -102 -23 -19 -42 -38 -42 -43 0 -4 4 -5 10 -2 6 3 7 -1 3 -10 -5
-13 -7 -14 -14 -3 -6 10 -20 2 -56 -32 -26 -25 -50 -46 -53 -48 -2 -2 2 -8 10
-13 12 -8 10 -9 -7 -4 -15 4 -28 -1 -43 -17 l-21 -23 186 -3 187 -2 51 42 c63
52 69 60 54 71 -8 6 -5 7 7 3 14 -5 30 4 57 30 21 21 35 42 32 47 -3 6 -2 7 3
4 14 -8 90 64 86 82 -2 12 -1 13 6 3 7 -10 25 1 73 46 35 33 78 71 94 86 17
14 22 23 13 20 -10 -3 -18 -11 -18 -17 0 -6 -3 -7 -7 -4 -3 4 -13 1 -21 -6
-13 -10 -14 -9 -8 1 4 7 29 23 54 36 26 12 46 28 44 35 -1 7 2 10 7 7 5 -4 23
6 39 21 32 31 128 119 182 167 19 18 67 61 105 96 39 36 108 98 153 139 46 42
79 78 75 85 -3 6 -3 8 2 4 11 -11 90 63 88 82 -2 9 0 10 3 3 10 -22 26 -14 19
10 -4 15 -3 18 3 9 7 -11 23 -1 67 40 32 29 67 59 77 67 16 11 17 15 7 23 -11
7 -11 8 2 6 21 -4 92 59 83 74 -4 7 -3 8 5 4 6 -4 28 9 52 31 22 21 53 49 68
63 165 150 230 213 225 221 -3 5 1 7 8 4 7 -3 37 18 67 46 41 38 51 53 43 61
-7 7 -12 16 -12 22 0 5 6 1 14 -10 14 -19 15 -19 40 5 14 13 23 28 19 34 -3 6
-1 7 5 4 5 -4 32 13 59 38 26 25 51 45 55 45 3 0 4 10 1 23 -4 16 -2 19 5 8 8
-11 20 -5 59 31 26 25 76 69 110 99 33 30 60 59 58 64 -1 6 2 19 7 30 8 18 8
18 4 -2 -5 -27 4 -29 25 -5 9 9 40 39 70 66 103 92 124 112 194 176 39 36 95
87 124 113 40 36 51 51 42 60 -6 6 -11 16 -11 21 0 6 5 3 11 -6 12 -21 33 -24
26 -4 -3 8 1 20 9 27 12 10 13 9 7 -7 -6 -17 -5 -17 10 -5 9 7 14 18 10 24 -3
5 -1 7 4 4 14 -9 67 38 59 51 -3 5 2 9 12 8 11 -1 16 5 14 17 -2 9 2 17 8 17
6 0 8 -4 5 -10 -15 -24 11 -6 64 43 31 30 86 80 123 113 36 32 64 65 62 72 -2
7 1 10 6 7 6 -4 36 18 68 48 31 30 75 70 97 88 22 19 45 39 50 45 6 6 37 35
70 65 180 160 244 222 238 232 -3 5 -2 7 4 4 5 -3 28 11 50 31 22 20 59 53 82
72 22 19 39 41 36 48 -3 7 0 10 5 7 11 -7 43 17 135 103 163 152 334 308 425
388 24 21 53 47 63 56 11 10 16 22 12 29 -6 8 -4 10 4 4 18 -11 75 46 59 58
-9 6 -8 7 4 4 21 -7 94 58 91 81 -1 9 0 11 3 5 10 -22 26 -14 19 10 -4 15 -3
18 3 9 8 -11 12 -11 23 0 8 7 37 33 64 57 28 24 102 92 165 151 95 89 183 167
198 176 2 1 5 15 7 31 3 21 -5 37 -35 68 -21 22 -55 59 -77 82 l-38 43 -29
-26z"/>
<path d="M10665 4098 c-3 -12 -26 -108 -51 -213 -33 -135 -48 -223 -54 -305
-4 -63 -12 -127 -18 -141 -6 -15 -15 -82 -21 -150 -13 -149 -28 -267 -47 -374
-7 -44 -21 -161 -29 -260 -8 -99 -24 -283 -35 -410 -11 -126 -26 -311 -35
-410 -8 -99 -16 -196 -19 -216 -8 -73 6 -68 141 53 70 64 223 200 338 303 116
103 268 240 339 304 157 140 317 283 371 331 22 19 67 60 100 90 33 31 103 94
155 141 52 47 111 100 130 118 19 18 47 42 61 53 29 24 30 21 -14 118 -13 28
-21 70 -22 110 -1 36 -9 79 -17 95 -9 17 -21 48 -28 70 -47 146 -295 383 -470
451 -30 12 -91 34 -135 49 -44 15 -99 36 -122 46 -23 11 -66 25 -95 33 -43 12
-357 115 -405 133 -7 3 -14 -5 -18 -19z"/>
</g>
</svg>
