<?xml version="1.0" standalone="no"?>
<!DOCTYPE svg PUBLIC "-//W3C//DTD SVG 20010904//EN"
 "http://www.w3.org/TR/2001/REC-SVG-20010904/DTD/svg10.dtd">
<svg version="1.0" xmlns="http://www.w3.org/2000/svg"
 width="2048.000000pt" height="2033.000000pt" viewBox="0 0 2048.000000 2033.000000"
 preserveAspectRatio="xMidYMid meet">
<metadata>
Created by potrace 1.16, written by Peter Selinger 2001-2019
</metadata>
<g transform="translate(0.000000,2033.000000) scale(0.100000,-0.100000)"
fill="#000000" stroke="none">
<path d="M3892 18133 l3 -1058 3808 -3 3807 -2 0 1060 0 1060 -3810 0 -3810 0
2 -1057z m4360 340 c3 -172 5 -195 16 -172 18 33 89 79 123 79 70 0 108 -33
141 -122 22 -60 23 -76 23 -308 l0 -245 -40 0 -40 0 -5 245 c-4 209 -8 250
-23 277 -29 54 -75 67 -127 37 -58 -35 -65 -66 -70 -324 l-5 -235 -37 -1 -38
-1 0 484 0 483 40 0 40 0 2 -197z m1208 -98 c0 -162 3 -295 8 -295 4 1 44 65
88 143 80 140 82 142 119 145 69 6 68 1 -21 -135 -46 -70 -84 -133 -84 -140 0
-11 147 -304 177 -352 20 -31 6 -43 -43 -39 l-39 3 -76 150 c-42 82 -81 151
-86 152 -5 2 -17 -13 -26 -32 -13 -27 -17 -63 -17 -153 l0 -118 -32 2 c-18 1
-36 2 -40 3 -5 0 -8 217 -8 481 l0 480 40 0 40 0 0 -295z m460 98 c0 -189 1
-196 17 -173 86 126 224 98 268 -53 12 -43 15 -101 13 -297 l-3 -244 -35 -1
-35 0 -5 240 c-5 249 -9 274 -52 317 -11 11 -33 18 -53 18 -43 0 -90 -44 -105
-99 -5 -20 -10 -133 -10 -252 0 -189 -2 -218 -16 -223 -25 -9 -64 -7 -64 4 0
6 0 222 0 480 0 259 0 472 0 475 0 3 18 5 40 5 l40 0 0 -197z m-1887 143 c37
-15 38 -17 31 -53 -3 -21 -10 -42 -14 -46 -4 -5 -30 -1 -56 8 -159 54 -292
-68 -312 -286 -15 -157 14 -297 75 -368 65 -76 163 -101 253 -65 23 9 42 15
44 13 2 -2 6 -23 10 -46 6 -40 4 -43 -25 -59 -51 -26 -167 -30 -229 -8 -102
37 -187 159 -209 301 -48 310 59 574 252 624 45 11 135 4 180 -15z m-2483 -46
l0 -50 -130 0 -131 0 3 -142 3 -143 123 -3 122 -3 0 -49 0 -50 -125 0 -125 0
2 -162 3 -163 138 -3 138 -3 -3 -47 -3 -47 -158 -1 c-87 -1 -167 1 -178 3 -18
5 -19 19 -19 459 l0 454 170 0 170 0 0 -50z m402 -212 c17 -11 38 -38 48 -60
l17 -38 34 50 c74 109 190 91 240 -37 21 -54 23 -77 27 -310 2 -139 0 -253 -5
-254 -4 -1 -21 -2 -38 -3 l-30 -1 -6 237 c-4 163 -10 247 -19 270 -37 91 -121
92 -166 1 -16 -33 -19 -69 -22 -267 -1 -126 -5 -233 -8 -237 -3 -5 -19 -8 -37
-6 l-32 2 -5 250 c-4 214 -8 255 -23 282 -33 61 -97 58 -142 -5 l-30 -44 -5
-241 -5 -242 -33 -1 c-18 -1 -34 2 -37 6 -2 3 -5 152 -6 331 l-1 324 33 0 c33
0 34 -1 39 -47 l5 -46 23 37 c45 71 124 92 184 49z m788 5 c40 -28 48 -38 72
-95 21 -50 22 -67 23 -308 l0 -254 -37 -2 c-21 -1 -38 1 -38 4 0 4 -2 108 -4
232 -2 124 -7 237 -11 253 -4 15 -20 41 -35 57 -34 36 -75 39 -114 9 -53 -42
-60 -74 -66 -324 l-5 -230 -38 -1 -37 -1 2 331 3 331 30 0 c28 0 30 -3 33 -42
4 -51 11 -54 36 -12 37 63 132 90 186 52z m476 -14 c63 -58 72 -108 75 -404
l3 -240 -35 0 c-32 1 -34 3 -39 40 l-5 39 -18 -27 c-26 -41 -75 -67 -124 -67
-33 0 -50 7 -77 31 -42 36 -56 80 -56 169 1 138 73 215 223 235 52 7 57 17 37
84 -22 79 -87 102 -172 61 -23 -11 -42 -19 -43 -17 -1 1 -5 18 -9 38 -5 26 -2
40 9 49 55 46 186 51 231 9z m1724 16 c65 -34 109 -133 117 -267 l6 -88 -163
0 -163 0 6 -54 c8 -83 47 -145 105 -167 36 -14 100 -11 133 7 37 19 39 17 46
-33 5 -35 2 -40 -23 -52 -16 -7 -59 -16 -96 -19 -112 -8 -181 41 -224 158 -37
101 -28 296 17 400 48 109 153 159 239 115z m295 -330 l0 -330 -35 0 -35 0 -3
333 -2 333 37 -3 38 -3 0 -330z"/>
<path d="M7095 18023 c-42 -23 -63 -52 -71 -100 -12 -80 21 -143 76 -143 66 0
109 74 110 188 l0 72 -42 0 c-24 -1 -56 -8 -73 -17z"/>
<path d="M8827 18287 c-32 -13 -73 -89 -83 -154 l-7 -43 117 0 c135 0 136 1
116 87 -20 91 -78 136 -143 110z"/>
<path d="M15397 19134 c-188 -52 -202 -58 -270 -108 -224 -166 -505 -330 -687
-402 -89 -35 -102 -44 -205 -143 -60 -58 -123 -121 -138 -141 -16 -19 -45 -55
-65 -79 -80 -97 -120 -162 -136 -226 -35 -141 -176 -495 -283 -710 -59 -121
-135 -278 -167 -350 -38 -84 -76 -151 -108 -189 -65 -78 -92 -127 -140 -248
-78 -201 -80 -205 -84 -335 -4 -156 -25 -286 -65 -404 -28 -83 -31 -103 -27
-179 3 -66 10 -96 30 -135 41 -80 60 -146 59 -209 0 -52 -7 -72 -64 -185 -78
-151 -125 -265 -162 -385 -25 -81 -27 -106 -30 -282 -7 -401 -21 -436 -384
-961 -41 -60 -95 -132 -119 -162 -64 -79 -94 -152 -107 -263 -2 -21 -9 -46
-14 -57 -7 -13 -8 -70 -3 -171 5 -84 5 -175 1 -204 -4 -28 -8 -83 -8 -121 -1
-42 -7 -79 -15 -90 -41 -61 -86 -163 -66 -150 16 10 19 -25 4 -52 l-14 -28 -7
24 c-5 22 -7 21 -24 -15 -10 -22 -18 -50 -18 -64 0 -14 3 -19 6 -12 2 6 14 12
25 12 18 0 19 -4 13 -37 -9 -48 -12 -53 -30 -46 -10 3 -15 -1 -15 -11 0 -9 7
-19 15 -22 17 -7 20 -35 5 -50 -6 -6 -4 -19 5 -38 19 -36 19 -36 -6 -36 -16 0
-19 -4 -13 -17 19 -43 0 -176 -28 -198 -21 -16 -75 -106 -96 -160 -11 -27 -34
-86 -51 -130 -93 -232 -98 -254 -82 -298 9 -22 6 -37 -13 -80 -30 -67 -53
-132 -65 -182 -5 -22 -15 -58 -21 -80 -6 -22 -15 -114 -20 -205 -5 -91 -12
-215 -16 -277 -5 -82 -4 -120 6 -143 10 -23 10 -34 1 -43 -14 -14 -15 -57 -1
-57 6 0 10 -13 10 -30 0 -16 -4 -30 -8 -30 -11 0 1 -72 18 -118 9 -25 15 -30
21 -20 6 8 9 -2 9 -30 0 -46 -21 -105 -47 -134 -9 -10 -18 -38 -19 -63 -3 -54
-21 -88 -73 -142 -23 -23 -41 -47 -41 -53 0 -19 37 -10 53 12 27 42 27 12 0
-41 -31 -60 -56 -79 -79 -60 -13 10 -19 8 -39 -17 -28 -34 -31 -50 -11 -57 11
-4 13 -1 9 11 -3 9 -3 14 2 10 4 -4 16 3 26 15 12 15 21 19 28 12 8 -8 0 -31
-25 -79 -26 -48 -33 -70 -25 -75 12 -8 7 -19 -54 -125 -10 -16 -30 -40 -46
-53 -16 -14 -29 -30 -29 -37 0 -7 -14 -25 -31 -42 -17 -16 -46 -50 -64 -76
-29 -40 -31 -47 -17 -53 9 -3 13 -3 10 1 -8 7 -7 8 70 76 55 48 77 52 115 20
13 -12 17 -12 17 -2 0 10 5 9 18 -3 10 -10 21 -14 24 -11 11 11 20 -37 9 -50
-6 -7 -8 -33 -5 -62 6 -47 5 -51 -36 -97 -23 -26 -51 -47 -61 -47 -12 0 -19
-7 -19 -20 0 -25 -57 -90 -79 -90 -11 0 -25 -18 -39 -51 -12 -29 -25 -48 -32
-44 -5 3 -10 0 -10 -7 0 -10 -3 -9 -11 2 -7 11 -9 -1 -7 -46 4 -57 3 -61 -16
-56 l-21 5 20 -22 c79 -90 243 -63 357 58 55 58 69 76 178 221 35 47 86 110
113 140 27 30 53 64 59 75 10 19 10 19 -8 5 -84 -64 -204 -175 -204 -189 0
-11 -61 -53 -67 -47 -3 3 0 12 7 21 8 9 8 15 2 15 -6 0 -14 -9 -17 -20 -3 -11
-10 -20 -15 -20 -29 0 -100 -90 -100 -127 0 -7 -7 -16 -15 -19 -8 -3 -17 -14
-20 -25 -4 -10 -18 -22 -33 -25 -15 -3 -44 -12 -65 -20 -52 -19 -57 -18 -57
14 0 52 69 192 96 192 6 0 21 19 34 42 25 44 74 98 90 98 4 0 10 -6 13 -12 6
-18 43 16 73 67 46 78 144 169 231 215 46 24 84 41 86 39 2 -2 15 -44 30 -94
15 -49 37 -119 48 -155 34 -111 35 -104 -14 -168 -48 -62 -121 -198 -131 -245
-6 -26 -5 -28 16 -22 66 19 62 22 55 -30 -8 -55 -13 -65 -34 -65 -10 0 -14 6
-10 19 4 17 2 18 -15 8 -16 -10 -18 -20 -15 -57 6 -53 56 -306 67 -335 4 -11
13 -33 19 -48 6 -15 11 -50 11 -77 0 -33 4 -50 13 -50 6 0 26 -42 42 -93 26
-78 30 -111 33 -217 3 -120 2 -128 -26 -195 -72 -171 -71 -169 -134 -210 -34
-21 -68 -51 -77 -66 -16 -26 -66 -70 -135 -119 -20 -14 -67 -60 -106 -104
-116 -131 -133 -224 -68 -363 60 -129 99 -254 105 -345 10 -140 28 -93 38 94
3 59 0 100 -10 127 -7 21 -17 65 -21 97 -4 38 -18 76 -40 113 -19 31 -34 65
-34 77 0 11 16 35 35 54 19 19 35 39 35 46 0 21 161 174 204 192 43 20 65 40
187 182 87 100 119 144 119 163 0 7 21 29 48 47 26 19 50 38 53 43 15 21 20
-37 9 -91 -13 -60 -30 -99 -63 -145 -21 -27 -21 -28 -3 -77 30 -84 12 -163
-60 -265 -46 -66 -51 -93 -32 -193 11 -58 1 -82 -33 -82 -22 0 -32 -29 -23
-66 6 -24 8 -25 19 -10 11 14 14 14 18 2 9 -22 -3 -55 -18 -49 -9 3 -15 -6
-19 -29 -3 -18 -8 -49 -11 -68 -7 -43 -15 -254 -8 -223 6 29 20 29 26 0 4 -21
4 -21 6 -1 1 23 25 34 77 34 16 0 35 5 41 11 6 6 33 13 60 15 41 2 46 1 31
-10 -26 -19 -22 -31 13 -32 34 -1 60 -21 43 -32 -16 -10 -34 -48 -34 -72 0
-17 3 -19 19 -10 11 5 43 10 71 10 45 0 52 3 60 25 5 14 14 25 20 25 15 0 13
-8 -11 -47 -16 -26 -26 -32 -41 -27 -14 4 -29 -3 -52 -23 -25 -24 -41 -30 -81
-31 -49 -2 -125 -27 -125 -43 0 -4 21 -11 46 -15 33 -5 48 -12 51 -25 5 -17 8
-17 38 -4 32 13 75 11 75 -4 0 -9 -38 -41 -49 -41 -19 0 -19 -29 0 -46 30 -27
23 -49 -21 -69 -42 -19 -49 -35 -25 -55 15 -13 50 -6 41 8 -2 4 9 14 25 21 27
12 32 11 50 -7 22 -24 26 -87 6 -95 -7 -3 -25 -3 -40 -2 -15 2 -27 -1 -27 -6
0 -6 -11 -21 -25 -35 -20 -20 -22 -26 -10 -30 8 -4 15 -15 15 -26 0 -10 11
-30 26 -44 22 -23 31 -26 87 -22 l62 3 -2 -30 c-2 -25 -2 -90 0 -180 1 -11 5
-23 9 -26 5 -3 1 -20 -9 -38 -17 -29 -17 -33 -2 -41 9 -5 20 -25 23 -44 4 -19
16 -46 28 -62 12 -15 25 -46 28 -68 4 -30 10 -41 22 -41 10 0 23 -6 30 -13 9
-9 9 -12 0 -12 -17 0 -15 -78 3 -130 8 -23 15 -66 15 -95 0 -35 5 -57 15 -65
10 -8 15 -30 15 -61 0 -37 -4 -49 -15 -49 -8 0 -15 5 -15 12 0 6 -3 8 -7 4 -4
-3 -8 -26 -9 -51 -1 -35 4 -50 22 -68 22 -22 23 -30 20 -113 -3 -70 -9 -100
-29 -138 -26 -52 -26 -96 0 -61 22 31 24 11 3 -48 -21 -59 -27 -157 -10 -157
6 0 18 8 28 17 9 10 30 28 45 40 50 39 210 185 275 251 60 62 77 90 47 78 -11
-4 -15 2 -15 20 0 14 -4 33 -9 42 -8 15 8 188 22 247 3 11 6 68 6 126 1 102 2
108 31 144 17 21 30 46 30 56 0 10 9 21 20 24 11 3 20 10 20 15 0 5 -15 3 -34
-5 l-34 -14 -1 77 c0 48 3 72 8 63 5 -7 14 -10 20 -6 9 5 7 11 -5 19 -19 15
-13 21 34 31 28 6 32 4 32 -14 0 -12 -6 -21 -15 -21 -22 0 -18 -23 6 -43 27
-24 60 -18 76 13 7 14 13 19 13 13 0 -18 29 -16 36 2 8 20 -15 47 -34 40 -9
-3 -12 0 -9 9 6 16 -36 42 -52 31 -20 -12 -96 -13 -103 -1 -14 21 -8 56 12 74
11 9 25 34 31 54 5 21 14 38 19 38 19 0 10 29 -10 35 -11 4 -20 15 -20 27 0
14 5 18 16 14 8 -3 27 -3 40 0 25 6 25 6 5 25 -11 11 -25 19 -31 19 -14 0 -12
20 5 54 19 36 19 57 1 50 -11 -4 -18 6 -26 37 -12 44 -5 139 11 139 5 0 9 8 9
18 0 39 55 65 90 43 10 -7 21 -3 38 15 14 13 29 24 35 24 5 0 7 11 5 25 -3 14
-1 28 3 31 5 3 9 1 9 -4 0 -13 76 -36 94 -29 18 7 21 42 5 53 -6 4 -30 6 -53
6 -22 -1 -58 6 -78 15 -28 12 -41 13 -51 5 -15 -13 -16 -39 -2 -61 5 -9 2 -18
-9 -27 -14 -10 -25 -9 -57 4 -32 12 -39 20 -39 42 0 15 7 33 15 40 17 14 20
40 5 40 -5 0 -10 9 -10 20 0 11 5 20 12 20 19 0 80 -21 121 -42 34 -18 39 -18
53 -4 8 9 24 21 34 26 20 11 77 3 86 -11 3 -5 9 -9 15 -9 16 0 10 25 -11 43
-11 9 -20 24 -20 32 0 9 -9 15 -25 15 -15 0 -23 -5 -20 -12 10 -28 -9 -37 -54
-26 -51 13 -56 23 -38 68 10 24 22 34 40 36 23 2 86 58 87 77 0 4 -12 7 -26 7
-15 0 -32 7 -38 15 -8 11 -15 12 -26 4 -12 -8 -12 -12 -2 -16 18 -7 -4 -33
-29 -33 -24 0 -32 16 -19 40 10 18 8 19 -20 14 -33 -7 -41 9 -13 25 10 5 15
12 11 16 -12 13 26 45 54 45 15 0 30 5 33 10 3 6 26 10 50 10 45 0 75 19 75
46 0 8 -9 14 -19 14 -11 0 -23 5 -26 10 -3 6 -1 10 4 10 14 0 90 53 91 63 0 4
-17 7 -38 7 -29 0 -44 6 -60 25 -27 31 -28 49 -1 76 l21 21 -21 22 c-12 12
-21 29 -21 36 0 11 -4 10 -17 -3 -17 -17 -17 -19 0 -28 28 -16 20 -51 -17 -82
-41 -32 -56 -34 -56 -7 0 11 6 20 14 20 19 0 25 21 21 72 -4 40 -3 44 26 57
17 7 43 11 59 8 37 -8 56 13 40 42 -7 14 -7 21 0 21 5 0 10 -4 10 -10 0 -10
63 10 100 32 18 10 24 10 27 1 6 -16 28 -17 54 -2 19 10 18 12 -17 30 -21 10
-49 19 -62 19 -35 0 -24 34 13 40 22 4 30 11 30 25 0 11 9 23 20 26 21 6 16 8
-60 24 -55 12 -13 52 46 43 18 -2 24 2 24 17 0 25 68 52 73 29 2 -8 10 -14 18
-14 16 0 18 12 4 26 -7 7 -6 19 4 39 11 21 12 33 4 51 -14 30 -45 31 -93 3
-34 -21 -37 -21 -55 -4 -20 18 -19 18 5 41 14 13 25 28 25 33 0 5 10 17 23 26
21 15 21 16 2 15 -36 -4 -45 0 -45 18 1 24 24 52 44 52 22 0 22 49 -1 57 -10
4 -24 13 -32 21 -8 7 -22 12 -31 9 -32 -8 -42 7 -26 38 9 17 13 40 9 54 -5 21
-3 23 16 18 26 -6 84 41 79 64 -2 11 13 14 62 16 36 1 71 2 78 2 6 1 12 10 12
21 0 29 43 27 59 -4 9 -15 19 -22 31 -19 24 6 34 -12 15 -27 -13 -11 -18 -10
-29 5 -9 13 -19 15 -37 9 -13 -4 -39 -6 -57 -5 -18 1 -46 0 -62 -4 -25 -5 -30
-11 -30 -36 0 -24 -7 -33 -35 -46 -41 -20 -50 -56 -12 -51 20 3 22 -1 19 -34
-3 -32 0 -39 26 -52 29 -15 31 -14 46 9 22 33 29 32 52 -11 15 -28 24 -34 42
-31 12 2 21 2 18 0 -3 -3 -1 -16 4 -29 8 -21 7 -24 -12 -24 -11 0 -26 8 -33
17 -11 15 -15 15 -29 4 -15 -13 -15 -16 -1 -31 9 -9 13 -23 11 -31 -2 -8 -7
-34 -10 -58 l-7 -44 48 7 c42 5 50 3 61 -14 17 -27 8 -40 -27 -40 -16 0 -41
-10 -56 -22 -22 -17 -26 -27 -22 -53 7 -43 -14 -74 -46 -68 -32 6 -46 -16 -21
-33 52 -37 65 -54 62 -81 l-3 -28 -23 23 c-42 42 -69 8 -36 -43 21 -32 13 -51
-25 -58 -21 -5 -35 -15 -41 -32 -5 -14 -14 -25 -20 -25 -5 0 -10 -4 -10 -10 0
-5 8 -10 19 -10 23 0 45 -25 36 -41 -5 -8 -1 -9 13 -5 13 4 31 1 45 -9 13 -8
35 -14 48 -13 20 3 23 -1 20 -22 -1 -14 -8 -28 -13 -31 -6 -4 -7 -12 -4 -18 4
-6 0 -11 -9 -11 -8 0 -20 -10 -24 -22 -10 -26 11 -58 39 -58 33 0 66 -59 41
-74 -17 -11 -42 6 -36 24 8 26 -18 41 -64 38 -32 -2 -41 -7 -41 -21 0 -10 -12
-28 -26 -40 -17 -15 -23 -28 -19 -40 9 -23 27 -22 60 5 l27 21 35 -37 35 -37
-27 7 c-18 4 -26 3 -22 -3 4 -6 18 -13 32 -15 18 -4 25 -1 25 11 0 13 2 14 9
2 15 -23 -41 -75 -70 -68 -13 4 -29 1 -36 -5 -17 -13 -17 -48 0 -48 8 0 7 -4
-3 -10 -16 -10 -14 -11 35 -14 12 -1 20 -8 20 -19 0 -9 13 -26 28 -35 15 -10
24 -22 20 -25 -10 -11 -53 -8 -53 3 0 20 -16 10 -27 -18 -7 -15 -18 -35 -25
-45 -11 -16 -9 -21 15 -41 35 -28 34 -39 -5 -57 -24 -10 -34 -22 -36 -41 -3
-25 0 -28 27 -28 17 0 31 -3 31 -7 0 -17 -25 -73 -32 -73 -5 0 -4 -8 1 -18 7
-14 6 -25 -6 -42 -9 -13 -17 -33 -18 -44 -1 -12 -11 -25 -23 -31 -30 -13 -31
-83 -2 -108 25 -21 25 -23 -4 -72 -18 -32 -29 -41 -54 -43 -35 -4 -40 -13 -17
-32 23 -19 18 -39 -15 -58 -34 -19 -36 -25 -15 -42 10 -9 15 -9 15 -1 0 6 14
11 30 11 35 0 34 2 14 -39 -9 -17 -13 -39 -10 -47 6 -14 -14 -54 -42 -83 -11
-11 -10 -17 4 -32 18 -19 12 -39 -12 -39 -9 0 -14 -6 -11 -12 2 -7 0 -25 -4
-41 -4 -15 -4 -25 0 -22 5 2 17 -5 27 -16 19 -21 18 -21 -9 -45 -17 -14 -22
-24 -14 -24 8 0 20 -6 26 -13 8 -11 5 -19 -14 -35 -21 -19 -34 -52 -20 -52 12
0 55 24 55 31 0 4 15 17 33 28 17 11 43 30 57 43 14 13 99 88 190 168 91 80
167 147 170 150 3 3 68 61 145 130 77 69 160 143 185 166 25 23 68 61 97 85
47 41 68 67 60 75 -2 2 -32 6 -68 10 -101 10 -177 73 -155 130 5 13 9 13 34 0
16 -8 44 -29 63 -47 23 -22 47 -33 75 -37 51 -5 65 12 24 30 -16 7 -30 18 -30
24 0 7 -7 14 -15 18 -24 9 -17 26 14 37 26 9 29 15 36 73 7 73 -7 142 -41 203
-30 52 -64 161 -65 205 0 18 4 56 9 84 7 42 17 59 53 94 24 23 51 54 59 70 8
15 23 44 34 64 10 20 22 33 27 30 5 -3 9 -1 9 5 0 5 16 19 35 31 19 12 35 26
35 32 0 9 28 48 63 88 12 13 23 35 32 60 1 3 4 12 8 20 3 8 8 35 11 60 12 107
20 137 43 164 21 25 24 37 21 90 -2 33 -7 64 -13 68 -6 5 -5 11 3 16 9 6 -18
37 -94 108 -153 142 -162 151 -178 182 -26 51 -35 100 -24 135 5 17 11 41 12
52 3 22 51 43 98 44 14 1 34 4 43 7 21 8 49 66 65 131 6 29 16 51 20 48 5 -3
11 -1 15 5 3 5 1 10 -6 10 -7 0 -3 10 9 23 12 13 22 33 22 44 0 16 5 20 19 16
22 -6 37 26 32 67 -4 35 -18 48 -65 62 -22 6 -45 15 -51 20 -5 4 -26 8 -46 8
-21 0 -39 5 -41 12 -2 6 -14 12 -25 13 -19 1 -47 11 -140 51 -17 8 -36 14 -42
14 -17 0 -58 97 -66 155 -4 28 -11 56 -15 64 -4 7 -4 30 1 51 5 22 4 51 -2 71
-5 19 -12 93 -15 164 -2 72 -9 144 -13 160 -12 40 -8 83 12 121 19 36 13 118
-8 110 -10 -3 -12 6 -8 35 6 43 -4 50 -32 19 -10 -11 -24 -20 -32 -20 -7 0
-13 -11 -13 -26 0 -15 -4 -23 -10 -19 -6 4 -8 14 -5 24 3 10 -4 27 -17 41 -26
27 -31 89 -10 106 13 10 15 26 11 87 -2 34 1 37 37 42 16 2 31 4 34 4 3 1 -7
12 -21 25 -19 18 -25 32 -22 49 3 14 0 28 -6 31 -8 5 -8 13 0 28 6 11 9 29 6
39 -3 10 -2 19 2 19 4 0 13 17 19 38 7 21 21 47 32 57 24 22 25 38 4 70 -16
24 -15 25 5 25 16 0 21 6 21 26 0 14 6 32 14 40 18 17 46 18 46 2 0 -9 4 -8
10 2 14 22 12 107 -2 114 -10 3 -9 8 3 18 23 19 51 64 48 80 -4 29 2 37 29 40
24 3 27 7 26 41 -2 44 -9 56 -26 39 -17 -17 -38 -15 -38 3 0 9 9 15 25 15 28
0 45 25 45 69 0 20 8 36 25 49 l26 20 -32 7 c-31 7 -69 33 -69 47 0 5 9 8 20
8 13 0 20 7 20 20 0 12 10 24 24 30 38 14 42 113 5 123 -15 4 -19 11 -15 25 4
13 1 22 -9 26 -16 6 -21 36 -6 36 5 0 32 -5 60 -12 83 -19 127 16 84 65 -13
15 -15 21 -5 24 6 3 12 13 12 24 0 11 7 22 15 25 8 3 20 24 25 45 6 23 17 39
25 39 8 0 15 7 15 15 0 17 -18 19 -54 5 -21 -8 -26 -6 -31 11 -4 11 -2 26 4
33 5 6 8 22 4 34 -8 31 14 57 34 40 12 -10 17 -9 24 5 5 9 15 14 22 12 6 -2
32 -6 56 -9 50 -5 61 -13 76 -58 7 -20 17 -32 25 -30 8 2 2 -8 -15 -22 -16
-14 -38 -25 -47 -26 -10 0 -18 -5 -18 -10 0 -6 10 -8 24 -4 20 5 24 0 36 -40
6 -24 9 -49 5 -55 -11 -18 6 -12 42 15 18 14 33 31 33 38 0 8 11 34 25 57 14
24 25 52 25 62 0 11 9 21 20 24 18 5 24 15 21 35 0 3 13 9 29 13 24 5 34 2 55
-22 13 -15 25 -31 25 -35 0 -5 9 -8 20 -8 33 0 23 28 -30 84 -51 54 -61 85
-41 124 5 9 12 25 15 35 3 9 15 17 26 17 12 0 18 5 15 10 -4 6 -11 8 -16 5
-12 -8 -11 0 3 47 11 38 10 41 -12 58 l-25 19 29 11 c23 9 26 13 16 25 -7 8
-9 15 -5 15 4 0 2 6 -5 14 -9 12 -5 18 27 34 38 20 43 30 45 92 1 8 4 17 7 20
11 9 66 84 73 100 6 11 7 10 5 -5 -2 -27 13 -34 27 -13 8 13 7 26 -1 49 -14
37 -8 55 13 38 11 -9 15 -8 20 5 3 9 4 23 0 31 -4 10 1 14 17 12 18 -2 23 4
27 33 3 24 12 38 28 45 12 5 25 18 28 27 3 10 12 18 20 18 11 0 13 -6 9 -19
-3 -11 1 -26 10 -35 21 -20 35 -20 35 0 0 22 23 12 37 -16 13 -26 3 -65 -18
-65 -8 0 -18 -9 -22 -19 -22 -55 57 -37 89 20 28 47 33 129 9 138 -18 6 -20
33 -4 38 9 3 9 9 0 25 -16 31 -14 49 13 92 16 25 21 43 15 52 -7 11 -11 10
-23 -6 -9 -11 -16 -23 -16 -27 0 -5 -4 -8 -10 -8 -17 0 -11 20 15 46 27 27 24
54 -6 54 -10 0 -19 5 -19 10 0 6 5 10 11 10 8 0 8 4 0 14 -8 10 -7 19 7 37 10
13 24 50 31 82 7 31 16 57 20 57 4 0 13 11 19 24 6 14 21 26 34 29 l23 4 -22
2 c-24 1 -28 12 -14 39 4 9 11 38 13 64 5 43 3 47 -18 52 -28 7 -34 46 -7 46
9 0 13 3 10 7 -4 3 1 11 10 18 15 11 15 15 0 43 -10 22 -12 32 -4 32 12 0 67
60 67 73 0 4 7 7 15 7 8 0 15 5 15 11 0 19 52 79 69 79 10 0 30 14 46 30 18
19 50 36 86 46 55 16 57 17 62 56 6 46 24 63 44 42 23 -22 62 -18 72 9 5 12 6
27 3 32 -4 6 -10 -3 -13 -20 l-7 -30 -1 32 c0 17 -6 35 -12 39 -19 11 7 20 46
16 19 -2 35 -8 35 -13 0 -5 5 -9 10 -9 6 0 10 13 10 29 0 18 8 34 22 43 16 11
20 20 14 41 -3 15 -13 27 -20 27 -17 0 -66 39 -50 40 7 0 9 11 6 26 -4 25 -3
26 22 20 22 -5 26 -3 26 14 0 11 4 20 8 20 5 0 7 33 4 74 -4 65 -2 78 18 106
12 17 19 37 16 45 -4 11 2 15 23 15 20 0 30 -6 34 -20 3 -12 14 -20 27 -20 12
0 18 4 15 11 -5 7 15 10 61 9 76 -2 176 13 269 40 33 10 72 21 86 24 15 3 30
13 33 22 5 14 -1 15 -46 9 -35 -4 -48 -3 -39 3 11 8 11 16 2 43 -9 25 -8 34 1
40 9 6 9 11 -1 23 -17 20 -6 81 19 106 23 23 26 42 5 34 -28 -11 -31 79 -2 97
17 11 -2 28 -26 23 -12 -3 -65 -7 -117 -10 -52 -2 -101 -6 -108 -9 -7 -3 -15
2 -18 10 -4 8 -12 15 -20 15 -7 0 -17 6 -21 13 -4 7 -25 21 -46 32 -44 23 -87
68 -87 90 0 8 -4 15 -9 15 -18 0 -101 96 -101 118 0 13 -42 40 -73 48 -30 7
-51 36 -61 82 -4 17 -12 32 -17 32 -12 0 -12 77 0 84 5 3 12 22 15 41 4 19 11
35 15 35 5 0 8 8 7 18 -1 13 7 17 29 17 23 0 33 7 43 28 8 16 20 31 28 34 8 3
14 10 14 17 0 11 74 46 98 46 6 0 12 6 12 14 0 12 -21 18 -103 30 -9 1 -27 13
-39 25 -24 27 -17 48 22 68 13 6 27 19 32 27 6 10 22 15 46 14 24 0 61 11 107
34 53 26 79 33 108 30 23 -3 37 0 37 7 0 6 7 11 15 11 9 0 28 13 43 28 37 37
119 54 278 57 67 1 126 5 133 9 6 4 11 18 11 32 0 19 -8 28 -32 38 -47 19
-137 7 -166 -22 -12 -12 -34 -23 -49 -23 -16 -1 -63 -3 -107 -5 -43 -2 -87 1
-98 7 -14 7 -22 6 -34 -6 -8 -8 -31 -15 -51 -15 -26 0 -36 -5 -40 -19 -6 -23
-26 -33 -48 -25 -10 4 -14 14 -10 28 2 11 2 15 -1 8 -5 -10 -12 -8 -30 9 -19
18 -24 19 -24 7 0 -27 -23 -26 -73 4 -39 23 -60 28 -112 28 -35 0 -67 5 -70
10 -4 7 -13 6 -27 -1 -16 -9 -24 -7 -41 9 -18 17 -26 19 -42 10 -11 -6 -22
-14 -25 -18 -7 -9 -102 -54 -120 -57 -8 -1 -20 -9 -26 -17 -6 -9 -16 -16 -22
-16 -6 0 -25 -21 -43 -46 -25 -37 -30 -51 -21 -63 5 -9 15 -15 21 -14 6 2 11
-6 11 -17 0 -11 5 -20 10 -20 6 0 10 -28 10 -65 0 -77 26 -183 51 -208 17 -16
16 -47 0 -47 -4 0 -24 9 -45 20 -45 22 -84 61 -111 108 -11 17 -23 32 -27 32
-4 0 -8 6 -8 13 0 26 -70 97 -96 97 -15 0 -40 14 -61 35 -20 19 -41 35 -47 35
-12 1 -56 35 -56 44 0 12 -93 95 -101 91 -4 -3 -10 4 -14 15 -3 11 -15 25 -26
30 -10 6 -19 15 -19 21 0 5 -11 22 -25 37 -14 15 -25 34 -25 42 -1 22 -25 50
-42 50 -15 0 -28 45 -28 103 0 15 -4 27 -10 27 -5 0 -10 6 -10 14 0 8 -9 18
-20 21 -21 7 -28 35 -9 35 7 0 -1 10 -16 22 -30 24 -75 115 -75 152 0 13 -7
41 -16 61 -9 22 -14 54 -11 77 5 45 2 40 45 62 17 9 32 21 32 26 0 6 16 10 36
10 19 0 33 4 29 9 -5 10 23 22 60 26 64 8 102 17 122 30 12 8 35 15 52 15 16
0 42 7 57 15 16 8 39 15 51 15 24 0 96 30 101 43 2 4 11 7 19 7 9 0 21 8 28
17 18 24 69 7 73 -25 2 -13 12 -28 23 -35 14 -9 19 -23 19 -59 0 -26 5 -59 12
-73 9 -19 9 -31 1 -44 -8 -13 -8 -23 0 -37 7 -11 12 -68 13 -134 0 -69 5 -125
13 -140 7 -14 37 -41 67 -60 29 -19 54 -38 54 -42 0 -5 6 -8 13 -8 25 0 67
-79 67 -124 l0 -42 43 0 c23 -1 34 1 24 3 -14 4 -16 8 -6 19 6 8 19 14 29 14
23 0 34 15 54 78 10 28 22 52 27 52 5 0 9 6 9 14 0 8 14 23 30 33 40 23 38 36
-7 56 -25 11 -47 32 -65 61 -25 42 -70 78 -143 116 -21 10 -34 28 -45 60 -8
25 -19 51 -23 58 -5 8 -4 19 3 28 7 8 14 29 16 47 2 17 7 52 10 77 9 62 8 84
-11 170 -9 41 -20 95 -25 120 -30 160 -58 270 -75 294 -11 16 -24 36 -30 45
-15 24 -36 39 -82 60 -24 11 -57 34 -75 50 -18 17 -37 31 -41 31 -5 0 -27 20
-50 44 -28 28 -58 48 -87 57 -50 14 -405 22 -429 9 -9 -5 -22 0 -34 11 -11 10
-36 22 -54 25 -40 8 -52 23 -30 39 15 11 15 14 1 34 -15 20 -14 24 2 42 9 10
12 19 6 19 -7 0 -7 9 1 29 9 25 8 33 -8 51 -12 13 -20 38 -21 63 -6 145 -13
209 -25 223 -16 20 -12 101 7 128 7 11 14 38 14 59 0 53 16 80 43 73 12 -3 29
-1 37 4 12 8 12 10 -2 15 -10 4 -22 4 -27 0 -7 -4 -8 1 -4 12 10 27 53 64 72
62 9 -1 27 0 41 0 25 2 25 2 3 11 -27 11 -31 24 -5 16 20 -6 37 3 45 24 4 12
6 11 6 -3 1 -14 7 -16 29 -11 37 9 40 13 18 30 -18 12 -15 14 25 12 35 -2 53
4 81 25 20 15 42 26 49 25 8 -2 14 5 14 17 0 13 11 25 30 33 34 15 45 29 38
49 -3 7 0 13 6 13 7 0 37 16 67 35 30 19 58 35 62 35 4 0 13 9 19 19 7 11 25
22 42 26 16 3 35 13 42 21 6 8 18 14 25 14 8 0 14 5 14 10 0 6 7 10 15 10 17
0 20 16 6 25 -13 7 70 92 102 104 14 5 34 7 46 4 14 -4 21 -1 21 9 0 37 94 75
205 84 27 2 51 8 53 14 2 5 11 10 21 10 9 0 22 5 29 12 6 6 43 11 88 11 60 0
85 4 111 20 31 18 39 18 96 7 34 -6 71 -17 82 -24 23 -15 61 -24 130 -32 28
-3 67 -14 88 -25 29 -15 50 -18 85 -14 65 9 125 -6 137 -32 5 -12 17 -24 26
-26 15 -4 16 -1 9 18 -5 13 -6 26 -3 29 25 24 123 -32 123 -71 0 -13 7 -26 15
-29 11 -5 15 -22 15 -68 0 -55 3 -66 30 -96 17 -18 30 -41 30 -49 0 -9 7 -25
15 -35 8 -11 15 -27 15 -36 0 -8 11 -32 25 -52 14 -20 25 -45 25 -55 0 -11 5
-24 11 -30 9 -9 9 -20 0 -44 -13 -39 -8 -47 15 -24 13 13 19 14 25 4 5 -8 3
-17 -4 -21 -8 -5 -8 -13 2 -31 7 -14 11 -30 7 -35 -3 -6 10 -27 29 -48 19 -20
35 -43 35 -50 0 -8 4 -14 9 -14 5 0 14 -13 19 -29 9 -24 74 -97 127 -139 9 -8
40 -24 69 -36 30 -11 67 -32 83 -46 34 -29 86 -113 76 -123 -3 -4 4 -18 16
-31 12 -13 23 -34 25 -48 3 -33 15 -50 29 -41 8 4 7 1 -1 -9 -9 -11 -10 -18
-2 -23 5 -3 10 -17 10 -31 0 -13 4 -32 10 -42 16 -28 80 -190 80 -202 0 -6 7
-18 15 -26 8 -9 15 -33 15 -56 0 -54 14 -106 53 -198 21 -50 30 -107 17 -115
-6 -4 -17 10 -27 32 -13 33 -17 35 -23 18 -4 -11 -3 -35 2 -55 5 -19 13 -55
18 -80 21 -102 45 -190 52 -190 5 0 8 35 9 78 1 42 3 97 5 122 2 25 5 77 7
115 5 108 5 105 32 105 22 0 25 4 25 40 0 38 1 39 30 34 24 -5 34 -1 60 27 16
18 30 39 30 47 0 7 4 11 9 8 5 -3 11 1 15 9 8 22 36 18 36 -5 0 -36 32 -8 109
95 40 52 76 95 82 95 5 0 9 7 9 15 0 18 31 15 52 -5 8 -9 13 -21 10 -28 -2 -6
1 -12 6 -12 13 0 39 -72 51 -140 5 -30 17 -80 26 -110 18 -61 15 -125 -10
-204 -8 -27 -15 -63 -15 -80 -1 -17 -7 -53 -14 -81 -10 -39 -19 -52 -42 -62
-30 -12 -22 -16 31 -15 16 1 16 0 3 -4 -9 -3 -20 -13 -23 -23 -8 -28 -87 -97
-124 -110 -73 -24 -185 -1 -255 53 -38 29 -39 29 -53 10 -12 -15 -13 -38 -6
-119 14 -170 9 -390 -11 -502 l-18 -103 23 -37 c13 -21 27 -39 31 -41 4 -2 8
-8 8 -14 0 -6 11 -26 26 -45 34 -45 15 -42 -22 4 -66 83 -61 79 -77 63 -40
-44 -44 -189 -6 -267 11 -23 24 -68 29 -100 5 -32 18 -102 30 -156 17 -83 29
-185 34 -294 1 -12 9 -28 19 -35 14 -11 20 -36 28 -117 5 -57 7 -112 3 -123
-3 -10 -8 -35 -10 -55 -2 -19 -8 -43 -13 -52 -5 -9 -11 -32 -13 -51 -2 -27 0
-34 12 -31 8 2 37 8 65 13 27 5 62 16 77 24 30 16 68 19 68 5 0 -5 -6 -11 -13
-14 -7 -2 -18 -26 -25 -53 -16 -61 -35 -104 -44 -104 -5 0 -8 -7 -8 -15 0 -8
5 -15 11 -15 13 0 59 35 62 47 1 4 5 7 8 6 4 -1 15 7 24 17 10 11 26 20 36 20
10 0 20 4 23 9 3 4 -13 7 -37 6 -50 -3 -72 6 -37 15 14 4 24 12 23 18 -2 7 8
12 22 12 27 0 34 15 10 24 -8 3 -15 10 -15 17 0 6 7 9 15 5 22 -8 91 26 116
58 l21 27 -41 -7 c-34 -5 -41 -4 -41 10 0 17 8 20 53 17 18 -1 30 5 34 16 8
22 39 53 53 53 5 0 30 -20 54 -45 47 -48 63 -54 72 -30 5 13 8 13 21 0 8 -9
33 -15 60 -15 25 0 57 -6 71 -14 15 -8 44 -21 64 -30 20 -9 38 -22 41 -29 3
-9 9 -9 23 -1 15 9 29 6 71 -17 29 -16 57 -29 64 -29 6 0 32 -15 58 -34 41
-30 68 -39 136 -48 14 -2 21 4 23 20 3 20 9 22 60 22 31 0 97 -5 147 -10 74
-8 92 -7 105 5 9 8 33 15 53 15 20 0 39 5 42 11 4 6 19 7 37 4 21 -5 28 -4 24
4 -5 7 2 11 16 12 75 4 96 -10 116 -78 12 -40 16 -43 70 -59 59 -17 106 -37
181 -79 74 -41 108 2 38 48 -17 11 -27 13 -35 5 -13 -13 -61 61 -69 106 -4 26
3 43 37 93 l43 62 -37 50 c-20 28 -36 54 -36 57 0 7 57 80 92 118 10 11 18 29
18 39 0 29 -35 80 -68 99 -25 15 -32 30 -56 125 -29 115 -44 166 -57 198 -21
56 -99 456 -134 695 -20 136 -39 208 -75 281 -46 95 -128 189 -236 271 -52 39
-54 42 -54 87 0 90 -41 216 -99 306 -34 53 -123 165 -150 189 -11 11 -21 26
-21 35 0 32 -90 273 -132 353 -26 51 -64 104 -98 138 -53 53 -56 58 -52 98 6
59 -26 104 -105 148 -65 37 -67 39 -155 212 -24 46 -68 99 -158 191 -132 135
-150 150 -356 319 -121 99 -138 117 -214 229 -46 67 -104 140 -129 161 -25 22
-68 61 -96 87 -27 27 -77 71 -110 98 -33 27 -67 56 -75 64 -8 7 -28 25 -45 39
-16 15 -46 41 -65 59 -44 40 -174 125 -297 192 -207 114 -495 207 -705 229
-55 5 -72 4 -94 -10 -35 -23 -78 -23 -144 2 -43 17 -78 21 -162 22 l-107 0
-26 44 c-45 77 -55 80 -265 83 l-185 3 -198 -56z m-105 -2727 c10 -12 15 -12
26 0 18 17 41 17 48 -2 4 -8 17 -15 30 -15 20 0 24 -5 24 -28 0 -16 8 -33 19
-41 18 -13 18 -16 3 -30 -8 -9 -38 -18 -66 -21 l-51 -5 52 -18 c73 -26 83 -41
34 -55 -21 -7 -56 -12 -77 -12 -22 0 -84 -11 -139 -25 -84 -21 -104 -23 -127
-12 -36 15 -35 21 5 57 l32 29 -29 1 c-15 0 -46 -10 -67 -22 -41 -23 -61 -19
-39 7 7 9 9 19 5 23 -4 4 -10 1 -12 -6 -4 -9 -11 -8 -33 5 -26 15 -29 15 -45
0 -21 -22 -57 -23 -49 -2 4 8 12 15 20 15 16 0 19 16 4 25 -7 4 -5 14 5 28 8
12 15 29 15 38 0 14 16 20 73 29 39 6 88 16 107 22 19 6 71 14 115 18 44 4 85
7 92 8 7 1 18 -4 25 -11z m3561 -586 c52 -35 121 -117 148 -173 12 -24 28 -56
36 -72 26 -49 38 -187 23 -251 -21 -88 -37 -89 -44 -3 -12 127 -27 222 -43
258 -38 90 -78 163 -101 183 -84 75 -95 87 -78 87 10 0 36 -13 59 -29z m-4633
-7272 c0 -10 5 -21 10 -24 13 -8 13 -65 0 -65 -5 0 -14 -9 -21 -21 -9 -17 -7
-23 10 -36 21 -14 29 -43 12 -43 -5 0 -15 9 -22 21 -9 13 -20 18 -31 14 -20
-8 -31 -45 -18 -60 10 -12 3 -25 -13 -25 -6 0 -8 3 -4 6 3 4 -11 25 -33 47
-31 33 -37 45 -29 59 5 10 18 18 29 18 32 0 50 11 50 32 0 10 -4 16 -10 13
-19 -12 -10 45 12 79 21 32 24 34 40 19 10 -9 18 -24 18 -34z m-1512 -399 c2
-12 -1 -26 -7 -29 -25 -16 -41 -155 -44 -365 -2 -172 0 -210 11 -208 10 2 12
-5 7 -30 -10 -44 -24 -61 -40 -48 -15 12 -19 160 -5 160 6 0 10 12 10 26 0 14
-4 23 -10 19 -12 -8 -13 -3 0 29 7 18 5 38 -6 68 -8 23 -16 83 -17 133 -2 76
1 96 18 120 24 36 45 92 45 121 0 41 32 45 38 4z m172 1 c0 -25 -20 -83 -36
-101 -7 -8 -15 -27 -19 -42 -4 -15 -13 -32 -21 -39 -8 -6 -14 -21 -14 -33 0
-31 -36 -120 -50 -124 -10 -4 -12 13 -6 77 6 79 45 203 81 257 19 30 65 34 65
5z m1102 -260 c4 -1 15 -15 24 -33 l17 -32 17 22 c22 27 32 27 53 4 16 -18 15
-19 -10 -33 -14 -8 -31 -25 -38 -39 -19 -42 -50 -90 -57 -90 -5 0 -8 11 -8 25
0 28 -23 43 -43 27 -23 -19 -82 21 -93 62 -6 27 -5 29 18 24 32 -6 70 18 49
31 -25 16 -5 39 31 36 18 -2 36 -4 40 -4z"/>
<path d="M16790 17098 c-19 -5 -54 -18 -77 -29 -24 -10 -49 -19 -56 -19 -7 0
-31 -9 -52 -21 -22 -11 -62 -22 -90 -26 -27 -3 -62 -14 -77 -24 -16 -11 -45
-21 -67 -23 -21 -2 -71 -16 -111 -32 -58 -23 -77 -35 -96 -66 -13 -21 -24 -46
-24 -57 0 -29 -15 -33 -35 -11 -13 14 -22 17 -40 10 -13 -5 -25 -6 -28 -3 -3
3 -12 1 -19 -3 -7 -5 -24 -7 -38 -5 -21 3 -22 1 -11 -12 9 -12 10 -21 2 -36
-12 -21 -10 -23 59 -36 19 -4 40 -11 46 -16 25 -20 127 -13 181 13 23 10 58
22 79 25 39 6 124 57 124 74 0 5 6 9 14 9 14 0 115 47 238 110 42 22 85 40 96
40 27 0 52 10 52 21 0 5 -16 9 -35 9 -42 0 -47 15 -7 23 15 3 47 10 72 16 37
8 50 7 76 -8 16 -10 48 -21 70 -25 21 -4 59 -13 84 -21 121 -37 177 -48 185
-36 6 11 -82 57 -125 66 -19 4 -52 16 -73 27 -21 10 -64 23 -95 29 -31 6 -68
17 -81 26 -16 10 -36 13 -61 9 -21 -3 -40 -2 -42 2 -2 5 -19 5 -38 0z"/>
<path d="M16580 16651 c-81 -33 -114 -53 -158 -95 -58 -55 -80 -100 -78 -156
5 -98 -2 -90 74 -90 50 -1 63 -3 50 -11 -28 -16 -21 -28 20 -35 20 -4 42 -10
47 -14 6 -4 31 -8 56 -9 50 -2 66 10 90 66 12 28 17 31 49 28 31 -3 39 1 59
31 18 25 31 34 52 34 16 0 29 3 29 8 0 11 156 89 208 104 51 15 55 25 21 50
-47 35 -304 64 -418 48 -80 -11 -107 -5 -88 21 7 8 21 21 32 27 30 17 6 13
-45 -7z"/>
<path d="M5060 15405 c0 -685 0 -1248 0 -1252 0 -5 72 -9 160 -11 l160 -2 0
1255 0 1255 -160 0 -160 0 0 -1245z"/>
<path d="M8932 16475 c2 -58 1 -104 -2 -102 -100 61 -203 39 -250 -53 -77
-151 20 -333 164 -306 19 4 49 18 66 32 l30 26 0 -26 c0 -22 4 -26 30 -26 l30
0 0 280 0 280 -36 0 -35 0 3 -105z m-28 -156 c22 -26 26 -40 26 -99 0 -81 -13
-116 -51 -136 -82 -42 -153 17 -153 126 0 91 39 138 116 139 29 1 42 -5 62
-30z"/>
<path d="M5590 16543 c1 -14 122 -411 147 -480 15 -40 18 -43 52 -43 l36 0 83
243 c107 310 103 287 59 287 l-35 0 -61 -187 c-33 -104 -64 -203 -67 -220 -9
-44 -20 -42 -27 5 -4 20 -15 64 -26 97 -10 33 -31 101 -46 150 -50 169 -43
155 -81 155 -19 0 -34 -3 -34 -7z"/>
<path d="M9923 16500 c-19 -8 -23 -17 -23 -55 0 -43 -1 -45 -28 -45 -23 0 -28
-4 -27 -22 1 -14 11 -25 28 -31 l27 -9 0 -117 c0 -65 5 -131 10 -148 24 -67
150 -90 150 -27 0 20 -5 24 -28 24 -58 0 -63 12 -60 150 l3 125 37 0 c41 0 50
6 55 35 3 18 -3 20 -47 20 l-50 0 0 55 c0 58 -4 62 -47 45z"/>
<path d="M6290 16391 c-105 -58 -139 -189 -75 -297 41 -71 125 -99 218 -73 30
8 37 15 37 35 0 24 -1 24 -62 19 -75 -7 -115 12 -141 68 -33 68 -12 152 47
189 25 15 43 18 89 15 54 -5 57 -4 63 19 4 14 4 28 1 31 -4 3 -37 7 -74 10
-54 3 -75 -1 -103 -16z"/>
<path d="M6603 16384 c-52 -34 -75 -80 -81 -157 -11 -150 86 -238 235 -211 45
8 48 11 51 42 3 31 2 32 -23 22 -35 -13 -108 -13 -138 1 -27 12 -53 52 -59 89
l-3 25 125 5 125 5 3 32 c4 41 -32 123 -65 147 -15 11 -48 21 -77 24 -43 3
-58 -1 -93 -24z m138 -53 c17 -17 29 -40 29 -55 l0 -26 -90 0 c-98 0 -106 6
-76 59 31 55 93 65 137 22z"/>
<path d="M7295 16393 c-16 -9 -35 -23 -42 -32 -11 -14 -13 -14 -14 -1 -1 8 -1
21 0 28 1 7 -11 12 -33 12 l-35 0 2 -267 2 -268 33 -3 32 -3 0 100 c0 61 4
101 10 101 6 0 10 -4 10 -9 0 -14 65 -41 97 -41 74 1 145 77 156 169 20 160
-100 278 -218 214z m115 -73 c75 -80 29 -250 -66 -250 -73 0 -115 73 -99 176
14 98 105 138 165 74z"/>
<path d="M7720 16403 c-8 -4 -24 -17 -35 -30 -27 -30 -39 -29 -32 3 4 23 2 25
-27 22 -17 -2 -31 -9 -30 -15 1 -7 2 -92 3 -188 l1 -175 29 0 c36 0 38 7 40
145 1 60 6 116 12 126 17 33 40 49 70 49 27 0 29 3 29 35 0 30 -3 35 -22 34
-13 0 -30 -3 -38 -6z"/>
<path d="M7900 16387 c-114 -60 -124 -272 -17 -345 42 -28 118 -38 175 -23 39
11 43 15 40 39 -2 18 -8 26 -18 23 -39 -12 -114 -12 -140 -1 -27 11 -70 77
-70 108 0 8 39 12 128 14 l127 3 -2 47 c-4 128 -113 194 -223 135z m132 -55
c10 -9 20 -32 24 -50 l7 -32 -92 0 c-88 0 -91 1 -91 23 0 29 26 66 54 77 28
13 77 4 98 -18z"/>
<path d="M8253 16400 c-13 -5 -32 -24 -43 -42 -40 -66 -19 -119 67 -164 68
-37 88 -71 58 -104 -20 -22 -82 -27 -117 -9 -23 12 -23 12 -32 -18 -16 -52
121 -71 182 -26 35 26 54 81 42 123 -11 37 -28 53 -86 80 -51 24 -67 42 -62
72 4 32 42 48 85 36 37 -10 52 -1 53 30 0 27 -97 42 -147 22z"/>
<path d="M9163 16384 c-52 -34 -75 -80 -81 -157 -11 -150 86 -238 235 -211 45
8 48 11 51 42 3 31 2 32 -23 22 -35 -13 -108 -13 -138 1 -27 12 -53 52 -59 89
l-3 25 125 5 125 5 3 32 c4 41 -32 123 -65 147 -15 11 -48 21 -77 24 -43 3
-58 -1 -93 -24z m138 -53 c17 -17 29 -40 29 -55 l0 -26 -90 0 c-98 0 -106 6
-76 59 31 55 93 65 137 22z"/>
<path d="M9605 16398 c-11 -6 -30 -20 -42 -31 l-23 -20 0 26 c0 23 -4 27 -30
27 l-30 0 0 -190 0 -190 35 0 35 0 0 136 0 136 29 29 c32 31 55 36 95 18 37
-17 46 -57 46 -195 l0 -124 35 0 35 0 0 128 c0 169 -15 218 -77 250 -27 15
-82 15 -108 0z"/>
<path d="M6040 16210 l0 -190 35 0 35 0 0 190 0 190 -35 0 -35 0 0 -190z"/>
<path d="M8505 16388 c-2 -7 -3 -92 -2 -188 l2 -175 33 -3 32 -3 0 190 0 191
-30 0 c-17 0 -32 -6 -35 -12z"/>
<path d="M5890 15530 l0 -111 -29 22 c-72 53 -183 24 -228 -61 -32 -60 -32
-168 0 -224 35 -61 68 -81 137 -81 51 1 64 5 88 28 34 33 44 34 40 5 -2 -19 2
-24 30 -26 l32 -3 -2 278 -3 278 -32 3 -33 3 0 -111z m-52 -136 c33 -23 52
-67 52 -124 0 -85 -42 -140 -107 -140 -74 0 -125 93 -102 185 20 80 99 120
157 79z"/>
<path d="M6134 15456 c-87 -38 -130 -182 -85 -281 37 -81 102 -113 204 -101
65 8 81 18 73 43 -6 18 -13 20 -80 15 -69 -4 -75 -3 -105 24 -21 19 -34 42
-38 67 l-6 37 127 0 126 0 0 43 c0 122 -109 199 -216 153z m115 -62 c22 -18
31 -35 31 -55 l0 -29 -90 0 c-85 0 -90 1 -90 21 0 30 62 89 93 89 14 0 39 -12
56 -26z"/>
<path d="M6720 15459 c-14 -6 -35 -20 -47 -31 l-23 -21 0 26 c0 23 -4 27 -30
27 l-30 0 0 -271 0 -270 33 3 32 3 3 93 c1 50 5 92 7 92 3 0 19 -9 37 -20 42
-25 81 -25 134 1 34 16 49 32 70 75 23 48 26 63 22 124 -4 54 -12 79 -32 111
-40 60 -111 84 -176 58z m96 -71 c30 -34 44 -74 44 -124 0 -116 -100 -176
-172 -104 -29 30 -30 32 -27 114 4 79 6 86 34 110 39 34 93 35 121 4z"/>
<path d="M7128 15453 c-15 -9 -31 -26 -37 -37 -9 -19 -10 -17 -10 12 -1 29 -4
32 -31 32 l-30 0 0 -190 0 -190 34 0 34 0 4 136 c3 135 3 136 31 160 15 13 39
24 53 24 21 0 24 5 24 35 0 30 -3 35 -22 35 -13 0 -35 -8 -50 -17z"/>
<path d="M7335 15456 c-129 -56 -148 -283 -30 -356 66 -41 149 -36 210 12 67
53 88 178 43 266 -39 78 -141 114 -223 78z m123 -62 c34 -23 52 -67 52 -124 0
-87 -40 -140 -105 -140 -79 0 -127 85 -105 184 19 84 97 123 158 80z"/>
<path d="M7735 15456 c-93 -40 -134 -184 -82 -286 44 -89 143 -118 215 -63
l35 26 -5 -52 c-4 -39 -12 -60 -30 -78 -33 -33 -99 -41 -151 -19 -37 15 -38
15 -49 -10 -14 -31 -5 -39 63 -53 52 -12 110 -5 154 17 40 20 48 30 68 80 14
35 17 78 17 242 l0 200 -30 0 c-23 0 -30 -4 -30 -20 0 -18 -2 -18 -36 5 -41
28 -92 32 -139 11z m132 -70 c27 -23 28 -28 28 -111 0 -83 -1 -88 -28 -111
-31 -27 -92 -33 -119 -11 -63 51 -66 170 -6 235 30 31 88 30 125 -2z"/>
<path d="M8195 15459 c-11 -6 -30 -23 -42 -38 l-23 -26 0 33 c0 29 -3 32 -31
32 -30 0 -31 -2 -25 -31 3 -17 6 -103 6 -191 l0 -159 30 3 31 3 2 120 c2 142
17 178 76 192 31 7 36 13 39 41 3 28 0 32 -20 32 -13 0 -32 -5 -43 -11z"/>
<path d="M8360 15456 c-27 -10 -35 -18 -35 -37 0 -19 5 -23 20 -20 11 2 45 5
76 8 51 4 58 2 73 -18 9 -13 16 -34 16 -46 0 -20 -5 -23 -37 -23 -137 -2 -221
-103 -163 -198 35 -57 116 -67 180 -22 l30 21 0 -20 c0 -17 6 -21 30 -21 l30
0 0 140 c0 122 -3 146 -21 181 -32 64 -113 86 -199 55z m150 -231 c0 -61 -32
-95 -89 -95 -30 0 -43 5 -51 19 -15 30 -12 56 10 84 21 26 40 33 98 36 32 1
32 0 32 -44z"/>
<path d="M8788 15452 c-16 -9 -28 -20 -28 -24 0 -5 -7 -8 -15 -8 -10 0 -15 7
-13 18 2 12 -5 18 -27 20 l-30 3 3 -191 3 -191 32 3 32 3 2 124 c1 68 7 136
13 151 15 35 50 54 87 46 42 -10 53 -49 53 -199 l0 -127 35 0 35 0 0 130 c0
166 14 200 84 200 12 0 33 -12 47 -26 23 -24 24 -33 26 -162 l3 -137 30 -3 30
-3 0 141 c0 97 -4 151 -14 174 -17 40 -64 76 -100 76 -38 0 -91 -24 -109 -50
l-15 -22 -11 21 c-26 47 -104 64 -153 33z"/>
<path d="M9425 15458 c-11 -6 -30 -20 -42 -31 l-23 -20 0 26 c0 24 -4 27 -31
27 -31 0 -31 -1 -25 -37 3 -21 6 -107 6 -190 l0 -153 30 0 30 0 0 126 c0 111
3 131 21 160 36 58 100 57 125 -2 9 -23 14 -74 14 -159 l0 -125 35 0 35 0 0
140 c0 136 1 142 25 165 30 31 75 33 101 4 16 -18 19 -40 22 -165 l3 -144 35
0 34 0 0 140 c0 110 -4 148 -16 173 -25 49 -44 66 -80 73 -46 9 -78 -1 -117
-36 l-34 -29 -13 23 c-22 42 -90 59 -135 34z"/>
<path d="M10000 15452 c-115 -57 -128 -275 -20 -352 37 -27 120 -36 178 -21
34 10 42 16 42 36 0 23 -1 23 -73 18 -48 -4 -81 -1 -96 6 -27 15 -61 69 -61
98 0 22 3 22 127 25 l127 3 -2 50 c-7 120 -119 189 -222 137z m99 -43 c31 -11
61 -52 61 -84 0 -12 -16 -15 -95 -15 -60 0 -95 4 -95 10 0 24 32 70 58 84 33
19 32 18 71 5z"/>
<path d="M7030 14410 l0 -281 30 3 30 3 1 275 1 275 -31 3 -31 3 0 -281z"/>
<path d="M6043 14610 c-19 -8 -23 -17 -23 -55 0 -43 -1 -45 -30 -45 -25 0 -30
-4 -30 -25 0 -24 4 -27 40 -29 12 -1 16 -26 21 -136 3 -74 9 -143 13 -152 26
-57 146 -67 146 -12 0 20 -5 24 -28 24 -58 0 -63 12 -60 150 l3 125 40 0 c36
0 40 3 43 28 3 26 2 27 -42 27 l-46 0 0 55 c0 58 -4 62 -47 45z"/>
<path d="M7593 14610 c-19 -8 -23 -17 -23 -55 0 -41 -2 -45 -25 -45 -20 0 -25
-5 -25 -25 0 -14 5 -26 10 -26 6 -1 16 -2 23 -3 9 -1 13 -38 17 -136 6 -146
14 -171 61 -190 15 -6 42 -10 60 -8 29 2 35 7 37 31 3 24 0 27 -25 27 -54 0
-58 9 -61 144 l-4 124 30 7 c16 3 33 5 38 4 24 -4 34 3 34 26 0 23 -3 25 -50
25 l-50 0 0 55 c0 58 -4 62 -47 45z"/>
<path d="M10033 14610 c-19 -8 -23 -17 -23 -55 0 -44 -1 -45 -31 -45 -27 0
-30 -3 -27 -27 2 -22 8 -28 28 -28 l25 0 5 -135 c3 -84 10 -144 18 -158 25
-44 125 -60 137 -22 9 28 -2 40 -34 40 -46 0 -51 14 -51 152 l0 128 45 0 c41
0 45 2 45 25 0 23 -4 25 -45 25 l-45 0 -1 38 c-1 20 -1 45 0 55 2 19 -12 21
-46 7z"/>
<path d="M5715 14506 c-86 -37 -128 -163 -91 -269 34 -95 129 -137 238 -107
42 12 51 21 42 43 -4 13 -19 14 -77 10 -68 -5 -74 -4 -105 22 -29 24 -55 80
-45 98 2 4 61 7 130 7 l126 0 -6 55 c-3 31 -14 70 -24 87 -35 60 -120 84 -188
54z m98 -47 c26 -12 47 -47 47 -79 0 -18 -7 -20 -90 -20 -87 0 -90 1 -90 23 1
27 30 64 62 76 31 13 43 13 71 0z"/>
<path d="M6529 14505 c-15 -8 -29 -21 -33 -30 -9 -24 -26 -18 -26 10 0 21 -5
25 -29 25 l-29 0 2 -187 1 -188 33 -3 32 -3 0 112 c0 132 21 195 68 205 49 10
52 13 52 44 0 25 -4 30 -22 30 -13 -1 -35 -7 -49 -15z"/>
<path d="M6721 14503 c-55 -27 -85 -84 -89 -169 -7 -132 48 -202 164 -212 79
-6 124 10 124 44 0 23 -2 23 -65 17 -85 -8 -122 7 -146 61 -30 67 -32 66 105
66 138 0 142 2 130 69 -21 116 -123 173 -223 124z m137 -69 c12 -14 22 -36 22
-50 0 -24 -1 -24 -88 -24 -49 0 -91 3 -95 6 -12 13 17 67 47 85 39 25 83 18
114 -17z"/>
<path d="M7239 14502 c-32 -15 -36 -20 -28 -40 7 -19 12 -21 28 -12 11 5 42
10 69 10 54 0 78 -17 84 -60 3 -23 -1 -25 -47 -32 -91 -13 -132 -35 -154 -81
-24 -51 -18 -97 16 -131 44 -44 116 -45 168 -4 l26 20 6 -21 c4 -16 13 -21 36
-21 l30 0 -6 145 c-7 166 -19 204 -72 229 -43 21 -111 20 -156 -2z m161 -221
c0 -58 -39 -101 -91 -101 -30 0 -42 5 -55 25 -34 52 25 115 108 115 37 0 38
-1 38 -39z"/>
<path d="M8049 14501 c-52 -29 -89 -88 -96 -153 -17 -164 115 -272 254 -209
122 56 139 262 28 347 -49 37 -133 44 -186 15z m140 -57 c67 -47 66 -201 -1
-248 -34 -24 -90 -20 -121 8 -55 51 -60 167 -11 226 21 25 33 30 68 30 23 0
52 -7 65 -16z"/>
<path d="M8516 14505 c-16 -8 -35 -23 -42 -33 -12 -15 -13 -14 -14 11 0 26 -3
28 -32 25 -19 -2 -33 -8 -32 -15 1 -7 2 -92 3 -188 l1 -175 34 0 34 0 1 138 1
137 30 28 c32 29 59 34 92 16 36 -19 48 -70 48 -199 l0 -121 33 3 32 3 3 108
c4 136 -9 205 -48 242 -36 34 -101 43 -144 20z"/>
<path d="M8853 14504 c-39 -20 -67 -74 -58 -114 7 -30 66 -90 89 -90 27 0 66
-41 66 -70 0 -49 -28 -57 -135 -38 -16 2 -20 -3 -20 -27 0 -26 5 -30 38 -38
64 -15 122 -1 156 39 58 66 35 135 -64 187 -43 23 -61 38 -63 55 -6 40 16 54
77 50 52 -3 56 -1 59 19 6 41 -83 57 -145 27z"/>
<path d="M9326 14497 c-85 -48 -116 -185 -64 -285 31 -61 84 -92 153 -91 86 2
110 11 113 41 l3 27 -68 -6 c-101 -8 -141 15 -158 94 l-6 32 128 3 128 3 -3
45 c-10 131 -119 198 -226 137z m113 -42 c30 -15 58 -66 46 -84 -7 -13 -171
-15 -179 -3 -9 15 28 76 54 89 32 16 45 16 79 -2z"/>
<path d="M10315 14506 c-92 -40 -134 -186 -84 -288 38 -79 116 -111 215 -90
31 6 59 13 61 16 2 2 1 15 -2 29 -6 23 -10 25 -32 16 -13 -5 -46 -9 -73 -9
-38 0 -55 6 -79 26 -29 24 -54 79 -44 97 2 4 61 7 130 7 l126 0 -6 55 c-3 31
-15 71 -26 89 -37 59 -118 82 -186 52z m116 -65 c17 -17 29 -40 29 -55 l0 -26
-90 0 c-87 0 -90 1 -90 23 0 23 35 70 60 80 34 13 63 6 91 -22z"/>
<path d="M10740 14513 c-18 -8 -33 -22 -48 -48 -10 -18 -11 -17 -12 13 0 29
-3 32 -30 32 l-30 0 0 -190 0 -190 34 0 34 0 4 136 c3 135 3 136 31 160 15 13
39 24 53 24 21 0 24 5 24 35 0 30 -3 35 -22 34 -13 0 -30 -3 -38 -6z"/>
<path d="M11110 14504 c-93 -38 -131 -210 -67 -306 26 -39 98 -78 145 -78 48
0 122 20 121 34 -2 29 -14 45 -29 36 -8 -5 -41 -10 -73 -10 -54 0 -62 3 -93
34 -24 24 -34 43 -34 65 l0 31 125 0 125 0 0 47 c0 121 -109 194 -220 147z
m103 -45 c26 -12 44 -40 49 -74 3 -19 -3 -20 -89 -23 -105 -3 -112 3 -70 65
29 43 64 53 110 32z"/>
<path d="M11914 14484 l-34 -35 0 30 c0 28 -3 31 -30 31 l-31 0 3 -187 3 -188
33 -3 32 -3 0 110 c0 153 22 202 95 213 14 2 21 12 23 36 3 30 1 32 -29 32
-23 0 -40 -9 -65 -36z"/>
<path d="M12126 14498 c-122 -71 -119 -295 4 -358 39 -20 103 -24 165 -11 23
5 31 12 33 33 l3 27 -74 -6 c-86 -7 -120 9 -143 64 -27 62 -27 62 114 65 l127
3 -3 45 c-7 94 -56 150 -139 157 -37 3 -57 -1 -87 -19z m113 -43 c30 -15 58
-66 46 -84 -7 -13 -171 -15 -179 -3 -9 15 28 76 54 89 32 16 45 16 79 -2z"/>
<path d="M12472 14500 c-38 -24 -56 -62 -48 -108 7 -45 20 -58 87 -93 63 -31
79 -57 58 -95 -10 -20 -20 -24 -56 -24 -25 0 -53 5 -65 11 -23 13 -24 12 -33
-22 -6 -23 -2 -27 33 -37 110 -33 192 12 192 104 0 51 -25 85 -84 113 -57 28
-80 54 -71 81 9 29 41 39 89 28 41 -9 59 1 53 32 -5 32 -107 39 -155 10z"/>
<path d="M7810 14320 l0 -190 35 0 35 0 0 190 0 190 -35 0 -35 0 0 -190z"/>
<path d="M9638 14453 c21 -32 48 -75 60 -95 l23 -36 -57 -83 c-74 -109 -74
-109 -31 -109 34 0 39 4 78 70 23 39 44 70 48 70 3 0 24 -31 46 -70 39 -67 41
-69 79 -70 46 0 46 -1 -28 113 l-55 85 60 87 c32 48 59 89 59 91 0 2 -17 4
-37 4 -36 0 -40 -3 -79 -71 l-41 -71 -44 71 c-42 68 -45 71 -82 71 l-38 0 39
-57z"/>
<path d="M10870 14319 l0 -190 33 3 c17 2 31 6 30 11 -2 4 -3 88 -3 187 l0
180 -30 0 -30 0 0 -191z"/>
<path d="M11402 14368 c4 -166 17 -206 75 -233 45 -22 94 -15 139 20 l34 26 0
-26 c0 -24 3 -26 33 -23 17 2 31 6 30 11 -2 4 -3 88 -3 187 l0 180 -35 0 -35
0 0 -134 c0 -153 -11 -180 -76 -192 -30 -6 -40 -2 -62 20 -26 26 -27 30 -30
166 l-4 140 -35 0 -35 0 4 -142z"/>
<path d="M20125 13501 c-3 -5 12 -22 32 -37 38 -27 118 -124 118 -142 0 -15
-70 -60 -116 -75 -21 -6 -39 -16 -39 -20 0 -11 -17 -27 -60 -57 -64 -44 -98
-87 -105 -132 -3 -24 -17 -95 -30 -158 -13 -63 -28 -173 -35 -245 -14 -162
-34 -214 -96 -250 -46 -27 -67 -30 -217 -26 -99 3 -127 -5 -127 -35 0 -8 -9
-14 -19 -14 -11 0 -22 -4 -25 -9 -8 -13 4 -42 15 -35 5 3 18 7 29 9 26 5 57
-49 40 -70 -6 -8 -13 -61 -15 -122 -8 -265 -18 -394 -32 -409 -10 -10 -14 -37
-13 -96 1 -46 4 -166 6 -268 2 -102 8 -255 13 -340 18 -275 21 -342 27 -490 4
-104 10 -151 20 -168 10 -16 15 -45 14 -90 -2 -76 7 -183 21 -257 6 -27 15
-74 21 -103 5 -30 16 -56 23 -58 7 -3 25 8 42 23 16 15 47 44 68 63 59 52 300
267 370 330 33 30 81 72 105 93 25 21 77 69 115 106 39 36 100 93 138 125 l67
58 0 269 c0 183 -3 269 -11 269 -5 0 -9 -8 -8 -17 3 -35 -1 -53 -13 -53 -19 0
-68 -52 -68 -72 0 -10 -7 -21 -15 -24 -9 -4 -15 -19 -15 -35 0 -26 -3 -29 -31
-29 -29 0 -31 2 -24 28 3 15 9 41 12 59 3 20 12 35 24 38 23 8 27 63 4 71 -16
6 -22 69 -7 78 4 2 9 31 10 63 2 47 7 62 27 81 20 19 23 27 15 42 -8 15 -7 26
6 45 9 14 12 25 8 25 -5 0 -2 4 6 10 12 8 12 10 -3 16 -23 8 -22 49 3 144 11
41 20 105 20 143 0 69 1 71 48 70 9 -1 12 54 12 243 0 162 -3 244 -10 244 -7
0 -7 6 0 19 5 11 9 30 9 43 -1 17 -3 18 -6 6 -3 -14 -16 -18 -56 -18 -52 -1
-52 -1 -24 -16 30 -16 33 -24 15 -42 -10 -10 -10 -15 2 -22 13 -8 13 -10 -2
-10 -9 0 -20 -9 -23 -20 -3 -11 -10 -20 -15 -20 -4 0 -11 -24 -13 -52 -14
-134 -23 -154 -76 -164 l-31 -6 0 50 c0 32 -5 54 -15 62 -21 17 -19 41 4 47
11 3 21 17 25 35 9 45 8 48 -14 48 -16 0 -20 7 -20 33 0 18 6 39 13 46 10 11
10 13 0 7 -17 -9 -16 -4 4 39 9 20 24 35 34 35 15 0 29 19 29 40 0 4 -11 11
-24 14 -13 3 -26 13 -30 21 -9 23 15 65 37 65 17 0 18 -2 6 -16 -10 -13 -10
-17 2 -24 19 -12 25 -3 33 48 6 39 -5 58 -18 30 -3 -7 -4 -2 -3 12 1 17 10 26
27 30 34 8 42 73 11 92 -26 16 -26 29 -1 60 10 14 17 28 14 31 -3 2 9 35 26
71 22 46 41 71 61 81 l29 16 0 181 0 181 -89 -7 -88 -7 -17 35 c-9 20 -32 51
-51 69 -19 19 -35 39 -35 45 0 23 -62 42 -75 23z"/>
<path d="M17877 12869 c-9 -6 -17 -16 -17 -24 0 -7 -6 -20 -14 -27 -18 -18
-28 -69 -17 -86 16 -26 161 -45 161 -21 0 5 5 7 10 4 6 -3 10 -2 10 4 0 10
-31 31 -45 31 -4 0 -5 -7 -1 -15 6 -17 -2 -19 -24 -5 -12 8 -12 10 3 16 12 4
15 13 11 30 -4 15 0 29 11 40 16 16 15 18 -9 31 -14 8 -26 17 -26 21 0 11 -33
12 -53 1z"/>
<path d="M17743 12641 c4 -15 -4 -37 -24 -66 -16 -23 -29 -49 -29 -56 0 -17
-19 -75 -42 -125 -10 -22 -18 -48 -18 -57 0 -10 -9 -21 -19 -25 -20 -7 -71
-92 -71 -118 0 -7 -4 -14 -9 -14 -5 0 -14 -15 -21 -32 -7 -18 -24 -47 -37 -65
-12 -17 -23 -36 -23 -42 0 -6 -4 -11 -9 -11 -5 0 -22 -26 -37 -57 -16 -32 -31
-60 -34 -63 -3 -3 -19 -36 -35 -75 -16 -38 -41 -81 -56 -95 -15 -14 -34 -44
-42 -66 -9 -23 -29 -63 -46 -89 -17 -26 -28 -51 -26 -55 3 -5 -1 -10 -9 -13
-7 -3 -16 -19 -19 -37 -4 -17 -11 -29 -15 -26 -5 3 -14 -5 -20 -18 -9 -21 -8
-25 10 -29 14 -4 22 0 25 14 10 35 45 20 70 -29 5 -12 43 22 43 39 0 25 25 35
54 21 13 -5 27 -7 33 -4 13 9 37 53 39 72 1 8 4 25 8 36 5 17 0 24 -24 36
l-31 15 41 28 c40 28 44 45 11 45 -10 0 -26 9 -36 21 -19 19 -19 21 0 55 21
39 29 41 47 16 16 -23 53 -44 62 -35 3 3 6 30 6 59 0 39 4 53 17 58 9 4 20 1
25 -6 23 -39 23 -39 66 -18 27 13 40 25 36 32 -6 9 -9 9 -12 0 -7 -22 -32 -13
-32 12 0 13 -3 31 -6 40 -7 17 -34 22 -34 6 0 -5 -9 -10 -20 -10 -11 0 -20 7
-20 15 0 8 -5 15 -11 15 -6 0 -9 12 -7 28 3 30 33 39 33 9 0 -25 23 -36 54
-27 15 4 49 4 76 0 60 -9 67 -6 59 26 -3 13 -2 24 4 24 5 0 17 11 26 25 15 23
15 28 1 47 -25 37 -18 43 43 42 31 0 64 3 73 7 9 5 21 3 27 -3 19 -19 26 1 8
21 -19 21 -71 32 -163 35 -66 1 -88 12 -74 35 7 11 12 11 31 -2 36 -25 78 1
71 45 0 4 12 5 28 2 28 -6 30 -4 36 32 11 65 29 124 38 124 6 0 7 19 4 42 -4
27 -2 37 4 27 7 -12 9 -11 9 4 0 17 11 22 23 10 4 -3 0 -15 -10 -25 -15 -17
-15 -18 4 -18 11 0 29 11 41 25 12 14 26 25 32 25 5 0 10 7 10 16 0 13 -7 15
-29 11 -16 -3 -41 -1 -55 6 -28 13 -32 22 -16 32 6 3 10 23 10 45 0 32 -3 38
-22 39 -13 0 -41 3 -62 7 -37 6 -39 5 -33 -15z"/>
<path d="M19336 12303 c-4 -5 -31 -9 -59 -9 -82 -2 -165 -12 -179 -20 -7 -5
-56 -9 -108 -9 -65 -1 -106 -6 -131 -18 -24 -10 -49 -14 -73 -10 -23 4 -36 2
-36 -5 0 -13 55 -44 62 -36 3 3 17 0 30 -7 20 -9 33 -8 59 4 50 23 69 27 145
32 49 3 75 0 91 -10 12 -8 28 -13 35 -11 7 2 38 12 69 21 56 18 57 18 84 -3
15 -12 34 -22 41 -22 17 0 18 22 2 38 -9 9 -9 15 0 24 19 19 15 48 -6 48 -10
0 -22 -3 -26 -7z"/>
<path d="M22 6099 l2 -6104 9 5845 c5 3215 9 5919 9 6010 1 156 -9 340 -18
349 -2 2 -3 -2743 -2 -6100z"/>
<path d="M65 10245 c0 -1056 1 -1487 2 -957 2 530 2 1394 0 1920 -1 526 -2 93
-2 -963z"/>
<path d="M18417 11943 c-2 -5 -7 -19 -10 -33 -5 -18 -21 -31 -57 -47 -51 -22
-68 -53 -30 -53 25 0 38 -29 19 -41 -10 -6 -7 -9 12 -9 14 0 30 -5 37 -12 9
-9 12 -8 12 5 0 10 8 17 20 17 11 0 20 -7 20 -15 0 -18 20 -20 21 -2 1 6 1 39
1 72 0 48 5 63 21 78 17 15 19 20 8 27 -8 4 -20 6 -27 3 -6 -2 -15 0 -19 6 -7
13 -22 14 -28 4z"/>
<path d="M17074 11372 c-6 -4 -28 -38 -48 -77 -20 -38 -49 -86 -65 -105 -28
-36 -43 -63 -99 -181 -18 -36 -43 -78 -56 -94 -14 -16 -27 -39 -31 -52 -3 -12
-19 -44 -35 -70 -17 -26 -30 -57 -30 -70 0 -30 -39 -103 -55 -103 -13 0 -81
-124 -110 -202 -16 -43 -16 -48 -1 -69 9 -13 16 -18 16 -11 0 7 5 10 10 7 23
-14 7 -25 -35 -25 -34 0 -47 -5 -55 -20 -6 -11 -8 -25 -5 -30 3 -5 -6 -25 -20
-46 -39 -57 -35 -67 28 -59 28 4 58 12 65 17 8 7 12 7 12 -1 0 -17 21 -13 36
7 13 16 15 16 27 0 13 -16 16 -15 40 10 39 41 36 56 -12 48 l-40 -6 6 37 c3
21 10 40 15 41 4 2 6 7 3 12 -3 4 5 6 16 3 20 -6 21 -3 15 31 -5 25 -3 43 6
53 10 12 9 17 -5 28 -9 7 -17 19 -17 28 0 23 48 57 81 57 36 0 38 -16 3 -24
-15 -4 -24 -10 -20 -13 3 -4 -1 -17 -9 -30 -20 -30 -12 -57 20 -71 18 -9 31
-9 49 -1 27 13 25 35 -5 57 -26 18 -6 60 30 64 21 2 29 12 45 57 16 45 17 57
6 74 -11 18 -10 23 11 38 13 10 32 25 42 34 24 22 50 15 57 -14 5 -23 7 -22
33 18 15 22 32 41 37 41 6 0 10 7 10 15 0 12 -5 13 -17 7 -10 -5 -37 -12 -60
-16 -40 -6 -42 -5 -45 20 -2 15 -12 32 -23 38 -11 6 -22 12 -25 14 -3 2 4 10
14 18 16 11 17 17 8 26 -7 7 -12 23 -12 37 0 29 35 51 80 51 27 0 50 16 50 36
0 6 -11 28 -25 48 -14 20 -25 39 -25 41 0 3 14 5 30 5 20 0 30 5 30 15 0 8 -6
15 -14 15 -13 0 -26 20 -26 41 0 6 9 9 19 7 22 -4 61 28 61 51 1 9 7 2 14 -15
13 -29 47 -49 60 -36 3 3 6 36 6 74 0 61 2 69 18 66 18 -4 20 -18 8 -55 -6
-18 -3 -23 9 -23 9 0 23 -7 31 -15 11 -11 12 -15 3 -15 -7 0 -10 -2 -7 -5 10
-11 36 7 47 32 6 14 14 23 17 20 7 -6 49 36 57 57 5 12 0 16 -17 16 -20 0 -23
-4 -19 -22 4 -20 3 -21 -7 -5 -7 11 -24 17 -50 17 -38 0 -39 1 -30 25 8 20 6
27 -6 32 -10 4 -20 -1 -26 -10 -11 -21 -46 -22 -67 -3 -9 8 -21 12 -27 8z"/>
<path d="M16546 10135 c-23 -17 -70 -18 -105 -2 -19 10 -25 8 -37 -8 -7 -11
-18 -25 -24 -32 -5 -7 -10 -24 -10 -38 0 -14 -3 -25 -8 -25 -12 0 -102 -187
-102 -211 0 -5 -9 -28 -19 -52 -11 -23 -25 -61 -32 -84 -7 -24 -17 -43 -24
-43 -6 0 -19 -28 -30 -62 -20 -69 -49 -134 -72 -160 -9 -10 -13 -26 -10 -37 3
-11 -1 -25 -8 -31 -17 -14 -26 -76 -15 -106 12 -30 -11 -94 -33 -94 -8 0 -19
-11 -25 -25 -6 -14 -18 -25 -25 -25 -10 0 -16 -17 -20 -52 -4 -28 -11 -56 -17
-62 -5 -5 -10 -22 -10 -38 0 -15 -6 -31 -13 -35 -23 -14 -37 -66 -34 -121 4
-52 -10 -81 -32 -68 -6 4 -15 -13 -21 -36 -7 -24 -18 -55 -26 -69 -7 -15 -19
-51 -25 -80 -6 -30 -15 -58 -19 -64 -4 -5 -10 -35 -13 -65 -3 -30 -9 -70 -12
-87 -7 -32 6 -46 20 -23 4 6 11 7 17 4 7 -4 8 -2 4 4 -4 6 3 21 15 33 18 18
29 20 68 15 38 -5 51 -3 63 11 16 19 30 83 17 83 -3 0 -12 14 -19 30 -10 23
-10 33 0 44 14 18 41 10 33 -10 -3 -8 -10 -11 -16 -7 -5 3 -7 2 -4 -4 7 -10
77 -5 77 6 0 5 11 13 25 19 41 19 30 34 -22 30 -46 -3 -48 -2 -51 24 -4 31 25
81 43 74 38 -14 49 72 13 96 l-22 15 22 12 c29 16 40 8 48 -34 10 -55 33 -61
37 -10 2 27 13 38 51 49 11 4 16 12 12 21 -3 9 3 19 14 25 24 13 26 30 5 30
-8 0 -15 7 -15 15 0 8 -4 15 -10 15 -5 0 -7 7 -4 15 4 8 11 15 17 15 6 0 20 8
31 19 46 42 89 33 50 -10 -22 -25 -11 -49 22 -49 15 0 24 3 21 7 -4 3 -2 12 4
19 8 10 4 23 -19 52 -26 33 -36 38 -61 34 -39 -5 -62 3 -55 21 5 15 72 39 86
31 4 -3 5 1 2 9 -3 8 6 18 22 25 22 11 24 15 13 28 -8 10 -21 13 -36 9 -19 -4
-23 -1 -23 16 0 18 4 20 26 15 19 -5 31 -2 44 12 10 11 35 23 56 27 31 5 41 3
51 -12 12 -15 15 -16 23 -3 16 25 11 40 -15 50 -27 10 -36 50 -11 50 7 0 16 8
19 19 4 17 56 32 110 32 18 0 21 8 11 34 -5 12 -9 13 -14 4 -6 -9 -15 -9 -41
0 -23 8 -35 8 -37 1 -2 -5 -14 -10 -27 -10 -27 0 -56 35 -48 56 3 8 0 21 -7
29 -10 12 -9 15 4 15 9 0 16 5 16 10 0 15 -44 30 -68 23 -13 -3 -28 5 -46 23
-23 25 -24 30 -11 43 13 13 17 13 32 -1 10 -8 34 -21 55 -27 20 -7 39 -18 42
-26 3 -9 14 -12 31 -9 17 3 27 -1 31 -10 5 -13 9 -13 29 0 21 14 23 21 18 66
-6 49 -5 50 15 39 13 -7 23 -25 27 -50 9 -53 22 -63 62 -46 25 11 33 22 39 49
3 20 10 39 16 42 13 9 -11 34 -33 34 -14 0 -19 -7 -19 -25 0 -14 -7 -28 -15
-31 -19 -8 -45 13 -45 35 0 9 -10 21 -22 26 -15 7 -23 19 -23 35 0 32 -29 34
-33 3 -2 -13 1 -23 7 -23 6 0 11 -7 11 -15 0 -20 -39 -19 -62 2 -10 9 -18 11
-18 6 0 -14 -26 -24 -45 -16 -14 5 -14 8 1 24 11 12 25 17 36 13 14 -4 18 0
18 19 0 34 -44 43 -70 14 -21 -21 -50 -17 -50 8 0 20 26 45 73 70 31 16 41 18
57 7 28 -17 32 -15 28 16 -2 19 -9 28 -25 30 -24 4 -32 32 -9 32 16 0 70 49
63 57 -3 3 -16 -2 -29 -11 -12 -9 -31 -16 -40 -16 -16 0 -17 6 -12 42 9 55 36
81 88 82 41 1 41 1 39 37 -2 34 0 37 30 43 28 5 33 10 31 34 -3 49 -6 51 -38
27z"/>
<path d="M16682 9913 c-6 -11 -23 -24 -37 -27 -17 -4 -24 -12 -21 -24 5 -30
19 -57 34 -68 13 -9 11 -12 -8 -17 -32 -8 -15 -30 18 -22 15 3 47 -1 72 -8 42
-14 44 -15 21 -24 l-24 -9 32 -13 c17 -8 31 -18 31 -23 0 -5 4 -7 9 -4 5 3 9
-10 8 -29 -1 -39 12 -59 34 -50 15 5 20 68 6 81 -4 4 -1 14 5 22 10 12 8 18
-11 33 -13 11 -19 19 -13 19 8 0 52 63 52 75 0 2 -7 11 -16 19 -20 21 -55 21
-48 1 4 -8 -1 -17 -10 -21 -9 -3 -16 -17 -16 -30 0 -13 -4 -24 -9 -24 -4 0 -8
17 -7 37 1 29 -3 38 -18 41 -10 2 -23 -2 -27 -10 -7 -11 -11 -10 -19 2 -5 8
-10 24 -11 35 0 11 -4 29 -8 40 -8 19 -8 19 -19 -2z"/>
<path d="M17019 9090 c-19 -22 -39 -40 -44 -40 -10 0 -26 -22 -49 -65 -12 -22
-58 -75 -121 -139 -60 -61 -114 -131 -130 -170 -13 -30 -13 -36 0 -46 8 -7 15
-28 15 -47 0 -28 -3 -34 -16 -29 -9 3 -20 6 -25 6 -6 0 -8 4 -4 9 3 5 -5 13
-17 17 -15 4 -25 1 -35 -12 -19 -27 -16 -34 22 -50 20 -8 33 -19 30 -24 -5 -8
-35 -2 -78 15 -13 6 -21 -2 -37 -36 -19 -44 -19 -44 1 -47 11 -2 23 -10 26
-18 3 -8 11 -14 18 -14 6 0 23 -9 36 -21 14 -12 33 -19 47 -16 14 3 26 -2 32
-12 8 -14 9 -14 15 2 4 9 4 30 0 45 -18 73 -17 107 5 127 22 20 22 20 42 -5
11 -14 31 -26 44 -27 21 -2 22 0 12 25 -7 15 -17 34 -24 42 -17 21 4 99 32
122 15 12 20 25 16 44 -4 22 -2 25 19 23 41 -5 69 10 69 37 0 17 -5 24 -20 24
-11 0 -20 5 -20 11 0 8 15 10 46 5 29 -4 52 -2 60 5 22 18 16 28 -18 31 -29 3
-33 7 -36 36 -2 22 2 34 12 38 9 3 16 14 17 23 0 10 2 11 6 4 7 -19 54 -5 81
24 22 24 26 34 22 66 -1 13 4 17 17 15 25 -4 31 37 6 46 -10 3 -23 8 -29 11
-6 3 -26 -13 -45 -35z"/>
<path d="M16511 8376 c-6 -7 -9 -21 -5 -30 4 -11 1 -16 -13 -16 -15 0 -21 -11
-29 -52 -9 -52 -10 -53 -44 -54 -44 -1 -87 -21 -93 -44 -3 -13 1 -16 19 -12
13 2 24 11 24 18 0 15 5 16 68 19 23 0 42 -2 42 -5 0 -11 83 5 108 21 18 11
26 11 42 1 23 -14 50 -16 50 -3 0 14 -28 33 -40 26 -5 -3 -19 -3 -31 0 -28 9
-24 72 5 67 14 -3 17 1 12 13 -3 9 -6 21 -6 26 0 5 -12 9 -26 9 -14 0 -32 7
-40 15 -19 19 -28 19 -43 1z"/>
<path d="M15717 8263 c-30 -5 -52 -43 -44 -75 3 -10 2 -18 -2 -18 -21 0 -50
-91 -68 -215 -3 -22 -12 -49 -19 -60 -8 -11 -14 -34 -14 -52 0 -18 -11 -58
-25 -89 -14 -31 -25 -67 -25 -79 0 -12 -4 -35 -9 -51 -5 -16 -16 -81 -25 -144
-9 -63 -21 -137 -26 -165 -17 -90 -19 -145 -5 -145 13 0 37 90 55 205 6 39 15
72 21 73 5 2 9 12 9 23 0 25 29 69 45 69 21 0 39 28 27 43 -6 7 -9 24 -6 38 5
19 3 21 -5 9 -9 -12 -11 -9 -11 15 0 17 -3 40 -6 53 -5 18 -2 22 15 22 21 0
29 24 12 34 -5 4 -5 21 1 43 5 21 10 43 10 50 1 7 14 2 31 -13 16 -13 34 -21
40 -17 8 5 8 8 -1 11 -7 2 -12 12 -12 22 0 11 -9 24 -20 30 -18 10 -19 13 -6
48 8 20 17 54 21 75 3 20 10 37 14 37 5 0 16 16 26 36 9 19 23 38 30 40 9 4
13 21 12 49 -1 29 4 49 16 63 18 20 18 21 -2 31 -11 6 -21 10 -23 10 -2 -1
-16 -4 -31 -6z"/>
<path d="M16370 8065 c0 -8 -12 -21 -27 -28 -27 -14 -27 -15 -4 -22 12 -4 26
-18 31 -31 5 -13 14 -24 20 -24 5 0 10 -6 10 -14 0 -8 6 -17 13 -19 8 -4 9 -8
1 -14 -6 -4 -19 -23 -28 -41 -9 -18 -28 -38 -41 -44 -33 -15 -31 -39 5 -66 39
-29 50 -28 93 9 39 33 48 59 21 59 -8 0 -24 5 -34 10 -19 10 -19 12 5 53 13
24 30 41 39 41 9 -1 16 2 16 7 0 5 12 14 26 19 64 25 -8 65 -98 55 -32 -4 -35
-2 -31 15 3 11 9 20 14 20 5 0 6 7 3 15 -8 19 -34 20 -34 0z"/>
<path d="M13520 6310 c0 -5 4 -10 8 -10 4 0 8 -26 7 -57 0 -38 4 -58 12 -58 6
0 15 -3 19 -7 4 -5 0 -8 -10 -8 -10 0 -19 -11 -22 -30 -4 -16 -10 -27 -15 -24
-5 3 -6 -2 -3 -10 3 -9 11 -16 16 -16 7 0 8 -17 5 -45 -4 -28 -3 -45 4 -45 6
0 8 4 5 8 -8 14 25 54 40 48 8 -3 14 0 14 6 0 7 14 9 38 6 22 -3 45 0 55 7 16
11 16 13 -1 28 -9 9 -29 20 -45 26 -15 6 -27 17 -27 25 0 8 -6 17 -12 20 -7 3
-3 3 9 0 15 -3 25 1 32 15 10 17 8 20 -16 23 -19 2 -29 10 -31 23 -2 11 -6 27
-9 35 -3 8 -5 23 -4 33 1 9 -3 17 -8 17 -6 0 -11 -9 -11 -20 0 -11 -4 -20 -10
-20 -5 0 -10 9 -10 20 0 11 -7 20 -15 20 -8 0 -15 -4 -15 -10z"/>
<path d="M11810 5391 c0 -23 56 -100 78 -107 39 -13 69 -30 112 -64 69 -54
145 -75 169 -46 9 11 6 18 -15 35 -15 12 -31 21 -35 21 -5 0 -28 9 -52 19 -23
11 -55 22 -71 26 -16 3 -41 15 -54 26 -14 10 -32 19 -42 19 -15 0 -68 47 -62
56 6 11 1 22 -13 28 -10 3 -15 -1 -15 -13z"/>
<path d="M9884 4852 c-39 -37 -87 -81 -108 -99 -74 -62 -149 -137 -168 -167
-11 -17 -17 -22 -14 -11 8 22 5 19 -101 -79 -49 -46 -75 -86 -35 -55 15 13 16
12 4 -2 -7 -9 -27 -23 -45 -30 -36 -14 -35 -14 -137 -107 -41 -38 -93 -84
-115 -103 -22 -19 -49 -43 -61 -54 -11 -11 -44 -42 -73 -68 -28 -27 -48 -53
-45 -59 4 -7 2 -8 -5 -4 -6 4 -21 -2 -34 -13 -12 -11 -50 -46 -84 -77 -35 -31
-60 -61 -56 -68 3 -6 3 -8 -2 -4 -11 11 -90 -63 -88 -82 2 -9 0 -10 -3 -2 -10
21 -26 13 -19 -10 4 -16 4 -19 -3 -9 -14 19 -224 -172 -216 -197 5 -14 4 -14
-4 -3 -8 12 -16 9 -40 -15 -16 -16 -52 -49 -79 -74 -28 -25 -94 -86 -149 -136
-54 -50 -113 -103 -131 -118 -21 -18 -30 -33 -27 -44 5 -13 4 -14 -4 -3 -8 11
-25 -1 -83 -56 -41 -39 -86 -82 -101 -95 -15 -14 -24 -29 -20 -33 4 -5 1 -5
-6 -1 -8 5 -18 2 -25 -6 -7 -8 -56 -54 -109 -103 -54 -48 -96 -91 -93 -94 7
-13 -14 -36 -33 -36 -29 0 -356 -301 -345 -318 3 -6 1 -7 -6 -3 -6 4 -34 -12
-66 -39 -45 -39 -53 -50 -45 -65 13 -25 12 -40 -1 -17 -12 20 -33 23 -26 3 3
-8 -1 -20 -9 -27 -12 -10 -13 -9 -8 7 7 19 7 19 -14 0 -23 -20 -30 -32 -12
-21 6 3 7 -1 3 -10 -4 -13 -8 -14 -14 -4 -10 16 -75 -48 -71 -70 2 -13 1 -14
-7 -2 -13 20 -242 -193 -234 -218 4 -13 3 -14 -5 -1 -9 12 -20 6 -61 -35 -36
-35 -47 -52 -38 -58 8 -6 6 -7 -5 -3 -11 3 -27 -4 -41 -17 -13 -12 -39 -37
-60 -54 -25 -23 -35 -39 -31 -50 5 -14 4 -15 -4 -4 -8 11 -21 4 -64 -36 -29
-27 -70 -65 -91 -83 -22 -20 -33 -36 -27 -40 7 -4 6 -11 -5 -20 -13 -11 -15
-10 -9 4 3 9 2 16 -3 16 -14 0 -44 -35 -38 -43 3 -4 2 -5 -1 -3 -3 2 -14 -3
-25 -12 -14 -12 -16 -18 -6 -24 9 -7 8 -8 -3 -7 -32 3 -42 -1 -36 -17 3 -8 2
-13 -3 -10 -13 8 -92 -64 -84 -77 3 -6 1 -7 -6 -3 -7 5 -36 -15 -74 -52 -34
-32 -83 -78 -109 -102 -26 -23 -45 -46 -43 -51 3 -4 -3 -17 -15 -29 -11 -11
-20 -24 -20 -30 0 -5 -5 -10 -10 -10 -7 0 -7 6 0 20 20 38 -8 20 -69 -45 -33
-36 -64 -65 -68 -65 -8 0 -20 -11 -169 -147 -49 -44 -103 -93 -121 -107 -19
-16 -30 -33 -26 -42 3 -9 0 -13 -8 -9 -15 5 -61 -28 -58 -42 4 -15 -13 -43
-23 -37 -5 3 -1 12 9 20 10 7 13 14 8 14 -6 0 -29 -18 -50 -40 -40 -41 -42
-57 -3 -20 26 24 38 18 13 -7 -10 -9 -29 -17 -44 -18 -20 0 -26 -5 -26 -22 0
-11 -4 -25 -8 -29 -4 -5 -5 -1 -1 9 11 29 -7 19 -65 -35 -31 -29 -75 -70 -98
-90 -30 -26 -41 -43 -37 -55 5 -15 4 -16 -5 -3 -9 12 -24 2 -87 -62 -41 -42
-77 -77 -80 -77 -5 0 -81 -66 -184 -160 l-55 -51 192 0 192 0 48 43 c126 112
152 139 146 155 -4 15 -3 15 6 2 10 -13 12 -13 20 0 7 9 6 17 -1 21 -7 4 -7 9
0 13 6 3 12 1 14 -6 4 -10 8 -9 20 2 8 8 36 32 61 54 26 21 44 42 41 47 -3 5
-1 8 4 7 15 -4 161 125 157 139 -5 17 32 57 38 41 3 -9 14 -4 35 16 17 16 28
34 25 40 -3 6 -3 8 2 4 10 -10 77 44 198 159 44 42 55 58 45 65 -9 6 -6 7 9 3
27 -7 100 64 80 78 -8 6 -6 7 6 3 13 -4 36 10 80 52 74 68 79 75 65 83 -7 4
-7 9 0 13 6 3 12 1 14 -6 3 -7 29 9 66 42 33 29 58 58 55 63 -3 6 -2 7 3 4 6
-3 41 23 79 58 39 36 74 65 79 65 4 0 5 7 2 16 -3 9 -2 12 4 9 12 -7 186 153
182 167 -1 5 2 7 7 3 6 -3 18 2 29 12 10 10 44 42 77 71 46 43 56 56 44 63
-10 8 -9 9 7 5 28 -8 103 62 82 76 -10 8 -9 9 4 5 9 -3 27 4 40 16 13 12 74
67 136 121 61 55 109 103 106 108 -3 5 -1 7 4 6 5 -2 40 24 77 57 90 80 96 85
91 94 -2 3 5 18 16 31 l20 25 -17 -29 c-9 -15 -13 -27 -7 -25 24 9 171 153
165 162 -3 6 -1 7 5 3 6 -3 24 6 40 21 15 16 50 48 76 72 38 34 45 46 35 53
-10 7 -8 8 8 3 16 -4 30 3 56 32 39 40 41 58 5 27 l-23 -19 19 23 c11 12 26
20 33 18 8 -3 41 20 76 52 35 31 84 76 110 99 34 30 45 46 41 60 -5 14 -4 15
4 3 9 -12 14 -12 31 4 11 10 18 23 14 29 -3 5 -1 7 4 4 12 -7 169 138 166 152
-1 5 3 8 10 7 7 0 51 34 97 78 47 43 77 76 67 72 -11 -3 -16 -2 -12 5 4 6 14
8 22 5 8 -4 27 6 43 23 16 15 50 47 76 70 39 34 45 44 34 52 -12 8 -11 9 5 5
15 -4 41 14 105 74 47 44 115 105 152 137 47 41 65 63 62 76 -3 9 0 17 6 17 6
0 8 -5 4 -11 -15 -25 17 -1 79 57 35 34 78 72 96 85 35 26 38 35 14 42 -10 3
-6 5 8 4 25 -2 70 34 266 217 35 33 71 65 81 72 15 12 15 15 2 24 -12 9 -11
10 6 6 27 -8 103 62 82 75 -9 7 -7 8 8 7 14 -2 50 23 109 77 190 171 204 186
198 203 -4 14 -3 15 6 2 8 -12 17 -8 53 27 24 23 79 75 123 116 44 40 96 88
115 106 20 19 27 30 17 27 -11 -4 -16 -2 -12 5 4 6 14 8 22 5 8 -3 31 11 55
34 l41 39 -44 49 c-24 26 -59 64 -76 85 -18 20 -39 35 -45 33 -7 -1 -10 -1 -5
1 4 3 7 9 7 14 0 18 -16 7 -86 -59z"/>
<path d="M11220 3600 c-13 -11 -30 -18 -37 -15 -8 2 -37 -7 -64 -22 -41 -21
-56 -24 -78 -17 -23 9 -30 5 -65 -34 -22 -23 -45 -41 -52 -38 -14 5 -35 -17
-54 -59 -7 -16 -17 -84 -21 -150 -4 -66 -9 -131 -11 -144 -6 -46 19 -31 58 36
21 37 48 79 60 93 11 14 40 61 64 105 48 91 71 119 114 142 93 49 127 62 189
68 110 12 103 46 -11 52 -58 3 -73 0 -92 -17z"/>
<path d="M10461 2170 c0 -29 2 -31 9 -15 6 13 7 5 3 -25 -7 -51 -13 -65 -13
-29 0 13 -5 31 -11 39 -8 11 -9 7 -5 -18 6 -34 35 -103 47 -112 3 -3 15 -21
26 -40 10 -19 38 -64 62 -100 45 -69 59 -74 98 -38 30 28 35 56 12 76 -10 9
-15 19 -10 22 10 6 -46 130 -59 130 -6 0 -10 5 -10 11 0 7 -11 22 -25 35 -14
13 -25 28 -25 34 0 5 -6 10 -13 10 -7 0 -23 9 -35 21 -12 11 -26 18 -31 14 -5
-3 -12 1 -14 7 -3 7 -5 -3 -6 -22z"/>
</g>
</svg>
