<?xml version="1.0" standalone="no"?>
<!DOCTYPE svg PUBLIC "-//W3C//DTD SVG 20010904//EN"
 "http://www.w3.org/TR/2001/REC-SVG-20010904/DTD/svg10.dtd">
<svg version="1.0" xmlns="http://www.w3.org/2000/svg"
 width="2038.000000pt" height="2048.000000pt" viewBox="0 0 2038.000000 2048.000000"
 preserveAspectRatio="xMidYMid meet">
<metadata>
Created by potrace 1.16, written by Peter Selinger 2001-2019
</metadata>
<g transform="translate(0.000000,2048.000000) scale(0.100000,-0.100000)"
fill="#000000" stroke="none">
<path d="M14632 20288 c-61 -10 -352 -161 -338 -175 3 -3 26 9 51 26 49 33 60
38 49 20 -3 -6 12 1 35 15 22 14 47 26 54 26 7 0 18 5 25 12 6 6 15 9 18 5 4
-3 -5 -12 -20 -18 -14 -7 -26 -18 -26 -24 0 -6 -18 -20 -40 -31 -22 -10 -40
-22 -40 -26 0 -5 -5 -8 -12 -8 -20 0 -142 -61 -158 -80 -8 -9 -29 -24 -46 -33
-17 -9 -37 -23 -45 -33 -13 -16 -12 -17 16 -10 17 4 39 17 49 28 21 22 156 87
226 107 25 7 63 20 85 28 42 16 140 43 155 43 12 0 0 -37 -16 -51 -25 -21 -15
-29 30 -26 34 3 43 1 39 -9 -3 -8 -1 -14 3 -14 14 0 29 14 30 28 2 28 5 32 17
32 8 0 19 -11 25 -25 15 -33 15 -36 -3 -29 -9 4 -15 0 -15 -10 0 -9 5 -16 10
-16 6 0 10 -7 10 -15 0 -22 27 -18 40 5 16 30 44 26 38 -5 -5 -24 -4 -25 51
-20 l56 4 -52 -11 c-62 -13 -73 -34 -13 -24 32 5 40 3 40 -9 0 -9 -9 -15 -25
-15 -31 0 -33 -16 -2 -24 41 -11 47 -8 41 24 -7 35 9 41 26 10 6 -11 17 -20
25 -20 9 0 15 -13 17 -37 3 -34 6 -38 33 -41 l30 -3 -24 19 c-27 22 -17 34 16
21 12 -4 25 -20 29 -34 3 -14 10 -25 15 -25 14 0 11 -20 -3 -20 -7 -1 -24 -14
-38 -30 -13 -17 -32 -30 -42 -30 -10 0 -18 -4 -18 -10 0 -5 -18 -10 -40 -10
-22 0 -40 -4 -40 -10 0 -5 3 -10 8 -10 4 0 20 -12 37 -26 27 -23 30 -24 36 -7
4 10 8 12 8 6 2 -31 29 -9 38 30 l10 42 8 -43 c4 -25 11 -39 15 -32 10 16 21
-15 14 -35 -5 -12 -10 -10 -24 8 -17 20 -19 20 -25 4 -4 -9 -4 -29 -1 -43 6
-21 9 -24 22 -13 12 10 14 4 11 -47 -3 -43 -7 -59 -18 -59 -8 0 -14 7 -14 15
0 9 -10 16 -25 16 -37 2 -43 -5 -19 -25 17 -13 20 -22 12 -35 -8 -15 -11 -14
-22 8 -13 23 -63 42 -82 30 -19 -11 -8 -33 18 -36 17 -2 29 -10 31 -21 3 -16
1 -17 -16 -8 -30 16 -41 14 -47 -12 -5 -20 -12 -22 -66 -23 -38 -1 -64 -6 -69
-14 -6 -10 -9 -9 -13 1 -3 9 -8 6 -14 -10 -7 -16 -12 -20 -17 -13 -11 19 -26
4 -26 -26 0 -37 26 -72 53 -72 16 0 18 -3 8 -9 -9 -6 -10 -11 -2 -15 6 -4 9
-12 6 -17 -4 -5 -1 -9 4 -9 6 0 11 -9 11 -20 0 -25 18 -66 52 -117 15 -23 28
-47 28 -53 0 -7 8 -9 20 -5 16 5 19 3 13 -11 -4 -12 -3 -15 6 -10 6 4 18 2 26
-4 8 -7 15 -9 15 -5 0 3 12 -3 27 -15 l27 -21 12 23 13 23 8 -22 c4 -12 10
-21 13 -21 3 1 15 -2 27 -6 16 -5 22 -14 20 -29 -2 -18 3 -21 21 -19 24 3 32
-23 10 -31 -7 -2 -9 -8 -5 -13 4 -5 12 -2 18 6 8 12 15 9 39 -20 17 -19 30
-40 30 -46 0 -7 7 -14 15 -18 8 -3 20 -17 27 -31 8 -19 16 -24 31 -19 16 5 19
3 14 -10 -6 -16 25 -41 36 -29 9 9 20 -44 11 -58 -5 -8 -3 -9 6 -4 9 5 10 2 5
-14 -5 -18 -2 -24 14 -28 12 -3 21 -13 21 -24 0 -11 5 -19 12 -19 6 0 9 -3 5
-6 -3 -3 21 -46 54 -94 59 -86 86 -117 98 -113 3 2 7 -5 7 -15 1 -9 2 -23 3
-30 1 -7 5 -10 11 -7 5 3 17 -12 26 -34 10 -24 21 -38 29 -35 7 3 15 -4 18
-16 3 -12 14 -24 24 -26 10 -3 24 -20 31 -37 7 -18 22 -51 33 -75 10 -23 19
-53 19 -65 0 -12 6 -34 14 -48 7 -14 21 -52 31 -85 10 -32 25 -67 33 -76 8
-10 12 -24 9 -33 -4 -8 -2 -15 3 -15 6 0 10 -6 10 -14 0 -8 7 -16 15 -20 8 -3
12 -12 9 -21 -4 -8 -1 -15 6 -15 8 0 10 -9 6 -25 -4 -14 -3 -25 2 -25 8 0 28
-57 53 -147 7 -24 16 -43 21 -43 5 0 7 -9 3 -19 -3 -11 -1 -22 4 -26 6 -3 10
-16 10 -28 0 -12 2 -32 6 -44 4 -14 3 -23 -3 -23 -5 0 -12 10 -15 23 -6 25
-48 158 -73 232 -10 28 -26 62 -36 77 -10 14 -18 32 -18 40 0 8 -4 18 -8 24
-5 5 -17 32 -27 59 -9 28 -23 64 -30 80 -7 17 -18 56 -24 88 -7 41 -22 75 -48
110 -40 54 -42 56 -117 169 -27 40 -66 99 -87 131 -22 32 -39 61 -39 66 0 39
-199 271 -281 328 -13 10 -31 25 -39 34 -8 9 -72 64 -141 122 -103 86 -133
118 -167 175 -23 39 -42 76 -42 83 0 19 -49 59 -72 59 -40 0 -83 -22 -108 -55
-14 -18 -47 -48 -75 -67 -50 -35 -206 -91 -241 -88 -11 1 -23 1 -29 0 -5 -2
-17 -4 -25 -4 -81 -8 -134 -43 -198 -131 -20 -27 -40 -51 -44 -53 -5 -2 -8
-10 -8 -19 0 -30 -76 -122 -176 -214 -49 -46 -70 -89 -100 -213 -8 -32 -21
-68 -28 -80 -13 -20 -32 -102 -28 -119 2 -5 -2 -6 -8 -2 -10 6 -11 5 -15 -33
-1 -13 -11 -33 -21 -45 -28 -32 -48 -73 -73 -147 -13 -35 -25 -69 -29 -75 -4
-5 -8 -14 -9 -20 -1 -5 -7 -26 -12 -45 -43 -156 -84 -340 -77 -347 3 -3 1 -12
-4 -18 -6 -7 -13 -48 -16 -91 -4 -43 -11 -84 -15 -90 -5 -6 -16 -65 -25 -130
-8 -65 -17 -121 -20 -126 -6 -10 -9 -23 -24 -123 -7 -44 -18 -96 -26 -115 -22
-58 -45 -314 -45 -500 0 -166 26 -548 38 -560 3 -3 2 33 -1 80 -26 325 -28
630 -6 775 14 92 52 230 75 274 8 17 15 36 15 43 0 7 6 25 14 40 8 14 19 43
26 65 7 21 17 43 21 49 5 6 16 88 24 182 8 94 19 181 25 193 6 11 9 27 6 36
-13 32 13 156 66 323 35 111 43 130 113 270 53 108 137 296 150 339 22 71 159
265 273 385 142 149 316 210 602 210 155 0 181 -5 232 -48 40 -34 83 -65 95
-69 5 -1 24 -16 43 -34 19 -18 38 -33 42 -33 4 0 8 -6 8 -14 0 -8 10 -18 21
-21 24 -8 169 -149 169 -165 0 -5 7 -10 15 -10 8 0 15 -5 15 -10 0 -6 11 -23
25 -38 14 -15 25 -31 25 -37 0 -5 19 -30 41 -54 37 -41 54 -68 58 -96 1 -5 14
-23 29 -40 35 -38 56 -80 48 -94 -4 -6 -1 -9 7 -5 22 8 25 -12 22 -121 -2 -55
1 -115 7 -134 9 -28 7 -37 -9 -59 l-20 -26 43 -23 c24 -13 52 -23 62 -23 25 0
38 -18 40 -55 1 -16 11 -48 21 -70 31 -66 31 -100 0 -102 -22 -2 -49 18 -49
35 0 27 -104 72 -123 53 -8 -8 -6 -11 6 -11 9 0 17 -4 17 -10 0 -18 -50 -11
-57 8 -8 21 -23 32 -45 32 -20 0 -14 -28 10 -47 13 -11 13 -13 1 -14 -27 -2
-54 3 -66 13 -9 7 -17 7 -25 0 -7 -5 -38 -13 -68 -17 -30 -4 -61 -11 -70 -16
-8 -5 -42 -13 -75 -20 -49 -9 -67 -18 -98 -51 l-38 -40 -36 17 c-26 13 -38 14
-46 6 -9 -9 -8 -14 3 -22 12 -8 10 -9 -6 -4 -45 12 -52 0 -47 -88 2 -45 5 -90
7 -99 2 -10 1 -18 -2 -18 -10 0 -29 -46 -42 -100 -39 -160 -50 -209 -50 -236
0 -17 -7 -49 -16 -69 -9 -22 -13 -51 -10 -69 3 -17 1 -60 -5 -96 -8 -52 -18
-164 -20 -235 0 -5 3 -68 6 -140 4 -71 7 -178 8 -237 2 -102 1 -107 -23 -126
-56 -46 -120 -110 -120 -120 0 -7 -9 -12 -20 -12 -24 0 -26 -26 -5 -57 14 -20
13 -22 -2 -26 -15 -4 -15 -6 5 -12 12 -4 22 -13 22 -21 0 -7 10 -19 23 -25 12
-7 28 -20 35 -31 7 -10 24 -18 36 -18 13 0 29 -7 36 -15 7 -8 19 -15 28 -15 8
0 30 -11 48 -25 18 -14 37 -25 41 -24 4 1 15 -1 24 -5 18 -8 14 -55 -5 -61 -6
-1 -37 -9 -69 -16 -32 -7 -60 -16 -63 -21 -3 -4 -15 -8 -26 -8 -12 0 -36 -11
-54 -25 -27 -21 -34 -22 -44 -10 -9 11 -16 11 -29 3 -13 -8 -27 -8 -48 -1 -32
12 -111 -2 -125 -22 -10 -14 -7 -15 68 -26 38 -5 79 -17 93 -25 19 -13 38 -15
89 -10 59 6 67 5 98 -19 19 -14 34 -33 34 -41 0 -18 16 -18 23 0 3 8 15 20 26
26 17 8 24 7 41 -10 37 -37 19 -180 -22 -180 -10 0 -18 -7 -18 -16 0 -15 -2
-15 -26 1 -14 9 -28 14 -31 11 -8 -8 6 -38 15 -32 4 2 14 1 22 -4 12 -7 11
-12 -5 -27 -13 -11 -19 -27 -17 -42 6 -36 -7 -71 -25 -71 -16 0 -52 -34 -80
-76 -8 -13 -22 -24 -29 -24 -8 0 -14 -6 -14 -14 0 -17 111 -30 121 -15 10 17
65 7 59 -11 -11 -36 -1 -92 19 -111 12 -11 21 -26 21 -34 0 -7 15 -18 33 -23
60 -18 122 -33 152 -36 29 -3 30 -5 27 -47 -2 -24 -10 -49 -18 -55 -7 -6 -11
-13 -8 -17 3 -3 -15 -27 -40 -53 -30 -31 -46 -42 -46 -31 0 20 -47 34 -63 18
-8 -8 -8 -11 0 -11 29 0 15 -85 -18 -105 -5 -4 -9 -15 -9 -27 0 -11 -11 -33
-25 -50 -14 -16 -25 -36 -25 -44 0 -8 -7 -14 -15 -14 -8 0 -15 -8 -15 -18 0
-16 -63 -82 -78 -82 -3 0 -13 -6 -21 -13 -32 -26 -88 -35 -167 -26 -84 9 -124
4 -124 -16 0 -10 -27 -12 -122 -10 -68 2 -126 4 -130 4 -12 2 -162 124 -181
148 -10 13 -24 29 -30 36 -7 6 -32 37 -57 67 -24 30 -51 62 -60 71 -8 9 -44
49 -80 90 -36 41 -82 92 -103 114 l-38 40 14 -35 c8 -19 60 -123 116 -230 55
-107 104 -202 107 -210 26 -65 84 -134 135 -160 49 -26 119 -50 144 -50 24 0
146 -38 127 -39 -10 -1 -10 -6 -1 -22 15 -29 5 -35 -81 -48 -76 -12 -100 -27
-100 -62 0 -10 5 -21 10 -24 6 -3 10 -14 10 -23 1 -25 35 -62 59 -62 11 0 23
-5 26 -11 4 -5 18 -15 32 -20 14 -5 27 -18 30 -29 3 -11 10 -17 15 -14 16 10
78 -6 78 -20 0 -8 17 -21 38 -29 30 -13 73 -15 232 -13 107 2 205 6 216 9 27
7 65 -18 58 -37 -5 -12 -72 -39 -189 -76 -56 -17 -219 -23 -276 -10 -171 38
-289 109 -399 238 -30 36 -71 82 -90 103 -40 43 -136 176 -146 203 -3 9 -20
31 -36 49 -53 57 -58 64 -58 73 0 18 -68 85 -72 72 -3 -7 -20 5 -42 30 -21 23
-44 42 -50 42 -7 0 -19 12 -26 26 -8 14 -22 30 -32 35 -10 5 -15 16 -12 24 4
8 2 15 -4 15 -6 0 -20 20 -32 45 -12 25 -33 50 -48 58 -21 10 -26 19 -24 41 3
31 -21 66 -47 66 -14 0 -14 2 -1 10 12 7 12 12 -4 29 -27 30 -46 26 -46 -8 0
-19 8 -36 24 -49 14 -10 28 -32 32 -48 11 -45 37 -84 56 -84 14 0 18 -8 18
-39 0 -22 3 -41 8 -43 7 -3 72 -131 72 -143 0 -3 11 -18 24 -32 13 -14 30 -37
38 -52 12 -25 48 -69 93 -115 11 -12 20 -25 20 -29 0 -8 14 -25 84 -105 13
-15 31 -38 40 -52 24 -37 33 -48 69 -85 17 -18 32 -37 32 -43 0 -5 18 -28 40
-52 22 -24 40 -47 40 -52 0 -13 26 -38 39 -38 6 0 11 -5 11 -11 0 -10 26 -47
63 -90 7 -8 17 -23 20 -33 4 -10 15 -20 25 -23 10 -2 29 -22 42 -43 13 -22 37
-45 52 -51 17 -7 28 -19 28 -30 0 -11 7 -19 15 -19 8 0 23 -4 33 -9 24 -13 55
-25 68 -26 11 0 40 -13 97 -40 l27 -14 0 37 0 37 172 -2 c147 -2 184 1 248 18
83 23 209 80 253 116 16 13 34 23 41 23 7 0 40 14 74 30 34 17 67 30 72 30 5
0 14 9 20 20 6 11 18 20 27 20 9 0 25 8 35 17 10 9 40 20 66 24 104 18 112 21
112 41 0 11 8 22 20 25 11 3 20 12 20 19 0 8 9 14 20 14 10 0 24 9 30 21 7 11
17 18 24 16 7 -3 20 3 29 14 9 10 24 19 32 19 19 0 57 21 68 38 4 6 19 12 33
12 15 0 38 13 56 31 17 16 36 28 43 25 7 -2 21 2 32 10 17 13 17 15 1 25 -10
5 -18 19 -18 30 0 11 -11 24 -25 31 -13 6 -28 24 -34 39 -7 21 -17 29 -33 29
-39 -1 -92 7 -110 14 -21 9 -38 0 -38 -20 0 -8 -7 -14 -15 -14 -8 0 -15 -6
-15 -14 0 -15 -49 -36 -86 -36 -12 0 -29 -7 -38 -15 -8 -8 -28 -15 -45 -15
-24 0 -31 4 -31 19 0 11 9 23 20 26 11 3 20 14 20 23 0 20 61 64 81 60 8 -2
13 3 11 11 -3 14 63 81 79 81 5 0 9 10 9 21 0 19 4 21 30 15 17 -3 30 -2 30 2
0 4 9 13 21 20 17 11 28 10 67 -4 58 -22 60 -23 42 -34 -12 -7 -12 -12 3 -28
9 -10 17 -27 17 -38 0 -35 12 -64 26 -64 7 0 17 -6 21 -14 11 -18 73 -27 66
-9 -8 20 25 15 36 -6 6 -10 24 -21 42 -25 27 -5 31 -9 27 -31 -3 -14 -1 -28 3
-31 5 -3 9 -13 9 -23 0 -10 8 -26 18 -37 16 -16 17 -26 10 -59 -6 -22 -7 -59
-4 -82 4 -30 1 -45 -10 -54 -11 -9 -12 -14 -4 -19 15 -9 -7 -48 -32 -56 -9 -3
-20 -18 -23 -34 -4 -17 -10 -30 -15 -30 -5 0 -11 -13 -15 -29 -3 -16 -19 -46
-35 -67 -16 -22 -30 -45 -30 -51 0 -7 -6 -13 -13 -13 -19 0 -67 -53 -67 -74 0
-16 -6 -18 -40 -13 l-40 5 0 -50 c0 -55 -16 -77 -56 -78 -12 0 -27 -7 -34 -15
-14 -17 -57 -20 -62 -5 -1 5 -22 -13 -46 -40 -24 -28 -38 -50 -32 -50 6 0 8
-5 5 -10 -7 -11 -35 12 -35 29 0 6 -5 11 -10 11 -7 0 -7 -6 0 -20 9 -16 6 -22
-17 -37 -16 -10 -41 -30 -58 -45 -16 -15 -32 -23 -33 -18 -6 15 -22 1 -22 -19
0 -12 -14 -21 -51 -31 -52 -14 -80 -46 -72 -81 3 -11 -5 -18 -27 -22 -33 -7
-55 -45 -45 -78 5 -14 1 -19 -14 -19 -11 0 -23 5 -26 10 -3 6 -1 10 4 10 14 0
14 37 1 45 -6 3 -10 -4 -10 -18 0 -33 -25 -54 -45 -37 -22 18 -32 -16 -11 -39
22 -24 20 -34 -5 -28 -15 4 -23 0 -26 -14 -6 -21 -14 -24 -29 -9 -12 12 -44 3
-44 -11 0 -5 9 -9 21 -9 12 0 19 -5 16 -12 -2 -7 -11 -12 -18 -10 -8 2 -33 1
-57 -3 -36 -5 -42 -9 -37 -25 7 -22 -20 -40 -61 -40 -21 0 -25 -4 -21 -20 3
-11 2 -18 -3 -15 -4 3 -11 -2 -14 -11 -3 -8 -10 -12 -16 -9 -6 3 -13 -1 -16
-9 -8 -20 -34 -21 -34 -2 0 7 -7 20 -16 27 -13 11 -17 10 -25 -4 -14 -24 -32
-21 -26 3 3 11 1 23 -4 26 -5 3 -9 -6 -9 -19 0 -19 -8 -28 -31 -36 -18 -6 -40
-11 -51 -11 -10 0 -21 -6 -24 -14 -11 -30 -166 -54 -344 -55 -99 -1 -157 8
-171 25 -10 12 -13 12 -24 -2 -11 -16 -14 -16 -34 -2 -21 15 -26 14 -69 -4
-31 -14 -47 -17 -50 -9 -2 6 -21 11 -42 11 -20 0 -54 7 -73 15 -20 8 -42 12
-50 9 -8 -3 -20 2 -27 11 -19 23 -50 19 -50 -6 0 -29 91 -116 144 -139 51 -21
218 -55 351 -71 139 -16 559 -16 665 0 47 7 119 17 160 22 169 20 389 87 529
162 49 26 263 162 294 186 6 6 30 25 52 43 22 18 44 36 50 40 22 15 143 124
193 175 30 29 58 53 63 53 5 0 9 4 9 9 0 5 24 34 53 64 80 81 104 67 53 -31
-9 -17 -16 -37 -16 -44 0 -7 -14 -21 -30 -30 -21 -12 -30 -25 -30 -43 0 -18
-5 -25 -20 -25 -12 0 -24 -10 -30 -22 -5 -13 -9 -17 -9 -10 -1 23 -21 2 -21
-23 0 -15 -7 -26 -19 -30 -18 -5 -34 -33 -35 -60 -2 -23 -32 -75 -44 -75 -16
0 -92 -78 -79 -83 5 -1 2 -8 -6 -15 -12 -10 -18 -10 -31 3 -15 15 -16 14 -16
-9 0 -14 -8 -34 -17 -43 -10 -10 -17 -28 -15 -41 3 -18 -1 -23 -15 -22 -36 4
-40 0 -37 -35 3 -38 -10 -55 -21 -27 -6 15 -8 14 -16 -7 -5 -12 -15 -21 -22
-18 -25 9 -57 -12 -57 -38 0 -14 -6 -28 -14 -31 -8 -3 -16 -14 -19 -24 -3 -11
-21 -27 -41 -37 -21 -9 -36 -24 -36 -34 0 -14 7 -16 40 -12 37 5 40 4 39 -18
-1 -17 -3 -19 -6 -6 -5 20 -53 24 -53 4 0 -8 -12 -19 -26 -26 -25 -11 -26 -15
-22 -66 4 -41 1 -55 -9 -55 -7 0 -13 -7 -13 -15 0 -8 -7 -15 -15 -15 -8 0 -15
6 -15 14 0 7 -10 16 -23 18 -20 4 -22 1 -19 -30 4 -27 8 -33 23 -29 12 3 19 0
19 -9 0 -8 -4 -14 -9 -14 -5 0 -11 -10 -13 -22 -2 -17 -11 -24 -30 -26 -31 -4
-33 0 -18 29 7 13 7 19 0 19 -5 0 -10 -5 -10 -11 0 -6 -7 -8 -16 -5 -10 4 -18
0 -21 -12 -3 -14 -11 -18 -30 -14 -22 4 -24 2 -18 -17 5 -16 2 -21 -13 -21
-11 0 -22 -9 -25 -20 -3 -14 -14 -20 -32 -20 -18 0 -29 -6 -32 -20 -3 -11 -12
-20 -20 -20 -8 0 -11 -5 -7 -12 4 -6 -1 -17 -11 -24 -15 -11 -16 -16 -5 -29
12 -15 10 -53 -5 -87 -5 -13 -3 -18 9 -18 21 0 21 -26 0 -34 -9 -3 -32 -6 -52
-7 -32 -1 -34 -2 -12 -8 18 -5 26 -15 28 -34 3 -26 2 -27 -17 -15 -32 19 -46
-3 -54 -84 -1 -12 -10 -18 -24 -18 -23 0 -48 -33 -38 -50 3 -5 -6 -12 -20 -16
-16 -4 -25 -13 -25 -25 0 -10 -4 -19 -8 -19 -5 0 -19 -9 -32 -20 -13 -11 -29
-20 -37 -20 -8 0 -21 -16 -29 -35 -9 -23 -23 -37 -40 -41 -27 -7 -47 -44 -38
-69 4 -10 0 -15 -10 -15 -26 0 -77 -30 -71 -40 4 -6 0 -13 -9 -16 -8 -3 -12
-12 -10 -19 4 -8 -6 -16 -25 -20 -17 -4 -28 -11 -25 -17 3 -5 -6 -23 -22 -39
-22 -23 -28 -37 -26 -66 2 -21 8 -41 15 -45 9 -6 9 -10 -1 -16 -9 -6 -6 -12
13 -22 29 -16 32 -25 8 -35 -17 -6 -17 -7 0 -16 20 -12 167 13 213 35 16 8 65
24 109 36 108 28 157 47 240 91 39 20 84 40 100 43 37 9 54 22 85 66 13 19 27
37 30 40 3 3 17 27 30 54 14 27 37 61 53 76 15 16 27 31 27 35 0 11 44 65 53
65 4 0 6 -10 2 -22 -6 -22 -5 -22 6 -3 25 43 69 71 69 45 0 -5 -7 -10 -15 -10
-30 0 -11 -79 28 -110 18 -15 20 -21 10 -31 -11 -11 -13 -10 -13 2 0 16 -39
39 -65 39 -8 0 -15 -9 -15 -20 0 -11 5 -20 10 -20 6 0 10 -7 10 -15 0 -8 -4
-15 -10 -15 -5 0 -10 -7 -10 -15 0 -17 11 -19 25 -7 6 5 26 15 45 22 69 25 90
35 90 42 0 5 -4 8 -10 8 -5 0 -10 7 -10 15 0 8 8 15 18 15 14 0 15 2 2 10 -21
14 -63 13 -54 -1 4 -7 -1 -10 -12 -7 -25 4 -31 68 -10 110 9 17 16 37 16 45 0
7 6 13 14 13 17 0 28 24 20 45 -4 10 0 15 11 15 14 0 17 6 12 34 -4 28 -3 34
9 29 8 -3 15 1 16 8 0 8 2 19 2 24 1 6 14 26 29 46 15 20 27 40 27 45 0 5 17
27 38 49 21 22 83 90 137 150 55 61 113 124 130 140 28 28 61 67 106 125 10
14 30 39 44 56 14 18 25 36 25 41 0 5 22 37 49 71 27 34 53 72 57 84 3 13 24
44 45 69 22 26 39 54 39 63 0 9 5 16 11 16 5 0 17 17 25 38 21 51 58 126 65
132 4 3 10 20 14 37 3 18 12 36 19 40 7 5 18 24 26 43 8 19 22 44 32 54 10 11
18 25 18 31 0 6 16 42 35 81 19 38 35 76 36 84 0 10 2 11 6 2 2 -6 8 -10 13
-7 5 3 21 0 35 -5 27 -10 27 -11 10 -30 -20 -22 -13 -70 10 -70 24 0 17 -18
-7 -23 l-23 -4 23 -2 c13 0 22 -7 22 -17 0 -11 -6 -15 -20 -11 -19 5 -20 2
-13 -50 6 -53 5 -55 -16 -48 -27 8 -39 -17 -22 -49 16 -30 11 -81 -9 -81 -8
-1 -14 -7 -12 -14 4 -19 -41 -108 -63 -123 -6 -4 -5 -20 4 -43 9 -27 10 -40 2
-48 -6 -6 -11 -28 -11 -49 0 -21 -4 -38 -10 -38 -5 0 -10 -13 -10 -29 0 -35
-26 -64 -51 -58 -11 3 -19 4 -19 3 0 0 4 -16 9 -34 6 -18 6 -30 1 -27 -5 3
-14 -4 -20 -15 -9 -17 -5 -25 30 -58 l41 -38 -21 -27 c-12 -15 -18 -27 -15
-27 4 0 3 -6 -4 -13 -8 -10 -7 -17 1 -25 8 -8 3 -20 -19 -46 -17 -19 -49 -72
-71 -118 -37 -76 -40 -87 -33 -135 4 -29 4 -53 1 -53 -10 0 -32 -52 -25 -59 4
-3 15 5 26 19 63 81 140 160 156 160 7 0 23 -6 36 -12 12 -7 24 -14 26 -15 3
-2 -18 -23 -91 -86 -56 -49 -60 -52 -89 -67 -13 -7 -28 -19 -32 -26 -4 -8 -12
-14 -18 -14 -5 0 -35 -18 -67 -39 -31 -21 -129 -75 -216 -120 -88 -44 -169
-90 -181 -101 -12 -11 -27 -20 -33 -20 -7 0 -12 -7 -12 -16 0 -8 -4 -13 -8
-10 -4 2 -13 -4 -20 -15 -12 -19 -6 -24 21 -20 4 0 7 -3 7 -9 0 -17 -201 -137
-274 -162 -28 -10 -52 -23 -54 -28 -2 -6 -10 -10 -18 -10 -8 0 -22 -8 -32 -18
-9 -9 -33 -25 -52 -34 -29 -15 -31 -18 -12 -18 12 0 25 -6 28 -14 9 -23 -25
-66 -52 -66 -17 0 -24 -6 -24 -19 0 -11 -3 -21 -7 -23 -5 -2 -20 -22 -35 -45
-15 -23 -36 -44 -48 -48 -11 -3 -20 -11 -20 -16 0 -5 -10 -9 -22 -9 -13 0 -37
-13 -55 -30 -21 -20 -33 -25 -37 -17 -3 8 -11 5 -24 -11 -11 -12 -26 -20 -34
-17 -7 3 -20 0 -28 -5 -12 -8 -13 -13 -2 -30 7 -11 8 -20 3 -20 -5 0 -11 5
-13 12 -6 17 -28 0 -28 -21 0 -29 -55 -79 -95 -87 -28 -5 -35 -3 -35 10 0 9
-5 16 -11 16 -7 0 -9 -10 -7 -25 6 -31 -8 -43 -17 -14 -5 14 -12 18 -23 14
-42 -17 -51 -16 -81 15 -29 31 -33 32 -85 26 -37 -4 -56 -2 -58 6 -3 7 -9 8
-19 3 -18 -12 -58 -7 -83 11 -11 8 -36 14 -56 14 -67 0 -220 44 -220 62 0 5
-7 8 -16 8 -9 0 -14 6 -12 13 6 16 39 22 48 7 5 -8 17 -6 43 6 39 18 48 34 21
34 -8 0 -12 5 -9 10 4 6 -8 10 -29 10 -19 0 -41 3 -49 6 -9 3 -25 -4 -36 -15
l-21 -21 2 25 c1 14 8 25 15 25 7 0 13 5 13 10 0 6 -6 10 -14 10 -8 0 -18 -4
-21 -10 -10 -16 -45 -12 -45 5 0 8 -12 17 -27 21 -40 8 -125 33 -148 44 -39
17 -87 30 -95 25 -4 -2 -5 -15 -3 -28 4 -22 2 -23 -34 -19 -21 3 -40 7 -43 11
-3 3 -41 20 -85 37 -98 39 -105 42 -130 57 -64 38 -122 90 -187 169 -112 136
-110 132 -75 124 12 -3 8 1 -10 9 -18 8 -72 54 -120 102 -48 49 -108 100 -133
115 -53 31 -94 73 -145 148 -20 30 -62 80 -93 110 -83 80 -242 301 -242 335 0
14 31 -18 46 -46 8 -17 20 -26 28 -23 8 3 17 0 21 -5 3 -6 11 -9 16 -6 13 8
69 -33 69 -51 0 -8 5 -14 10 -14 6 0 10 -6 10 -14 0 -17 28 -41 37 -32 4 3 0
28 -9 55 -10 31 -12 54 -6 65 11 20 61 21 78 1 7 -8 21 -15 31 -15 11 0 19 -4
19 -10 0 -5 7 -10 16 -10 24 0 13 43 -40 153 -25 51 -52 110 -62 132 -9 22
-20 42 -23 45 -4 3 -15 28 -25 55 -10 28 -24 64 -30 80 -61 144 -123 399 -110
451 3 13 15 26 25 29 10 4 19 11 19 16 0 13 34 11 48 -3 8 -8 12 -9 12 -1 0 6
-5 13 -10 15 -6 2 -12 12 -15 23 -8 33 -22 85 -54 191 -16 56 -33 133 -37 173
-7 73 -17 84 -28 31 -3 -16 -9 -44 -12 -61 -5 -23 -11 -30 -25 -26 -16 4 -18
-3 -21 -52 -3 -49 -6 -56 -25 -59 -26 -4 -29 -19 -8 -46 13 -18 13 -22 -6 -39
-27 -25 -50 -13 -63 32 -5 17 -12 31 -17 31 -11 0 -20 -68 -17 -140 1 -36 -1
-71 -5 -78 -10 -14 1 -35 13 -27 5 3 12 -16 15 -42 3 -27 7 -55 9 -63 1 -8 6
17 10 55 14 141 31 197 50 166 3 -5 1 -53 -4 -108 -22 -238 -23 -303 -1 -411
12 -57 27 -110 36 -118 8 -8 19 -32 25 -54 6 -21 16 -40 22 -42 21 -7 0 -40
-24 -36 -16 2 -28 18 -45 63 -12 33 -27 69 -32 80 -18 39 -41 142 -42 186 -1
55 -14 100 -22 79 -19 -50 -43 -405 -28 -424 4 -6 16 -33 26 -61 10 -27 22
-54 26 -59 5 -6 9 -18 9 -28 0 -11 15 -35 34 -54 28 -29 33 -40 27 -62 -14
-51 -36 -37 -65 40 -16 40 -34 87 -41 103 l-13 30 -11 -27 c-14 -38 -23 -35
-45 15 -20 41 -29 127 -15 137 4 3 10 22 14 44 6 31 5 38 -6 34 -8 -3 -14 -18
-14 -34 -1 -17 -11 -40 -25 -55 -14 -14 -32 -39 -41 -56 -10 -19 -27 -32 -45
-36 -48 -10 -94 -45 -111 -85 -14 -33 -49 -70 -63 -65 -3 1 -6 -10 -5 -25 0
-20 -6 -28 -21 -30 -20 -3 -21 1 -20 45 1 41 4 48 21 48 21 0 65 39 65 57 0 7
8 21 18 32 29 32 70 200 53 211 -10 6 -23 -23 -16 -35 3 -4 -4 -10 -15 -13
-13 -3 -20 -14 -20 -30 0 -34 -21 -90 -37 -100 -7 -4 -13 -25 -13 -47 0 -43
-15 -60 -35 -39 -21 22 -3 91 39 151 35 52 48 84 24 60 -15 -15 -54 -16 -63
-2 -3 6 -1 10 4 10 7 0 11 27 11 68 0 56 4 74 26 105 42 62 56 125 48 224 -9
134 -10 126 24 308 12 61 7 69 -20 32 -25 -34 -68 -57 -107 -57 -17 0 -72 16
-123 35 -51 20 -112 38 -134 41 l-42 6 -104 -103 c-122 -122 -154 -163 -175
-227 -8 -26 -21 -52 -28 -57 -7 -6 -32 -26 -56 -45 -103 -84 -129 -107 -208
-184 -118 -114 -226 -237 -250 -285 -12 -23 -25 -41 -29 -41 -11 0 -53 -87
-67 -142 -7 -26 -42 -94 -77 -150 -136 -218 -207 -345 -219 -393 -6 -28 -20
-59 -30 -71 -11 -11 -19 -24 -19 -28 0 -5 -13 -24 -30 -43 -19 -21 -30 -45
-30 -63 0 -34 -36 -132 -53 -142 -6 -4 -14 -2 -18 3 -17 28 -72 -144 -84 -263
-4 -39 -14 -65 -30 -84 -13 -15 -32 -44 -42 -63 -10 -20 -20 -38 -24 -41 -3
-3 -20 -34 -38 -70 -19 -36 -41 -76 -51 -90 -9 -14 -45 -97 -78 -185 -63 -167
-200 -517 -279 -715 -25 -63 -49 -139 -52 -168 -4 -30 -14 -58 -22 -63 -8 -5
-11 -9 -7 -9 4 0 3 -12 -3 -27 -6 -16 -13 -59 -16 -98 -2 -38 -9 -78 -15 -90
-6 -11 -12 -31 -14 -45 -2 -23 -13 -110 -30 -232 -4 -30 -2 -59 6 -77 9 -23 8
-107 -4 -398 -21 -487 -19 -472 -77 -624 -33 -87 -53 -156 -60 -212 -8 -71
-28 -183 -43 -252 -3 -11 -3 16 0 60 l4 80 -21 -60 c-23 -66 -31 -202 -13
-226 14 -19 18 -135 5 -143 -7 -5 -11 11 -11 48 0 31 -4 56 -9 56 -21 0 -31
-68 -35 -255 -3 -110 -7 -216 -10 -235 -3 -19 -9 -63 -14 -97 -4 -34 -11 -66
-16 -70 -8 -8 -4 81 9 177 4 33 3 40 -4 25 -12 -24 -57 -311 -70 -440 -5 -53
-5 -94 0 -101 5 -6 5 -14 1 -18 -4 -4 -7 -56 -8 -114 -1 -281 -3 -312 -19
-312 -9 0 -15 -9 -15 -25 0 -25 18 -36 22 -12 1 6 4 -44 7 -113 3 -69 2 -142
-4 -163 -6 -26 -6 -43 1 -55 6 -10 9 -32 6 -51 -4 -26 -2 -32 8 -26 10 6 12 1
7 -21 -3 -16 1 -54 8 -84 8 -30 21 -86 30 -125 10 -38 22 -84 28 -101 10 -31
8 -33 -59 -96 -112 -105 -127 -119 -161 -145 -26 -20 -31 -29 -23 -43 13 -25
12 -40 -1 -18 -12 21 -33 24 -26 4 3 -8 -1 -20 -9 -27 -12 -10 -13 -9 -7 7 6
17 5 17 -10 5 -9 -7 -14 -18 -10 -24 3 -5 2 -7 -3 -4 -6 3 -32 -15 -59 -40
-28 -26 -44 -43 -36 -38 9 5 12 4 7 -3 -4 -6 -14 -8 -23 -5 -13 5 -15 2 -10
-11 4 -10 3 -15 -3 -11 -6 4 -59 -38 -118 -91 -59 -54 -109 -100 -112 -102 -2
-2 2 -8 10 -13 12 -9 11 -10 -4 -5 -14 5 -36 -10 -85 -56 -36 -35 -97 -90
-135 -123 -37 -33 -82 -73 -100 -90 -36 -34 -199 -182 -263 -239 -24 -21 -40
-43 -36 -49 3 -5 1 -7 -5 -4 -5 4 -36 -17 -69 -47 -32 -29 -74 -67 -93 -85
-19 -17 -27 -28 -17 -25 9 3 17 11 17 17 0 6 3 7 7 4 3 -4 13 -1 21 6 13 10
14 9 8 -1 -4 -7 -29 -23 -54 -36 -26 -12 -46 -28 -44 -35 1 -7 -2 -10 -7 -7
-5 3 -15 -2 -22 -11 -12 -15 -12 -16 4 -10 11 4 16 3 12 -4 -4 -6 -14 -8 -22
-4 -11 3 -39 -16 -82 -57 -37 -35 -84 -78 -106 -97 -22 -19 -72 -64 -110 -100
-39 -36 -93 -86 -121 -111 -28 -25 -49 -51 -47 -58 3 -8 -1 -10 -13 -5 -13 5
-16 3 -11 -10 3 -8 -1 -21 -9 -28 -12 -10 -13 -9 -8 5 5 12 2 15 -10 10 -9 -3
-15 -14 -14 -23 2 -9 -3 -15 -10 -13 -18 3 -78 -58 -74 -77 2 -12 1 -13 -6 -3
-7 10 -19 4 -50 -25 -23 -21 -79 -72 -126 -113 -82 -72 -103 -99 -70 -86 9 3
12 2 9 -5 -4 -6 -14 -8 -22 -5 -10 4 -37 -15 -77 -53 -33 -32 -74 -70 -91 -85
-202 -177 -243 -218 -238 -237 3 -10 0 -19 -6 -19 -5 0 -8 7 -5 15 10 26 -5
17 -54 -30 -25 -25 -50 -45 -54 -45 -5 0 -8 -8 -6 -17 2 -11 -2 -17 -10 -15
-18 3 -78 -58 -74 -77 2 -11 0 -12 -5 -4 -7 9 -15 7 -33 -10 -14 -12 -62 -55
-107 -96 -46 -41 -83 -80 -83 -88 0 -8 -4 -12 -8 -9 -5 3 -47 -29 -93 -72 -47
-42 -103 -93 -125 -112 -102 -88 -227 -210 -215 -210 7 0 9 -5 5 -11 -5 -8 -9
-7 -14 2 -6 8 -32 -11 -90 -67 -46 -43 -91 -92 -102 -109 -11 -16 -17 -21 -14
-10 6 17 4 17 -21 -5 -103 -93 -135 -122 -193 -176 -36 -33 -82 -76 -104 -95
-21 -19 -50 -45 -65 -59 -76 -69 -116 -105 -226 -205 -66 -60 -160 -146 -210
-191 -49 -46 -108 -99 -130 -118 -34 -29 -37 -35 -18 -33 12 0 19 5 17 9 -8
13 11 9 24 -4 10 -10 15 -10 21 1 6 10 10 10 16 2 5 -8 51 -11 150 -10 l144 2
68 63 c37 35 71 64 76 64 4 0 7 5 7 11 0 6 -7 8 -16 5 -9 -3 -12 -2 -9 5 4 5
14 7 24 4 12 -4 35 13 75 55 32 33 61 60 64 60 4 0 34 26 67 56 33 31 92 84
130 119 39 35 86 78 105 95 19 18 31 30 25 27 -5 -3 -11 6 -11 19 -2 23 -1 24
11 7 13 -17 16 -16 47 16 18 18 27 30 19 26 -10 -6 -12 -4 -7 4 4 6 11 9 15 7
12 -8 82 55 75 66 -4 7 -2 8 5 4 17 -11 145 115 128 126 -8 5 -5 7 9 6 16 -2
58 30 146 112 144 133 287 262 340 309 21 18 35 37 32 43 -7 10 24 48 39 48 5
0 -1 -9 -14 -19 -13 -11 -21 -22 -18 -26 9 -8 124 101 124 117 1 7 6 12 13 10
17 -3 83 58 75 71 -3 6 -1 7 6 3 7 -5 36 15 74 52 34 32 91 85 127 118 36 32
96 90 135 129 38 38 71 68 73 67 2 -2 42 31 89 75 47 43 106 97 132 120 25 23
40 42 32 43 -11 0 -10 5 4 20 10 11 23 20 28 20 6 0 2 -6 -9 -14 -10 -8 -16
-18 -11 -22 4 -4 18 3 32 16 19 17 22 27 15 41 -15 26 -12 36 4 14 13 -18 14
-18 39 1 14 10 26 24 25 29 -2 21 14 44 28 38 18 -7 66 36 57 50 -4 6 -1 7 6
2 18 -10 145 116 128 127 -8 5 -4 7 9 6 15 -2 55 28 135 103 63 59 132 122
154 140 109 93 185 173 173 181 -9 6 -6 7 7 4 16 -5 40 12 100 69 44 41 79 80
77 86 -1 6 2 8 7 5 12 -8 92 64 84 77 -3 6 -1 7 6 3 17 -11 266 225 249 236
-9 5 -6 7 8 6 20 -3 114 72 114 92 0 5 8 11 18 14 17 6 31 18 167 145 39 36
108 99 153 140 44 40 80 78 79 84 -1 6 4 11 11 12 25 0 81 55 76 73 -5 13 -4
14 4 4 7 -11 14 -9 33 10 23 21 189 169 198 175 2 1 4 12 5 24 0 12 8 24 16
26 13 4 13 3 0 -6 -8 -5 -11 -14 -6 -18 4 -4 18 5 32 22 l23 29 16 -37 c8 -20
15 -41 15 -46 0 -29 56 -180 76 -207 13 -17 24 -37 23 -45 0 -8 -4 -6 -9 6 -8
19 -9 19 -9 -2 -1 -12 11 -34 27 -48 27 -25 27 -25 32 -4 l5 21 19 -21 c11
-12 25 -21 33 -21 38 0 182 -121 183 -152 0 -20 16 -24 22 -6 6 16 34 3 48
-21 10 -19 9 -20 -15 -11 -45 17 -41 11 15 -25 29 -19 56 -32 59 -29 3 3 -2
10 -12 16 -14 8 -16 13 -6 24 10 12 17 11 45 -11 18 -14 44 -29 58 -35 15 -5
26 -13 25 -17 -5 -33 5 -52 40 -71 38 -22 39 -22 34 -2 -3 12 0 20 8 20 7 0 9
-3 6 -6 -16 -16 19 -44 87 -73 58 -24 89 -31 141 -31 66 0 67 0 61 -25 -24
-94 -70 -406 -87 -590 -21 -227 -21 -370 2 -503 8 -47 15 -62 25 -58 8 3 14 1
14 -3 0 -5 -5 -11 -11 -13 -13 -4 22 -76 43 -90 19 -12 38 -10 35 5 -1 6 5 12
13 12 8 0 16 -10 18 -22 3 -17 28 -35 118 -78 99 -48 118 -55 132 -43 9 7 68
58 131 113 62 55 124 110 138 122 98 86 383 343 419 377 16 15 153 137 178
159 12 10 55 48 96 86 41 37 95 85 120 107 25 21 54 48 65 59 19 19 246 221
309 275 16 14 57 50 90 81 34 31 84 76 111 99 28 24 52 46 55 49 5 7 166 151
245 220 22 19 70 62 106 95 36 34 101 93 145 131 43 39 106 95 139 125 33 30
79 71 101 90 23 19 83 74 135 121 52 48 114 104 139 125 50 44 272 244 280
253 3 3 23 21 45 40 22 18 63 54 90 80 48 45 167 151 310 277 83 73 94 83 216
194 51 47 107 97 124 112 117 104 151 135 165 148 9 8 54 49 100 90 47 41 92
82 100 90 8 8 53 49 100 90 46 41 94 84 106 95 11 11 49 45 84 75 92 80 93 81
183 162 45 41 109 99 142 128 33 29 67 60 76 69 9 9 31 29 50 45 53 46 198
175 259 231 142 129 397 358 529 475 41 36 85 76 100 90 14 14 64 59 111 100
47 41 110 97 140 125 30 27 91 82 135 120 44 39 91 81 105 95 14 13 108 98
210 189 102 91 190 170 196 176 6 5 42 37 79 70 38 33 73 65 79 70 111 105
295 263 301 257 3 -4 5 -2 3 4 -2 6 87 91 197 189 110 97 227 203 261 234 33
31 76 70 95 86 19 17 105 93 190 170 240 216 311 280 349 311 19 16 66 59 105
95 38 37 93 86 120 109 92 78 89 69 44 139 -46 71 -49 78 -93 230 -19 64 -84
283 -146 486 -61 204 -140 469 -176 590 -36 121 -90 299 -119 395 -29 96 -83
276 -120 400 -148 496 -141 475 -163 478 -27 4 -172 157 -298 313 -52 65 -121
139 -152 163 -116 93 -309 186 -518 251 -66 20 -128 39 -139 43 -12 4 -86 51
-166 105 l-146 99 -6 76 c-8 101 -29 168 -73 233 -25 38 -33 59 -30 78 3 14
13 100 21 191 16 175 58 540 75 652 15 103 13 393 -4 426 -20 41 -52 171 -81
335 -24 134 -25 156 -15 225 7 42 13 139 13 216 2 124 -1 148 -20 201 -24 63
-32 190 -14 250 4 17 4 103 0 194 -5 90 -5 330 0 535 8 347 7 374 -10 421 -53
145 -176 700 -189 856 -26 296 -97 616 -192 874 -69 189 -235 513 -339 665
-70 103 -203 242 -290 303 -196 139 -441 277 -549 309 -30 10 -72 22 -93 29
-43 12 -607 19 -675 7z m912 -2933 c11 -8 29 -15 39 -15 9 0 20 -6 23 -14 3
-8 16 -17 30 -20 13 -4 24 -13 24 -21 0 -12 -7 -14 -26 -9 -21 5 -25 4 -19 -6
6 -10 -6 -11 -61 -4 -81 10 -126 10 -174 1 -19 -3 -53 -9 -75 -13 -35 -6 -89
-35 -105 -56 -3 -3 -14 -8 -25 -10 -38 -6 -27 66 17 123 18 22 103 47 167 48
30 1 56 3 57 4 10 10 110 4 128 -8z m486 -94 c0 -11 4 -22 9 -25 5 -3 12 -33
16 -66 4 -33 10 -58 14 -55 5 2 8 -17 8 -43 0 -26 8 -76 17 -112 10 -36 18
-91 18 -123 1 -36 4 -53 9 -45 6 9 9 6 9 -10 0 -13 5 -32 10 -43 8 -14 7 -19
-1 -19 -8 0 -8 -4 -2 -12 16 -20 25 -140 11 -136 -15 5 -44 127 -69 298 -11
74 -30 197 -43 273 -12 75 -18 137 -14 137 4 0 8 -9 8 -19z m-468 -39 l36 -16
-26 -14 c-25 -14 -54 -21 -170 -40 -27 -4 -62 -18 -79 -30 -18 -12 -49 -29
-71 -36 -21 -8 -51 -26 -67 -40 -31 -28 -45 -33 -45 -13 1 19 114 136 164 167
78 50 173 58 258 22z m-452 -278 c0 -13 8 -15 43 -10 23 4 63 8 89 10 26 3 52
7 57 10 15 10 40 -5 34 -20 -3 -8 0 -14 6 -14 14 0 4 -70 -12 -87 -10 -10 -21
-9 -52 2 -46 16 -75 19 -75 6 0 -5 -10 -11 -22 -14 -23 -7 -73 30 -76 56 -1 6
-5 27 -8 45 -4 20 -2 32 5 32 6 0 11 -7 11 -16z m130 -167 c26 5 32 2 37 -15
3 -14 16 -22 42 -27 21 -3 50 -13 66 -21 40 -21 179 -34 260 -24 90 10 168 30
177 45 4 6 26 18 48 25 32 11 43 11 49 2 4 -7 15 -10 24 -7 10 4 21 -1 29 -14
7 -12 22 -21 34 -21 23 0 34 -31 34 -94 0 -54 -11 -78 -31 -73 -12 3 -19 0
-19 -9 0 -8 -15 -31 -34 -50 -33 -34 -34 -37 -35 -120 -1 -76 -4 -88 -23 -106
-16 -13 -19 -21 -10 -24 17 -8 15 -25 -4 -39 -11 -8 -17 -26 -17 -54 0 -23 -3
-44 -7 -46 -5 -3 -6 -41 -4 -86 4 -73 2 -84 -21 -117 -14 -20 -25 -46 -25 -58
0 -13 -6 -25 -12 -27 -10 -4 -9 -8 2 -16 10 -7 11 -13 4 -18 -5 -5 -11 -18
-12 -30 -3 -50 -5 -60 -13 -106 -7 -40 -4 -68 17 -150 33 -128 29 -183 -20
-290 -20 -42 -36 -80 -36 -83 0 -3 -11 -30 -25 -60 -14 -30 -25 -61 -25 -69 0
-7 -6 -20 -14 -28 -8 -8 -31 -46 -51 -86 -20 -39 -50 -86 -67 -104 -16 -18
-36 -44 -44 -59 -13 -26 -42 -48 -61 -48 -14 0 -59 131 -48 142 2 2 8 54 15
117 6 65 19 132 29 155 28 62 33 96 21 127 -9 21 -18 27 -37 26 -16 -1 -29 5
-37 18 -6 11 -15 23 -21 28 -14 10 14 27 45 27 22 1 23 2 7 11 -16 9 -14 14
15 53 18 24 40 53 48 65 8 11 20 21 27 21 7 0 13 7 13 14 0 8 11 27 25 42 14
15 25 33 25 40 0 8 5 14 10 14 6 0 10 -6 10 -14 0 -8 5 -18 10 -21 7 -4 8 8 4
37 -7 45 -56 142 -78 155 -7 5 -15 14 -17 21 -3 8 -8 5 -17 -8 -10 -16 -10
-20 0 -20 19 0 56 -62 60 -101 2 -29 0 -34 -17 -31 -31 5 -67 32 -62 46 3 7
-10 28 -28 45 l-34 32 18 32 c13 23 25 31 40 30 13 -2 20 1 16 7 -3 6 -13 10
-20 10 -9 0 -12 6 -8 16 4 10 -1 17 -16 21 -11 3 -21 9 -21 14 0 5 -11 9 -25
9 -17 0 -25 5 -25 18 0 9 -10 22 -22 27 -13 6 -28 29 -37 55 -9 25 -18 47 -21
50 -3 3 -5 16 -5 30 0 14 -5 24 -11 23 -7 -1 -17 11 -24 26 -6 16 -22 39 -36
52 -13 12 -24 29 -24 37 0 9 -6 23 -13 31 -7 9 -22 35 -32 59 -17 40 -18 50
-5 140 7 53 13 130 13 170 0 39 3 72 7 72 8 0 6 54 -4 97 -5 23 -3 37 11 52
17 21 18 21 25 1 6 -16 13 -18 38 -13z m-4216 -9171 c25 -31 46 -46 61 -46 13
0 27 -4 30 -10 3 -5 17 -10 31 -10 13 0 32 -4 42 -9 9 -5 38 -18 65 -31 26
-12 47 -26 47 -31 0 -5 7 -9 15 -9 8 0 29 -14 47 -30 17 -17 38 -28 45 -26 8
3 15 -5 19 -19 9 -37 27 -46 101 -50 37 -1 102 -12 143 -24 41 -12 98 -28 126
-36 44 -13 59 -13 105 -2 90 24 176 -13 200 -85 6 -20 18 -39 25 -42 8 -3 14
-14 14 -24 0 -20 42 -72 58 -72 25 0 82 -71 93 -115 8 -32 25 -60 56 -92 25
-24 47 -42 50 -39 3 2 10 1 17 -5 6 -5 23 -18 39 -30 15 -11 27 -27 27 -35 0
-8 4 -14 9 -14 5 0 12 -19 16 -42 5 -24 9 -45 10 -48 1 -3 9 -31 19 -63 10
-32 28 -69 41 -83 13 -14 30 -35 39 -47 12 -17 17 -19 24 -9 15 23 20 -7 12
-70 -5 -33 -17 -69 -31 -87 -20 -27 -29 -31 -69 -31 -26 0 -50 -3 -54 -7 -11
-12 -76 -31 -127 -38 -40 -6 -49 -4 -49 9 0 11 -10 15 -40 13 -22 -1 -40 -6
-40 -11 0 -6 -5 -5 -12 2 -8 8 -8 15 3 28 12 16 12 17 -4 11 -35 -13 -96 -19
-122 -13 l-26 7 31 39 32 40 -47 0 c-31 0 -55 7 -75 21 -20 15 -36 20 -54 15
-20 -5 -26 -3 -26 10 0 10 -6 14 -14 11 -10 -4 -17 4 -21 24 -6 27 -10 29 -50
29 -24 0 -47 -4 -50 -10 -3 -5 -31 -22 -61 -36 -30 -14 -67 -36 -82 -48 -26
-21 -67 -50 -101 -71 -9 -5 -28 -18 -43 -27 -14 -10 -33 -18 -43 -18 -9 0 -31
-15 -50 -32 -18 -18 -42 -40 -53 -49 -10 -9 -25 -25 -33 -35 -32 -43 -238
-193 -287 -208 -32 -11 -88 27 -101 67 -5 18 -13 52 -16 76 l-7 43 85 83 c46
45 100 106 120 137 19 30 59 79 89 109 63 62 85 96 70 111 -18 18 -74 -22
-168 -118 -50 -51 -94 -99 -97 -108 -4 -9 -11 -16 -17 -16 -15 0 -49 -37 -42
-45 4 -4 3 -6 -3 -4 -12 3 -65 -22 -65 -31 0 -13 -82 -42 -104 -36 -29 7 -46
-6 -94 -71 -21 -28 -72 -77 -113 -109 -41 -31 -102 -85 -137 -121 -34 -35 -74
-68 -89 -74 -60 -23 -127 26 -139 102 -4 22 -11 42 -15 45 -17 10 -9 37 24 82
44 61 162 179 186 187 11 3 30 23 41 43 12 21 54 70 95 110 67 67 106 125 92
138 -3 3 -19 -7 -35 -23 -52 -48 -83 -73 -93 -73 -5 0 -9 -4 -9 -10 0 -5 -19
-14 -42 -21 -68 -18 -88 -28 -88 -43 0 -8 -6 -19 -13 -23 -6 -4 -37 -37 -67
-73 -30 -35 -71 -78 -89 -95 -19 -16 -42 -39 -50 -49 -89 -110 -133 -140 -184
-125 -31 9 -67 36 -67 50 0 4 -11 20 -25 35 -14 15 -25 35 -25 46 0 26 36 93
84 158 23 30 55 75 71 100 17 25 33 47 36 50 3 3 12 16 19 29 7 14 17 30 21
35 94 114 149 189 149 200 0 11 -10 13 -39 9 -33 -5 -42 -1 -62 21 -12 14 -31
26 -40 26 -40 0 -41 65 -1 129 25 42 67 106 72 111 3 3 14 21 24 40 11 19 25
41 32 47 7 7 22 29 35 50 45 74 119 160 256 300 46 47 151 123 169 123 11 0
106 61 134 86 44 40 82 55 125 50 32 -4 47 -13 79 -50z"/>
<path d="M10908 7252 c-14 -15 -28 -35 -32 -45 -3 -11 -15 -21 -26 -24 -11 -3
-20 -12 -20 -20 0 -9 7 -12 18 -9 9 2 49 8 87 12 96 9 105 15 105 69 l0 44
-37 -6 c-21 -3 -40 -7 -42 -9 -2 -2 -9 1 -16 6 -8 7 -19 1 -37 -18z"/>
<path d="M3795 19328 c-3 -7 -4 -490 -3 -1073 l3 -1060 3845 0 3845 0 3 1073
2 1072 -3845 0 c-3067 0 -3847 -3 -3850 -12z m5535 -720 l0 -201 30 41 c81
113 198 92 264 -47 30 -65 31 -68 31 -221 0 -188 -14 -239 -87 -312 -43 -44
-51 -48 -93 -48 -67 0 -111 29 -138 90 -10 23 -11 21 -17 -25 -5 -48 -6 -50
-35 -50 l-30 0 -3 488 -2 487 40 0 40 0 0 -202z m1489 12 c-1 -105 1 -193 3
-196 3 -2 13 8 23 23 24 37 34 46 68 61 127 56 236 -97 237 -331 0 -148 -53
-294 -123 -338 -66 -41 -171 -10 -198 59 -5 12 -13 22 -19 22 -6 0 -10 -10 -9
-22 5 -60 1 -69 -33 -66 -19 2 -33 8 -32 16 1 6 2 226 3 487 l1 475 41 0 40 0
-2 -190z m-6031 140 c80 -36 135 -114 169 -243 22 -80 24 -337 4 -417 -32
-129 -102 -233 -180 -266 -73 -31 -175 -10 -227 48 -129 141 -163 467 -74 701
26 67 64 120 110 152 69 48 130 56 198 25z m3614 -214 l3 -214 111 211 112
212 46 3 c27 2 46 -1 46 -7 0 -6 -24 -52 -53 -103 -30 -51 -77 -136 -105 -189
-51 -94 -52 -98 -37 -125 25 -47 215 -483 215 -494 0 -15 -76 -12 -87 3 -13
16 -183 405 -183 416 0 26 -21 17 -42 -16 -21 -35 -23 -51 -28 -223 l-5 -185
-37 -3 -38 -3 0 465 0 466 40 0 40 0 2 -214z m-2558 -56 c19 -17 38 -44 41
-60 4 -17 10 -30 13 -30 4 0 18 19 32 41 67 109 179 102 232 -16 22 -48 23
-61 23 -320 l0 -270 -30 0 -30 0 -6 235 c-7 243 -13 284 -52 328 -28 30 -63
28 -97 -6 -44 -44 -50 -86 -50 -334 l0 -228 -40 0 -40 0 0 238 c-1 246 -7 290
-46 333 -35 39 -91 14 -121 -54 -15 -35 -19 -79 -23 -277 l-5 -235 -35 0 -35
0 -3 333 -2 332 35 0 35 0 0 -52 0 -53 23 40 c27 47 79 85 118 85 17 0 42 -12
63 -30z m691 6 c15 -10 39 -43 53 -74 27 -57 27 -59 30 -325 l4 -268 -34 3
c-29 3 -33 7 -36 36 -2 17 -5 32 -6 32 -2 0 -22 -18 -44 -40 -35 -35 -45 -40
-85 -40 -61 0 -101 34 -122 103 -20 69 -19 136 4 198 31 80 89 121 189 135 51
6 52 7 52 40 0 42 -16 83 -42 112 -29 30 -83 29 -131 -3 -39 -27 -39 -27 -51
26 -15 69 141 116 219 65z m685 4 c15 -11 37 -38 47 -59 l20 -40 31 45 c63 89
150 97 204 19 50 -72 59 -136 56 -396 l-3 -234 -35 0 -35 0 -5 245 c-6 267
-13 302 -64 329 -41 23 -75 5 -105 -54 -25 -48 -26 -57 -31 -285 l-5 -235 -30
0 -30 0 -5 245 c-5 228 -7 248 -28 287 -12 23 -31 45 -43 48 -32 11 -74 -13
-95 -53 -17 -33 -20 -67 -24 -282 l-5 -245 -37 -3 -38 -3 0 325 c0 179 -1 329
-2 334 -2 4 14 8 35 10 20 2 37 0 36 -5 -1 -4 -1 -26 0 -48 l1 -40 21 35 c46
78 111 101 169 60z m688 1 c78 -40 90 -92 94 -411 l2 -255 -29 0 c-26 0 -30 4
-33 33 -4 39 -8 40 -34 7 -26 -33 -69 -55 -107 -55 -79 0 -122 56 -129 168 -2
42 1 96 7 119 22 82 94 136 200 152 l46 7 -3 43 c-3 52 -24 96 -53 112 -28 15
-94 4 -130 -21 l-27 -20 -7 42 c-6 36 -4 43 16 60 52 40 131 48 187 19z m1122
-2 c37 -21 71 -78 84 -139 3 -14 6 -137 7 -275 l2 -250 -29 0 c-24 0 -31 6
-40 34 l-11 35 -18 -28 c-43 -65 -138 -75 -193 -20 -27 27 -42 85 -42 159 0
146 55 214 195 240 55 11 60 14 58 36 -7 64 -16 91 -41 115 -23 22 -33 25 -70
20 -24 -3 -56 -15 -72 -26 l-28 -20 -6 23 c-11 43 -6 65 21 82 59 39 128 44
183 14z m1003 -15 c51 -37 83 -99 104 -204 29 -148 -5 -320 -80 -399 -56 -58
-136 -78 -195 -47 -133 70 -185 360 -98 552 58 127 170 168 269 98z m-4871
-231 c3 -221 6 -252 23 -286 33 -65 98 -63 142 5 l28 41 3 244 3 243 39 0 40
0 0 -336 0 -335 -32 3 c-31 3 -33 6 -38 48 l-5 44 -16 -24 c-36 -56 -70 -80
-111 -80 -62 0 -96 24 -126 88 -27 57 -27 59 -30 325 l-3 267 40 0 39 0 4
-247z m1666 -85 l-3 -333 -35 0 -35 0 -3 333 -2 332 40 0 40 0 -2 -332z m3494
90 c3 -214 6 -247 22 -278 24 -44 44 -59 76 -59 30 0 48 13 80 59 25 34 25 39
28 278 l4 242 39 0 39 0 -2 -332 -3 -333 -30 0 c-29 0 -30 2 -35 50 l-5 50
-18 -32 c-27 -50 -77 -83 -126 -83 -35 0 -49 6 -76 33 -55 55 -64 107 -67 395
l-3 252 36 0 37 0 4 -242z m1006 -90 l-3 -333 -35 0 -35 0 -3 333 -2 332 40 0
40 0 -2 -332z"/>
<path d="M9395 18393 c-54 -55 -60 -77 -60 -223 0 -121 2 -140 23 -182 39 -79
116 -96 167 -36 64 76 78 294 24 399 -36 71 -105 90 -154 42z"/>
<path d="M10875 18387 c-18 -18 -38 -51 -44 -72 -14 -50 -14 -248 -1 -297 27
-95 117 -129 178 -67 69 70 84 279 28 392 -41 84 -104 101 -161 44z"/>
<path d="M4665 18673 c-72 -18 -130 -137 -146 -303 -24 -244 60 -450 184 -450
107 0 177 119 193 330 11 140 -26 303 -83 371 -43 50 -88 66 -148 52z"/>
<path d="M6480 18171 c-77 -16 -120 -65 -120 -138 0 -138 107 -167 169 -46 16
31 15 193 -1 192 -7 -1 -29 -4 -48 -8z"/>
<path d="M7850 18167 c-78 -26 -100 -59 -100 -143 0 -47 5 -67 21 -88 29 -37
72 -35 110 5 36 39 51 92 47 172 -3 70 -13 76 -78 54z"/>
<path d="M8975 18171 c-85 -21 -129 -101 -105 -190 13 -51 34 -71 72 -71 65 0
114 99 106 215 -3 55 -13 61 -73 46z"/>
<path d="M9888 18412 c-55 -33 -95 -169 -84 -282 19 -186 106 -272 191 -187
50 50 69 125 63 256 -5 117 -24 171 -74 210 -32 25 -60 26 -96 3z"/>
<path d="M14140 17657 c-3 -3 -28 -8 -55 -11 -28 -3 -64 -12 -80 -20 -17 -8
-42 -19 -57 -25 -16 -6 -28 -17 -28 -25 0 -9 -9 -20 -20 -26 -11 -6 -20 -15
-20 -20 0 -16 83 -47 130 -48 25 -1 60 -7 78 -13 18 -6 36 -8 39 -5 3 3 14 1
25 -5 10 -6 64 -13 118 -16 91 -5 100 -4 106 13 4 11 15 27 25 37 17 16 19 16
29 -3 6 -11 20 -20 30 -20 22 0 26 14 10 33 -86 108 -105 118 -300 154 -14 2
-27 2 -30 0z"/>
<path d="M14080 17322 c70 -19 124 -45 136 -63 5 -9 -18 -10 -92 -6 -108 8
-200 -7 -233 -37 -10 -9 -21 -16 -25 -16 -9 0 -133 -83 -165 -110 -39 -33 -21
-50 53 -50 36 0 68 -4 71 -10 4 -6 57 -10 126 -10 71 0 119 -4 119 -10 0 -6 9
-6 26 0 17 7 31 7 42 0 10 -5 12 -10 5 -10 -7 0 -13 -9 -13 -21 0 -13 5 -19
13 -16 8 3 14 -3 14 -16 2 -26 24 -47 30 -29 8 20 19 14 21 -13 2 -27 -24 -65
-45 -65 -6 0 -15 -4 -18 -10 -15 -24 52 -8 84 20 23 21 29 30 17 30 -17 0 -15
21 6 78 4 13 6 28 2 33 -3 6 10 7 34 3 43 -7 82 8 82 31 0 7 -11 27 -25 43
-14 17 -25 33 -25 37 0 4 -10 16 -22 26 l-21 19 22 0 c12 0 33 -7 46 -16 20
-13 25 -14 25 -2 0 29 -94 132 -159 172 -35 22 -58 29 -120 32 l-76 4 65 -18z"/>
<path d="M12976 16744 c-11 -27 -7 -104 5 -104 7 0 9 -11 6 -29 -3 -16 -3 -31
0 -35 3 -3 7 -32 8 -63 4 -88 3 -86 25 -80 16 4 20 0 20 -22 0 -16 8 -31 20
-39 23 -14 18 -35 -5 -25 -9 3 -15 -1 -15 -11 0 -9 6 -16 14 -16 17 0 40 -54
33 -75 -7 -17 9 -30 18 -15 11 18 35 11 45 -12 8 -22 9 -22 9 4 1 15 -3 30 -9
33 -5 3 -10 15 -10 26 0 10 -9 28 -20 39 -13 13 -20 33 -20 60 0 29 -4 40 -15
40 -10 0 -15 10 -15 30 0 17 -4 30 -10 30 -5 0 -10 26 -10 58 0 31 -7 65 -14
75 -7 9 -11 28 -9 40 3 14 -2 31 -11 40 -9 8 -16 25 -16 36 0 25 -16 36 -24
15z"/>
<path d="M8700 16643 c2 -136 5 -126 -32 -103 -43 26 -77 25 -118 -3 -49 -32
-70 -76 -77 -155 -7 -86 15 -160 58 -197 42 -35 106 -35 148 0 l30 26 3 -23
c2 -17 10 -23 28 -23 14 0 25 6 24 13 -1 6 -2 134 -2 282 l-2 270 -31 0 -30 0
1 -87z m-25 -169 c29 -31 32 -47 25 -142 -6 -87 -28 -115 -88 -110 -47 4 -74
41 -80 111 -11 131 75 215 143 141z"/>
<path d="M5814 16683 c8 -34 112 -433 127 -486 9 -35 13 -38 42 -35 30 3 31 5
65 118 38 131 112 386 119 413 4 16 0 18 -28 15 l-32 -3 -38 -135 c-20 -74
-47 -175 -60 -224 -16 -62 -25 -83 -30 -70 -3 10 -29 111 -56 224 l-50 205
-33 3 c-31 3 -32 2 -26 -25z"/>
<path d="M9568 16649 c-13 -7 -18 -23 -18 -54 0 -42 -2 -45 -26 -45 -22 0 -25
-4 -22 -27 2 -20 9 -29 25 -31 21 -3 22 -8 25 -147 4 -169 11 -185 85 -185 41
0 43 1 43 30 0 26 -3 30 -29 30 -17 0 -31 6 -35 16 -3 9 -6 69 -6 135 l0 119
40 0 c38 0 40 2 40 30 0 28 -2 30 -39 30 l-40 0 -3 52 c-3 54 -12 64 -40 47z"/>
<path d="M5130 15360 l0 -1269 160 -3 160 -3 0 1273 0 1272 -160 0 -160 0 0
-1270z"/>
<path d="M6430 16542 c-120 -65 -133 -285 -21 -359 62 -42 179 -26 169 23 -3
17 -10 19 -61 16 -53 -4 -59 -2 -86 27 -45 48 -53 119 -21 186 28 58 90 82
140 55 15 -8 19 -5 25 17 8 35 -4 45 -62 50 -35 3 -58 -1 -83 -15z"/>
<path d="M6709 16537 c-53 -34 -79 -97 -79 -185 0 -120 41 -181 129 -190 27
-2 66 -1 85 2 32 6 36 10 36 38 0 23 -4 29 -16 24 -96 -37 -167 1 -176 94 l-3
25 108 3 107 3 0 46 c0 126 -101 200 -191 140z"/>
<path d="M7296 16545 c-16 -9 -35 -23 -42 -33 -12 -15 -13 -14 -14 11 0 23 -4
27 -30 27 l-30 0 2 -264 c0 -146 4 -269 7 -273 3 -4 16 -9 29 -10 21 -3 22 -1
22 97 0 60 4 100 10 100 6 0 10 -4 10 -8 0 -14 48 -32 82 -32 52 0 94 34 117
96 38 101 23 204 -39 266 -42 42 -75 48 -124 23z m82 -65 c45 -42 54 -168 16
-225 -40 -61 -121 -48 -143 24 -23 78 -7 167 36 201 33 25 63 26 91 0z"/>
<path d="M7641 16523 l-31 -38 0 33 c0 27 -3 32 -25 32 l-25 0 0 -195 0 -195
30 0 30 0 0 125 c0 150 14 191 67 201 30 6 33 10 33 40 0 29 -3 34 -24 34 -16
0 -35 -13 -55 -37z"/>
<path d="M7835 16550 c-30 -12 -71 -61 -84 -99 -14 -42 -14 -144 -1 -193 6
-20 26 -50 46 -67 30 -27 42 -31 94 -31 82 0 109 12 103 44 -5 22 -9 25 -32
18 -51 -14 -110 -6 -131 18 -23 27 -44 86 -35 100 4 6 50 10 111 10 l104 0 0
47 c0 114 -87 190 -175 153z"/>
<path d="M8110 16533 c-22 -20 -33 -40 -37 -70 -7 -52 10 -82 70 -121 23 -15
47 -34 54 -42 32 -39 -3 -97 -54 -87 -15 3 -38 8 -49 12 -17 5 -23 2 -27 -17
-9 -33 16 -48 79 -48 143 0 168 151 38 230 -44 27 -54 37 -54 60 0 40 22 54
75 47 43 -6 45 -5 45 18 0 50 -91 61 -140 18z"/>
<path d="M8919 16537 c-52 -34 -79 -97 -79 -182 1 -130 53 -195 157 -195 76 0
102 12 95 45 -3 19 -9 24 -21 20 -40 -16 -80 -16 -115 0 -29 14 -39 26 -50 64
-7 25 -12 49 -9 54 2 4 53 7 113 7 l109 0 -6 48 c-15 137 -103 200 -194 139z"/>
<path d="M9296 16545 c-16 -9 -35 -23 -42 -33 -12 -15 -13 -14 -14 11 0 25 -3
28 -27 25 -16 -2 -27 -6 -25 -10 1 -5 2 -92 2 -194 l0 -185 28 3 27 3 5 140
c5 150 14 179 54 189 72 18 96 -37 96 -218 l0 -116 25 0 c34 0 39 27 32 181
-6 140 -17 173 -67 203 -35 20 -57 20 -94 1z"/>
<path d="M6210 16354 l0 -195 28 3 27 3 3 193 2 192 -30 0 -30 0 0 -196z"/>
<path d="M8344 16536 c-3 -7 -4 -94 -2 -192 l3 -179 28 -3 27 -3 0 195 0 196
-25 0 c-14 0 -28 -6 -31 -14z"/>
<path d="M14081 16074 c0 -7 -12 -15 -26 -18 -14 -4 -25 -10 -25 -15 0 -4 -25
-33 -55 -64 -30 -31 -55 -60 -55 -66 0 -5 -11 -18 -25 -29 -13 -11 -46 -46
-72 -78 -26 -33 -50 -61 -53 -64 -23 -20 -39 -100 -20 -100 6 0 10 3 10 8 0 4
9 13 20 19 18 12 19 10 19 -53 -1 -37 4 -71 10 -77 8 -8 11 -4 11 14 0 45 27
117 66 176 21 32 42 61 47 64 10 7 39 55 82 134 15 28 38 65 52 83 15 19 23
41 20 55 -2 12 -5 17 -6 11z"/>
<path d="M6743 15765 c-33 -23 -47 -53 -53 -115 -4 -47 -8 -55 -27 -58 -34 -5
-31 -49 2 -62 l26 -10 -1 -147 c-1 -82 -1 -154 0 -160 0 -7 11 -13 25 -13 14
0 25 6 25 13 1 6 1 81 0 165 l-1 152 41 0 c38 0 40 2 40 30 0 28 -2 30 -41 30
l-41 0 7 43 c10 60 29 85 67 89 28 2 33 7 33 28 0 22 -5 25 -40 28 -25 2 -49
-3 -62 -13z"/>
<path d="M6070 15665 c0 -58 -3 -105 -7 -105 -3 0 -15 8 -26 18 -25 22 -95 22
-130 -1 -47 -31 -71 -91 -71 -182 0 -127 45 -195 130 -195 31 0 51 7 72 25 37
31 42 31 42 -1 0 -21 4 -25 23 -22 l22 3 3 283 2 282 -30 0 -30 0 0 -105z
m-35 -149 c28 -28 39 -78 33 -147 -7 -69 -34 -103 -85 -107 -35 -3 -44 1 -61
25 -84 119 17 325 113 229z"/>
<path d="M13132 15644 c-51 -47 -92 -90 -92 -95 0 -9 -69 -120 -81 -129 -4 -3
-10 -16 -14 -30 -4 -14 -10 -27 -14 -30 -9 -7 -65 -82 -71 -95 -3 -5 -22 -36
-43 -67 -20 -31 -37 -61 -37 -66 0 -5 -12 -20 -28 -33 -15 -13 -34 -36 -41
-52 -20 -37 -203 -195 -222 -190 -5 2 -9 -4 -9 -12 0 -8 -4 -15 -8 -15 -4 0
-25 -16 -45 -35 -20 -19 -41 -35 -47 -35 -5 0 -15 -9 -22 -20 -7 -11 -16 -20
-20 -20 -11 0 -112 -101 -132 -132 -10 -16 -26 -28 -36 -28 -10 0 -21 -9 -25
-19 -3 -11 -15 -23 -26 -26 -10 -4 -19 -10 -19 -15 0 -4 -20 -27 -44 -50 -56
-53 -70 -97 -64 -197 5 -88 27 -138 65 -148 13 -3 23 -11 23 -18 0 -6 6 -1 13
13 7 14 19 25 27 25 8 0 28 18 45 41 30 41 84 85 140 114 69 37 92 49 128 67
21 10 52 32 70 49 18 17 40 33 50 37 9 4 20 15 24 24 4 10 26 50 49 88 23 39
55 108 70 155 63 195 166 433 201 461 7 6 13 15 13 20 0 5 8 17 18 27 9 10 26
29 37 43 24 29 65 54 65 39 0 -5 -4 -10 -10 -10 -16 0 -11 -28 7 -39 12 -6 14
-13 7 -23 -6 -7 -9 -35 -6 -63 5 -66 5 -75 -3 -245 -6 -135 -25 -282 -92 -735
-32 -211 -39 -504 -14 -562 23 -56 41 -36 41 47 0 30 5 52 15 60 8 7 15 21 15
31 0 10 14 38 30 63 17 24 33 58 36 75 4 17 10 31 15 31 4 0 15 18 25 40 10
21 21 37 26 34 5 -3 19 17 31 45 15 36 29 53 46 58 15 4 26 2 29 -5 3 -11 32
-18 32 -8 0 10 -28 84 -68 176 -59 137 -71 193 -72 326 0 99 2 114 21 135 42
48 52 79 45 141 -3 35 -2 58 4 58 6 0 10 7 10 15 0 8 7 30 16 48 15 32 15 39
1 88 -34 119 -57 242 -57 314 0 43 29 135 42 135 4 0 8 5 8 11 0 7 11 22 25
35 20 18 25 32 24 66 -1 53 -11 90 -25 95 -6 2 -52 -35 -102 -83z"/>
<path d="M8318 15693 c-14 -3 -18 -15 -18 -54 0 -46 -2 -49 -26 -49 -22 0 -25
-4 -22 -27 2 -20 9 -29 26 -31 22 -3 22 -6 22 -141 0 -125 2 -141 21 -165 17
-21 29 -26 65 -26 42 0 44 1 44 30 0 27 -3 30 -30 30 -41 0 -45 19 -42 182 l2
87 38 3 c32 3 37 7 40 31 3 26 1 27 -37 27 -41 0 -41 0 -41 39 0 42 -8 72 -19
70 -3 -1 -14 -3 -23 -6z"/>
<path d="M6280 15578 c-47 -32 -74 -90 -78 -170 -4 -55 0 -76 21 -122 30 -65
63 -86 136 -86 72 0 104 14 95 43 -3 12 -7 23 -8 24 -1 1 -19 -2 -39 -8 -52
-14 -97 0 -124 41 -13 18 -23 46 -23 61 l0 29 111 0 112 0 -7 56 c-8 70 -28
110 -69 134 -42 26 -86 25 -127 -2z"/>
<path d="M6950 15589 c-62 -25 -110 -110 -110 -194 0 -60 28 -132 65 -164 31
-26 44 -31 90 -31 44 0 59 5 86 27 46 39 69 96 69 173 0 141 -95 231 -200 189z
m112 -81 c17 -24 23 -49 26 -98 4 -77 -17 -127 -61 -148 -105 -50 -170 145
-86 252 16 20 30 26 59 26 32 0 43 -5 62 -32z"/>
<path d="M7322 15593 c-8 -3 -22 -19 -33 -37 l-19 -31 0 33 c0 30 -2 33 -27
30 -16 -2 -27 -6 -25 -10 1 -5 2 -92 2 -194 l0 -185 28 3 27 3 5 135 c6 149
14 175 65 188 29 8 33 19 26 65 -1 8 -29 8 -49 0z"/>
<path d="M7544 15590 c-12 -5 -29 -19 -38 -32 l-16 -22 0 27 c0 23 -4 27 -29
27 l-28 0 -1 -181 c0 -99 2 -187 5 -195 3 -8 16 -14 29 -14 l24 0 0 125 c0
136 12 185 50 205 11 6 30 8 41 5 37 -12 49 -64 49 -205 l0 -131 28 3 27 3 5
140 c3 86 10 149 18 162 19 34 59 40 85 14 20 -20 22 -33 25 -171 l3 -150 31
0 30 0 -4 158 c-2 133 -6 162 -22 189 -37 61 -101 70 -150 21 l-33 -33 -30 33
c-31 33 -58 39 -99 22z"/>
<path d="M8012 15585 c-26 -11 -33 -20 -30 -37 2 -15 9 -21 18 -19 8 3 36 6
61 9 49 4 63 -5 74 -50 6 -25 4 -27 -45 -37 -93 -20 -140 -64 -140 -130 0 -43
24 -97 48 -110 32 -17 87 -13 115 9 14 11 28 20 31 20 3 0 6 -9 6 -20 0 -15 7
-20 25 -20 l25 0 0 131 c0 147 -11 207 -45 239 -30 28 -98 36 -143 15z m128
-223 c0 -59 -9 -79 -45 -98 -31 -17 -35 -17 -59 -1 -52 34 -26 118 41 133 16
3 33 7 38 9 19 5 25 -6 25 -43z"/>
<path d="M8723 15584 c-64 -32 -92 -90 -92 -189 1 -121 57 -195 147 -195 84 0
134 48 154 145 13 65 -2 152 -33 196 -38 54 -116 73 -176 43z m115 -64 c62
-58 48 -222 -22 -260 -76 -40 -145 69 -122 193 14 75 95 112 144 67z"/>
<path d="M9097 15576 c-46 -31 -47 -31 -47 -6 0 15 -7 20 -25 20 l-25 0 2
-192 3 -193 28 -3 27 -3 0 125 c0 131 6 162 40 196 25 25 51 26 81 1 23 -18
24 -27 29 -167 l5 -149 28 -2 27 -2 0 145 c0 100 -4 155 -14 177 -31 73 -97
95 -159 53z"/>
<path d="M8502 15398 l3 -193 25 0 25 0 3 193 2 192 -30 0 -30 0 2 -192z"/>
<path d="M13960 15498 c0 -13 25 -46 65 -86 36 -35 65 -70 65 -79 0 -8 6 -13
13 -10 18 7 49 -13 43 -28 -4 -13 38 -28 48 -17 3 3 3 32 -1 64 -7 66 1 78 49
78 15 0 29 4 33 9 6 11 -31 24 -135 47 -41 9 -87 23 -102 30 -43 22 -78 18
-78 -8z"/>
<path d="M7593 14812 c-22 -3 -23 -7 -23 -115 -1 -90 -3 -109 -13 -96 -52 67
-154 44 -195 -44 -47 -99 -37 -210 25 -278 31 -34 41 -39 78 -39 32 0 52 7 73
25 17 14 33 25 36 25 3 0 6 -11 6 -25 0 -20 5 -25 25 -25 l25 0 0 284 c0 157
-3 286 -7 288 -5 2 -18 2 -30 0z m-46 -271 c40 -59 25 -217 -22 -235 -32 -12
-71 -6 -93 14 -23 22 -42 78 -42 125 0 39 33 110 57 124 34 20 76 9 100 -28z"/>
<path d="M8685 14812 c-3 -3 -5 -133 -5 -289 l0 -284 28 3 27 3 3 281 2 282
-25 4 c-13 3 -27 3 -30 0z"/>
<path d="M6740 14705 l0 -105 -32 20 c-94 57 -186 -18 -196 -159 -6 -86 11
-146 53 -188 28 -28 40 -33 78 -33 36 0 51 6 76 29 31 29 31 29 31 6 0 -21 17
-35 41 -35 5 0 9 119 9 285 l0 285 -30 0 -30 0 0 -105z m-39 -138 c29 -22 39
-55 39 -127 0 -81 -18 -127 -54 -136 -70 -17 -116 32 -116 127 0 32 4 69 9 82
22 57 83 84 122 54z"/>
<path d="M6213 14730 c-19 -8 -23 -17 -23 -55 0 -40 -2 -45 -23 -45 -18 0 -23
-5 -22 -27 0 -21 6 -29 22 -31 21 -3 22 -8 25 -137 3 -117 6 -137 24 -162 17
-23 30 -29 68 -31 45 -3 46 -3 46 27 0 28 -3 31 -30 31 -42 0 -50 27 -50 161
l0 109 40 0 c38 0 40 2 40 30 0 28 -2 30 -40 30 l-40 0 0 55 c0 58 -1 59 -37
45z"/>
<path d="M11503 14730 c-19 -8 -23 -17 -23 -55 0 -37 -3 -45 -18 -45 -26 0
-30 -6 -24 -35 3 -16 11 -25 22 -25 17 0 19 -13 22 -134 3 -118 6 -138 24
-163 17 -23 30 -29 68 -31 45 -3 46 -3 46 27 0 27 -3 31 -29 31 -40 0 -51 36
-51 166 l0 103 43 3 c37 3 42 6 42 28 0 22 -5 25 -43 28 l-42 3 0 55 c0 57 -1
58 -37 44z"/>
<path d="M5932 14630 c-110 -45 -136 -265 -42 -355 26 -25 40 -30 94 -33 70
-5 106 8 106 38 0 27 -11 30 -57 18 -33 -8 -48 -7 -76 7 -36 17 -67 65 -67
104 0 20 5 21 110 21 l110 0 0 34 c0 63 -13 98 -50 137 -39 41 -76 49 -128 29z"/>
<path d="M6975 14630 c-30 -12 -71 -61 -84 -99 -18 -55 -14 -171 8 -211 27
-53 74 -80 135 -80 79 0 96 8 96 42 0 23 -4 28 -17 24 -93 -26 -143 -8 -169
59 -9 24 -13 48 -9 54 4 7 47 11 111 11 l104 0 0 45 c0 117 -85 193 -175 155z"/>
<path d="M7779 14616 c-97 -67 -105 -265 -13 -346 30 -26 42 -30 95 -30 69 0
99 12 99 40 0 27 -10 30 -62 19 -37 -8 -53 -7 -76 5 -31 16 -62 69 -62 105 0
20 5 21 110 21 l110 0 0 33 c0 137 -107 219 -201 153z"/>
<path d="M8411 14618 c-54 -36 -74 -79 -79 -169 -4 -65 -1 -85 17 -122 32 -67
53 -81 124 -85 91 -6 134 16 109 55 -5 8 -20 9 -54 2 -82 -18 -138 26 -138
107 0 23 3 23 108 26 l107 3 -2 46 c-5 94 -45 148 -115 156 -34 4 -50 0 -77
-19z"/>
<path d="M8899 14619 c-107 -64 -119 -267 -21 -350 34 -28 42 -30 94 -27 44 3
64 10 84 29 85 78 86 259 2 337 -37 34 -112 39 -159 11z m119 -56 c65 -58 52
-227 -21 -261 -101 -48 -173 150 -91 248 30 35 80 41 112 13z"/>
<path d="M9280 14610 c-18 -16 -34 -30 -36 -30 -2 0 -4 12 -4 26 0 22 -4 25
-27 22 -16 -2 -28 -9 -27 -15 1 -7 2 -129 3 -271 l1 -258 28 2 27 1 3 97 3 97
26 -21 c60 -47 142 -17 180 67 22 48 25 65 21 132 -4 55 -11 86 -28 114 -43
72 -116 88 -170 37z m100 -50 c29 -29 40 -63 40 -122 0 -73 -18 -115 -56 -133
-39 -18 -73 -9 -97 29 -22 33 -23 155 -2 196 27 52 79 66 115 30z"/>
<path d="M9646 14610 c-34 -31 -35 -31 -38 -8 -2 16 -11 24 -29 26 l-26 3 3
-272 3 -272 26 -2 c14 0 25 4 26 10 0 5 0 45 -1 87 -2 94 3 105 37 78 15 -11
41 -20 60 -20 77 0 130 65 139 172 8 85 -9 143 -56 190 -49 50 -94 52 -144 8z
m107 -60 c49 -58 48 -176 -4 -231 -24 -26 -34 -30 -56 -24 -37 9 -53 24 -70
62 -27 66 -10 168 34 203 36 28 67 25 96 -10z"/>
<path d="M9989 14617 c-18 -12 -44 -40 -57 -62 -20 -35 -23 -51 -20 -130 3
-75 8 -96 27 -123 30 -43 70 -62 128 -62 76 0 93 8 93 42 0 23 -4 28 -17 24
-94 -27 -142 -11 -168 58 -9 24 -14 49 -10 55 4 7 47 11 111 11 l104 0 0 38
c0 62 -18 109 -56 141 -43 38 -87 41 -135 8z"/>
<path d="M10355 14628 c-11 -6 -28 -20 -37 -32 l-18 -21 0 28 c0 24 -4 27 -31
27 -24 0 -30 -3 -25 -16 3 -9 6 -96 6 -194 l0 -179 28 3 27 3 5 139 c3 76 9
146 13 155 13 26 56 45 75 33 34 -22 42 -56 42 -196 l0 -138 30 0 30 0 0 136
c0 136 6 166 39 191 24 18 46 16 67 -8 16 -18 20 -42 24 -168 l5 -146 28 -3
29 -4 -4 159 c-3 138 -6 163 -24 193 -36 62 -102 65 -156 8 -15 -16 -28 -26
-28 -20 0 5 -12 21 -26 36 -28 28 -65 33 -99 14z"/>
<path d="M10855 14625 c-16 -9 -41 -32 -55 -53 -23 -33 -25 -47 -25 -137 0
-89 3 -104 23 -133 31 -43 71 -62 129 -62 77 0 93 8 93 42 0 27 -3 30 -22 24
-59 -17 -78 -17 -109 -2 -40 19 -55 40 -64 90 l-7 36 111 0 111 0 0 47 c0 121
-91 194 -185 148z"/>
<path d="M11214 14621 c-18 -11 -34 -25 -37 -33 -3 -7 -6 -1 -6 15 -1 23 -5
27 -32 27 -28 0 -31 -3 -25 -22 3 -13 6 -101 6 -195 l0 -173 25 0 c28 0 28 -2
25 142 -2 102 7 142 37 173 31 30 53 32 84 6 23 -18 24 -27 29 -168 l5 -148
28 -3 27 -3 0 146 c0 160 -9 197 -55 233 -34 27 -70 28 -111 3z"/>
<path d="M8014 14613 c7 -18 11 -30 76 -240 37 -121 43 -133 64 -133 32 0 38
10 74 130 18 58 43 140 56 183 l24 77 -32 0 c-30 0 -33 -3 -44 -47 -38 -143
-67 -243 -72 -243 -3 0 -23 65 -45 145 l-40 145 -33 0 c-28 0 -33 -3 -28 -17z"/>
<path d="M12825 13862 c-4 -15 -9 -22 -12 -15 -3 10 -9 10 -24 0 -10 -6 -19
-16 -19 -20 0 -5 -11 -22 -25 -39 -20 -24 -25 -40 -25 -86 0 -68 11 -92 33
-73 18 14 17 6 -14 -97 -25 -84 -28 -352 -4 -426 8 -27 15 -70 16 -95 0 -25 4
-55 9 -66 7 -19 8 -18 13 5 13 55 19 143 21 310 3 208 11 289 38 352 19 46 24
96 18 211 -3 64 -14 81 -25 39z"/>
<path d="M13396 13841 c-5 -7 -1 -20 8 -30 9 -10 16 -25 16 -33 0 -9 7 -21 15
-28 8 -7 15 -18 15 -25 0 -7 7 -18 15 -25 8 -7 13 -16 10 -19 -2 -4 11 -30 29
-58 18 -27 42 -70 55 -95 12 -26 29 -49 37 -52 9 -3 14 -12 11 -19 -3 -8 7
-21 24 -31 16 -9 29 -23 29 -29 0 -13 43 -57 56 -57 4 0 30 -24 58 -53 68 -70
133 -127 145 -127 5 0 17 -9 25 -21 29 -42 34 -13 6 31 -60 91 -77 112 -166
209 -166 181 -217 242 -272 323 -18 27 -46 61 -62 77 -16 15 -33 38 -38 51 -6
16 -11 20 -16 11z"/>
<path d="M12451 13428 c-31 -20 -32 -21 -29 -92 2 -54 6 -70 17 -68 14 3 15 8
-8 -148 -5 -34 -4 -74 2 -103 8 -38 8 -50 -2 -56 -14 -9 -12 -183 4 -215 6
-14 5 -17 -3 -12 -7 4 -12 2 -12 -3 0 -6 8 -11 18 -11 15 0 17 10 14 87 -8
239 13 489 43 519 15 16 17 24 19 81 1 41 -20 48 -63 21z"/>
<path d="M12282 13363 c-33 -4 -54 -29 -35 -42 17 -12 31 -66 32 -126 2 -74 9
-104 22 -84 6 10 9 5 10 -16 1 -29 10 8 24 100 3 17 11 35 20 41 10 7 14 26
14 55 -2 34 -3 37 -6 14 -3 -16 -8 -34 -13 -39 -10 -10 -34 70 -26 90 3 8 2
13 -2 12 -4 0 -22 -3 -40 -5z"/>
<path d="M13136 12218 c20 -35 40 -70 45 -78 5 -8 18 -31 28 -51 11 -19 27
-41 35 -48 9 -8 16 -20 16 -27 0 -8 4 -14 8 -14 5 0 21 -19 38 -41 75 -106
206 -235 245 -243 17 -3 52 -16 77 -27 26 -12 53 -21 60 -20 6 1 12 -3 12 -9
0 -5 6 -10 13 -10 8 0 36 -11 63 -25 27 -14 57 -25 66 -25 9 0 18 -4 20 -10 2
-5 30 -11 63 -13 33 -2 71 -9 84 -16 13 -7 34 -11 47 -8 13 2 24 1 24 -4 0 -4
13 -7 29 -7 15 1 33 -2 40 -6 7 -5 11 2 11 18 0 25 3 26 55 26 64 0 145 19
145 35 0 17 -22 35 -42 35 -10 0 -18 7 -18 15 0 8 -4 15 -9 15 -5 0 -11 9 -14
20 -4 17 -11 19 -58 13 -30 -3 -61 -9 -70 -14 -19 -10 -29 -2 -29 23 0 13 -8
18 -30 18 -16 0 -30 4 -30 8 0 5 -19 14 -42 21 -24 7 -52 16 -63 20 -11 5 -40
15 -65 22 -25 7 -49 19 -53 26 -4 7 -30 15 -57 19 -27 4 -55 13 -61 20 -6 8
-20 14 -31 14 -11 0 -33 10 -50 21 -16 12 -46 25 -67 30 -21 5 -55 24 -76 44
-22 19 -45 35 -52 35 -7 0 -28 14 -48 31 -19 17 -35 27 -35 23 0 -5 -6 -2 -13
7 -7 8 -37 33 -67 56 -30 22 -69 56 -86 74 -81 87 -105 90 -58 7z"/>
<path d="M13433 11118 c-3 -7 -1 -8 5 -4 14 9 15 -3 2 -24 -14 -22 15 -44 165
-125 75 -41 189 -118 260 -175 24 -19 77 -62 118 -95 41 -33 85 -74 98 -92 30
-40 109 -77 219 -104 102 -25 243 -41 288 -33 l32 6 -30 17 c-16 9 -58 38 -93
64 -118 92 -382 257 -457 286 -19 8 -43 21 -53 29 -9 8 -20 13 -23 9 -3 -3
-28 10 -55 29 -27 19 -53 34 -58 34 -4 0 -19 9 -32 19 -14 10 -45 24 -69 31
-25 7 -62 21 -83 32 -21 11 -47 18 -58 15 -10 -3 -17 -1 -14 3 3 5 -5 12 -17
16 -13 3 -39 19 -58 34 -40 31 -77 43 -87 28z"/>
</g>
</svg>
