<?xml version="1.0" standalone="no"?>
<!DOCTYPE svg PUBLIC "-//W3C//DTD SVG 20010904//EN"
 "http://www.w3.org/TR/2001/REC-SVG-20010904/DTD/svg10.dtd">
<svg version="1.0" xmlns="http://www.w3.org/2000/svg"
 width="2048.000000pt" height="2043.000000pt" viewBox="0 0 2048.000000 2043.000000"
 preserveAspectRatio="xMidYMid meet">
<metadata>
Created by potrace 1.16, written by Peter Selinger 2001-2019
</metadata>
<g transform="translate(0.000000,2043.000000) scale(0.100000,-0.100000)"
fill="#000000" stroke="none">
<path d="M0 14232 c0 -6175 0 -6182 20 -6182 11 0 20 -4 20 -10 0 -5 9 -10 20
-10 11 0 20 5 20 10 0 6 -9 10 -20 10 -16 0 -20 7 -20 36 0 31 2 35 21 29 16
-5 20 -3 19 12 -5 40 1 63 14 63 7 0 26 17 42 38 16 20 35 46 44 57 8 11 34
38 56 61 23 23 45 51 49 63 3 11 13 21 21 21 8 0 14 6 14 14 0 8 7 16 15 20 8
3 15 12 15 20 0 8 11 26 25 40 14 14 25 34 25 46 0 13 7 20 18 20 15 0 62 48
62 63 0 2 16 21 35 41 19 21 35 41 35 45 0 3 14 15 30 24 26 16 30 16 30 3 0
-9 7 -16 15 -16 11 0 15 12 15 50 0 28 5 50 10 50 6 0 10 -4 10 -10 0 -14 33
-13 48 2 14 14 16 68 2 68 -5 0 -10 -9 -10 -20 0 -11 -4 -20 -10 -20 -16 0
-11 32 7 46 21 16 63 18 63 4 0 -5 9 -10 20 -10 11 0 20 5 20 10 0 6 -9 10
-20 10 -16 0 -20 7 -20 36 0 31 3 35 20 29 20 -6 28 9 11 19 -11 7 10 56 24
56 6 1 24 19 40 40 17 21 36 39 43 40 6 0 12 9 12 19 0 28 21 37 37 16 10 -15
13 -15 13 -4 0 8 -5 20 -11 26 -13 13 1 31 39 52 12 6 22 21 22 31 0 11 7 20
15 20 8 0 15 6 15 14 0 8 7 16 15 20 8 3 15 12 15 20 0 8 11 26 25 40 14 14
25 34 25 46 0 12 7 20 18 20 9 0 29 19 45 44 22 35 32 43 50 39 16 -3 18 -2 8
5 -11 8 -9 16 14 46 23 30 32 35 63 33 32 -2 37 1 40 21 2 13 -1 29 -7 36 -17
20 12 41 36 27 11 -5 24 -6 31 -2 16 10 28 71 13 71 -6 0 -11 -9 -11 -20 0
-11 -4 -20 -10 -20 -17 0 -11 29 10 50 11 11 20 30 20 43 0 29 57 58 71 36 7
-11 9 -9 7 6 -3 41 2 65 15 65 7 0 26 18 43 40 19 26 37 40 53 40 20 0 22 2
11 15 -10 12 -10 19 -2 27 9 9 16 7 27 -8 14 -19 14 -19 15 2 0 11 -5 25 -10
30 -7 7 -3 19 14 37 14 15 28 22 31 17 3 -6 13 -10 22 -10 13 0 13 3 -2 26
-10 16 -13 30 -7 37 8 11 118 146 294 362 31 39 67 82 80 96 13 15 37 44 53
65 17 21 44 54 61 74 17 19 57 69 90 110 32 41 66 84 75 95 129 153 516 626
617 753 30 37 64 78 76 92 12 14 48 59 81 100 33 41 62 77 65 80 3 3 32 39 65
80 32 41 62 77 65 80 6 5 43 50 225 275 49 61 95 115 101 120 6 6 37 44 69 85
33 41 61 77 64 80 4 3 33 39 66 80 33 41 62 77 65 80 3 3 32 39 65 80 32 41
62 77 65 80 3 3 75 91 160 195 85 105 156 192 159 195 3 3 35 41 71 85 35 44
67 82 70 85 3 3 22 26 41 51 19 25 52 67 74 93 142 170 181 218 283 345 52 64
96 122 99 129 5 13 -23 54 -91 132 -23 25 -52 61 -66 80 -14 18 -54 68 -90
110 -36 42 -117 141 -180 220 -63 78 -120 148 -125 154 -6 6 -40 47 -75 91
-36 44 -72 89 -82 100 -9 11 -67 82 -130 159 -62 76 -140 171 -173 211 -33 40
-113 138 -177 218 -65 80 -124 151 -131 159 -7 7 -35 42 -62 78 -28 36 -55 70
-61 75 -6 6 -62 73 -125 150 -62 77 -174 214 -249 305 -74 91 -151 185 -170
210 -19 25 -37 47 -40 50 -3 3 -30 34 -59 70 -29 36 -60 74 -70 85 -9 11 -66
81 -126 155 -60 74 -112 137 -115 140 -3 3 -34 41 -70 85 -35 44 -80 100 -101
125 -60 74 -191 233 -234 285 -22 26 -46 58 -54 69 -8 12 -18 23 -22 26 -4 3
-62 73 -129 155 -67 83 -135 166 -150 185 -61 73 -277 339 -354 435 -45 55
-86 105 -92 110 -6 6 -60 71 -119 145 -60 74 -114 140 -120 146 -5 6 -23 28
-40 49 -16 22 -84 104 -149 184 -66 80 -156 191 -200 246 -97 120 -109 134
-164 199 -23 28 -46 56 -50 61 -4 6 -39 48 -77 95 -39 47 -75 92 -82 100 -69
86 -399 488 -409 500 -12 12 -14 -908 -14 -6168z"/>
<path d="M3410 18665 l0 -1205 4545 0 4545 0 0 1205 0 1205 -4545 0 -4545 0 0
-1205z m2330 333 l0 -68 -150 0 -150 0 0 -90 0 -90 140 0 140 0 0 -65 0 -65
-140 0 -140 0 0 -115 0 -115 155 0 155 0 0 -65 0 -65 -210 0 -210 0 0 398 c0
219 2 401 4 403 2 2 95 4 205 4 l201 0 0 -67z m1988 62 l32 0 0 -155 0 -155
110 0 109 0 3 156 3 156 53 2 52 1 0 -402 0 -403 -55 0 -55 0 -2 178 -3 177
-107 3 -108 3 0 -181 0 -180 -55 0 -55 0 0 406 0 406 23 -6 c12 -3 37 -6 55
-6z m1962 -397 l0 -403 -49 0 -50 0 -3 43 c-4 41 -4 41 -15 16 -16 -37 -68
-71 -108 -71 -97 0 -165 127 -165 309 0 104 15 177 48 229 32 53 68 74 123 74
35 0 49 -6 76 -32 l33 -32 0 135 0 134 55 0 55 0 0 -402z m-3579 184 c18 -12
39 -32 45 -44 10 -22 11 -22 49 17 35 35 44 40 86 40 59 0 100 -31 117 -88 8
-25 12 -123 12 -276 l0 -236 -49 0 -50 0 -3 224 c-3 204 -5 226 -22 245 -25
28 -47 27 -76 -4 -31 -33 -38 -89 -39 -297 l-1 -168 -50 0 -50 0 0 211 c0 173
-3 217 -16 245 -24 50 -72 45 -102 -10 -13 -25 -17 -68 -20 -238 l-4 -208 -49
0 -49 0 0 295 0 295 45 0 c43 0 45 -1 45 -30 0 -16 3 -30 6 -30 4 0 20 15 38
34 18 20 44 36 61 39 17 2 33 5 36 6 3 0 21 -9 40 -22z m3935 -8 c53 -32 58
-53 65 -304 3 -126 9 -240 14 -252 7 -22 5 -23 -44 -23 -52 0 -53 0 -66 47 -2
6 -19 -3 -40 -23 -69 -65 -163 -43 -199 46 -32 82 -10 205 44 243 12 9 58 28
101 43 85 29 97 43 79 90 -14 36 -26 44 -68 44 -27 0 -36 -6 -53 -35 -21 -36
-39 -41 -87 -29 -19 6 -22 11 -17 33 11 47 44 106 67 120 52 33 150 33 204 0z
m-3217 5 c13 -9 32 -35 42 -58 16 -36 19 -68 19 -283 l0 -243 -49 0 -50 0 -3
218 c-3 188 -5 222 -21 245 -20 31 -52 35 -83 9 -41 -32 -44 -53 -44 -266 l0
-206 -55 0 -55 0 0 295 0 295 50 0 50 0 0 -36 0 -36 40 41 c36 37 45 41 88 41
28 0 57 -7 71 -16z m425 1 c60 -29 68 -61 75 -325 4 -129 10 -241 14 -247 6
-10 -5 -13 -43 -13 -36 0 -52 4 -55 15 -16 51 -15 50 -31 27 -8 -12 -33 -31
-55 -42 -33 -18 -45 -19 -79 -10 -21 6 -46 18 -55 26 -27 28 -45 84 -45 145 0
113 34 155 156 194 l84 27 0 36 c0 46 -24 72 -67 72 -28 0 -37 -6 -54 -35 -22
-37 -27 -39 -78 -29 -20 4 -31 12 -31 23 0 31 49 116 77 133 36 22 143 24 187
3z m1194 -11 c19 -15 45 -50 58 -78 22 -48 43 -155 44 -218 l0 -28 -135 0
c-148 0 -143 3 -124 -65 13 -49 45 -85 75 -85 24 0 64 42 64 67 0 12 10 14 53
8 28 -4 54 -9 56 -11 2 -2 -6 -28 -18 -58 -34 -83 -79 -116 -156 -116 -52 0
-77 10 -117 48 -88 81 -98 370 -17 488 40 58 65 73 128 73 44 1 61 -4 89 -25z
m483 -13 l33 -38 36 38 c32 34 43 39 81 39 55 0 86 -20 110 -74 16 -36 19 -68
19 -283 l0 -243 -50 0 -50 0 0 211 c0 173 -3 217 -16 245 -33 69 -98 29 -114
-72 -6 -32 -10 -132 -10 -221 l0 -163 -50 0 -50 0 0 210 c0 234 -9 280 -52
280 -13 0 -30 -6 -39 -13 -39 -30 -43 -57 -47 -269 l-4 -208 -49 0 -49 0 0
295 0 295 45 0 45 0 0 -37 0 -37 42 42 c37 38 46 42 89 42 43 0 51 -4 80 -39z
m1580 22 c58 -34 64 -62 67 -336 l3 -248 -53 3 -53 3 -5 220 c-5 240 -11 265
-61 265 -35 0 -70 -40 -80 -92 -4 -24 -8 -123 -9 -220 l0 -178 -50 0 -50 0 0
295 0 295 44 0 45 0 3 -42 3 -43 19 31 c37 62 116 83 177 47z m430 1 c58 -29
69 -74 69 -289 0 -127 5 -208 14 -243 l13 -52 -53 0 c-51 0 -53 1 -59 31 l-7
31 -32 -30 c-51 -50 -93 -59 -152 -30 -69 33 -94 197 -42 276 27 40 31 42 163
90 44 15 50 21 53 49 8 80 -108 102 -132 25 -13 -38 -96 -26 -96 15 0 38 38
102 73 123 40 25 144 27 188 4z"/>
<path d="M9453 18728 c-36 -40 -43 -65 -43 -161 0 -136 29 -206 86 -207 27 0
62 38 74 81 16 53 12 204 -5 246 -27 64 -75 81 -112 41z"/>
<path d="M9945 18524 c-56 -20 -87 -57 -79 -97 12 -68 61 -87 107 -39 21 22
27 38 29 86 2 33 -1 60 -7 61 -5 1 -28 -4 -50 -11z"/>
<path d="M7161 18521 c-78 -32 -101 -83 -60 -135 23 -29 36 -32 73 -15 27 13
44 52 46 109 4 69 6 67 -59 41z"/>
<path d="M8320 18728 c-22 -24 -29 -45 -33 -93 l-2 -30 78 -3 77 -3 0 31 c0
17 -9 48 -20 69 -28 56 -65 67 -100 29z"/>
<path d="M10849 18522 c-65 -24 -79 -38 -79 -81 0 -91 70 -109 123 -31 17 25
25 131 10 129 -5 0 -29 -8 -54 -17z"/>
<path d="M15905 19404 c-108 -14 -315 -59 -346 -75 -9 -4 -49 -15 -89 -23
-167 -35 -369 -164 -714 -456 -98 -82 -115 -98 -163 -152 -37 -42 -173 -241
-190 -278 -4 -8 -25 -46 -48 -85 -34 -59 -186 -361 -231 -460 -26 -57 -36 -90
-49 -165 -8 -41 -23 -122 -34 -180 -11 -58 -35 -193 -55 -300 -51 -280 -77
-413 -82 -429 -3 -9 1 -11 11 -7 27 10 27 -19 1 -77 -49 -112 -79 -273 -96
-522 -33 -495 -33 -440 10 -780 6 -44 24 -183 40 -310 l30 -230 0 -662 c0
-430 3 -664 10 -668 18 -11 11 -60 -12 -79 -52 -45 -199 -104 -401 -160 -167
-46 -292 -76 -697 -163 -41 -9 -85 -22 -97 -29 -12 -8 -29 -14 -38 -14 -8 0
-23 -9 -32 -20 -10 -11 -25 -20 -35 -20 -10 0 -18 -7 -18 -15 0 -8 -5 -15 -11
-15 -6 0 -38 -19 -70 -42 -73 -54 -128 -88 -140 -88 -5 0 -9 -4 -9 -10 0 -5
-16 -12 -36 -16 -19 -4 -38 -13 -41 -20 -3 -8 -14 -14 -24 -14 -10 0 -19 -4
-19 -10 0 -5 -6 -10 -13 -10 -7 0 -20 -8 -28 -17 -24 -26 -58 -53 -68 -53 -8
0 -20 -27 -25 -55 -1 -5 -7 -9 -14 -7 -7 1 -12 -7 -12 -18 0 -10 -9 -24 -20
-30 -11 -6 -20 -20 -20 -30 0 -11 -7 -20 -15 -20 -10 0 -15 -11 -15 -35 0 -24
-5 -35 -15 -35 -9 0 -15 -9 -15 -22 -1 -13 -9 -41 -20 -63 -11 -22 -20 -53
-20 -70 0 -16 -7 -39 -15 -49 -8 -11 -15 -41 -15 -67 0 -26 -4 -50 -9 -53 -4
-3 -11 -35 -15 -72 -4 -37 -13 -76 -21 -88 -9 -13 -15 -44 -15 -84 0 -35 -4
-61 -9 -58 -13 9 -21 -20 -21 -79 0 -32 -5 -57 -14 -64 -7 -6 -16 -34 -18 -62
-3 -28 -11 -54 -17 -58 -6 -4 -14 -32 -18 -61 -3 -30 -12 -65 -20 -79 -7 -15
-13 -40 -13 -58 0 -17 -7 -38 -15 -47 -8 -8 -15 -30 -15 -48 0 -19 -9 -59 -20
-91 -11 -31 -20 -79 -20 -107 0 -35 -4 -49 -12 -48 -9 2 -15 -15 -18 -52 -3
-32 -9 -53 -15 -50 -6 3 -11 -11 -13 -30 -4 -63 -13 -101 -22 -95 -4 3 -11
-22 -15 -55 -4 -39 -12 -60 -20 -60 -8 0 -15 -21 -18 -62 -6 -62 -33 -193 -37
-173 -3 21 -19 -32 -19 -68 -1 -21 -5 -36 -10 -33 -11 7 -21 -17 -21 -54 0
-37 -10 -61 -21 -54 -5 3 -9 -10 -9 -28 0 -44 -10 -79 -20 -73 -5 3 -12 -16
-16 -42 -4 -26 -13 -53 -20 -61 -8 -7 -14 -33 -14 -57 0 -29 -5 -45 -15 -49
-9 -3 -15 -18 -15 -38 0 -19 -6 -43 -14 -54 -8 -11 -17 -45 -21 -77 -4 -31
-11 -55 -15 -52 -10 6 -20 -30 -20 -73 0 -20 -6 -35 -15 -38 -10 -4 -15 -20
-15 -44 0 -21 -7 -45 -14 -53 -8 -8 -18 -37 -22 -65 -3 -29 -12 -53 -20 -56
-9 -4 -14 -21 -14 -51 0 -26 -4 -44 -9 -41 -11 7 -21 -17 -21 -47 0 -30 -29
-155 -46 -195 -8 -18 -14 -43 -14 -55 0 -12 -7 -35 -15 -51 -8 -15 -15 -38
-15 -50 0 -11 -6 -33 -13 -47 -8 -14 -17 -44 -21 -68 -3 -24 -13 -50 -21 -58
-8 -8 -15 -26 -15 -41 0 -15 -7 -36 -15 -46 -8 -11 -15 -30 -15 -42 0 -13 -6
-29 -13 -36 -8 -7 -17 -33 -21 -58 -4 -24 -12 -47 -17 -51 -6 -3 -13 -25 -16
-48 -4 -25 -11 -41 -19 -41 -10 0 -14 -13 -14 -40 0 -26 -5 -43 -14 -46 -8 -3
-17 -25 -21 -50 -3 -24 -10 -42 -15 -39 -9 6 -20 -29 -20 -68 0 -16 -4 -26 -9
-23 -11 7 -21 -17 -21 -50 0 -14 -7 -27 -15 -30 -8 -3 -17 -26 -21 -50 -3 -24
-10 -47 -15 -50 -5 -3 -9 -25 -9 -49 0 -29 -5 -45 -15 -49 -11 -4 -15 -21 -15
-60 0 -35 -5 -60 -15 -70 -8 -8 -15 -34 -16 -58 -1 -52 -15 -149 -19 -128 -4
25 -18 -42 -19 -93 -1 -28 -5 -46 -11 -42 -12 7 -19 -23 -22 -95 -2 -34 -7
-54 -14 -53 -7 1 -14 -27 -18 -74 -3 -42 -10 -80 -16 -83 -5 -3 -14 -42 -19
-85 -6 -44 -15 -98 -20 -120 -6 -22 -17 -76 -25 -120 -23 -121 -80 -404 -131
-655 -25 -121 -45 -278 -45 -349 0 -92 -11 -201 -20 -196 -9 5 -25 -380 -16
-393 3 -5 6 -70 7 -144 l2 -136 -46 -89 c-95 -186 -91 -155 -95 -613 -2 -283
-7 -407 -14 -411 -8 -5 -7 -51 6 -168 23 -214 27 -226 79 -253 97 -51 209 -73
221 -43 3 9 18 15 35 15 20 0 31 6 33 17 5 25 118 27 118 1 0 -9 4 -20 10 -23
6 -3 10 4 10 17 0 17 3 19 9 9 6 -9 11 2 15 33 6 37 11 46 27 46 11 0 17 5 14
10 -3 6 -1 10 4 10 6 0 11 -6 11 -12 0 -7 10 2 21 20 12 17 33 35 47 39 24 6
25 7 7 14 -19 7 -18 8 3 8 13 1 22 7 22 17 0 10 6 14 15 10 10 -4 15 1 15 14
0 11 5 20 10 20 6 0 10 -5 10 -11 0 -6 7 -3 16 5 8 9 21 16 29 16 7 0 15 7 19
15 3 8 15 15 26 15 12 0 35 13 52 30 17 17 40 30 54 30 14 0 23 4 19 9 -3 5
12 15 32 22 21 6 40 15 43 19 3 4 27 18 55 30 46 21 59 22 190 17 164 -7 155
-6 130 -17 l-20 -9 20 -1 c39 -3 57 -9 74 -24 10 -9 31 -18 48 -22 26 -5 32
-13 43 -55 8 -27 18 -49 22 -49 5 0 8 -137 7 -305 -1 -250 -4 -305 -15 -305
-8 0 -14 -11 -14 -26 0 -19 4 -25 15 -20 12 4 15 -3 15 -35 0 -22 -4 -38 -9
-34 -5 3 -12 1 -16 -5 -3 -5 1 -10 9 -10 9 0 16 -9 16 -20 0 -13 -5 -17 -14
-14 -11 4 -16 -4 -18 -28 -2 -21 -8 -32 -16 -30 -8 1 -16 -7 -19 -18 -3 -12
-14 -20 -27 -21 -11 0 -30 -4 -41 -8 -19 -8 -18 -9 7 -21 31 -15 92 -5 67 11
-11 7 -10 9 6 10 34 2 50 -2 58 -17 4 -8 15 -14 22 -14 25 0 17 -20 -12 -31
-16 -7 -23 -13 -15 -16 6 -3 12 -14 12 -25 0 -30 32 -92 40 -78 4 7 10 -2 14
-20 3 -18 3 -36 0 -42 -3 -5 1 -17 10 -27 12 -13 35 -116 36 -163 0 -5 5 -7
11 -5 6 1 14 -4 16 -11 5 -12 -90 -110 -219 -227 -146 -133 -222 -201 -242
-218 -11 -10 -43 -40 -71 -65 -27 -26 -97 -90 -155 -141 -58 -51 -141 -126
-184 -165 -44 -39 -103 -91 -130 -116 -28 -25 -71 -64 -96 -86 -25 -23 -61
-55 -80 -70 -19 -16 -53 -45 -75 -66 -85 -78 -87 -79 -103 -66 -13 11 -14 9
-8 -10 7 -20 -2 -34 -61 -91 -69 -68 -132 -125 -262 -241 -120 -106 -427 -385
-456 -415 -11 -11 -38 -35 -60 -54 -22 -19 -85 -75 -140 -126 -55 -51 -113
-104 -130 -118 l-30 -26 5603 -1 5602 0 0 6203 0 6203 -32 31 c-231 216 -651
464 -1022 603 -76 28 -155 62 -175 76 -66 43 -280 97 -438 111 -40 3 -73 9
-73 13 0 18 -31 425 -40 525 -9 104 -20 247 -55 705 -8 107 -20 250 -25 318
-6 67 -15 179 -20 250 -31 387 -40 462 -69 622 -29 157 -81 444 -97 535 -7 44
-29 168 -48 275 -19 107 -48 276 -66 375 -19 110 -45 219 -66 280 -20 55 -57
163 -84 240 -26 77 -62 178 -79 225 -16 47 -48 135 -69 195 -22 61 -53 144
-70 185 -17 41 -51 127 -75 190 -130 331 -192 464 -280 595 -175 261 -364 440
-502 476 -22 5 -65 23 -96 39 -86 45 -233 99 -328 122 -73 16 -129 20 -371 23
-202 2 -317 -1 -395 -11z m-753 -1332 c9 -34 28 -53 28 -28 0 9 7 16 15 16 7
0 18 8 24 17 7 14 23 17 87 16 48 -1 80 -6 82 -13 2 -6 15 -15 29 -21 13 -5
21 -13 18 -19 -4 -6 22 -10 70 -10 42 0 74 -4 71 -9 -6 -10 18 -63 28 -62 25
3 36 0 31 -9 -3 -5 -2 -10 4 -10 5 0 13 5 16 10 9 15 72 12 78 -4 7 -17 53
-26 66 -13 11 11 71 -30 71 -50 0 -7 9 -13 20 -13 11 0 20 -4 20 -9 0 -5 14
-14 30 -20 17 -5 30 -14 30 -19 0 -6 11 -13 25 -16 26 -7 95 -69 95 -86 0 -6
5 -10 11 -10 7 0 17 -7 24 -16 6 -9 22 -17 36 -18 13 -1 23 -7 22 -13 -1 -6
11 -13 28 -17 17 -3 28 -10 24 -16 -3 -5 6 -12 20 -16 14 -3 25 -10 25 -15 0
-5 12 -14 26 -19 19 -8 24 -15 19 -29 -3 -11 -1 -22 5 -26 5 -3 10 1 10 9 0 9
5 16 10 16 6 0 10 -7 10 -15 0 -8 7 -15 15 -15 8 0 15 -5 15 -11 0 -5 4 -8 9
-4 5 3 12 -4 16 -14 3 -11 15 -23 25 -26 11 -4 27 -13 35 -22 9 -8 34 -17 56
-20 22 -3 43 -12 46 -19 3 -8 20 -14 40 -14 20 0 32 -4 28 -10 -3 -6 5 -14 19
-20 14 -5 26 -14 26 -19 0 -5 14 -13 32 -16 18 -4 39 -11 48 -16 8 -4 23 -10
33 -13 10 -3 16 -10 13 -15 -4 -5 7 -12 24 -16 17 -4 27 -11 24 -16 -3 -6 3
-13 15 -16 14 -4 23 -17 27 -41 6 -30 8 -33 14 -17 7 19 7 19 14 -2 4 -12 13
-20 20 -17 9 3 11 -4 8 -24 -2 -17 1 -39 7 -50 7 -14 8 -23 1 -27 -5 -3 -10
-37 -10 -74 l0 -68 -40 -12 c-22 -6 -40 -18 -40 -26 0 -20 -64 -39 -89 -26
-11 6 -31 11 -44 11 -14 0 -27 7 -31 15 -3 8 -17 15 -31 15 -14 0 -25 5 -25
10 0 6 -11 10 -23 10 -13 0 -34 9 -47 20 -13 11 -37 20 -56 20 -18 0 -34 6
-36 13 -4 9 -57 13 -209 15 -214 4 -333 -3 -324 -19 5 -7 -116 -16 -148 -10
-5 1 -11 -8 -14 -19 -3 -11 -14 -20 -24 -20 -11 0 -19 -7 -19 -16 0 -8 -4 -13
-9 -9 -6 3 -13 -11 -17 -32 -4 -21 -12 -41 -18 -45 -6 -4 -11 -30 -11 -58 0
-27 -3 -50 -7 -50 -4 0 -13 -7 -22 -15 -19 -20 -292 -27 -304 -8 -4 6 -20 17
-36 22 l-28 11 5 88 c6 106 -4 188 -21 185 -7 -2 -12 8 -12 23 0 23 -2 24 -15
10 -8 -8 -15 -19 -15 -25 0 -12 -29 -14 -47 -3 -6 4 -13 16 -15 27 -4 24 -22
33 -66 34 -19 1 -31 5 -27 11 6 10 -14 16 -80 24 -22 2 -64 10 -92 16 -45 11
-56 10 -77 -4 -14 -9 -46 -16 -71 -16 -33 0 -45 -4 -45 -15 0 -8 -9 -15 -21
-15 -11 0 -17 5 -14 10 4 6 -8 10 -29 10 -25 0 -36 -4 -36 -15 0 -8 -8 -15
-17 -16 -15 0 -15 -2 2 -9 17 -6 14 -9 -17 -15 -21 -4 -38 -13 -38 -20 0 -7
-13 -12 -32 -11 -31 0 -33 -2 -30 -31 2 -24 -2 -34 -18 -43 -12 -6 -26 -9 -33
-6 -7 2 -4 5 6 5 12 1 17 9 17 29 0 31 24 64 53 75 21 8 22 26 2 33 -12 5 -15
25 -13 103 l2 96 6 -90 6 -90 1 125 c1 77 -2 115 -7 100 -5 -15 -6 -2 -3 35 8
85 15 108 40 133 7 7 13 20 13 28 0 8 6 14 13 14 8 0 20 11 27 25 7 14 17 25
22 25 4 0 8 12 9 28 0 24 1 25 9 7 8 -19 9 -19 9 2 1 12 9 27 19 32 9 6 11 11
5 11 -12 0 20 40 32 40 11 1 55 48 55 60 0 7 7 10 15 6 11 -4 15 2 15 24 0 17
5 30 10 30 6 0 10 7 10 15 0 8 5 25 12 39 10 24 12 24 24 8 12 -16 13 -16 14
3 l1 20 9 -20 c7 -17 9 -17 9 -2 1 9 6 17 11 17 6 0 10 7 10 16 0 9 11 29 25
46 14 16 25 38 25 49 0 12 4 17 11 14 6 -4 13 2 16 14 4 15 13 21 33 21 21 0
29 6 34 23 5 22 61 58 81 53 5 -1 13 -16 17 -34z m-236 -1152 c29 -16 71 -30
93 -32 29 -1 41 -7 44 -20 4 -12 15 -18 36 -18 24 0 31 -4 31 -19 0 -12 8 -21
23 -24 l22 -4 -22 -8 c-13 -4 -23 -14 -23 -21 0 -8 -7 -14 -16 -14 -10 0 -14
6 -10 15 4 10 -1 15 -15 15 -11 0 -22 7 -25 15 -4 9 -19 15 -35 15 -18 0 -29
5 -29 14 0 8 -13 17 -30 21 -16 4 -28 12 -27 18 1 8 -20 13 -65 15 -38 2 -68
7 -68 12 0 6 -9 10 -20 10 -27 0 -25 28 3 33 53 10 82 5 133 -23z m-36 -85 c0
-10 -10 -15 -30 -15 -19 0 -33 -6 -37 -16 -4 -10 -17 -15 -37 -14 -68 4 -86 0
-87 -17 0 -15 -2 -15 -9 2 -8 18 -9 18 -9 2 -1 -10 -9 -21 -18 -24 -10 -4 -23
-14 -30 -22 -11 -14 -12 -14 -13 2 0 9 5 17 10 17 14 0 12 58 -2 62 -9 3 -8 9
2 21 21 23 260 25 260 2z m1634 -30 c8 -8 19 -15 25 -15 6 0 11 -16 11 -36 0
-21 4 -33 10 -29 18 11 23 -26 6 -43 -16 -16 -17 -16 -10 1 5 13 1 17 -20 17
-14 0 -26 4 -26 8 0 5 -41 10 -92 11 -96 2 -112 6 -88 21 10 7 -13 10 -67 10
-67 0 -83 -3 -83 -15 0 -12 -13 -15 -60 -15 -33 0 -69 -5 -79 -12 -15 -9 -25
-9 -45 0 -29 13 -34 39 -11 48 8 4 13 10 10 14 -3 4 24 11 60 15 46 5 65 11
65 21 0 21 372 21 394 -1z m-2048 -220 c4 -8 0 -23 -7 -32 -12 -15 -12 -16 3
-11 11 5 18 0 21 -13 3 -10 18 -24 34 -29 77 -29 82 -33 85 -70 2 -29 9 -38
38 -52 19 -9 40 -22 47 -27 7 -6 43 -11 80 -11 47 0 76 -5 91 -16 24 -17 78
-12 67 6 -4 6 14 10 44 10 55 0 84 8 75 21 -3 5 13 12 36 15 22 4 40 10 40 14
0 10 -48 21 -72 17 -23 -4 -35 -17 -17 -17 11 -1 10 -3 -3 -10 -9 -6 -49 -7
-92 -3 -64 5 -76 9 -76 24 0 10 5 21 10 24 6 3 10 2 10 -3 0 -13 38 -22 58
-14 10 4 17 14 17 21 0 10 11 15 32 15 61 1 38 21 -37 32 l-75 10 148 8 c97 6
147 12 148 20 0 6 3 3 7 -6 6 -16 7 -80 3 -198 -1 -29 -4 -40 -10 -32 -9 15
-21 -38 -21 -95 0 -23 -5 -33 -15 -33 -11 0 -15 -11 -15 -40 0 -29 -4 -40 -15
-40 -8 0 -15 -9 -15 -20 0 -11 -6 -20 -14 -20 -8 0 -17 -15 -20 -35 -4 -20
-10 -33 -15 -31 -8 6 -61 -40 -61 -53 0 -9 -48 -31 -89 -40 -34 -8 -32 -25 2
-29 19 -2 27 1 27 12 0 12 10 16 35 16 19 0 35 5 35 10 0 6 6 10 14 10 7 0 16
9 19 21 3 12 10 18 17 14 7 -4 14 2 17 14 3 12 11 21 18 21 7 0 15 9 18 20 6
23 27 27 27 5 0 -8 7 -15 15 -15 20 0 20 44 -1 61 -14 12 -14 14 5 21 14 5 21
16 21 33 0 26 15 34 23 13 3 -7 6 8 6 34 1 26 5 49 10 53 5 3 13 31 17 63 4
31 12 60 18 64 6 4 12 44 13 95 2 63 6 88 15 88 6 0 15 -11 18 -24 6 -28 30
-41 30 -17 0 9 7 16 15 16 7 0 18 7 23 16 14 25 209 25 227 1 7 -9 17 -17 24
-17 7 0 11 -32 11 -100 0 -55 4 -100 9 -100 5 0 11 -25 13 -56 3 -31 10 -59
17 -63 7 -5 15 -27 18 -49 3 -23 9 -39 13 -37 5 3 13 -9 19 -25 5 -17 14 -30
20 -30 5 0 13 -24 16 -54 4 -33 13 -57 22 -60 8 -3 11 -1 8 4 -3 6 -4 14 0 20
7 11 35 2 35 -12 0 -15 32 -37 53 -38 10 0 17 -8 17 -20 0 -11 7 -20 15 -20 8
0 15 -7 15 -15 0 -17 26 -20 35 -4 7 10 -38 59 -54 59 -5 0 -12 7 -15 16 -3 8
-10 12 -16 9 -5 -3 -10 1 -10 10 0 9 -9 19 -20 22 -14 4 -20 14 -20 34 0 19
-5 29 -15 29 -8 0 -15 9 -15 20 0 11 -6 20 -14 20 -7 0 -16 14 -20 31 -3 16
-13 37 -21 45 -8 9 -15 31 -15 50 0 24 -5 34 -15 34 -13 0 -15 21 -13 147 2
106 6 147 16 151 9 3 12 -21 13 -95 1 -54 4 -109 8 -123 l7 -25 7 28 c5 16 12
25 18 21 8 -4 9 3 5 23 -5 21 -1 35 14 53 21 25 25 47 11 69 -17 27 0 51 40
57 21 4 36 10 33 15 -3 5 7 9 23 9 19 0 24 -3 15 -9 -8 -4 -14 -23 -15 -42
l-2 -34 61 0 c44 0 65 -5 78 -17 21 -22 40 -23 56 -3 7 8 9 15 4 15 -14 0 -11
57 4 72 10 10 14 9 18 -10 4 -12 11 -19 16 -16 5 3 12 -3 15 -14 2 -11 14 -23
26 -26 30 -8 10 -26 -31 -29 -30 -2 -32 -4 -27 -29 4 -14 1 -29 -4 -33 -6 -3
-11 -12 -11 -18 0 -7 5 -4 11 6 8 14 17 17 42 11 18 -4 40 -7 50 -6 9 0 17 -6
17 -14 0 -21 15 -17 34 9 l15 22 20 -22 c19 -23 38 -32 26 -13 -4 6 5 10 20
10 22 0 26 -4 23 -22 -3 -21 -9 -23 -73 -26 -38 -1 -81 -5 -95 -8 -22 -5 -23
-7 -7 -16 24 -13 157 0 181 17 13 10 17 22 14 39 -6 31 17 41 58 26 27 -11 28
-13 12 -24 -27 -20 -22 -26 22 -26 37 0 40 2 41 28 0 23 2 24 8 8 7 -18 8 -18
14 -3 3 9 17 17 30 17 21 0 35 8 85 50 7 6 39 16 71 21 45 8 58 14 54 25 -4
11 -9 12 -19 3 -11 -9 -14 -7 -14 10 0 17 6 21 31 21 22 0 32 5 36 20 3 11 10
17 15 14 5 -3 12 3 15 14 3 13 11 18 19 15 8 -3 14 1 14 11 0 9 7 16 15 16 11
0 13 -8 8 -31 -5 -25 -2 -31 16 -36 20 -5 21 -11 21 -123 0 -92 -3 -122 -15
-134 -9 -9 -15 -33 -15 -61 0 -31 -5 -47 -15 -51 -8 -4 -15 -16 -15 -29 0 -13
-7 -25 -15 -29 -9 -3 -15 -18 -15 -36 0 -19 -5 -30 -14 -30 -7 0 -16 -9 -19
-20 -3 -11 -12 -20 -21 -20 -9 0 -16 -7 -16 -15 0 -8 -7 -15 -15 -15 -8 0 -15
-6 -15 -13 0 -16 -36 -47 -55 -47 -8 0 -15 -7 -15 -15 0 -13 -18 -20 -42 -16
-4 0 -12 -8 -18 -19 -7 -13 -21 -20 -40 -20 -20 0 -30 -5 -30 -15 0 -11 11
-15 40 -15 29 0 40 4 40 15 0 10 10 15 30 15 19 0 30 5 30 14 0 8 14 17 30 21
17 4 30 13 30 21 0 8 9 14 20 14 11 0 20 5 20 10 0 6 6 10 14 10 7 0 16 9 19
21 3 12 10 18 16 14 6 -3 11 2 11 13 0 11 9 22 20 25 14 4 20 14 20 34 0 22 2
25 10 13 7 -11 10 -7 10 17 0 22 6 36 20 43 16 8 20 21 20 60 0 38 4 50 15 50
12 0 15 13 15 58 l1 57 18 -22 c11 -13 24 -23 30 -23 6 0 11 -14 11 -30 0 -23
-6 -33 -25 -42 -14 -6 -25 -15 -25 -20 0 -5 5 -6 10 -3 6 3 10 -1 10 -10 0 -9
-4 -13 -10 -10 -11 7 -14 -9 -11 -70 1 -37 0 -38 -10 -15 -9 23 -11 23 -20 7
-6 -9 -8 -21 -5 -26 10 -16 -6 -41 -26 -41 -22 0 -21 -6 3 -66 7 -18 9 -45 5
-66 -6 -31 -10 -35 -29 -31 l-22 6 23 -22 c21 -20 32 -69 13 -57 -10 6 -21
-40 -21 -86 0 -17 -4 -27 -10 -23 -5 3 -10 22 -10 41 0 54 -18 39 -26 -22 -5
-42 -14 -63 -35 -85 -16 -16 -33 -29 -38 -29 -5 0 -13 -12 -19 -27 -5 -16 -20
-39 -33 -53 -13 -13 -23 -28 -21 -33 1 -4 -5 -10 -13 -13 -8 -4 -15 -12 -15
-20 0 -8 -10 -14 -22 -14 -18 0 -20 -2 -9 -9 11 -7 4 -12 -25 -20 -21 -6 -48
-11 -59 -11 -17 0 -17 -2 -5 -10 18 -12 2 -14 -72 -10 -32 1 -48 -2 -48 -10 0
-9 -13 -11 -45 -7 -54 6 -68 -11 -63 -71 2 -28 -1 -37 -12 -37 -8 0 -14 6 -12
13 1 6 -5 12 -13 12 -8 0 -15 5 -15 10 0 7 -6 7 -19 0 -11 -5 -38 -10 -60 -10
-30 0 -41 -4 -41 -15 0 -8 -7 -15 -15 -15 -10 0 -15 -10 -15 -30 0 -20 -5 -30
-15 -30 -7 0 -18 -8 -24 -17 -9 -16 -30 -18 -233 -18 -123 1 -242 6 -265 11
-34 9 -40 9 -36 -3 3 -9 -3 -13 -21 -13 -16 0 -26 6 -26 15 0 21 -30 19 -31
-2 -1 -16 -2 -16 -6 -2 -3 13 -22 18 -79 24 -56 5 -74 10 -74 22 0 10 -6 13
-16 9 -9 -3 -25 -6 -37 -6 -16 0 -18 -3 -9 -9 22 -13 -22 -21 -128 -21 -102 0
-118 7 -135 59 -3 12 -13 21 -20 21 -8 0 -12 8 -10 20 5 26 -22 40 -78 40 -40
0 -45 -3 -49 -25 -8 -39 2 -74 23 -80 11 -4 17 -11 13 -16 -3 -5 8 -12 25 -15
17 -4 31 -13 31 -20 0 -8 9 -14 20 -14 11 0 20 -6 20 -13 0 -7 14 -18 30 -24
23 -8 30 -18 30 -37 0 -18 4 -24 15 -20 10 4 15 0 15 -10 0 -9 7 -19 15 -22 8
-4 15 -14 15 -25 0 -20 65 -92 93 -102 9 -4 20 -20 23 -36 4 -21 14 -31 33
-37 l26 -7 -25 -7 c-15 -5 -18 -8 -8 -9 14 -1 16 -8 11 -50 l-6 -49 68 -21
c113 -35 255 -25 255 18 0 6 18 11 46 11 43 0 46 2 40 23 -3 12 -6 32 -6 45 0
16 -6 22 -24 22 -27 0 -53 24 -36 35 6 3 8 10 5 15 -3 5 4 11 15 15 11 3 27
13 36 22 11 11 33 15 75 14 62 -1 146 30 134 49 -4 6 0 10 7 10 7 0 22 8 33
16 13 10 15 15 5 13 -8 -2 -26 0 -40 4 -14 3 -39 3 -55 -2 -23 -6 -29 -13 -27
-29 2 -12 -2 -22 -7 -22 -6 0 -11 4 -11 9 0 12 -78 12 -85 0 -4 -5 -20 -9 -38
-9 -28 0 -29 -1 -13 -13 16 -12 12 -14 -35 -25 -61 -14 -83 -4 -56 26 17 18
14 32 -7 32 -12 0 -36 -45 -36 -67 0 -7 -4 -13 -10 -13 -5 0 -10 8 -10 18 0
29 -19 42 -46 32 -20 -8 -24 -6 -24 9 0 20 -47 35 -77 24 -14 -5 -15 -3 -6 7
6 7 56 15 125 20 62 4 126 12 142 19 17 7 90 11 185 12 165 0 213 5 189 20 -8
5 12 9 52 10 70 0 103 9 98 24 -2 6 12 11 30 13 17 2 32 7 32 12 0 4 38 11 85
15 62 5 85 11 85 21 0 8 7 14 16 14 12 0 15 9 13 38 -4 51 3 59 61 67 68 9
108 -1 112 -28 2 -14 11 -23 26 -25 34 -5 31 -66 -6 -100 -45 -42 -74 -179
-57 -264 7 -37 7 -38 -23 -38 -29 0 -31 -3 -38 -45 -5 -38 -12 -49 -37 -62
-42 -21 -64 -51 -71 -95 -5 -31 -10 -37 -34 -40 -19 -2 -28 -9 -30 -26 -2 -13
-11 -26 -20 -29 -55 -18 -73 -31 -89 -65 -10 -21 -23 -38 -28 -38 -13 0 -70
-62 -67 -72 2 -8 -13 -12 -35 -9 -7 1 -13 -3 -13 -9 0 -5 -9 -10 -20 -10 -10
0 -23 -6 -27 -14 -7 -12 -108 -43 -125 -38 -4 1 -15 -9 -25 -22 -13 -16 -32
-24 -67 -28 -30 -4 -52 -12 -58 -22 -5 -9 -18 -16 -29 -16 -11 0 -18 -4 -15
-9 7 -11 -20 -18 -96 -27 -73 -9 -148 2 -148 22 0 10 -12 14 -42 14 -32 0 -39
3 -28 10 11 8 8 9 -11 5 -19 -5 -28 -2 -33 10 -4 11 -13 15 -26 12 -13 -3 -24
1 -30 14 -6 10 -17 19 -25 19 -8 0 -15 5 -15 11 0 5 -4 8 -9 5 -5 -3 -11 1
-15 9 -3 8 -12 15 -21 15 -8 0 -15 6 -15 14 0 8 -13 20 -30 28 -16 7 -30 19
-30 25 0 7 -4 13 -10 13 -5 0 -17 14 -25 30 -9 17 -20 28 -25 25 -6 -4 -10 7
-10 24 0 39 -9 61 -26 61 -8 0 -14 9 -14 20 0 11 -7 20 -15 20 -12 0 -15 13
-15 55 0 42 -3 55 -15 55 -9 0 -15 9 -15 24 0 13 -8 34 -19 47 -10 13 -22 39
-25 57 -5 22 -13 32 -26 32 -20 0 -30 19 -30 56 0 25 -15 33 -23 12 -2 -7 -3
-5 -1 5 2 18 -25 79 -38 85 -5 2 -8 25 -8 52 0 49 -17 80 -44 80 -24 0 -53 35
-60 70 -23 120 -27 162 -15 176 20 24 81 46 93 34 5 -5 22 -10 37 -10 25 0 29
5 37 43 13 65 10 68 -77 65 -83 -2 -101 3 -101 33 0 12 -7 19 -19 19 -11 0
-21 9 -24 21 -4 16 -11 20 -26 16 -12 -3 -21 -1 -21 4 0 4 -7 6 -15 3 -12 -5
-15 2 -15 29 0 41 -19 89 -31 81 -5 -3 -9 21 -9 53 0 40 3 53 10 43 11 -18 17
-12 22 20 2 21 -2 26 -24 28 -16 2 -28 9 -28 18 0 20 76 19 87 -1 7 -12 38
-15 152 -18 130 -2 144 -1 149 15 3 12 16 18 45 20 59 4 61 28 3 28 -36 0 -46
-4 -46 -16 0 -15 -15 -16 -131 -12 -91 3 -133 9 -139 17 -4 7 -28 16 -54 18
-30 4 -46 10 -46 19 0 10 -14 14 -45 14 -33 0 -45 4 -45 15 0 8 -7 15 -15 15
-8 0 -15 7 -15 15 0 8 -6 15 -14 15 -8 0 -17 9 -21 20 -3 11 -12 19 -18 17 -7
-1 -13 12 -15 31 -2 20 -9 32 -18 32 -8 0 -14 9 -14 20 0 11 5 20 11 20 6 0
13 -9 16 -20 3 -11 12 -20 19 -20 8 0 14 -9 14 -20 0 -13 7 -20 20 -20 11 0
20 -7 20 -15 0 -8 7 -15 15 -15 8 0 15 -7 15 -15 0 -8 9 -15 20 -15 11 0 20
-7 20 -15 0 -15 20 -22 20 -7 0 4 3 17 6 30 5 16 2 22 -10 22 -11 0 -16 9 -16
26 0 14 4 23 10 19 6 -3 10 1 10 9 0 9 -4 16 -10 16 -5 0 -9 19 -9 43 1 38 2
39 8 12 6 -28 7 -27 14 19 4 27 7 79 7 115 0 36 3 117 7 179 5 93 9 112 22
113 10 0 12 2 4 6 -20 8 -15 40 7 46 11 3 20 12 20 21 0 20 19 21 26 1z m2318
-1461 c22 -8 20 -31 -4 -46 -14 -9 -20 -24 -20 -51 0 -42 -21 -117 -32 -117
-5 0 -8 -6 -8 -14 0 -8 -14 -24 -30 -36 -17 -12 -27 -26 -24 -32 4 -7 2 -8 -5
-4 -6 4 -14 0 -17 -9 -4 -9 -19 -22 -35 -30 -25 -13 -30 -13 -44 1 -11 12 -14
26 -10 48 6 30 34 96 46 106 8 7 22 43 21 52 -1 4 7 9 17 13 30 9 76 57 73 76
-2 9 7 24 20 33 25 18 29 19 52 10z m-276 -1151 c2 -7 -5 -13 -15 -14 -10 0
-13 -3 -5 -6 6 -2 10 -9 6 -14 -7 -12 2 -11 27 4 17 10 23 10 26 0 3 -7 9 -13
15 -13 6 0 8 7 4 15 -4 11 1 15 18 15 13 0 26 7 30 15 9 24 67 20 73 -5 3 -11
9 -20 13 -20 5 0 6 -9 3 -20 -3 -11 -9 -20 -14 -20 -4 0 -9 -12 -11 -27 -2
-20 -8 -28 -20 -27 -12 1 -18 -5 -18 -21 0 -13 -7 -25 -15 -29 -8 -3 -15 -12
-15 -21 0 -8 -6 -15 -14 -15 -7 0 -16 -15 -20 -32 -5 -26 -9 -30 -16 -18 -8
13 -10 12 -10 -2 0 -10 -9 -27 -20 -38 -11 -11 -20 -24 -20 -30 0 -5 -7 -10
-15 -10 -8 0 -15 -9 -15 -20 0 -11 -4 -20 -10 -20 -5 0 -12 -11 -16 -24 -3
-14 -12 -27 -20 -30 -8 -3 -14 -12 -14 -21 0 -8 -6 -15 -14 -15 -8 0 -17 -11
-20 -25 -4 -14 -11 -23 -16 -20 -6 3 -10 -1 -10 -9 0 -9 -9 -21 -20 -28 -11
-7 -20 -18 -20 -25 0 -7 -7 -13 -15 -13 -8 0 -15 -7 -15 -16 0 -9 -11 -27 -24
-39 -14 -13 -22 -26 -18 -30 4 -4 3 -5 -3 -4 -19 6 -55 -26 -55 -48 0 -14 -6
-23 -15 -23 -8 0 -14 -3 -13 -7 4 -16 -13 -51 -27 -57 -8 -3 -15 -13 -15 -22
0 -10 -5 -14 -15 -10 -11 4 -15 -2 -15 -20 0 -14 -4 -23 -9 -20 -4 3 -19 -17
-32 -44 -13 -27 -30 -49 -37 -50 -17 0 -12 -52 6 -58 6 -2 12 3 12 11 0 23 33
77 48 77 6 0 12 9 12 20 0 13 5 18 15 14 10 -4 15 0 15 10 0 9 10 20 23 25 12
5 21 11 20 15 -8 19 -1 46 12 46 8 0 15 6 15 14 0 7 9 16 20 19 13 3 18 10 14
21 -4 12 0 16 15 16 12 0 21 5 21 10 0 6 7 10 15 10 8 0 15 9 15 20 0 11 9 28
19 37 11 9 17 22 14 29 -3 9 2 14 15 14 11 0 23 7 26 16 3 8 10 13 15 9 5 -3
12 4 16 15 3 11 13 20 21 20 8 0 14 7 14 15 0 8 5 15 10 15 11 0 13 -11 4 -34
-3 -8 -12 -12 -19 -10 -10 4 -12 -1 -8 -15 3 -13 0 -23 -10 -27 -9 -3 -13 -12
-11 -19 3 -7 -4 -16 -15 -20 -12 -3 -21 -13 -21 -21 0 -8 -6 -14 -14 -14 -9 0
-16 -17 -21 -47 -9 -61 -13 -67 -31 -48 -9 8 -20 13 -25 10 -15 -10 -10 -57 8
-77 20 -22 43 -24 43 -3 0 8 7 15 15 15 9 0 15 9 15 24 0 29 33 65 88 93 41
21 42 21 42 2 0 -10 -7 -19 -15 -19 -8 0 -15 -9 -15 -20 0 -11 -7 -20 -15 -20
-10 0 -15 -10 -16 -27 0 -27 -17 -78 -18 -58 -2 22 -21 -22 -21 -48 0 -23 -3
-27 -19 -22 -15 5 -18 1 -13 -21 3 -18 0 -30 -12 -36 -9 -5 -16 -15 -16 -22 0
-8 -7 -16 -15 -20 -8 -3 -14 -9 -13 -13 1 -4 -1 -26 -6 -47 -5 -26 -10 -35
-15 -27 -6 8 -11 -1 -16 -25 -4 -22 -12 -42 -18 -46 -6 -3 -12 -17 -14 -30 -2
-13 -11 -28 -19 -35 -13 -9 -16 -24 -12 -68 4 -48 2 -55 -14 -55 -15 0 -18 -8
-18 -45 0 -30 -5 -47 -14 -51 -8 -3 -17 -28 -21 -60 -3 -30 -10 -52 -15 -49
-12 7 -20 -21 -20 -70 0 -29 -5 -45 -15 -49 -11 -4 -15 -23 -15 -81 0 -41 -4
-75 -10 -75 -10 0 -15 -26 -25 -124 -5 -40 -10 -55 -16 -45 -5 8 -9 -115 -9
-308 0 -209 -4 -323 -10 -323 -12 0 -13 -77 -1 -84 5 -3 9 -48 10 -100 1 -74
-2 -95 -13 -99 -8 -3 -18 -22 -21 -41 -4 -19 -13 -37 -21 -40 -8 -3 -14 -17
-14 -31 0 -15 -4 -24 -9 -21 -5 3 -11 -3 -14 -14 -3 -11 -12 -20 -20 -20 -8 0
-17 -9 -20 -21 -4 -13 -10 -18 -18 -13 -7 4 -10 3 -6 -3 4 -6 -9 -21 -28 -34
-20 -14 -29 -26 -23 -30 6 -4 -3 -10 -20 -13 -18 -5 -32 -15 -35 -28 -3 -11
-10 -17 -15 -14 -5 3 -12 -3 -15 -14 -3 -11 -1 -20 4 -20 5 0 9 5 9 10 0 15
30 12 30 -2 0 -7 5 -5 11 5 6 9 14 15 20 12 5 -4 14 5 20 19 7 15 23 28 40 31
22 5 29 12 29 30 0 16 7 25 25 29 14 4 23 11 20 16 -3 6 -1 10 4 10 6 0 11
-19 11 -42 0 -32 -3 -39 -10 -28 -9 13 -10 13 -11 0 -1 -8 -3 -19 -4 -25 -2
-5 -3 -20 -4 -32 -1 -13 -7 -23 -16 -23 -8 0 -15 -9 -15 -20 0 -13 -7 -20 -20
-20 -11 0 -20 -7 -20 -15 0 -10 -10 -15 -30 -15 -16 0 -30 -4 -30 -10 0 -5 7
-10 15 -10 10 0 15 -10 15 -30 0 -24 -4 -30 -21 -30 -11 0 -18 4 -15 9 9 13
-5 42 -17 38 -6 -2 -11 -21 -11 -42 -1 -35 -4 -39 -33 -47 -18 -5 -33 -12 -33
-16 0 -4 -13 -13 -30 -20 -21 -10 -30 -21 -30 -38 0 -15 -6 -24 -15 -24 -8 0
-15 7 -15 15 0 8 -9 15 -19 15 -11 0 -23 5 -26 10 -7 11 -35 -12 -35 -29 0 -6
-18 -11 -40 -11 -29 0 -42 -5 -50 -19 -18 -34 -12 -41 40 -41 34 0 49 4 47 12
-1 8 20 15 61 21 34 5 62 13 62 18 0 12 41 11 60 -1 10 -6 11 -10 3 -10 -7 0
-13 -6 -13 -14 0 -16 -21 -26 -53 -26 -18 0 -19 -2 -7 -10 13 -8 11 -11 -7
-16 -34 -9 -29 -34 7 -34 17 0 29 5 27 11 -1 6 9 13 22 15 14 3 32 11 41 19
21 19 30 19 30 0 0 -8 -7 -15 -15 -15 -8 0 -15 -7 -15 -15 0 -8 -7 -15 -15
-15 -8 0 -15 -9 -15 -20 0 -11 7 -20 15 -20 8 0 15 9 15 20 0 13 7 20 19 20
11 0 22 4 26 9 6 11 45 10 45 -1 0 -4 -4 -8 -10 -8 -5 0 -10 -9 -10 -19 0 -13
-8 -21 -22 -23 -19 -2 -22 -8 -20 -33 4 -26 2 -28 -12 -16 -14 12 -16 11 -16
-5 0 -11 3 -29 6 -41 l6 -23 21 26 c17 23 21 24 29 10 10 -18 2 -56 -13 -56
-5 0 -9 -18 -9 -40 0 -22 -6 -43 -13 -47 -8 -4 -16 -16 -20 -25 -5 -13 -1 -18
13 -18 14 0 18 5 13 17 -5 12 -2 15 9 10 10 -3 19 0 22 9 3 8 11 14 17 14 7 0
17 7 24 16 6 9 20 15 30 13 18 -4 18 -6 -5 -27 -22 -20 -22 -22 -4 -23 69 -4
128 1 136 13 5 7 12 18 16 25 4 6 14 13 22 15 14 3 45 47 56 81 4 9 13 17 20
17 8 0 14 7 14 15 0 8 6 15 14 15 8 0 17 14 21 30 4 17 13 30 21 30 8 0 14 9
14 20 0 11 6 20 14 20 8 0 17 14 21 30 13 57 23 30 24 -62 0 -60 -2 -88 -8
-79 -11 18 -19 -9 -23 -79 -2 -30 -7 -44 -15 -43 -9 2 -13 -13 -13 -52 0 -37
-5 -57 -15 -62 -8 -5 -18 -31 -22 -58 -3 -28 -12 -56 -20 -63 -7 -7 -13 -28
-13 -47 0 -20 -6 -35 -15 -39 -10 -3 -15 -19 -15 -46 0 -22 -4 -40 -10 -40 -5
0 -12 -22 -16 -50 -4 -32 -11 -50 -20 -50 -10 0 -14 -16 -14 -60 0 -47 -3 -60
-15 -60 -9 0 -15 -9 -15 -24 0 -14 -7 -32 -16 -41 -9 -8 -18 -33 -21 -55 -4
-25 -11 -40 -19 -40 -10 0 -14 -14 -14 -50 0 -36 -4 -50 -14 -50 -8 0 -15 -16
-19 -41 -3 -23 -10 -45 -15 -48 -5 -3 -13 -22 -17 -41 -4 -19 -14 -39 -21 -45
-7 -5 -14 -30 -16 -55 -2 -29 -7 -44 -15 -43 -9 2 -13 -11 -13 -42 0 -31 -4
-45 -14 -45 -8 0 -16 -16 -20 -42 -4 -23 -12 -45 -18 -49 -6 -4 -13 -30 -16
-58 -2 -29 -9 -49 -16 -48 -6 1 -12 -13 -14 -31 -2 -18 -10 -36 -18 -39 -8 -3
-14 -16 -14 -29 0 -14 -7 -41 -15 -61 -8 -19 -15 -46 -15 -60 0 -13 -7 -26
-15 -29 -10 -4 -15 -20 -15 -44 0 -21 -7 -45 -15 -53 -8 -8 -17 -33 -21 -56
-4 -25 -12 -41 -20 -41 -10 0 -14 -14 -14 -45 0 -33 -4 -45 -15 -45 -11 0 -15
-12 -15 -44 0 -25 -6 -51 -13 -58 -8 -7 -17 -27 -21 -43 -4 -16 -12 -33 -18
-36 -6 -4 -13 -32 -16 -63 -3 -39 -9 -56 -18 -56 -10 0 -14 -13 -14 -39 0 -22
-6 -46 -14 -54 -8 -8 -16 -35 -19 -60 -3 -26 -12 -54 -21 -62 -10 -11 -16 -34
-16 -66 0 -34 -4 -48 -12 -47 -9 2 -14 -16 -16 -59 -2 -44 -7 -63 -16 -63 -9
0 -15 -20 -19 -57 -3 -31 -11 -59 -18 -63 -6 -5 -14 -31 -17 -59 -2 -28 -8
-51 -13 -51 -5 0 -9 -20 -9 -45 0 -31 -5 -47 -15 -51 -8 -3 -17 -26 -21 -50
-4 -28 -11 -44 -20 -44 -10 0 -14 -13 -14 -45 0 -33 -4 -45 -15 -45 -11 0 -15
-12 -15 -45 0 -32 -4 -45 -14 -45 -13 0 -26 -41 -26 -86 0 -13 -5 -23 -11 -22
-7 2 -14 -18 -16 -52 -3 -33 -10 -58 -19 -63 -8 -4 -14 -23 -14 -41 0 -49 -12
-100 -20 -86 -4 6 -10 -16 -13 -50 -4 -34 -14 -68 -22 -76 -10 -10 -15 -35
-15 -70 0 -41 -4 -54 -15 -54 -12 0 -15 -14 -15 -69 0 -50 -4 -70 -14 -74 -9
-4 -16 -30 -21 -76 -4 -39 -11 -69 -15 -66 -9 5 -22 -74 -22 -130 0 -19 -4
-35 -9 -35 -5 0 -9 -33 -9 -74 0 -54 -4 -75 -14 -79 -10 -4 -16 -34 -21 -99
-4 -51 -12 -96 -18 -100 -6 -4 -14 -47 -17 -95 -3 -63 -9 -87 -17 -85 -10 1
-13 -20 -13 -82 0 -62 -4 -89 -15 -100 -8 -8 -15 -23 -15 -34 0 -11 -17 -35
-37 -52 -21 -18 -63 -56 -94 -84 -30 -28 -88 -80 -129 -116 -41 -36 -99 -89
-130 -117 -101 -94 -106 -96 -158 -89 -25 3 -48 10 -52 15 -3 5 -43 12 -90 14
-113 7 -254 27 -260 38 -3 5 -39 12 -80 15 -48 5 -67 10 -55 14 15 6 6 9 -30
14 -98 13 -115 17 -115 25 0 5 -21 11 -46 15 -25 3 -52 13 -60 21 -9 8 -26 15
-40 15 -15 0 -24 6 -24 15 0 8 -6 15 -14 15 -21 0 -26 90 -26 465 0 284 -2
344 -15 361 -12 16 -15 121 -16 724 0 388 -4 694 -8 680 -17 -54 -23 119 -18
433 4 177 7 323 7 325 0 2 5 0 10 -3 7 -4 10 50 10 153 0 125 3 161 14 165 10
4 15 45 20 163 5 104 12 161 19 166 8 5 14 57 18 150 3 79 6 136 7 128 2 -12
4 -12 11 -2 4 8 9 80 10 160 1 114 5 149 16 158 11 8 15 39 16 125 2 116 14
236 19 189 6 -50 18 119 19 268 1 128 3 152 16 152 12 0 15 19 15 115 0 63 -1
116 -2 118 -1 1 5 13 13 27 9 16 16 69 19 153 3 88 9 130 18 136 7 4 15 37 19
74 3 37 9 64 14 62 4 -3 11 16 14 42 10 76 15 94 25 88 6 -4 10 9 10 30 0 19
7 52 15 72 8 19 15 44 15 54 0 11 6 18 13 16 8 -1 13 14 15 46 2 31 8 47 16
47 8 0 16 14 20 31 3 16 13 37 21 45 8 9 15 24 15 35 0 10 7 19 15 19 11 0 15
11 15 36 0 28 3 35 15 30 11 -4 15 2 15 25 0 17 6 32 14 35 8 3 18 19 21 35 4
16 10 27 15 24 8 -5 50 72 50 91 0 12 27 49 53 72 9 9 17 27 17 39 0 14 6 23
15 23 13 0 21 25 16 53 0 4 6 7 14 7 8 0 15 6 15 13 0 23 49 113 78 143 7 7
15 27 18 43 4 17 13 31 20 31 9 0 14 11 14 30 0 20 5 30 15 30 8 0 15 7 15 15
0 8 7 15 15 15 9 0 17 14 21 39 5 30 10 38 22 34 9 -4 13 -2 9 4 -4 6 2 21 12
35 11 13 21 35 23 48 2 14 9 24 16 22 6 -1 12 3 12 9 0 6 9 22 20 36 11 14 20
34 20 44 0 11 7 19 15 19 8 0 15 9 15 21 0 11 4 18 9 15 10 -7 21 16 21 44 0
10 6 25 13 32 13 13 47 106 47 128 0 6 9 20 20 32 11 12 20 32 20 44 0 12 7
24 15 28 8 3 15 16 15 30 0 13 6 26 14 29 7 3 17 22 20 41 4 20 11 34 15 31 5
-2 11 9 15 26 3 16 13 37 21 45 8 9 15 26 15 40 0 14 7 27 15 30 9 4 15 19 15
35 0 16 6 32 14 35 8 3 17 21 20 40 5 26 12 34 29 34 22 0 61 19 42 20 -5 0
-3 6 6 13 9 7 19 30 22 51 3 22 10 42 14 45 18 14 52 71 55 92 2 13 6 29 10
34 3 6 9 28 14 50 4 22 11 43 16 46 5 3 12 30 17 59 5 30 14 56 20 58 6 2 11
20 12 40 0 21 4 46 9 57 l9 20 2 -20 c1 -11 7 12 14 50 7 39 13 59 14 45 1
-20 3 -22 11 -10 8 12 10 10 10 -9 l0 -24 23 21 c13 12 36 22 52 22 29 0 85
42 85 64 1 18 48 66 65 66 11 0 15 12 15 50 0 44 17 90 40 110 4 3 9 13 13 22
6 16 16 17 94 11 136 -10 402 -3 447 12 21 8 45 11 53 8 9 -4 16 2 20 16 3 11
13 21 22 22 31 1 63 9 84 21 12 7 29 13 37 14 8 2 20 10 27 20 7 9 19 14 28
10 9 -3 13 -2 10 4 -3 6 3 10 14 10 11 0 26 6 33 13 16 15 72 37 112 44 20 4
24 8 15 14 -9 6 -2 9 21 9 23 0 30 -3 22 -9 -11 -7 -11 -9 2 -14 18 -7 66 11
66 24 0 5 6 6 14 3 11 -4 16 4 18 33 3 35 5 38 31 35 19 -2 27 1 27 11 0 27
49 34 58 10z m1947 -10061 c22 -97 109 -182 187 -182 15 0 30 -5 34 -12 4 -6
7 -62 6 -122 -2 -103 -9 -143 -52 -306 -30 -114 -217 -417 -322 -523 -18 -18
-45 -46 -60 -62 -37 -40 -76 -75 -84 -75 -20 0 -238 241 -266 294 -9 17 -25
40 -35 52 -53 59 -146 262 -194 422 -7 25 -13 101 -13 184 l-1 141 55 11 c89
18 161 99 173 196 3 19 6 36 6 38 1 1 126 1 278 0 l276 -3 12 -53z m-1888 -80
c35 -12 70 -27 79 -34 67 -54 119 -109 137 -143 16 -32 56 -176 57 -207 0 -5
-72 -8 -160 -8 l-160 0 0 28 c0 38 -42 96 -83 116 -74 35 -176 5 -228 -66 -32
-45 -65 -140 -75 -213 -7 -61 16 -171 47 -217 38 -59 66 -73 143 -73 l68 0 44
50 c24 27 47 64 50 82 l6 33 165 0 164 0 -6 -47 c-9 -63 -34 -143 -46 -143 -5
0 -9 -6 -9 -14 0 -23 -120 -141 -170 -168 -143 -78 -440 -77 -569 2 -61 38
-130 114 -164 183 -28 55 -57 197 -57 276 0 78 28 225 54 282 64 142 176 243
315 285 66 21 93 23 206 20 100 -2 144 -8 192 -24z m-807 6 c0 -2 -9 -57 -21
-123 -11 -66 -24 -158 -30 -205 -9 -79 -44 -291 -69 -420 -6 -30 -23 -88 -37
-128 -22 -61 -35 -81 -81 -122 -70 -63 -124 -81 -267 -87 -200 -9 -285 23
-371 141 -29 39 -29 41 -29 180 l0 141 154 3 153 3 -7 -68 c-5 -38 -7 -79 -7
-93 2 -30 35 -60 66 -60 71 1 87 30 110 205 23 166 92 590 102 623 2 9 45 12
169 12 91 0 165 -1 165 -2z m1650 -22 c0 -12 -13 -104 -30 -202 -59 -356 -80
-491 -95 -604 -8 -63 -20 -143 -26 -177 l-11 -63 -166 0 -165 0 6 78 c4 42 11
100 17 127 21 107 91 547 110 693 11 84 22 157 25 163 4 5 78 9 171 9 l164 0
0 -24z m-1281 -1239 c15 -7 28 -26 34 -46 7 -28 5 -39 -13 -63 -18 -25 -19
-30 -6 -50 7 -13 16 -47 19 -75 l6 -53 -34 0 c-32 0 -35 3 -40 38 -12 73 -20
82 -70 82 l-45 0 0 -60 0 -60 -35 0 -35 0 0 150 0 150 98 0 c57 0 107 -5 121
-13z m481 -6 c0 -13 -8 -21 -22 -23 -30 -4 -37 -38 -9 -38 14 0 21 -6 21 -20
0 -13 -7 -20 -20 -20 -17 0 -20 -8 -22 -92 -3 -91 -3 -92 -28 -92 -25 0 -25 1
-28 92 -2 84 -5 92 -22 92 -13 0 -20 7 -20 20 0 13 7 20 20 20 15 0 20 7 20
24 0 31 34 56 77 56 26 0 33 -4 33 -19z m650 0 c0 -13 -8 -21 -22 -23 -30 -4
-37 -38 -9 -38 14 0 21 -6 21 -20 0 -13 -7 -20 -20 -20 -19 0 -20 -7 -20 -95
0 -93 0 -95 -22 -91 -13 3 -26 5 -30 5 -5 1 -8 41 -8 90 0 80 -2 89 -20 94
-11 3 -20 12 -20 21 0 9 8 16 20 16 12 0 20 7 20 18 0 36 29 62 71 62 32 0 39
-3 39 -19z m-440 -77 c0 -16 -6 -24 -18 -24 -42 0 -57 -25 -62 -102 -5 -71 -6
-73 -32 -76 l-28 -3 0 115 0 116 30 0 c21 0 30 -5 30 -17 0 -14 2 -15 18 -1
38 33 62 30 62 -8z m183 20 c37 -9 47 -37 47 -135 0 -86 -12 -105 -52 -80 -13
8 -24 8 -38 1 -49 -26 -130 7 -130 54 0 32 34 64 77 71 61 11 73 16 73 30 0
22 -37 28 -62 11 -24 -17 -78 -22 -78 -7 0 31 80 75 120 65 8 -1 28 -6 43 -10z
m-636 -5 c15 -5 31 -16 35 -22 4 -7 8 -53 8 -103 l0 -91 -90 -1 c-102 -1 -120
8 -120 63 0 42 24 60 93 70 37 6 47 11 47 26 0 14 -7 19 -29 19 -17 0 -32 -4
-35 -9 -8 -13 -53 -19 -67 -10 -10 6 -9 13 6 30 35 38 96 50 152 28z"/>
<path d="M15096 15589 c-12 -28 -3 -154 12 -151 7 1 12 -8 12 -23 0 -16 6 -25
15 -25 8 0 15 -4 15 -10 0 -5 6 -10 14 -10 17 0 26 -22 26 -65 0 -30 19 -52
43 -47 4 1 7 -5 7 -13 0 -10 10 -15 33 -15 22 0 28 -3 18 -9 -10 -6 -4 -12 23
-21 41 -13 95 -5 103 16 3 8 18 14 34 14 19 0 29 5 29 15 0 8 7 15 15 15 8 0
15 7 15 17 0 9 3 13 6 10 10 -9 46 12 39 24 -4 5 1 9 9 9 8 0 21 6 28 13 7 7
21 16 31 20 9 3 17 13 17 22 0 8 3 14 8 14 27 -5 52 3 52 16 0 8 5 15 11 15
20 0 59 44 59 68 0 13 6 22 15 22 10 0 15 10 15 33 0 48 -14 63 -29 33 -10
-18 -24 -25 -55 -28 -53 -5 -86 1 -86 17 0 7 -7 16 -16 19 -20 8 -94 -11 -94
-24 0 -6 -7 -10 -15 -10 -9 0 -18 -7 -21 -15 -6 -14 -41 -31 -56 -27 -5 1 -8
-5 -8 -13 0 -8 -7 -15 -15 -15 -8 0 -15 -4 -15 -10 0 -5 -8 -10 -17 -10 -10 0
-31 -7 -47 -15 -42 -22 -93 -19 -106 5 -6 11 -15 18 -21 15 -5 -4 -9 1 -9 9 0
8 -6 21 -13 28 -7 7 -16 21 -20 31 -3 9 -12 17 -20 17 -7 0 -18 12 -24 28 -8
21 -12 24 -17 11z"/>
<path d="M17977 3796 c-23 -57 -77 -110 -144 -141 -60 -29 -59 -27 -43 -153
12 -94 38 -175 89 -285 23 -48 41 -90 41 -93 0 -3 18 -29 40 -58 22 -29 40
-58 40 -64 0 -5 3 -12 8 -14 4 -1 18 -16 31 -33 12 -16 46 -54 74 -84 l51 -54
55 61 c123 135 139 157 220 320 50 98 65 140 81 227 12 59 20 129 18 157 -3
50 -5 52 -48 75 -65 34 -114 83 -136 137 l-19 46 -170 0 -170 0 -18 -44z m260
-50 c76 -20 131 -55 164 -104 56 -83 72 -169 48 -257 -12 -42 -60 -117 -94
-147 -35 -31 -122 -58 -186 -58 -101 0 -143 16 -209 79 -51 48 -61 64 -74 117
-20 78 -20 112 0 181 26 89 97 157 199 189 53 17 89 17 152 0z"/>
<path d="M4846 17121 c-3 -5 -5 -573 -3 -1262 l2 -1254 195 0 195 0 0 1260 0
1260 -192 3 c-107 1 -194 -2 -197 -7z"/>
<path d="M7730 16638 c0 -2 -1 -162 -3 -356 l-2 -352 38 0 37 0 0 355 0 355
-35 0 c-19 0 -35 -1 -35 -2z"/>
<path d="M7920 16285 l0 -355 40 0 40 0 0 355 0 355 -40 0 -40 0 0 -355z"/>
<path d="M10940 16499 l0 -142 -22 21 c-80 74 -204 39 -257 -73 -61 -129 -21
-323 76 -369 65 -31 171 -9 189 39 10 25 24 17 24 -15 0 -28 3 -30 35 -30 l36
0 -3 353 -3 352 -37 3 -38 3 0 -142z m-41 -185 c51 -64 54 -217 6 -279 -57
-75 -157 -46 -185 54 -23 82 -5 177 40 223 23 22 37 28 74 28 36 0 48 -5 65
-26z"/>
<path d="M5558 16597 c-100 -28 -172 -105 -205 -216 -24 -83 -15 -230 19 -301
33 -71 87 -124 145 -144 59 -20 173 -21 219 -1 33 14 35 17 29 47 -4 18 -8 34
-10 36 -1 1 -22 -5 -46 -14 -67 -24 -171 -5 -214 40 -66 69 -92 196 -63 314
31 127 136 191 264 163 30 -7 57 -11 59 -9 1 1 6 18 10 35 6 29 4 34 -21 43
-45 18 -136 21 -186 7z"/>
<path d="M9530 16353 c0 -141 -5 -264 -11 -286 -13 -49 -49 -72 -109 -69 -45
2 -48 0 -52 -26 -7 -48 -1 -52 71 -52 86 0 131 27 158 97 16 42 18 79 18 313
l0 265 -37 3 -38 3 0 -248z"/>
<path d="M5936 16400 c-22 -11 -47 -28 -57 -39 -82 -88 -90 -278 -16 -370 42
-52 82 -71 151 -71 72 0 124 31 162 96 22 38 29 63 32 128 5 105 -9 157 -60
212 -60 65 -137 81 -212 44z m110 -60 c47 -17 76 -69 82 -150 8 -120 -40 -200
-120 -200 -124 0 -162 261 -49 337 38 26 46 27 87 13z"/>
<path d="M6438 16399 c-21 -10 -43 -29 -50 -42 -12 -21 -13 -21 -18 13 -4 31
-9 35 -37 38 l-33 3 0 -240 0 -241 40 0 40 0 0 168 0 168 28 32 c38 46 88 53
128 19 l29 -25 5 -184 c4 -138 8 -183 18 -182 6 1 23 2 37 3 l25 1 0 174 c0
220 -15 267 -97 302 -43 19 -71 17 -115 -7z"/>
<path d="M6840 16404 c-44 -19 -71 -55 -77 -104 -10 -76 19 -122 103 -162 70
-33 92 -78 58 -126 -18 -27 -79 -30 -125 -7 -28 15 -30 15 -40 -11 -5 -15 -7
-33 -5 -41 13 -34 133 -45 190 -18 45 21 66 62 66 127 -1 72 -15 93 -96 143
-63 38 -69 45 -72 78 -3 29 2 39 22 52 26 17 77 14 103 -7 9 -7 16 -3 23 18
15 38 7 51 -37 63 -50 14 -71 13 -113 -5z"/>
<path d="M7216 16410 c-37 -12 -82 -55 -109 -105 -18 -33 -21 -58 -22 -140 0
-118 19 -166 87 -215 36 -26 49 -30 108 -30 37 0 81 5 99 11 28 10 32 15 29
43 -2 25 -7 30 -23 27 -61 -11 -130 -12 -154 -1 -34 14 -71 76 -71 119 l0 30
138 3 137 3 3 34 c2 19 -2 55 -8 80 -29 118 -111 171 -214 141z m113 -95 c20
-23 31 -46 31 -65 l0 -30 -100 0 c-94 0 -100 1 -100 21 0 51 56 109 106 109
24 0 40 -9 63 -35z"/>
<path d="M8214 16406 c-121 -55 -166 -280 -81 -407 39 -58 81 -79 157 -79 37
0 81 5 99 11 28 10 32 15 29 43 -2 22 -7 30 -18 27 -8 -2 -44 -6 -80 -8 -56
-4 -69 -2 -93 17 -31 25 -51 60 -62 107 l-6 32 143 3 143 3 3 52 c4 64 -34
152 -80 184 -38 27 -112 34 -154 15z m119 -82 c24 -24 46 -88 35 -100 -3 -3
-50 -3 -105 -2 l-99 3 8 32 c21 82 109 119 161 67z"/>
<path d="M8674 16404 c-17 -8 -37 -26 -44 -40 -18 -33 -27 -30 -26 9 1 29 -2
32 -32 35 l-32 3 0 -240 0 -241 35 0 35 0 0 120 c0 193 25 263 100 279 19 4
34 10 33 14 -2 4 -3 23 -3 42 0 40 -15 44 -66 19z"/>
<path d="M8899 16397 c-79 -42 -109 -109 -109 -242 1 -111 35 -181 108 -219
37 -19 128 -21 184 -4 37 11 39 14 34 42 -8 38 -8 38 -40 26 -40 -15 -113 -12
-146 5 -33 17 -55 53 -65 108 l-7 37 141 0 141 0 0 53 c0 106 -46 187 -118
207 -54 15 -74 13 -123 -13z m124 -67 c22 -17 47 -72 47 -102 0 -5 -48 -8
-106 -8 -118 0 -114 -4 -77 76 24 54 90 70 136 34z"/>
<path d="M10313 16401 c-17 -11 -34 -29 -38 -40 -10 -33 -25 -24 -25 15 0 34
-1 35 -32 32 -27 -2 -33 -7 -32 -25 0 -13 1 -120 2 -238 l2 -215 34 0 34 0 4
153 c3 118 8 159 21 184 20 38 53 63 84 63 21 0 23 5 23 45 0 40 -2 45 -22 45
-13 0 -37 -9 -55 -19z"/>
<path d="M11399 16388 c-65 -50 -93 -114 -93 -218 -1 -105 20 -165 75 -214 34
-31 46 -36 90 -36 56 0 100 19 123 52 15 21 16 13 16 -110 l0 -133 38 3 37 3
3 338 2 338 -37 -3 c-33 -3 -38 -6 -41 -32 l-4 -28 -15 22 c-20 28 -72 50
-117 50 -23 0 -48 -10 -77 -32z m177 -84 c25 -31 34 -66 34 -134 0 -76 -11
-109 -46 -147 -30 -32 -38 -35 -73 -30 -50 6 -74 29 -96 92 -31 86 -2 212 56
243 37 20 100 8 125 -24z"/>
<path d="M12368 16406 c-73 -27 -119 -107 -126 -219 -6 -93 9 -152 51 -202 40
-48 82 -65 159 -64 88 1 112 10 116 39 4 39 -10 53 -42 40 -15 -5 -50 -10 -78
-10 -43 0 -54 4 -83 33 -33 33 -61 105 -47 119 4 4 68 9 142 10 l135 3 -2 61
c-4 150 -105 235 -225 190z m98 -64 c20 -12 54 -76 54 -99 0 -22 -3 -23 -100
-23 -97 0 -100 1 -100 23 0 25 27 70 56 92 20 15 72 20 90 7z"/>
<path d="M7528 16170 l-3 -240 38 0 37 0 0 240 0 240 -35 0 -34 0 -3 -240z"/>
<path d="M9720 16239 c0 -186 8 -230 49 -280 21 -24 36 -32 73 -36 63 -7 90 1
127 39 l31 32 0 -32 c0 -31 2 -32 41 -32 33 0 40 3 35 16 -3 9 -6 117 -6 240
l0 224 -34 0 c-19 0 -36 -6 -39 -13 -3 -8 -6 -83 -6 -167 -2 -171 -11 -203
-64 -225 -51 -21 -83 -9 -107 39 -18 37 -20 62 -20 204 l0 162 -40 0 -40 0 0
-171z"/>
<path d="M10460 16171 l0 -241 38 0 37 0 -2 237 -2 238 -35 3 -36 3 0 -240z"/>
<path d="M11130 16172 l0 -240 35 -4 c29 -3 36 0 41 16 2 12 3 120 2 241 l-3
220 -37 3 -38 3 0 -239z"/>
<path d="M11800 16228 c0 -156 3 -189 19 -224 27 -60 63 -84 125 -84 53 0 84
15 118 55 17 20 17 19 18 -12 0 -32 1 -33 41 -33 33 0 40 3 35 16 -3 9 -6 117
-6 240 l0 225 -37 -3 -38 -3 -6 -175 c-3 -96 -6 -175 -7 -176 -1 -1 -10 -10
-20 -22 -41 -47 -103 -49 -137 -4 -18 24 -21 47 -25 202 l-5 175 -37 3 -38 3
0 -183z"/>
<path d="M6780 15521 c0 -50 -3 -91 -6 -91 -3 0 -19 9 -35 21 -88 62 -188 -57
-160 -191 21 -106 105 -148 171 -85 25 24 30 26 36 12 3 -9 3 -21 -1 -27 -3
-6 3 -10 15 -10 20 0 20 3 18 227 -3 208 -5 228 -20 231 -16 3 -18 -6 -18 -87z
m-35 -108 c54 -53 44 -191 -16 -223 -28 -16 -75 -3 -93 24 -35 54 -27 155 15
197 23 23 72 25 94 2z"/>
<path d="M5596 15478 c-20 -335 -19 -328 -3 -328 21 0 25 27 33 213 3 87 10
155 14 150 4 -4 19 -53 33 -108 53 -207 69 -256 84 -253 15 3 63 142 104 296
12 46 23 81 25 79 2 -2 6 -50 9 -108 12 -232 16 -269 32 -269 14 0 15 22 9
188 -9 235 -10 244 -43 240 -23 -3 -29 -14 -59 -108 -18 -58 -41 -135 -51
-172 -10 -38 -21 -68 -24 -68 -4 0 -12 24 -18 53 -6 28 -28 107 -48 175 -35
117 -37 122 -63 122 l-28 0 -6 -102z"/>
<path d="M7505 15565 c-22 -8 -41 -15 -42 -15 -2 0 -3 -9 -3 -21 0 -16 4 -19
18 -13 9 4 35 9 58 12 56 5 74 -14 74 -83 0 -44 -6 -61 -37 -106 -20 -30 -56
-76 -80 -104 -68 -79 -64 -85 68 -85 100 0 110 2 107 18 -3 14 -16 18 -76 20
-44 2 -72 7 -72 14 0 6 21 36 46 67 83 100 106 171 79 239 -24 58 -76 80 -140
57z"/>
<path d="M7820 15573 c-75 -24 -95 -70 -95 -213 0 -121 17 -175 66 -204 57
-34 125 9 149 92 27 98 1 276 -44 305 -28 19 -57 26 -76 20z m64 -66 c19 -25
21 -42 21 -147 0 -105 -2 -122 -21 -147 -29 -38 -69 -38 -98 0 -39 52 -35 250
6 302 26 33 63 30 92 -8z"/>
<path d="M8060 15564 c-39 -17 -54 -34 -40 -48 7 -7 14 -6 22 2 17 17 93 15
108 -3 7 -8 15 -34 17 -58 7 -60 -24 -115 -129 -233 -62 -68 -56 -74 72 -74
103 0 110 1 110 20 0 18 -7 20 -75 20 -41 0 -75 4 -75 8 0 5 12 22 26 38 14
16 46 59 70 96 36 54 44 75 44 113 0 46 -17 92 -42 112 -24 20 -72 23 -108 7z"/>
<path d="M8358 15548 c-22 -13 -38 -30 -38 -40 0 -22 10 -23 36 -3 10 8 22 15
27 15 4 0 7 -83 7 -185 0 -179 1 -185 20 -185 20 0 20 5 18 207 -3 232 -3 230
-70 191z"/>
<path d="M7188 15539 c-12 -7 -18 -22 -18 -44 0 -28 -4 -35 -20 -35 -26 0 -26
-30 -1 -37 17 -4 20 -18 26 -122 4 -64 12 -124 19 -133 25 -34 86 -33 86 3 0
11 -5 16 -13 13 -7 -2 -21 2 -32 10 -17 12 -20 29 -23 120 l-4 105 39 3 c50 4
53 31 3 38 -33 5 -35 8 -40 47 -4 36 -7 40 -22 32z"/>
<path d="M6053 15455 c-50 -21 -40 -34 21 -28 50 5 55 4 71 -20 26 -40 16 -61
-30 -68 -54 -7 -82 -24 -100 -59 -21 -41 -19 -75 8 -106 31 -35 77 -37 112 -4
l25 23 0 -21 c0 -16 6 -22 21 -22 20 0 20 4 17 131 l-3 131 -33 29 c-36 32
-61 35 -109 14z"/>
<path d="M6365 15445 c-37 -30 -45 -31 -45 -5 0 11 -7 20 -15 20 -13 0 -15
-24 -15 -155 0 -148 1 -155 20 -155 19 0 20 7 20 114 0 106 1 115 25 140 26
28 45 32 75 16 28 -15 40 -65 40 -171 0 -92 1 -99 20 -99 19 0 20 7 20 93 -1
125 -12 176 -45 204 -34 30 -63 29 -100 -2z"/>
<path d="M6928 15457 c-49 -19 -34 -36 25 -30 59 6 77 -5 80 -53 2 -26 -2 -29
-38 -34 -76 -11 -115 -49 -115 -110 1 -77 80 -112 135 -60 l25 23 0 -21 c0
-15 6 -22 20 -22 19 0 20 7 20 118 0 99 -3 122 -20 150 -30 48 -75 62 -132 39z"/>
<path d="M9920 4277 c-41 -39 -122 -115 -180 -167 -57 -52 -141 -128 -185
-169 -81 -76 -93 -86 -295 -271 -63 -58 -144 -132 -180 -166 -36 -33 -96 -89
-135 -124 -94 -85 -382 -350 -441 -405 -6 -5 -55 -50 -110 -100 -87 -80 -351
-322 -380 -350 -11 -10 -143 -130 -274 -250 -36 -32 -67 -61 -70 -65 -3 -3
-54 -50 -115 -105 -60 -55 -139 -127 -175 -161 -36 -33 -90 -83 -120 -110 -30
-27 -86 -79 -125 -115 -38 -36 -92 -86 -120 -110 -27 -24 -81 -74 -120 -111
-38 -36 -90 -83 -115 -105 -24 -21 -72 -64 -105 -95 -34 -31 -71 -66 -84 -77
-13 -11 -73 -67 -135 -124 -61 -57 -133 -123 -161 -148 -27 -24 -81 -74 -120
-110 -150 -142 -212 -199 -235 -219 -14 -12 -70 -63 -125 -113 -55 -51 -156
-144 -225 -207 -69 -63 -147 -136 -175 -161 -27 -26 -69 -62 -92 -81 -73 -58
-73 -58 142 -58 172 0 197 2 213 17 70 66 135 127 187 173 33 29 94 85 136
124 41 39 97 91 125 115 27 25 78 72 114 105 36 34 92 85 125 115 33 30 90 81
126 115 189 176 289 267 339 311 30 26 89 80 131 119 42 39 98 91 125 116 27
25 81 74 119 109 39 36 93 85 120 110 47 42 99 90 260 241 39 36 110 101 159
145 49 44 101 91 116 105 15 14 80 75 146 135 108 101 153 142 233 214 65 59
231 212 291 268 36 34 77 72 90 83 41 35 199 180 272 248 37 35 76 72 87 81
11 10 66 61 123 113 57 52 117 107 133 121 17 14 55 49 85 79 31 29 76 71 100
92 25 22 74 67 110 100 61 57 205 190 365 335 38 35 79 72 89 82 17 16 19 35
20 198 1 100 -1 181 -4 181 -3 0 -39 -33 -80 -73z"/>
<path d="M7245 3163 c-17 -15 -82 -75 -145 -133 -63 -58 -137 -125 -164 -150
-27 -25 -54 -49 -60 -55 -23 -21 -231 -211 -256 -235 -15 -14 -67 -61 -115
-105 -49 -44 -98 -89 -110 -100 -22 -22 -222 -204 -242 -220 -6 -5 -35 -33
-65 -60 -29 -28 -100 -93 -158 -145 -114 -104 -107 -97 -206 -190 -39 -36
-108 -99 -154 -140 -98 -88 -75 -67 -230 -210 -69 -64 -143 -131 -164 -150
-22 -19 -74 -67 -115 -106 -42 -39 -98 -90 -126 -115 -27 -24 -63 -57 -80 -74
-17 -16 -51 -47 -75 -69 -25 -21 -92 -82 -150 -135 -58 -53 -132 -121 -165
-151 -33 -30 -89 -82 -125 -116 -36 -33 -90 -83 -120 -110 -30 -27 -57 -51
-60 -54 -3 -3 -57 -52 -120 -110 -63 -58 -144 -133 -180 -167 l-65 -63 198 0
c174 0 199 2 215 17 10 10 43 40 73 67 30 28 86 79 124 115 39 36 110 102 159
146 49 44 98 90 110 101 12 12 46 43 76 69 30 26 87 78 126 114 39 36 93 86
120 111 27 25 99 90 159 146 61 55 169 154 240 219 72 65 179 164 240 219 60
56 141 130 180 165 38 36 93 85 120 110 28 25 102 93 165 151 63 58 174 159
245 225 131 120 300 274 338 308 11 9 70 63 131 120 117 107 228 209 311 286
28 25 101 92 162 149 61 57 123 112 137 123 14 11 26 26 26 32 0 7 -40 54 -88
105 l-87 93 -30 -28z"/>
<path d="M10796 2355 c-4 -10 -20 -15 -51 -15 -33 0 -45 -4 -45 -15 0 -8 -6
-15 -13 -15 -25 0 -47 -39 -47 -86 0 -45 0 -46 -29 -39 -26 6 -29 4 -34 -27
-2 -18 -3 -36 -1 -40 6 -10 44 3 41 14 -1 6 4 13 11 15 6 3 12 -2 12 -11 0
-11 9 -16 30 -16 20 0 30 5 30 15 0 10 10 15 29 15 21 0 32 6 36 19 4 12 12
18 21 14 11 -4 14 9 14 76 0 63 3 83 15 87 19 8 20 24 1 24 -8 0 -16 -7 -20
-15z"/>
</g>
</svg>
