<?xml version="1.0" standalone="no"?>
<!DOCTYPE svg PUBLIC "-//W3C//DTD SVG 20010904//EN"
 "http://www.w3.org/TR/2001/REC-SVG-20010904/DTD/svg10.dtd">
<svg version="1.0" xmlns="http://www.w3.org/2000/svg"
 width="2048.000000pt" height="2038.000000pt" viewBox="0 0 2048.000000 2038.000000"
 preserveAspectRatio="xMidYMid meet">
<metadata>
Created by potrace 1.16, written by Peter Selinger 2001-2019
</metadata>
<g transform="translate(0.000000,2038.000000) scale(0.100000,-0.100000)"
fill="#000000" stroke="none">
<path d="M0 14178 c0 -3734 4 -6198 9 -6198 5 0 23 19 40 43 16 23 34 46 40
51 43 39 71 72 71 85 0 5 7 11 15 15 8 3 15 15 15 26 0 25 37 28 43 2 2 -9 3
-6 2 7 -4 35 4 51 26 51 12 0 19 7 19 21 0 24 41 99 55 99 6 1 24 19 40 40 17
21 37 39 45 40 8 0 26 24 40 54 17 37 32 57 47 61 14 3 23 13 23 25 0 11 6 20
14 20 7 0 16 8 20 18 7 22 26 49 54 78 12 13 22 32 22 44 0 11 7 20 15 20 8 0
15 3 15 8 0 4 27 36 60 72 33 36 62 73 65 83 4 9 11 17 17 17 6 0 17 8 24 17
7 10 16 15 20 11 4 -5 -1 -17 -11 -28 -18 -20 -17 -20 8 -20 23 0 27 4 27 29
0 16 -6 31 -13 34 -7 3 0 15 21 32 17 15 32 36 32 46 0 11 5 19 10 19 6 0 10
-6 10 -14 0 -8 5 -18 11 -22 7 -4 10 3 9 17 -5 58 1 99 13 99 16 0 67 52 67
68 0 7 6 12 14 12 7 0 21 10 29 22 8 13 31 40 51 61 20 20 36 41 36 45 0 5 11
15 25 22 13 7 32 29 41 49 9 20 30 48 45 62 16 14 29 31 29 37 0 6 11 22 25
36 14 14 25 34 25 46 0 11 6 20 14 20 8 0 27 18 43 40 20 28 35 40 53 40 19 0
22 2 10 10 -12 8 -12 11 3 28 9 10 17 24 17 30 0 12 9 15 45 13 11 0 14 2 8 5
-9 4 -10 11 -3 25 13 23 30 25 30 4 0 -8 5 -15 10 -15 6 0 10 16 8 35 -2 35
11 61 19 38 6 -17 38 -16 53 1 6 8 11 28 10 43 -5 73 0 101 19 106 11 2 32 24
47 48 27 41 71 99 189 244 91 113 120 148 130 159 6 6 22 27 37 48 15 20 34
42 41 50 16 16 304 367 375 456 29 37 63 78 75 92 18 21 66 80 157 194 8 10
22 26 31 36 8 9 22 25 30 37 8 11 33 42 55 69 23 27 125 151 225 275 101 124
201 245 221 270 20 24 79 96 130 159 50 63 97 120 102 126 6 6 25 28 41 49 17
21 47 58 68 83 21 24 71 85 112 136 40 50 120 148 177 218 56 69 159 195 227
280 69 84 133 162 142 173 21 23 83 98 119 142 14 17 57 71 97 120 39 48 113
139 165 202 51 63 145 178 208 256 63 77 125 152 138 165 27 29 27 31 5 56
-19 20 -47 54 -176 213 -43 53 -86 105 -95 116 -9 11 -110 135 -225 275 -114
140 -227 277 -250 304 -23 27 -46 56 -51 64 -8 15 -19 28 -71 87 -15 17 -47
57 -73 90 -25 33 -49 62 -52 65 -3 3 -42 50 -87 105 -115 142 -328 401 -377
459 -22 27 -47 58 -55 70 -8 12 -17 23 -20 26 -7 6 -60 70 -152 185 -35 44
-68 85 -74 91 -5 7 -53 65 -105 129 -52 64 -126 154 -163 199 -37 44 -71 86
-75 91 -4 6 -32 40 -62 76 -30 36 -69 83 -87 105 -17 21 -113 139 -213 262
-100 123 -189 233 -198 244 -9 12 -33 40 -53 62 -19 23 -50 61 -69 86 -19 25
-37 47 -40 50 -5 4 -93 111 -123 150 -25 32 -102 125 -108 130 -3 3 -35 43
-72 90 -37 47 -76 94 -85 105 -10 11 -67 81 -127 155 -60 74 -123 151 -139
171 -68 79 -123 146 -166 200 -25 31 -65 81 -89 111 -23 29 -56 70 -73 90 -16
20 -39 47 -50 60 -11 13 -32 39 -47 58 -14 19 -31 40 -37 45 -6 6 -60 71 -119
145 -60 74 -122 151 -139 171 -48 55 -68 79 -149 180 -41 52 -121 150 -177
219 -56 69 -116 143 -133 165 -18 22 -48 58 -67 80 -20 22 -74 87 -120 145
-46 58 -87 107 -90 110 -5 5 -71 86 -97 119 -10 13 -12 -1308 -13 -6181z"/>
<path d="M3436 19775 c-8 -21 -8 -2323 0 -2363 l7 -32 4531 2 4531 3 0 1200 0
1200 -4531 3 c-4073 2 -4532 0 -4538 -13z m2345 -1053 c26 -139 49 -255 51
-258 3 -2 12 35 21 83 21 115 64 348 72 396 l6 37 84 0 85 0 0 -400 0 -400
-50 0 -50 0 -1 83 c-1 45 -3 129 -5 187 -2 58 -4 157 -5 220 -1 63 -3 104 -5
90 -8 -49 -45 -268 -72 -420 l-27 -155 -52 -3 c-49 -3 -51 -2 -57 25 -3 15
-26 149 -51 298 -25 148 -48 271 -50 274 -3 2 -5 -131 -5 -297 l0 -302 -50 0
-50 0 0 400 0 401 82 -3 82 -3 47 -253z m2757 151 c11 -60 33 -177 48 -260 15
-84 31 -153 35 -153 4 0 10 24 13 53 4 28 24 144 44 257 l38 205 82 3 82 3 0
-401 0 -401 -47 3 -48 3 -5 300 c-6 339 -4 339 -59 -5 -18 -107 -37 -219 -42
-247 l-10 -53 -53 0 -52 0 -51 303 -51 302 -2 -287 c-2 -159 -3 -294 -4 -300
-1 -9 -18 -13 -51 -13 l-50 0 -3 398 -2 397 84 0 84 0 20 -107z m772 -293 l0
-400 -55 0 -55 0 0 400 0 400 55 0 55 0 0 -400z m900 0 l0 -400 -45 0 c-43 0
-45 1 -45 29 0 39 -14 46 -30 16 -7 -13 -31 -33 -52 -44 -69 -34 -135 4 -180
103 -21 46 -23 66 -23 196 0 138 1 148 27 201 33 67 55 88 100 98 48 10 71 4
107 -29 18 -17 34 -30 37 -30 2 0 4 59 4 130 l0 130 50 0 50 0 0 -400z m-3743
183 c13 -9 33 -30 46 -47 21 -29 22 -40 22 -256 1 -155 5 -232 13 -247 18 -32
16 -33 -38 -33 -36 0 -52 4 -55 15 -3 8 -7 22 -10 31 -4 12 -10 10 -30 -11
-32 -36 -90 -55 -128 -44 -69 20 -102 86 -95 192 7 109 28 129 201 188 32 11
37 17 37 44 0 48 -25 75 -69 75 -33 0 -40 -4 -57 -35 -10 -19 -24 -35 -30 -35
-35 0 -74 14 -74 27 0 29 42 109 67 127 48 35 152 40 200 9z m626 -2 c24 -14
77 -102 77 -129 0 -11 -34 -22 -70 -22 -17 0 -30 9 -42 30 -28 50 -108 53
-130 5 -16 -35 7 -57 94 -89 126 -47 158 -86 158 -195 0 -117 -66 -191 -171
-191 -69 0 -98 10 -134 46 -45 45 -73 134 -42 134 6 0 29 3 50 6 31 6 37 4 37
-10 0 -10 13 -31 29 -47 38 -38 82 -39 110 -3 39 49 24 80 -50 104 -68 22
-132 63 -157 101 -21 30 -23 43 -20 110 6 107 41 153 128 169 46 9 98 1 133
-19z m375 18 c31 -6 59 -20 75 -37 25 -26 62 -110 53 -120 -3 -2 -24 -6 -48
-9 -40 -4 -44 -2 -60 26 -37 66 -150 45 -132 -26 3 -12 24 -27 52 -38 174 -71
205 -105 200 -221 -6 -125 -69 -188 -187 -185 -75 1 -127 37 -157 108 -20 47
-18 70 9 77 50 13 72 7 87 -27 29 -62 102 -74 136 -22 24 37 12 71 -33 86
-114 37 -171 77 -193 133 -16 42 -14 126 3 168 18 42 70 85 112 91 17 2 31 5
32 6 1 0 24 -4 51 -10z m487 -12 c63 -32 69 -56 76 -307 4 -124 10 -237 14
-252 7 -28 7 -28 -43 -28 -48 0 -51 1 -57 30 l-7 31 -39 -36 c-33 -29 -47 -35
-84 -35 -60 0 -88 20 -114 80 -23 53 -26 105 -11 160 18 62 48 88 145 123 l90
33 -1 39 c-3 72 -80 90 -119 28 -20 -33 -39 -38 -84 -26 -20 5 -23 10 -18 44
6 43 37 93 70 111 48 26 136 28 182 5z m1695 -5 c63 -40 98 -118 107 -243 l6
-89 -132 0 -131 0 0 -29 c0 -107 99 -163 136 -76 15 37 18 38 77 29 44 -8 46
-19 15 -83 -26 -54 -44 -73 -87 -91 -72 -30 -160 -2 -200 64 -56 91 -67 306
-21 414 49 113 146 157 230 104z m-2915 -287 l0 -290 -50 0 -50 0 -3 280 c-1
154 0 286 3 293 3 9 20 12 52 10 l48 -3 0 -290z m2355 0 l0 -295 -50 0 -50 0
0 295 0 295 50 0 50 0 0 -295z"/>
<path d="M9975 18644 c-33 -35 -49 -118 -40 -207 12 -121 52 -175 110 -149 41
19 65 84 65 178 0 163 -67 252 -135 178z"/>
<path d="M6361 18440 c-57 -22 -74 -45 -68 -92 9 -68 49 -86 101 -44 27 21 30
31 34 90 5 74 4 75 -67 46z"/>
<path d="M7869 18442 c-66 -24 -79 -38 -79 -83 0 -69 54 -100 99 -58 29 27 41
60 41 115 0 49 2 49 -61 26z"/>
<path d="M9538 18653 c-22 -24 -38 -68 -38 -104 l0 -29 73 0 c41 0 76 2 79 5
10 10 -10 87 -29 114 -24 32 -63 38 -85 14z"/>
<path d="M15320 18853 c-96 -17 -172 -65 -338 -215 -26 -23 -50 -32 -116 -44
-458 -80 -791 -443 -948 -1034 -28 -107 -30 -299 -4 -435 9 -49 21 -112 26
-140 21 -125 63 -281 83 -309 26 -39 104 -137 120 -153 7 -6 27 -26 46 -45 19
-18 52 -70 73 -116 22 -45 43 -80 48 -77 7 4 24 -51 21 -68 -1 -5 8 -11 19
-14 13 -3 19 -11 16 -19 -7 -19 4 -44 19 -44 7 0 15 -5 17 -11 2 -5 22 -13 44
-16 41 -5 114 -57 114 -80 0 -5 19 -16 43 -23 23 -7 54 -16 69 -21 27 -8 158
8 168 21 3 4 23 17 45 29 34 19 105 98 105 116 0 4 15 25 34 46 50 59 61 110
46 211 -9 57 -19 89 -32 102 -14 13 -17 21 -8 26 8 5 7 9 -5 14 -11 4 -15 12
-11 22 4 9 1 23 -5 30 -6 8 -8 14 -4 14 4 0 2 7 -5 15 -6 8 -9 19 -5 25 4 6
-1 17 -11 25 -12 8 -21 10 -25 3 -4 -6 -15 -1 -27 12 -21 23 -103 44 -133 35
-9 -3 -82 -9 -161 -14 -99 -6 -154 -14 -176 -25 -17 -9 -42 -16 -56 -16 -31 0
-56 -9 -56 -21 0 -13 -35 -46 -57 -53 -39 -12 -47 7 -51 133 -3 85 -1 121 7
121 7 0 11 27 11 80 0 47 -4 80 -10 80 -6 0 -10 33 -10 80 0 44 4 80 8 80 5 0
7 13 4 29 -2 17 3 49 11 73 9 24 21 64 28 91 8 26 19 47 25 47 7 0 18 25 24
55 7 34 21 65 36 80 13 13 24 31 24 40 0 8 9 24 20 35 12 12 18 25 15 29 -2 5
4 11 15 14 11 3 20 12 20 21 0 10 11 19 29 22 16 3 43 19 60 35 17 15 47 31
67 35 28 5 38 13 46 36 6 15 19 33 29 39 10 5 19 14 19 20 0 16 33 47 64 59
16 6 61 13 100 15 39 3 72 9 74 15 5 14 46 12 127 -5 39 -9 101 -22 139 -29
38 -8 72 -19 76 -26 4 -6 17 -12 30 -13 13 -1 25 -9 27 -17 4 -14 60 -43 85
-45 12 0 21 -15 10 -15 -29 0 -7 -27 39 -49 38 -17 48 -26 38 -32 -12 -8 -12
-11 1 -19 8 -5 22 -10 31 -10 22 0 39 -20 39 -47 0 -17 10 -28 38 -40 24 -12
38 -26 40 -40 3 -22 56 -83 72 -83 4 0 10 -6 13 -14 3 -8 22 -19 41 -26 32
-10 36 -15 36 -46 0 -19 3 -33 8 -32 17 4 99 -16 125 -30 22 -13 27 -24 27
-53 0 -35 -19 -57 -40 -44 -4 3 -13 -1 -19 -9 -7 -8 -19 -12 -29 -9 -21 5
-108 -32 -115 -50 -3 -7 -23 -19 -46 -26 -23 -6 -41 -16 -41 -22 0 -5 -17 -17
-37 -27 -21 -9 -42 -23 -46 -29 -4 -7 -12 -13 -18 -13 -5 0 -51 -20 -101 -45
-51 -25 -99 -45 -108 -45 -8 0 -20 -8 -26 -17 -6 -10 -33 -24 -60 -31 -27 -8
-55 -16 -62 -18 -7 -2 -15 -12 -18 -21 -12 -41 -90 -186 -101 -190 -7 -3 -13
-12 -13 -21 0 -9 -9 -26 -21 -38 l-21 -22 21 -7 c12 -3 21 -11 21 -17 0 -7 19
-8 55 -3 45 5 56 4 61 -9 3 -9 14 -16 23 -16 20 -1 66 -26 66 -37 1 -8 4 -20
27 -95 15 -52 65 -73 208 -89 63 -6 118 -17 122 -23 7 -11 186 -15 282 -6 50
4 50 4 59 -29 4 -19 19 -48 32 -65 13 -17 31 -58 40 -91 9 -33 23 -72 30 -87
24 -42 16 -148 -11 -148 -7 0 -19 -10 -25 -22 -16 -30 -28 -38 -61 -38 -24 0
-28 -4 -28 -30 0 -25 4 -30 23 -30 21 0 53 -26 71 -57 12 -23 -15 -63 -44 -63
-31 0 -56 -37 -47 -70 8 -32 -29 -68 -78 -75 -22 -3 -92 -12 -155 -20 -127
-16 -153 -22 -222 -54 -26 -13 -57 -21 -70 -19 -22 4 -22 5 7 18 29 14 75 58
75 72 0 3 17 17 38 29 20 13 41 29 46 37 4 8 24 29 43 47 61 58 93 128 98 217
4 66 4 67 -28 90 -17 12 -40 21 -49 20 -10 -2 -21 4 -24 12 -3 9 -12 16 -20
16 -15 0 -11 -36 7 -72 15 -29 10 -54 -17 -79 -30 -28 -114 -35 -181 -13 -36
11 -48 11 -90 -3 -45 -15 -98 -51 -89 -61 3 -2 -6 -16 -20 -30 -16 -18 -22
-33 -18 -46 6 -18 2 -19 -54 -13 -45 5 -61 3 -65 -7 -6 -14 82 -135 99 -136 6
0 23 -13 37 -30 19 -20 37 -30 56 -30 17 0 33 -4 36 -10 3 -5 22 -10 41 -10
42 0 47 -27 7 -35 -44 -10 -90 -32 -175 -87 -76 -49 -82 -51 -121 -42 -23 5
-50 8 -59 6 -20 -4 -25 -32 -6 -32 9 0 9 -3 0 -12 -14 -14 -16 -64 -2 -73 5
-3 6 -13 3 -21 -5 -13 2 -14 43 -11 27 3 60 8 74 11 19 5 45 -5 110 -44 47
-27 88 -50 92 -50 5 0 8 -7 8 -15 0 -8 9 -15 19 -15 11 0 26 -7 35 -15 8 -8
19 -15 25 -15 20 0 61 -24 61 -35 0 -29 213 -29 270 0 33 16 114 37 168 43 23
2 42 8 42 13 0 15 124 11 146 -6 26 -20 94 -20 94 0 0 30 16 14 27 -27 12 -45
6 -64 -58 -163 -33 -51 -46 -61 -89 -69 -47 -9 -122 -46 -138 -68 -7 -10 -19
-18 -27 -18 -8 0 -19 -9 -25 -20 -6 -11 -21 -20 -34 -20 -13 0 -27 -7 -30 -15
-3 -9 -11 -15 -18 -14 -28 3 -48 -2 -45 -12 1 -6 -8 -15 -20 -20 -18 -6 -23
-5 -23 6 0 8 -2 15 -4 15 -13 0 -72 -25 -78 -33 -3 -6 -41 -11 -83 -13 -80 -3
-117 7 -146 42 -15 18 -155 124 -165 124 -3 0 -32 21 -65 48 -33 26 -74 57
-92 70 -18 12 -58 45 -89 72 -31 28 -59 50 -62 50 -9 0 -193 186 -222 225 -16
22 -47 69 -69 105 -46 76 -43 73 -92 128 -32 38 -38 42 -44 25 -5 -12 -8 -4
-8 24 -1 24 -10 58 -23 80 -13 20 -31 60 -40 88 l-17 50 0 -41 c-1 -35 54
-246 119 -454 11 -36 24 -86 29 -110 5 -25 17 -71 26 -103 13 -48 14 -62 3
-84 -21 -43 -69 -64 -156 -70 l-77 -6 -60 -100 c-33 -55 -66 -117 -72 -136 -7
-20 -17 -43 -22 -51 -4 -9 -12 -36 -16 -60 -4 -25 -13 -52 -20 -60 -12 -13
-35 -82 -35 -103 0 -4 9 -3 19 3 27 14 31 13 31 -8 0 -26 -30 -64 -46 -58 -8
3 -14 -1 -14 -8 0 -7 -9 -21 -20 -31 -25 -23 -26 -51 -1 -65 39 -20 246 -6
291 21 8 5 39 20 68 35 28 14 52 30 52 35 0 5 7 9 15 9 21 0 55 -75 55 -122 0
-21 3 -38 8 -38 4 0 31 18 60 40 64 48 99 55 190 41 39 -6 84 -8 101 -5 34 7
78 56 100 111 7 18 22 43 33 55 11 13 29 36 41 52 12 15 47 55 78 88 61 64 93
73 114 33 5 -11 28 -46 50 -78 22 -32 45 -66 50 -77 30 -51 73 -109 107 -141
21 -19 38 -39 38 -43 0 -14 159 -165 190 -181 16 -8 35 -23 42 -33 18 -25 97
-86 103 -80 3 3 -6 17 -19 31 -18 20 -21 27 -10 31 8 3 14 2 14 -3 0 -4 14 -6
30 -3 21 3 37 -2 51 -14 16 -14 49 -20 165 -29 96 -7 148 -15 153 -23 6 -11
21 -10 75 2 37 9 79 16 94 16 37 0 113 30 152 60 17 14 51 35 73 47 23 12 49
28 57 35 8 7 44 32 80 55 36 23 72 48 80 55 8 8 42 31 75 52 33 22 65 44 70
50 6 6 46 41 90 76 44 36 81 68 83 72 2 4 42 40 90 79 48 40 111 98 139 128
29 31 66 70 82 86 16 17 32 40 36 53 7 23 19 27 69 23 36 -3 42 -9 108 -107
74 -109 121 -208 124 -257 2 -23 3 -45 3 -49 1 -5 23 -8 49 -8 27 0 71 -7 98
-15 27 -8 64 -15 83 -15 27 0 32 3 26 18 -3 9 -18 64 -31 122 -78 327 -75 319
-155 479 -72 144 -81 157 -117 174 -21 9 -61 41 -89 70 -49 51 -150 183 -170
222 -6 11 -12 76 -13 145 -1 69 -3 205 -5 304 l-4 178 -45 67 c-24 36 -61 90
-82 118 -33 47 -36 55 -25 76 9 16 9 30 2 50 -13 33 -26 34 -42 5 -7 -13 -20
-30 -31 -39 -10 -9 -18 -22 -18 -28 0 -8 -9 -10 -22 -7 -13 3 -17 3 -10 0 18
-9 15 -21 -8 -27 -16 -4 -24 2 -35 30 -25 60 14 99 51 51 l16 -23 -6 30 c-6
27 -5 28 8 12 20 -26 47 -12 36 18 -7 18 -6 23 3 20 7 -3 19 -1 27 5 12 7 12
12 2 22 -6 6 -12 19 -12 28 0 9 -5 21 -11 27 -11 11 -18 10 -66 -16 -21 -10
-23 -9 -23 14 0 14 6 25 13 25 7 0 17 10 22 23 12 28 85 39 85 13 0 -9 -5 -16
-11 -16 -7 0 0 -12 14 -26 47 -47 67 -7 73 146 2 58 8 129 14 159 5 29 10 94
10 142 0 81 2 89 19 89 24 0 51 10 51 19 0 4 -9 7 -20 7 -11 0 -20 -5 -20 -10
0 -5 -3 -6 -6 -3 -4 3 -15 2 -26 -4 -25 -14 -32 -6 -19 19 8 15 8 22 -2 25 -6
3 4 6 24 6 54 1 79 31 79 94 0 33 -7 66 -20 90 -16 30 -19 48 -14 90 4 37 1
72 -10 109 -9 31 -16 70 -16 87 0 17 -6 45 -14 63 -8 18 -23 63 -35 99 -56
184 -207 438 -379 637 -104 121 -338 287 -571 406 -218 111 -353 143 -636 148
-129 3 -147 1 -238 -26 -93 -27 -99 -28 -117 -11 -40 36 -128 52 -210 38z
m840 -3412 c0 -5 -8 -12 -17 -14 -13 -3 -12 -5 5 -6 28 -1 61 -68 62 -123 0
-33 -3 -38 -22 -38 -17 0 -28 -11 -41 -38 -10 -20 -30 -45 -44 -56 -21 -15
-27 -16 -38 -5 -17 18 -22 106 -7 142 7 16 12 32 12 37 0 5 7 7 16 3 10 -4 14
-1 13 8 -2 8 2 24 9 37 7 12 10 27 7 32 -3 6 -3 15 0 20 8 13 45 13 45 1z"/>
<path d="M4870 15790 l0 -1260 195 0 195 0 0 1260 0 1260 -195 0 -195 0 0
-1260z"/>
<path d="M5551 16517 c-55 -18 -134 -104 -162 -178 -30 -80 -33 -223 -7 -310
46 -148 178 -225 327 -189 59 14 71 26 64 63 -5 27 -7 28 -47 20 -22 -4 -64
-8 -93 -8 -67 0 -126 40 -162 110 -23 45 -26 61 -26 155 1 94 4 110 28 157 48
92 153 136 252 103 20 -7 38 -10 40 -8 1 1 6 18 10 36 6 30 4 33 -29 47 -41
17 -145 18 -195 2z"/>
<path d="M11415 16506 c-115 -53 -175 -169 -175 -337 0 -145 57 -260 154 -312
33 -18 56 -22 121 -21 44 1 93 6 108 13 24 9 28 16 25 43 -3 30 -6 33 -33 30
-16 -1 -60 -4 -97 -5 -60 -2 -70 1 -105 29 -58 46 -87 113 -91 211 -5 104 16
180 64 233 53 59 91 67 233 48 22 -3 25 1 28 33 4 34 1 38 -28 48 -55 19 -148
13 -204 -13z"/>
<path d="M13343 16463 c-24 -5 -31 -21 -35 -88 -3 -35 -6 -40 -28 -40 -22 0
-25 -5 -28 -38 -3 -35 -2 -37 26 -37 l30 0 4 -172 c3 -151 6 -177 23 -207 23
-40 61 -56 111 -47 31 6 34 10 34 41 0 32 -3 35 -29 35 -53 0 -61 25 -61 197
l0 153 51 0 50 0 -3 37 c-3 36 -4 37 -48 37 l-45 1 -3 68 c-2 45 -7 67 -15 66
-7 -1 -22 -4 -34 -6z"/>
<path d="M5935 16321 c-80 -36 -120 -128 -113 -261 3 -76 8 -95 34 -137 40
-66 103 -98 173 -88 135 18 210 204 151 372 -24 67 -42 90 -95 114 -51 23 -99
24 -150 0z m140 -81 c32 -30 49 -98 43 -179 -6 -81 -28 -124 -77 -147 -33 -16
-37 -16 -71 2 -52 28 -75 82 -75 174 0 118 47 185 124 175 19 -2 44 -14 56
-25z"/>
<path d="M6424 16330 c-12 -4 -30 -20 -42 -34 -26 -34 -32 -33 -32 4 0 28 -3
30 -36 30 -33 0 -36 -2 -30 -22 3 -13 6 -123 6 -245 l0 -223 35 0 35 0 0 162
c0 144 2 167 21 205 22 46 49 60 94 49 43 -11 50 -39 55 -231 l5 -180 33 -3
32 -3 0 140 c0 144 11 222 35 254 7 10 31 21 52 24 32 4 42 1 63 -22 24 -26
25 -30 28 -211 l4 -184 34 0 34 0 0 188 c0 181 -1 190 -25 238 -15 29 -36 56
-51 62 -55 26 -123 7 -163 -44 -21 -26 -22 -27 -36 -8 -8 10 -15 22 -15 26 0
13 -58 38 -87 37 -15 0 -38 -4 -49 -9z"/>
<path d="M7070 16304 l-40 -36 0 31 c0 28 -3 31 -33 31 l-32 0 3 -242 3 -243
34 -3 35 -3 0 166 c0 104 4 175 11 188 36 69 88 86 130 41 23 -25 24 -31 27
-210 l4 -184 34 0 34 0 0 159 c0 89 5 172 11 188 17 45 49 73 84 73 66 0 85
-63 85 -281 l0 -139 36 0 36 0 -4 198 c-3 187 -4 199 -27 235 -34 55 -62 71
-118 64 -38 -4 -54 -12 -81 -42 l-34 -37 -35 41 c-31 37 -39 41 -79 41 -36 0
-51 -6 -84 -36z"/>
<path d="M7878 16325 c-68 -37 -90 -147 -43 -209 13 -18 47 -43 74 -56 84 -39
103 -122 35 -152 -21 -10 -35 -9 -74 5 -26 9 -50 17 -53 17 -3 0 -9 -14 -12
-32 -9 -39 8 -54 72 -64 59 -9 112 8 148 46 27 29 30 38 30 100 0 59 -3 72
-25 95 -14 15 -43 36 -65 47 -84 42 -106 87 -64 129 17 17 28 20 57 15 74 -12
75 -12 83 17 6 24 3 29 -21 42 -36 19 -107 19 -142 0z"/>
<path d="M8194 16321 c-58 -35 -80 -121 -47 -184 19 -38 32 -49 95 -82 73 -39
91 -96 42 -134 -32 -25 -51 -26 -104 -5 -23 9 -43 14 -45 12 -3 -2 -8 -18 -11
-35 -5 -28 -3 -31 35 -47 53 -21 96 -20 147 3 54 25 78 74 72 148 -5 60 -32
97 -96 129 -59 30 -72 44 -72 80 0 58 40 77 109 53 37 -13 36 -13 45 23 5 23
2 30 -23 43 -41 21 -109 19 -147 -4z"/>
<path d="M8510 16321 c-28 -15 -35 -24 -33 -46 3 -37 4 -38 46 -20 54 22 94
19 123 -10 19 -19 24 -34 22 -58 -3 -31 -5 -32 -54 -38 -59 -7 -120 -39 -148
-75 -27 -37 -32 -130 -9 -174 38 -73 127 -89 192 -34 l30 25 3 -23 c2 -18 10
-24 36 -26 l34 -3 -4 193 c-3 215 -13 253 -72 289 -41 25 -120 25 -166 0z
m165 -288 c-1 -61 -19 -99 -57 -119 -36 -19 -50 -18 -76 6 -26 24 -30 94 -7
123 17 23 81 47 115 44 23 -2 25 -6 25 -54z"/>
<path d="M9149 16300 l-39 -41 0 36 c0 34 -1 35 -36 35 -29 0 -35 -3 -30 -16
3 -9 6 -119 6 -245 l0 -229 35 0 35 0 0 148 c1 195 23 257 94 264 29 3 31 5
31 43 0 36 -2 40 -28 43 -23 3 -37 -5 -68 -38z"/>
<path d="M9392 16323 c-76 -37 -117 -137 -110 -266 3 -63 10 -93 29 -127 45
-83 132 -116 232 -89 50 14 52 16 52 49 0 38 -1 38 -70 21 -85 -22 -163 32
-168 115 l-2 39 132 0 c80 0 134 4 137 10 2 6 -1 41 -5 79 -9 75 -42 143 -83
170 -32 20 -101 20 -144 -1z m115 -68 c21 -15 43 -70 43 -107 0 -16 -11 -18
-94 -18 -52 0 -97 4 -100 9 -10 15 13 74 41 103 31 32 75 37 110 13z"/>
<path d="M9914 16321 c-36 -16 -41 -22 -37 -45 6 -32 19 -41 37 -27 7 6 33 14
58 17 37 5 49 3 72 -18 19 -16 28 -34 29 -58 l2 -34 -57 -8 c-118 -15 -170
-69 -171 -178 0 -62 17 -96 65 -124 39 -24 80 -19 129 14 l44 29 3 -24 c3 -21
9 -25 36 -25 l33 0 -3 138 c-8 278 -12 299 -63 337 -37 28 -125 31 -177 6z
m164 -297 c-4 -60 -7 -70 -36 -95 -40 -35 -65 -37 -97 -4 -30 29 -33 83 -7
114 18 23 82 50 121 51 23 0 23 -2 19 -66z"/>
<path d="M11811 16322 c-158 -80 -159 -396 -1 -474 155 -76 304 104 261 314
-30 142 -150 217 -260 160z m125 -70 c42 -36 59 -82 59 -167 0 -94 -20 -139
-75 -168 -44 -24 -77 -13 -117 39 -26 35 -28 44 -28 128 0 77 4 97 22 127 36
58 97 75 139 41z"/>
<path d="M12296 16328 c-11 -6 -30 -23 -42 -37 l-23 -26 -1 33 c0 30 -2 32
-34 32 l-34 0 2 -242 1 -243 38 -3 37 -3 0 166 c0 134 3 174 16 201 30 62 90
72 128 21 19 -26 21 -43 23 -205 l3 -177 35 -3 35 -3 0 161 c0 169 7 207 48
243 13 12 32 17 54 15 56 -5 66 -42 70 -243 l3 -170 38 -3 37 -3 0 171 c0 201
-9 249 -58 297 -33 33 -38 35 -85 30 -43 -4 -56 -10 -85 -42 l-34 -37 -35 41
c-30 36 -40 41 -76 41 -23 0 -51 -6 -61 -12z"/>
<path d="M12974 16321 c-18 -10 -39 -30 -48 -42 -16 -23 -16 -23 -16 14 0 36
-1 37 -35 37 l-35 0 2 -342 3 -343 35 0 35 0 2 115 c1 63 2 119 2 124 1 6 10
0 21 -11 26 -29 84 -46 126 -38 44 8 97 55 122 108 55 115 25 312 -56 371 -38
29 -119 32 -158 7z m120 -87 c41 -42 58 -155 36 -236 -14 -49 -61 -88 -107
-88 -28 0 -43 8 -70 37 l-35 36 4 103 c3 117 19 150 78 170 41 14 63 9 94 -22z"/>
<path d="M13640 16320 c-118 -70 -144 -313 -48 -431 41 -50 131 -71 209 -49
45 13 60 29 52 58 -5 21 -9 22 -52 15 -70 -11 -112 -5 -139 20 -29 26 -52 76
-52 112 l0 26 133 -1 132 -2 -1 69 c0 77 -27 145 -72 177 -39 29 -118 32 -162
6z m122 -64 c21 -15 51 -94 44 -113 -4 -9 -33 -13 -105 -13 l-100 0 8 28 c13
44 39 90 58 101 25 14 75 13 95 -3z"/>
<path d="M14014 16321 c-58 -35 -83 -138 -47 -191 25 -36 33 -43 82 -71 62
-34 86 -69 74 -105 -5 -16 -22 -36 -36 -44 -24 -13 -32 -13 -78 3 -28 10 -53
17 -55 15 -2 -3 -7 -18 -10 -36 -6 -28 -3 -32 32 -47 26 -11 54 -15 84 -12
101 12 135 50 135 149 0 77 -18 103 -97 144 -75 38 -97 85 -58 124 24 24 60
26 100 5 17 -9 30 -14 30 -13 0 2 4 18 10 36 9 32 7 34 -25 48 -47 19 -104 18
-141 -5z"/>
<path d="M7640 16084 l0 -245 33 3 32 3 3 243 2 242 -35 0 -35 0 0 -246z"/>
<path d="M8860 16085 l0 -245 35 0 35 0 0 245 0 245 -35 0 -35 0 0 -245z"/>
<path d="M10270 16166 c0 -196 10 -252 51 -294 43 -44 91 -51 145 -22 24 12
45 28 48 36 10 25 26 15 26 -16 0 -27 3 -30 30 -30 l30 0 0 245 0 245 -34 0
-34 0 -4 -167 c-4 -182 -11 -208 -58 -236 -39 -24 -63 -21 -91 9 -23 25 -24
32 -29 207 l-5 182 -37 3 -38 3 0 -165z"/>
<path d="M10670 16318 c0 -8 4 -18 9 -23 13 -15 111 -194 111 -204 0 -5 -29
-61 -65 -125 -36 -64 -65 -119 -65 -122 0 -3 18 -4 41 -2 41 3 41 4 86 91 25
48 48 87 51 87 4 0 27 -41 52 -90 44 -90 45 -90 82 -90 22 0 38 5 38 12 0 6
-15 39 -34 72 -18 34 -45 83 -60 109 -14 26 -26 54 -26 62 0 7 25 57 55 109
76 131 75 126 26 126 l-41 0 -42 -85 c-23 -47 -45 -85 -48 -85 -3 0 -24 38
-46 83 -41 81 -42 82 -83 85 -29 2 -41 -1 -41 -10z"/>
<path d="M6739 15468 c-1 -29 -1 -57 0 -62 1 -5 -1 -21 -4 -36 l-6 -27 -39 19
c-39 20 -41 20 -71 1 -47 -27 -69 -76 -69 -151 0 -80 20 -125 66 -147 31 -15
37 -15 69 1 19 9 35 20 35 25 0 5 5 9 10 9 6 0 10 -9 10 -21 0 -14 5 -19 18
-17 9 2 16 11 16 21 -1 9 -2 112 -3 227 -1 179 -3 210 -16 210 -11 0 -15 -13
-16 -52z m-39 -141 c54 -43 51 -186 -4 -223 -49 -31 -98 3 -111 79 -20 104 52
195 115 144z"/>
<path d="M5606 15313 c-4 -98 -9 -195 -12 -215 -5 -30 -2 -38 10 -38 8 0 17 3
19 8 3 4 8 81 12 172 4 91 9 169 12 174 3 5 14 -24 25 -65 42 -166 81 -289 92
-289 12 0 34 66 81 240 14 52 29 104 32 115 l6 20 7 -20 c4 -11 8 -85 9 -165
2 -176 3 -184 25 -188 17 -4 18 7 12 160 -10 249 -13 268 -41 268 -20 0 -26
-10 -48 -82 -14 -46 -37 -125 -51 -177 -14 -51 -27 -95 -29 -97 -2 -2 -9 22
-16 53 -7 32 -23 94 -36 138 -13 44 -29 99 -35 123 -9 37 -14 42 -39 42 l-29
0 -6 -177z"/>
<path d="M7973 15470 c-24 -10 -43 -23 -43 -29 0 -16 21 -24 33 -12 6 6 28 11
48 11 46 0 69 -27 69 -83 0 -52 -18 -88 -95 -185 -36 -45 -65 -89 -65 -97 0
-12 18 -15 105 -15 98 0 105 1 105 20 0 18 -7 20 -68 20 -38 0 -71 3 -75 6 -3
4 16 34 43 67 61 75 82 118 88 178 6 59 -18 106 -63 125 -41 17 -31 18 -82 -6z"/>
<path d="M7423 15468 c-15 -7 -23 -20 -23 -36 0 -24 1 -24 18 -9 29 27 88 22
108 -8 39 -60 2 -154 -107 -279 -62 -70 -57 -76 66 -76 98 0 105 1 105 20 0
18 -7 20 -69 20 -39 0 -72 4 -75 9 -3 4 6 19 20 32 31 29 89 114 103 152 20
53 14 122 -15 156 -21 26 -33 31 -67 30 -23 0 -52 -5 -64 -11z"/>
<path d="M7702 15445 c-37 -41 -47 -84 -46 -185 1 -118 33 -190 91 -205 35 -8
88 27 106 73 40 100 28 267 -23 322 -41 43 -88 42 -128 -5z m87 -5 c32 -17 46
-69 46 -175 -1 -140 -33 -198 -93 -164 -33 19 -50 69 -51 152 -1 82 14 148 40
176 22 23 32 25 58 11z"/>
<path d="M8268 15457 c-21 -12 -38 -30 -38 -39 0 -20 15 -24 25 -8 3 6 13 10
21 10 12 0 14 -30 14 -180 0 -174 1 -180 20 -180 20 0 20 5 18 207 -2 127 -7
207 -13 209 -5 2 -27 -7 -47 -19z"/>
<path d="M7137 15443 c-4 -3 -7 -20 -7 -36 0 -20 -6 -30 -20 -34 -11 -3 -20
-14 -20 -24 0 -12 7 -19 20 -19 19 0 20 -7 20 -115 0 -111 1 -117 25 -141 15
-15 32 -23 41 -20 9 3 20 6 25 6 5 0 9 8 9 19 0 13 -7 19 -25 19 -14 0 -27 1
-29 3 -2 2 -6 54 -8 114 l-3 110 33 3 c23 2 32 8 32 22 0 14 -9 20 -32 22 -31
3 -33 5 -32 41 1 34 -12 48 -29 30z"/>
<path d="M6053 15365 c-48 -21 -42 -36 12 -28 54 7 85 -14 85 -59 0 -25 -4
-28 -30 -28 -91 0 -154 -103 -102 -166 26 -33 53 -36 95 -14 44 24 47 24 47 5
0 -8 7 -15 16 -15 14 0 16 16 12 128 -4 135 -12 161 -55 181 -30 14 -41 13
-80 -4z"/>
<path d="M6362 15365 c-18 -8 -35 -21 -38 -30 -8 -20 -24 -9 -24 16 0 11 -7
19 -16 19 -13 0 -15 -20 -12 -152 3 -136 5 -153 21 -156 15 -3 17 7 17 96 0
143 21 187 84 175 42 -8 56 -53 56 -173 0 -82 3 -100 15 -100 8 0 15 3 15 8 1
26 2 174 1 209 -1 28 -8 50 -23 67 -30 32 -56 38 -96 21z"/>
<path d="M6905 15373 c-29 -7 -45 -23 -38 -39 4 -10 10 -11 23 -4 45 24 93 5
104 -42 7 -29 9 -27 -72 -48 -51 -13 -75 -45 -75 -102 0 -74 71 -110 124 -62
20 18 29 18 29 -1 0 -8 8 -15 18 -15 15 0 17 10 14 97 -4 160 -9 181 -45 204
-32 19 -45 21 -82 12z"/>
<path d="M20395 10034 c-38 -36 -110 -100 -160 -142 -49 -43 -110 -97 -135
-122 -25 -25 -68 -65 -95 -90 -28 -25 -102 -92 -164 -150 -132 -122 -145 -134
-197 -179 -21 -19 -66 -60 -99 -90 -33 -31 -103 -94 -155 -141 -52 -47 -126
-115 -165 -151 -38 -36 -115 -105 -170 -154 -55 -49 -145 -130 -199 -179 -179
-165 -211 -193 -251 -227 -22 -19 -62 -55 -90 -80 -27 -26 -68 -62 -90 -80
-21 -19 -73 -67 -115 -106 -41 -40 -76 -70 -77 -65 -1 4 -4 18 -7 33 -3 14
-25 45 -48 70 -55 57 -78 98 -78 142 0 25 -6 39 -24 50 -45 30 -84 72 -106
117 -13 25 -22 46 -21 48 17 29 -35 93 -92 113 -22 8 -69 40 -105 71 -75 65
-108 77 -152 55 -41 -21 -215 -74 -270 -82 -25 -4 -60 -14 -79 -21 -71 -29
-329 -78 -496 -93 -66 -6 -163 -17 -215 -23 -142 -17 -628 -18 -704 -1 -34 7
-106 20 -161 29 -55 8 -125 22 -155 31 -83 24 -651 29 -893 7 -136 -12 -188
-13 -225 -5 -68 16 -326 52 -472 65 -69 6 -131 15 -137 19 -10 6 -11 2 -4 -16
6 -14 7 -28 4 -31 -4 -3 1 -14 9 -23 8 -10 20 -32 27 -50 12 -29 11 -34 -15
-62 -15 -17 -33 -31 -41 -31 -8 0 -13 -11 -13 -29 0 -28 -14 -41 -46 -41 -24
0 -89 71 -113 123 -13 26 -26 47 -30 47 -5 0 -25 27 -45 60 -41 66 -66 78 -66
30 0 -23 11 -42 45 -76 25 -24 45 -49 45 -54 0 -6 8 -10 19 -10 21 0 30 -25
31 -80 1 -33 28 -80 47 -80 4 0 28 -30 53 -67 43 -66 44 -69 41 -138 -2 -50
-8 -76 -20 -90 -10 -11 -28 -37 -41 -58 -14 -25 -27 -36 -37 -33 -12 5 -13 0
-8 -23 7 -35 -10 -51 -20 -18 -12 41 -13 82 -2 96 10 11 9 13 -2 10 -9 -3 -23
10 -36 35 -14 26 -28 40 -39 38 -9 -2 -16 4 -16 14 0 9 -7 22 -16 28 -10 8
-16 27 -16 49 0 48 -22 63 -82 59 -50 -4 -61 -23 -26 -42 10 -6 17 -16 14 -24
-3 -7 6 -23 20 -34 14 -11 26 -25 26 -31 0 -6 11 -11 25 -11 23 0 25 -4 25
-40 0 -22 4 -40 10 -40 5 0 17 -17 26 -37 29 -62 66 -106 76 -91 5 8 6 -3 2
-27 -6 -40 -5 -40 43 -62 65 -29 94 -83 86 -160 -5 -47 -10 -56 -54 -93 -40
-34 -52 -39 -68 -30 -11 6 -22 6 -25 1 -3 -5 -22 -12 -42 -16 -29 -5 -41 -2
-59 15 -30 29 -45 18 -45 -31 0 -21 -4 -39 -9 -39 -9 0 -22 -51 -21 -88 0 -13
7 -38 15 -56 14 -30 13 -38 -15 -131 -16 -55 -35 -135 -42 -179 -11 -72 -14
-79 -40 -88 -24 -9 -26 -12 -16 -31 6 -12 20 -28 30 -37 14 -11 19 -25 16 -45
l-4 -30 -23 38 c-13 22 -31 37 -42 37 -36 0 -21 -27 37 -63 34 -21 40 -30 38
-54 -2 -15 -8 -75 -14 -133 -6 -58 -14 -115 -17 -128 -5 -22 -6 -22 -24 -6
-18 16 -19 16 -19 -9 0 -20 -5 -27 -19 -27 -15 0 -18 5 -14 23 4 18 3 19 -6 6
-7 -11 -7 -27 -1 -49 7 -26 6 -38 -4 -49 -28 -31 -24 -46 12 -42 32 2 32 2 32
-44 0 -30 4 -44 10 -40 6 4 10 15 8 25 -4 23 4 25 43 11 24 -8 30 -15 24 -28
-50 -120 -66 -273 -66 -608 0 -154 5 -325 11 -380 6 -56 8 -153 4 -220 -7
-135 1 -206 47 -385 47 -186 105 -362 208 -640 51 -136 57 -160 44 -160 -5 0
-26 -17 -48 -38 -22 -20 -65 -59 -96 -87 -30 -27 -100 -91 -154 -141 -55 -50
-122 -111 -150 -135 -27 -24 -81 -74 -120 -110 -38 -36 -110 -102 -160 -145
-49 -43 -98 -88 -110 -99 -17 -17 -136 -125 -224 -204 -14 -13 -69 -63 -121
-110 -52 -48 -117 -107 -145 -132 -27 -24 -59 -53 -71 -64 -11 -11 -63 -58
-114 -105 -211 -191 -325 -295 -330 -300 -3 -3 -43 -39 -90 -80 -47 -41 -92
-82 -100 -90 -13 -13 -250 -229 -374 -340 -22 -19 -66 -60 -98 -90 -33 -30
-69 -62 -81 -72 -12 -11 -42 -38 -67 -61 -25 -24 -90 -83 -145 -132 -122 -110
-102 -92 -221 -201 -54 -50 -121 -110 -149 -135 -27 -24 -61 -55 -76 -69 -14
-14 -57 -53 -95 -86 -38 -34 -87 -79 -109 -99 -22 -20 -56 -51 -75 -69 -19
-18 -64 -59 -100 -91 -36 -33 -103 -94 -149 -135 -46 -41 -89 -80 -95 -85 -18
-18 -218 -199 -260 -236 -21 -18 -64 -57 -95 -86 l-56 -52 5568 -1 5567 0 0
5050 c0 2778 -3 5050 -7 5050 -5 -1 -39 -30 -78 -66z m-6268 -1490 c8 -20 -17
-36 -34 -22 -10 8 -20 4 -39 -16 -26 -25 -26 -26 -5 -26 14 0 25 -9 31 -25 12
-32 47 -34 52 -3 4 28 36 36 44 11 3 -10 10 -26 15 -35 14 -27 11 -31 -16 -26
-14 3 -28 1 -31 -3 -3 -5 0 -9 5 -9 6 0 11 -11 11 -25 0 -22 -9 -30 -32 -26
-4 0 -19 -4 -34 -9 -21 -8 -35 -7 -61 5 -27 13 -37 14 -48 5 -8 -7 -22 -10
-30 -6 -9 3 -23 -3 -32 -14 -20 -23 -43 -26 -62 -7 -11 10 -14 10 -18 0 -10
-27 -23 -11 -23 27 0 27 4 40 14 40 7 0 19 7 27 16 8 10 25 14 53 12 l41 -3
-3 35 c-2 26 3 41 17 54 11 10 24 15 29 12 5 -3 19 8 31 24 17 23 29 30 57 30
22 0 37 -6 41 -16z m4323 -4689 c8 -37 24 -71 50 -104 39 -49 50 -55 168 -87
24 -7 13 -216 -17 -334 -5 -19 -15 -55 -21 -80 -18 -69 -133 -292 -188 -362
-26 -35 -53 -71 -58 -80 -5 -9 -31 -41 -59 -71 -27 -30 -62 -68 -76 -83 -32
-36 -77 -74 -87 -74 -12 0 -116 102 -173 170 -30 35 -64 76 -76 90 -13 13 -23
29 -23 33 0 5 -20 36 -44 70 -47 67 -130 241 -164 348 -25 76 -42 237 -35 322
4 45 9 57 22 57 10 0 38 7 64 16 79 27 147 120 147 202 l0 22 279 0 280 0 11
-55z m-2005 -55 c125 -18 193 -47 258 -108 32 -31 66 -70 77 -87 22 -36 62
-206 51 -218 -4 -4 -75 -6 -156 -5 l-149 3 -6 31 c-19 90 -75 130 -170 121
-97 -8 -158 -69 -195 -194 -17 -58 -19 -177 -4 -242 25 -111 129 -168 236
-130 37 12 89 74 100 120 l9 34 163 3 162 2 -7 -52 c-21 -167 -150 -315 -314
-360 -104 -28 -232 -34 -330 -14 -46 10 -97 24 -114 33 -39 20 -97 63 -112 83
-7 8 -23 27 -37 42 -44 48 -76 128 -93 238 -15 90 -15 119 -5 202 16 129 33
182 82 259 71 109 163 184 264 214 117 35 179 40 290 25z m-691 -19 c3 -5 -1
-47 -9 -92 -9 -46 -22 -136 -30 -199 -15 -115 -42 -281 -71 -440 -37 -197
-112 -298 -250 -337 -80 -22 -258 -23 -338 0 -65 18 -75 24 -129 80 -66 69
-72 87 -72 229 0 69 2 129 5 131 3 3 70 7 150 8 l145 2 -4 -86 c-3 -81 -2 -87
23 -111 44 -45 105 -27 125 37 10 31 27 134 51 307 6 47 20 132 30 190 10 58
24 139 30 181 7 42 15 82 19 88 4 6 63 12 156 14 83 1 153 4 157 5 4 1 9 -2
12 -7z m1655 -6 c2 -2 -7 -64 -19 -137 -13 -73 -29 -171 -35 -218 -7 -47 -21
-141 -33 -210 -11 -69 -28 -179 -37 -245 -9 -66 -21 -148 -27 -182 l-11 -63
-164 0 -163 0 0 43 c0 23 14 123 31 222 16 99 34 209 40 245 5 36 18 119 28
185 11 66 27 173 36 239 8 65 17 121 19 125 4 6 328 2 335 -4z m-1284 -1251
c25 -12 35 -24 40 -50 6 -36 -14 -84 -35 -84 -6 0 -1 -9 10 -20 11 -11 20 -28
20 -37 0 -10 3 -35 6 -55 7 -38 7 -38 -29 -38 -36 0 -47 15 -47 67 0 33 -27
53 -71 53 l-39 0 0 -60 0 -60 -35 0 -35 0 0 150 0 150 91 0 c62 0 102 -5 124
-16z m483 -6 c-2 -15 -11 -24 -25 -26 -28 -4 -31 -32 -3 -32 13 0 20 -7 20
-19 0 -10 -9 -21 -20 -24 -18 -5 -20 -14 -20 -97 l0 -91 -27 3 c-28 3 -28 3
-31 89 -2 77 -5 87 -22 92 -26 7 -26 37 0 44 11 3 20 14 20 24 0 29 40 59 78
59 29 0 33 -3 30 -22z m647 -3 c0 -13 -8 -21 -22 -23 -29 -4 -30 -32 -2 -32
15 0 20 -5 17 -22 -2 -13 -10 -23 -18 -23 -12 0 -16 -18 -18 -93 l-3 -93 -27
3 c-27 3 -27 4 -32 93 -4 71 -8 90 -20 90 -24 0 -25 36 -1 42 12 3 21 13 21
24 0 32 37 61 73 57 24 -2 32 -8 32 -23z m-437 -72 c-2 -20 -9 -29 -24 -31
-38 -5 -53 -33 -56 -102 -3 -63 -4 -65 -30 -68 l-28 -3 0 110 0 111 30 0 c17
0 30 -5 30 -11 0 -5 10 -3 22 5 36 26 60 21 56 -11z m210 3 c13 -13 17 -36 17
-109 l0 -92 -90 -2 c-83 -3 -91 -1 -107 20 -38 48 -9 93 72 111 35 8 55 18 55
27 0 17 -41 25 -58 11 -19 -15 -65 -23 -71 -13 -11 17 7 43 38 57 40 18 122
12 144 -10z m-635 -4 c13 -15 23 -116 18 -198 -1 -9 -13 -9 -43 -3 -27 7 -45
6 -52 -1 -27 -27 -106 0 -116 40 -14 54 10 74 113 95 18 4 27 12 27 25 0 24
-37 27 -66 5 -28 -21 -64 -19 -64 4 0 31 39 50 106 50 46 1 65 -3 77 -17z"/>
<path d="M17976 3746 c-21 -55 -82 -116 -148 -147 l-51 -24 7 -94 c15 -207
142 -467 327 -667 l47 -50 46 44 c26 24 54 56 64 70 9 15 35 50 57 77 22 28
70 111 107 185 55 110 71 154 87 240 27 137 28 197 2 205 -10 3 -46 23 -78 44
-50 32 -63 47 -86 99 l-28 62 -168 0 -168 0 -17 -44z m314 -76 c56 -24 71 -37
107 -90 46 -66 63 -113 63 -172 0 -108 -99 -242 -200 -272 -200 -60 -390 70
-390 267 0 226 212 361 420 267z"/>
<path d="M12994 8433 c-9 -21 -19 -61 -23 -88 -4 -28 -10 -56 -14 -62 -16 -25
-25 -106 -15 -134 5 -16 14 -27 18 -24 4 3 20 -11 34 -30 15 -19 32 -35 39
-35 7 0 29 -27 50 -59 42 -66 64 -88 75 -77 4 4 -1 12 -11 17 -18 11 -24 39
-7 39 6 0 10 -4 10 -10 0 -18 20 -11 20 8 1 15 2 15 13 2 7 -8 26 -16 42 -18
17 -1 36 -3 43 -4 6 -1 12 -7 12 -14 0 -19 37 -5 43 17 3 10 2 19 -3 19 -4 0
-11 16 -15 36 -4 24 -13 38 -26 41 -15 4 -19 14 -19 44 0 37 20 58 20 22 1
-17 1 -17 14 0 7 9 18 17 25 17 6 0 11 4 11 8 0 12 -34 42 -47 42 -6 0 -16 7
-23 15 -7 8 -29 15 -50 15 -33 0 -39 4 -55 40 -10 22 -22 40 -27 40 -4 0 -8
-18 -8 -40 0 -29 -4 -40 -15 -40 -11 0 -15 11 -15 40 0 39 -6 45 -37 41 -8 -1
-14 10 -14 26 l-1 28 -8 -30 -8 -30 -1 37 c0 20 4 40 9 43 6 3 9 18 9 33 -1
27 -1 27 -8 -3 -9 -43 -24 -15 -15 30 8 46 -2 45 -22 -2z"/>
<path d="M10050 4328 c-103 -97 -153 -144 -235 -218 -38 -35 -97 -88 -130
-119 -33 -31 -108 -99 -165 -151 -58 -52 -134 -122 -169 -155 -36 -33 -72 -67
-81 -75 -9 -8 -43 -40 -76 -70 -33 -30 -84 -77 -114 -105 -103 -93 -263 -240
-329 -301 -36 -34 -90 -83 -120 -110 -30 -27 -71 -65 -91 -84 -20 -19 -57 -53
-81 -75 -91 -82 -276 -252 -334 -306 -33 -30 -87 -80 -120 -110 -32 -30 -69
-63 -81 -74 -11 -11 -41 -38 -65 -60 -24 -22 -73 -67 -109 -100 -36 -33 -117
-107 -179 -165 -63 -58 -151 -138 -195 -179 -45 -41 -106 -97 -136 -125 -30
-27 -84 -77 -120 -110 -112 -104 -293 -270 -345 -317 -27 -24 -59 -53 -71 -64
-79 -73 -152 -141 -234 -216 -52 -48 -113 -103 -135 -124 -22 -20 -65 -60 -95
-89 -31 -28 -83 -76 -116 -106 -33 -30 -105 -96 -160 -146 -54 -50 -112 -103
-129 -118 -16 -15 -53 -48 -80 -74 -71 -66 -254 -233 -279 -255 -12 -10 -45
-42 -75 -70 l-55 -52 193 -3 193 -2 42 36 c22 21 95 87 161 149 66 61 143 131
170 156 28 24 57 51 65 59 9 8 47 44 85 79 39 36 100 92 136 125 67 63 126
116 270 247 46 42 100 92 120 110 137 128 240 222 260 240 19 17 170 155 239
219 9 8 65 60 125 115 60 55 122 111 136 125 14 14 46 43 70 64 69 62 278 255
344 318 33 31 71 65 85 76 14 11 45 39 70 63 41 40 195 182 314 290 27 24 68
62 91 84 42 41 221 205 259 238 45 40 104 93 171 156 89 84 273 253 345 317
30 27 68 63 86 79 17 17 71 66 119 110 49 44 100 91 114 104 14 13 69 62 121
110 52 47 126 116 165 152 38 37 92 86 119 110 28 24 61 55 75 69 14 14 70 66
124 114 53 49 97 92 97 95 0 3 -26 33 -58 67 -31 34 -69 75 -85 93 -15 17 -30
31 -35 31 -4 0 -41 -32 -82 -72z"/>
<path d="M6995 2864 c-159 -146 -310 -285 -335 -308 -25 -23 -99 -91 -165
-151 -66 -60 -125 -114 -131 -120 -6 -5 -49 -45 -95 -87 -47 -43 -99 -90 -115
-105 -91 -85 -243 -224 -269 -245 -16 -14 -51 -45 -76 -69 -44 -42 -84 -79
-214 -198 -33 -30 -89 -82 -125 -115 -36 -34 -110 -101 -165 -151 -55 -49
-127 -115 -160 -146 -33 -31 -84 -79 -114 -105 -87 -78 -111 -101 -206 -189
-49 -46 -99 -92 -111 -102 -12 -10 -64 -57 -116 -106 -53 -48 -104 -95 -115
-105 -11 -9 -66 -60 -123 -112 -57 -52 -112 -103 -124 -113 -12 -10 -46 -42
-76 -70 -31 -29 -85 -78 -120 -111 -36 -32 -87 -79 -113 -105 l-49 -46 195 -3
195 -2 34 32 c34 32 183 169 282 259 27 24 59 53 71 64 11 11 70 65 130 120
61 55 139 127 175 161 36 33 85 78 109 100 25 21 79 71 120 109 85 79 162 149
236 216 28 25 84 77 125 115 149 137 286 262 320 291 19 17 60 55 91 84 31 30
76 72 100 94 24 21 91 82 149 135 57 52 110 100 116 105 6 6 57 53 114 105
130 120 104 96 255 234 72 66 175 161 230 212 55 51 111 102 125 114 14 12 67
61 119 108 111 102 93 86 209 191 50 46 92 86 92 90 0 11 -168 191 -179 191
-3 0 -136 -120 -296 -266z"/>
</g>
</svg>
