<?xml version="1.0" standalone="no"?>
<!DOCTYPE svg PUBLIC "-//W3C//DTD SVG 20010904//EN"
 "http://www.w3.org/TR/2001/REC-SVG-20010904/DTD/svg10.dtd">
<svg version="1.0" xmlns="http://www.w3.org/2000/svg"
 width="2048.000000pt" height="2047.000000pt" viewBox="0 0 2048.000000 2047.000000"
 preserveAspectRatio="xMidYMid meet">
<metadata>
Created by potrace 1.16, written by Peter Selinger 2001-2019
</metadata>
<g transform="translate(0.000000,2047.000000) scale(0.100000,-0.100000)"
fill="#000000" stroke="none">
<path d="M0 14242 c0 -4975 3 -6223 12 -6220 7 3 14 14 16 26 4 24 36 31 46
10 4 -7 4 -2 2 11 -8 41 5 81 25 81 10 0 25 12 33 28 8 15 33 46 55 70 22 23
42 51 46 61 3 10 17 23 30 29 14 6 25 15 25 20 0 18 43 57 47 45 6 -17 38 -17
51 0 5 6 10 40 10 75 0 35 2 66 5 69 3 3 22 5 41 6 30 1 36 4 35 21 -3 38 1
56 14 56 6 1 26 19 42 40 17 21 36 39 43 40 6 0 12 7 12 15 0 8 9 19 20 25 11
6 20 17 20 25 0 8 8 15 18 15 12 0 23 13 31 38 8 20 27 49 42 63 16 14 29 31
29 37 0 6 11 22 25 36 14 14 25 34 25 46 0 11 7 20 15 20 8 0 15 3 15 8 0 11
57 72 67 72 5 0 10 6 10 14 0 20 54 83 76 89 11 3 21 -1 24 -9 9 -24 33 -16
33 11 0 14 -4 25 -10 25 -18 0 -10 31 15 56 14 14 25 31 25 39 0 21 38 19 43
-2 3 -15 4 -14 4 2 2 95 2 95 26 95 27 0 57 32 57 60 0 11 6 20 13 20 7 0 26
18 43 40 16 22 37 40 46 40 11 0 15 5 12 15 -6 16 12 45 27 45 5 0 9 -8 10
-17 0 -12 2 -13 6 -5 3 7 0 19 -7 27 -9 11 -6 17 18 29 16 8 33 27 36 41 4 14
13 25 21 25 8 0 15 6 15 14 0 8 7 16 15 20 8 3 15 15 15 26 0 11 5 20 11 20
17 0 38 32 39 58 0 12 6 22 14 22 8 0 27 18 43 40 15 22 32 40 36 40 13 0 46
43 47 58 0 30 57 61 66 37 4 -8 14 -15 24 -15 14 0 17 5 12 23 -5 20 -4 21 12
8 15 -13 16 -12 6 13 -5 15 -8 31 -5 36 3 5 1 11 -5 15 -19 12 -10 30 55 110
36 44 100 123 142 175 42 52 79 97 83 100 3 3 32 39 65 80 57 72 67 84 114
139 12 13 21 27 21 30 0 3 15 22 33 41 18 19 78 91 134 160 334 410 594 728
608 744 6 6 37 45 70 86 76 95 82 102 147 180 30 36 101 123 159 194 273 338
342 421 348 426 3 3 33 39 66 80 74 92 80 99 146 180 54 64 119 145 363 446
71 87 134 164 140 169 7 6 27 31 46 56 19 25 54 67 77 95 23 27 59 72 81 99
93 118 189 235 258 314 76 89 146 181 142 190 -3 9 -25 36 -157 195 -46 56
-96 117 -110 136 -14 19 -32 41 -39 48 -6 8 -67 81 -135 164 -181 223 -413
507 -455 557 -20 24 -57 70 -82 101 -91 115 -166 207 -225 276 -33 39 -107
129 -165 200 -57 71 -110 135 -117 142 -8 8 -26 30 -41 50 -26 35 -56 72 -77
96 -5 6 -37 45 -70 86 -33 41 -62 77 -66 80 -3 3 -32 39 -64 80 -32 41 -72 91
-89 110 -17 20 -44 53 -61 74 -16 21 -40 50 -53 65 -13 14 -78 94 -145 176
-67 83 -129 159 -139 170 -9 11 -98 120 -198 243 -212 262 -197 242 -283 346
-37 44 -71 86 -75 91 -14 19 -113 140 -135 165 -12 14 -38 46 -57 70 -19 25
-37 47 -40 50 -3 3 -36 43 -73 90 -37 47 -76 94 -85 105 -20 23 -151 183 -169
205 -20 26 -132 163 -176 214 -23 27 -58 70 -77 96 -19 25 -54 68 -77 96 -23
27 -79 94 -123 149 -45 55 -89 109 -99 120 -15 17 -112 136 -326 400 -111 137
-132 163 -184 225 -29 36 -61 74 -70 85 -102 127 -138 172 -151 186 -8 9 -24
26 -34 39 -10 13 -61 76 -113 139 -133 163 -206 253 -220 271 -10 12 -12
-1315 -13 -6208z"/>
<path d="M3442 18668 l3 -1203 4547 0 4548 0 2 1203 3 1202 -4553 0 -4552 0 2
-1202z m8411 405 c18 -5 21 -29 11 -81 -6 -28 -9 -30 -38 -25 -42 7 -58 -13
-54 -69 3 -41 4 -43 36 -43 37 0 46 -17 40 -76 -3 -31 -6 -34 -40 -37 l-38 -3
-2 -237 -3 -237 -50 0 -50 0 -3 238 -2 237 -29 0 c-29 0 -29 1 -29 55 1 53 2
55 28 55 26 0 27 2 33 69 12 146 64 189 190 154z m-6777 -24 c57 -27 87 -87
92 -186 6 -113 -30 -195 -99 -223 -16 -7 -29 -14 -29 -16 0 -2 15 -24 33 -48
32 -41 117 -228 133 -290 l6 -27 -55 2 c-31 1 -61 5 -66 8 -9 6 -38 65 -104
214 -45 100 -62 117 -113 117 l-45 0 1 -159 c1 -88 -1 -165 -5 -171 -6 -10
-53 -12 -87 -3 -17 4 -18 32 -18 404 l0 399 157 0 c138 0 162 -2 199 -21z
m2561 2 c62 -29 94 -89 94 -181 0 -74 -28 -156 -57 -167 -10 -4 -3 -16 24 -42
93 -90 78 -297 -26 -367 -25 -18 -53 -23 -135 -29 -56 -3 -131 -5 -167 -3
l-65 3 -3 403 -2 402 147 0 c123 0 155 -4 190 -19z m1403 5 c0 -8 25 -73 55
-144 30 -72 55 -135 55 -141 0 -28 17 -5 39 52 13 34 34 85 47 112 12 28 28
69 36 93 l13 42 62 0 c35 0 63 -2 63 -5 0 -6 -114 -273 -158 -370 l-37 -80 -5
-175 -5 -175 -29 -3 c-15 -2 -39 -1 -52 2 l-24 6 0 178 c0 98 -4 182 -9 188
-4 5 -22 43 -39 84 -17 41 -54 127 -83 190 -75 167 -75 160 5 160 50 0 66 -3
66 -14z m-3528 -196 c24 -7 48 -24 65 -47 l28 -36 6 -236 c4 -130 8 -245 10
-256 3 -16 -2 -20 -26 -22 -53 -2 -75 7 -75 33 0 28 -10 30 -31 7 -51 -56 -93
-66 -155 -37 -45 22 -74 83 -74 157 0 111 41 163 156 196 78 23 97 41 87 82
-10 39 -23 49 -65 49 -34 0 -41 -4 -59 -35 -20 -33 -24 -35 -58 -29 -49 9 -52
14 -40 59 29 106 113 147 231 115z m514 -34 c17 -20 34 -53 38 -74 3 -20 6
-137 6 -258 l0 -222 -46 -4 c-25 -2 -47 -1 -50 3 -2 3 -5 100 -6 216 -3 180
-6 213 -21 236 -19 29 -60 36 -88 14 -38 -29 -43 -58 -47 -264 -3 -165 -7
-203 -18 -204 -8 0 -29 -1 -46 -2 l-33 -1 -3 291 -2 291 22 5 c12 4 33 4 45 1
18 -5 23 -13 23 -40 0 -25 4 -32 15 -28 8 3 17 14 20 24 11 35 65 61 115 56
36 -3 51 -11 76 -40z m662 6 l39 -39 41 39 c48 44 96 51 142 18 52 -37 59 -75
60 -332 0 -128 1 -239 0 -246 0 -9 -14 -12 -47 -10 l-48 3 -5 226 c-6 250 -9
262 -64 257 -25 -2 -35 -11 -51 -43 -17 -35 -20 -64 -23 -235 -1 -107 -6 -198
-11 -203 -5 -5 -26 -7 -47 -5 l-39 3 -5 226 c-6 249 -9 262 -64 257 -22 -2
-35 -12 -50 -38 -19 -31 -21 -57 -26 -240 l-5 -205 -45 0 -45 0 -3 293 -2 292
45 0 c43 0 45 -1 45 -30 0 -35 14 -39 30 -9 16 29 70 59 108 59 24 0 42 -10
70 -38z m1374 29 c73 -27 126 -141 131 -276 l2 -70 -132 -3 c-145 -3 -140 0
-122 -65 14 -50 54 -90 82 -82 26 8 57 41 57 62 0 13 10 15 50 11 28 -3 52 -7
55 -10 8 -7 -34 -108 -53 -127 -33 -33 -72 -51 -110 -51 -46 0 -101 21 -124
47 -74 85 -95 306 -42 445 18 47 67 105 99 118 27 12 78 12 107 1z m516 -11
c61 -38 67 -65 67 -340 l0 -245 -29 -3 c-15 -2 -39 -1 -52 2 l-24 6 0 216 c0
244 -5 264 -65 264 -26 0 -39 -7 -57 -32 -22 -32 -23 -42 -26 -240 l-4 -206
-41 -5 c-23 -2 -45 -1 -49 2 -10 8 -13 565 -4 579 4 6 19 9 34 8 15 -2 33 -4
40 -5 7 -1 12 -16 12 -38 l1 -38 21 29 c48 64 116 82 176 46z m1092 -2 c136
-69 174 -348 70 -512 -74 -116 -232 -110 -303 13 -29 48 -47 129 -47 211 0
230 130 363 280 288z m910 6 c43 -17 70 -49 89 -103 13 -41 9 -46 -46 -55 -36
-5 -43 -3 -48 14 -11 34 -35 50 -75 50 -37 0 -70 -20 -70 -41 0 -27 24 -48 77
-69 86 -33 121 -52 150 -82 52 -54 39 -218 -21 -272 -70 -63 -192 -60 -253 5
-23 25 -68 118 -61 125 3 2 26 8 52 13 46 9 47 8 61 -24 16 -39 41 -55 86 -55
57 0 89 52 57 92 -7 8 -50 30 -96 48 -96 38 -127 70 -141 146 -12 62 1 127 35
171 39 51 128 67 204 37z m422 6 c41 -12 78 -53 97 -109 13 -41 9 -47 -44 -54
-37 -5 -42 -3 -60 26 -17 27 -27 32 -66 35 -39 3 -47 0 -56 -20 -18 -40 0 -63
69 -88 71 -26 123 -57 153 -90 32 -35 33 -160 3 -220 -52 -102 -208 -123 -284
-38 -31 34 -56 86 -52 111 2 18 12 23 46 28 42 5 44 4 62 -32 20 -39 36 -49
79 -49 57 0 90 52 59 93 -7 9 -44 27 -81 41 -86 32 -120 56 -141 100 -16 35
-21 109 -10 163 17 86 120 132 226 103z m432 -4 c73 -30 119 -128 120 -255 l1
-86 -125 -2 c-122 -1 -125 -2 -128 -24 -2 -13 2 -40 8 -60 26 -78 128 -82 130
-5 0 16 6 18 50 14 28 -3 53 -8 57 -11 16 -16 -21 -94 -64 -136 -45 -43 -46
-43 -104 -39 -117 8 -173 87 -186 258 -18 246 94 408 241 346z m-5153 -294 c0
-155 -2 -285 -5 -290 -4 -7 -49 -9 -88 -3 -5 1 -8 131 -8 290 l0 290 33 3 c72
8 68 24 68 -290z m3709 66 c4 -199 7 -227 23 -242 24 -24 64 -23 89 1 30 31
38 84 38 281 l0 183 53 -3 52 -3 3 -270 c1 -148 0 -280 -3 -293 -5 -20 -11
-23 -48 -20 -39 3 -42 5 -45 36 -2 17 -5 32 -7 32 -2 0 -19 -16 -38 -35 -71
-73 -163 -55 -203 41 -13 31 -18 87 -22 276 l-5 237 34 3 c80 10 73 27 79
-224z"/>
<path d="M4837 18933 c-3 -5 -4 -48 -4 -98 l2 -90 88 -3 c84 -3 88 -2 112 24
41 44 28 140 -21 163 -28 12 -170 15 -177 4z"/>
<path d="M7417 18933 c-4 -3 -7 -46 -7 -95 l0 -88 85 0 c97 0 119 13 130 73 8
44 -17 103 -48 111 -30 8 -152 8 -160 -1z"/>
<path d="M7410 18505 l0 -105 94 0 c75 0 98 3 111 17 43 42 47 118 9 162 -25
31 -27 31 -120 31 l-94 0 0 -105z"/>
<path d="M5435 18524 c-46 -17 -75 -47 -75 -78 0 -35 23 -69 53 -77 52 -14 96
51 97 144 0 31 -12 33 -75 11z"/>
<path d="M7971 18737 c-13 -16 -41 -93 -41 -113 0 -11 19 -14 81 -14 l82 0 -7
47 c-3 27 -15 57 -28 70 -24 25 -69 31 -87 10z"/>
<path d="M9543 18728 c-31 -34 -43 -83 -43 -168 0 -112 24 -170 79 -191 60
-24 110 61 111 187 0 127 -32 194 -95 194 -20 0 -39 -8 -52 -22z"/>
<path d="M11332 18727 c-13 -13 -24 -42 -28 -70 l-7 -47 72 0 c39 0 74 1 79 3
11 3 2 58 -16 97 -22 45 -66 53 -100 17z"/>
<path d="M16188 19843 c-27 -7 -48 -18 -48 -23 0 -6 -11 -10 -25 -10 -13 0
-42 -6 -62 -14 -62 -23 -92 -28 -219 -31 -114 -3 -126 -6 -185 -35 -150 -76
-284 -194 -378 -332 -18 -27 -35 -48 -40 -48 -4 0 -15 -15 -25 -32 -9 -18 -32
-60 -51 -93 -19 -33 -47 -86 -62 -118 -15 -31 -36 -60 -45 -63 -10 -3 -18 -13
-18 -22 0 -9 -18 -44 -40 -77 -22 -33 -40 -66 -41 -75 0 -8 -9 -28 -19 -45
-52 -82 -118 -272 -131 -380 -14 -110 -24 -165 -48 -270 -61 -263 -64 -283
-62 -456 1 -152 0 -168 -19 -191 -40 -52 -41 -58 -59 -328 -12 -177 -5 -839 9
-935 6 -38 10 -81 9 -95 -1 -14 1 -32 4 -40 3 -8 8 -28 11 -45 53 -320 65
-373 97 -424 16 -24 31 -60 35 -80 3 -20 9 -47 14 -61 9 -25 21 -99 25 -155 5
-55 45 -226 74 -310 18 -53 33 -175 27 -210 -4 -19 -12 -40 -19 -47 -28 -30
-80 -101 -100 -137 -38 -68 -266 -255 -331 -271 -23 -6 -63 -19 -91 -31 -48
-20 -188 -71 -400 -146 -144 -52 -223 -90 -261 -128 -31 -31 -36 -33 -136 -40
-57 -4 -125 -11 -153 -16 -53 -10 -213 -72 -255 -99 -48 -31 -165 -69 -230
-75 -161 -15 -175 -22 -274 -140 -33 -38 -62 -72 -66 -75 -33 -26 -111 -177
-128 -250 -12 -49 -34 -265 -30 -292 4 -23 0 -23 -98 -8 -69 11 -95 11 -132 1
-26 -7 -49 -16 -52 -20 -3 -5 -23 -18 -45 -29 -40 -20 -106 -84 -139 -135 -31
-46 -48 -153 -41 -257 l5 -95 -97 -51 c-54 -28 -150 -80 -213 -116 -63 -35
-160 -86 -215 -113 -55 -27 -125 -68 -155 -91 -31 -23 -83 -51 -117 -62 -80
-26 -248 -117 -294 -159 -20 -18 -40 -33 -43 -33 -15 0 -61 -64 -101 -143 -20
-38 -109 -124 -275 -264 -47 -40 -101 -87 -121 -106 -109 -101 -124 -110 -212
-117 -111 -9 -155 -32 -191 -102 -72 -137 -151 -436 -144 -546 3 -62 12 -85
116 -295 61 -125 112 -231 112 -234 0 -3 6 -19 14 -36 7 -18 22 -52 33 -77 18
-45 82 -166 106 -205 6 -11 32 -51 56 -90 24 -38 46 -72 50 -75 3 -3 28 -32
55 -65 58 -70 275 -288 326 -326 37 -29 64 -51 120 -103 19 -17 67 -56 105
-86 39 -29 102 -79 140 -111 69 -56 207 -149 276 -186 44 -23 281 -187 534
-369 105 -75 213 -153 240 -172 117 -82 376 -282 448 -345 43 -38 90 -87 104
-110 l26 -41 -6 -171 c-8 -213 -15 -245 -71 -336 -59 -95 -161 -356 -176 -451
-6 -40 -16 -92 -21 -115 -12 -53 -5 -65 71 -122 65 -49 71 -65 59 -143 -13
-80 -36 -243 -48 -338 -30 -238 -51 -427 -61 -530 -10 -110 -20 -203 -40 -355
-5 -38 -12 -101 -15 -140 -3 -38 -14 -158 -25 -265 -10 -107 -24 -247 -30
-310 -6 -63 -15 -153 -20 -200 -5 -47 -14 -164 -20 -260 -6 -96 -13 -197 -15
-223 -18 -186 -55 -806 -62 -1049 l-5 -166 -71 -69 c-40 -37 -119 -111 -177
-163 -58 -52 -107 -97 -110 -100 -3 -3 -43 -39 -89 -80 -46 -41 -94 -84 -106
-95 -54 -50 -135 -124 -180 -164 -28 -24 -81 -74 -120 -110 -38 -37 -108 -100
-155 -141 -47 -41 -112 -100 -145 -131 -33 -30 -82 -76 -110 -100 -114 -103
-132 -119 -170 -154 -22 -20 -98 -89 -169 -153 -72 -65 -142 -128 -156 -142
-14 -14 -57 -53 -96 -86 -38 -34 -87 -79 -109 -99 -22 -20 -56 -51 -75 -69
-19 -18 -64 -59 -100 -91 -36 -33 -103 -94 -149 -135 -46 -41 -93 -84 -105
-96 -12 -12 -48 -45 -82 -75 -61 -54 -201 -181 -284 -257 l-45 -41 5573 -1
5572 0 0 5113 c0 4077 -3 5116 -12 5126 -10 10 -10 15 -1 18 9 3 12 226 13
965 l0 961 -25 33 c-36 47 -65 113 -65 151 l0 31 30 -30 c17 -16 30 -37 30
-47 0 -9 7 -26 15 -37 13 -17 14 63 15 682 l0 701 -25 11 c-14 7 -42 12 -62
12 -27 0 -44 8 -68 33 -18 17 -55 52 -82 77 -27 25 -111 103 -186 175 -76 71
-149 136 -162 143 -14 7 -25 16 -25 21 0 22 -120 82 -236 119 -34 11 -58 26
-72 47 -12 16 -40 55 -63 85 -22 30 -56 88 -75 128 -20 40 -47 80 -60 88 -13
9 -24 24 -24 34 0 9 -9 25 -20 35 -11 10 -25 33 -32 51 -7 19 -16 34 -21 34
-5 0 -6 -8 -2 -17 4 -10 8 -27 9 -38 0 -11 7 -26 14 -33 6 -7 12 -24 12 -37 0
-15 12 -33 33 -49 30 -24 30 -26 9 -26 -12 0 -25 7 -28 15 -4 8 -12 15 -19 15
-7 0 -21 21 -31 48 -10 26 -20 52 -24 57 -13 21 -80 192 -90 232 -8 31 -19 47
-39 58 -36 18 -43 35 -24 57 13 15 13 23 -1 65 -9 27 -30 63 -46 81 -29 32
-41 82 -20 82 6 0 10 18 10 40 0 51 -20 53 -21 3 0 -30 -2 -34 -8 -18 -5 11
-7 23 -5 26 6 11 -16 245 -27 287 -10 35 -14 40 -21 28 -13 -23 -28 -10 -28
24 0 25 21 46 43 42 12 -3 8 12 -14 57 -16 33 -23 40 -33 32 -20 -17 -34 28
-42 132 -3 48 -10 90 -15 93 -5 3 -9 0 -9 -7 0 -8 -4 -8 -15 1 -17 14 -26 0
-29 -44 0 -13 -4 -22 -8 -19 -12 6 -10 97 2 109 11 11 3 74 -10 74 -9 0 -13
-66 -13 -235 0 -326 11 -480 37 -520 9 -14 11 -26 5 -32 -6 -6 2 -54 22 -129
17 -65 33 -137 36 -159 2 -22 11 -54 19 -72 8 -17 14 -34 14 -39 0 -6 17 -43
71 -159 11 -22 21 -51 23 -64 1 -14 8 -27 14 -29 7 -2 12 -9 12 -16 0 -7 6
-18 13 -24 6 -7 23 -45 37 -85 14 -40 30 -72 35 -72 23 -1 55 -32 55 -53 0
-14 9 -26 24 -34 16 -7 33 -30 46 -64 12 -29 30 -60 40 -69 15 -13 16 -20 6
-40 -11 -25 -26 -33 -26 -15 0 6 -10 24 -21 39 -12 16 -18 34 -15 40 4 6 3 11
-3 11 -6 0 -13 11 -17 25 -8 31 -35 56 -41 38 -7 -21 -26 -14 -20 7 3 11 1 20
-4 20 -5 0 -9 9 -9 21 0 18 -4 20 -27 15 -29 -8 -43 5 -43 42 0 26 -36 102
-49 102 -4 0 -21 30 -36 68 -15 37 -36 81 -46 98 -27 45 -49 110 -60 179 -6
32 -15 65 -21 72 -6 8 -8 16 -5 20 8 7 -11 43 -22 43 -5 0 -12 -10 -17 -22 -6
-19 -8 -14 -11 25 -2 26 -8 47 -14 47 -5 0 -9 11 -9 24 0 13 -7 29 -15 36 -9
7 -13 15 -11 17 3 3 1 16 -4 29 -5 13 -12 72 -15 131 -4 71 -10 111 -19 118
-15 12 -28 55 -15 55 4 0 17 -10 28 -21 l20 -21 6 36 c5 22 3 42 -4 50 -6 7
-8 22 -4 31 4 13 3 16 -5 11 -7 -4 -12 -2 -12 6 0 7 -3 24 -7 37 -5 21 -3 23
13 18 18 -7 18 -6 -1 8 -17 13 -20 28 -21 93 0 42 -4 101 -8 130 -7 55 -1 67
14 30 7 -18 9 -11 9 32 0 30 4 70 10 87 5 19 6 35 1 38 -5 3 -15 33 -22 65
-10 51 -15 59 -30 54 -14 -4 -18 0 -19 18 -3 47 -1 94 5 141 7 56 -18 123 -53
145 -26 15 -27 2 -2 -25 18 -19 19 -32 14 -159 -4 -81 -9 -130 -14 -119 -4 11
-8 40 -8 64 -1 24 -4 41 -8 38 -3 -4 -6 -40 -5 -80 2 -48 -2 -79 -11 -91 -16
-22 -40 -12 -32 13 10 32 13 305 4 361 -5 30 -14 100 -20 154 -7 58 -17 105
-25 114 -18 18 -18 67 1 85 12 13 13 23 2 66 -6 28 -15 51 -19 51 -5 0 -8 15
-8 33 0 37 -34 209 -45 226 -3 6 -2 11 3 11 11 0 42 -66 42 -90 0 -11 5 -20
11 -20 7 0 9 8 4 23 -15 49 -24 148 -15 172 9 23 6 29 -12 26 -10 -1 -21 40
-20 77 1 22 -3 32 -13 32 -10 0 -15 -10 -15 -30 0 -16 -4 -30 -10 -30 -5 0
-10 16 -10 35 0 19 -4 35 -10 35 -5 0 -10 7 -10 15 0 8 5 15 10 15 16 0 11 44
-11 99 -18 43 -20 56 -10 78 9 20 9 29 -2 42 -14 17 -40 69 -43 86 -1 6 -2 19
-3 30 -2 19 -3 19 -11 -2 -5 -13 -5 -35 1 -55 5 -18 6 -48 3 -66 -5 -28 -4
-31 11 -26 15 6 16 3 11 -24 -5 -21 -1 -44 13 -76 27 -58 27 -92 1 -99 -16 -4
-21 1 -26 21 -10 49 -12 57 -34 112 -21 52 -30 83 -48 168 -5 20 -13 46 -19
57 -6 11 -14 40 -18 65 -4 25 -15 63 -25 85 -10 22 -21 63 -24 90 -4 28 -11
52 -16 53 -6 2 -10 14 -10 26 0 24 -39 127 -51 136 -9 7 -69 188 -76 227 -3
18 -11 38 -19 44 -18 15 -18 49 0 49 22 0 41 29 28 42 -9 9 -12 7 -12 -10 0
-12 -4 -22 -8 -22 -15 0 -32 24 -32 46 0 25 -43 78 -53 67 -4 -3 -7 10 -7 30
0 26 -4 37 -15 37 -8 0 -15 7 -15 15 0 19 14 19 30 0 20 -24 22 -12 4 23 -14
30 -34 43 -34 23 0 -5 -7 -11 -15 -14 -11 -5 -12 -1 -4 20 15 40 -9 143 -33
143 -5 0 -17 18 -26 39 -25 55 -156 203 -271 306 -6 6 -31 30 -56 55 -64 65
-86 83 -125 103 -19 11 -51 31 -70 46 -74 57 -270 157 -365 186 -33 10 -82 27
-110 38 -54 22 -235 56 -299 57 -21 0 -79 -7 -128 -16 -57 -11 -92 -13 -97 -7
-12 18 -36 20 -83 6z m1292 -616 c0 -7 -5 -18 -11 -24 -7 -7 -1 -14 19 -22 31
-13 72 -61 72 -85 0 -8 15 -32 34 -52 18 -20 39 -55 46 -78 7 -22 21 -53 31
-68 11 -14 19 -32 19 -40 0 -8 9 -31 20 -53 18 -35 19 -85 1 -85 -20 1 -32 19
-25 43 5 24 3 27 -20 27 -14 0 -26 -5 -26 -11 0 -8 -5 -8 -15 1 -24 20 -19
-12 6 -38 11 -13 23 -39 25 -60 5 -36 5 -36 -11 -17 -10 11 -23 34 -31 52 -7
17 -18 34 -24 38 -6 3 -19 24 -30 46 -11 21 -27 39 -35 39 -9 0 -15 9 -15 23
0 13 -9 32 -20 42 -11 10 -20 24 -20 30 0 7 -7 15 -15 19 -8 3 -15 12 -15 21
0 8 -6 15 -14 15 -23 0 -65 46 -55 61 5 8 9 24 9 35 0 14 8 24 23 28 22 6 22
6 2 22 -11 8 -27 19 -35 24 -8 5 -12 11 -8 15 7 7 45 -11 66 -32 21 -21 27 -7
9 21 -14 21 -14 26 -2 36 8 7 15 19 15 26 0 8 7 14 15 14 8 0 15 -6 15 -13z
m-1709 -74 c16 -3 29 -8 29 -12 0 -13 91 -33 121 -27 20 4 39 0 54 -10 14 -9
53 -18 87 -20 34 -2 64 -8 68 -14 4 -6 22 -13 41 -15 19 -3 58 -10 87 -16 30
-6 77 -10 105 -8 29 1 60 -1 70 -5 9 -5 28 -5 41 -2 14 3 28 2 31 -4 3 -5 19
-10 34 -10 15 0 31 -3 35 -7 4 -5 63 -13 132 -19 68 -6 130 -16 136 -21 7 -5
39 -20 71 -33 31 -12 57 -26 57 -31 0 -5 16 -15 35 -24 20 -8 55 -30 78 -48
23 -19 47 -36 54 -38 20 -7 113 -100 113 -113 0 -7 9 -21 20 -31 11 -10 20
-21 20 -25 0 -3 35 -43 79 -88 55 -58 80 -78 84 -68 3 8 3 16 -1 18 -4 2 -20
23 -37 48 -16 25 -44 64 -62 87 -34 43 -71 103 -99 163 -9 19 -25 45 -35 59
-20 25 -27 77 -8 66 6 -4 8 -13 5 -20 -3 -8 5 -16 18 -19 16 -4 25 -15 30 -36
6 -31 13 -42 54 -86 12 -14 22 -29 22 -33 0 -4 9 -16 20 -26 11 -10 20 -24 20
-31 0 -7 6 -11 13 -9 7 3 20 -13 31 -38 11 -23 42 -76 68 -117 26 -41 48 -84
48 -94 0 -10 7 -24 17 -31 9 -7 13 -17 9 -24 -10 -15 -56 27 -56 52 0 9 -7 17
-15 17 -8 0 -15 7 -15 15 0 8 -6 15 -14 15 -10 0 -4 -16 20 -52 19 -29 34 -58
34 -66 0 -21 51 -136 67 -152 14 -13 15 -11 9 20 -3 19 -13 38 -21 43 -9 5
-15 23 -15 48 0 24 4 38 10 34 6 -3 10 -16 10 -29 0 -12 7 -31 15 -42 8 -10
15 -25 15 -32 0 -7 11 -30 25 -52 14 -22 25 -46 25 -55 0 -18 -21 -20 -38 -3
-16 16 -16 -2 0 -37 14 -30 24 -32 31 -5 7 28 21 25 34 -7 6 -16 18 -39 26
-53 42 -72 64 -151 72 -262 4 -50 2 -67 -4 -53 -5 11 -10 30 -10 43 -1 12 -5
22 -11 22 -5 0 -10 10 -10 22 0 12 -3 18 -6 15 -4 -4 1 -39 10 -78 10 -39 24
-114 32 -167 7 -54 18 -124 23 -157 42 -264 38 -501 -10 -685 -8 -32 -15 -84
-39 -290 -18 -151 -60 -368 -90 -465 -5 -16 -16 -59 -25 -95 -21 -85 -100
-263 -142 -320 -18 -25 -42 -61 -52 -81 -11 -20 -43 -61 -70 -90 -28 -30 -51
-62 -51 -71 0 -10 -3 -18 -7 -18 -5 0 -17 -12 -27 -27 l-19 -26 26 5 c21 4 27
1 27 -13 0 -11 6 -19 14 -19 17 0 28 -95 19 -182 -3 -38 -1 -73 5 -84 6 -11 7
-26 3 -32 -4 -7 -2 -66 6 -132 10 -94 17 -127 34 -149 12 -16 19 -37 16 -45
-4 -9 -3 -16 2 -16 5 0 11 -26 14 -57 4 -49 1 -61 -15 -77 -15 -14 -17 -21 -8
-26 7 -5 11 -19 8 -33 -3 -14 -2 -31 3 -38 13 -22 208 171 224 221 10 33 21
23 24 -21 1 -24 -4 -51 -14 -65 -19 -29 -21 -143 -2 -167 6 -10 26 -21 42 -26
25 -6 30 -13 30 -37 0 -27 3 -29 28 -26 28 4 28 4 22 -34 -3 -22 -9 -50 -12
-64 -4 -14 -6 -28 -5 -32 1 -6 -93 -78 -101 -78 -3 0 -64 -55 -190 -172 -60
-55 -72 -75 -117 -195 -11 -30 -16 -33 -56 -33 -54 0 -259 -28 -299 -40 -17
-6 -89 -10 -160 -11 -92 -1 -152 -7 -205 -21 -111 -28 -417 -37 -480 -13 -25
9 -70 16 -100 16 -113 -2 -323 46 -433 99 -21 10 -52 22 -70 26 -17 3 -42 13
-54 21 -25 17 -31 48 -10 56 6 2 21 28 32 56 26 69 44 85 80 71 21 -8 34 -7
57 4 16 8 37 13 46 10 15 -5 15 -4 0 9 -10 8 -18 19 -18 25 0 5 -6 12 -14 15
-7 3 -23 24 -34 46 -16 31 -19 47 -12 65 13 35 24 38 69 22 23 -7 41 -11 41
-7 0 4 -13 21 -30 39 -37 41 -43 102 -10 102 36 0 43 35 36 172 -5 111 -4 127
9 122 8 -4 15 -12 15 -18 0 -10 35 -57 114 -154 15 -17 192 -161 236 -191 19
-13 43 -32 54 -43 15 -16 20 -17 27 -6 12 19 11 55 -2 81 -11 20 -55 75 -113
139 -13 15 -19 29 -14 30 5 2 0 15 -11 30 -23 29 -27 43 -9 32 8 -5 9 -2 3 12
-5 10 -10 68 -10 128 -1 82 -5 111 -15 114 -7 3 2 10 21 16 27 9 35 17 37 41
2 17 -4 39 -11 50 -12 16 -18 17 -30 7 -19 -16 -31 0 -21 30 6 21 7 21 21 2
11 -15 15 -16 22 -5 6 9 4 20 -6 29 -10 10 -13 25 -9 44 3 17 1 28 -5 28 -7 0
-4 11 6 26 14 22 15 28 4 35 -8 5 -22 9 -31 9 -9 0 -20 5 -23 10 -4 6 -28 21
-55 35 -26 13 -50 28 -52 32 -1 5 -16 19 -33 31 -16 13 -58 50 -91 83 -34 32
-67 59 -73 59 -6 0 -11 5 -11 11 0 5 -13 24 -30 42 -16 18 -30 35 -30 39 0 4
-6 13 -13 20 -7 7 -35 40 -63 73 -47 54 -75 94 -155 219 -15 23 -35 67 -45 99
-10 31 -21 57 -25 57 -4 0 -11 14 -14 32 -4 18 -11 39 -15 48 -18 38 -77 229
-155 505 -50 176 -54 194 -55 241 0 23 -7 61 -16 85 -49 137 -64 268 -64 568
0 119 -5 282 -12 363 -22 271 16 741 68 823 6 11 15 36 19 55 4 19 18 53 30
76 29 50 213 239 243 248 11 4 24 16 27 26 3 10 14 21 24 25 9 3 34 32 55 65
31 48 41 58 52 49 11 -9 14 -7 14 8 0 24 19 43 42 43 23 0 23 17 1 23 -16 3
-16 5 2 11 46 16 70 33 82 56 27 54 46 71 71 65 13 -3 37 -9 53 -12z m2631
-3105 c-2 -21 0 -44 7 -51 6 -8 8 -27 5 -46 -5 -23 -3 -31 7 -31 9 0 10 -3 3
-8 -19 -13 -23 -65 -9 -127 31 -142 38 -184 41 -247 1 -37 8 -77 14 -89 12
-21 11 -22 -19 -16 -18 4 -30 3 -27 -2 3 -5 -3 -20 -14 -32 l-19 -24 -1 33 c0
20 6 35 15 38 8 4 15 13 15 21 0 8 -5 11 -12 7 -7 -5 -9 -2 -5 9 24 62 27 97
13 138 -8 24 -13 46 -11 49 3 4 -2 52 -10 106 -12 77 -13 105 -4 127 7 15 9
30 5 34 -3 3 -6 -1 -6 -10 0 -9 -6 -17 -13 -17 -10 0 -11 15 -5 68 5 37 10 90
12 117 5 84 8 92 16 40 4 -27 5 -67 2 -87z m219 20 c1 -62 3 -122 4 -133 1
-11 2 -38 3 -60 2 -30 5 -36 12 -25 8 13 10 12 10 -2 0 -10 -7 -18 -17 -18
-13 0 -14 -3 -5 -12 14 -14 16 -98 2 -98 -5 0 -10 7 -10 15 0 8 -4 15 -8 15
-4 0 -6 -89 -5 -197 4 -188 11 -287 34 -433 5 -36 12 -83 15 -105 2 -22 9 -60
15 -85 6 -25 13 -97 16 -160 6 -167 9 -190 22 -238 6 -23 13 -57 15 -75 6 -52
25 -173 30 -188 3 -8 11 -27 17 -44 7 -16 13 -74 15 -128 2 -69 7 -105 18
-122 20 -30 20 -35 1 -35 -12 0 -13 -4 -6 -18 5 -10 6 -24 1 -31 -10 -17 -33
-4 -26 14 3 8 -1 27 -8 42 -19 39 -28 93 -16 93 6 0 10 7 10 15 0 8 -4 15 -10
15 -5 0 -10 14 -10 30 0 17 -5 30 -11 30 -8 0 -9 -17 -5 -54 6 -43 4 -55 -8
-59 -9 -4 -16 -18 -16 -34 -1 -27 -1 -27 -15 -9 -18 24 -19 58 -3 74 10 9 8
16 -5 29 -16 16 -17 16 -17 -9 0 -15 -4 -29 -9 -32 -13 -8 -23 102 -11 124 10
19 5 65 -10 85 -4 6 -10 30 -14 54 -4 24 -13 56 -21 72 -8 15 -15 39 -15 53 0
14 -7 51 -16 83 -9 32 -17 76 -18 99 0 22 -6 47 -12 55 -15 19 -45 174 -38
194 6 16 -23 87 -38 93 -5 2 -8 22 -8 44 0 32 3 39 16 34 8 -3 13 -2 11 2 -3
4 -1 16 4 27 8 19 8 19 15 -2 3 -13 13 -23 20 -23 18 0 19 -59 1 -66 -7 -2
-13 -20 -14 -39 -1 -40 14 -48 19 -10 2 14 8 27 13 28 6 1 11 -29 12 -73 2
-41 7 -76 13 -78 12 -4 13 -52 2 -70 -8 -12 12 -119 28 -152 7 -16 15 -49 24
-103 3 -16 9 -34 15 -40 5 -7 11 -28 13 -47 3 -34 3 -35 16 -12 11 20 11 27
-2 47 -9 14 -16 34 -16 45 0 12 -5 30 -11 41 -6 11 -11 63 -12 115 -1 52 -5
94 -8 94 -3 0 -12 52 -19 115 -7 63 -16 115 -21 115 -5 0 -9 24 -9 53 0 31 -6
61 -15 73 -9 11 -14 42 -15 77 0 91 -21 302 -30 305 -4 2 -6 22 -5 45 2 23 6
99 9 170 3 70 8 131 10 136 3 5 6 64 7 132 1 68 4 118 6 111 8 -22 23 -2 24
31 0 31 1 31 10 7 5 -13 7 -49 5 -80 -7 -64 5 -151 19 -150 11 0 11 1 15 198
1 72 7 132 11 132 5 0 10 -51 10 -112z m-365 -340 c-12 -178 -1 -522 15 -512
5 3 8 -37 8 -88 -1 -51 -4 -79 -6 -63 -2 17 -10 55 -18 85 -8 30 -15 108 -17
173 -1 65 -5 120 -8 122 -12 7 10 385 22 385 6 0 7 -39 4 -102z m848 -934 c14
-26 26 -56 26 -68 1 -20 1 -20 14 3 13 24 14 24 25 3 6 -11 11 -26 11 -32 0
-7 9 -23 20 -37 11 -14 20 -34 20 -43 0 -10 7 -23 15 -30 8 -7 15 -21 15 -31
0 -11 7 -19 16 -19 11 0 13 -6 9 -19 -3 -11 0 -29 6 -40 10 -15 10 -25 2 -43
-9 -18 -12 -19 -12 -5 -1 9 -17 40 -37 69 -39 54 -84 148 -84 173 0 8 -6 15
-14 15 -7 0 -24 21 -37 48 -13 26 -27 49 -31 50 -14 6 -7 52 8 52 1 0 14 -21
28 -46z m-246 -886 c5 -7 13 -42 17 -78 5 -39 15 -75 26 -89 11 -13 19 -32 19
-42 0 -28 42 -109 53 -102 6 4 7 -4 4 -19 -5 -17 -2 -30 8 -38 8 -7 15 -25 15
-40 0 -15 7 -33 15 -40 8 -7 15 -21 15 -30 0 -10 5 -20 11 -22 7 -2 8 -14 1
-38 -10 -33 -10 -33 -11 -8 -1 18 -10 33 -26 44 -14 9 -25 22 -25 29 0 12 -40
93 -94 190 -22 39 -28 65 -33 139 -3 52 -11 101 -19 113 -8 12 -14 27 -14 33
0 14 25 13 38 -2z m883 -92 c34 -36 65 -51 75 -34 3 5 -3 18 -15 29 -26 25
-27 39 -1 39 14 0 20 -7 20 -24 0 -13 4 -26 8 -28 4 -1 23 -32 41 -68 31 -60
108 -167 156 -216 45 -47 90 -99 95 -110 3 -7 30 -40 60 -74 56 -63 88 -120
69 -120 -6 0 -13 9 -16 20 -3 11 -8 20 -12 20 -11 0 -121 106 -121 117 0 6
-21 33 -47 60 -52 54 -116 130 -121 142 -1 4 -36 42 -76 84 -41 42 -77 85 -81
96 -3 11 -15 23 -26 26 -10 4 -24 15 -29 26 -6 10 -17 19 -25 19 -8 0 -15 7
-15 15 0 25 27 17 61 -19z m-2281 -431 c14 -8 49 -14 78 -15 59 0 164 -42 196
-78 11 -12 23 -22 29 -22 5 0 18 -11 29 -25 11 -14 32 -32 47 -39 15 -8 33
-26 41 -40 7 -14 19 -26 26 -26 7 0 18 -9 24 -20 6 -11 24 -27 40 -35 18 -9
30 -23 30 -35 0 -25 -25 -26 -39 -2 -10 16 -10 16 -11 0 0 -11 10 -20 25 -24
l25 -6 -1 -557 c0 -306 -4 -608 -9 -671 -5 -63 -12 -342 -15 -620 -5 -457 -14
-731 -45 -1350 -19 -385 -30 -702 -25 -710 10 -16 6 -438 -5 -522 -5 -46 -17
-162 -25 -258 -9 -96 -20 -209 -26 -250 -6 -41 -11 -97 -11 -125 1 -27 -3 -95
-9 -150 -8 -90 -12 -102 -37 -123 -15 -13 -76 -70 -137 -126 -60 -57 -134
-124 -163 -149 l-53 -47 -307 -2 c-421 -4 -774 2 -852 14 -36 5 -105 13 -154
18 -49 5 -141 19 -205 30 -64 11 -165 26 -226 35 -110 14 -387 61 -415 70 -8
2 -58 9 -110 15 -52 6 -108 15 -125 20 -16 4 -68 18 -115 30 -47 12 -110 35
-141 51 -31 16 -66 29 -77 29 -12 0 -34 17 -54 42 l-33 42 1 121 c1 115 19
219 43 249 14 16 31 121 31 190 1 72 21 168 45 215 17 31 18 59 12 330 -3 163
-2 348 4 411 26 328 34 492 31 685 -1 72 -1 164 -1 205 0 41 -1 148 -3 237 -3
149 -2 163 16 176 17 12 18 19 7 63 -7 31 -9 96 -6 179 3 72 7 213 9 315 2
122 8 209 18 255 9 39 21 97 28 130 6 33 16 78 21 100 5 22 14 71 20 109 6 38
19 92 29 120 10 28 24 87 30 131 6 44 14 97 17 117 3 21 12 43 19 49 9 7 14
32 14 69 0 54 20 142 41 182 5 10 9 28 9 40 0 12 7 59 16 103 8 44 20 105 26
135 5 30 20 87 31 125 18 56 26 71 43 73 12 2 30 12 40 23 9 10 27 19 38 19
12 0 38 8 59 19 20 10 81 31 134 46 98 27 130 42 167 77 11 10 23 18 28 18 4
0 70 33 145 73 108 58 154 76 211 86 41 7 92 24 115 37 29 16 45 20 53 13 8
-7 65 -8 156 -5 228 9 214 7 368 63 90 33 97 34 150 23 74 -16 305 -3 355 20
47 22 230 25 265 5z m2824 -1922 c4 -27 8 -117 10 -201 3 -118 7 -156 18 -165
8 -7 22 -24 32 -40 16 -26 16 -29 -1 -52 -21 -29 -32 -32 -32 -7 1 38 -15 98
-30 117 -20 24 -51 112 -50 140 1 11 -3 40 -9 64 -6 25 -9 49 -6 53 12 18 23
6 26 -29 2 -20 8 -38 14 -40 12 -4 11 109 -1 147 -7 23 2 60 15 60 4 0 11 -21
14 -47z m-7713 -1363 c4 -140 8 -327 9 -415 l3 -160 -24 3 c-43 5 -48 20 -55
172 -6 122 -11 152 -31 195 -36 75 -41 82 -138 180 -67 67 -107 99 -158 123
-37 19 -65 37 -62 42 2 4 26 11 52 14 87 13 218 46 293 75 41 16 82 28 90 27
13 -1 16 -40 21 -256z m1777 -2157 c18 -21 52 -76 75 -122 23 -46 50 -97 59
-115 9 -17 17 -38 18 -46 0 -8 7 -24 15 -34 8 -11 15 -27 15 -35 0 -9 11 -36
24 -61 13 -25 33 -76 45 -115 12 -38 26 -78 32 -88 5 -9 20 -45 34 -80 13 -34
44 -100 69 -147 24 -47 58 -112 74 -146 16 -33 36 -67 43 -75 45 -47 107 -127
113 -146 4 -13 11 -23 16 -23 5 0 16 -21 26 -47 10 -27 21 -50 24 -53 3 -3 12
-24 20 -48 11 -35 11 -53 0 -114 -12 -62 -19 -77 -53 -110 -58 -56 -97 -54
-157 10 -25 26 -61 56 -82 67 -20 10 -49 38 -64 62 -15 24 -33 47 -39 51 -6 4
-39 57 -74 117 -57 101 -77 131 -138 204 l-21 26 -26 -28 c-14 -15 -26 -31
-27 -35 -1 -4 -2 -36 -4 -72 -2 -36 -8 -92 -13 -125 -6 -33 -8 -72 -5 -86 11
-59 -44 -166 -67 -129 -5 7 -11 41 -15 74 -11 119 -26 231 -35 266 -22 89 -42
158 -56 190 -15 34 -67 105 -91 125 -6 6 -22 29 -34 53 -12 24 -30 49 -40 55
-11 7 -19 15 -19 20 0 4 -18 46 -41 93 -46 96 -47 131 -4 183 14 16 25 37 25
47 1 45 79 194 102 194 4 0 8 6 8 14 0 8 3 16 8 18 4 2 30 34 59 71 71 93 146
177 158 177 5 0 25 -17 43 -37z m3900 -3992 c185 -1 243 -4 246 -13 24 -88 41
-128 63 -153 34 -36 93 -65 133 -65 39 0 44 -22 37 -164 -12 -232 -107 -471
-270 -676 -7 -8 -20 -27 -29 -42 -10 -15 -40 -51 -67 -80 -28 -29 -58 -62 -69
-73 -22 -24 -74 -65 -82 -65 -10 0 -132 122 -170 170 -19 24 -47 58 -61 75
-14 16 -32 41 -39 54 -6 13 -27 43 -45 66 -32 43 -46 69 -105 200 -17 39 -35
79 -40 90 -36 79 -62 275 -51 385 l6 55 49 7 c84 12 159 89 172 176 8 53 13
59 51 56 16 -1 137 -2 271 -3z m-1641 -130 c34 -11 71 -26 83 -33 39 -23 121
-112 142 -153 23 -44 47 -134 48 -177 l0 -26 -137 -4 c-76 -2 -145 -2 -155 0
-9 2 -19 18 -23 40 -9 49 -69 108 -119 118 -87 16 -173 -36 -218 -131 -79
-170 -51 -388 57 -436 45 -21 107 -24 153 -8 34 12 90 85 99 132 l6 27 164 0
165 0 -7 -47 c-15 -103 -50 -169 -135 -259 -76 -81 -233 -134 -393 -134 -74 0
-189 26 -249 56 -74 38 -169 142 -199 220 -47 126 -50 364 -5 494 18 52 73
143 111 183 38 41 93 87 102 87 3 0 14 7 23 15 10 9 53 26 96 40 70 21 94 24
204 21 92 -3 141 -9 187 -25z m-807 -20 c0 -16 -6 -60 -14 -98 -8 -37 -20
-108 -26 -158 -14 -118 -56 -379 -76 -480 -17 -85 -54 -173 -87 -212 -97 -111
-309 -151 -507 -96 -55 15 -73 26 -117 72 -29 30 -58 70 -65 90 -18 51 -16
270 3 282 8 5 76 9 153 9 l138 0 -7 -89 c-6 -82 -5 -91 14 -110 14 -14 34 -21
60 -21 59 0 77 32 97 171 15 111 90 587 101 642 l6 27 163 0 164 0 0 -29z
m1652 -21 c-1 -25 -25 -178 -51 -340 -27 -162 -52 -324 -56 -360 -3 -36 -10
-85 -15 -110 -5 -25 -14 -82 -21 -127 l-11 -83 -169 0 -169 0 6 48 c3 26 27
182 54 347 46 287 53 334 81 540 20 149 2 136 191 133 l163 -3 -3 -45z m-1271
-1221 c23 -16 29 -28 29 -58 0 -25 -7 -44 -20 -56 -20 -18 -20 -19 -1 -39 11
-13 20 -41 23 -74 l5 -53 -36 3 c-34 3 -36 5 -42 45 -7 59 -24 75 -73 71 l-41
-3 -3 -58 c-3 -58 -3 -58 -33 -55 l-30 3 0 143 c0 78 1 144 1 147 0 3 43 5 96
5 81 0 100 -3 125 -21z m474 -4 c0 -13 -8 -21 -22 -23 -28 -4 -30 -28 -3 -35
26 -7 26 -37 0 -44 -17 -5 -20 -15 -22 -92 -3 -86 -3 -86 -30 -89 l-28 -3 0
89 c0 81 -2 90 -20 95 -26 7 -26 37 -1 44 12 3 21 15 23 31 5 48 103 73 103
27z m653 3 c2 -12 -5 -19 -23 -24 -28 -7 -32 -39 -5 -39 24 0 25 -36 1 -42
-19 -5 -21 -12 -21 -95 l0 -89 -27 3 c-28 3 -28 3 -31 92 -2 78 -5 89 -22 93
-26 7 -26 33 0 40 13 3 20 14 20 29 0 12 10 30 23 39 28 20 81 16 85 -7z
m-521 -63 c4 -12 7 -12 20 0 8 8 26 15 39 15 22 0 25 -4 22 -27 -2 -21 -10
-29 -35 -35 -36 -9 -41 -21 -45 -108 -3 -52 -5 -55 -30 -58 -28 -3 -28 -2 -30
55 -5 178 -7 167 32 170 12 1 24 -5 27 -12z m288 -6 c9 -9 14 -45 16 -109 l3
-95 -89 -2 c-100 -3 -125 9 -125 58 0 37 32 65 81 72 42 6 72 24 63 38 -7 12
-64 12 -64 0 0 -11 -59 -20 -66 -10 -7 12 17 46 41 58 27 15 123 8 140 -10z
m-637 -5 c20 -14 22 -23 22 -110 l0 -95 -42 2 c-24 0 -61 -2 -83 -6 -33 -6
-45 -3 -67 15 -49 38 -26 102 39 115 58 12 78 21 78 35 0 21 -56 26 -67 6 -11
-20 -68 -22 -68 -2 0 8 12 24 26 35 33 26 128 29 162 5z"/>
<path d="M15510 17883 c-8 -3 -19 -12 -23 -19 -4 -8 -17 -14 -27 -14 -10 0
-22 -4 -25 -10 -3 -5 4 -10 16 -10 17 0 19 -3 10 -14 -10 -12 -6 -16 21 -21
18 -4 56 -9 84 -10 27 -1 54 -4 60 -7 5 -4 41 -8 79 -9 39 -2 94 -11 124 -21
69 -23 105 -24 97 -2 -3 9 -6 24 -6 35 0 13 -13 25 -37 35 -21 9 -50 23 -64
30 -14 7 -41 16 -60 19 -19 3 -50 10 -69 15 -37 11 -155 12 -180 3z"/>
<path d="M16975 17516 c-45 -12 -145 -67 -145 -78 0 -5 -7 -8 -15 -8 -8 0 -15
-4 -15 -10 0 -5 -11 -10 -25 -10 -26 0 -65 -48 -65 -81 0 -30 43 -59 88 -59
40 0 42 1 32 20 -6 12 -21 20 -35 20 -32 0 -32 15 0 36 14 9 25 22 25 28 0 25
99 94 114 79 3 -4 6 -23 6 -44 0 -48 39 -120 75 -138 30 -15 135 -7 135 10 0
6 12 22 26 36 20 20 27 39 32 85 5 58 6 59 31 53 14 -3 42 -19 61 -34 33 -26
92 -61 105 -61 31 0 -45 82 -88 96 -12 3 -29 12 -37 19 -39 34 -236 60 -305
41z"/>
<path d="M15580 17450 c-83 -13 -195 -91 -240 -168 l-21 -35 30 6 c20 4 31 2
35 -8 3 -8 10 -15 15 -15 6 0 8 7 4 16 -9 24 18 63 67 97 25 17 48 35 52 41 4
6 8 -3 8 -21 0 -40 17 -79 53 -117 15 -17 27 -34 27 -38 0 -4 20 -10 44 -13
51 -8 87 7 129 54 23 26 27 40 27 91 0 52 2 60 19 60 25 0 77 -61 86 -100 6
-28 8 -29 19 -14 18 24 30 1 14 -25 -18 -29 -4 -36 26 -14 15 10 26 28 26 42
0 35 -37 88 -67 96 -15 3 -39 15 -54 26 -64 45 -167 59 -299 39z"/>
<path d="M16227 15933 c-3 -3 -77 -5 -164 -4 -87 0 -166 -2 -175 -5 -29 -9
-21 -33 17 -51 28 -13 39 -14 60 -5 18 8 32 9 45 2 11 -6 109 -10 236 -10 208
0 220 1 298 27 92 30 92 30 82 40 -8 8 -391 15 -399 6z"/>
<path d="M18023 3781 c-29 -61 -73 -105 -140 -138 l-53 -25 0 -55 c0 -76 25
-189 62 -275 17 -40 41 -96 53 -125 12 -29 29 -63 38 -75 9 -13 42 -59 73
-103 31 -44 79 -102 106 -128 l49 -48 38 33 c21 18 49 49 62 68 13 19 32 44
42 55 22 23 77 101 77 108 0 3 15 31 33 64 38 68 90 197 107 268 7 28 14 87
17 132 l6 81 -53 27 c-30 15 -60 33 -68 41 -7 8 -17 14 -21 14 -9 0 -61 100
-61 118 0 9 -42 12 -173 12 l-172 0 -22 -49z m334 -74 c85 -40 153 -156 153
-259 0 -71 -48 -168 -110 -225 -29 -25 -138 -63 -184 -63 -50 0 -135 27 -175
54 -141 98 -164 312 -47 434 54 57 107 84 181 91 70 8 117 0 182 -32z"/>
<path d="M4880 15865 l0 -1265 195 2 195 3 3 1263 2 1262 -197 0 -198 0 0
-1265z"/>
<path d="M5574 16610 c-68 -21 -127 -73 -164 -145 -34 -66 -35 -72 -35 -179 0
-131 19 -186 89 -251 49 -47 100 -65 181 -65 84 0 135 17 135 46 0 48 -8 54
-52 38 -82 -29 -172 -7 -226 55 -54 62 -68 214 -29 311 30 73 84 112 165 118
32 2 74 0 94 -6 36 -10 37 -9 43 20 5 20 2 35 -7 45 -19 18 -150 27 -194 13z"/>
<path d="M11394 16599 c-122 -47 -196 -194 -180 -359 8 -80 54 -180 100 -215
68 -52 193 -71 276 -42 29 10 35 17 32 37 -5 47 -8 49 -49 34 -123 -43 -240
20 -271 148 -33 134 12 274 104 318 44 22 134 27 178 11 22 -9 26 -7 35 21 13
38 7 47 -45 59 -61 14 -125 10 -180 -12z"/>
<path d="M13308 16553 c-19 -5 -20 -7 -23 -63 -4 -57 -5 -60 -12 -59 -39 6
-53 -2 -53 -31 0 -27 3 -30 30 -30 17 0 30 -5 30 -12 -1 -148 9 -318 20 -340
16 -33 55 -50 106 -46 36 3 39 6 42 36 3 29 1 32 -26 32 -55 0 -62 20 -62 183
l0 146 48 3 c45 3 47 4 47 33 0 29 -1 29 -47 26 l-48 -3 0 66 c0 70 -2 72 -52
59z"/>
<path d="M13654 16440 c-84 -18 -135 -94 -142 -211 -6 -97 10 -157 52 -203 48
-52 124 -69 219 -47 49 12 50 13 42 50 -6 27 -9 29 -31 20 -40 -15 -123 -11
-155 8 -28 17 -59 75 -59 113 0 19 7 20 135 20 l135 0 0 58 c-1 132 -85 214
-196 192z m96 -90 c21 -24 35 -74 25 -90 -8 -13 -182 -13 -190 0 -10 16 21 75
51 99 35 28 86 23 114 -9z"/>
<path d="M5940 16422 c-79 -39 -126 -173 -101 -285 15 -69 60 -132 107 -152
46 -19 117 -19 153 -1 65 34 121 136 121 220 -1 89 -44 181 -103 216 -41 26
-129 27 -177 2z m125 -57 c90 -43 100 -249 14 -309 -38 -26 -91 -21 -122 12
-70 73 -60 246 17 293 38 23 49 23 91 4z"/>
<path d="M6298 16433 c-2 -4 -2 -108 0 -230 l3 -223 35 0 34 0 0 145 c0 187
21 244 90 245 30 0 41 -7 63 -40 14 -20 17 -51 17 -187 l0 -163 38 0 37 0 0
148 c0 81 3 159 8 174 15 57 78 86 118 55 34 -26 39 -55 39 -216 l0 -161 42 0
41 0 -6 174 c-6 189 -15 228 -62 264 -20 16 -42 22 -76 22 -40 0 -53 -5 -83
-34 l-36 -34 -34 34 c-29 29 -41 34 -83 34 -39 0 -55 -6 -85 -30 l-37 -30 -3
27 c-2 22 -9 29 -30 31 -14 2 -28 0 -30 -5z"/>
<path d="M6973 16431 c-4 -3 -7 -106 -5 -228 l3 -223 34 0 35 0 0 145 c0 157
9 199 51 229 32 22 72 20 95 -5 17 -19 19 -41 22 -196 l3 -174 37 3 37 3 3
162 2 161 29 31 c34 36 68 40 102 12 23 -19 24 -24 27 -195 l3 -176 40 0 39 0
0 158 c0 180 -12 235 -62 277 -45 38 -116 36 -157 -6 -17 -17 -31 -35 -31 -40
0 -5 -17 8 -38 31 -35 36 -44 40 -88 40 -41 0 -56 -6 -88 -32 l-39 -32 5 27
c3 15 2 27 -1 28 -36 5 -52 5 -58 0z"/>
<path d="M7647 16433 c-4 -3 -7 -107 -7 -230 l0 -223 35 0 34 0 3 221 c2 130
-1 224 -6 230 -11 10 -49 12 -59 2z"/>
<path d="M7885 16431 c-51 -21 -84 -100 -65 -156 14 -43 40 -69 101 -100 55
-28 75 -65 57 -103 -15 -31 -50 -42 -98 -30 -62 16 -65 15 -68 -18 -3 -28 1
-33 29 -43 42 -15 118 -14 149 2 39 19 70 74 70 122 0 55 -32 103 -91 135 -66
36 -79 49 -79 80 0 47 44 65 112 46 24 -7 29 -5 37 15 14 36 -18 59 -83 58
-28 0 -60 -4 -71 -8z"/>
<path d="M8188 16422 c-34 -20 -58 -68 -58 -114 0 -51 32 -92 99 -129 64 -33
79 -56 67 -103 -9 -38 -53 -50 -110 -31 -26 9 -50 15 -52 12 -2 -2 -7 -17 -10
-34 -5 -27 -3 -31 27 -42 78 -27 177 -3 204 50 18 34 19 108 3 144 -7 16 -40
43 -80 66 -72 42 -89 69 -69 108 15 28 52 36 96 21 42 -14 41 -14 50 22 6 24
3 29 -20 38 -40 15 -117 12 -147 -8z"/>
<path d="M8501 16425 c-29 -13 -32 -18 -26 -42 4 -16 8 -29 9 -30 1 -2 21 4
44 13 76 30 142 -2 142 -68 0 -24 -4 -28 -28 -28 -50 0 -127 -29 -154 -57 -37
-40 -48 -66 -48 -113 0 -77 49 -130 120 -130 35 0 100 27 100 41 0 5 5 9 10 9
6 0 10 -9 10 -20 0 -16 7 -20 35 -20 l35 0 0 158 c0 180 -9 223 -55 269 -31
31 -38 33 -96 33 -35 -1 -79 -7 -98 -15z m167 -279 c-4 -67 -16 -88 -63 -106
-36 -14 -42 -13 -65 10 -23 23 -27 86 -7 113 12 18 85 45 121 46 16 1 18 -6
14 -63z"/>
<path d="M8857 16433 c-4 -3 -7 -107 -7 -230 l0 -223 35 0 34 0 3 221 c2 130
-1 224 -6 230 -11 10 -49 12 -59 2z"/>
<path d="M9040 16209 l0 -229 38 0 37 0 0 143 c0 152 9 194 49 221 12 8 33 16
47 18 20 2 25 9 27 41 3 36 2 37 -31 37 -33 0 -87 -38 -87 -62 0 -5 -4 -7 -9
-4 -5 4 -8 17 -6 31 1 14 -1 25 -4 26 -3 0 -18 2 -33 4 l-28 4 0 -230z"/>
<path d="M9385 16428 c-67 -37 -104 -102 -112 -197 -8 -95 15 -167 66 -214 45
-41 88 -52 166 -44 76 8 95 20 86 54 -5 18 -14 26 -22 23 -8 -2 -44 -6 -80 -8
-59 -3 -69 -1 -97 23 -27 23 -46 67 -47 110 0 6 55 12 135 15 l135 5 3 33 c6
55 -26 143 -65 179 -31 29 -41 33 -91 33 -31 0 -66 -6 -77 -12z m120 -71 c18
-15 28 -36 32 -65 l6 -42 -97 0 c-90 0 -96 1 -96 20 0 12 7 34 15 50 32 61 93
78 140 37z"/>
<path d="M9897 16424 c-24 -13 -28 -20 -22 -42 4 -15 8 -28 9 -29 1 -2 21 4
44 13 45 18 102 13 121 -10 7 -8 15 -30 18 -50 5 -34 4 -36 -23 -36 -77 0
-160 -45 -189 -100 -19 -37 -19 -103 0 -140 18 -35 62 -60 105 -60 35 0 100
27 100 41 0 5 5 9 10 9 6 0 10 -9 10 -20 0 -16 7 -20 38 -20 l37 0 -5 177 c-6
188 -12 214 -60 258 -30 27 -152 33 -193 9z m176 -264 c-3 -65 -10 -83 -40
-104 -34 -25 -82 -25 -99 -1 -18 24 -17 85 1 108 17 23 81 47 115 44 23 -2 25
-6 23 -47z"/>
<path d="M10263 16423 c-3 -7 -3 -90 -1 -185 3 -165 5 -175 28 -210 14 -20 35
-42 48 -48 50 -22 128 -6 161 34 19 23 33 20 29 -6 -2 -19 2 -24 30 -26 l32
-3 -2 228 -3 228 -30 0 -30 0 -5 -155 c-4 -119 -9 -162 -22 -186 -21 -39 -70
-61 -106 -48 -46 16 -56 54 -62 229 l-5 160 -29 0 c-15 1 -30 -5 -33 -12z"/>
<path d="M10663 16427 c-2 -4 23 -52 56 -107 34 -54 61 -103 61 -108 0 -6 -29
-59 -64 -119 l-64 -108 35 -3 c44 -4 50 3 101 97 l40 74 20 -39 c71 -134 66
-129 117 -132 l48 -3 -17 26 c-34 51 -116 198 -116 207 0 11 89 167 108 190
20 24 7 38 -30 34 -36 -4 -48 -17 -89 -98 -16 -32 -33 -58 -37 -58 -5 0 -23
28 -41 63 -19 34 -40 70 -48 79 -15 17 -70 21 -80 5z"/>
<path d="M11790 16427 c-69 -33 -102 -98 -108 -209 -4 -80 -2 -93 23 -143 81
-166 301 -130 345 57 28 113 -13 243 -88 286 -44 25 -129 29 -172 9z m152 -89
c43 -53 52 -152 19 -223 -27 -60 -51 -77 -102 -73 -38 3 -47 8 -72 45 -55 77
-46 196 19 261 31 31 39 34 72 29 25 -5 45 -17 64 -39z"/>
<path d="M12146 16433 c-3 -3 -6 -107 -6 -230 l0 -223 35 0 35 0 0 133 c0 72
5 150 10 172 19 82 100 111 144 52 18 -25 21 -45 24 -192 l4 -165 34 0 34 0 0
158 c0 138 2 161 20 189 32 53 94 56 127 6 14 -21 18 -58 21 -190 l4 -163 35
0 35 0 -4 178 c-3 150 -6 182 -22 212 -27 50 -42 61 -86 67 -55 8 -84 -2 -121
-40 -20 -20 -33 -28 -36 -20 -13 34 -41 55 -80 60 -55 7 -89 -2 -115 -32 -28
-32 -42 -32 -36 0 3 14 2 25 -1 26 -3 0 -15 2 -27 4 -12 3 -24 2 -28 -2z"/>
<path d="M12815 16427 c-3 -7 -4 -152 -3 -322 l3 -309 32 -3 c19 -2 33 3 36
12 3 7 5 59 4 114 -1 56 -1 101 0 101 1 0 19 -11 39 -25 40 -27 82 -31 135
-14 48 16 68 37 95 94 43 91 28 264 -28 318 -35 34 -65 47 -112 47 -51 0 -107
-26 -126 -58 -7 -14 -9 -11 -10 14 0 31 -14 44 -46 44 -8 0 -17 -6 -19 -13z
m249 -87 c63 -75 60 -207 -6 -277 -32 -34 -89 -31 -130 6 -32 28 -33 33 -37
116 -2 53 2 97 9 116 31 73 118 94 164 39z"/>
<path d="M13971 16415 c-58 -50 -65 -142 -13 -190 15 -14 48 -38 75 -52 50
-28 64 -54 53 -98 -11 -44 -48 -49 -143 -20 -17 6 -23 3 -23 -8 0 -8 -3 -23
-6 -31 -8 -22 51 -46 113 -46 91 0 151 66 140 154 -7 50 -33 84 -88 116 -25
14 -53 30 -63 36 -27 16 -24 63 5 87 23 18 36 18 96 1 18 -5 23 -1 29 22 10
38 -16 54 -87 54 -47 0 -63 -5 -88 -25z"/>
<path d="M6750 15590 c0 -44 -3 -80 -7 -80 -5 0 -17 7 -27 15 -26 19 -76 19
-104 -1 -35 -24 -52 -68 -52 -133 0 -70 12 -105 43 -132 31 -27 103 -20 128
12 l17 23 4 -25 c1 -13 10 -24 18 -24 13 0 15 31 17 213 2 205 2 212 -17 212
-18 0 -20 -7 -20 -80z m-29 -101 c21 -18 24 -29 24 -89 0 -54 -4 -74 -21 -97
-42 -56 -106 -35 -122 42 -25 119 47 207 119 144z"/>
<path d="M5619 15638 c0 -7 -6 -98 -12 -201 -7 -104 -8 -191 -4 -194 21 -13
28 23 34 168 6 158 14 206 27 153 7 -29 27 -100 52 -184 7 -25 18 -64 24 -87
6 -24 17 -43 24 -43 16 0 33 43 85 223 21 70 40 124 44 120 4 -3 7 -47 7 -97
0 -50 3 -128 7 -174 5 -67 9 -82 21 -80 17 3 17 3 3 273 l-6 130 -27 3 c-16 2
-28 1 -28 -1 0 -3 -20 -71 -45 -153 -25 -81 -45 -153 -45 -161 0 -7 -4 -13 -8
-13 -4 0 -20 44 -34 98 -59 219 -62 227 -91 230 -17 2 -27 -2 -28 -10z"/>
<path d="M7422 15624 c-27 -19 -31 -50 -4 -38 9 4 36 9 58 12 35 3 44 0 58
-19 38 -55 10 -128 -95 -249 -73 -85 -70 -90 56 -90 98 0 105 1 105 20 0 18
-7 20 -69 20 -39 0 -72 3 -75 8 -2 4 12 25 31 47 82 91 114 175 93 239 -6 20
-21 43 -33 51 -28 20 -97 19 -125 -1z"/>
<path d="M7707 15619 c-72 -56 -74 -301 -4 -360 28 -23 86 -24 112 -1 47 40
68 165 45 273 -21 100 -89 139 -153 88z m84 -22 c25 -19 39 -74 39 -155 0 -94
-15 -146 -47 -163 -54 -29 -93 37 -93 158 0 135 44 204 101 160z"/>
<path d="M7963 15623 c-28 -19 -32 -49 -5 -37 9 4 36 9 60 12 40 4 43 3 57
-31 27 -64 1 -125 -108 -249 -63 -73 -58 -79 73 -76 77 3 95 6 95 18 0 11 -16
16 -68 20 -37 3 -67 10 -66 15 0 6 16 28 35 50 85 98 110 200 65 263 -20 28
-28 32 -69 31 -26 0 -57 -7 -69 -16z"/>
<path d="M8266 15617 c-21 -12 -38 -26 -37 -30 0 -4 1 -12 1 -18 0 -7 10 -5
25 5 13 9 27 16 29 16 3 0 7 -78 8 -172 3 -146 5 -173 18 -173 13 0 15 28 15
194 0 121 -4 195 -10 197 -5 2 -27 -7 -49 -19z"/>
<path d="M7137 15603 c-4 -3 -7 -20 -7 -36 0 -20 -6 -30 -20 -34 -11 -3 -20
-10 -20 -15 0 -5 9 -12 20 -15 18 -5 20 -14 20 -105 0 -124 14 -158 65 -158
44 0 46 21 5 37 l-31 12 3 108 3 108 26 -3 c17 -2 29 3 32 12 4 9 1 17 -6 18
-7 0 -16 2 -22 3 -5 2 -16 3 -22 4 -8 1 -13 15 -13 36 0 33 -16 46 -33 28z"/>
<path d="M6048 15529 c-32 -18 -19 -28 30 -23 56 7 80 -8 84 -51 3 -29 1 -30
-38 -33 -27 -2 -52 -13 -75 -31 -29 -25 -34 -34 -33 -72 2 -70 57 -99 124 -64
26 14 30 13 38 -1 21 -37 30 -2 26 94 -8 173 -17 192 -93 192 -25 0 -54 -5
-63 -11z"/>
<path d="M6284 15527 c-3 -8 -4 -75 -2 -148 3 -118 5 -134 21 -137 15 -3 17 7
17 100 0 115 11 148 53 162 22 8 31 6 52 -14 23 -21 25 -30 27 -134 3 -98 5
-111 21 -114 17 -4 18 4 15 121 -3 117 -5 127 -27 151 -30 32 -78 34 -115 5
-14 -11 -27 -18 -27 -15 -1 3 -2 11 -3 18 -2 18 -25 22 -32 5z"/>
<path d="M6893 15530 c-13 -5 -23 -16 -23 -25 0 -12 4 -14 19 -5 27 14 74 13
93 -2 9 -7 18 -25 22 -40 5 -24 3 -28 -21 -34 -101 -22 -139 -55 -129 -113 3
-18 13 -42 22 -52 21 -24 71 -25 103 -3 22 16 24 16 33 0 21 -37 28 -11 28 98
0 101 -2 117 -23 147 -19 28 -29 34 -62 36 -22 1 -50 -2 -62 -7z"/>
<path d="M10084 4377 c-43 -39 -88 -81 -100 -92 -55 -52 -134 -124 -179 -164
-28 -24 -84 -76 -125 -115 -42 -39 -121 -111 -175 -161 -116 -105 -194 -176
-285 -261 -36 -33 -90 -83 -120 -110 -30 -27 -59 -54 -65 -60 -5 -6 -59 -56
-120 -110 -60 -54 -121 -110 -135 -124 -28 -27 -214 -198 -294 -270 -28 -25
-59 -54 -71 -65 -11 -11 -47 -45 -80 -74 -33 -30 -90 -82 -126 -115 -36 -34
-112 -104 -169 -156 -57 -52 -133 -123 -170 -157 -36 -34 -77 -72 -90 -83 -42
-36 -200 -181 -280 -256 -73 -68 -138 -128 -229 -210 -49 -45 -61 -56 -197
-181 -54 -50 -111 -102 -125 -115 -99 -90 -237 -216 -339 -312 -30 -28 -102
-94 -160 -146 -58 -52 -134 -122 -170 -156 -36 -33 -94 -87 -130 -120 -36 -32
-67 -61 -70 -64 -4 -4 -199 -183 -246 -225 -6 -5 -55 -51 -110 -101 -54 -50
-112 -104 -129 -119 -60 -54 -198 -181 -239 -217 l-41 -38 200 0 200 0 45 42
c139 128 182 167 226 207 27 24 81 73 120 110 38 36 117 109 174 161 57 52
138 127 180 165 134 124 274 253 300 275 14 12 54 49 90 83 36 34 95 88 130
121 88 79 132 119 220 201 128 118 292 269 345 316 27 24 58 53 70 65 11 11
76 71 145 134 69 63 147 134 174 159 85 79 179 165 241 222 33 29 67 61 75 69
8 8 62 58 120 110 58 52 141 128 185 170 44 41 100 93 125 115 63 56 269 245
301 276 15 14 66 61 115 105 48 43 121 111 163 150 42 39 90 83 106 98 17 15
53 49 81 74 44 41 176 162 269 247 90 81 232 213 251 230 11 11 43 40 70 64
27 25 97 89 156 144 59 55 116 106 127 114 12 8 21 20 21 26 -1 7 -41 54 -89
104 l-89 93 -78 -73z"/>
<path d="M7265 3133 c-22 -20 -62 -57 -90 -82 -27 -24 -79 -72 -115 -105 -98
-92 -281 -260 -410 -376 -63 -58 -117 -107 -120 -110 -3 -3 -81 -75 -175 -160
-93 -85 -197 -180 -230 -211 -33 -30 -94 -86 -135 -124 -41 -38 -95 -87 -120
-110 -25 -22 -74 -67 -110 -100 -36 -32 -97 -88 -136 -124 -39 -36 -93 -86
-120 -111 -196 -179 -287 -262 -339 -312 -33 -31 -72 -66 -86 -77 -15 -11 -42
-35 -61 -53 -50 -49 -224 -208 -384 -353 -6 -5 -57 -53 -114 -105 -56 -52
-112 -103 -124 -113 -11 -10 -64 -58 -116 -107 -52 -49 -106 -98 -120 -110
-25 -22 -189 -172 -270 -247 l-45 -43 200 0 200 0 45 43 c35 33 182 168 276
252 31 29 227 208 284 261 36 33 89 82 119 110 30 27 62 56 71 64 9 8 65 60
125 115 60 55 113 105 119 110 7 6 39 35 71 65 101 92 258 235 305 278 44 39
71 64 180 166 31 28 85 77 120 110 120 109 135 122 270 246 74 68 162 148 195
179 33 31 105 97 159 146 55 50 112 101 126 115 15 14 44 40 66 59 21 19 68
62 104 95 93 87 287 265 345 317 27 24 61 55 75 69 14 14 63 58 108 99 45 41
82 77 82 81 0 4 -10 18 -22 32 -95 107 -144 158 -153 158 -5 0 -28 -17 -50
-37z"/>
</g>
</svg>
