<?xml version="1.0" standalone="no"?>
<!DOCTYPE svg PUBLIC "-//W3C//DTD SVG 20010904//EN"
 "http://www.w3.org/TR/2001/REC-SVG-20010904/DTD/svg10.dtd">
<svg version="1.0" xmlns="http://www.w3.org/2000/svg"
 width="2048.000000pt" height="2033.000000pt" viewBox="0 0 2048.000000 2033.000000"
 preserveAspectRatio="xMidYMid meet">
<metadata>
Created by potrace 1.16, written by Peter Selinger 2001-2019
</metadata>
<g transform="translate(0.000000,2033.000000) scale(0.100000,-0.100000)"
fill="#000000" stroke="none">
<path d="M3657 19503 c-4 -3 -7 -539 -7 -1190 l0 -1183 4005 0 4005 0 -2 1188
-3 1187 -3996 3 c-2198 1 -3999 -1 -4002 -5z m743 -610 c0 -9 25 -133 55 -277
31 -144 58 -274 62 -291 6 -29 6 -29 14 -7 5 13 20 78 34 145 39 195 85 410
91 430 5 15 19 17 115 17 l109 0 0 -460 0 -460 -64 0 c-49 0 -65 4 -70 16 -3
9 -6 165 -7 347 l-1 332 -64 -325 c-36 -179 -67 -335 -69 -347 -5 -21 -11 -23
-80 -23 l-74 0 -7 38 c-4 20 -29 147 -56 282 -27 135 -53 274 -59 309 -5 36
-12 67 -14 70 -3 2 -5 -154 -5 -347 l0 -352 -72 0 -73 0 0 460 0 460 118 0
c102 0 117 -2 117 -17z m1340 -143 c0 -88 3 -160 6 -160 4 0 14 8 23 19 53 60
141 77 215 41 90 -43 106 -111 106 -437 l0 -223 -75 0 -75 0 0 234 c0 137 -4
245 -10 263 -11 30 -45 53 -78 53 -9 0 -31 -9 -49 -20 -52 -31 -63 -87 -63
-327 l0 -203 -70 0 -70 0 0 460 0 460 70 0 70 0 0 -160z m1699 105 c12 -31 21
-59 21 -63 0 -4 50 -160 111 -347 60 -187 119 -366 129 -397 l19 -58 -82 0
-82 0 -27 89 c-16 49 -28 94 -28 100 0 8 -43 11 -152 9 l-153 -3 -27 -94 c-16
-52 -29 -96 -31 -97 -5 -5 -147 -7 -152 -3 -4 5 33 128 140 464 30 94 73 231
96 305 23 74 43 138 46 143 2 4 37 7 78 7 l74 0 20 -55z m501 -107 l0 -162 33
31 c38 38 75 53 126 53 81 0 138 -43 186 -140 24 -47 29 -71 33 -165 6 -152
-19 -254 -80 -326 -79 -91 -203 -92 -277 -2 l-31 38 0 -43 0 -42 -65 0 -65 0
0 460 0 460 70 0 70 0 0 -162z m2467 7 c1 -82 2 -154 3 -159 0 -6 15 4 33 20
76 71 179 74 250 6 49 -47 57 -99 57 -379 l0 -253 -70 0 -70 0 0 213 c-1 297
-10 332 -90 332 -48 0 -82 -30 -99 -84 -7 -24 -11 -119 -11 -249 l0 -210 -65
-4 c-36 -1 -70 -1 -75 0 -6 2 -10 172 -10 463 l0 460 73 -3 72 -3 2 -150z
m-5024 -115 c69 -47 71 -58 78 -330 4 -135 12 -260 18 -279 6 -19 9 -37 7 -40
-2 -3 -34 -4 -70 -3 -65 4 -67 5 -73 33 -7 35 -14 36 -39 8 -46 -51 -136 -73
-201 -48 -74 28 -122 124 -109 222 13 93 58 145 149 171 184 54 172 48 175 85
7 75 -83 109 -147 55 -17 -14 -31 -32 -31 -40 0 -17 -26 -18 -86 -3 -50 13
-52 20 -25 81 39 89 101 120 233 115 71 -3 92 -7 121 -27z m1191 9 c16 -8 43
-31 60 -52 l31 -39 5 -256 c4 -189 9 -263 19 -281 18 -32 6 -37 -71 -31 -60 5
-63 6 -66 33 -4 33 -6 33 -46 0 -96 -81 -216 -68 -279 30 -23 35 -27 52 -27
116 0 126 43 177 185 216 128 35 145 44 145 76 0 45 -39 79 -90 79 -41 0 -70
-19 -96 -65 -9 -17 -15 -18 -69 -7 -32 7 -60 14 -62 16 -2 2 4 23 13 47 22 57
78 115 123 128 49 14 189 8 225 -10z m2182 6 c116 -35 194 -167 194 -330 0
-251 -174 -410 -368 -337 -66 25 -108 66 -144 136 -53 105 -51 292 6 401 62
119 182 169 312 130z m1269 -4 c23 -10 54 -33 69 -52 33 -39 69 -117 62 -134
-2 -7 -24 -15 -48 -19 -23 -4 -52 -9 -64 -12 -17 -4 -22 2 -32 33 -12 39 -53
73 -89 73 -10 0 -32 -9 -50 -20 -84 -51 -86 -324 -2 -394 36 -30 60 -32 100
-9 27 16 44 45 51 88 4 22 37 25 111 11 34 -6 37 -9 31 -34 -12 -50 -45 -117
-72 -145 -49 -53 -97 -70 -176 -65 -77 5 -121 23 -161 66 -139 146 -116 504
38 597 65 39 167 46 232 16z m1215 -4 c34 -17 51 -34 70 -72 24 -49 25 -56 25
-270 1 -147 5 -235 14 -264 7 -23 11 -44 9 -46 -4 -4 -71 -7 -111 -6 -22 1
-29 7 -33 31 -4 17 -9 30 -12 30 -2 0 -22 -15 -43 -34 -42 -38 -102 -53 -166
-41 -90 17 -147 133 -123 250 20 95 69 134 217 170 76 19 114 39 109 58 -3 6
-7 24 -10 38 -6 29 -42 49 -86 49 -31 0 -90 -43 -90 -66 0 -17 -13 -17 -80 -3
-32 7 -50 16 -50 25 0 22 45 107 68 127 56 51 213 64 292 24z m-1700 -328 l0
-329 -65 0 -65 0 0 42 0 42 -36 -38 c-88 -93 -223 -88 -282 13 l-27 46 -3 278
-3 277 70 0 71 0 0 -232 c0 -202 2 -238 18 -267 32 -64 108 -63 155 3 21 30
22 42 25 263 l4 232 61 3 c34 2 65 2 70 0 4 -2 7 -151 7 -333z"/>
<path d="M7336 18659 c-3 -8 -17 -54 -31 -104 -14 -49 -33 -111 -41 -137 -8
-26 -14 -52 -14 -57 0 -7 35 -11 95 -11 52 0 95 2 95 5 0 13 -89 308 -95 313
-2 3 -7 -1 -9 -9z"/>
<path d="M7995 18507 c-44 -44 -58 -101 -53 -208 6 -99 27 -153 72 -181 60
-37 124 -1 147 85 6 23 9 86 7 142 -3 82 -7 107 -25 136 -41 66 -98 76 -148
26z"/>
<path d="M5226 18276 c-77 -26 -86 -35 -86 -89 0 -41 35 -87 65 -87 30 0 81
28 98 53 21 32 24 147 5 147 -7 0 -44 -11 -82 -24z"/>
<path d="M6432 18276 c-70 -26 -91 -47 -92 -89 0 -33 48 -87 78 -87 33 0 86
44 99 80 7 19 12 54 12 78 1 50 -5 52 -97 18z"/>
<path d="M8614 18515 c-47 -36 -64 -90 -64 -195 0 -106 17 -158 65 -194 40
-31 69 -33 113 -6 47 29 72 94 73 189 1 120 -20 178 -74 211 -43 26 -75 25
-113 -5z"/>
<path d="M11096 18276 c-76 -26 -86 -36 -86 -86 0 -70 52 -104 115 -74 46 21
61 48 70 122 8 74 7 74 -99 38z"/>
<path d="M16417 19489 c-118 -10 -175 -27 -241 -74 -38 -27 -60 -35 -91 -35
-52 0 -94 -27 -193 -124 -76 -74 -102 -111 -102 -145 0 -18 -3 -19 -24 -10
-35 16 -74 -9 -170 -105 -54 -55 -92 -105 -115 -149 -19 -37 -39 -71 -45 -77
-7 -5 -25 -37 -41 -72 -17 -35 -33 -64 -37 -66 -5 -2 -8 -8 -8 -14 0 -5 -17
-47 -39 -92 -21 -44 -41 -92 -45 -106 -4 -14 -11 -34 -16 -45 -19 -41 -110
-330 -110 -350 0 -11 -7 -49 -15 -85 -8 -36 -24 -135 -35 -220 -12 -85 -32
-222 -45 -305 -13 -82 -26 -175 -30 -205 -6 -49 -59 -383 -84 -530 -5 -30 -13
-80 -16 -110 -4 -30 -18 -120 -31 -200 -29 -175 -29 -186 -5 -241 30 -68 44
-327 38 -694 -5 -321 -15 -425 -57 -565 -23 -75 -44 -110 -68 -110 -10 0 -26
-6 -37 -14 -11 -7 -49 -20 -83 -29 -35 -9 -70 -21 -76 -27 -7 -5 -58 -21 -112
-35 -54 -13 -179 -51 -278 -84 l-178 -59 -65 -65 c-36 -36 -88 -82 -117 -102
-28 -21 -60 -49 -71 -63 -28 -39 -26 -149 8 -306 34 -162 34 -188 -2 -317 -86
-306 -103 -384 -108 -495 -5 -93 -2 -123 17 -195 88 -332 109 -558 75 -793 -8
-55 -19 -150 -24 -211 -6 -60 -17 -159 -26 -220 -26 -193 -14 -442 26 -546 6
-14 17 -120 25 -235 8 -115 16 -227 19 -249 3 -22 6 -82 9 -132 3 -71 1 -93
-9 -93 -25 0 -26 -33 -1 -59 24 -26 49 -94 38 -105 -3 -3 3 -15 13 -26 9 -10
15 -26 12 -35 -4 -9 -1 -15 7 -15 9 0 23 -27 36 -66 16 -46 25 -62 31 -53 6
10 9 6 9 -13 0 -16 -4 -28 -8 -28 -4 0 -5 -32 -1 -70 7 -85 -3 -149 -27 -167
-14 -10 -19 -10 -29 3 -8 11 -19 14 -33 10 -27 -9 -28 -22 -2 -29 14 -4 18
-10 13 -23 -6 -15 -9 -15 -28 8 -32 37 -54 33 -45 -9 5 -18 14 -40 20 -49 7
-8 10 -17 7 -20 -10 -11 -39 26 -41 51 -1 32 -4 31 -17 -2 -7 -16 -13 -23 -16
-15 -7 20 -17 14 -32 -18 -16 -38 -9 -70 31 -128 33 -48 67 -66 143 -77 28 -4
55 -11 60 -15 6 -4 33 -10 60 -13 76 -7 195 -36 243 -59 37 -17 47 -18 72 -8
17 7 40 9 52 6 13 -4 55 -9 93 -12 39 -3 91 -12 117 -19 26 -8 79 -17 117 -21
57 -5 72 -10 76 -25 6 -19 53 -49 75 -49 7 0 26 -6 43 -13 41 -18 151 -47 201
-54 22 -3 46 -12 54 -19 19 -19 76 -18 115 3 18 9 37 16 43 15 7 -1 24 12 39
30 l27 32 111 -13 c62 -6 181 -18 266 -26 212 -20 217 -21 231 -56 7 -16 16
-30 21 -30 5 -1 15 -2 22 -3 6 0 16 -11 22 -23 5 -13 17 -23 26 -23 9 0 32 -6
50 -14 39 -16 173 -11 162 7 -4 7 0 7 13 2 10 -5 66 -8 123 -8 85 0 105 3 113
17 11 20 32 22 25 2 -4 -9 4 -15 23 -18 31 -5 52 3 51 18 0 5 18 8 40 7 34 -2
39 0 29 13 -11 12 -6 14 31 15 24 1 67 3 95 5 60 4 257 -25 484 -71 72 -14
119 -16 315 -10 202 5 235 4 270 -10 21 -10 45 -24 51 -34 11 -14 17 -11 54
28 38 40 44 43 78 36 20 -3 66 -8 102 -10 36 -3 66 -9 68 -15 2 -5 8 -10 13
-10 6 0 7 4 4 10 -6 10 9 15 30 10 6 -1 42 -4 81 -6 65 -3 72 -2 77 16 4 17 9
19 32 10 33 -13 65 -13 65 0 0 5 -10 19 -22 30 -19 17 -20 23 -9 30 25 15 5
256 -36 446 l-15 71 60 61 60 62 35 -73 c58 -119 73 -190 48 -221 -17 -21 -32
-188 -22 -242 13 -64 33 -121 60 -164 11 -19 21 -42 21 -51 0 -20 26 -56 35
-48 3 4 -3 26 -14 50 -11 24 -20 64 -20 89 1 25 -4 94 -9 153 -8 87 -8 113 3
134 l14 26 6 -26 c4 -15 11 -27 15 -27 4 0 15 -18 24 -40 9 -22 20 -40 26 -40
11 0 6 27 -16 95 -7 22 -16 96 -19 164 l-6 124 -46 53 c-26 30 -50 54 -54 54
-6 0 -27 50 -30 70 -1 3 -10 28 -21 55 -26 67 -32 131 -13 139 11 4 13 11 5
31 -6 16 -6 25 0 25 6 0 10 12 10 26 0 14 -4 23 -10 19 -5 -3 -10 0 -10 8 0 8
14 20 30 26 20 6 30 17 30 30 0 27 10 51 22 51 6 0 8 -11 6 -25 -4 -17 -1 -25
8 -25 8 0 14 5 14 10 0 6 8 2 18 -8 34 -36 82 -101 82 -112 0 -6 18 -30 40
-52 22 -23 40 -46 40 -50 0 -4 8 -8 18 -8 10 0 31 -18 48 -40 16 -22 33 -40
37 -40 5 0 22 -14 38 -31 30 -32 54 -33 31 -1 -6 9 -23 37 -37 62 -14 25 -36
63 -50 85 -13 22 -34 56 -45 75 -19 34 -74 113 -105 155 -18 23 -20 49 -2 39
6 -4 23 -16 36 -28 l24 -21 -12 23 c-6 12 -15 22 -20 22 -4 0 -16 17 -27 38
-10 20 -31 52 -47 70 -16 20 -24 38 -20 45 12 19 33 80 33 99 0 9 -11 29 -24
43 -16 17 -24 38 -24 65 -1 42 8 50 28 25 7 -8 16 -15 21 -15 5 0 9 7 9 15 0
8 -4 15 -9 15 -11 0 -51 80 -51 101 0 8 9 32 20 53 10 22 17 44 13 49 -4 6 0
8 10 4 20 -8 27 13 18 54 -9 38 -36 95 -49 101 -4 1 -16 32 -25 67 -17 59 -17
65 -1 82 9 10 13 23 8 30 -13 22 -11 220 3 215 13 -5 9 44 -9 102 -7 23 -6 37
2 47 7 8 9 26 6 42 -7 33 8 96 17 73 4 -8 8 -35 9 -60 3 -40 5 -45 26 -42 18
3 22 -2 23 -25 1 -15 6 6 11 47 5 41 6 87 4 103 -3 15 -1 27 5 27 5 0 -1 10
-15 23 -28 26 -50 111 -22 88 9 -8 16 -12 17 -10 0 2 3 30 6 62 4 47 2 57 -11
57 -11 0 -16 -9 -16 -26 0 -21 -3 -24 -14 -15 -13 11 -46 5 -46 -8 1 -3 5 -25
9 -48 l8 -43 -41 0 -41 0 -1 40 c-1 22 2 37 7 34 5 -2 11 8 15 23 10 41 14 45
30 32 7 -6 22 -8 31 -5 14 6 15 9 4 16 -8 4 -11 15 -8 23 3 9 -1 18 -9 21 -9
4 -18 -3 -24 -17 -10 -25 -13 -4 -4 31 8 28 40 29 50 0 l6 -21 14 24 c9 15 13
19 14 8 0 -8 6 -23 13 -34 11 -14 16 -15 22 -5 5 9 4 11 -3 6 -8 -5 -12 4 -12
30 0 30 2 34 14 25 10 -9 15 -8 19 3 3 8 -1 20 -8 26 -10 8 -12 17 -5 29 5 10
7 31 4 49 -5 34 -15 23 145 163 47 41 113 108 149 149 136 159 183 273 206
498 22 211 65 410 126 587 48 138 90 269 90 281 0 6 -19 24 -42 40 -24 15 -65
47 -93 70 -63 52 -213 153 -282 188 -28 15 -57 34 -64 42 -6 8 -16 14 -21 14
-5 0 -28 13 -51 28 -23 16 -68 43 -101 61 -72 39 -260 166 -296 201 -27 25
-28 28 -33 185 -5 140 -24 337 -56 595 -5 41 -21 139 -35 216 -14 78 -32 215
-41 305 -8 90 -17 173 -20 184 -2 11 -11 95 -20 185 -9 91 -25 257 -36 370
-11 113 -24 256 -29 318 -5 62 -16 167 -24 235 -8 67 -18 174 -21 237 -7 127
-19 224 -40 315 -8 33 -22 94 -31 135 -43 195 -154 482 -281 725 -36 69 -150
251 -191 304 -99 130 -237 257 -374 344 -127 80 -338 167 -444 183 -27 3 -82
20 -122 35 -47 19 -107 33 -165 39 -51 5 -94 9 -97 8 -3 0 -49 -4 -103 -9z
m-15 -705 c32 -20 38 -21 49 -8 7 8 18 13 25 10 7 -3 15 0 17 7 5 15 57 -32
57 -51 0 -7 4 -11 9 -8 5 3 20 -3 35 -15 14 -11 35 -22 47 -24 12 -3 24 -7 27
-10 3 -2 11 0 18 6 9 7 14 4 19 -13 17 -51 36 -57 201 -63 98 -3 144 -14 144
-36 0 -6 -5 -7 -12 -3 -7 4 -8 3 -4 -4 4 -7 21 -12 39 -12 18 0 46 -1 62 -3
17 -2 43 -5 58 -5 23 -2 27 -6 22 -21 -4 -14 3 -25 25 -41 16 -12 35 -18 40
-15 6 4 18 4 28 0 14 -5 14 -7 2 -16 -12 -8 -12 -12 -2 -16 16 -6 52 -76 52
-101 0 -11 11 -27 24 -35 14 -9 24 -26 24 -39 0 -13 3 -55 7 -94 4 -47 3 -74
-4 -79 -15 -8 -14 -82 1 -87 17 -6 1 -58 -18 -58 -10 0 -13 -6 -9 -19 7 -24
-17 -30 -134 -37 -164 -9 -184 -14 -220 -60 -14 -17 -21 -41 -21 -68 0 -23 -7
-52 -16 -64 -15 -22 -15 -24 1 -36 16 -12 15 -15 -14 -35 -61 -44 -89 -76 -95
-112 -3 -19 -15 -45 -27 -57 -12 -13 -17 -27 -12 -35 4 -6 11 -43 15 -82 5
-38 12 -99 18 -135 5 -36 11 -79 13 -96 3 -17 1 -37 -3 -43 -4 -7 -4 -31 1
-54 4 -23 3 -44 -1 -47 -5 -3 -5 -12 0 -20 5 -8 7 -24 4 -36 -3 -12 1 -26 10
-33 9 -8 16 -28 16 -45 0 -47 23 -73 72 -81 47 -8 71 -26 62 -48 -10 -27 -94
-38 -94 -12 0 17 -22 11 -62 -18 -38 -28 -178 -58 -178 -38 0 6 -7 11 -15 11
-7 0 -18 7 -23 16 -7 12 -29 16 -108 17 -89 2 -99 0 -102 -17 -3 -13 0 -16 10
-11 7 3 4 0 -6 -9 -15 -12 -17 -18 -7 -30 15 -18 102 -47 158 -51 25 -2 50 -9
58 -15 23 -19 107 -23 151 -8 38 14 44 13 65 -3 13 -10 32 -19 42 -19 33 0 57
-20 57 -46 0 -16 5 -24 13 -21 6 2 11 11 9 21 -2 9 2 16 8 16 8 0 10 13 5 40
-4 26 -3 40 4 40 6 0 11 5 11 12 0 6 6 19 14 27 39 45 35 201 -6 201 -13 0
-18 8 -18 29 0 17 -11 42 -25 59 -16 19 -21 32 -14 39 12 12 -10 56 -44 86
-32 27 -47 77 -24 77 9 0 19 -4 22 -10 8 -13 82 -13 87 0 3 9 62 -7 113 -30
61 -27 94 -34 109 -21 13 11 16 11 16 -3 0 -18 4 -19 49 -10 24 5 31 12 31 30
0 27 17 32 26 9 4 -9 19 -15 35 -15 24 0 29 -4 29 -23 0 -31 8 -38 29 -25 25
16 66 -19 46 -39 -8 -7 -20 -13 -27 -13 -9 -1 -7 -5 5 -14 11 -9 17 -27 17
-54 0 -27 5 -42 16 -46 14 -5 16 -21 10 -124 -8 -159 -10 -169 -35 -231 -18
-43 -21 -71 -20 -150 1 -53 -1 -114 -5 -136 -4 -22 -9 -55 -12 -72 -3 -20 -11
-33 -19 -33 -11 0 -15 -13 -16 -42 -1 -24 -1 -47 0 -51 1 -5 -2 -6 -7 -3 -5 3
-24 -10 -42 -29 -29 -30 -31 -35 -15 -35 16 0 12 -7 -18 -32 -20 -18 -37 -41
-37 -50 0 -10 -9 -23 -20 -30 -11 -7 -20 -23 -20 -36 0 -18 -10 -27 -40 -40
-29 -13 -40 -23 -40 -39 0 -12 -12 -34 -26 -48 -14 -14 -23 -32 -20 -40 3 -9
-3 -19 -14 -25 -11 -6 -20 -17 -20 -24 0 -7 -18 -20 -40 -29 -22 -8 -40 -22
-40 -30 0 -7 -11 -19 -25 -25 -14 -6 -25 -16 -25 -22 0 -5 -7 -10 -15 -10 -8
0 -15 -4 -15 -9 0 -5 -15 -4 -35 2 -37 11 -59 3 -35 -14 11 -8 9 -9 -10 -4
-14 4 -29 11 -34 16 -13 12 -46 11 -46 -1 0 -14 -36 -12 -60 2 -16 10 -24 10
-40 0 -25 -15 -72 -16 -88 0 -8 8 -15 8 -27 -2 -23 -19 -85 -24 -85 -7 0 10
-14 14 -47 14 -107 -1 -133 3 -133 18 0 8 -13 17 -32 20 -18 3 -42 8 -53 10
-11 2 -37 4 -57 4 -20 1 -43 8 -52 16 -8 8 -22 15 -30 15 -9 0 -16 3 -16 8 0
4 -15 13 -32 20 -63 26 -80 36 -107 67 -32 34 -88 68 -102 60 -5 -4 -6 0 -3 8
6 17 -40 57 -66 57 -11 0 -20 10 -24 25 -4 16 -13 25 -26 25 -11 0 -20 5 -20
10 0 6 -7 10 -15 10 -8 0 -15 7 -15 15 0 8 -4 15 -9 15 -5 0 -16 16 -25 35 -9
19 -21 35 -26 35 -24 0 -86 163 -111 290 -6 30 -15 75 -20 100 -5 25 -14 97
-19 160 -6 63 -13 122 -16 130 -3 8 -6 60 -8 117 -1 57 -5 105 -7 108 -8 7 0
291 11 390 14 131 19 163 31 225 20 97 28 154 28 206 1 33 6 56 16 64 8 7 15
25 15 41 0 15 5 31 10 34 6 3 10 17 10 30 0 33 36 95 71 123 18 14 29 33 29
48 0 15 6 24 15 24 8 0 15 6 15 13 0 7 9 18 20 25 11 7 20 19 20 26 0 8 6 17
13 20 6 3 -1 3 -17 -1 -25 -5 -27 -4 -18 13 23 45 41 92 51 129 19 75 24 100
23 108 -1 4 9 25 23 47 14 22 25 42 25 46 0 3 18 24 40 46 22 22 40 45 40 52
0 6 -12 -1 -25 -16 -13 -16 -29 -28 -34 -28 -11 0 -3 29 13 46 6 7 20 24 30
38 11 15 29 26 41 26 21 0 29 12 40 59 8 33 51 62 103 68 46 5 52 9 52 29 0
27 22 34 68 22 38 -11 52 -4 52 23 0 19 4 19 63 13 37 -4 76 -16 99 -30z
m-988 -2193 c14 -90 11 -112 -17 -137 -31 -26 -61 -31 -74 -11 -10 17 -10 41
1 49 5 3 3 16 -6 30 -14 21 -14 26 3 57 21 40 33 49 64 49 19 0 25 -7 29 -37z
m690 -1556 c66 -33 105 -43 119 -29 3 3 32 6 65 7 33 1 55 -1 49 -5 -8 -5 -8
-8 -1 -8 6 0 16 -11 22 -25 12 -25 42 -35 42 -14 0 8 23 9 77 4 60 -5 84 -13
105 -30 24 -20 36 -23 85 -20 l58 4 -70 -18 c-68 -18 -69 -19 -42 -30 39 -15
63 -14 82 5 15 15 17 15 30 -2 8 -11 15 -26 15 -34 1 -8 3 -28 4 -44 1 -21 -8
-38 -35 -65 -53 -51 -56 -72 -19 -109 31 -31 40 -62 18 -62 -14 0 -68 -39 -55
-40 14 0 175 79 214 106 l38 25 7 -27 c4 -15 2 -36 -3 -46 -6 -11 -8 -22 -5
-26 11 -11 27 14 33 54 6 38 17 52 58 76 14 8 12 3 -8 -22 -15 -18 -25 -35
-22 -39 4 -3 11 2 16 12 6 9 16 17 23 17 8 0 19 7 26 15 7 8 16 15 20 15 16 0
-13 -287 -33 -324 -9 -18 -37 -138 -33 -143 5 -6 37 69 53 125 17 60 33 81 33
44 0 -10 5 -23 12 -30 7 -7 11 -43 11 -89 0 -43 4 -84 10 -90 6 -9 6 -13 -1
-13 -11 0 -34 -44 -47 -87 -4 -17 -2 -23 8 -23 8 0 17 10 21 23 3 13 16 36 29
51 28 33 33 26 43 -60 4 -30 11 -54 17 -54 14 0 -1 -84 -31 -164 -20 -56 -26
-92 -28 -171 -2 -108 -10 -137 -51 -192 -27 -36 -28 -36 -34 -12 l-6 24 -12
-25 c-6 -14 -15 -32 -20 -40 -5 -8 -19 -38 -31 -65 -26 -61 -66 -91 -136 -100
-62 -8 -96 6 -143 60 -38 44 -40 65 -5 65 23 0 25 2 13 16 -7 8 -20 14 -29 11
-20 -5 -41 18 -34 37 4 11 0 16 -10 16 -10 0 -16 -9 -17 -27 -2 -27 -2 -27 -6
-3 -2 14 -13 44 -24 67 -10 24 -19 47 -19 51 0 5 -14 29 -32 53 -17 24 -81
141 -141 259 -60 118 -113 219 -117 223 -4 5 -27 -5 -51 -22 -47 -31 -56 -32
-44 -4 13 30 5 116 -13 151 -17 32 -10 65 14 68 5 1 23 7 39 14 27 11 30 16
27 51 -2 21 -10 43 -18 50 -8 6 -14 23 -14 36 0 22 4 25 26 20 34 -6 44 21 44
119 0 59 -3 74 -15 74 -8 0 -15 -5 -15 -12 0 -9 -3 -9 -12 0 -8 8 -15 8 -24 1
-7 -6 -18 -8 -24 -4 -16 10 28 45 57 45 12 0 23 5 23 10 0 11 -24 13 -69 4
-24 -5 -31 -12 -31 -31 0 -14 -4 -21 -10 -18 -14 9 -12 42 3 48 8 3 6 10 -8
21 -11 8 -15 16 -10 16 6 0 12 14 13 31 2 19 -2 28 -8 24 -5 -3 -10 -15 -10
-25 0 -42 -27 -30 -75 34 -27 35 -30 47 -31 118 -1 45 -7 85 -14 93 -15 17 -5
65 13 65 6 0 43 -16 81 -35z m-2279 -4125 c16 -63 36 -138 46 -167 17 -50 14
-101 -8 -153 -3 -8 -6 -22 -5 -30 1 -8 -2 -6 -7 5 -24 56 -34 107 -37 189 -3
50 -7 102 -11 116 -3 14 -7 42 -9 64 -1 21 -5 55 -9 75 -4 23 -3 32 3 26 5 -5
22 -62 37 -125z m205 -473 c0 -10 -4 -16 -9 -13 -17 11 -31 -22 -40 -95 -5
-40 -8 -76 -5 -80 2 -4 0 -10 -5 -13 -13 -8 -24 30 -17 59 6 24 -1 55 -13 55
-12 0 -6 -115 6 -123 7 -4 10 -14 8 -22 -3 -8 -7 -22 -10 -31 -3 -8 -10 -12
-15 -9 -8 5 -8 11 -1 19 8 9 6 18 -4 32 -8 10 -15 34 -15 53 0 24 -4 32 -14
28 -9 -4 -16 3 -18 18 -4 16 -1 22 9 18 7 -3 13 -10 13 -16 0 -6 3 -8 6 -4 3
3 7 39 9 79 1 40 8 93 15 117 l14 44 43 -49 c23 -27 43 -57 43 -67z m1231
-624 c0 -22 2 -24 8 -10 6 16 9 16 30 -7 13 -14 21 -32 18 -40 -3 -8 2 -16 14
-19 15 -4 19 -14 19 -44 0 -26 3 -34 9 -24 5 8 7 21 4 30 -3 10 0 9 8 -3 13
-21 13 -161 0 -216 -5 -19 -9 -29 -10 -22 -1 14 -37 16 -46 2 -4 -7 -13 -7
-26 0 -23 13 -16 30 12 30 23 0 24 4 2 30 -24 27 -48 27 -33 0 6 -11 7 -20 1
-20 -5 0 -11 7 -15 15 -3 8 -15 15 -26 15 -11 0 -20 5 -20 10 0 6 9 10 20 10
13 0 20 7 20 20 0 21 15 27 25 10 3 -5 13 -10 20 -10 12 0 12 6 -3 38 -9 20
-21 40 -27 44 -7 5 -6 14 3 28 18 29 15 43 -18 80 -35 40 -40 80 -10 80 15 0
20 -7 21 -27z m867 -120 c-3 -21 -2 -49 2 -63 6 -21 4 -25 -16 -26 -13 -1 -24
2 -24 8 0 5 -4 6 -10 3 -5 -3 -10 -16 -10 -27 0 -12 -10 -32 -22 -45 -15 -17
-19 -26 -11 -31 17 -10 -12 -46 -31 -39 -10 4 -13 1 -9 -9 6 -16 33 -19 33 -3
0 6 6 9 13 6 6 -2 11 -14 9 -25 -3 -17 2 -22 20 -23 13 -1 16 -3 8 -5 -20 -6
-42 -52 -27 -57 7 -2 7 -11 2 -23 -4 -10 -7 -25 -6 -31 1 -7 -6 -13 -16 -13
-17 -1 -17 -2 1 -15 16 -12 17 -17 6 -31 -13 -15 -15 -15 -26 1 -6 9 -9 25 -6
37 4 17 2 20 -11 15 -19 -7 -32 8 -21 24 4 8 9 8 17 0 16 -16 37 -13 37 5 0 8
-4 13 -8 10 -10 -6 -52 38 -52 54 0 6 5 10 10 10 6 0 10 -7 10 -15 0 -25 37
-18 42 8 4 18 0 22 -20 22 -19 0 -27 9 -39 39 -9 21 -12 41 -7 45 5 3 9 26 9
51 0 30 11 68 33 113 l33 67 45 0 46 0 -4 -37z m795 -205 c-1 -12 1 -17 3 -10
10 23 21 12 16 -18 -4 -31 -22 -42 -22 -14 0 8 -5 12 -10 9 -6 -4 -17 -1 -25
5 -8 7 -15 9 -16 4 0 -5 -2 -22 -4 -37 -3 -23 -1 -26 10 -17 8 7 19 9 25 5 16
-10 12 -45 -5 -45 -20 0 -35 -40 -35 -92 0 -39 -12 -48 -15 -10 -2 29 -35 32
-35 3 0 -21 -17 -37 -28 -27 -3 4 0 16 7 28 11 18 11 22 -2 29 -9 6 -14 21
-12 41 2 18 3 39 4 46 1 16 21 15 46 -4 12 -9 16 -18 10 -22 -6 -4 -10 -17
-11 -29 0 -18 2 -20 13 -11 8 6 12 17 9 25 -3 7 0 13 6 13 7 0 7 4 -1 14 -7 8
-9 27 -6 43 5 25 4 26 -4 6 -13 -28 -22 -29 -45 -2 -24 28 -15 69 14 62 12 -3
20 0 20 6 0 7 8 11 17 9 11 -2 22 6 28 19 8 20 12 21 30 9 12 -8 19 -24 18
-38z"/>
<path d="M16045 17944 c-60 -13 -102 -29 -116 -44 -8 -10 -38 -29 -65 -43 -58
-30 -84 -55 -118 -121 -30 -57 -32 -66 -11 -66 8 0 15 -4 15 -10 0 -5 7 -10
16 -10 11 0 14 -6 9 -20 -5 -16 -2 -20 14 -20 18 0 21 -6 21 -39 0 -22 5 -52
10 -67 l11 -27 28 34 c39 46 47 33 12 -19 -18 -28 -28 -57 -29 -86 -2 -40 0
-44 18 -39 11 3 20 0 20 -6 0 -6 9 -11 20 -11 14 0 22 -10 28 -32 8 -35 66
-76 107 -77 11 -1 30 -8 42 -16 13 -9 46 -17 75 -19 29 -2 81 -12 116 -22 63
-19 63 -19 80 2 17 21 68 41 56 23 -3 -6 6 -7 23 -3 27 7 42 21 88 79 11 13
25 25 30 25 12 1 45 69 52 108 15 84 14 113 -1 137 -9 13 -16 29 -16 35 0 6
-9 21 -21 33 -17 18 -19 30 -14 62 13 79 7 128 -22 185 -26 52 -30 55 -65 55
-20 0 -34 3 -32 6 2 4 -11 9 -29 12 -39 6 -324 7 -352 1z"/>
<path d="M17277 16439 c-3 -10 0 -17 7 -16 19 4 19 -50 0 -57 -19 -7 -37 12
-29 32 2 6 0 12 -5 12 -6 0 -10 7 -10 15 0 18 -16 20 -26 4 -4 -8 -9 -8 -13
-1 -4 8 -11 8 -21 1 -11 -8 -12 -12 -2 -16 18 -7 15 -36 -3 -29 -11 4 -15 -2
-15 -24 0 -17 -4 -30 -10 -30 -5 0 -7 -7 -4 -15 4 -8 1 -15 -5 -15 -6 0 -11 7
-11 15 0 9 -9 15 -24 15 -14 0 -28 5 -31 10 -4 6 -21 8 -39 4 -24 -4 -38 -1
-50 12 -19 18 -106 37 -106 22 0 -4 -22 -8 -48 -8 -26 0 -53 -5 -60 -12 -8 -8
-15 -8 -24 0 -33 27 -101 34 -178 17 -41 -9 -100 -20 -130 -26 -30 -6 -73 -16
-95 -24 -59 -21 -162 -24 -150 -5 4 6 -6 10 -24 10 -16 0 -33 5 -36 10 -10 16
-20 4 -23 -27 -1 -17 7 -38 22 -56 21 -24 24 -25 31 -10 6 17 7 17 16 1 6 -10
17 -18 27 -18 20 0 102 -29 120 -43 6 -5 12 -20 12 -33 0 -17 14 -31 59 -58
32 -20 63 -36 69 -36 13 0 62 -44 62 -56 1 -17 38 -54 54 -54 9 0 16 -4 16
-10 0 -5 7 -10 16 -10 13 0 11 -4 -6 -18 l-22 -17 22 -20 c15 -14 42 -22 84
-25 58 -5 62 -3 85 23 18 22 21 31 12 37 -10 5 -9 9 2 13 8 3 20 0 26 -6 8 -8
18 -7 39 5 15 9 61 19 102 23 41 4 80 11 86 16 6 5 23 0 42 -11 29 -18 32 -24
32 -70 l0 -50 38 0 c35 0 39 4 62 48 14 26 28 49 33 50 4 2 7 14 7 27 0 13 5
27 10 30 14 9 12 51 -2 75 -9 14 -10 23 -3 28 6 4 11 29 12 55 3 51 26 97 50
97 8 0 11 5 8 11 -4 6 4 9 22 7 27 -3 28 -2 31 51 4 61 -4 105 -17 97 -5 -3
-14 1 -21 9 -7 8 -25 21 -40 29 -26 12 -29 12 -33 -5z"/>
<path d="M5073 16274 c-10 -5 -13 -266 -13 -1260 l0 -1254 163 2 162 3 0 1255
0 1255 -150 2 c-82 1 -156 -1 -162 -3z"/>
<path d="M10335 15991 c-49 -20 -84 -92 -85 -173 l0 -48 -60 0 -59 0 6 53 c8
72 26 100 62 92 25 -5 29 -3 34 22 12 57 -57 72 -103 23 -28 -30 -50 -100 -50
-160 0 -23 -5 -30 -20 -30 -16 0 -20 -7 -20 -35 0 -28 4 -35 20 -35 19 0 20
-7 20 -205 l0 -205 25 0 25 0 0 205 0 205 60 0 60 0 0 -205 0 -205 25 0 25 0
0 205 0 205 55 0 55 0 0 -205 0 -205 25 0 24 0 3 218 c2 119 2 227 0 240 -3
21 -8 22 -83 22 l-79 0 0 35 c0 47 23 101 49 114 16 9 28 8 50 -3 27 -15 29
-14 35 7 10 40 6 54 -19 65 -30 14 -51 14 -80 3z"/>
<path d="M7150 15640 l0 -350 25 0 25 0 0 350 0 350 -25 0 -25 0 0 -350z"/>
<path d="M7280 15641 l0 -351 30 0 30 0 -2 348 -3 347 -27 3 -28 3 0 -350z"/>
<path d="M5643 15941 c-86 -40 -133 -154 -134 -323 0 -128 6 -168 36 -228 37
-73 75 -103 140 -108 68 -6 115 12 115 42 0 41 -12 48 -62 35 -40 -11 -49 -10
-79 7 -73 43 -105 137 -96 284 9 146 64 230 151 230 23 0 48 -6 54 -12 16 -16
32 5 32 39 0 45 -91 65 -157 34z"/>
<path d="M8425 15922 c-31 -6 -95 -73 -95 -98 0 -33 18 -39 44 -15 12 12 26
18 29 14 4 -3 7 -125 7 -270 l0 -263 25 0 25 0 0 314 c0 173 -3 317 -7 319 -5
2 -17 2 -28 -1z"/>
<path d="M8662 15907 c-50 -53 -66 -113 -70 -265 -5 -154 7 -240 39 -304 51
-99 147 -69 185 58 27 87 27 347 0 424 -34 102 -103 141 -154 87z m73 -55 c37
-26 63 -237 45 -364 -14 -98 -35 -140 -69 -136 -46 5 -71 95 -71 254 0 179 41
285 95 246z"/>
<path d="M8959 15908 c-61 -64 -92 -239 -71 -401 15 -117 29 -162 63 -198 51
-54 111 -34 147 49 47 108 51 384 7 489 -35 82 -99 109 -146 61z m96 -93 c18
-35 20 -60 20 -210 0 -150 -2 -175 -20 -210 -15 -31 -26 -40 -45 -40 -45 0
-64 58 -68 210 -6 194 20 300 71 293 14 -2 29 -18 42 -43z"/>
<path d="M9224 15913 c-64 -64 -68 -261 -7 -333 41 -49 89 -35 118 34 35 84
27 235 -16 290 -24 31 -69 35 -95 9z m71 -63 c19 -38 20 -168 1 -215 -11 -26
-19 -32 -35 -28 -26 7 -41 52 -41 127 0 90 20 145 52 146 4 0 14 -13 23 -30z"/>
<path d="M9477 15923 c-3 -5 -9 -24 -15 -43 -6 -19 -45 -136 -87 -260 -119
-349 -116 -340 -96 -340 14 0 39 63 124 318 59 175 107 321 107 325 0 9 -28 9
-33 0z"/>
<path d="M11506 15885 c-10 -11 -16 -34 -16 -65 0 -39 -3 -49 -20 -53 -28 -7
-29 -67 -1 -67 18 0 20 -10 23 -179 3 -164 5 -182 24 -208 15 -20 31 -29 57
-31 36 -3 37 -2 37 32 0 28 -4 36 -18 36 -38 0 -42 19 -42 187 l0 163 35 0
c33 0 35 2 35 35 0 33 -2 35 -35 35 l-34 0 -3 62 c-3 65 -15 80 -42 53z"/>
<path d="M6815 15772 c-76 -15 -128 -176 -104 -323 19 -121 59 -169 139 -169
61 0 91 23 83 62 -4 23 -8 26 -23 18 -10 -6 -35 -10 -54 -10 -57 0 -96 51 -96
126 l0 34 98 0 98 0 -4 63 c-9 145 -57 215 -137 199z m61 -87 c9 -14 19 -45
22 -70 l5 -45 -73 0 -73 0 7 41 c14 88 76 128 112 74z"/>
<path d="M7807 15760 c-14 -11 -29 -31 -33 -43 -7 -20 -9 -18 -14 13 -4 27
-10 36 -27 38 l-23 3 0 -240 0 -241 24 0 c23 0 23 0 29 159 4 142 8 164 28
200 13 25 30 41 41 41 14 0 18 8 18 39 0 49 -10 56 -43 31z"/>
<path d="M9880 15773 c-42 -12 -63 -32 -87 -82 -25 -50 -28 -67 -28 -161 0
-165 46 -250 135 -250 63 0 90 15 90 49 0 31 -14 49 -25 31 -11 -18 -90 -12
-109 9 -21 23 -45 86 -46 119 0 21 3 22 101 22 l102 0 -7 77 c-8 96 -38 162
-81 179 -16 6 -37 9 -45 7z m51 -93 c10 -14 21 -44 25 -67 l7 -43 -71 0 c-39
0 -73 4 -76 8 -9 14 13 78 35 106 26 33 55 31 80 -4z"/>
<path d="M11185 15768 c-44 -12 -61 -29 -90 -85 -47 -95 -44 -256 7 -341 47
-78 178 -86 178 -11 l0 30 -49 -7 c-47 -6 -49 -5 -77 31 -25 33 -28 47 -32
125 -4 77 -1 95 18 134 24 51 48 62 105 52 35 -7 35 -7 35 29 0 19 -1 35 -3
35 -1 0 -16 4 -32 8 -17 5 -43 5 -60 0z"/>
<path d="M5925 15758 c-58 -34 -85 -108 -85 -233 0 -154 40 -233 123 -242 43
-5 49 -3 81 29 43 43 66 118 66 218 0 145 -51 240 -128 240 -20 0 -46 -6 -57
-12z m95 -78 c35 -49 47 -154 27 -236 -9 -36 -25 -73 -34 -80 -24 -18 -61 -17
-79 1 -24 24 -44 94 -44 154 0 149 74 240 130 161z"/>
<path d="M6170 15530 l0 -240 25 0 25 0 0 151 c0 86 5 168 12 190 14 50 40 73
71 65 42 -10 51 -47 55 -233 l4 -173 24 0 24 0 0 159 c0 248 -23 321 -100 321
-30 0 -43 -6 -63 -30 -14 -16 -28 -30 -31 -30 -3 0 -6 14 -6 30 0 23 -4 30
-20 30 -19 0 -20 -7 -20 -240z"/>
<path d="M6516 15740 c-58 -69 -41 -177 39 -243 41 -35 45 -42 45 -82 0 -36
-5 -48 -25 -61 -23 -15 -27 -15 -50 0 -36 24 -45 20 -45 -19 0 -40 20 -55 73
-55 51 0 84 31 97 93 18 79 1 130 -63 189 -44 40 -51 52 -51 84 0 40 27 69 54
58 40 -17 47 -15 52 11 7 35 -15 55 -62 55 -30 0 -43 -6 -64 -30z"/>
<path d="M7010 15531 c0 -228 1 -239 19 -244 11 -3 22 -2 25 1 3 3 6 113 6
244 l0 238 -25 0 -25 0 0 -239z"/>
<path d="M7469 15739 c-39 -42 -59 -115 -59 -219 0 -94 17 -158 53 -203 17
-22 34 -30 70 -34 59 -7 107 11 107 41 0 32 -13 47 -30 36 -26 -17 -85 -11
-108 10 -21 20 -42 77 -42 118 0 21 3 22 101 22 l102 0 -7 72 c-7 74 -30 141
-60 171 -11 10 -33 17 -58 17 -32 0 -46 -6 -69 -31z m111 -61 c11 -18 20 -50
20 -70 l0 -38 -64 0 c-36 0 -68 4 -71 10 -9 15 14 89 36 111 28 28 56 24 79
-13z"/>
<path d="M7940 15740 c-44 -47 -55 -92 -55 -225 0 -110 2 -124 25 -163 28 -50
63 -72 114 -72 59 0 86 15 86 49 0 31 -14 49 -25 31 -9 -14 -87 -12 -107 4
-20 15 -48 86 -48 122 0 24 1 24 101 24 l102 0 -5 63 c-11 134 -49 197 -120
197 -32 0 -46 -6 -68 -30z m85 -36 c21 -8 42 -51 46 -94 l4 -35 -72 -3 c-55
-2 -73 0 -73 10 0 32 23 90 42 108 24 22 28 23 53 14z"/>
<path d="M10595 15737 c-43 -43 -65 -118 -65 -222 0 -90 17 -154 54 -200 22
-27 29 -30 85 -30 68 0 84 12 74 55 -8 33 -11 36 -25 22 -22 -22 -69 -14 -94
16 -36 41 -47 87 -41 167 9 118 40 161 111 153 41 -5 45 -3 51 19 9 38 -11 53
-67 53 -43 0 -55 -5 -83 -33z"/>
<path d="M10827 15754 c-24 -13 -28 -20 -22 -42 9 -35 7 -35 44 -16 43 22 75
7 91 -41 15 -46 7 -65 -27 -65 -94 0 -160 -137 -118 -246 28 -73 85 -87 136
-32 l29 32 0 -27 c0 -20 5 -27 20 -27 19 0 20 7 20 173 -1 187 -10 250 -42
285 -26 26 -88 29 -131 6z m123 -276 c0 -92 -51 -155 -96 -118 -17 15 -19 108
-1 131 17 22 48 38 75 39 20 0 22 -5 22 -52z"/>
<path d="M11340 15530 l0 -240 25 0 25 0 0 240 0 240 -25 0 -25 0 0 -240z"/>
<path d="M11717 15742 c-43 -45 -60 -105 -61 -217 -1 -159 45 -245 134 -245
67 0 90 14 90 56 0 31 -3 35 -17 29 -34 -15 -85 -17 -108 -5 -23 12 -44 63
-48 115 l-2 30 99 3 99 3 -6 73 c-5 74 -25 137 -54 168 -26 29 -93 24 -126
-10z m94 -45 c17 -12 39 -75 39 -109 0 -16 -10 -18 -70 -18 -67 0 -70 1 -70
24 0 12 5 38 12 57 18 54 54 73 89 46z"/>
<path d="M9477 15660 c-37 -29 -51 -82 -52 -190 0 -135 35 -202 99 -186 55 14
89 158 67 278 -13 68 -24 89 -58 106 -28 15 -26 16 -56 -8z m53 -50 c12 -7 16
-35 18 -123 3 -102 2 -115 -17 -137 l-21 -25 -19 22 c-36 43 -35 241 2 265 15
10 19 10 37 -2z"/>
<path d="M7103 14828 c-41 -46 -48 -85 -48 -253 0 -137 3 -167 20 -208 13 -31
28 -50 42 -53 29 -8 39 0 65 49 20 37 23 61 26 187 5 164 -7 235 -43 274 -29
32 -36 32 -62 4z m62 -74 c17 -34 20 -59 20 -184 0 -127 -3 -149 -20 -179 -26
-44 -40 -48 -59 -19 -47 72 -41 387 8 420 18 13 30 4 51 -38z"/>
<path d="M7312 14839 c-29 -11 -52 -34 -52 -52 0 -22 11 -27 27 -11 23 22 65
14 80 -16 31 -61 4 -178 -78 -342 -22 -43 -39 -82 -39 -87 0 -5 36 -11 80 -13
l80 -3 0 28 c0 26 -2 27 -55 27 -30 0 -55 2 -55 4 0 2 18 42 40 89 52 113 63
162 58 257 -6 99 -34 139 -86 119z"/>
<path d="M6882 14824 c-12 -8 -22 -26 -22 -40 0 -27 15 -32 24 -9 3 9 18 15
36 15 37 0 50 -27 50 -103 0 -70 -13 -111 -71 -235 -28 -58 -49 -111 -47 -119
2 -12 20 -15 78 -15 73 0 75 0 78 26 3 25 2 26 -52 26 -31 0 -56 4 -56 9 0 4
17 46 39 92 48 105 65 175 58 249 -7 78 -30 120 -65 120 -15 0 -38 -7 -50 -16z"/>
<path d="M7511 14805 c-33 -38 -37 -50 -22 -60 6 -3 16 5 23 17 11 20 14 -12
18 -212 7 -328 24 -311 28 28 1 153 -1 262 -7 262 -5 0 -23 -16 -40 -35z"/>
<path d="M27 12224 c-4 -4 -7 -2756 -7 -6116 l0 -6108 55 0 54 0 128 156 c70
86 153 187 183 224 30 36 91 111 135 166 44 54 84 104 90 110 23 25 51 60 65
80 8 11 32 41 52 65 20 24 105 127 189 229 83 102 177 216 208 253 31 38 67
83 81 101 32 41 113 139 120 146 3 3 27 32 52 65 25 33 54 69 65 80 10 11 45
54 78 95 33 41 62 77 66 80 3 3 95 115 204 250 110 135 242 297 295 360 53 63
111 135 130 160 19 25 43 54 52 65 76 91 187 225 247 300 71 87 240 294 311
381 52 63 118 144 154 189 17 21 44 54 60 72 16 19 40 49 55 67 55 71 511 630
520 636 3 3 18 21 33 42 15 20 33 42 40 50 15 15 81 95 123 149 17 21 73 91
127 156 53 65 162 199 243 298 81 99 150 182 154 185 3 3 22 25 41 50 53 69
62 80 98 121 19 21 46 54 60 73 43 55 183 228 216 267 47 55 67 78 152 184
132 164 122 138 78 192 -22 25 -97 116 -167 202 -70 86 -136 165 -145 176 -10
11 -44 54 -77 95 -33 41 -62 77 -65 80 -3 3 -32 39 -65 80 -33 41 -62 77 -66
80 -3 3 -32 39 -64 80 -32 41 -62 77 -65 80 -8 7 -126 150 -296 360 -42 52
-93 115 -113 139 -20 24 -44 53 -53 65 -26 31 -29 34 -98 120 -36 43 -90 109
-120 147 -79 98 -162 198 -270 329 -52 63 -100 122 -107 130 -97 121 -149 186
-154 190 -3 3 -29 34 -58 70 -133 164 -202 248 -442 541 -47 57 -117 143 -155
190 -74 91 -367 451 -395 484 -43 50 -140 170 -204 249 -38 48 -88 109 -110
135 -73 86 -120 144 -134 165 -15 21 -316 397 -426 531 -33 40 -88 107 -122
148 -35 42 -71 86 -80 98 -10 12 -29 35 -43 50 -14 15 -43 51 -65 80 -22 28
-61 76 -87 107 -26 30 -67 80 -90 111 -24 31 -58 73 -77 93 -19 21 -41 48 -49
60 -9 13 -29 39 -46 59 -49 57 -72 85 -164 198 -48 58 -89 108 -92 111 -3 3
-21 25 -40 50 -19 25 -50 63 -69 85 -20 22 -47 55 -61 74 -14 18 -32 40 -41
49 -9 10 -18 23 -20 30 -3 7 -8 10 -12 6z"/>
<path d="M12984 5155 c-20 -22 -25 -34 -15 -30 23 7 40 -25 47 -92 3 -32 10
-60 14 -63 8 -5 15 -28 37 -117 3 -14 1 -23 -7 -23 -7 0 -9 -8 -5 -21 8 -24
-20 -50 -43 -41 -10 3 -13 0 -10 -9 3 -8 12 -13 20 -11 9 1 18 -4 21 -11 4
-10 -2 -13 -20 -9 -17 3 -29 -1 -35 -12 -11 -19 -28 -21 -28 -3 0 6 -18 20
-40 29 -22 9 -40 12 -40 7 0 -13 -91 -8 -110 6 -19 14 -62 31 -76 31 -6 -1
-31 -14 -57 -30 -41 -26 -46 -34 -52 -77 -4 -31 -15 -55 -31 -70 -29 -27 -30
-36 -6 -41 11 -3 1 -9 -25 -18 -24 -7 -43 -19 -43 -26 0 -7 -8 -18 -17 -23
-17 -10 -17 -10 0 -11 9 0 17 4 17 10 0 5 7 7 16 3 11 -4 12 -8 4 -13 -7 -5
-9 -20 -5 -44 8 -38 25 -50 25 -17 0 11 5 23 11 27 9 5 10 -6 5 -40 -8 -49 6
-82 27 -69 7 4 8 0 4 -11 -4 -10 -7 -22 -7 -27 0 -5 -18 -9 -40 -9 -29 0 -40
4 -40 15 0 8 7 15 15 15 9 0 15 9 15 23 0 27 -17 47 -35 41 -7 -3 -16 -1 -20
5 -3 6 1 11 9 11 22 0 20 26 -1 36 -10 4 -22 6 -26 5 -5 -1 -11 8 -14 19 -8
31 -23 24 -23 -11 0 -28 -1 -29 -16 -15 -8 9 -26 19 -40 22 -29 8 -32 24 -3
24 20 0 20 1 -5 31 -15 18 -24 38 -21 48 3 9 1 31 -4 48 -7 22 -6 33 2 37 8 3
4 11 -10 22 -13 9 -23 25 -23 35 0 12 -7 19 -19 19 -22 0 -37 46 -26 81 6 18
4 21 -10 16 -13 -5 -16 -2 -13 16 2 12 9 21 16 19 6 -1 12 6 12 16 0 26 34 39
174 67 59 12 15 12 -164 1 -205 -13 -198 -9 -166 -81 13 -30 32 -170 61 -455
10 -101 21 -157 35 -185 11 -22 32 -71 46 -110 15 -38 45 -108 66 -154 33 -71
39 -95 41 -165 4 -84 20 -126 84 -212 13 -17 23 -35 23 -40 0 -5 11 -21 25
-36 20 -24 34 -29 93 -34 54 -5 76 -3 105 11 l36 17 108 -70 c136 -87 209
-122 223 -108 6 6 10 70 10 160 0 144 -1 151 -24 175 -25 27 -74 119 -127 236
-38 85 -43 101 -74 240 -13 61 -31 129 -39 153 -14 39 -14 45 2 77 30 61 43
49 100 -95 19 -47 51 -132 71 -190 63 -176 101 -241 101 -172 1 35 10 244 19
395 5 96 4 115 -6 100 -7 -9 -13 -21 -13 -26 0 -4 -4 -6 -9 -3 -5 3 -14 -1
-21 -9 -7 -8 -19 -15 -27 -15 -8 0 -12 -4 -9 -9 9 -14 -28 -7 -45 9 -9 8 -22
25 -28 38 -6 12 -18 22 -26 22 -16 0 -18 19 -6 90 4 25 3 55 -3 68 -7 18 -6
26 4 32 8 5 18 6 23 3 5 -3 13 0 17 7 4 7 35 14 69 17 51 3 61 1 61 -13 0 -10
5 -14 15 -10 8 3 18 -2 23 -10 18 -32 51 191 34 223 -6 11 -20 66 -32 122 -32
158 -59 251 -73 251 -1 0 -16 -16 -33 -35z m-394 -977 c10 -24 21 -61 24 -82
8 -47 14 -56 26 -36 7 11 10 6 10 -17 0 -18 4 -33 8 -33 11 0 32 -54 48 -120
18 -77 18 -77 -21 -84 -30 -6 -38 -3 -59 20 -19 22 -25 48 -35 135 -7 60 -10
118 -6 129 4 12 1 28 -6 36 -12 14 -14 14 -20 -3 -7 -17 -7 -17 -15 1 -4 11
-2 27 4 37 7 10 12 28 12 39 0 31 9 24 30 -22z"/>
<path d="M10354 5052 c-10 -9 -75 -69 -144 -132 -102 -93 -290 -266 -344 -315
-6 -5 -49 -44 -96 -84 -47 -41 -89 -80 -95 -85 -5 -6 -55 -51 -110 -101 -55
-49 -131 -120 -170 -156 -38 -36 -92 -86 -120 -110 -27 -24 -52 -46 -55 -49
-3 -3 -30 -27 -60 -54 -30 -27 -84 -77 -120 -110 -36 -34 -103 -95 -150 -136
-47 -40 -89 -79 -95 -84 -8 -9 -181 -166 -221 -201 -6 -5 -40 -37 -75 -70 -36
-33 -105 -96 -154 -140 -49 -44 -123 -111 -165 -150 -41 -38 -115 -106 -165
-150 -49 -43 -119 -107 -155 -140 -36 -33 -103 -95 -150 -137 -47 -42 -101
-91 -120 -110 -19 -18 -76 -69 -125 -113 -50 -44 -121 -110 -160 -146 -38 -36
-115 -105 -170 -154 -55 -49 -102 -92 -105 -95 -3 -3 -50 -46 -105 -95 -55
-49 -118 -106 -140 -126 -22 -20 -56 -51 -75 -69 -19 -18 -57 -53 -85 -79 -27
-25 -88 -80 -135 -121 -46 -41 -98 -88 -115 -105 -17 -16 -71 -66 -121 -110
-49 -43 -118 -106 -154 -140 -36 -33 -105 -96 -154 -140 -49 -44 -99 -89 -110
-100 -12 -11 -84 -76 -160 -145 -77 -69 -154 -138 -170 -154 -17 -15 -71 -65
-121 -110 -49 -44 -121 -110 -160 -146 -39 -36 -111 -101 -159 -145 -49 -44
-117 -105 -150 -136 -34 -31 -74 -68 -91 -82 l-30 -26 199 -1 199 0 41 37 c23
21 82 74 131 118 83 75 134 121 295 270 36 34 108 99 160 145 52 47 149 134
215 195 66 60 163 148 215 195 51 47 121 110 154 141 34 31 81 73 106 95 24
21 51 46 60 55 8 9 62 59 120 110 58 51 159 143 225 204 66 60 163 148 215
195 52 47 124 112 160 145 37 33 88 80 116 105 284 257 389 353 444 404 36 34
105 97 155 141 87 78 164 148 276 250 30 27 106 97 169 154 199 181 214 194
280 256 36 33 101 92 144 130 44 39 107 95 140 126 34 30 84 75 111 100 28 24
57 51 65 59 19 19 219 202 279 256 25 21 77 69 115 105 39 36 96 88 126 114
82 73 343 308 360 325 8 9 69 65 135 125 66 60 165 149 219 199 54 50 108 99
119 109 l20 17 -20 23 c-97 106 -118 130 -130 147 -17 25 -33 25 -59 2z"/>
</g>
</svg>
