<?xml version="1.0" standalone="no"?>
<!DOCTYPE svg PUBLIC "-//W3C//DTD SVG 20010904//EN"
 "http://www.w3.org/TR/2001/REC-SVG-20010904/DTD/svg10.dtd">
<svg version="1.0" xmlns="http://www.w3.org/2000/svg"
 width="940.000000pt" height="788.000000pt" viewBox="0 0 940.000000 788.000000"
 preserveAspectRatio="xMidYMid meet">
<metadata>
Created by potrace 1.16, written by Peter Selinger 2001-2019
</metadata>
<g transform="translate(0.000000,788.000000) scale(0.100000,-0.100000)"
fill="#000000" stroke="none">
<path d="M1095 4426 c-100 -17 -266 -62 -324 -88 -24 -10 -64 -28 -90 -38 -83
-33 -245 -129 -336 -199 -85 -65 -233 -214 -293 -296 l-52 -70 0 -311 0 -312
43 -10 c24 -6 53 -20 66 -31 39 -34 182 -60 281 -52 47 4 100 3 119 -2 18 -5
43 -10 54 -13 44 -8 55 -30 49 -99 -3 -42 -1 -65 6 -65 5 0 8 -9 5 -21 l-6
-20 -21 20 c-12 12 -28 21 -34 21 -7 0 -23 6 -35 14 -35 22 -133 26 -242 11
-182 -26 -182 -26 -195 -50 -7 -13 -29 -28 -51 -34 l-39 -12 0 -222 0 -222 53
-13 c29 -6 75 -12 103 -12 43 0 55 5 87 35 20 19 37 44 37 54 0 29 -38 66 -95
91 -110 49 -108 46 -75 87 25 32 194 92 259 93 37 0 42 -2 31 -15 -7 -8 -19
-15 -27 -15 -11 0 -13 -7 -9 -27 4 -18 -1 -42 -14 -68 -19 -38 -20 -95 -1 -95
4 0 12 -20 18 -44 11 -48 2 -76 -24 -76 -13 0 -14 -3 -5 -12 15 -15 214 -17
347 -4 74 7 94 6 105 -5 8 -8 31 -26 50 -39 19 -14 42 -30 50 -37 8 -7 56 -45
105 -84 50 -39 95 -76 100 -83 23 -27 209 -157 234 -162 14 -4 31 -11 37 -15
7 -6 11 8 13 43 1 29 9 63 17 77 14 25 13 30 -30 106 -25 44 -46 83 -46 88 0
5 -20 37 -45 71 -25 35 -45 69 -45 77 0 11 44 84 60 99 19 18 30 72 30 143 0
148 41 244 153 363 85 91 100 100 122 78 13 -14 20 -14 46 -4 23 10 36 10 55
2 21 -10 23 -14 12 -31 -18 -30 -3 -36 38 -16 32 15 38 15 51 2 8 -8 15 -31
15 -51 0 -20 4 -39 9 -42 18 -11 10 -44 -11 -44 -21 0 -40 -27 -33 -47 7 -19
31 -16 42 6 7 13 18 17 36 14 33 -7 32 -36 -3 -88 -21 -29 -34 -39 -50 -37
-15 2 -22 -2 -22 -12 0 -9 6 -16 13 -16 26 -1 -50 -38 -83 -41 -37 -3 -80 -33
-80 -56 0 -17 -2 -17 64 12 31 14 67 25 81 25 13 0 47 13 75 30 28 16 53 30
55 30 3 0 26 13 52 29 27 16 59 32 73 36 24 7 24 7 5 -9 -19 -15 -18 -15 18
-16 21 0 48 -5 60 -12 12 -6 41 -10 66 -9 l44 1 -7 -40 c-3 -22 -4 -50 -1 -63
12 -45 107 -75 135 -42 18 22 26 19 80 -22 77 -61 87 -113 34 -184 -13 -18
-24 -37 -24 -41 0 -15 77 -8 91 8 7 9 23 20 35 24 27 11 74 93 74 130 0 29
-14 38 -85 60 -44 13 -75 58 -75 109 0 31 -18 41 -77 41 -29 0 -87 13 -168 38
-78 24 -129 122 -97 188 8 19 19 34 24 34 4 0 5 7 2 15 -6 15 14 21 60 16 15
-1 17 4 14 24 -5 22 -2 25 24 25 34 0 34 23 1 28 -24 4 -40 32 -18 32 34 0 22
21 -27 46 -29 15 -58 34 -65 43 -14 18 -11 37 6 34 23 -6 10 15 -24 38 -19 13
-43 42 -54 63 -23 50 -12 93 36 139 46 43 78 99 102 177 35 110 36 146 6 224
-26 68 -27 117 -3 132 5 3 25 -8 43 -26 32 -31 36 -32 65 -20 24 10 37 10 56
1 44 -20 114 -12 114 14 0 35 -258 248 -368 304 -42 21 -45 22 -87 5 -24 -9
-42 -21 -39 -28 2 -6 0 -18 -6 -26 -8 -13 -12 -12 -28 5 -21 23 -52 97 -52
123 0 26 -51 47 -209 89 -130 34 -144 36 -336 39 -137 2 -225 -1 -280 -10z
m37 -263 c13 -12 41 -19 86 -21 58 -3 70 -1 86 17 27 30 52 26 68 -9 7 -16 16
-30 20 -30 14 0 19 -82 8 -134 -19 -93 -85 -134 -168 -105 -31 10 -142 127
-142 148 0 6 -4 11 -10 11 -14 0 -12 114 2 128 16 16 28 15 50 -5z m698 -464
c67 -69 56 -103 -82 -252 -44 -48 -49 -50 -72 -38 -13 7 -37 26 -53 41 -63 61
-76 84 -81 138 l-4 52 34 0 c19 0 53 9 76 20 22 11 45 20 50 20 4 0 21 14 37
30 16 17 35 30 42 30 7 0 31 -19 53 -41z m245 -179 c-4 -19 -10 -37 -13 -40
-4 -3 -17 -25 -29 -50 -45 -95 -56 -129 -49 -157 7 -25 6 -27 -8 -13 -38 37
-75 210 -48 222 6 3 30 59 56 135 l11 32 43 -47 c39 -42 43 -50 37 -82z
m-1946 94 c18 -15 31 -35 31 -49 0 -13 9 -45 21 -72 21 -49 22 -117 3 -225 -7
-42 -32 -51 -56 -22 -7 8 -21 24 -31 35 -9 10 -17 23 -17 28 0 5 -3 11 -7 13
-5 2 -16 26 -26 53 -23 67 -23 196 0 236 21 36 42 37 82 3z m642 -801 c16 -10
29 -25 29 -34 0 -9 11 -27 24 -40 28 -29 96 -191 96 -231 0 -35 -16 -36 -87
-3 -55 26 -95 74 -109 131 -4 15 -13 39 -20 53 -18 35 -18 92 2 119 18 27 27
27 65 5z"/>
<path d="M2400 3751 c0 -18 21 -37 50 -44 14 -4 34 -14 45 -22 19 -15 19 -15
-1 -30 -18 -12 -21 -25 -22 -94 -1 -86 10 -111 50 -111 16 0 19 5 14 25 -5 21
-2 25 28 31 36 6 122 1 169 -11 44 -12 34 24 -20 76 -52 50 -103 82 -147 93
-49 12 -23 16 39 6 34 -6 63 -6 68 -1 9 9 -6 19 -91 61 -52 25 -182 40 -182
21z"/>
<path d="M2400 3251 c0 -10 20 -59 44 -107 l44 -87 -37 -20 c-20 -11 -48 -19
-63 -18 -16 1 -28 -2 -28 -7 0 -11 82 -32 125 -32 37 0 75 -31 75 -60 0 -10 5
-32 11 -50 9 -24 14 -29 20 -18 21 37 4 148 -22 148 -5 0 -9 5 -9 12 0 6 -6
19 -14 27 -15 18 -56 95 -83 157 -10 22 -28 49 -40 58 -22 16 -23 16 -23 -3z"/>
<path d="M8471 2961 l-65 -6 37 -25 c20 -14 37 -28 37 -33 0 -16 91 -97 109
-97 11 0 32 5 47 12 22 10 25 17 21 43 -2 16 -1 38 2 49 7 17 9 16 24 -8 10
-14 26 -26 36 -26 10 0 21 -7 25 -15 9 -24 56 -18 82 11 13 14 24 29 24 34 0
5 12 10 28 12 25 4 25 5 -13 16 -84 26 -283 42 -394 33z"/>
<path d="M8063 2909 c-121 -31 -137 -37 -276 -103 -88 -41 -109 -56 -113 -76
-3 -14 -12 -45 -20 -69 -8 -25 -14 -56 -14 -71 0 -14 -5 -31 -12 -38 -15 -15
1 -21 71 -24 53 -3 56 -2 75 30 12 18 36 54 54 80 18 26 42 62 53 80 24 37 56
42 68 10 8 -22 -9 -74 -45 -140 -22 -41 -17 -49 18 -30 46 26 70 64 76 121 2
28 11 56 21 65 20 18 145 23 184 8 33 -14 147 -16 147 -3 0 5 -7 14 -16 22
-14 11 -14 13 1 22 15 8 15 10 -2 26 -10 10 -27 16 -37 13 -12 -3 -17 -1 -13
5 4 6 -2 13 -13 16 -11 3 -20 2 -20 -2 0 -18 -38 -5 -58 20 l-23 29 25 10 c14
5 26 11 26 14 0 14 -70 8 -157 -15z"/>
<path d="M8848 2819 c-21 -11 -38 -24 -38 -29 0 -5 -8 -9 -17 -8 -23 3 -131
-21 -160 -35 -48 -22 -49 -120 -2 -145 l24 -13 -24 3 c-22 3 -26 -3 -42 -67
-10 -38 -18 -73 -18 -77 -1 -5 -7 -8 -15 -8 -26 0 -38 -30 -62 -147 -13 -65
-28 -130 -33 -145 -7 -19 -7 -28 1 -28 6 0 5 -7 -3 -17 -12 -15 -12 -16 4 -10
18 7 21 -1 11 -27 -7 -17 -34 -22 -34 -6 0 6 -5 10 -11 10 -6 0 -9 -7 -5 -15
4 -11 -2 -15 -21 -15 -14 0 -23 -3 -20 -6 8 -9 127 16 127 27 0 4 -6 10 -12
12 -7 3 -4 5 7 6 11 0 29 -4 40 -8 12 -5 26 -4 34 3 12 9 13 7 9 -11 -4 -13
-5 -23 -3 -23 12 0 55 25 55 32 0 21 30 5 36 -19 4 -16 13 -39 21 -52 8 -12
16 -38 17 -56 3 -29 0 -34 -23 -38 -15 -3 -33 -17 -40 -30 -9 -18 -25 -27 -54
-31 -23 -4 -45 -12 -49 -19 -10 -16 -39 2 -53 31 -11 25 -35 30 -35 7 0 -7 -8
-19 -17 -24 -10 -6 -13 -11 -6 -11 6 0 13 -10 15 -22 2 -13 8 -23 15 -23 6 0
15 -4 20 -9 5 -5 3 -6 -5 -2 -23 13 -26 -24 -3 -40 12 -9 19 -19 16 -24 -3 -5
-1 -20 5 -35 9 -23 13 -25 25 -15 15 13 19 8 16 -22 -1 -10 3 -18 8 -18 6 0
11 7 11 15 0 8 7 15 15 15 8 0 15 -4 15 -9 0 -5 -7 -14 -15 -21 -8 -7 -15 -19
-15 -28 0 -13 -2 -13 -18 1 -23 21 -32 21 -32 2 0 -7 8 -19 18 -24 15 -9 15
-10 1 -11 -9 0 -20 -8 -23 -17 -9 -24 -31 -62 -45 -76 -15 -15 -14 -64 2 -70
7 -4 6 -6 -5 -6 -17 -1 -15 -34 5 -58 6 -9 6 -13 -2 -13 -6 0 -11 5 -11 10 0
6 -7 10 -15 10 -8 0 -15 -6 -15 -14 0 -8 -7 -16 -15 -20 -8 -3 -15 -13 -15
-22 0 -25 -12 -10 -27 34 -11 32 -10 43 4 82 9 25 26 57 36 71 32 45 37 89 14
129 -12 19 -24 37 -27 40 -4 3 -9 13 -13 23 -7 18 -27 24 -27 6 0 -5 -15 2
-34 16 -27 21 -34 33 -33 57 1 17 -4 33 -10 35 -9 3 -11 -4 -7 -26 4 -20 2
-31 -5 -31 -11 0 -13 5 -15 33 -1 13 -16 27 -28 27 -5 0 -8 -11 -8 -25 0 -14
4 -25 9 -25 12 0 30 -85 24 -111 -8 -28 -23 -23 -34 10 -7 21 -15 28 -26 24
-9 -4 -19 1 -25 10 -24 43 -29 12 -23 -138 l6 -154 -31 -61 c-26 -51 -30 -69
-26 -113 4 -42 3 -45 -3 -17 -6 25 -9 28 -10 12 -1 -24 -22 -63 -55 -100 -19
-22 -19 -23 -1 -36 18 -13 18 -14 -4 -25 -12 -7 -31 -9 -43 -5 -20 6 -20 8 -5
19 9 7 17 17 17 23 0 6 5 12 11 14 6 2 11 22 11 43 0 24 9 56 22 80 13 22 26
57 30 77 l7 38 -23 -23 c-29 -29 -43 -58 -63 -130 -9 -32 -25 -67 -35 -77 -13
-13 -15 -20 -7 -21 6 0 -3 -5 -22 -10 -23 -7 -37 -19 -44 -39 -9 -23 -22 -32
-69 -47 -32 -10 -58 -21 -58 -24 0 -16 97 -30 161 -23 48 4 69 3 69 -4 0 -6 7
-9 15 -6 12 5 13 9 4 21 -9 10 -9 17 -1 25 7 7 12 20 12 30 0 10 7 18 15 18 8
0 15 5 15 10 0 19 23 10 51 -20 16 -16 29 -39 29 -51 0 -11 5 -30 11 -41 8
-15 8 -27 -2 -44 -13 -26 -35 -34 -26 -10 8 21 -3 27 -20 11 -29 -29 -141 -18
-215 21 -39 21 -95 18 -108 -5 -14 -28 -14 -28 25 -35 26 -5 38 -15 51 -41 9
-19 22 -39 30 -46 20 -16 18 -25 -13 -54 -15 -14 -22 -25 -15 -25 16 0 43 -25
58 -54 6 -12 17 -20 25 -18 7 2 34 6 60 9 44 5 48 4 75 -31 25 -31 35 -36 69
-36 22 0 51 -7 64 -16 19 -14 22 -23 18 -54 -2 -20 0 -44 5 -53 5 -10 5 -17 1
-17 -5 0 -13 10 -18 23 -6 12 -13 21 -18 19 -13 -5 -67 31 -67 45 0 14 -75 37
-96 29 -19 -7 -84 24 -84 40 0 8 -22 15 -57 19 -32 3 -65 7 -73 8 -8 1 -15 8
-15 15 0 6 -4 12 -9 11 -5 0 -13 6 -18 15 -7 13 -21 15 -70 12 -69 -6 -84 -1
-67 20 9 11 9 14 0 14 -7 0 -9 4 -6 10 6 9 -16 17 -65 22 -14 2 -25 9 -25 18
0 10 8 14 24 12 29 -3 88 15 97 29 3 6 -2 19 -12 30 -14 15 -15 22 -6 31 10
10 17 10 33 0 21 -13 40 -6 61 23 11 15 -20 34 -43 28 -12 -3 -24 0 -29 6 -4
7 -13 14 -21 15 -32 7 -56 21 -81 50 -18 21 -27 26 -28 16 0 -9 20 -38 45 -65
25 -28 45 -53 45 -57 0 -16 -53 -7 -69 11 -10 11 -28 22 -42 26 -24 6 -25 4
-21 -31 4 -35 3 -37 -12 -22 -9 9 -21 29 -27 45 l-11 28 -10 -25 c-5 -13 -14
-28 -21 -32 -9 -6 -9 -8 1 -8 6 0 12 -4 12 -9 0 -6 -11 -6 -29 0 -24 8 -35 7
-58 -8 -15 -9 -31 -22 -35 -27 -4 -6 -9 -8 -12 -5 -3 3 4 16 16 29 16 17 18
22 6 17 -9 -3 -22 1 -28 9 -14 16 -80 19 -80 4 0 -5 5 -10 10 -10 18 0 10 -22
-10 -27 -23 -6 -25 -14 -9 -30 8 -8 6 -16 -9 -29 -18 -15 -19 -19 -6 -29 13
-9 13 -14 -6 -38 -16 -20 -20 -35 -15 -57 4 -17 11 -30 16 -30 5 0 9 -11 9
-24 0 -16 7 -27 20 -31 11 -4 20 -15 20 -26 0 -16 -3 -18 -19 -9 -11 5 -35 10
-53 10 -19 0 -39 5 -46 12 -20 20 -23 3 -5 -33 24 -49 41 -62 106 -79 66 -17
78 -33 28 -38 -25 -3 -45 4 -76 27 -28 20 -52 30 -72 28 -50 -3 -20 -47 36
-53 36 -4 53 -13 46 -24 -3 -5 -20 -7 -37 -3 -35 7 -36 11 20 -75 l35 -54 16
26 c19 31 34 32 88 7 43 -21 76 -19 106 8 24 20 88 19 118 -3 29 -20 59 -21
85 -1 24 18 78 19 96 2 20 -19 75 -40 88 -32 42 26 130 4 130 -33 0 -20 56
-46 66 -31 3 5 14 9 25 9 11 0 17 -5 14 -10 -3 -6 1 -10 9 -10 20 0 31 -19 18
-32 -7 -7 -17 -6 -31 2 -12 6 -56 13 -98 15 -77 4 -88 8 -88 28 0 7 -9 12 -20
12 -11 0 -25 3 -32 8 -10 6 -33 3 -103 -14 -8 -2 -14 2 -12 9 2 14 -10 16 -24
2 -6 -6 -15 -6 -24 0 -12 8 -12 10 4 10 27 0 11 13 -22 17 -49 6 -96 3 -102
-8 -4 -5 -24 -12 -46 -14 -34 -4 -35 -3 -9 4 l30 8 -30 8 c-16 4 -36 12 -42
18 -7 5 -13 6 -13 1 0 -5 -21 -10 -47 -11 -35 -1 -52 -8 -70 -27 -12 -14 -23
-29 -23 -33 0 -5 22 -30 48 -57 41 -42 54 -48 95 -52 26 -2 62 -10 80 -18 50
-22 75 -25 88 -10 17 20 117 19 141 -2 20 -19 71 -25 105 -13 12 5 25 4 28 -1
8 -13 372 -13 380 0 4 6 13 9 20 6 24 -9 88 32 103 66 24 55 65 131 88 166 12
18 25 50 29 73 7 43 30 59 82 59 24 0 23 2 -16 31 -40 29 -42 31 -28 52 11 16
24 22 48 20 93 -5 122 -26 78 -57 -17 -11 -21 -25 -21 -65 1 -62 11 -82 79
-150 29 -30 53 -59 53 -63 0 -13 -17 -9 -30 7 -19 23 -30 18 -31 -12 0 -28 0
-28 -11 -5 -21 42 -43 23 -46 -41 -2 -39 -7 -57 -16 -57 -8 0 -16 -9 -19 -20
-5 -19 0 -20 189 -20 l195 0 6 30 c6 33 23 51 23 26 0 -20 24 -21 39 -2 10 11
7 17 -10 30 -12 8 -26 13 -30 10 -4 -2 -10 0 -14 6 -10 17 18 36 73 51 66 16
81 8 105 -55 9 -26 24 -54 32 -63 8 -8 15 -19 15 -24 0 -5 21 -9 46 -9 35 0
51 5 65 21 l18 20 11 -20 c8 -16 20 -21 50 -21 22 0 40 5 40 10 0 6 -11 10
-25 10 -14 0 -25 5 -25 10 0 6 -7 10 -15 10 -8 0 -15 5 -15 10 0 7 6 7 19 0
11 -5 29 -10 40 -10 18 0 21 6 21 40 0 38 -2 40 -31 40 -32 0 -89 28 -89 43 0
10 37 0 67 -19 36 -23 53 -8 53 47 0 27 -4 49 -10 49 -5 0 -10 -4 -10 -10 0
-5 -7 -10 -15 -10 -23 0 -18 27 8 45 21 14 22 23 25 156 3 134 3 140 -15 130
-35 -20 -50 -36 -58 -60 -4 -13 -34 -50 -68 -82 -48 -47 -65 -57 -84 -53 -20
5 -23 2 -23 -20 0 -14 -4 -26 -10 -26 -10 0 -15 32 -12 80 4 52 -25 -33 -31
-94 -3 -32 -10 -63 -15 -68 -5 -5 -28 -11 -51 -13 -39 -3 -41 -2 -40 23 1 15
5 38 9 52 7 21 8 19 9 -17 1 -24 6 -43 12 -43 19 0 34 24 35 55 0 17 3 51 6
77 5 33 3 50 -7 58 -10 8 -15 7 -19 -2 -3 -7 -4 -4 -3 7 2 24 18 37 32 26 30
-23 41 -19 37 15 -3 27 -1 34 13 34 12 0 15 6 10 23 -4 15 -3 18 3 8 8 -10 15
-9 37 10 15 13 31 32 36 41 8 15 5 15 -26 -3 -19 -12 -35 -16 -35 -10 0 6 -4
11 -10 11 -5 0 -10 -6 -10 -13 0 -14 -79 -41 -107 -35 -10 2 -17 12 -17 21 1
13 -3 16 -16 12 -26 -8 -35 12 -11 24 12 7 17 18 14 30 -4 14 6 26 37 47 35
23 39 29 25 37 -11 6 -21 5 -28 -2 -13 -13 -44 -15 -49 -2 -1 5 -27 2 -57 -5
-66 -18 -91 -11 -91 22 0 22 -4 25 -27 22 -26 -3 -28 -1 -28 36 0 44 -19 58
-40 30 -7 -11 -17 -16 -21 -11 -4 4 1 13 11 20 16 13 16 16 2 48 -38 85 -41
114 -33 329 4 120 17 142 59 102 13 -12 31 -22 41 -22 14 0 16 6 11 34 -8 43
20 76 65 76 16 0 43 8 60 19 18 10 41 16 56 13 28 -5 27 -1 7 -104 -5 -24 -2
-28 19 -28 13 0 29 -5 36 -12 9 -9 12 -9 12 2 1 12 3 12 13 -2 7 -9 25 -20 40
-23 26 -7 27 -6 27 34 0 23 7 56 16 73 13 25 20 29 42 25 35 -7 71 35 52 58
-18 22 -36 18 -59 -11 -12 -15 -21 -21 -21 -14 0 7 11 28 25 46 30 40 31 48 4
34 -26 -15 -37 -5 -21 20 13 22 2 33 -23 24 -15 -6 -16 -4 -6 14 7 14 8 23 1
27 -14 9 -32 -4 -24 -17 4 -7 2 -8 -4 -4 -7 4 -12 16 -12 28 0 17 -2 18 -15 8
-10 -9 -15 -9 -15 -1 0 6 -5 11 -11 11 -5 0 -3 -10 5 -22 9 -12 16 -31 16 -41
0 -16 -5 -18 -27 -12 -32 8 -43 21 -43 51 0 12 -8 32 -18 44 -16 20 -22 21
-57 11 -52 -14 -70 2 -35 31 16 14 21 22 13 25 -7 3 -13 13 -13 23 0 17 7 18
90 13 78 -5 90 -4 96 11 6 16 8 16 25 0 22 -20 38 -11 19 11 -7 8 -10 26 -8
40 4 19 1 25 -13 25 -11 0 -19 -5 -19 -11 0 -6 -7 -8 -16 -5 -9 3 -26 -5 -42
-20 -26 -24 -71 -48 -78 -41 -2 2 17 24 43 50 35 35 44 50 35 59 -8 8 -15 8
-25 0 -8 -7 -17 -9 -20 -5 -4 3 -7 -5 -7 -18 0 -19 -2 -21 -10 -9 -8 13 -10
12 -10 -2 0 -10 -4 -18 -10 -18 -5 0 -10 5 -10 11 0 5 -4 8 -10 4 -5 -3 -6
-13 -3 -21 4 -12 1 -15 -13 -12 -24 5 -24 61 0 87 23 25 20 51 -5 51 -37 0
-59 19 -59 51 0 23 -6 32 -27 40 -37 14 -52 38 -53 84 -1 64 -17 128 -34 141
-9 6 -16 21 -16 33 0 17 -6 21 -30 21 -19 0 -30 -5 -30 -14 0 -8 -7 -16 -15
-20 -13 -5 -15 4 -9 62 7 66 18 102 32 102 4 0 6 -21 4 -48 -4 -47 -3 -48 35
-64 25 -10 61 -15 106 -14 41 1 67 -2 68 -8 0 -6 1 -30 1 -53 0 -26 4 -43 11
-43 7 0 6 -4 -3 -10 -11 -7 -12 -10 -2 -10 20 0 72 64 72 90 0 14 -43 13 -58
-2 -9 -9 -12 -9 -12 0 0 7 7 15 15 18 8 4 13 10 10 14 -3 4 2 27 10 50 8 23
12 53 9 66 -4 13 -1 30 5 38 9 11 8 18 -4 30 -9 9 -21 16 -26 16 -12 0 -11 41
1 60 8 12 10 12 16 -3 7 -20 34 -23 34 -4 0 20 33 47 57 47 12 0 24 6 26 13 4
10 6 10 6 0 1 -7 8 -13 16 -13 11 0 15 -11 15 -35 0 -22 6 -38 15 -41 19 -8 9
-24 -14 -24 -28 0 -85 -31 -72 -40 8 -4 10 -24 6 -56 -4 -39 -2 -53 12 -69 19
-22 91 -51 100 -41 4 3 1 6 -7 6 -24 0 9 27 41 34 25 5 30 10 26 26 -3 10 0
21 7 24 6 2 1 5 -12 5 -16 1 -22 6 -20 18 4 21 -31 31 -43 11 -7 -10 -12 -11
-29 0 -11 6 -27 12 -35 12 -8 0 -15 4 -15 9 0 13 89 19 127 9 17 -5 34 -14 36
-21 2 -7 2 0 0 15 -3 15 -2 32 2 38 9 15 51 -16 64 -48 13 -30 67 -67 76 -51
4 5 -1 12 -9 15 -9 3 -16 17 -16 30 0 13 -4 24 -10 24 -5 0 -10 10 -10 23 0
14 -9 26 -22 32 -18 8 -25 23 -34 75 -7 36 -12 67 -13 70 -1 2 -6 -1 -12 -7
-13 -13 -59 6 -59 25 0 7 3 11 8 8 11 -6 38 17 36 32 -1 6 -2 19 -3 27 -1 21
-19 19 -24 -2 -3 -10 -5 3 -6 29 -1 39 -5 50 -27 64 -34 23 -55 5 -26 -22 19
-18 19 -21 6 -54 -12 -27 -17 -32 -24 -20 -5 8 -10 23 -10 33 0 21 -9 21 -34
2 -25 -19 -36 -19 -36 0 0 14 -14 19 -47 18 -7 -1 -13 7 -13 18 0 28 -18 32
-47 9 -31 -25 -51 -13 -33 20 16 30 11 31 -32 9z m-829 -2066 c7 -14 12 -15
24 -5 13 11 18 9 29 -7 8 -12 30 -24 49 -27 51 -10 111 -42 138 -75 18 -24 22
-37 16 -65 -7 -42 -22 -40 -48 6 -25 46 -57 69 -93 70 -18 0 -48 12 -70 28
-22 16 -51 32 -67 35 -39 10 -36 52 5 56 4 1 11 -7 17 -16z m769 -65 c5 -12
70 -38 101 -39 20 -1 22 -2 6 -6 -11 -3 -28 -12 -37 -20 -10 -9 -23 -13 -31
-10 -8 3 -29 2 -48 -3 -19 -4 -26 -8 -17 -9 9 -1 23 -10 30 -20 8 -11 40 -29
71 -41 31 -12 57 -24 57 -27 0 -9 -50 -53 -61 -53 -5 0 -9 -4 -9 -10 0 -5 5
-10 11 -10 7 0 21 -10 33 -23 11 -12 33 -33 47 -45 l27 -23 26 26 c42 42 40
24 -2 -21 -59 -65 -70 -71 -87 -47 -8 12 -36 24 -68 32 -34 7 -67 23 -87 41
-19 17 -42 30 -52 30 -26 0 -22 25 11 62 52 61 68 117 34 119 -10 0 -39 3 -65
5 -41 5 -48 3 -49 -13 0 -17 -1 -17 -8 0 -13 34 -32 -5 -26 -53 4 -34 3 -40
-8 -32 -13 11 -14 53 -2 83 5 15 -1 16 -50 12 l-56 -4 20 20 c12 12 30 21 42
21 13 0 18 4 13 12 -5 8 15 10 79 5 85 -6 87 -6 87 16 0 13 5 28 12 35 13 13
50 6 56 -10z m-1247 -174 c15 -18 49 -17 73 1 29 22 60 18 90 -10 23 -22 36
-25 94 -25 63 0 69 -2 95 -31 22 -26 31 -30 57 -24 16 4 46 1 65 -5 27 -9 35
-17 35 -36 0 -16 -6 -24 -17 -25 -15 0 -15 -2 2 -8 19 -8 19 -8 -1 -19 -27
-15 -69 -5 -54 13 14 17 -34 34 -79 27 -40 -6 -111 16 -111 35 0 7 -7 13 -15
13 -8 0 -15 5 -15 10 0 14 -17 12 -55 -6 -31 -14 -36 -14 -67 2 -18 9 -36 21
-39 26 -10 16 -72 25 -96 15 -18 -8 -27 -6 -43 8 -27 25 -25 42 8 53 31 10 57
6 73 -14z"/>
<path d="M7980 2546 c-14 -9 -33 -19 -42 -22 -10 -3 -18 -9 -18 -13 0 -8 118
-7 156 2 20 5 40 3 59 -7 16 -9 40 -13 53 -9 30 7 51 -20 52 -69 0 -39 44
-119 53 -96 3 10 8 9 18 -3 13 -15 17 -15 52 1 l38 17 -33 8 c-33 8 -33 8 20
17 30 6 52 15 52 22 0 20 -31 43 -69 53 -19 5 -36 14 -39 21 -4 14 18 15 52 2
35 -13 44 6 14 30 -12 11 -28 24 -34 29 -6 5 -32 12 -56 16 -34 5 -49 3 -61
-9 -20 -20 -36 -20 -59 1 -26 24 -173 30 -208 9z"/>
<path d="M7802 2500 c-7 -11 -23 -20 -37 -20 -18 0 -25 -5 -25 -20 0 -17 -5
-19 -25 -14 -21 5 -27 1 -36 -22 l-12 -29 -9 44 c-13 61 -33 38 -33 -39 l0
-59 -43 -12 c-24 -7 -50 -19 -58 -27 -18 -18 -24 -12 -33 30 -4 20 -2 43 6 58
12 24 17 50 10 50 -2 0 -18 -7 -35 -16 -23 -11 -32 -22 -32 -41 0 -18 -4 -24
-15 -19 -8 3 -15 1 -15 -4 0 -6 -6 -10 -13 -10 -8 0 -23 -8 -35 -18 -11 -10
-38 -27 -59 -38 -21 -10 -39 -22 -41 -26 -2 -5 -8 -8 -13 -8 -6 0 -7 5 -4 10
3 6 -1 10 -10 10 -9 0 -14 -4 -10 -9 8 -13 -64 -61 -92 -61 -24 0 -66 -52
-105 -130 -13 -25 -25 -47 -28 -50 -27 -26 -110 -224 -110 -262 0 -12 16 -40
35 -64 19 -23 35 -47 35 -53 0 -6 4 -11 8 -11 5 0 17 -16 28 -35 10 -19 27
-38 36 -41 10 -3 18 -13 18 -22 0 -10 7 -28 16 -40 14 -20 14 -22 0 -22 -9 0
-16 -4 -16 -10 0 -20 -21 -9 -60 30 -43 43 -95 55 -106 25 -4 -8 -10 -12 -15
-9 -5 3 -10 -5 -10 -18 -1 -15 -4 -12 -8 12 -7 35 -7 35 -21 -25 -16 -66 -21
-323 -7 -388 l8 -37 137 5 c75 3 146 9 157 12 11 4 59 6 108 5 88 -2 92 0 88
36 -3 17 26 62 39 62 5 0 12 -22 16 -50 4 -27 11 -50 16 -50 5 0 7 -4 3 -10
-3 -5 -12 -7 -20 -3 -19 7 -19 3 1 -36 16 -33 39 -33 31 0 -7 25 9 34 21 12 9
-15 13 -14 46 11 20 15 36 30 36 34 0 4 -16 24 -36 45 -28 30 -37 49 -43 92
-9 66 -13 70 -40 53 -16 -9 -26 -10 -38 -2 -33 21 -69 163 -45 178 5 3 9 19
10 37 0 23 -4 33 -19 36 -22 6 -25 19 -6 26 7 3 23 -2 34 -12 28 -22 59 -82
34 -67 -12 8 -34 -68 -26 -93 5 -17 12 -21 27 -18 12 4 21 0 24 -11 17 -52 23
-57 23 -19 1 26 -3 37 -14 37 -16 0 -21 35 -6 44 4 3 11 34 14 68 8 74 23 132
40 150 7 8 21 29 31 48 11 19 58 74 106 122 95 95 88 93 205 68 45 -10 68 -10
90 -2 l30 10 -37 1 c-29 1 -46 9 -73 35 -19 19 -35 41 -35 50 0 23 -18 29 -29
9 -9 -17 -10 -17 -16 0 -4 9 -14 17 -22 17 -8 0 -11 5 -7 12 4 7 3 8 -5 4 -6
-4 -17 -3 -24 2 -7 5 -38 10 -70 11 -43 1 -59 -3 -63 -14 -4 -8 -15 -15 -25
-15 -11 0 -22 -7 -25 -15 -9 -22 -18 -18 -32 15 -16 36 -14 41 51 89 56 41
110 63 131 55 8 -3 17 -1 20 4 3 5 -4 13 -17 17 -19 7 -17 9 16 12 36 4 43 23
8 23 -19 0 -61 51 -61 75 0 9 9 15 25 15 16 0 25 6 25 15 0 8 5 15 10 15 6 0
10 -7 10 -15 0 -23 24 -18 65 15 22 18 50 30 66 30 16 0 29 5 29 10 0 6 -5 10
-11 10 -5 0 -7 5 -3 12 6 10 16 148 10 148 -1 0 -7 -9 -14 -20z"/>
<path d="M1583 2242 c-20 -15 -22 -26 -22 -97 1 -46 -5 -97 -13 -120 -13 -35
-19 -40 -50 -43 -35 -3 -36 -4 -43 -58 -3 -30 -10 -52 -14 -50 -3 3 -6 -11 -6
-30 1 -29 11 -44 55 -85 29 -27 59 -49 66 -49 7 0 23 10 34 23 21 22 21 22 36
2 14 -19 13 -39 -2 -79 -4 -11 0 -16 13 -16 11 0 28 -9 38 -20 10 -11 22 -20
27 -20 16 0 7 46 -16 81 -20 29 -24 47 -24 105 1 38 -4 82 -11 97 -10 27 -13
28 -57 21 -44 -6 -46 -6 -42 17 1 13 13 28 26 34 12 5 22 13 22 17 0 5 7 8 15
8 8 0 15 5 15 10 0 7 -13 8 -35 4 -35 -6 -44 3 -24 23 6 6 12 35 13 65 2 46 5
53 24 56 12 2 22 -1 22 -7 0 -6 7 -11 16 -11 13 0 15 7 9 37 -4 21 -10 40 -14
43 -5 3 -14 17 -22 32 -14 26 -15 26 -36 10z"/>
<path d="M8013 2205 c-7 -8 -13 -24 -13 -37 1 -26 24 -61 34 -51 3 4 20 -6 36
-22 24 -23 30 -25 30 -12 0 9 6 17 13 17 18 -1 48 -26 39 -34 -4 -4 7 -2 23 5
17 7 38 21 48 31 10 10 31 18 47 18 35 0 38 10 11 34 -23 21 -118 35 -173 25
-20 -3 -43 -2 -50 2 -7 4 -18 3 -25 -3 -9 -7 -13 -7 -13 1 0 6 7 14 15 17 8 4
15 10 15 15 0 14 -23 10 -37 -6z"/>
<path d="M0 2087 l0 -114 122 -124 c68 -68 139 -136 158 -151 19 -14 98 -87
174 -162 77 -75 144 -136 149 -136 6 0 46 -18 91 -39 44 -22 93 -43 107 -46
25 -6 27 -4 34 35 14 86 -6 160 -60 216 -16 17 -116 105 -179 159 -33 28 -64
55 -70 60 -6 6 -36 30 -66 55 -30 25 -57 47 -60 50 -3 3 -25 21 -50 40 -24 19
-52 42 -60 50 -9 8 -28 24 -44 35 -15 11 -37 28 -49 37 -12 10 -26 21 -32 26
-5 4 -39 30 -75 57 -36 27 -66 53 -68 57 -2 4 -8 8 -13 8 -5 0 -9 -51 -9 -113z"/>
<path d="M1823 1983 c-19 -7 -16 -16 21 -63 40 -51 38 -80 -5 -80 -29 0 -29 0
-29 -61 0 -49 -3 -59 -13 -51 -10 9 -13 3 -12 -26 0 -20 4 -43 8 -50 5 -7 3
-12 -3 -12 -6 0 -10 -10 -8 -22 3 -20 8 -23 38 -20 19 2 42 10 50 17 8 7 28
17 43 20 26 7 27 9 12 25 -12 13 -13 20 -5 25 7 4 10 16 7 26 -3 11 -2 18 1
16 4 -2 18 -8 32 -15 108 -50 138 -48 92 7 -20 24 -38 34 -70 38 -52 7 -57 14
-37 52 8 17 15 40 15 52 0 16 5 20 20 16 15 -4 20 0 20 13 0 10 -7 20 -15 24
-8 3 -15 15 -15 26 0 23 -10 26 -28 8 -9 -9 -9 -15 0 -25 9 -11 7 -18 -5 -31
-18 -18 -17 -21 -22 49 -2 39 -49 60 -92 42z"/>
<path d="M8003 1875 c-35 -15 -46 -51 -18 -61 8 -4 15 -14 15 -23 0 -9 6 -23
13 -30 10 -11 10 -14 0 -18 -18 -7 -16 -21 4 -25 15 -3 15 -5 1 -18 -8 -9 -17
-27 -20 -40 -4 -21 0 -25 23 -27 20 -2 30 3 34 17 8 25 22 26 28 3 3 -13 5
-12 6 5 1 30 20 64 30 57 11 -6 23 39 15 58 -6 17 -51 29 -58 15 -2 -5 -3 -3
-2 4 1 7 12 14 24 16 29 4 28 23 -2 49 -34 30 -56 34 -93 18z"/>
<path d="M2143 1685 c-37 -16 -41 -29 -17 -53 15 -15 14 -18 -10 -37 -14 -11
-26 -28 -26 -38 0 -24 -19 -21 -31 6 -9 21 -9 21 -3 -3 14 -58 15 -79 5 -98
-8 -15 -7 -23 4 -32 22 -18 63 -4 103 36 18 18 54 43 79 54 42 19 44 21 41 57
-3 37 -4 38 -43 38 -36 0 -40 2 -41 26 -1 33 -11 59 -21 59 -4 -1 -23 -7 -40
-15z"/>
<path d="M2793 1683 c-9 -3 -11 -26 -6 -82 8 -106 -1 -151 -30 -151 -37 0 -47
19 -47 86 0 66 -14 90 -35 61 -7 -10 -17 -17 -23 -17 -18 0 -72 -58 -72 -77 0
-30 32 -53 72 -53 23 0 38 -6 42 -15 6 -17 91 -21 101 -5 4 7 12 7 25 0 27
-15 66 -12 80 5 11 13 15 12 37 -5 27 -21 68 -27 77 -11 3 5 25 6 48 4 29 -3
61 2 96 15 53 20 54 20 73 1 22 -22 86 -26 112 -6 15 11 17 28 15 130 -4 151
-22 156 -26 7 -3 -119 -7 -128 -57 -116 -20 5 -24 11 -20 29 5 19 -2 25 -47
45 -62 26 -118 30 -118 7 0 -9 9 -15 24 -15 32 0 76 -17 76 -29 0 -11 -84 -41
-115 -41 -16 0 -31 15 -54 51 -27 43 -35 50 -58 47 -21 -2 -36 -15 -58 -50
-32 -51 -45 -57 -69 -32 -12 12 -16 37 -16 107 0 94 -6 117 -27 110z"/>
<path d="M4644 1676 c-4 -10 -4 -66 0 -125 4 -79 10 -109 22 -118 19 -14 273
-15 292 0 9 7 16 7 24 -1 16 -16 60 -15 84 2 17 13 21 12 41 -6 16 -15 29 -19
50 -14 15 4 74 7 130 7 72 0 105 4 113 14 17 20 9 237 -9 243 -12 4 -13 -13
-7 -102 l7 -106 -26 -12 c-39 -18 -49 0 -60 114 -6 63 -15 103 -22 105 -9 3
-13 -25 -15 -109 -3 -112 -3 -113 -27 -113 -19 0 -31 11 -51 45 -19 32 -34 46
-52 48 -25 3 -28 1 -88 -78 -25 -34 -52 -18 -64 39 -12 49 -32 49 -28 -1 3
-38 -15 -62 -45 -56 -12 2 -18 12 -18 32 0 42 -22 43 -39 2 -10 -25 -21 -36
-35 -36 -21 0 -25 7 -21 48 2 34 -29 28 -36 -8 -7 -31 -31 -45 -63 -35 -16 5
-19 18 -23 110 -3 103 -19 151 -34 111z"/>
<path d="M1538 1632 c-13 -15 -48 -112 -48 -133 0 -11 29 0 59 23 14 11 38 18
56 16 33 -2 95 19 95 32 0 10 -26 20 -51 20 -10 0 -19 7 -19 15 0 15 -11 19
-39 15 -8 -1 -20 5 -27 14 -10 14 -12 14 -26 -2z"/>
<path d="M4123 1597 c-4 -8 -23 -22 -41 -31 -67 -35 -59 -116 11 -116 18 0 42
-7 53 -15 23 -18 68 -19 94 -3 15 10 22 9 38 -5 19 -17 63 -23 75 -10 4 3 55
6 115 6 59 0 113 4 120 9 27 23 13 61 -43 115 -57 55 -92 69 -82 33 3 -11 1
-20 -4 -20 -17 0 -29 -48 -19 -75 22 -57 -49 -43 -75 15 -31 68 -79 66 -121
-6 -44 -76 -81 -56 -86 46 -3 62 -17 86 -35 57z"/>
<path d="M7889 1598 c-19 -16 -49 -89 -49 -122 0 -54 96 -81 165 -46 21 11 47
20 57 20 11 0 18 7 18 18 -1 24 -28 57 -47 57 -9 0 -18 6 -21 14 -3 8 0 11 7
7 6 -4 16 -4 21 -1 15 9 -36 55 -59 55 -10 0 -31 3 -47 6 -17 3 -36 0 -45 -8z"/>
<path d="M3846 1578 c-32 -45 -15 -98 31 -98 36 0 27 -18 -13 -26 -33 -6 -57
-4 -126 12 -37 8 -38 -18 -3 -34 34 -16 31 -27 -11 -47 -41 -19 -114 -14 -134
10 -7 8 -10 31 -8 50 3 29 1 35 -14 35 -33 0 -28 -86 8 -117 51 -46 182 -23
214 36 8 17 21 21 56 21 37 0 51 5 76 30 27 28 30 35 24 73 -4 23 -14 49 -23
59 -22 25 -59 23 -77 -4z"/>
<path d="M7587 1568 c-20 -12 -36 -27 -34 -33 2 -5 22 -13 46 -16 55 -7 79
-29 31 -29 -32 0 -33 -1 -14 -15 22 -17 97 -20 125 -5 28 15 25 70 -4 98 -31
29 -99 29 -150 0z"/>
<path d="M1830 1569 c-24 -10 -44 -34 -46 -54 0 -5 -4 -28 -9 -50 l-8 -40 -6
30 c-5 23 -12 31 -31 33 l-25 3 24 -20 c24 -18 24 -21 12 -59 -8 -22 -11 -52
-7 -66 7 -29 -9 -36 -28 -12 -16 20 -83 9 -89 -15 -15 -58 93 -59 253 -2 47
17 90 47 60 42 -43 -7 -90 25 -90 61 0 19 70 2 107 -26 38 -29 60 -30 92 -5
l24 19 -21 27 c-12 15 -22 38 -22 50 0 12 -9 30 -20 40 -11 10 -22 26 -25 36
-5 16 -16 19 -63 18 -31 0 -68 -5 -82 -10z"/>
<path d="M9273 1352 c-28 -13 -32 -19 -27 -41 4 -14 13 -31 20 -37 8 -6 14
-15 14 -20 0 -4 18 -24 39 -43 21 -20 48 -52 60 -71 l21 -35 0 88 c0 57 -4 93
-12 101 -7 7 -24 27 -37 44 -27 35 -32 36 -78 14z"/>
<path d="M9069 1154 c-29 -9 -52 -85 -30 -98 4 -3 34 -9 66 -12 47 -6 57 -4
53 7 -2 8 -22 17 -44 20 -37 6 -36 6 16 8 30 0 72 6 93 12 l37 10 -31 26 c-25
21 -44 27 -88 29 -31 2 -63 1 -72 -2z"/>
<path d="M8803 1118 c-18 -6 -33 -16 -33 -22 0 -6 -10 -17 -21 -24 -31 -20
-10 -35 53 -38 29 -2 55 -3 58 -4 3 0 -4 -7 -14 -15 -24 -18 -19 -19 23 -4 17
6 31 17 31 25 0 8 7 17 15 20 18 7 20 45 3 62 -14 14 -70 14 -115 0z"/>
<path d="M2730 1083 c-76 -30 -43 -162 69 -274 111 -111 214 -147 266 -94 28
27 30 37 14 68 -31 60 -107 87 -131 47 -7 -11 -18 -20 -24 -20 -20 0 -92 59
-106 87 -12 25 -11 29 10 50 38 38 25 85 -35 125 -29 19 -38 20 -63 11z"/>
<path d="M3379 1038 c-1 -4 -8 -49 -14 -89 -6 -41 4 -49 61 -49 31 0 34 -2 34
-31 0 -29 -2 -31 -32 -27 -18 3 -40 8 -50 12 -11 5 -18 1 -23 -14 -10 -31 6
-42 65 -48 43 -4 55 -1 75 18 49 46 22 140 -39 140 -14 0 -27 4 -31 9 -9 16
23 39 49 34 17 -4 27 1 35 15 6 11 7 22 4 26 -6 6 -132 9 -134 4z"/>
<path d="M3592 1033 c-25 -10 -42 -62 -42 -128 0 -57 3 -69 25 -90 30 -30 92
-34 124 -7 48 38 50 175 3 212 -23 19 -79 26 -110 13z"/>
<path d="M3787 1027 c-20 -8 -27 -17 -25 -32 3 -22 29 -25 81 -10 23 6 27 4
27 -13 0 -17 -82 -121 -102 -130 -5 -2 -8 -15 -8 -28 0 -24 1 -24 91 -24 88 0
90 1 87 23 -2 18 -10 23 -40 25 -21 2 -38 5 -38 8 0 2 16 24 35 50 40 52 45
94 15 124 -22 22 -76 25 -123 7z"/>
<path d="M3999 1013 c-27 -70 -49 -138 -49 -155 0 -15 8 -18 55 -18 51 0 55
-2 55 -23 0 -31 5 -35 35 -29 17 3 25 11 25 24 0 11 7 26 15 35 14 14 14 18 0
39 -8 13 -15 37 -15 54 0 27 -3 31 -22 28 -18 -2 -24 -11 -28 -38 -4 -27 -10
-36 -27 -38 -28 -4 -28 4 -3 68 26 67 26 80 -5 80 -19 0 -28 -8 -36 -27z"/>
<path d="M4185 1015 c-51 -50 -22 -122 53 -132 32 -4 42 -10 40 -22 -3 -12
-15 -16 -53 -16 -39 0 -50 -4 -53 -17 -6 -30 90 -52 126 -29 26 16 42 64 42
126 0 52 -4 66 -25 89 -33 36 -95 37 -130 1z"/>
<path d="M4393 1026 c-23 -11 -27 -23 -17 -49 5 -13 10 -14 39 -1 82 34 86 5
11 -80 -30 -34 -56 -71 -58 -82 -3 -18 4 -19 89 -22 92 -3 93 -2 90 20 -3 19
-11 24 -46 26 l-42 3 27 37 c15 20 32 40 36 43 5 3 11 22 14 41 9 50 -20 78
-78 77 -24 -1 -53 -6 -65 -13z"/>
<path d="M4602 1023 c-24 -20 -29 -47 -18 -82 5 -14 4 -27 -3 -34 -18 -18 -13
-75 9 -97 30 -30 103 -28 135 5 29 28 32 61 8 87 -13 14 -14 21 -5 30 21 21
14 75 -10 92 -30 21 -91 20 -116 -1z"/>
<path d="M4777 1033 c-12 -11 -8 -43 6 -44 6 -1 29 0 50 1 33 1 38 -1 35 -17
-2 -12 -14 -19 -35 -21 -20 -2 -33 -10 -36 -22 -6 -24 0 -30 33 -30 32 0 55
-23 46 -46 -5 -12 -17 -15 -58 -12 -44 2 -53 0 -56 -14 -4 -22 34 -38 89 -38
29 0 47 7 64 25 28 27 31 48 11 86 -8 16 -10 32 -5 40 15 24 10 58 -11 79 -15
15 -33 20 -73 20 -30 0 -57 -3 -60 -7z"/>
<path d="M2694 497 c-2 -7 -3 -98 -2 -202 l3 -190 100 0 100 0 0 75 c0 68 -2
75 -20 75 -15 0 -21 8 -23 33 -3 29 -1 32 22 32 23 0 26 4 26 38 1 56 28 85
81 86 42 1 44 0 44 -29 0 -25 -4 -30 -25 -30 -21 0 -26 -5 -28 -32 -3 -31 -1
-33 27 -33 32 0 36 -7 25 -47 -5 -18 -11 -22 -31 -17 l-24 6 3 -78 3 -79 55 0
55 0 0 200 0 200 -193 2 c-144 1 -194 -1 -198 -10z"/>
<path d="M4438 449 c-11 -6 -18 -22 -18 -40 0 -17 -6 -32 -15 -35 -19 -8 -19
-28 1 -45 12 -10 15 -28 12 -76 -3 -61 -2 -63 22 -63 24 0 25 1 22 66 -3 59
-2 66 17 71 24 6 29 43 7 43 -8 0 -18 5 -21 10 -9 15 14 40 36 40 12 0 19 7
19 20 0 16 -7 20 -32 20 -18 0 -41 -5 -50 -11z"/>
<path d="M4897 442 c-10 -10 -17 -31 -17 -45 0 -17 -5 -27 -15 -27 -8 0 -15
-7 -15 -15 0 -9 7 -18 15 -21 11 -5 15 -23 15 -75 0 -67 1 -69 25 -69 24 0 25
2 25 70 0 56 3 70 15 70 8 0 15 9 15 20 0 12 -7 20 -16 20 -25 0 -13 44 14 48
14 2 22 10 22 23 0 26 -60 27 -83 1z"/>
<path d="M3416 432 c-3 -3 -6 -44 -6 -91 0 -47 -4 -92 -9 -99 -4 -7 -21 -12
-37 -10 -24 2 -30 -1 -32 -19 -4 -24 0 -26 67 -26 52 1 61 21 61 139 0 92 -2
102 -19 107 -11 3 -22 2 -25 -1z"/>
<path d="M3563 425 c-42 -18 -53 -42 -53 -120 0 -57 3 -69 25 -90 42 -43 175
-31 175 15 0 21 -35 28 -64 13 -55 -29 -92 10 -84 88 2 24 11 38 30 49 25 13
30 13 56 -2 28 -17 30 -17 46 1 15 16 15 19 -2 35 -25 22 -89 27 -129 11z"/>
<path d="M3990 313 l0 -123 25 0 c23 0 25 4 25 45 0 58 17 58 53 0 23 -37 34
-45 58 -45 35 0 36 3 4 44 -30 40 -30 40 -4 76 17 22 20 36 15 64 -4 19 -12
39 -19 43 -7 4 -45 10 -85 13 l-72 5 0 -122z"/>
<path d="M3740 410 c0 -11 7 -20 15 -20 12 0 15 -16 15 -80 0 -64 -3 -80 -15
-80 -8 0 -15 -9 -15 -20 0 -18 7 -20 60 -20 53 0 60 2 60 20 0 11 -7 20 -15
20 -12 0 -15 16 -15 80 0 64 3 80 15 80 8 0 15 9 15 20 0 18 -7 20 -60 20 -53
0 -60 -2 -60 -20z"/>
<path d="M4233 368 c-47 -23 -20 -57 28 -37 26 10 33 10 46 -4 17 -17 19 -16
-64 -33 -28 -5 -46 -39 -39 -70 8 -30 51 -49 81 -36 11 5 34 7 50 5 l30 -4 -1
63 c-1 35 -2 72 -3 84 -2 37 -78 56 -128 32z"/>
<path d="M4703 369 c-57 -17 -33 -50 29 -41 32 4 40 2 36 -9 -3 -8 -13 -15
-24 -15 -10 -1 -27 -2 -36 -3 -26 -2 -50 -44 -42 -75 6 -24 37 -43 59 -37 6 1
31 3 58 2 l47 0 0 74 c0 73 -13 105 -43 105 -7 0 -21 2 -32 4 -11 3 -35 0 -52
-5z"/>
</g>
</svg>
