<?xml version="1.0" standalone="no"?>
<!DOCTYPE svg PUBLIC "-//W3C//DTD SVG 20010904//EN"
 "http://www.w3.org/TR/2001/REC-SVG-20010904/DTD/svg10.dtd">
<svg version="1.0" xmlns="http://www.w3.org/2000/svg"
 width="2048.000000pt" height="2040.000000pt" viewBox="0 0 2048.000000 2040.000000"
 preserveAspectRatio="xMidYMid meet">
<metadata>
Created by potrace 1.16, written by Peter Selinger 2001-2019
</metadata>
<g transform="translate(0.000000,2040.000000) scale(0.100000,-0.100000)"
fill="#000000" stroke="none">
<path d="M42 16044 l3 -4356 85 -30 c149 -51 531 -175 655 -213 66 -20 154
-47 195 -60 41 -13 138 -42 215 -64 77 -22 199 -56 270 -76 198 -57 771 -204
1070 -275 72 -17 148 -35 170 -40 258 -62 744 -165 1015 -215 69 -13 175 -33
235 -45 190 -36 492 -89 695 -120 107 -17 236 -37 285 -45 91 -15 315 -46 460
-65 44 -5 148 -19 230 -30 83 -10 215 -26 295 -35 80 -9 183 -20 230 -25 160
-18 615 -59 765 -69 83 -6 249 -17 370 -26 667 -45 2004 -48 2635 -5 418 29
821 66 1040 95 175 24 449 65 505 75 359 69 534 104 605 120 47 11 153 36 235
55 83 19 175 41 205 50 30 8 109 29 175 46 155 41 283 77 315 88 14 5 97 31
185 57 88 26 252 78 365 116 113 38 221 74 240 79 19 6 49 16 65 24 17 7 41
16 55 20 47 14 535 197 588 221 29 13 55 24 59 24 4 0 65 24 137 54 72 30 143
58 159 61 15 4 27 11 27 16 0 5 5 9 11 9 22 0 495 207 759 333 58 27 139 65
180 84 275 128 845 419 1170 598 58 32 143 78 190 103 47 25 96 53 110 62 14
9 59 35 102 58 42 22 98 55 126 71 27 17 52 31 55 31 4 0 30 15 59 33 29 19
73 45 98 59 93 52 123 69 213 124 50 32 139 85 197 119 58 34 130 77 160 97
30 20 109 68 175 108 66 41 170 106 230 145 61 39 162 105 225 145 63 40 161
104 218 142 56 37 107 68 112 68 4 0 10 4 12 8 4 10 216 152 228 152 4 0 10 4
12 9 2 5 39 33 84 62 109 73 265 179 344 235 36 25 83 57 105 72 22 15 42 29
45 33 3 3 28 20 55 39 96 65 285 201 290 210 4 7 6 1624 5 5678 l0 62 -10205
0 -10205 0 2 -4356z m4396 3107 c36 -6 101 -28 148 -51 114 -55 186 -127 243
-244 44 -88 47 -116 12 -116 -10 0 -67 -11 -125 -25 -148 -35 -146 -35 -175
31 -50 114 -154 170 -304 162 -142 -7 -238 -74 -293 -204 -28 -68 -29 -73 -29
-254 0 -151 3 -195 18 -237 52 -157 165 -241 323 -242 144 -2 254 83 302 234
18 57 29 64 74 46 13 -5 72 -22 131 -38 l108 -28 -6 -35 c-25 -131 -151 -298
-275 -360 -113 -57 -196 -73 -354 -67 -205 6 -305 44 -437 166 -66 60 -129
153 -163 241 -60 151 -60 443 0 615 49 139 158 266 294 342 123 69 324 94 508
64z m1602 -26 c143 -49 281 -160 341 -273 13 -26 27 -49 30 -52 4 -3 19 -45
35 -95 28 -86 29 -98 28 -270 0 -169 -2 -185 -28 -265 -16 -47 -31 -87 -35
-90 -3 -3 -17 -27 -31 -53 -58 -112 -192 -217 -342 -269 -85 -29 -106 -33
-238 -36 -154 -4 -235 7 -340 47 -170 64 -310 214 -373 402 -41 121 -42 394
-1 529 32 109 115 240 194 308 50 43 141 94 208 116 111 36 102 35 292 32 162
-3 181 -5 260 -31z m1120 -27 c7 -24 23 -81 36 -128 25 -87 40 -141 74 -265
11 -38 38 -135 60 -215 23 -80 49 -173 57 -207 15 -58 33 -76 33 -33 0 11 4
29 9 42 6 13 22 68 36 123 41 154 51 189 94 340 22 77 54 194 73 260 l33 120
228 3 227 2 -2 -697 -3 -698 -134 -3 c-101 -2 -136 1 -143 10 -4 7 -8 243 -9
523 l-1 510 -23 -85 c-12 -47 -43 -164 -68 -260 -25 -96 -62 -238 -82 -315
-20 -77 -50 -192 -66 -255 -17 -63 -34 -119 -38 -123 -4 -4 -72 -6 -151 -5
l-143 3 -32 130 c-18 72 -45 175 -60 230 -40 148 -58 218 -118 453 -30 117
-58 216 -61 219 -3 4 -6 -229 -6 -516 l0 -522 -142 3 -143 3 -3 685 c-1 377 0
691 3 698 3 9 59 12 229 12 l225 0 11 -42z m2340 -78 l0 -120 -395 0 -396 0 3
-147 3 -148 363 -3 362 -2 0 -120 0 -120 -365 0 -365 0 2 -187 3 -188 403 -3
402 -2 0 -120 0 -120 -557 2 -558 3 -3 698 -2 697 550 0 550 0 0 -120z m1110
-1154 c0 -217 -13 -267 -94 -354 -28 -30 -132 -92 -154 -92 -9 0 -68 118 -61
123 2 2 25 14 51 26 54 26 87 72 95 131 l6 40 -67 0 -66 0 0 134 c0 79 4 136
10 138 5 2 70 2 145 0 l135 -3 0 -143z m-3812 -1052 c154 -31 293 -127 360
-246 29 -52 59 -144 50 -153 -2 -3 -56 -14 -119 -25 -63 -11 -129 -22 -146
-26 -30 -6 -32 -4 -53 42 -27 62 -72 109 -135 141 -60 31 -203 43 -282 24
-172 -41 -270 -160 -295 -356 -43 -339 120 -575 395 -575 46 0 108 7 140 15
66 17 196 80 202 98 3 7 6 47 7 91 l3 78 -167 0 c-148 0 -168 2 -171 16 -3 10
-6 63 -7 120 l-1 102 325 0 326 0 0 -280 0 -279 -26 -24 c-14 -13 -67 -45
-117 -70 -175 -87 -302 -117 -492 -117 -140 0 -227 15 -333 59 -94 38 -142 70
-218 148 -104 105 -171 269 -189 458 -9 95 18 266 56 362 79 200 251 348 458
394 103 23 326 24 429 3z m3087 -18 c103 -35 211 -103 275 -174 71 -78 136
-214 155 -322 29 -167 11 -411 -38 -520 -81 -179 -206 -292 -394 -357 -104
-35 -325 -44 -453 -19 -258 53 -452 245 -505 501 -23 109 -23 315 0 415 17 76
75 205 111 249 112 138 207 202 360 241 67 17 105 19 244 16 148 -3 173 -6
245 -30z m-1560 4 c207 -23 317 -109 361 -282 36 -138 2 -279 -90 -371 -47
-48 -152 -103 -214 -113 -23 -4 -42 -9 -42 -13 0 -3 19 -17 41 -31 75 -46 163
-149 269 -315 24 -38 47 -72 50 -75 3 -3 31 -44 63 -93 40 -61 53 -89 44 -92
-7 -3 -89 -4 -182 -3 l-170 3 -67 95 c-37 52 -72 101 -78 108 -6 7 -30 41 -52
75 -23 34 -51 74 -62 88 -12 14 -32 41 -46 59 -87 117 -121 137 -253 146 l-97
7 0 -292 0 -291 -150 0 -150 0 0 700 0 700 368 0 c202 0 408 -5 457 -10z
m2417 -65 c9 -38 27 -115 38 -170 21 -100 67 -295 121 -520 16 -66 29 -128 29
-138 0 -35 19 -15 29 31 11 48 41 160 86 317 14 50 46 164 71 255 25 91 55
195 66 233 l21 67 181 -2 181 -3 27 -105 c15 -58 34 -132 43 -165 8 -33 27
-107 43 -165 16 -58 50 -188 76 -290 26 -102 51 -188 55 -193 7 -7 19 36 62
223 11 47 24 101 30 120 5 19 21 89 35 155 14 66 33 154 44 195 10 41 26 110
35 153 l16 77 156 0 155 0 -5 -22 c-3 -13 -17 -66 -30 -118 -30 -113 -199
-780 -263 -1033 -25 -98 -49 -189 -54 -203 -10 -24 -10 -24 -168 -24 l-159 0
-13 48 c-7 26 -18 65 -25 87 -16 50 -38 129 -120 425 -36 129 -76 271 -89 315
-13 44 -27 93 -31 109 -8 37 -13 30 -31 -41 -8 -32 -30 -112 -49 -178 -34
-117 -116 -410 -176 -630 -17 -60 -32 -116 -34 -122 -3 -10 -46 -13 -170 -13
-124 0 -167 3 -169 13 -2 6 -30 118 -61 247 -31 129 -61 249 -66 265 -9 29
-39 147 -64 255 -7 30 -27 109 -44 175 -18 66 -36 138 -41 160 -5 22 -22 92
-39 155 -17 63 -31 118 -31 123 0 4 71 6 157 5 l157 -3 18 -70z m-6621 -777
c23 -6 55 -29 79 -54 87 -93 73 -236 -31 -313 -22 -17 -50 -25 -95 -29 -55 -4
-68 -1 -109 22 -67 40 -99 95 -99 176 -1 97 44 164 127 194 52 18 79 19 128 4z
m10344 -1499 c44 -12 99 -31 123 -43 52 -25 119 -89 146 -140 11 -20 23 -36
27 -36 4 0 10 -18 14 -40 4 -22 11 -40 16 -40 6 0 9 -21 7 -47 l-3 -48 -138
-3 -137 -3 -11 28 c-24 58 -34 75 -65 107 -28 29 -44 36 -121 49 -75 14 -99
14 -158 3 -74 -13 -136 -38 -156 -62 -17 -20 -17 -96 -1 -126 20 -36 105 -73
262 -113 74 -19 146 -37 160 -40 92 -24 199 -62 210 -75 3 -3 21 -16 40 -27
48 -29 120 -113 138 -160 9 -24 15 -79 16 -148 2 -166 -27 -224 -172 -347 -17
-16 -40 -28 -50 -28 -10 0 -26 -6 -37 -13 -42 -29 -148 -42 -325 -41 -166 0
-179 2 -255 29 -44 15 -92 36 -107 46 -14 11 -29 19 -32 19 -12 0 -92 94 -118
138 -33 57 -71 173 -66 204 3 22 10 24 127 37 141 15 141 15 161 -61 6 -20 16
-43 23 -50 7 -7 23 -28 35 -45 15 -21 47 -44 88 -63 58 -27 76 -30 157 -30 82
0 110 5 200 36 9 4 17 13 17 20 0 8 7 14 15 14 23 0 55 73 55 127 0 53 -21 84
-82 120 -37 23 -161 58 -253 72 -33 5 -106 25 -163 45 -56 20 -109 36 -117 36
-8 0 -15 4 -15 10 0 5 -13 16 -30 25 -52 27 -113 96 -147 166 -19 37 -23 63
-23 134 0 77 4 95 31 151 31 66 51 91 110 135 59 44 177 89 274 103 70 10 253
-4 330 -25z m-7816 -36 c6 -21 11 -44 11 -52 0 -8 4 -28 10 -45 16 -52 42
-158 50 -211 7 -42 38 -178 92 -395 6 -25 14 -65 18 -90 11 -62 28 -102 40
-95 5 3 10 19 10 35 0 15 4 30 8 32 5 2 24 64 44 138 72 270 110 405 118 425
5 11 16 49 25 85 9 36 23 88 30 115 8 28 15 59 17 70 3 19 12 20 181 23 97 1
177 0 177 -2 0 -6 50 -196 87 -331 13 -49 29 -109 34 -133 5 -24 11 -47 14
-52 3 -5 24 -80 46 -167 46 -182 68 -253 78 -253 7 0 28 77 61 230 12 52 25
111 30 130 44 180 84 360 88 396 2 24 8 44 13 44 4 0 11 21 15 48 14 97 5 92
164 92 77 0 140 -4 140 -8 0 -4 -7 -35 -16 -67 -9 -33 -20 -76 -24 -95 -8 -36
-96 -378 -202 -790 -33 -129 -68 -269 -78 -310 -29 -122 -10 -111 -183 -108
l-151 3 -22 65 c-12 36 -36 121 -54 190 -17 69 -37 143 -44 165 -30 95 -36
115 -61 214 -14 58 -35 130 -45 160 -11 31 -28 90 -38 131 -26 104 -41 103
-69 -7 -27 -109 -102 -381 -113 -408 -20 -52 -30 -94 -30 -122 0 -17 -4 -33
-8 -35 -5 -1 -18 -41 -31 -88 -49 -194 -68 -252 -81 -261 -16 -9 -251 -12
-286 -3 -14 4 -25 19 -32 42 -16 53 -83 319 -93 370 -5 24 -11 47 -14 52 -3 4
-11 36 -20 71 -30 131 -95 392 -130 524 -43 161 -75 289 -75 302 0 10 33 13
145 13 l144 0 10 -37z m2039 -650 l-3 -688 -142 -3 -143 -3 0 691 0 690 145 0
145 0 -2 -687z m1337 625 c4 -35 5 -83 3 -108 l-3 -45 -212 -3 c-117 -1 -214
-3 -215 -5 -2 -1 -5 -261 -8 -577 l-5 -575 -137 -3 c-127 -2 -138 -1 -138 15
0 10 0 260 0 556 0 295 -2 548 -6 562 l-6 25 -214 0 -214 0 0 110 0 110 574 0
574 0 7 -62z m485 -208 l0 -270 295 0 296 0 -1 268 -1 267 140 3 141 3 0 -28
c5 -254 -3 -1340 -9 -1346 -4 -4 -66 -6 -137 -5 l-129 3 -3 298 -2 298 -23 7
c-12 4 -143 5 -292 2 l-270 -5 -2 -294 c-1 -161 -6 -298 -11 -303 -5 -5 -69
-7 -143 -6 l-134 3 -3 645 c-2 355 0 664 3 688 l6 42 140 0 139 0 0 -270z
m2042 -71 c-1 -187 1 -418 6 -512 9 -155 12 -176 33 -209 13 -20 30 -37 37
-38 6 0 12 -6 12 -13 0 -7 21 -24 48 -36 87 -44 290 -38 341 10 11 11 24 19
30 19 5 0 20 19 34 43 34 59 40 143 38 592 -1 209 1 404 5 433 l7 52 138 0
139 0 0 -457 c-1 -333 -4 -484 -14 -553 -16 -106 -37 -171 -66 -202 -11 -12
-20 -28 -20 -35 0 -7 -4 -13 -9 -13 -5 0 -16 -6 -23 -13 -26 -25 -113 -78
-138 -84 -14 -3 -29 -9 -35 -13 -23 -17 -110 -24 -270 -24 -170 0 -258 11
-313 40 -15 8 -33 14 -39 14 -7 0 -13 4 -13 8 0 4 -12 15 -27 24 -57 34 -128
117 -139 164 -4 16 -10 34 -14 39 -23 30 -32 183 -37 628 l-6 477 149 0 149 0
-3 -341z m-159 -1398 c13 -5 38 -24 56 -41 116 -116 60 -315 -99 -349 -116
-25 -228 69 -229 193 -1 44 18 116 31 116 4 0 8 6 9 13 0 6 18 27 41 45 36 28
47 32 103 32 35 0 75 -4 88 -9z m-3869 -1762 c115 -68 135 -241 38 -334 -73
-70 -170 -77 -253 -19 -54 37 -72 75 -77 164 -4 73 -3 77 30 120 53 70 90 90
164 90 45 0 72 -6 98 -21z"/>
<path d="M5633 18895 c-89 -28 -178 -109 -216 -195 -35 -79 -47 -147 -47 -262
0 -156 37 -269 119 -355 22 -24 42 -43 46 -43 4 0 19 -8 33 -19 97 -67 270
-68 399 -3 43 22 113 94 136 138 77 153 84 399 15 541 -17 36 -42 78 -55 94
-36 43 -104 85 -166 103 -66 19 -204 20 -264 1z"/>
<path d="M9507 16570 c-96 -24 -185 -98 -233 -191 -69 -138 -69 -384 1 -532
26 -55 109 -147 133 -147 6 0 12 -4 12 -9 0 -5 30 -19 66 -31 93 -31 225 -25
304 13 117 56 188 158 217 310 13 69 14 101 4 205 -9 103 -16 132 -41 182 -41
82 -88 131 -162 170 -57 31 -71 34 -163 36 -55 2 -117 -1 -138 -6z"/>
<path d="M7808 16564 c-5 -4 -8 -84 -8 -177 l0 -170 218 7 c119 3 233 11 253
16 19 5 50 26 69 45 31 32 35 42 38 103 3 58 0 72 -20 102 -45 66 -75 73 -323
78 -121 2 -223 1 -227 -4z"/>
<path d="M3974 15918 c-56 -39 -79 -85 -79 -160 0 -59 3 -70 31 -105 35 -44
86 -72 129 -72 46 -1 109 33 141 75 25 33 29 46 29 104 0 54 -5 73 -25 103
-51 74 -159 101 -226 55z"/>
<path d="M12219 12676 c-43 -32 -79 -101 -79 -149 0 -33 49 -123 75 -137 14
-7 25 -17 25 -21 0 -4 16 -10 36 -14 110 -20 201 53 206 166 5 114 -65 189
-176 189 -34 0 -53 -8 -87 -34z"/>
<path d="M8361 10935 c-69 -31 -107 -102 -99 -185 11 -115 143 -186 237 -129
19 11 39 26 45 32 69 75 58 206 -23 265 -41 30 -114 38 -160 17z"/>
<path d="M14124 10105 c-4 -9 -2 -63 2 -120 5 -57 8 -109 6 -115 -2 -6 -51
-10 -126 -10 -68 0 -125 -2 -127 -4 -2 -2 -3 -47 -1 -100 l3 -95 132 -3 132
-3 5 -122 c3 -67 8 -125 12 -128 4 -4 41 -4 84 0 l77 8 -7 123 -7 123 128 3
128 3 3 98 3 97 -136 0 c-121 0 -135 2 -136 18 -1 9 -4 67 -8 127 l-6 110 -78
3 c-63 2 -78 0 -83 -13z"/>
<path d="M8832 9965 c-160 -55 -317 -168 -367 -264 -33 -65 -88 -239 -99 -317
-4 -31 2 -62 23 -125 57 -166 109 -257 197 -349 69 -72 140 -114 265 -156 123
-42 406 -177 429 -205 3 -3 16 -12 30 -19 14 -7 66 -40 117 -73 91 -60 93 -62
102 -111 14 -75 31 -211 45 -378 12 -132 16 -154 46 -215 31 -64 99 -169 145
-222 38 -44 147 -115 198 -128 57 -14 114 -17 119 -5 2 4 59 43 128 87 69 43
164 105 213 137 54 35 116 66 165 82 130 41 130 41 214 -38 40 -39 89 -85 110
-104 l36 -34 54 12 c168 40 268 130 268 242 0 66 -12 78 -81 78 -33 0 -72 6
-87 14 -53 27 -102 156 -102 267 0 29 7 43 29 62 25 21 107 45 118 34 2 -2 6
-34 10 -71 3 -37 9 -68 12 -70 3 -2 27 -7 52 -11 l46 -7 12 85 13 85 72 45 72
44 70 -14 c70 -14 194 -14 227 1 14 7 17 3 17 -17 0 -35 13 -40 53 -24 71 30
102 71 197 260 104 207 115 252 86 351 -30 102 -130 272 -176 300 -56 32 -131
20 -200 -32 -72 -55 -125 -84 -186 -100 -54 -14 -70 -15 -111 -4 -49 13 -117
69 -129 104 -4 13 -12 16 -28 12 -19 -4 -28 1 -44 28 -27 44 -76 177 -112 305
-32 114 -47 147 -100 218 -77 103 -157 159 -258 181 -177 38 -188 38 -305 -6
-28 -11 -59 -20 -68 -20 -40 0 -87 -86 -118 -215 -29 -120 -37 -137 -74 -173
-46 -45 -96 -62 -178 -62 l-71 0 -201 172 c-111 95 -215 185 -232 199 -164
144 -175 150 -337 175 -143 21 -240 18 -326 -11z"/>
<path d="M9775 4501 c-45 -15 -71 -34 -93 -67 -13 -20 -27 -32 -34 -28 -6 4
-8 3 -5 -3 3 -5 -11 -45 -32 -89 -21 -43 -42 -90 -46 -104 -26 -85 -202 -431
-227 -446 -7 -5 -9 2 -6 19 3 15 1 24 -4 20 -6 -3 -7 -18 -4 -34 3 -15 2 -31
-3 -33 -11 -7 -56 -103 -64 -137 -15 -59 51 -59 111 0 20 20 57 61 82 91 25
30 54 64 65 75 11 12 41 48 67 81 26 32 55 67 65 77 21 21 87 23 136 2 20 -8
41 -15 46 -15 11 0 161 301 161 324 0 9 -10 33 -23 54 -12 20 -40 74 -62 119
-25 52 -47 85 -60 89 -37 11 -50 12 -70 5z"/>
<path d="M915 3500 c-56 -5 -60 -7 -59 -30 1 -14 4 -71 8 -128 l7 -103 -128 2
-128 1 0 -107 0 -108 131 2 131 2 7 -113 c4 -62 4 -121 1 -131 -8 -19 -8 -19
100 -17 39 1 74 5 79 10 10 10 10 82 0 188 -5 51 -4 63 7 62 8 -2 67 -2 132
-1 l118 1 -3 107 -3 106 -137 -2 -137 -2 -3 133 -3 133 -30 0 c-16 1 -57 -2
-90 -5z"/>
<path d="M17802 3041 c-6 -4 -13 -27 -16 -51 -4 -45 -18 -67 -85 -135 -39 -40
-33 -44 15 -14 19 11 34 29 34 39 0 19 19 39 35 37 6 -1 11 18 13 43 2 39 7
47 30 57 18 8 134 13 340 15 287 3 312 2 312 -14 0 -9 4 -18 10 -20 5 -1 11
-12 13 -23 2 -11 9 -30 16 -43 7 -13 11 -28 8 -35 -5 -15 -37 49 -38 77 -1 17
-2 18 -6 4 -3 -13 -15 -18 -46 -19 -23 0 -36 -3 -29 -6 21 -8 13 -21 -10 -15
-16 4 -19 2 -12 -9 4 -8 9 -20 11 -28 1 -8 10 -29 19 -47 l18 -32 13 25 c7 14
10 29 7 35 -3 5 4 19 16 31 l23 21 -6 -25 c-6 -22 -3 -24 26 -24 37 1 47 -9
47 -46 0 -15 7 -30 16 -33 19 -7 13 -31 -7 -31 -8 0 -14 -11 -14 -27 -1 -24 4
-28 55 -41 l55 -13 -1 -66 c-2 -72 -27 -210 -50 -270 -11 -30 -11 -38 -1 -38
11 0 36 91 61 215 2 11 4 3 5 -17 0 -21 6 -38 11 -38 6 0 10 6 9 13 -1 6 0 37
1 67 2 47 3 51 10 25 7 -26 8 -24 7 17 0 52 -11 54 -27 5 -9 -30 -10 -29 -5
14 6 69 -2 89 -37 89 -27 0 -29 2 -17 16 10 13 10 17 -2 25 -11 7 -10 9 4 9
11 0 21 -9 24 -20 3 -11 11 -20 17 -20 6 0 19 -12 28 -27 l17 -28 0 30 c1 74
2 75 25 75 13 0 29 -7 36 -15 7 -8 15 -13 19 -11 9 6 6 -238 -4 -289 -4 -22
-11 -44 -15 -50 -5 -5 -11 -27 -15 -47 -4 -21 -12 -38 -17 -38 -10 0 -7 26 7
65 6 19 6 19 -8 2 -15 -18 -15 -18 -19 0 -2 10 -4 -3 -4 -29 1 -25 5 -44 10
-40 5 3 6 -3 2 -14 -11 -29 -19 -74 -13 -74 3 0 17 33 32 73 15 39 31 81 35
92 25 64 44 244 35 326 -7 58 -7 59 -38 59 -18 0 -51 7 -74 15 -23 8 -50 12
-59 8 -11 -4 -15 -2 -11 4 4 6 -11 23 -33 38 -22 15 -40 31 -40 36 0 4 -11 24
-24 44 -13 19 -27 53 -31 74 -5 31 -12 41 -31 45 -35 9 -668 6 -682 -3z"/>
<path d="M15525 2905 c-44 -12 -100 -31 -125 -43 -55 -26 -101 -62 -80 -61 22
1 67 17 53 18 -18 1 -16 21 2 21 8 0 15 -4 15 -10 0 -6 10 -5 25 2 14 6 24 17
21 23 -7 20 105 46 182 41 53 -3 57 -2 22 4 -29 4 15 7 120 7 95 0 152 -3 135
-7 -22 -6 -14 -7 28 -5 70 4 126 -10 149 -36 9 -10 28 -19 42 -19 14 0 26 -5
26 -11 0 -6 6 -9 14 -6 8 3 17 -1 20 -9 3 -8 13 -14 21 -14 9 0 14 4 11 9 -12
19 -133 78 -186 91 -30 7 -68 16 -84 21 -16 5 -97 8 -180 8 -122 -1 -166 -6
-231 -24z"/>
<path d="M14522 2803 c-13 -60 -24 -124 -25 -143 -1 -19 -5 -37 -8 -40 -4 -3
-10 -25 -13 -50 -9 -66 -32 -201 -53 -316 l-19 -101 20 5 c12 3 24 10 28 16
12 18 9 56 -4 56 -9 0 -10 3 -2 8 9 6 35 87 34 109 -1 4 -9 -10 -20 -32 -22
-46 -28 -21 -6 28 7 18 18 73 24 124 7 65 18 105 36 138 14 25 26 61 26 80 0
19 5 35 11 35 5 0 7 5 3 11 -5 8 -9 8 -14 -1 -12 -20 -23 7 -11 27 6 10 11 12
11 6 0 -22 20 -14 20 7 0 11 -4 20 -10 20 -13 0 -13 46 0 71 10 18 23 19 170
19 l159 0 4 -27 c4 -26 4 -26 3 2 l-1 30 -167 0 c-91 0 -164 3 -161 8 2 4 93
6 201 6 108 -1 190 -3 182 -5 -11 -3 -15 -14 -12 -37 1 -18 -6 -66 -17 -107
-20 -74 -20 -75 -14 -20 3 30 9 59 14 64 11 13 12 56 1 56 -15 0 -34 -134 -26
-188 3 -28 4 -62 0 -76 -6 -22 -12 -26 -46 -26 -40 0 -40 0 -40 -40 0 -24 5
-40 12 -40 9 0 9 -3 0 -12 -17 -17 -15 -39 3 -32 8 4 15 15 15 25 0 12 7 19
20 19 11 0 20 -4 20 -9 0 -14 -34 -71 -42 -71 -5 0 -8 -16 -8 -36 0 -29 3 -35
16 -30 13 5 14 4 5 -7 -6 -8 -14 -35 -17 -61 -4 -26 -10 -42 -14 -36 -4 6 -8
-22 -8 -62 -2 -75 -10 -124 -36 -213 -9 -33 -16 -45 -20 -34 -4 8 -2 28 4 43
12 34 12 36 0 36 -5 0 -10 -8 -11 -17 0 -17 -1 -17 -7 -1 -4 10 -7 -12 -7 -47
0 -35 3 -57 6 -47 6 15 7 15 11 -3 14 -67 109 342 113 483 1 29 6 56 11 60 6
4 16 45 23 92 7 47 26 152 42 234 16 82 29 150 29 152 0 2 -93 4 -208 4 l-208
0 -22 -107z"/>
<path d="M16915 2903 c110 -2 203 -7 207 -11 8 -8 -18 -121 -33 -138 -4 -5 -6
-27 -2 -47 3 -23 2 -37 -5 -37 -6 0 -13 12 -15 28 -4 22 -5 21 -5 -8 1 -19 -3
-43 -7 -53 -4 -10 -5 -21 -1 -24 3 -4 6 1 6 10 0 10 4 17 8 17 12 0 -7 -123
-20 -131 -5 -3 -9 -12 -8 -20 1 -8 2 -31 1 -51 -1 -37 -2 -38 -41 -38 l-40 0
2 -72 c0 -40 3 -58 5 -40 2 17 9 32 15 32 6 0 7 -15 3 -41 -4 -25 -3 -39 2
-36 5 3 9 27 9 52 -1 26 4 45 10 45 14 0 -2 -134 -16 -138 -12 -4 -13 -39 -1
-44 4 -1 5 -12 0 -23 -7 -19 -8 -19 -8 3 -1 12 -5 22 -11 22 -13 0 -13 -37 0
-45 6 -4 7 -13 1 -23 -5 -10 -9 -58 -9 -107 1 -101 1 -102 27 52 11 61 17 121
14 132 -3 12 -1 21 5 21 5 0 12 19 15 43 6 43 35 215 55 322 24 127 29 165 21
165 -15 0 -10 29 7 38 15 9 32 73 33 130 l1 22 -212 -2 -213 -3 200 -2z"/>
<path d="M16232 2778 c6 -13 12 -50 11 -83 -1 -53 0 -55 6 -20 l7 40 5 -34 c3
-26 9 -35 27 -37 12 -2 22 1 22 7 0 8 5 8 15 -1 8 -7 15 -23 15 -35 0 -13 7
-46 17 -74 13 -43 14 -54 3 -64 -10 -9 -11 -9 -6 0 4 7 0 27 -7 45 -8 18 -12
40 -10 48 4 13 3 13 -6 0 -5 -8 -7 -18 -5 -22 3 -5 3 -22 -1 -38 l-7 -30 -158
0 -158 0 -7 65 c-4 35 -14 72 -22 82 -13 16 -14 16 -8 -11 5 -26 4 -28 -9 -17
-9 8 -16 19 -16 26 0 7 -17 12 -46 13 l-46 0 51 -23 c28 -13 51 -29 51 -35 0
-5 7 -10 15 -10 8 0 12 -6 9 -14 -3 -8 -1 -17 5 -21 6 -3 11 -22 11 -41 l0
-34 195 0 195 0 0 28 c0 55 -46 196 -61 186 -5 -3 -9 2 -9 10 0 8 -5 18 -12
22 -8 5 -9 0 -6 -14 4 -12 3 -24 -2 -27 -13 -8 -21 25 -10 45 8 15 5 25 -15
46 -14 15 -25 31 -25 35 0 5 -5 9 -10 9 -7 0 -6 -8 2 -22z"/>
<path d="M15157 2653 c-39 -53 -63 -105 -96 -205 -20 -58 -22 -81 -18 -200 4
-140 25 -241 59 -290 10 -14 18 -29 18 -33 0 -19 114 -145 131 -145 5 0 9 -4
9 -8 0 -11 55 -42 120 -69 69 -29 72 -28 35 2 -23 19 -26 25 -12 25 28 0 19
18 -13 25 -21 5 -30 13 -30 26 0 11 -7 19 -16 19 -11 0 -15 -6 -11 -19 7 -29
-32 -36 -56 -10 -14 15 -16 23 -8 28 21 13 1 43 -25 37 -30 -8 -54 2 -47 20 4
10 0 12 -11 8 -21 -8 -20 4 1 28 21 23 11 35 -11 13 -14 -15 -16 -15 -16 -1 0
9 -6 16 -14 16 -19 0 -36 81 -30 145 6 59 -3 55 -15 -6 l-8 -44 -12 43 c-7 24
-10 53 -8 65 3 15 5 12 6 -10 0 -18 6 -33 11 -33 16 0 12 57 -6 74 -13 13 -14
30 -9 91 6 65 10 75 27 75 18 0 19 7 16 90 -2 49 -4 85 -6 80 -2 -6 -7 -10
-12 -10 -4 0 -2 23 5 51 15 54 25 73 25 46 0 -10 8 -17 20 -17 22 0 36 37 27
70 -3 11 -2 20 3 20 8 0 22 41 16 48 -2 1 -19 -19 -39 -45z"/>
<path d="M15472 2460 c-6 -11 -12 -29 -12 -40 0 -12 -4 -19 -9 -16 -6 4 -9
-70 -9 -181 1 -104 4 -170 7 -148 l6 40 8 -33 c4 -19 4 -45 1 -58 -4 -15 -2
-24 5 -24 6 0 11 8 11 18 1 15 2 15 13 2 7 -9 34 -31 60 -50 43 -30 57 -35
135 -40 74 -6 92 -4 118 12 17 10 41 18 52 18 12 0 26 9 32 21 14 26 4 38 -13
17 -6 -9 -36 -26 -64 -38 -41 -18 -66 -21 -115 -18 -164 11 -238 108 -238 311
1 75 6 117 20 157 11 30 19 58 20 63 0 14 -15 7 -28 -13z"/>
<path d="M16617 2293 c-9 -54 -27 -161 -41 -238 -15 -77 -31 -169 -37 -205 -6
-36 -15 -84 -20 -107 -14 -64 -12 -73 16 -73 16 0 25 6 25 16 0 14 -3 14 -15
4 -12 -10 -15 -9 -15 4 0 10 5 27 12 39 7 12 13 57 14 100 0 53 5 81 14 87 8
5 16 40 20 94 4 47 10 89 15 94 4 4 5 -19 1 -50 -4 -37 -2 -58 4 -58 5 0 10
10 11 23 1 21 1 21 10 -3 6 -17 7 -7 4 34 -3 32 -10 67 -16 79 -8 15 -8 34 -1
71 13 62 26 186 19 186 -2 0 -12 -44 -20 -97z"/>
<path d="M17680 2187 c0 -17 -5 -27 -14 -27 -8 0 -16 -6 -18 -12 -3 -9 -9 -8
-22 5 -10 9 -19 17 -21 17 -6 0 39 -85 48 -88 4 -2 7 -9 7 -16 0 -7 9 -21 20
-31 11 -10 20 -22 20 -26 0 -8 55 -92 75 -115 6 -6 30 -35 55 -64 69 -82 168
-179 292 -289 l26 -23 36 28 c20 16 36 33 36 37 0 13 -29 20 -47 12 -30 -12
-67 -12 -80 1 -7 7 -18 15 -25 17 -11 4 -11 7 0 14 18 13 -19 46 -42 37 -9 -3
-16 -1 -16 5 0 6 -5 10 -11 9 -6 -2 -16 6 -22 17 -7 10 -22 28 -34 38 -13 10
-23 26 -23 35 0 13 -2 14 -9 4 -6 -10 -12 -7 -24 12 -20 30 -21 43 -4 49 6 3
-3 6 -21 6 -29 1 -33 4 -28 24 3 12 3 16 0 10 -8 -19 -21 -16 -27 6 -3 13 -1
18 8 14 14 -5 35 26 34 49 0 7 -4 4 -9 -8 -6 -15 -18 -21 -39 -22 -29 -1 -46
17 -18 19 6 0 2 5 -10 11 -25 12 -28 24 -14 48 6 8 7 19 3 24 -3 6 -9 0 -13
-14 -6 -24 -7 -24 -23 13 -9 20 -22 37 -30 37 -19 0 -49 67 -40 88 6 13 9 8
14 -18 5 -33 6 -31 13 24 4 32 5 61 2 64 -3 3 -5 -7 -5 -21z"/>
<path d="M13807 2182 c-18 -4 -30 -91 -25 -189 2 -53 5 -61 18 -53 12 8 13 13
3 30 -15 23 -17 99 -3 120 7 11 10 0 12 -40 1 -53 2 -54 5 -10 3 24 8 39 12
32 4 -6 7 6 8 28 2 30 -1 38 -13 33 -9 -3 -14 2 -14 15 0 20 6 20 178 20 97
-1 158 -3 135 -5 l-43 -4 2 -82 c1 -71 2 -76 8 -37 l7 45 1 -42 c2 -54 22 -57
22 -3 0 33 3 40 20 40 14 0 20 7 20 24 0 13 3 36 6 52 l5 29 -174 0 c-95 0
-181 -1 -190 -3z"/>
<path d="M17761 2150 c2 -77 0 -92 -16 -86 -19 7 -20 -8 -1 -23 15 -13 26 4
26 40 0 26 19 24 29 -3 5 -13 18 -32 30 -42 27 -25 27 -35 -1 -30 -21 4 -21 4
-3 -4 11 -5 27 -7 35 -4 12 4 13 2 3 -9 -18 -18 -16 -32 3 -25 8 3 13 2 9 -3
-10 -18 7 -42 29 -39 16 2 20 -2 18 -16 -2 -11 1 -15 7 -11 15 9 14 -8 -1 -23
-15 -15 -8 -22 30 -27 17 -2 35 -6 40 -9 16 -10 12 -65 -6 -75 -9 -5 -14 -13
-10 -16 4 -4 18 5 33 21 l25 27 21 -22 c11 -12 22 -34 23 -49 2 -15 4 -30 5
-34 0 -5 8 -8 17 -8 14 0 14 3 4 15 -10 12 -10 15 2 15 8 0 19 -5 26 -12 6 -6
15 -8 19 -4 4 4 -1 12 -12 18 -11 6 -52 45 -92 86 -62 65 -74 73 -87 62 -13
-10 -16 -10 -16 4 0 10 5 14 10 11 19 -12 10 8 -20 42 -16 18 -30 29 -30 23 0
-5 -5 -10 -10 -10 -6 0 -8 11 -4 25 4 15 2 25 -4 25 -6 0 -13 8 -16 18 -3 9
-16 28 -28 42 -24 27 -39 51 -70 110 l-18 35 1 -35z"/>
<path d="M15954 2108 c4 -20 2 -26 -9 -22 -9 4 -12 0 -8 -14 3 -12 -1 -22 -11
-25 -9 -4 -16 -13 -16 -22 0 -14 2 -14 24 0 16 11 27 30 31 56 l7 39 176 -2
177 -2 -167 -3 c-140 -3 -168 -6 -168 -18 0 -13 27 -15 170 -15 l170 0 -5 -47
-5 -48 14 35 c30 72 36 69 -161 73 l-178 2 183 3 c113 1 182 6 182 12 0 6 1
12 3 15 1 3 -92 6 -206 8 l-209 2 6 -27z"/>
<path d="M16296 1983 c-3 -3 -6 -14 -6 -24 0 -11 -5 -16 -14 -13 -9 3 -15 -5
-19 -25 -7 -32 -89 -121 -95 -102 -2 6 -11 11 -19 11 -11 0 -13 -3 -5 -13 8
-9 4 -18 -14 -34 -22 -20 -25 -20 -34 -5 -10 15 -10 15 -8 -3 3 -15 -7 -24
-36 -38 -37 -17 -65 -15 -37 2 9 6 10 11 2 15 -6 4 -11 2 -11 -3 0 -6 -12 -11
-27 -11 -16 0 -35 -5 -43 -10 -11 -7 -6 -10 20 -10 24 0 31 -3 21 -9 -7 -5
-22 -6 -32 -4 -13 4 -19 0 -19 -11 0 -18 -6 -19 -290 -18 -143 0 -167 -2 -130
-10 99 -23 426 -8 465 21 6 5 34 16 64 25 53 17 127 62 167 102 12 12 26 23
30 25 8 3 62 81 88 126 7 13 -7 26 -18 16z"/>
<path d="M13790 1906 c-1 -53 101 -172 169 -196 20 -7 38 -17 41 -21 20 -30
340 -43 452 -20 79 18 178 70 231 123 26 27 47 54 47 60 0 7 -6 4 -13 -7 -8
-10 -19 -15 -25 -11 -21 13 -44 -6 -38 -30 4 -16 2 -24 -6 -24 -7 0 -23 -11
-35 -23 -20 -21 -82 -47 -113 -47 -7 0 -18 -7 -24 -15 -12 -17 -51 -19 -273
-17 l-123 2 0 40 c0 40 0 40 -37 40 -41 0 -72 -14 -60 -27 5 -4 11 -2 15 4 5
7 13 9 21 4 9 -6 10 -11 2 -15 -6 -4 -11 -4 -11 1 0 4 -4 2 -8 -4 -10 -16 -69
12 -111 53 -16 16 -36 35 -44 42 -9 7 -14 20 -11 30 5 14 4 15 -5 2 -13 -19
-14 -5 -2 38 6 20 6 32 0 32 -5 0 -9 -10 -9 -22 -1 -23 -1 -23 -15 2 -12 21
-14 22 -15 6z"/>
<path d="M13090 1181 c0 -34 48 -147 97 -227 86 -142 215 -256 411 -362 147
-80 231 -89 247 -25 9 38 -22 130 -52 156 -176 147 -247 228 -307 352 -18 38
-36 78 -39 88 -6 15 -23 17 -172 17 -103 0 -165 4 -165 10 0 6 -4 10 -10 10
-5 0 -10 -8 -10 -19z"/>
</g>
</svg>
