<?xml version="1.0" standalone="no"?>
<!DOCTYPE svg PUBLIC "-//W3C//DTD SVG 20010904//EN"
 "http://www.w3.org/TR/2001/REC-SVG-20010904/DTD/svg10.dtd">
<svg version="1.0" xmlns="http://www.w3.org/2000/svg"
 width="2048.000000pt" height="1684.000000pt" viewBox="0 0 2048.000000 1684.000000"
 preserveAspectRatio="xMidYMid meet">
<metadata>
Created by potrace 1.16, written by Peter Selinger 2001-2019
</metadata>
<g transform="translate(0.000000,1684.000000) scale(0.100000,-0.100000)"
fill="#000000" stroke="none">
<path d="M14974 14333 c-16 -20 -31 -41 -32 -47 -2 -6 8 4 23 22 14 17 30 32
35 32 8 0 36 -36 142 -180 30 -41 113 -154 185 -250 71 -96 195 -264 276 -372
81 -109 152 -206 158 -216 7 -11 20 -24 30 -30 10 -7 -59 93 -154 221 -255
344 -373 503 -510 689 l-124 167 -29 -36z"/>
<path d="M16810 14343 c0 -10 0 -280 0 -600 l0 -583 -442 -3 -443 -2 448 -3
447 -2 0 605 c0 333 -2 605 -5 605 -3 0 -5 -8 -5 -17z"/>
<path d="M12904 14089 c-65 -88 -155 -209 -199 -269 -44 -60 -110 -149 -147
-199 l-68 -91 536 0 535 0 -43 58 c-23 31 -99 134 -168 227 -69 94 -170 230
-224 303 -54 72 -99 132 -100 132 -2 0 -57 -72 -122 -161z m292 -86 c93 -126
206 -277 251 -338 45 -60 83 -113 83 -117 0 -5 -227 -8 -505 -8 -278 0 -505 2
-505 5 0 3 46 67 102 143 56 75 125 169 153 207 121 165 249 335 251 335 1 0
78 -102 170 -227z"/>
<path d="M15812 13255 c7 -9 28 -32 47 -53 l33 -37 -253 -3 c-140 -1 -543 -1
-896 0 -422 2 -644 0 -647 -7 -2 -7 301 -9 900 -7 497 1 904 5 904 9 0 11 -82
113 -92 113 -5 0 -3 -7 4 -15z"/>
<path d="M5761 12745 c-53 -17 -88 -48 -112 -100 -17 -38 -19 -78 -19 -660 0
-341 3 -631 7 -645 l7 -25 6 29 c7 39 23 39 31 1 3 -16 8 249 10 590 l4 620
25 44 c18 32 39 52 75 70 l49 26 2026 2 c1114 2 2322 -1 2685 -6 602 -7 511
-8 -1045 -12 -938 -2 -2146 -4 -2685 -4 l-980 0 -44 -25 c-25 -14 -54 -41 -65
-60 -21 -35 -21 -41 -26 -1920 -2 -1037 -7 -1831 -10 -1765 -5 91 -7 50 -9
-170 -2 -159 -6 -315 -11 -345 -4 -30 -8 -47 -9 -37 0 9 -5 17 -11 17 -5 0
-10 12 -11 28 0 24 -1 25 -9 7 -5 -11 -9 -240 -9 -510 -1 -455 1 -493 18 -530
22 -50 69 -91 119 -105 54 -15 7762 -14 7817 1 54 15 109 74 124 132 7 31 11
157 10 379 -2 300 -13 712 -17 631 -1 -18 -6 -33 -10 -33 -5 0 -13 -12 -18
-27 -7 -20 -13 225 -18 795 -8 908 2 2274 16 2248 5 -9 14 -14 19 -10 6 3 10
0 8 -7 -1 -8 0 -25 2 -39 8 -69 16 322 15 775 -1 507 -1 510 -23 552 -27 50
-66 79 -124 92 -29 7 -1328 10 -3904 10 -3224 0 -3867 -3 -3904 -14z m7729
-2740 l0 -2465 -3815 0 -3815 0 -2 1038 c-2 570 -2 1679 0 2465 l2 1427 3815
0 3815 0 0 -2465z"/>
<path d="M8353 11552 c-21 -2 -34 -10 -38 -23 -4 -11 -15 -19 -27 -19 -18 0
-20 -4 -14 -41 8 -51 37 -108 77 -154 l31 -35 30 37 c58 73 91 193 53 193 -8
0 -19 8 -24 19 -11 20 -39 28 -88 23z m87 -42 c31 -29 32 -32 21 -68 -15 -51
-69 -134 -83 -130 -21 7 -75 95 -82 133 -6 32 -3 41 21 66 38 39 81 39 123 -1z"/>
<path d="M12815 11531 c-3 -11 -12 -22 -20 -25 -21 -8 -19 -72 4 -121 11 -22
34 -57 53 -79 l35 -38 30 39 c30 37 73 143 73 179 0 9 -9 18 -19 21 -11 3 -21
13 -24 24 -4 16 -15 19 -65 19 -51 0 -62 -3 -67 -19z m133 -22 c20 -24 23 -36
17 -69 -7 -41 -60 -131 -81 -137 -15 -5 -69 81 -84 134 -12 40 -12 43 16 72
41 42 99 43 132 0z"/>
<path d="M6990 11525 c0 -8 -9 -20 -20 -27 -40 -26 -13 -132 56 -213 l25 -30
36 40 c41 46 73 114 73 155 0 18 -11 39 -31 59 -27 27 -38 31 -85 31 -41 0
-54 -4 -54 -15z m110 -9 c0 -7 11 -21 25 -30 25 -16 34 -50 16 -60 -5 -3 -12
-18 -16 -33 -9 -38 -57 -103 -76 -103 -9 0 -21 10 -28 23 -6 12 -22 42 -36 67
-32 58 -31 81 3 118 22 25 35 31 70 32 29 0 42 -4 42 -14z"/>
<path d="M7792 11454 c-15 -92 -27 -120 -48 -103 -8 6 -14 20 -14 31 0 14 -6
19 -22 16 -29 -4 -34 -32 -14 -63 13 -20 25 -25 60 -25 58 0 75 21 92 117 18
104 18 103 -14 103 -28 0 -29 -2 -40 -76z"/>
<path d="M7924 11507 c-23 -20 -28 -34 -32 -83 -3 -49 0 -63 18 -86 42 -54
170 -29 170 32 0 27 -41 27 -58 0 -26 -42 -82 -10 -82 46 0 59 66 97 92 54 7
-11 23 -20 36 -20 20 0 22 4 16 23 -13 42 -34 57 -85 57 -36 0 -55 -6 -75 -23z"/>
<path d="M11457 11497 c-24 -25 -28 -35 -22 -65 8 -43 34 -95 69 -137 l24 -30
26 24 c32 30 76 120 76 156 0 17 -11 38 -31 56 -44 41 -102 39 -142 -4z m132
-7 c24 -26 28 -36 21 -63 -8 -36 -23 -68 -53 -110 l-19 -28 -25 23 c-28 26
-51 67 -64 111 -7 25 -4 35 19 63 37 44 81 46 121 4z"/>
<path d="M12280 11448 c-12 -80 -23 -108 -41 -108 -5 0 -11 11 -15 25 -4 18
-13 25 -30 25 -20 0 -24 -5 -24 -28 0 -39 28 -62 77 -62 55 0 70 21 88 121 19
111 20 109 -13 109 -28 0 -29 -2 -42 -82z"/>
<path d="M12416 11504 c-49 -49 -51 -131 -5 -180 47 -51 169 -17 169 47 0 18
-52 9 -70 -13 -15 -19 -21 -21 -44 -10 -50 23 -45 105 9 131 26 13 30 12 46
-8 10 -11 29 -21 43 -21 30 0 31 2 11 39 -17 34 -33 41 -89 41 -33 0 -49 -6
-70 -26z"/>
<path d="M6445 11498 c-5 -26 -25 -149 -25 -160 0 -5 -11 -8 -25 -8 -20 0 -25
5 -25 24 0 18 -5 23 -22 22 -32 -1 -37 -47 -7 -77 17 -17 29 -20 62 -16 62 8
78 32 90 132 9 73 9 88 -3 96 -24 15 -39 10 -45 -13z"/>
<path d="M6588 11504 c-51 -27 -73 -105 -48 -169 13 -34 72 -59 120 -51 35 5
80 45 80 69 0 22 -48 19 -60 -3 -15 -28 -56 -26 -75 4 -24 36 -5 103 32 112
20 5 31 2 44 -14 9 -12 28 -22 42 -22 21 0 23 4 19 25 -10 57 -93 83 -154 49z"/>
<path d="M10975 11495 c-2 -5 -9 -44 -17 -85 -11 -64 -16 -75 -33 -75 -13 0
-21 8 -23 23 -2 14 -10 22 -23 22 -27 0 -27 -65 0 -80 33 -17 86 -12 106 10
15 17 43 128 44 180 1 17 -50 22 -54 5z"/>
<path d="M11088 11481 c-30 -27 -33 -35 -33 -86 0 -50 3 -60 28 -81 36 -31 94
-32 131 -3 30 24 35 59 8 59 -11 0 -27 -9 -37 -20 -36 -40 -75 -19 -75 40 0
62 45 95 80 60 11 -11 29 -20 41 -20 16 0 19 4 14 23 -18 62 -102 77 -157 28z"/>
<path d="M10640 10949 c-49 -11 -100 -68 -100 -114 0 -112 98 -176 196 -129
42 20 64 59 64 114 0 92 -70 148 -160 129z m98 -53 c35 -35 39 -93 10 -136
-21 -31 -30 -35 -71 -38 -40 -3 -50 1 -72 24 -27 29 -35 97 -15 134 28 52 105
60 148 16z"/>
<path d="M8280 10941 c0 -5 5 -11 11 -13 17 -6 -55 -202 -75 -206 -9 -2 -16
-10 -16 -18 0 -10 12 -14 39 -14 43 0 61 14 36 28 -13 7 -14 14 -6 35 10 25
15 27 64 27 48 0 55 -3 65 -25 15 -33 15 -35 -3 -35 -8 0 -15 -7 -15 -15 0
-11 12 -15 45 -15 32 0 45 4 45 14 0 7 -8 16 -18 18 -12 4 -26 27 -39 69 -12
35 -31 85 -43 112 -19 43 -24 47 -55 47 -19 0 -35 -4 -35 -9z"/>
<path d="M8520 10915 c0 -40 17 -47 26 -10 5 19 13 25 35 25 l29 0 0 -104 c0
-85 -3 -105 -16 -110 -28 -11 -4 -26 42 -26 32 0 44 4 44 15 0 8 -7 15 -15 15
-12 0 -15 18 -15 105 l0 105 30 0 c23 0 33 -6 40 -26 12 -32 30 -22 30 17 l0
29 -115 0 -115 0 0 -35z"/>
<path d="M8782 10918 c4 -39 25 -48 34 -14 5 22 12 26 40 26 l34 0 0 -104 c0
-97 -1 -104 -21 -109 -35 -9 -11 -27 37 -27 32 0 44 4 44 15 0 8 -7 15 -15 15
-12 0 -15 18 -15 105 l0 105 30 0 c23 0 33 -6 40 -26 12 -32 30 -22 30 17 l0
29 -121 0 -120 0 3 -32z"/>
<path d="M9060 10940 c0 -5 7 -10 15 -10 12 0 15 -18 15 -105 0 -87 -3 -105
-15 -105 -8 0 -15 -7 -15 -15 0 -13 16 -15 103 -13 99 3 102 4 105 27 5 33
-17 53 -24 23 -6 -20 -13 -22 -65 -22 l-59 0 0 45 0 45 50 0 c39 0 50 4 50 16
0 12 -10 15 -47 13 l-48 -3 0 44 0 45 53 3 c47 3 54 1 59 -18 7 -28 27 -20 31
13 l3 27 -105 0 c-64 0 -106 -4 -106 -10z"/>
<path d="M9332 10935 c-24 -17 -29 -54 -12 -85 6 -12 34 -26 68 -36 71 -20 84
-31 80 -63 -2 -21 -9 -27 -37 -29 -52 -5 -79 6 -96 38 -21 40 -35 30 -35 -26
0 -32 4 -44 15 -44 8 0 15 7 15 15 0 19 9 19 34 0 50 -38 146 -2 146 55 0 35
-34 61 -103 80 -61 16 -80 45 -47 72 12 10 28 18 35 18 29 0 64 -20 70 -39 11
-37 35 -25 35 17 l0 38 -73 2 c-52 2 -78 -2 -95 -13z"/>
<path d="M9550 10921 c0 -39 18 -49 30 -17 7 20 17 26 40 26 l30 0 0 -105 c0
-87 -3 -105 -15 -105 -8 0 -15 -7 -15 -15 0 -11 12 -15 45 -15 33 0 45 4 45
15 0 8 -7 15 -15 15 -13 0 -15 16 -13 103 l3 102 33 3 c26 3 32 0 32 -16 0
-20 23 -36 34 -25 3 4 6 19 6 35 l0 28 -120 0 -120 0 0 -29z"/>
<path d="M9900 10941 c0 -5 5 -11 12 -13 17 -6 -60 -208 -78 -208 -8 0 -14 -7
-14 -15 0 -11 12 -15 45 -15 33 0 45 4 45 15 0 8 -7 15 -15 15 -18 0 -18 2 -3
35 10 22 17 25 64 25 49 0 53 -2 63 -30 8 -24 7 -30 -5 -30 -7 0 -14 -7 -14
-15 0 -11 12 -15 45 -15 33 0 45 4 45 15 0 8 -6 15 -14 15 -12 0 -67 127 -91
208 -5 18 -13 22 -46 22 -21 0 -39 -4 -39 -9z"/>
<path d="M10142 10918 c3 -38 21 -44 26 -10 3 19 9 23 35 20 l32 -3 3 -101 c3
-96 2 -102 -19 -107 -35 -9 -11 -27 37 -27 32 0 44 4 44 15 0 8 -7 15 -15 15
-13 0 -15 16 -13 103 l3 102 27 3 c22 3 30 -2 38 -23 12 -33 30 -24 30 16 l0
29 -116 0 -115 0 3 -32z"/>
<path d="M10840 10941 c0 -5 7 -11 15 -15 12 -4 15 -26 15 -106 0 -82 -3 -100
-15 -100 -8 0 -15 -7 -15 -15 0 -11 12 -15 50 -15 38 0 50 4 50 15 0 8 -9 15
-20 15 -18 0 -20 7 -20 85 0 78 10 107 24 70 15 -39 119 -185 132 -185 11 0
14 22 14 116 0 107 1 116 20 121 37 10 20 23 -30 23 -27 0 -50 -4 -50 -10 0
-5 7 -10 15 -10 12 0 15 -16 15 -85 0 -47 -2 -85 -3 -85 -2 0 -32 43 -66 95
-59 89 -65 95 -97 95 -19 0 -34 -4 -34 -9z"/>
<path d="M8836 10574 c-3 -9 -6 -54 -6 -100 l0 -84 34 0 c52 0 66 21 66 96 0
36 -5 74 -10 85 -13 24 -75 27 -84 3z"/>
<path d="M9370 10473 c0 -67 3 -83 15 -83 12 0 15 15 15 75 0 60 3 75 15 75
12 0 15 -15 15 -75 0 -60 3 -75 15 -75 12 0 15 15 15 75 0 60 3 75 15 75 12 0
15 -15 15 -75 0 -66 2 -75 19 -75 16 0 18 9 20 65 3 95 -4 103 -89 102 l-70
-1 0 -83z"/>
<path d="M10060 10473 c0 -67 3 -83 15 -83 12 0 15 15 15 75 0 60 3 75 15 75
12 0 15 -15 15 -75 0 -59 3 -75 15 -75 11 0 15 17 17 72 2 46 7 73 16 76 9 3
12 -16 12 -72 0 -61 3 -76 15 -76 12 0 15 16 15 83 l0 84 -75 0 -75 -1 0 -83z"/>
<path d="M6760 8985 c-14 -8 -42 -14 -64 -15 -135 -1 -231 -101 -212 -219 l6
-40 -70 -37 c-38 -21 -70 -42 -70 -46 0 -13 60 -8 132 11 46 12 71 14 78 7 7
-7 10 -5 10 6 0 10 14 21 37 29 31 10 38 9 48 -5 17 -23 28 -20 15 4 -9 17 -5
22 31 40 l41 22 27 -26 c34 -32 52 -34 23 -3 -12 13 -19 27 -15 32 5 4 2 5 -6
0 -9 -5 -12 -4 -7 3 11 18 94 60 164 82 37 12 92 30 122 40 30 11 79 22 108
26 28 4 52 11 52 16 0 13 -93 0 -139 -19 -20 -9 -67 -24 -105 -35 -39 -10
-100 -34 -138 -53 l-67 -34 -16 22 c-15 21 -13 22 53 47 94 37 216 120 175
120 -24 0 -97 -26 -156 -56 -37 -19 -73 -34 -78 -34 -6 0 8 21 31 47 54 61 48
101 -10 68z m-60 -32 c0 -5 -7 -28 -16 -52 -10 -31 -12 -47 -4 -55 5 -5 10
-13 10 -18 0 -7 -52 -38 -64 -38 -3 0 -26 57 -26 66 0 11 31 1 55 -18 18 -14
26 -17 23 -7 -2 7 -19 23 -38 33 -32 19 -33 19 -47 1 -7 -11 -11 -25 -9 -32 3
-8 -6 -15 -22 -19 -15 -4 -37 -14 -50 -22 -23 -15 -23 -14 -16 14 12 52 34 84
74 110 48 32 130 55 130 37z"/>
<path d="M12564 8939 c-34 -36 -142 -119 -155 -119 -4 0 -6 8 -3 18 3 9 -2 5
-10 -9 -9 -15 -29 -32 -46 -37 -36 -13 -40 -27 -5 -18 30 8 32 -3 4 -38 -36
-46 -69 -30 -69 34 0 25 -15 48 -25 39 -2 -2 -1 -26 2 -52 3 -26 8 -45 11 -42
3 3 13 -2 23 -11 25 -23 54 -4 84 55 16 32 32 50 47 53 21 4 23 1 20 -34 -4
-39 13 -54 25 -22 15 40 53 67 93 67 29 0 44 5 50 18 8 13 18 16 43 13 26 -4
42 2 89 37 32 24 56 45 53 47 -2 2 -21 -9 -42 -25 -72 -57 -103 -64 -103 -23
0 29 -12 29 -50 3 -35 -24 -35 -24 -6 -17 23 5 27 4 21 -7 -20 -35 -26 -38
-45 -27 -14 9 -22 9 -33 -1 -9 -7 -18 -8 -21 -3 -3 6 6 13 20 16 15 4 24 9 21
12 -3 3 -22 -2 -42 -11 -21 -8 -39 -14 -41 -12 -2 1 23 25 56 52 32 28 61 56
64 63 8 18 3 15 -30 -19z"/>
<path d="M15634 11270 l-530 -5 130 -177 c72 -97 191 -258 265 -357 74 -100
138 -178 141 -174 4 4 34 44 66 88 32 44 110 150 173 235 288 389 301 406 289
398 -2 -2 -242 -5 -534 -8z m500 -22 c-4 -7 -30 -44 -59 -83 -317 -430 -428
-580 -434 -587 -4 -5 -43 40 -87 100 -169 225 -424 572 -424 577 0 3 228 5
506 5 401 0 504 -3 498 -12z"/>
<path d="M15937 10658 c15 -18 255 -343 588 -793 158 -214 290 -393 294 -397
3 -4 6 265 6 598 l0 604 -449 0 c-357 0 -446 -3 -439 -12z m873 -573 c0 -316
-2 -575 -4 -575 -2 0 -41 51 -87 113 -111 150 -328 444 -484 652 -169 228
-275 374 -275 380 0 3 191 5 425 5 l425 0 0 -575z"/>
<path d="M6179 7178 c-41 -34 -329 -338 -329 -347 0 -8 1117 -11 3825 -11
2104 0 3825 3 3825 8 0 4 -77 87 -171 185 l-171 177 -3482 0 c-2771 0 -3485
-3 -3497 -12z m5001 -318 c0 -7 -504 -9 -1497 -8 l-1498 3 1495 5 c822 3 1496
6 1498 8 1 1 2 -2 2 -8z"/>
<path d="M3618 6385 l2 -565 436 0 c348 0 435 3 427 13 -77 101 -865 1117
-866 1117 -1 0 -1 -254 1 -565z m362 80 c278 -359 393 -507 473 -612 8 -10
-75 -13 -407 -13 l-416 0 0 537 c0 295 4 533 8 528 5 -6 159 -203 342 -440z"/>
<path d="M7940 6728 l-42 -63 54 58 53 58 120 -3 120 -2 -125 -6 c-69 -3 242
-6 690 -6 l815 1 -685 5 c-443 4 -140 6 857 6 l1541 -1 24 -30 c12 -16 34 -41
47 -55 l23 -25 -18 30 c-9 17 -27 45 -38 62 l-21 33 -1687 0 -1687 0 -41 -62z"/>
<path d="M5190 6418 l0 -53 -72 3 c-40 2 -79 8 -85 14 -29 23 -9 -11 45 -82
32 -41 69 -80 82 -87 20 -10 938 -13 4513 -13 3918 0 4492 2 4516 15 31 15
131 143 131 166 0 12 -2 12 -9 0 -8 -12 -592 -14 -4228 -14 l-4218 1 -3 51
c-4 65 -22 67 -22 2 0 -56 -19 -82 -45 -61 -8 7 -15 24 -15 39 0 36 -11 71
-21 71 -5 0 -9 -25 -9 -56 0 -34 -4 -53 -10 -49 -5 3 -10 28 -10 56 0 27 -4
49 -10 49 -15 0 -13 -107 3 -112 6 -3 -4 -5 -23 -5 -19 0 -29 2 -22 5 15 5 17
112 2 112 -5 0 -10 -19 -10 -42 0 -24 -5 -50 -10 -58 -7 -11 -10 -6 -10 20 0
47 -10 81 -21 74 -5 -3 -9 -29 -9 -57 0 -37 -3 -48 -10 -37 -5 8 -10 34 -10
58 0 23 -4 42 -10 42 -15 0 -13 -107 3 -112 6 -3 -4 -5 -23 -5 -19 0 -29 2
-22 5 15 5 17 112 2 112 -5 0 -10 -22 -10 -49 0 -28 -4 -53 -10 -56 -6 -4 -10
15 -10 50 0 70 -23 72 -28 3 -2 -29 -9 -51 -20 -60 -15 -11 -15 -11 -6 2 12
17 6 110 -7 110 -5 0 -9 -25 -9 -56 0 -34 -4 -53 -10 -49 -5 3 -10 28 -10 56
0 27 -4 49 -10 49 -5 0 -10 -25 -10 -55 0 -35 4 -55 12 -55 6 0 9 -2 6 -5 -3
-3 -13 -3 -22 1 -12 5 -16 19 -16 60 0 55 -13 72 -24 32 -3 -13 -6 -38 -6 -57
0 -19 -2 -32 -4 -30 -4 4 -15 72 -16 97 0 6 -4 12 -10 12 -5 0 -10 -25 -10
-56 0 -34 -4 -53 -10 -49 -5 3 -10 28 -10 56 0 27 -4 49 -10 49 -5 0 -10 -22
-10 -49 0 -56 -19 -82 -45 -61 -8 7 -15 24 -15 39 0 36 -11 71 -21 71 -5 0 -9
-24 -9 -52z m7840 -76 c0 -15 -2232 -24 -4475 -17 -1210 4 -2208 7 -2217 7
-10 -1 -20 3 -23 9 -4 5 1269 9 3354 9 1849 0 3361 -4 3361 -8z"/>
<path d="M8562 6433 l3 -28 1090 -3 c600 -1 1100 0 1113 3 15 4 22 13 22 30
l0 25 -1116 0 -1115 0 3 -27z"/>
<path d="M4514 5592 l-260 -337 263 -3 c145 -1 382 -1 528 0 l265 3 -260 335
c-142 184 -263 336 -267 337 -4 1 -125 -150 -269 -335z m511 11 c131 -170 242
-314 248 -320 7 -10 -92 -13 -491 -13 l-501 0 247 320 c136 176 250 320 253
320 4 0 113 -138 244 -307z"/>
<path d="M7043 5610 c-93 -20 -184 -94 -223 -182 -32 -73 -45 -193 -31 -280
22 -133 77 -215 179 -265 51 -25 68 -28 157 -28 114 0 166 17 224 76 32 31 81
120 81 145 0 6 -26 19 -57 28 -32 10 -64 20 -70 23 -8 2 -13 -3 -13 -13 0 -9
-11 -36 -24 -58 -71 -121 -240 -112 -308 17 -20 37 -23 57 -23 162 0 113 2
123 27 167 39 65 87 93 164 93 51 0 66 -4 98 -28 20 -16 44 -43 53 -61 l15
-32 69 15 c38 8 69 18 69 23 0 20 -50 105 -77 130 -63 60 -202 91 -310 68z
m218 -26 c65 -21 149 -112 149 -163 0 -5 -13 -11 -29 -14 -16 -3 -40 -9 -53
-12 -20 -5 -29 0 -51 33 -44 67 -147 101 -221 72 -14 -5 -43 -25 -65 -45 -58
-53 -75 -110 -69 -245 4 -94 8 -113 31 -153 37 -62 96 -97 166 -97 29 0 65 7
80 14 36 19 89 79 97 111 7 30 4 29 70 9 l52 -17 -11 -31 c-13 -39 -49 -96
-74 -118 -10 -10 -41 -27 -68 -40 -71 -32 -209 -32 -280 0 -126 58 -185 165
-185 339 0 107 14 169 53 234 76 126 242 177 408 123z"/>
<path d="M8273 5610 c-17 -6 -43 -24 -57 -41 -23 -27 -26 -38 -24 -102 l1 -72
7 70 c3 39 10 78 14 88 16 34 66 51 149 50 43 0 80 -3 82 -5 3 -3 2 -19 -1
-36 -6 -30 -9 -32 -48 -32 -62 0 -88 -28 -84 -88 l3 -47 48 -3 c46 -3 47 -4
47 -38 0 -33 -1 -34 -38 -34 -21 0 -43 -5 -50 -12 -9 -9 -12 -73 -12 -225 l0
-213 -55 0 -55 0 -2 218 -3 217 -5 -223 -5 -222 68 0 67 0 0 220 0 220 55 0
55 0 0 50 0 50 -55 0 -55 0 0 43 c0 59 23 80 84 75 l46 -3 6 43 c4 24 4 45 2
47 -10 11 -155 14 -185 5z"/>
<path d="M16149 5596 c-50 -34 -67 -77 -75 -189 l-7 -97 72 0 71 0 0 65 0 65
-35 0 c-32 0 -35 3 -35 29 0 32 31 77 60 86 16 5 17 10 8 35 -12 36 -14 36
-59 6z m47 -7 c3 -6 -9 -27 -29 -47 -56 -59 -56 -112 -1 -112 22 0 24 -4 24
-55 l0 -55 -50 0 -50 0 0 78 c0 99 13 145 51 176 34 29 44 31 55 15z"/>
<path d="M10420 5235 l0 -375 70 0 70 0 0 375 0 375 -70 0 -70 0 0 -375z m120
0 l0 -365 -50 0 -50 0 0 365 0 365 50 0 50 0 0 -365z"/>
<path d="M10710 5235 l0 -375 70 0 70 0 0 88 c0 86 1 89 33 120 18 18 36 32
39 32 3 0 36 -54 73 -120 l66 -120 76 0 c59 0 73 3 65 13 -5 6 -51 84 -101
171 l-92 159 33 36 c18 20 60 64 93 99 l59 62 -85 0 -86 0 -88 -101 c-49 -56
-84 -100 -78 -98 6 2 48 46 93 97 l81 92 66 0 65 0 -72 -80 c-40 -44 -76 -83
-81 -86 -17 -10 -8 -30 81 -184 49 -85 90 -158 90 -162 0 -5 -25 -8 -55 -8
l-54 0 -61 108 c-92 163 -83 156 -136 99 l-44 -49 0 -79 0 -79 -50 0 -50 0 0
365 0 365 50 0 50 0 0 -190 c0 -120 4 -190 10 -190 6 0 10 72 10 195 l0 195
-70 0 -70 0 0 -375z"/>
<path d="M12431 5588 c-5 -13 -52 -133 -104 -268 -52 -135 -113 -292 -136
-349 -23 -58 -41 -106 -41 -108 0 -2 33 -3 74 -3 l73 0 32 85 33 85 157 0 157
0 31 -82 31 -83 76 -3 c42 -2 76 0 76 4 0 4 -66 173 -147 375 l-147 369 -78 0
c-72 0 -79 -2 -87 -22z m178 -45 c28 -74 70 -177 109 -273 66 -159 152 -382
152 -391 0 -6 -26 -9 -61 -7 l-61 3 -32 80 -31 80 -165 0 -164 0 -13 -25 c-7
-14 -22 -51 -34 -82 l-20 -58 -60 0 c-32 0 -59 3 -59 6 0 4 15 45 34 93 19 47
58 147 86 221 109 283 141 366 150 388 9 20 17 22 78 22 l68 0 23 -57z"/>
<path d="M14000 5550 l0 -60 65 0 65 0 0 60 0 60 -65 0 -65 0 0 -60z"/>
<path d="M9548 5549 l-68 -40 0 -55 0 -54 -35 0 -35 0 0 -50 0 -50 35 0 35 0
0 -167 c0 -196 8 -236 53 -264 26 -16 46 -19 104 -17 40 2 76 8 81 13 5 6 7
31 4 56 l-4 47 -37 -5 c-59 -8 -63 4 -62 176 1 93 -2 152 -9 156 -7 4 -10 -45
-10 -147 0 -180 6 -198 71 -198 39 0 39 0 39 -39 0 -39 0 -40 -45 -47 -56 -8
-107 1 -137 25 -22 19 -23 24 -26 208 -3 199 -9 223 -54 223 -14 0 -18 8 -18
35 0 30 3 35 23 35 34 0 47 19 47 71 0 45 2 48 44 73 25 14 47 26 50 26 3 0 6
-37 6 -82 0 -57 3 -79 10 -72 7 7 10 47 8 97 l-3 87 -67 -41z"/>
<path d="M13713 5550 l-62 -35 -1 -57 0 -58 -35 0 -35 0 0 -50 0 -50 34 0 35
0 3 -195 3 -195 26 -26 c30 -30 90 -41 163 -30 44 7 46 9 46 39 0 63 -8 73
-47 69 -58 -7 -63 8 -63 185 l0 153 50 0 50 0 0 50 0 50 -50 0 -49 0 -3 93 -3
92 -62 -35z m110 -158 c46 -3 47 -4 47 -38 0 -33 -1 -34 -38 -34 -21 0 -43 -5
-50 -12 -8 -8 -12 -60 -12 -167 0 -173 6 -191 65 -191 30 0 33 -3 40 -36 3
-20 4 -39 1 -42 -13 -12 -143 -7 -169 7 -39 21 -47 64 -47 252 0 175 -4 189
-47 189 -20 0 -23 5 -23 34 0 32 3 35 33 38 31 3 32 4 35 59 l3 55 52 30 52
30 5 -86 5 -85 48 -3z"/>
<path d="M7675 5398 c-51 -19 -82 -46 -103 -90 l-20 -43 61 -12 c45 -8 63 -8
66 0 2 6 14 21 27 34 18 18 34 23 77 23 65 0 101 -29 95 -76 -3 -28 -6 -30
-108 -52 -186 -41 -230 -75 -230 -178 0 -96 66 -154 174 -154 64 0 129 24 162
61 14 16 5 13 -31 -10 -90 -55 -202 -52 -260 9 -22 23 -29 41 -32 82 -7 99 33
133 201 173 136 31 155 45 132 98 -18 44 -48 61 -109 61 -40 0 -52 -5 -80 -32
-31 -30 -37 -32 -80 -26 -26 4 -47 10 -47 14 0 23 63 90 97 101 53 19 208 17
255 -3 67 -30 72 -47 79 -273 3 -110 9 -208 13 -217 7 -16 2 -18 -41 -18 -42
0 -52 4 -61 23 l-12 22 3 -25 c2 -24 6 -25 69 -28 l66 -3 -14 47 c-10 33 -14
100 -14 218 0 194 -8 225 -70 260 -28 16 -56 21 -135 23 -56 1 -113 -2 -130
-9z"/>
<path d="M8642 5397 c-98 -36 -155 -130 -155 -261 -1 -106 15 -158 64 -211 72
-78 214 -100 317 -49 57 28 124 112 100 125 -23 12 -128 21 -128 11 0 -5 -12
-21 -26 -36 -53 -53 -148 -26 -180 50 -28 66 -33 64 172 64 l187 0 -7 61 c-15
129 -57 198 -146 238 -51 23 -145 27 -198 8z m160 -8 c97 -21 168 -123 168
-241 l0 -38 -168 0 c-117 0 -172 -4 -180 -12 -34 -34 6 -115 73 -148 39 -19
49 -20 80 -10 20 7 45 25 57 40 18 25 25 28 57 23 72 -12 75 -14 49 -53 -39
-58 -99 -84 -193 -85 -106 0 -167 28 -209 98 -26 42 -31 61 -34 138 -6 112 9
166 60 224 59 67 133 86 240 64z"/>
<path d="M8706 5319 c-55 -16 -101 -80 -94 -131 3 -23 5 -23 122 -23 143 0
152 6 117 78 -32 66 -85 94 -145 76z m92 -25 c28 -19 52 -65 52 -99 l0 -25
-115 0 c-127 0 -128 0 -101 64 28 68 110 98 164 60z"/>
<path d="M9904 5386 c-39 -20 -57 -38 -77 -75 l-27 -48 63 -10 c44 -8 63 -7
66 0 2 6 14 21 27 34 19 18 34 23 78 23 67 0 99 -26 94 -75 -3 -30 -4 -30
-108 -53 -186 -41 -230 -75 -230 -178 0 -96 66 -154 174 -154 64 0 129 24 162
61 13 15 2 11 -35 -12 -48 -30 -62 -34 -126 -34 -80 0 -113 15 -145 68 -38 62
-15 154 46 189 17 10 79 29 138 42 120 27 151 46 141 86 -9 36 -33 59 -75 70
-51 14 -95 3 -128 -31 -26 -26 -33 -29 -75 -23 -26 4 -47 10 -47 14 0 4 13 25
29 48 38 51 81 66 191 66 97 0 147 -14 181 -50 23 -25 24 -32 30 -232 3 -114
9 -215 13 -224 7 -16 2 -18 -42 -18 -42 0 -52 3 -57 21 -4 11 -9 18 -12 16 -3
-3 -2 -15 2 -26 6 -18 14 -21 72 -21 58 0 64 2 58 18 -18 42 -24 108 -25 257
0 132 -3 166 -18 195 -28 56 -71 74 -187 78 -91 3 -104 1 -151 -22z"/>
<path d="M14376 5395 c-145 -51 -146 -235 -3 -288 23 -9 80 -26 127 -37 99
-25 110 -32 110 -71 0 -36 -40 -59 -104 -59 -58 0 -88 14 -110 51 -17 29 -19
30 -74 23 -32 -3 -61 -10 -65 -14 -21 -19 40 -93 103 -126 51 -26 193 -31 258
-10 121 40 173 185 94 258 -39 36 -56 43 -173 73 -115 29 -149 46 -149 75 0
31 39 50 103 50 48 0 62 -4 82 -25 14 -13 25 -28 25 -33 0 -8 119 4 128 13 2
2 -3 17 -12 33 -21 40 -69 79 -114 92 -52 14 -180 12 -226 -5z m259 -24 c36
-16 75 -60 75 -84 0 -2 -21 -7 -47 -11 -41 -5 -50 -3 -72 18 -36 35 -78 48
-126 41 -55 -9 -85 -30 -85 -60 0 -44 30 -60 169 -95 150 -38 180 -63 181
-150 0 -38 -6 -65 -20 -88 -68 -112 -368 -104 -429 11 -18 33 -13 38 43 47 41
6 45 4 70 -26 31 -39 89 -58 142 -48 42 8 94 48 94 73 0 28 -37 59 -83 71 -87
22 -183 53 -209 66 -37 19 -58 63 -58 119 0 61 44 111 115 131 64 18 182 11
240 -15z"/>
<path d="M15095 5395 c-30 -15 -103 -75 -91 -75 3 0 26 15 50 34 80 61 182 57
245 -8 l34 -35 38 34 c63 56 155 68 230 30 54 -28 59 -53 59 -290 l0 -215 -50
0 -50 0 -1 178 c0 208 -7 239 -62 265 -36 18 -38 18 -80 -2 -74 -36 -81 -59
-85 -263 l-4 -178 -54 0 -54 0 0 198 0 198 -30 29 c-54 52 -134 30 -172 -46
-15 -28 -18 -62 -18 -206 l0 -173 -55 0 -55 0 0 260 0 260 49 0 c46 0 50 -2
54 -27 4 -26 4 -26 6 5 l1 32 -60 0 -60 0 0 -270 0 -270 65 0 65 0 0 163 c0
89 5 179 10 199 23 81 125 118 169 62 20 -25 21 -40 21 -225 l0 -199 68 0 67
0 1 178 c0 190 7 222 56 256 36 26 93 21 117 -10 20 -25 21 -40 21 -225 l0
-199 71 0 71 0 -4 224 c-3 208 -5 227 -24 252 -35 47 -70 67 -127 72 -67 5
-112 -9 -155 -48 -18 -17 -36 -30 -39 -30 -3 0 -14 11 -25 25 -11 14 -33 32
-48 40 -37 19 -126 19 -165 0z"/>
<path d="M11638 5330 l4 -70 64 0 64 0 0 70 0 70 -67 0 -68 0 3 -70z"/>
<path d="M12992 5173 c3 -201 5 -231 21 -255 26 -38 93 -68 153 -68 60 0 144
38 170 78 15 23 12 22 -25 -10 -67 -57 -154 -72 -228 -39 -74 34 -78 46 -81
293 l-4 218 56 0 56 0 0 -185 c0 -109 4 -193 11 -207 27 -59 114 -81 167 -41
63 47 66 58 70 253 l4 180 49 0 49 0 0 -260 0 -260 -45 0 c-44 0 -45 1 -45 33
0 24 -3 28 -10 17 -5 -8 -10 -25 -10 -37 0 -22 4 -23 65 -23 l65 0 0 270 0
270 -70 0 -70 0 0 -176 c0 -137 -3 -183 -15 -208 -31 -65 -119 -87 -172 -42
l-28 24 -3 201 -3 201 -65 0 -65 0 3 -227z"/>
<path d="M14000 5130 l0 -270 65 0 65 0 0 270 0 270 -65 0 -65 0 0 -270z m120
0 l0 -260 -55 0 -55 0 0 260 0 260 55 0 55 0 0 -260z"/>
<path d="M9100 5125 l0 -65 140 0 140 0 0 65 0 65 -140 0 -140 0 0 -65z m260
5 l0 -50 -125 0 -125 0 0 50 0 50 125 0 125 0 0 -50z"/>
<path d="M11640 4930 l0 -70 65 0 65 0 0 70 0 70 -65 0 -65 0 0 -70z"/>
<path d="M10134 4460 c-18 -6 -46 -26 -62 -45 -80 -90 -35 -203 92 -235 183
-47 226 -72 226 -133 0 -24 -8 -41 -31 -63 -29 -27 -35 -29 -114 -29 -98 0
-128 15 -160 83 -16 34 -25 41 -48 42 -27 0 -28 -2 -22 -32 25 -113 108 -165
251 -156 121 8 184 64 184 165 0 41 -5 58 -26 83 -35 41 -64 55 -170 81 -108
27 -141 43 -156 74 -14 31 4 77 38 100 79 52 234 7 234 -68 0 -9 12 -13 35
-13 31 1 34 3 28 26 -10 43 -37 80 -72 103 -39 24 -172 34 -227 17z m214 -24
c32 -17 72 -68 72 -93 0 -24 -25 -13 -54 23 -63 79 -184 87 -258 16 -54 -51
-23 -130 61 -151 20 -6 65 -17 100 -26 97 -25 140 -50 158 -93 18 -44 12 -105
-15 -141 -36 -49 -79 -66 -167 -66 -123 0 -195 43 -212 125 -8 43 19 40 40 -4
22 -46 95 -88 161 -93 103 -8 196 74 167 145 -18 44 -59 66 -186 101 -134 36
-165 62 -165 139 0 66 32 111 95 132 44 14 164 6 203 -14z"/>
<path d="M12400 4457 c-56 -18 -125 -93 -144 -156 -21 -71 -20 -159 1 -235 13
-45 28 -72 62 -107 52 -53 94 -69 184 -69 97 0 168 43 207 126 23 50 20 58
-22 68 -22 5 -28 3 -28 -10 0 -27 -39 -82 -74 -103 -48 -30 -141 -29 -187 2
-91 61 -122 203 -72 329 31 77 122 127 205 113 46 -8 105 -56 114 -92 6 -22
11 -24 37 -19 39 8 39 8 28 38 -15 41 -63 90 -106 109 -45 21 -148 24 -205 6z
m182 -9 c41 -12 118 -86 118 -113 0 -28 -38 -16 -58 19 -24 40 -93 76 -147 76
-52 0 -118 -34 -155 -78 -56 -68 -65 -229 -18 -315 49 -88 164 -130 244 -89
50 26 78 53 95 91 14 32 49 43 49 16 0 -45 -75 -128 -128 -142 -53 -15 -155
-8 -204 14 -144 65 -172 351 -46 471 58 55 163 76 250 50z"/>
<path d="M11450 4180 l0 -280 30 0 30 0 0 80 c0 71 2 82 25 105 14 14 28 25
30 25 2 0 33 -47 70 -105 66 -103 68 -105 105 -105 l38 0 -85 126 -85 126 73
74 73 74 -37 0 c-35 0 -45 -7 -114 -80 -41 -44 -79 -80 -84 -80 -5 0 -9 72 -9
160 l0 160 -30 0 -30 0 0 -280z m52 113 c2 -124 6 -158 16 -158 8 0 49 35 91
79 52 52 84 77 96 75 14 -3 5 -17 -44 -63 -33 -33 -61 -65 -61 -70 0 -6 34
-62 75 -123 41 -62 75 -115 75 -118 0 -3 -9 -5 -19 -5 -14 0 -38 28 -81 94
-80 124 -83 126 -120 91 -28 -27 -30 -33 -30 -107 0 -71 -2 -78 -20 -78 -20 0
-20 7 -20 270 0 262 1 270 20 270 18 0 20 -8 22 -157z"/>
<path d="M12830 4180 l0 -280 28 0 27 0 0 138 c0 156 9 182 72 208 44 19 87
10 113 -23 18 -23 20 -41 20 -174 l0 -149 31 0 30 0 -3 175 -3 175 -27 27
c-23 22 -38 28 -92 31 -62 4 -65 3 -102 -33 -34 -32 -34 -34 -6 -11 19 14 45
29 58 32 44 11 105 -3 133 -30 26 -26 26 -29 29 -191 3 -145 2 -165 -12 -165
-14 0 -16 19 -16 138 0 119 -3 141 -20 170 -39 64 -119 67 -180 7 l-35 -35 -3
-140 c-3 -112 -7 -140 -18 -140 -12 0 -14 45 -14 270 0 230 2 270 15 270 11 0
15 -20 17 -97 l3 -98 5 103 5 102 -27 0 -28 0 0 -280z"/>
<path d="M13890 4180 l0 -280 30 0 30 0 0 78 c0 74 2 80 30 107 26 25 32 27
39 15 5 -8 35 -57 67 -107 57 -90 60 -93 97 -93 l37 0 -85 128 -86 127 75 73
76 72 -38 0 c-34 0 -46 -8 -117 -80 -44 -44 -83 -80 -87 -80 -5 0 -8 72 -8
160 l0 160 -30 0 -30 0 0 -280z m50 115 c0 -197 2 -198 110 -86 54 55 87 81
102 81 19 0 12 -11 -44 -65 -38 -35 -68 -66 -68 -70 0 -3 32 -53 70 -111 85
-125 89 -134 62 -134 -13 0 -31 18 -53 53 -78 124 -102 157 -113 157 -7 0 -24
-13 -39 -28 -25 -26 -27 -35 -27 -105 0 -62 -3 -77 -15 -77 -13 0 -15 37 -15
270 0 233 2 270 15 270 13 0 15 -24 15 -155z"/>
<path d="M14290 4180 l0 -280 30 0 30 0 0 125 c0 144 11 184 62 215 43 27 94
21 126 -15 21 -25 22 -35 22 -176 l0 -149 30 0 30 0 0 148 c0 175 -9 216 -53
242 -43 27 -121 26 -164 0 -18 -11 -33 -24 -33 -30 0 -5 -4 -10 -10 -10 -6 0
-10 42 -10 105 l0 105 -30 0 -30 0 0 -280z m50 171 c0 -57 4 -103 10 -106 6
-4 24 5 41 19 38 32 68 40 121 33 81 -11 97 -53 98 -259 0 -121 -1 -128 -20
-128 -19 0 -20 7 -20 148 -1 154 -3 163 -50 195 -33 23 -75 21 -117 -4 -55
-34 -63 -61 -63 -209 0 -109 -2 -130 -15 -130 -13 0 -15 37 -15 270 0 233 2
270 15 270 12 0 15 -18 15 -99z"/>
<path d="M8174 4291 c-27 -12 -46 -30 -57 -54 -22 -46 -22 -47 13 -47 19 0 33
7 40 21 17 31 76 52 126 44 46 -6 71 -28 84 -71 7 -26 8 -26 9 -6 2 54 -48 92
-119 92 -49 0 -77 -13 -107 -48 -18 -21 -25 -24 -35 -14 -17 17 19 64 63 79
76 27 195 8 217 -34 15 -29 20 -343 6 -343 -7 0 -15 10 -17 23 -4 19 -4 18 -6
-5 -1 -24 3 -28 27 -28 l29 0 -3 73 c-2 39 -5 115 -7 167 -5 110 -15 136 -62
156 -49 20 -151 18 -201 -5z"/>
<path d="M9031 4289 c-71 -43 -97 -106 -89 -218 9 -120 72 -181 186 -181 66 0
110 18 145 59 34 41 34 59 0 63 -19 2 -35 -6 -59 -29 -28 -29 -39 -33 -83 -33
-44 0 -56 5 -86 33 -24 21 -38 44 -42 70 l-6 37 157 0 c175 0 165 -6 145 80
-13 56 -52 108 -95 126 -50 21 -133 18 -173 -7z m186 -15 c42 -32 62 -66 69
-116 l7 -48 -136 0 c-114 0 -138 -3 -155 -17 -20 -17 -20 -21 -7 -58 36 -102
150 -135 226 -64 53 49 84 29 35 -24 -46 -50 -160 -59 -230 -19 -92 53 -100
270 -13 336 41 30 60 35 125 32 34 -2 62 -10 79 -22z"/>
<path d="M9064 4256 c-32 -14 -74 -64 -74 -88 0 -31 24 -38 130 -38 75 1 110
5 124 15 18 14 18 15 -1 51 -33 65 -110 90 -179 60z m110 -10 c36 -15 66 -50
66 -78 0 -16 -12 -18 -121 -18 -120 0 -120 0 -113 23 9 31 34 58 69 73 39 17
58 17 99 0z"/>
<path d="M9490 4299 c-80 -32 -120 -126 -105 -244 7 -58 34 -106 77 -138 28
-21 110 -34 152 -23 59 15 137 117 104 137 -21 14 -48 10 -48 -7 0 -8 -13 -29
-29 -45 -25 -24 -38 -29 -78 -29 -41 0 -54 5 -75 28 -67 69 -64 187 7 252 37
35 103 35 139 1 14 -14 26 -31 26 -38 0 -10 8 -11 28 -7 15 4 29 9 32 11 12
11 -39 80 -70 95 -38 20 -120 23 -160 7z m150 -17 c19 -9 43 -32 53 -49 19
-33 19 -33 -2 -33 -11 0 -25 9 -31 20 -14 25 -61 50 -97 50 -38 0 -89 -33
-113 -72 -15 -24 -20 -51 -20 -98 0 -75 21 -118 72 -151 51 -31 104 -21 149
30 53 59 76 54 43 -10 -18 -35 -82 -68 -133 -69 -58 0 -117 35 -140 84 -31 64
-30 185 3 240 42 72 138 98 216 58z"/>
<path d="M10631 4289 c-71 -43 -97 -106 -89 -218 9 -120 72 -181 186 -181 66
0 110 18 145 59 34 41 34 59 0 63 -19 2 -35 -6 -59 -29 -28 -29 -39 -33 -83
-33 -44 0 -56 5 -86 33 -24 21 -38 44 -42 70 l-6 37 157 0 c175 0 165 -6 145
80 -13 56 -52 108 -95 126 -50 21 -133 18 -173 -7z m186 -15 c42 -32 62 -66
69 -116 l7 -48 -136 0 c-114 0 -138 -3 -155 -17 -20 -17 -20 -21 -7 -58 36
-102 150 -135 226 -64 53 49 84 29 35 -24 -46 -50 -160 -59 -230 -19 -92 53
-100 270 -13 336 41 30 60 35 125 32 34 -2 62 -10 79 -22z"/>
<path d="M10664 4256 c-32 -14 -74 -64 -74 -88 0 -31 24 -38 130 -38 75 1 110
5 124 15 18 14 18 15 -1 51 -33 65 -110 90 -179 60z m110 -10 c36 -15 66 -50
66 -78 0 -16 -12 -18 -121 -18 -120 0 -120 0 -113 23 9 31 34 58 69 73 39 17
58 17 99 0z"/>
<path d="M13354 4296 c-121 -55 -139 -288 -29 -372 77 -58 220 -40 270 34 32
47 31 52 -6 52 -21 0 -40 -10 -61 -30 -25 -26 -37 -30 -82 -30 -66 0 -110 34
-130 100 -10 31 -14 38 -15 21 -2 -37 38 -97 79 -120 61 -34 105 -27 162 27
35 32 68 25 46 -11 -8 -12 -34 -32 -59 -45 -36 -19 -54 -23 -103 -19 -62 6
-95 23 -130 71 -18 23 -21 42 -21 126 0 107 9 130 69 174 39 30 152 30 193 0
32 -23 58 -72 67 -126 l7 -38 -146 0 c-90 0 -145 -4 -145 -10 0 -6 57 -10 151
-10 l152 0 -5 48 c-6 62 -33 117 -72 144 -38 28 -145 36 -192 14z"/>
<path d="M8531 4273 c6 -16 37 -98 69 -183 32 -85 61 -163 65 -173 6 -13 16
-17 38 -15 31 3 32 6 99 183 37 99 70 188 74 198 4 14 -1 17 -24 17 -29 0 -31
-3 -87 -160 -32 -88 -61 -160 -64 -160 -3 0 -31 72 -61 160 l-55 160 -32 0
c-31 0 -32 -1 -22 -27z m94 -130 c28 -81 57 -155 66 -166 15 -19 16 -19 31 14
8 19 36 94 63 167 29 81 53 132 61 132 8 0 14 -3 14 -7 0 -5 -31 -89 -69 -188
-60 -159 -71 -180 -90 -180 -19 0 -27 11 -46 65 -13 36 -44 118 -69 183 -26
65 -46 121 -46 123 0 2 8 4 18 4 13 0 28 -33 67 -147z"/>
<path d="M11850 4100 l0 -200 30 0 30 0 0 200 0 200 -30 0 -30 0 0 -200z m50
0 c0 -183 -1 -190 -20 -190 -19 0 -20 7 -20 190 0 183 1 190 20 190 19 0 20
-7 20 -190z"/>
<path d="M13720 4100 l0 -200 30 0 30 0 0 200 0 200 -30 0 -30 0 0 -200z"/>
<path d="M11096 4251 c-50 -33 -70 -76 -70 -152 0 -57 4 -72 27 -103 31 -39
74 -66 108 -66 37 0 87 39 110 86 67 139 -61 310 -175 235z m105 -6 c47 -25
69 -70 69 -143 0 -102 -38 -152 -116 -152 -73 0 -114 56 -114 156 0 66 20 108
63 134 39 24 59 25 98 5z"/>
<path d="M13390 4263 c-24 -9 -61 -45 -77 -76 -24 -47 0 -57 131 -54 91 2 111
5 120 20 25 40 -57 118 -123 116 -20 0 -43 -3 -51 -6z m106 -19 c32 -15 64
-57 64 -84 0 -6 -43 -10 -120 -10 -108 0 -120 2 -120 18 0 42 62 91 118 92 13
0 39 -7 58 -16z"/>
<path d="M3620 3485 c0 0 -1 -257 -3 -570 l-2 -571 21 26 c11 14 121 156 244
315 123 160 240 310 259 335 31 38 32 42 9 25 -14 -11 -25 -22 -25 -25 3 -9
-85 -120 -94 -120 -5 0 -9 -5 -9 -11 0 -13 -262 -355 -292 -381 -10 -9 -19
-19 -18 -23 0 -3 -4 -11 -10 -18 -6 -6 -24 -29 -40 -51 l-30 -39 0 547 0 546
420 0 c231 0 420 -3 420 -6 0 -14 -109 -142 -115 -136 -5 4 -5 2 -1 -5 3 -6
-4 -19 -16 -27 -12 -9 -19 -16 -15 -16 4 0 -29 -47 -73 -105 -45 -58 -79 -105
-76 -105 4 0 294 371 310 397 6 11 -342 18 -864 18z"/>
<path d="M4617 3349 c28 -35 217 -279 421 -541 l370 -478 17 28 c17 26 17 26
0 10 -20 -19 -1 -40 -213 235 -67 87 -127 163 -132 170 -6 7 -60 77 -121 156
-61 79 -115 149 -120 155 -5 6 -53 67 -106 136 -53 69 -103 131 -110 138 -7 7
-13 17 -13 20 0 4 -10 13 -22 21 -13 8 -1 -13 29 -50z"/>
<path d="M15752 2904 c-16 -59 -66 -110 -115 -119 l-37 -7 0 -75 c0 -102 24
-201 75 -309 56 -119 112 -201 202 -294 l73 -75 66 69 c122 130 219 299 259
452 18 70 29 205 18 220 -4 5 -30 18 -56 28 -52 20 -90 65 -102 124 l-7 32
-182 0 -182 0 -12 -46z m382 -19 c20 -52 71 -100 117 -110 l32 -7 -6 -97 c-10
-196 -101 -387 -270 -568 l-61 -65 -63 68 c-169 182 -273 409 -273 597 l0 64
38 12 c20 6 44 17 53 24 26 19 69 88 69 108 0 18 11 19 174 19 l173 0 17 -45z"/>
<path d="M16080 2855 c0 -35 44 -85 94 -108 l48 -22 -6 -58 c-17 -168 -100
-345 -229 -487 l-39 -42 -35 33 c-117 112 -223 330 -242 496 -7 57 -9 61 -10
23 -3 -147 92 -358 233 -515 53 -60 55 -59 138 41 108 132 198 341 198 462 l0
51 -52 28 c-38 21 -58 40 -75 72 -13 25 -23 36 -23 26z"/>
<path d="M14565 2857 c-97 -32 -178 -115 -217 -224 -16 -44 -21 -83 -22 -158
-1 -141 20 -202 94 -277 74 -74 132 -93 267 -86 79 4 103 10 159 38 84 41 137
111 159 209 l7 31 -105 0 -105 0 -12 -30 c-21 -51 -64 -80 -120 -80 -91 0
-135 64 -133 196 1 87 25 146 77 192 30 26 45 32 82 32 72 0 124 -40 124 -95
0 -12 19 -15 101 -15 l101 0 -7 43 c-16 95 -60 160 -137 203 -48 26 -63 29
-163 31 -70 2 -124 -2 -150 -10z m270 -18 c30 -11 68 -31 83 -44 32 -27 71
-100 79 -150 l6 -35 -87 0 c-68 0 -86 3 -86 14 0 25 -49 74 -85 86 -54 18
-102 3 -151 -46 -52 -51 -69 -102 -69 -204 0 -64 4 -82 27 -122 22 -36 38 -50
73 -64 42 -16 48 -16 90 0 33 13 52 29 72 61 l28 44 88 1 c98 0 97 2 70 -75
-23 -68 -93 -137 -164 -161 -39 -13 -82 -19 -154 -19 -89 0 -106 3 -157 28
-107 53 -158 151 -158 308 0 121 15 179 63 252 72 106 152 145 299 146 55 1
93 -5 133 -20z"/>
<path d="M14056 2838 c-3 -13 -22 -133 -41 -268 -40 -267 -49 -293 -103 -298
-46 -5 -66 31 -58 101 l7 54 -94 2 -95 2 -7 -65 c-16 -155 53 -242 201 -254
99 -8 168 5 221 41 84 57 85 61 166 560 l24 147 -108 0 c-105 0 -109 -1 -113
-22z m199 -25 c-3 -16 -14 -89 -26 -163 -11 -74 -22 -146 -25 -160 -2 -14 -11
-65 -20 -115 -25 -142 -50 -187 -129 -228 -29 -15 -63 -21 -121 -23 -94 -3
-146 8 -192 42 -49 38 -62 72 -62 164 l0 80 83 0 82 0 -3 -53 c-3 -45 0 -55
21 -75 33 -31 83 -27 108 8 12 17 28 89 49 225 17 110 36 228 41 263 l11 62
94 0 94 0 -5 -27z"/>
<path d="M15191 2788 c-6 -40 -29 -192 -51 -338 -22 -146 -42 -280 -46 -298
l-7 -33 109 3 109 3 7 45 c3 25 21 137 38 250 17 113 39 258 49 323 l18 117
-107 0 -108 0 -11 -72z m209 47 c0 -9 -85 -563 -95 -615 -16 -88 -5 -80 -105
-80 -104 0 -97 -12 -76 123 8 50 17 108 20 127 3 19 19 124 36 232 16 108 30
202 30 208 0 6 36 10 95 10 52 0 95 -2 95 -5z"/>
<path d="M7266 2518 c12 -20 498 -648 500 -645 1 1 111 144 246 318 134 173
248 321 252 327 5 9 -110 12 -499 12 -402 0 -505 -3 -499 -12z m892 -119
c-140 -183 -375 -486 -388 -502 -5 -6 -363 446 -463 584 l-28 39 486 0 486 0
-93 -121z"/>
<path d="M3610 2303 c0 -7 3 -14 8 -16 4 -3 5 -255 2 -561 l-5 -556 444 0 444
0 -23 20 c-13 11 -20 20 -16 20 4 0 0 7 -9 16 -9 9 -19 14 -22 11 -3 -3 2 -13
11 -22 9 -9 16 -19 16 -23 0 -4 -187 -6 -415 -4 l-415 2 0 538 1 537 32 -39
c18 -22 40 -49 50 -60 18 -20 18 -20 8 -1 -5 11 -18 29 -28 40 -10 11 -33 40
-51 64 -17 25 -32 40 -32 34z"/>
</g>
</svg>
