<?xml version="1.0" standalone="no"?>
<!DOCTYPE svg PUBLIC "-//W3C//DTD SVG 20010904//EN"
 "http://www.w3.org/TR/2001/REC-SVG-20010904/DTD/svg10.dtd">
<svg version="1.0" xmlns="http://www.w3.org/2000/svg"
 width="960.000000pt" height="960.000000pt" viewBox="0 0 960.000000 960.000000"
 preserveAspectRatio="xMidYMid meet">
<metadata>
Created by potrace 1.16, written by Peter Selinger 2001-2019
</metadata>
<g transform="translate(0.000000,960.000000) scale(0.100000,-0.100000)"
fill="#000000" stroke="none">
<path d="M6613 9592 c-6 -4 -17 -20 -22 -36 -6 -15 -20 -30 -31 -33 -11 -3
-20 -10 -20 -15 0 -6 -7 -7 -16 -4 -15 6 -16 0 -10 -45 11 -78 44 -168 84
-222 25 -35 38 -45 46 -37 7 7 7 13 1 18 -41 29 -90 143 -101 235 -5 34 -3 39
24 48 18 6 33 21 41 42 12 31 14 32 69 30 32 -1 65 -2 75 -3 11 0 21 -8 23
-18 3 -9 21 -28 40 -41 29 -20 34 -29 34 -62 0 -22 -4 -47 -9 -57 -32 -64 -45
-100 -43 -122 2 -20 0 -22 -8 -10 -5 8 -10 10 -10 4 0 -7 -14 -27 -31 -45 -17
-18 -37 -41 -44 -52 -14 -20 -14 -19 -26 6 -13 28 -24 34 -34 17 -3 -5 7 -24
23 -41 l30 -32 31 34 c17 19 29 39 26 46 -2 7 2 10 11 6 8 -3 14 1 14 11 0 9
3 16 8 16 9 0 33 44 62 115 22 52 39 167 24 164 -22 -6 -62 26 -73 56 -10 27
-16 32 -41 31 -16 -1 -32 -5 -36 -9 -4 -4 -26 -7 -48 -6 -32 0 -37 2 -21 9 18
8 18 9 -5 9 -14 0 -30 -3 -37 -7z"/>
<path d="M1053 9559 c-6 -16 -20 -32 -30 -36 -39 -15 -45 -30 -38 -96 6 -47
10 -57 16 -42 8 18 8 17 7 -5 -1 -14 6 -43 17 -65 36 -78 134 -184 135 -147 0
4 17 25 36 47 60 66 114 184 114 250 0 23 -6 33 -28 43 -16 6 -35 27 -44 44
-15 32 -15 32 -95 34 -79 2 -79 2 -90 -27z m148 6 c10 -4 19 -15 19 -26 0 -10
3 -19 8 -19 4 0 18 -9 31 -19 25 -19 35 -64 20 -90 -5 -9 -18 -41 -29 -71 -11
-30 -40 -77 -63 -104 l-44 -49 -20 20 c-78 78 -139 244 -106 289 8 11 16 18
18 17 14 -8 24 0 33 25 8 24 15 27 62 30 28 1 60 0 71 -3z"/>
<path d="M9264 9583 c-23 -4 -48 -48 -37 -65 4 -7 0 -9 -9 -5 -9 3 -25 -1 -36
-8 -10 -8 -22 -11 -26 -8 -3 3 -6 -7 -5 -23 0 -25 2 -26 9 -9 8 19 9 19 9 -2
1 -13 -3 -23 -9 -23 -16 0 -12 -37 6 -54 8 -9 13 -20 10 -25 -12 -19 52 -139
100 -186 16 -16 33 -38 37 -47 9 -25 32 -22 50 5 8 12 25 33 38 47 13 13 23
33 22 45 -2 11 0 14 3 7 8 -18 48 45 74 118 15 43 20 72 15 97 -4 24 -3 33 4
28 6 -3 11 -1 11 5 0 6 -8 13 -17 16 -10 3 -26 10 -35 15 -10 5 -24 6 -33 3
-8 -3 -15 -1 -15 6 0 6 5 8 11 4 13 -7 3 35 -12 50 -9 10 -130 17 -165 9z
m152 -40 c1 -7 2 -17 3 -23 0 -5 18 -18 39 -28 42 -20 43 -29 11 -124 -10 -31
-16 -65 -13 -75 5 -15 4 -15 -5 -3 -8 12 -11 11 -17 -5 -4 -11 -18 -35 -31
-52 -13 -18 -21 -33 -18 -33 4 0 -7 -12 -24 -26 l-31 -25 -34 37 c-19 21 -40
49 -47 63 -7 14 -18 33 -25 41 -13 17 -35 97 -41 151 -2 24 1 40 12 49 8 7 15
9 15 5 0 -5 9 0 20 10 11 10 20 23 20 30 0 24 22 30 92 25 48 -3 73 -9 74 -17z"/>
<path d="M5961 9546 c-30 -8 -55 -24 -82 -54 -44 -50 -55 -99 -44 -188 6 -47
13 -62 45 -94 42 -42 105 -59 157 -44 16 4 35 8 44 9 29 4 70 38 90 76 10 21
19 41 19 44 0 3 -25 5 -55 5 -39 0 -55 -4 -55 -13 0 -22 -34 -47 -64 -47 -60
0 -80 32 -90 145 -2 34 -2 47 3 30 l7 -30 7 28 c11 41 42 67 80 67 39 0 52 -8
61 -37 6 -20 14 -23 57 -23 36 0 49 4 49 15 0 25 -33 85 -47 85 -7 0 -13 4
-13 8 0 15 -49 32 -88 31 -20 -1 -57 -6 -81 -13z"/>
<path d="M447 9527 c-21 -12 -48 -37 -59 -55 -19 -31 -20 -33 -3 -30 10 2 20
-4 22 -12 4 -12 3 -12 -5 -2 -7 11 -12 10 -26 -3 -22 -22 -20 -83 4 -147 24
-62 64 -88 136 -88 54 0 123 28 102 41 -9 6 -7 9 8 9 15 0 27 11 38 34 9 19
16 37 16 40 0 3 -20 6 -45 6 -34 0 -45 -4 -45 -15 0 -9 -15 -23 -34 -31 -29
-14 -37 -15 -62 -3 -57 28 -63 139 -10 187 39 37 116 27 116 -14 0 -10 13 -14
40 -14 46 0 51 13 23 62 -35 59 -145 77 -216 35z"/>
<path d="M5667 9419 c-21 -148 -30 -179 -52 -179 -8 0 -15 -7 -15 -15 0 -12
-4 -13 -19 -6 -14 8 -18 20 -16 55 l2 45 -44 -2 c-23 -1 -43 -6 -44 -12 0 -5
-2 -19 -5 -30 -5 -27 25 -81 54 -97 33 -17 120 -16 156 2 37 19 75 92 76 145
0 22 4 56 9 75 5 19 11 61 14 93 l6 57 -52 0 -52 0 -18 -131z"/>
<path d="M6295 9521 c-3 -16 -10 -64 -15 -108 -5 -43 -14 -100 -19 -128 -6
-27 -13 -65 -16 -82 l-6 -33 53 0 53 0 23 133 c13 72 26 158 29 190 l5 57 -50
0 c-47 0 -51 -2 -57 -29z"/>
<path d="M8592 9535 c-53 -16 -75 -35 -107 -93 -27 -49 -33 -118 -15 -184 12
-43 79 -102 125 -111 47 -8 125 10 163 39 28 22 62 76 62 99 0 3 -24 5 -54 5
-49 0 -54 -2 -60 -25 -9 -35 -61 -48 -101 -26 -74 42 -45 205 40 227 35 9 75
-10 75 -36 0 -17 6 -20 50 -20 58 0 62 10 29 70 -33 58 -110 67 -79 10 6 -12
9 -24 6 -28 -3 -3 -6 0 -6 6 0 7 -6 12 -13 12 -7 0 -18 9 -24 19 -7 11 -25 21
-40 24 -16 2 -5 5 25 6 28 0 52 6 52 11 0 14 -77 11 -128 -5z"/>
<path d="M215 9426 c-20 -134 -31 -161 -65 -161 -21 0 -26 5 -28 33 -3 29 -6
32 -38 32 -57 0 -64 -58 -15 -112 27 -29 106 -36 149 -14 47 24 60 52 76 157
8 52 18 113 22 137 l7 42 -45 0 -45 0 -18 -114z"/>
<path d="M762 9378 c-26 -187 -25 -178 -11 -178 5 0 9 10 7 22 -2 15 3 24 15
26 9 2 17 -1 17 -7 0 -6 -4 -11 -10 -11 -5 0 -10 -7 -10 -15 0 -10 10 -15 30
-15 27 0 30 3 31 33 0 17 2 41 4 52 2 11 10 64 19 117 8 54 17 102 21 108 3 5
-1 10 -9 10 -8 0 -16 -12 -19 -27 l-4 -28 -2 28 c0 15 -5 27 -11 27 -5 0 -11
-12 -11 -27 l-1 -28 -7 30 c-6 29 -5 30 34 36 l40 6 -50 1 -50 2 -23 -162z"/>
<path d="M8316 9528 c-3 -7 -12 -65 -21 -128 -21 -154 -30 -180 -60 -180 -13
0 -27 5 -30 10 -10 16 -26 11 -24 -7 4 -45 -3 -52 -33 -29 -14 10 -16 19 -9
43 6 21 5 35 -2 42 -8 8 -5 11 10 11 12 0 25 -5 29 -12 4 -6 3 -8 -3 -5 -6 4
-13 -3 -17 -16 -9 -34 -7 -57 5 -57 6 0 9 12 7 28 -2 17 2 26 10 25 7 -2 12 8
12 27 0 29 -2 30 -41 28 -34 -1 -40 -4 -36 -20 3 -11 1 -16 -5 -11 -8 4 -9 -6
-5 -32 12 -74 84 -112 172 -92 88 21 105 63 139 340 l6 47 -51 0 c-31 0 -51
-5 -53 -12z"/>
<path d="M8937 9534 c-2 -5 -8 -34 -12 -64 -4 -30 -13 -84 -21 -119 -7 -36
-11 -67 -9 -71 2 -3 -3 -31 -10 -62 -7 -31 -10 -59 -7 -62 9 -10 72 -7 93 4
12 7 19 21 19 40 0 16 8 73 19 127 10 54 19 105 19 113 0 8 3 34 6 58 l5 42
-39 0 c-25 0 -40 -5 -40 -12 0 -10 -3 -9 -9 1 -5 7 -11 9 -14 5z"/>
<path d="M5380 7678 c-13 -5 -31 -6 -41 -3 -23 7 -96 -44 -79 -55 14 -9 -19
-90 -37 -90 -17 0 -21 -9 -27 -65 -6 -46 -5 -48 9 -28 19 27 76 57 84 44 4 -5
24 -10 46 -10 147 -3 195 -16 195 -53 0 -9 5 -20 10 -23 6 -3 10 -16 11 -28 0
-13 6 -5 14 21 7 23 20 53 28 66 8 12 18 43 22 68 7 44 5 48 -42 101 -52 60
-68 68 -76 37 -7 -25 -27 -26 -34 -1 -6 22 -49 32 -83 19z"/>
<path d="M5161 7417 c-1 -20 -7 -31 -20 -34 -14 -4 -22 -20 -31 -66 -31 -159
-38 -243 -20 -232 6 3 10 19 10 36 0 16 5 29 11 29 6 0 9 15 7 37 -3 40 16 57
27 23 5 -15 12 -19 23 -14 10 3 27 9 39 11 23 5 38 42 23 57 -6 6 -10 18 -10
28 0 11 -10 38 -22 61 -11 23 -24 53 -29 67 -7 25 -7 25 -8 -3z"/>
<path d="M5612 7416 c-5 -6 -18 -39 -29 -73 l-21 -62 37 -6 c20 -4 46 -8 58
-11 12 -2 24 2 26 9 4 7 6 6 6 -4 1 -9 8 -20 17 -23 21 -8 24 -8 24 5 0 5 -4
8 -9 5 -5 -3 -11 12 -15 34 -3 22 -15 49 -26 60 -11 11 -20 31 -20 44 0 26
-33 42 -48 22z"/>
<path d="M5520 7110 c0 -19 -10 -24 -37 -21 -7 1 -20 -14 -30 -33 -19 -41 -9
-61 37 -71 16 -3 31 -13 34 -21 7 -17 -4 -74 -13 -74 -4 0 -31 34 -61 76 -30
41 -68 93 -83 115 -16 21 -34 39 -41 39 -7 0 -28 -12 -47 -26 -19 -14 -55 -37
-81 -51 -47 -26 -52 -32 -49 -64 1 -9 -5 -19 -13 -22 -10 -4 -13 -1 -9 9 3 8
2 30 -1 49 -5 24 -11 33 -21 28 -18 -6 -19 -40 -4 -79 7 -21 7 -34 -2 -50 -18
-35 2 -100 78 -253 51 -103 68 -130 75 -117 12 21 28 11 28 -16 0 -12 9 -31
20 -43 25 -26 32 -72 10 -66 -8 2 -24 4 -35 5 -28 1 -25 -28 3 -32 28 -4 37
-24 23 -51 -10 -17 -7 -22 16 -33 22 -11 27 -20 25 -41 -4 -34 25 -49 44 -22
11 15 16 16 29 5 8 -7 15 -18 15 -26 0 -7 9 -18 20 -24 25 -13 50 -61 50 -95
0 -14 6 -25 14 -25 7 0 26 -19 41 -42 54 -81 126 -146 210 -186 76 -37 175
-60 175 -41 0 5 -4 9 -10 9 -5 0 -10 5 -10 11 0 12 31 9 113 -11 60 -15 63
-38 5 -42 l-43 -3 88 -32 c96 -36 177 -44 177 -18 0 21 13 19 35 -5 10 -11 26
-20 35 -20 10 0 23 -7 30 -15 7 -8 23 -15 35 -15 12 0 28 -7 35 -15 17 -21
117 -48 174 -47 28 1 58 -6 72 -14 25 -17 44 -12 44 12 0 26 55 17 70 -11 17
-31 37 -32 43 -2 l4 22 8 -22 c6 -20 14 -23 58 -23 68 0 175 19 190 35 7 6 23
17 35 24 18 10 20 16 12 31 -8 14 -17 18 -43 13 -28 -4 -35 -1 -45 22 -15 33
-37 28 -37 -10 0 -19 -7 -30 -20 -36 -34 -13 -45 -10 -72 19 -15 15 -23 21
-19 15 4 -7 3 -13 -2 -13 -15 0 -34 28 -27 40 6 10 -6 14 -37 11 -12 -2 -16 3
-12 13 4 11 0 16 -11 16 -9 0 -14 4 -11 8 3 5 -1 9 -9 9 -8 0 -12 -4 -9 -8 2
-4 -1 -11 -7 -15 -6 -3 -15 0 -20 7 -7 11 -9 10 -9 -3 0 -10 -4 -18 -10 -18
-5 0 -10 4 -10 9 0 5 -3 16 -6 25 -5 12 0 16 17 16 41 0 55 15 42 43 -9 20 -9
29 2 44 18 24 49 7 53 -31 2 -14 6 -26 9 -26 10 0 63 34 63 41 0 4 10 9 22 12
24 7 51 -10 42 -25 -8 -12 16 -39 28 -32 5 3 7 23 3 45 -6 36 -4 40 20 49 45
17 54 13 61 -29 6 -36 9 -39 38 -37 28 1 31 -2 34 -31 3 -32 -7 -40 -42 -34
-8 2 -1 -57 8 -66 2 -2 15 1 30 7 42 16 54 12 58 -17 2 -21 9 -29 27 -31 23
-4 23 -2 17 42 -7 44 -6 46 18 46 31 0 39 12 28 42 -12 30 -5 48 19 48 13 0
19 7 19 21 0 18 -4 21 -29 16 -32 -7 -45 3 -55 45 -4 20 -11 26 -22 21 -14 -5
-16 0 -12 30 3 25 0 37 -8 37 -7 0 -11 -8 -9 -17 1 -10 0 -13 -2 -7 -5 16 -62
23 -71 10 -4 -6 -20 -12 -37 -13 -44 -4 -64 -8 -71 -16 -4 -4 -17 -7 -28 -7
-12 0 -77 -18 -146 -40 -160 -52 -158 -51 -142 -57 15 -6 16 -75 0 -91 -22
-22 -57 -14 -64 13 -4 16 -13 25 -26 25 -16 0 -19 -6 -16 -32 3 -31 1 -33 -32
-36 -29 -3 -39 2 -61 29 l-26 32 -74 -17 c-41 -9 -112 -19 -159 -21 -80 -4
-81 -4 -30 5 30 6 84 20 120 33 63 22 64 22 30 27 -22 3 -38 13 -45 27 -6 12
-33 39 -60 60 -54 43 -92 88 -120 143 -22 44 -127 189 -138 189 -4 1 -10 -6
-13 -14 -4 -9 11 -38 37 -71 23 -31 62 -95 85 -142 23 -48 60 -109 84 -135 23
-26 40 -50 38 -53 -6 -5 -103 89 -146 142 -27 32 -30 34 -60 23 -18 -6 -32
-15 -32 -19 0 -4 -21 -18 -47 -30 -27 -12 -63 -29 -81 -37 -21 -10 -29 -19
-22 -23 9 -5 9 -9 1 -14 -11 -7 -13 -4 -15 29 -1 16 -8 20 -36 20 -57 1 -82
27 -38 39 18 4 20 8 10 18 -18 18 -15 25 14 32 25 7 25 8 9 26 -9 10 -14 24
-10 29 9 16 46 13 59 -5 11 -14 16 -14 54 6 49 26 58 36 43 54 -6 7 -9 26 -6
42 4 20 -1 40 -16 64 -21 33 -22 34 -30 13 -11 -31 -73 -42 -99 -18 -25 23
-25 42 0 57 11 7 20 18 20 25 0 15 -16 17 -25 3 -11 -18 -47 -11 -52 10 -6 22
-16 25 -43 10 -16 -8 -22 -6 -32 10 -16 26 -44 26 -51 0 -3 -11 -1 -20 4 -20
17 0 9 -28 -13 -44 -16 -12 -19 -18 -10 -22 19 -9 14 -42 -8 -56 -25 -16 -27
-43 -2 -33 45 19 49 17 75 -30 24 -41 25 -49 12 -62 -28 -27 -11 -48 36 -45
16 1 29 -4 33 -13 3 -10 -1 -15 -12 -15 -10 0 -23 -5 -28 -10 -11 -11 -17 -7
-116 99 -38 39 -68 79 -68 89 0 10 -7 27 -15 39 -14 20 -13 23 7 37 11 8 25
13 29 10 14 -9 20 15 8 35 -12 18 -15 18 -36 4 -19 -12 -26 -13 -38 -3 -22 18
-18 39 10 52 33 15 32 21 -10 59 -42 38 -43 46 -10 61 14 6 25 17 25 25 0 16
-32 17 -47 2 -19 -19 -43 -2 -43 29 0 21 7 32 25 40 20 9 24 16 19 40 -4 19
-1 32 11 42 15 13 20 12 36 -9 17 -21 23 -22 44 -13 24 11 24 12 7 41 -17 30
-16 31 6 46 12 9 22 23 22 32 0 15 -23 15 -61 -1 -12 -5 -20 1 -29 23 -14 36
-16 36 -36 16 -19 -19 -44 -19 -44 -1 0 20 -25 27 -45 12 -14 -10 -15 -17 -7
-33 11 -20 0 -43 -21 -43 -5 0 -20 -9 -34 -20 -32 -25 -60 -26 -68 -1 -3 10
-14 21 -23 23 -17 5 -52 102 -52 143 0 8 -4 15 -10 15 -5 0 -10 4 -10 8 0 16
73 12 84 -4 9 -12 17 -13 40 -4 23 8 26 13 16 25 -7 8 -10 22 -6 30 8 22 37
18 43 -5 6 -24 16 -25 48 -4 21 14 25 14 43 -2 21 -18 19 -44 -3 -44 -18 0
-26 -15 -19 -34 7 -19 35 -21 53 -3 10 10 16 8 28 -10 14 -21 17 -22 44 -8 27
14 30 14 41 -5 7 -11 21 -20 31 -20 10 0 29 -12 42 -27 22 -26 24 -26 25 -7 0
11 7 29 15 40 8 10 15 29 15 41 0 12 7 34 14 50 8 15 17 36 20 46 3 10 15 17
31 17 16 0 25 6 25 15 0 8 -6 15 -14 15 -18 0 -25 20 -19 53 4 22 2 27 -16 27
-14 0 -21 -6 -21 -20 0 -13 -7 -20 -19 -20 -25 0 -43 24 -39 50 2 17 -5 25
-37 36 -54 19 -65 18 -65 -6z"/>
<path d="M7424 6705 c-14 -21 -15 -44 -11 -140 3 -63 2 -117 -3 -120 -4 -3
-20 5 -35 17 -16 12 -47 23 -76 26 -44 4 -49 2 -60 -22 -11 -23 -9 -29 19 -56
38 -36 58 -73 67 -125 4 -22 20 -64 36 -92 16 -29 29 -60 29 -69 0 -15 9 -16
70 -10 l71 6 17 -30 c19 -34 50 -44 32 -11 -15 28 -13 31 19 31 18 0 34 -8 44
-22 12 -19 17 -21 28 -10 12 11 11 14 -1 22 -8 5 -10 10 -5 10 20 0 88 123
107 193 14 51 31 86 61 124 23 28 44 52 47 53 3 0 17 -24 33 -53 21 -41 27
-66 27 -117 0 -35 5 -89 12 -121 10 -50 9 -60 -5 -83 -14 -21 -25 -26 -60 -26
-24 0 -69 7 -100 15 -75 20 -80 19 -72 -6 5 -15 4 -19 -4 -15 -17 11 -13 -20
4 -34 8 -7 22 -10 31 -6 21 8 54 -11 54 -31 0 -9 -7 -21 -17 -28 -14 -11 -13
-16 16 -59 26 -38 35 -44 50 -37 12 7 26 6 43 -3 21 -11 29 -11 59 6 31 18 27
18 -18 2 -12 -4 -10 -1 5 10 17 14 20 21 12 36 -17 31 -11 50 17 61 21 8 30 6
48 -11 12 -11 28 -20 36 -20 11 1 10 4 -3 14 -26 19 -22 36 7 36 26 0 34 15
13 23 -7 3 -2 6 12 6 14 0 34 -6 44 -14 18 -14 19 -15 2 -15 -16 0 -15 -3 5
-19 24 -20 24 -20 4 -35 -27 -21 -9 -20 56 3 31 10 75 22 100 26 61 10 84 24
39 25 -19 0 -52 5 -73 11 l-38 10 38 26 c52 35 98 86 122 136 16 33 36 51 87
81 36 22 68 45 71 53 8 21 -17 35 -52 27 -16 -3 -48 -8 -70 -11 -22 -3 -49
-13 -59 -22 -18 -15 -18 -15 -5 6 7 12 23 24 35 27 13 4 25 15 29 25 3 11 11
21 18 24 7 3 26 23 41 46 24 34 26 43 16 56 -19 23 -34 18 -86 -28 -52 -47
-88 -70 -97 -61 -2 3 15 43 39 88 49 93 51 101 29 123 -14 13 -18 13 -43 -3
-38 -24 -78 -67 -96 -103 -31 -59 -38 -49 -31 43 8 96 -1 112 -49 81 -25 -17
-39 -52 -66 -162 -6 -23 -15 -45 -21 -49 -6 -3 -27 9 -47 29 -48 45 -78 60
-107 53 -15 -4 -25 -1 -29 9 -9 26 -51 16 -95 -21 -23 -20 -44 -35 -46 -33 -2
2 8 38 21 79 28 89 29 106 8 114 -29 11 -70 -24 -88 -74 -10 -26 -24 -56 -31
-66 -13 -17 -14 -15 -14 21 0 22 4 62 8 89 10 61 5 83 -21 92 -33 10 -66 -32
-79 -101 -17 -93 -21 -95 -34 -17 -13 74 -24 95 -56 113 -15 7 -22 4 -35 -16z"/>
<path d="M5573 6655 c-3 -9 3 -25 13 -36 18 -20 18 -21 0 -35 -10 -7 -24 -15
-30 -17 -8 -3 -7 -8 2 -18 9 -10 15 -10 24 -1 23 23 45 13 61 -27 9 -22 21
-42 27 -46 16 -10 12 -21 -15 -33 -27 -13 -33 -37 -11 -45 7 -3 24 2 37 11 12
9 24 12 26 6 11 -30 19 -34 51 -22 27 11 34 10 42 -2 5 -8 12 -12 15 -8 5 5
-48 100 -70 124 -6 6 -24 38 -40 72 -26 52 -34 61 -58 61 -15 1 -30 8 -33 16
-8 20 -33 19 -41 0z"/>
<path d="M2998 6434 c-10 -3 -18 -10 -18 -15 0 -6 -6 -17 -14 -24 -17 -18 -86
-15 -86 4 0 10 -3 11 -14 2 -7 -6 -20 -9 -28 -6 -8 3 -25 -4 -39 -16 -34 -30
-106 -79 -116 -79 -21 0 -208 -157 -305 -255 -68 -69 -130 -184 -130 -239 0
-20 -4 -34 -8 -31 -4 3 -10 -5 -13 -18 -2 -12 -12 -49 -21 -82 -23 -83 -45
-195 -45 -225 1 -14 0 -32 -2 -40 -8 -50 3 -82 45 -129 41 -46 55 -75 71 -145
11 -51 22 -14 33 114 6 69 15 137 20 150 6 14 20 93 33 175 12 83 28 175 35
205 19 74 18 78 -13 48 -16 -15 -35 -28 -43 -30 -8 -2 -22 -12 -31 -23 -16
-19 -17 -17 -20 28 -2 26 -1 47 4 47 11 0 106 101 113 120 3 8 19 26 36 40 31
24 31 24 26 2 -7 -27 8 -30 17 -3 5 17 60 78 98 109 14 12 93 28 247 51 34 5
60 4 68 -2 24 -19 25 3 2 28 l-23 25 66 0 c36 0 78 5 93 10 15 6 36 8 47 4 17
-5 15 -8 -18 -20 -21 -7 -41 -18 -45 -24 -3 -6 -15 -9 -26 -8 -10 2 -20 -1
-21 -7 -2 -11 150 -34 230 -34 32 -1 49 -6 53 -16 9 -23 40 -27 73 -11 38 20
63 20 37 1 -21 -16 -16 -18 22 -15 26 2 28 -8 5 -27 -17 -14 -17 -14 0 -9 22
7 23 -10 0 -18 -14 -6 -14 -9 5 -26 11 -11 26 -28 34 -38 7 -11 27 -26 43 -35
17 -8 39 -25 50 -36 11 -12 28 -29 38 -39 19 -18 23 -57 7 -67 -5 -3 -10 -15
-10 -26 0 -12 -7 -19 -20 -19 -11 0 -20 7 -20 15 0 24 -14 18 -49 -22 -21 -24
-30 -41 -25 -52 4 -9 6 -26 5 -37 -3 -32 54 -77 89 -69 20 4 29 2 34 -10 3 -9
4 -21 0 -26 -3 -5 2 -12 10 -15 16 -6 22 -45 9 -58 -5 -4 -13 -24 -18 -44 -12
-42 -35 -48 -50 -14 -9 21 -15 23 -50 17 -22 -3 -44 -10 -49 -16 -6 -5 -18 -9
-28 -9 -11 0 -18 -7 -18 -19 0 -11 -4 -23 -10 -26 -5 -3 -10 -1 -10 5 0 6 -5
8 -12 3 -7 -4 -17 -8 -23 -8 -11 -1 -40 -12 -72 -28 -28 -13 -30 -35 -4 -45
10 -4 31 -22 47 -41 l28 -34 3 -209 c3 -171 0 -214 -12 -238 -8 -16 -15 -38
-15 -49 0 -12 -9 -26 -20 -33 -11 -7 -20 -23 -20 -36 0 -20 -4 -23 -32 -20
-26 2 -32 7 -30 22 6 35 -70 86 -127 86 -68 0 -68 -56 -2 -129 28 -31 52 -68
55 -86 4 -18 17 -42 31 -55 14 -13 25 -26 25 -29 0 -8 -63 -7 -75 1 -6 3 -41
8 -78 10 -37 1 -67 6 -67 10 0 4 -6 5 -13 2 -20 -7 -119 34 -134 56 -11 16
-18 17 -43 8 -18 -6 -30 -17 -30 -27 0 -10 -3 -21 -7 -25 -4 -4 -8 -24 -8 -46
-1 -44 22 -62 65 -49 14 4 21 8 15 8 -5 1 -1 7 10 13 48 28 177 4 299 -57 46
-23 56 -41 28 -49 -18 -6 -17 -9 10 -38 26 -28 27 -33 13 -41 -9 -5 -23 -6
-31 -3 -23 9 -43 -4 -61 -41 -13 -28 -14 -39 -5 -54 18 -29 15 -79 -4 -79 -20
0 -43 -28 -44 -53 0 -10 -4 -16 -10 -12 -5 3 -18 -3 -30 -15 -15 -15 -33 -20
-73 -20 -29 0 -57 -4 -62 -9 -15 -15 -95 -1 -95 16 0 10 -6 12 -20 8 -11 -4
-20 -2 -20 4 0 6 -11 13 -25 17 -13 3 -41 28 -62 55 -20 27 -43 49 -50 49 -7
0 -22 18 -33 39 -23 46 -40 60 -40 33 0 -10 14 -34 30 -52 17 -18 30 -37 30
-42 0 -4 7 -8 16 -8 8 0 20 -13 25 -30 6 -16 18 -30 26 -30 8 0 38 -22 66 -49
74 -71 86 -81 96 -81 16 0 20 -28 5 -41 -13 -11 -11 -24 4 -24 15 -1 61 -38
57 -45 -3 -5 0 -21 6 -36 8 -22 12 -25 19 -14 6 10 9 0 8 -28 0 -30 -6 -46
-19 -56 -12 -8 -17 -20 -14 -29 4 -8 1 -18 -4 -22 -6 -3 -9 -11 -5 -16 3 -6
-1 -18 -9 -27 -9 -9 -16 -19 -17 -22 -7 -37 -14 -48 -26 -43 -8 3 -23 -2 -32
-10 -10 -9 -41 -21 -70 -28 -33 -7 -56 -18 -62 -30 -6 -10 -17 -19 -24 -19
-21 0 -41 -31 -59 -89 -10 -30 -16 -55 -14 -57 6 -6 132 50 210 93 108 60 148
77 141 60 -6 -16 -52 -45 -179 -112 -33 -17 -60 -37 -60 -44 0 -6 -5 -15 -11
-19 -6 -4 -15 -24 -20 -46 l-9 -38 -35 36 c-24 25 -44 36 -64 36 l-29 0 47
-50 c25 -27 46 -52 46 -55 0 -3 -31 17 -70 45 l-69 49 -48 -36 c-26 -20 -71
-55 -100 -78 -28 -23 -89 -64 -135 -91 -46 -27 -76 -50 -67 -52 9 -1 20 -19
25 -40 8 -33 12 -37 42 -38 32 -1 62 17 62 37 0 16 118 10 193 -11 41 -11 106
-21 145 -23 40 -1 72 -6 72 -11 0 -5 -14 -31 -31 -57 -28 -45 -30 -54 -34
-166 -2 -65 -7 -175 -11 -244 -4 -85 -3 -133 4 -145 10 -17 11 -17 12 7 0 14
13 45 28 70 16 24 39 67 52 94 13 28 29 57 36 65 11 14 27 62 55 158 12 41 77
122 98 122 6 0 15 -8 20 -18 9 -15 10 -15 11 -1 0 9 14 22 31 29 17 7 36 18
42 25 23 22 92 65 104 65 7 0 13 -9 13 -19 0 -24 -49 -182 -60 -196 -5 -5 -33
-66 -63 -135 -30 -69 -71 -156 -90 -195 -37 -72 -98 -295 -110 -405 -4 -33 26
-12 42 30 10 25 27 66 39 92 12 26 22 50 22 53 0 7 67 189 85 230 15 33 44
129 75 245 15 56 19 63 15 30 -7 -55 -19 -116 -39 -195 -8 -33 -22 -89 -31
-125 -9 -36 -25 -85 -35 -110 -10 -25 -24 -65 -31 -90 -7 -25 -23 -69 -35 -98
-13 -28 -20 -52 -17 -52 3 0 0 -7 -7 -15 -11 -13 94 -15 934 -15 l946 0 0 699
0 699 -127 47 c-71 26 -227 81 -348 121 -233 79 -342 122 -415 164 -64 37
-118 57 -190 70 -35 6 -80 20 -100 30 -44 23 -130 124 -130 154 0 13 23 45 61
81 103 101 203 265 254 415 17 51 35 83 55 100 42 36 70 175 63 312 -5 89 -4
99 18 134 18 30 24 58 30 138 4 64 17 134 34 191 24 78 28 116 36 280 4 105
13 208 19 229 31 102 -22 251 -131 371 -32 36 -59 69 -59 73 0 10 -40 51 -91
92 -24 19 -51 42 -59 50 -31 31 -101 50 -269 76 -51 7 -97 12 -101 9 -5 -3
-39 -1 -77 5 -106 16 -147 19 -165 14z"/>
<path d="M5209 6388 c0 -2 -2 -10 -4 -18 -2 -8 -15 -49 -29 -90 -38 -110 -76
-232 -76 -246 0 -14 22 -22 149 -60 l93 -28 17 23 c12 16 24 21 37 17 23 -7
49 8 40 23 -4 6 -16 11 -27 11 -19 0 -23 8 -19 47 1 13 -7 26 -18 32 -17 9
-23 6 -36 -14 -19 -29 -25 -30 -50 -12 -15 11 -17 17 -7 35 10 19 9 23 -6 28
-52 17 -61 26 -53 53 6 23 11 26 44 23 32 -3 37 0 34 15 -2 10 -14 19 -27 21
-20 3 -22 7 -17 37 6 30 4 34 -16 37 -19 2 -23 8 -20 36 1 17 0 32 -3 32 -3 0
-5 -1 -6 -2z"/>
<path d="M7476 6052 c-3 -6 -2 -13 4 -17 18 -11 11 -35 -10 -35 -16 0 -20 -7
-20 -30 0 -16 5 -30 10 -30 6 0 10 4 10 9 0 16 40 -1 51 -21 14 -26 2 -58 -23
-58 -11 0 -18 -5 -15 -12 2 -7 11 -11 18 -10 8 2 11 0 7 -4 -4 -4 -3 -13 2
-19 8 -9 2 -20 -21 -39 -36 -31 -49 -30 -66 5 -18 36 -38 30 -38 -11 0 -29 -4
-36 -23 -38 -20 -3 -23 -8 -17 -29 3 -15 1 -31 -7 -40 -15 -19 -20 -20 176 45
95 32 142 53 152 67 14 21 13 23 -81 206 -5 11 -16 17 -22 14 -7 -2 -13 0 -13
6 0 6 -5 9 -12 7 -7 -3 -22 7 -33 20 -14 16 -24 21 -29 14z"/>
<path d="M8340 5971 c-14 -5 -44 -18 -68 -30 -30 -15 -53 -20 -73 -16 -29 7
-69 -1 -69 -13 0 -4 20 -20 45 -37 24 -16 42 -32 40 -36 -6 -9 26 -44 48 -52
22 -8 22 -1 -3 25 -24 26 -27 46 -5 28 12 -10 19 -10 27 -2 15 15 55 16 63 1
5 -6 22 -8 47 -4 48 9 56 0 52 -58 -2 -29 -10 -48 -25 -60 -20 -16 -23 -16
-40 -1 -10 9 -23 14 -29 12 -6 -2 19 -30 57 -63 37 -33 93 -85 123 -115 30
-30 65 -64 78 -74 l22 -19 0 73 c0 62 -2 71 -14 61 -12 -10 -18 -7 -33 15 -11
17 -14 29 -7 31 6 2 20 11 30 19 14 11 15 17 7 20 -18 8 -16 41 2 48 18 6 20
67 5 97 -7 13 -7 19 0 19 5 0 10 15 10 34 0 28 -6 38 -40 60 -55 36 -188 56
-250 37z"/>
<path d="M5079 5866 c-1 -3 -2 -11 -3 -18 0 -7 -12 -18 -26 -25 -24 -12 -58
-84 -59 -128 -1 -18 1 -17 12 4 16 33 29 35 60 11 47 -37 26 -106 -23 -80 -25
13 -46 1 -38 -22 10 -25 255 -107 278 -93 17 11 11 25 -15 35 -31 12 -31 20
-2 81 20 44 25 47 57 46 29 -2 36 2 38 19 2 16 -4 23 -23 28 -23 6 -26 10 -20
36 5 22 2 31 -14 39 -30 16 -38 14 -45 -14 -4 -15 -13 -25 -25 -25 -26 0 -43
24 -36 52 5 21 1 25 -37 35 -24 6 -51 15 -60 18 -10 4 -19 4 -19 1z"/>
<path d="M2746 5470 l-48 -27 23 -17 c13 -9 34 -16 46 -16 26 0 26 0 13 -34
-6 -16 -17 -26 -30 -26 -30 0 -101 -38 -128 -68 -22 -26 -39 -68 -30 -78 3 -2
31 -9 63 -14 40 -7 63 -16 79 -34 11 -13 29 -26 39 -28 10 -1 18 -7 18 -13 0
-5 10 -13 21 -18 21 -7 21 -8 2 -21 -18 -14 -17 -15 11 -21 17 -3 43 -12 58
-20 38 -20 55 -19 129 8 67 25 117 65 136 110 19 44 16 51 -49 117 -66 66 -67
83 -4 73 19 -3 35 0 39 6 4 6 16 11 27 11 14 0 19 7 19 25 0 15 -6 25 -14 25
-8 0 -21 8 -28 18 -7 9 -20 18 -28 19 -8 1 -35 8 -60 17 -137 45 -231 47 -304
6z"/>
<path d="M2950 4835 c-7 -8 -19 -15 -27 -15 -20 0 -46 -27 -38 -40 4 -6 3 -10
-2 -9 -14 3 -63 -20 -63 -30 0 -14 -63 -114 -87 -139 -29 -28 -29 -42 0 -42
17 0 28 10 40 35 9 19 21 35 27 35 16 0 80 53 80 66 0 18 42 51 47 37 3 -7 11
-13 18 -13 8 0 14 20 17 63 3 34 4 63 3 65 -1 1 -8 -4 -15 -13z"/>
<path d="M2240 4022 c-52 -61 -88 -119 -110 -181 -31 -87 -24 -195 18 -296 31
-76 149 -217 209 -251 32 -18 33 -18 48 1 12 15 15 42 13 110 -2 97 -16 140
-48 150 -25 8 -44 -6 -60 -45 -20 -48 -37 -36 -59 40 -7 25 -17 58 -22 74 -15
47 -10 111 15 240 42 211 42 211 -4 158z"/>
<path d="M1955 3745 c-49 -12 -135 -33 -190 -45 -55 -12 -136 -32 -180 -45
-44 -13 -163 -45 -265 -70 -102 -26 -218 -58 -258 -71 -40 -13 -79 -24 -87
-24 -13 0 -15 -101 -15 -805 l0 -805 458 0 459 0 12 143 c7 78 16 176 21 217
5 41 12 110 14 154 10 152 18 232 31 331 8 55 21 156 31 225 9 69 25 157 36
195 36 131 42 175 30 251 -11 68 0 343 14 366 7 12 -10 9 -111 -17z"/>
<path d="M7274 847 c-2 -7 -3 -78 -2 -157 3 -137 4 -145 23 -145 19 0 20 8 23
158 2 153 2 157 -18 157 -11 0 -23 -6 -26 -13z"/>
<path d="M6300 828 c-51 -34 -72 -81 -67 -147 3 -48 8 -58 44 -92 50 -46 114
-60 177 -37 l41 15 0 64 0 64 -47 3 c-43 3 -48 1 -48 -17 0 -12 6 -21 14 -21
21 0 38 -27 31 -50 -10 -32 -84 -28 -118 6 -45 45 -47 106 -6 158 17 21 29 26
65 26 25 0 55 -5 66 -11 16 -8 24 -8 34 3 12 12 12 17 0 33 -11 15 -29 20 -82
23 -60 3 -74 0 -104 -20z"/>
<path d="M8563 823 c-7 -3 -13 -13 -13 -24 0 -11 -9 -27 -20 -36 -24 -21 -26
-43 -5 -43 12 0 15 -15 15 -75 0 -68 2 -76 25 -91 16 -11 34 -14 55 -9 34 7
35 22 4 39 -29 17 -34 27 -34 84 0 51 0 52 30 52 23 0 30 5 30 19 0 14 -8 21
-27 23 -21 2 -29 9 -31 28 -4 30 -13 39 -29 33z"/>
<path d="M6569 731 c-39 -40 -42 -114 -5 -154 25 -27 81 -43 114 -33 54 18 87
82 71 140 -22 78 -122 104 -180 47z"/>
<path d="M6831 744 c-61 -44 -60 -146 2 -185 42 -27 101 -20 136 15 35 36 38
124 4 157 -29 30 -109 37 -142 13z"/>
<path d="M7062 744 c-26 -18 -30 -75 -7 -94 14 -11 14 -15 1 -29 -8 -9 -15
-27 -15 -41 0 -14 -2 -38 -3 -55 -4 -40 30 -58 99 -51 54 5 73 16 86 50 17 44
-27 76 -105 76 -43 0 -33 16 16 29 46 11 76 41 76 73 0 10 5 18 10 18 6 0 10
6 10 14 0 8 -17 16 -46 20 -71 9 -98 7 -122 -10z"/>
<path d="M7399 731 c-23 -23 -29 -38 -29 -71 0 -51 25 -95 61 -111 54 -22 151
13 121 43 -8 8 -19 7 -42 -2 -39 -16 -80 -1 -80 30 0 21 10 24 88 21 l42 -2 0
39 c0 53 -32 82 -89 82 -34 0 -49 -6 -72 -29z"/>
<path d="M7712 651 c3 -101 4 -106 25 -109 21 -3 22 0 25 85 l3 88 32 3 32 3
3 -88 c3 -86 3 -88 28 -88 24 0 25 3 28 65 3 100 8 112 40 108 27 -3 27 -4 32
-88 5 -83 6 -85 30 -85 24 0 25 3 28 70 3 80 -2 107 -24 129 -18 19 -85 21
-101 5 -9 -9 -19 -9 -40 -1 -15 6 -54 10 -86 10 l-58 -1 3 -106z"/>
<path d="M8105 748 c-37 -22 -45 -37 -45 -88 0 -64 21 -96 71 -112 31 -9 48
-8 79 2 42 14 45 17 32 38 -7 10 -15 10 -36 2 -15 -5 -38 -7 -52 -4 -24 6 -51
40 -40 51 3 3 35 5 71 4 56 -1 65 1 66 16 3 41 -3 59 -27 81 -28 24 -85 29
-119 10z"/>
<path d="M8334 750 c-11 -4 -28 -26 -38 -47 -45 -100 50 -196 149 -151 24 11
32 45 9 41 -5 -1 -25 -4 -46 -8 -32 -6 -38 -4 -53 19 -10 15 -15 30 -11 33 4
4 36 6 71 5 l65 -3 0 34 c0 50 -38 87 -87 86 -21 0 -47 -4 -59 -9z"/>
</g>
</svg>
