<?xml version="1.0" standalone="no"?>
<!DOCTYPE svg PUBLIC "-//W3C//DTD SVG 20010904//EN"
 "http://www.w3.org/TR/2001/REC-SVG-20010904/DTD/svg10.dtd">
<svg version="1.0" xmlns="http://www.w3.org/2000/svg"
 width="2066.000000pt" height="822.000000pt" viewBox="0 0 2066.000000 822.000000"
 preserveAspectRatio="xMidYMid meet">
<metadata>
Created by potrace 1.16, written by Peter Selinger 2001-2019
</metadata>
<g transform="translate(0.000000,822.000000) scale(0.100000,-0.100000)"
fill="#000000" stroke="none">
<path d="M0 7214 c0 -553 4 -1004 8 -1002 4 2 44 28 89 58 66 45 90 69 134
134 313 464 662 874 1049 1230 41 38 95 88 120 111 60 55 359 304 429 358 31
23 78 59 104 79 l49 38 -991 0 -991 0 0 -1006z"/>
<path d="M2700 8199 c-173 -142 -633 -587 -626 -605 3 -6 -1 -11 -7 -10 -11 1
-185 -182 -307 -323 -30 -35 -72 -83 -92 -105 -26 -29 -35 -47 -32 -62 4 -14
0 -23 -12 -28 -14 -5 -15 -4 -4 9 7 9 10 19 6 23 -4 4 -12 -2 -18 -13 -6 -10
-28 -37 -48 -59 -20 -23 -65 -79 -101 -126 -35 -47 -66 -87 -69 -90 -33 -33
-74 -99 -72 -116 1 -13 -3 -26 -8 -29 -6 -3 -10 -12 -10 -18 0 -7 9 -1 19 12
10 14 17 30 14 37 -3 7 7 25 21 39 14 14 26 29 26 33 1 4 10 18 21 31 17 21
22 22 30 10 5 -7 9 -17 9 -21 0 -13 38 -9 43 5 4 8 8 9 14 1 13 -18 74 -23 80
-7 7 17 23 17 23 0 0 -9 12 -11 40 -9 l40 4 0 -41 0 -41 114 0 c95 0 116 -3
127 -17 10 -11 10 -14 2 -9 -9 5 -13 -1 -13 -18 0 -17 -6 -26 -16 -26 -8 0
-13 -3 -10 -8 2 -4 -3 -16 -11 -27 -11 -14 -17 -16 -20 -7 -3 6 -9 9 -15 6 -5
-3 -12 3 -15 15 -8 33 -33 26 -30 -9 2 -25 6 -30 26 -27 30 3 39 -19 12 -28
-12 -3 -21 -12 -21 -19 0 -7 -11 -34 -25 -60 -35 -66 -31 -70 10 -7 19 29 35
59 35 67 0 9 4 13 10 9 5 -3 16 7 24 22 8 15 23 37 34 49 11 11 24 30 31 41
15 30 143 197 153 201 4 2 8 10 8 18 0 8 3 14 8 14 4 0 13 10 21 21 11 18 11
23 -1 31 -10 8 -9 9 4 4 10 -3 22 0 28 7 5 7 67 84 136 172 70 88 143 178 163
201 20 22 59 67 86 99 135 161 375 417 578 618 l189 187 -289 0 c-276 -1 -289
-2 -313 -21z"/>
<path d="M14355 8130 c-3 -5 -22 -10 -41 -10 -21 0 -33 -4 -29 -10 6 -9 -27
-15 -67 -12 -12 1 -18 -5 -18 -18 0 -15 -7 -20 -25 -20 -14 0 -25 -4 -25 -10
0 -5 -7 -10 -15 -10 -8 0 -15 -4 -15 -10 0 -5 -9 -10 -19 -10 -10 0 -21 -6
-24 -13 -3 -8 -26 -28 -51 -45 -28 -18 -41 -32 -34 -35 7 -3 4 -6 -7 -7 -18
-1 -65 -59 -65 -81 0 -5 -5 -9 -11 -9 -6 0 -36 -25 -67 -55 -31 -30 -59 -55
-63 -55 -4 0 -21 -13 -38 -29 -18 -17 -41 -33 -52 -36 -10 -4 -17 -11 -14 -16
4 -5 -1 -9 -9 -9 -9 0 -16 -6 -16 -12 0 -9 -4 -8 -10 2 -6 10 -10 11 -10 3 0
-7 -9 -13 -20 -13 -12 0 -20 -7 -20 -16 0 -9 -9 -18 -20 -21 -11 -3 -20 -10
-20 -16 0 -11 -70 -77 -81 -77 -4 0 -21 -13 -39 -30 -18 -16 -36 -30 -41 -30
-5 0 -9 -9 -9 -20 0 -11 -6 -20 -13 -20 -12 0 -47 -34 -47 -45 0 -3 -16 -22
-35 -42 -19 -20 -35 -45 -35 -54 0 -26 -27 -73 -33 -57 -3 7 -6 1 -6 -14 -1
-16 -6 -28 -12 -28 -7 0 -9 -10 -7 -25 3 -14 1 -23 -6 -22 -6 1 -12 -9 -14
-22 -2 -13 0 -21 5 -18 5 4 10 -16 11 -43 0 -28 -3 -50 -9 -50 -5 0 -9 -30 -9
-66 0 -41 -4 -63 -10 -59 -6 4 -10 -8 -10 -29 0 -20 -4 -36 -10 -36 -5 0 -10
-18 -10 -39 0 -22 -4 -43 -10 -46 -5 -3 -10 -28 -10 -54 0 -26 -5 -63 -12 -81
-9 -26 -9 -35 0 -38 7 -2 12 -13 11 -25 0 -21 -1 -21 -9 -2 -6 13 -9 -21 -9
-93 -1 -73 -5 -111 -11 -107 -6 4 -10 -8 -10 -29 0 -20 -4 -36 -10 -36 -5 0
-10 -14 -10 -31 0 -17 -4 -28 -10 -24 -6 4 -10 -7 -10 -24 0 -17 5 -31 10 -31
6 0 10 -18 10 -40 0 -22 -4 -40 -9 -40 -5 0 -11 -24 -14 -52 -2 -29 -7 -63
-10 -75 -3 -13 -2 -23 4 -23 5 0 9 -18 9 -40 0 -22 -4 -40 -8 -40 -9 0 -30
-97 -31 -145 -1 -16 -6 -34 -11 -39 -6 -6 -10 -27 -10 -47 0 -21 -4 -41 -10
-44 -13 -8 -32 -81 -32 -122 0 -18 -4 -33 -9 -33 -5 0 -9 -14 -9 -31 0 -28 -2
-30 -17 -18 -11 10 -14 10 -9 2 4 -8 2 -13 -5 -13 -8 0 -7 -5 2 -17 8 -9 9
-14 3 -10 -7 4 -15 0 -18 -9 -9 -22 -8 -24 12 -25 9 0 12 -3 6 -5 -7 -3 -9
-14 -7 -26 3 -11 0 -24 -7 -28 -8 -5 -10 -17 -6 -36 6 -21 9 -25 16 -14 5 9 4
20 -3 29 -9 12 -9 13 1 7 8 -5 12 0 12 13 0 12 5 21 11 21 7 0 9 12 7 30 -3
23 -1 30 9 26 7 -3 13 -1 13 4 0 5 8 11 18 13 16 4 16 5 0 6 -22 1 -23 8 -3
27 13 14 16 14 22 -2 3 -9 1 -25 -5 -35 -7 -10 -12 -32 -12 -49 0 -16 -4 -30
-10 -30 -5 0 -10 -14 -10 -31 0 -17 -4 -28 -10 -24 -6 4 -10 -10 -10 -35 0
-25 4 -39 10 -35 6 3 10 20 10 36 0 17 6 32 15 35 8 4 12 11 8 17 -3 6 -1 7 5
3 14 -8 16 -36 4 -36 -4 0 -9 -19 -11 -42 -1 -24 -6 -44 -12 -46 -5 -2 -9 -26
-9 -53 0 -27 -4 -49 -10 -49 -5 0 -10 -9 -10 -20 0 -11 -4 -20 -10 -20 -5 0
-10 -9 -10 -20 0 -11 -4 -20 -9 -20 -4 0 -11 -40 -14 -89 -5 -62 -13 -101 -27
-126 -14 -25 -20 -54 -20 -99 0 -36 -5 -66 -10 -68 -6 -2 -12 -27 -14 -56 -4
-60 -16 -83 -16 -31 -1 29 -2 31 -11 16 -6 -11 -9 -33 -6 -50 3 -18 3 -26 0
-19 -9 22 -23 2 -23 -34 0 -21 -4 -33 -10 -29 -6 4 -10 -13 -10 -44 0 -28 -3
-51 -7 -51 -5 -1 -21 -12 -38 -26 -16 -13 -23 -22 -14 -19 10 4 16 0 16 -9 0
-8 -4 -13 -9 -10 -4 3 -8 -4 -8 -15 0 -11 -4 -23 -10 -26 -5 -3 -10 -13 -10
-21 0 -15 -23 -44 -34 -44 -3 0 -6 12 -6 26 0 15 4 23 11 19 6 -4 5 2 -3 14
-7 12 -16 21 -19 21 -3 0 -7 -30 -8 -66 -2 -68 -4 -72 -58 -128 -17 -19 -43
-52 -58 -75 -14 -23 -32 -44 -40 -48 -8 -3 -15 -10 -15 -17 0 -6 -9 -18 -20
-26 -11 -8 -20 -20 -20 -27 0 -7 -4 -13 -10 -13 -5 0 -10 -6 -10 -14 0 -8 -6
-16 -12 -19 -10 -3 -10 -9 0 -26 15 -25 16 -51 2 -51 -5 0 -10 -16 -10 -36 0
-21 -4 -33 -10 -29 -6 4 -10 -8 -10 -30 0 -29 -2 -34 -13 -23 -8 6 -12 22 -9
34 2 12 -1 30 -7 41 -8 15 -10 10 -11 -25 0 -24 -4 -41 -9 -38 -9 6 -21 -49
-21 -101 0 -18 -4 -33 -10 -33 -5 0 -10 -16 -10 -36 0 -21 -4 -33 -10 -29 -6
4 -10 -6 -10 -24 0 -16 -4 -33 -10 -36 -12 -8 -13 -65 -1 -65 5 0 12 10 17 23
5 15 9 -11 11 -77 2 -60 0 -103 -7 -110 -5 -5 -10 -20 -10 -33 0 -13 -4 -23
-10 -23 -6 0 -10 -30 -10 -70 0 -48 4 -70 12 -70 8 0 7 -5 -3 -16 -15 -14 -19
-13 -53 10 -44 30 -108 41 -178 32 -66 -9 -99 -27 -137 -73 -37 -45 -39 -63
-8 -64 12 0 37 -2 56 -5 25 -3 39 1 53 16 24 25 64 35 97 24 21 -7 27 -17 29
-46 4 -41 0 -44 -88 -53 -141 -15 -191 -37 -215 -97 -20 -51 -19 -81 5 -127
42 -83 161 -94 243 -23 16 14 17 13 17 -11 0 -27 0 -27 78 -27 42 0 71 -4 65
-8 -9 -5 -13 -43 -14 -115 0 -59 -5 -107 -10 -107 -5 0 -9 -9 -9 -19 0 -11 -5
-23 -10 -26 -6 -4 -8 -10 -5 -15 3 -4 -7 -11 -22 -15 -19 -4 -23 -9 -14 -15 8
-4 21 -1 33 9 10 9 21 15 24 13 11 -6 34 29 34 53 0 14 4 24 9 21 5 -3 12 10
15 30 6 30 10 34 22 23 8 -6 12 -14 9 -17 -9 -10 17 -32 39 -32 16 0 18 2 7 9
-7 5 -10 14 -7 20 10 15 36 14 36 -2 0 -7 9 -23 20 -35 12 -13 20 -35 20 -57
0 -19 4 -35 9 -35 10 0 11 -41 1 -50 -26 -23 -40 -63 -34 -100 7 -40 0 -47
-38 -41 -4 0 -12 -8 -18 -19 -6 -11 -18 -20 -28 -20 -15 0 -15 -2 -2 -10 12
-8 11 -10 -5 -10 -11 0 -27 -9 -35 -19 -9 -14 -18 -17 -29 -11 -16 8 -45 -12
-34 -24 4 -3 -1 -6 -11 -6 -18 0 -46 -22 -46 -37 0 -5 -9 -15 -19 -23 -11 -7
-18 -17 -15 -22 3 -4 -2 -8 -11 -8 -9 0 -14 -4 -10 -9 3 -5 -2 -16 -10 -24 -8
-9 -15 -20 -15 -26 0 -6 -4 -11 -10 -11 -5 0 -10 -9 -10 -19 0 -11 5 -23 10
-26 6 -3 10 2 10 12 0 10 9 25 19 33 11 7 18 17 15 22 -3 4 2 8 10 8 9 0 16 7
16 16 0 22 32 53 38 36 5 -17 22 -15 44 5 17 15 18 15 18 0 0 -10 -6 -17 -14
-17 -8 0 -13 -8 -11 -17 1 -10 0 -12 -2 -5 -3 6 -12 12 -21 11 -11 0 -12 -2
-4 -6 14 -6 17 -63 2 -63 -5 0 -10 -9 -10 -21 0 -11 -4 -17 -10 -14 -6 4 -10
-5 -10 -19 0 -14 -4 -26 -10 -26 -5 0 -10 -20 -10 -44 0 -26 -5 -46 -12 -49
-10 -4 -9 -8 2 -16 12 -9 13 -14 3 -31 -7 -11 -13 -40 -13 -65 0 -34 -4 -45
-16 -45 -9 0 -12 -5 -8 -12 4 -7 3 -8 -4 -4 -9 5 -12 -11 -12 -56 0 -60 -16
-118 -32 -118 -5 0 -8 18 -8 41 0 24 -4 38 -10 34 -5 -3 -10 -30 -10 -60 0
-53 0 -53 25 -42 14 7 25 15 25 20 0 4 7 7 15 7 8 0 15 -9 15 -20 0 -11 -5
-20 -10 -20 -7 0 -7 -7 0 -20 10 -19 10 -20 -9 -8 -12 7 -21 18 -21 25 0 7 -4
13 -10 13 -5 0 -10 -20 -10 -44 0 -25 5 -48 10 -51 6 -3 10 -19 10 -36 0 -16
5 -29 10 -29 6 0 10 -9 10 -19 0 -26 11 -52 19 -47 4 3 5 -10 3 -29 -2 -18 1
-36 7 -39 6 -4 11 -27 11 -52 0 -24 5 -44 10 -44 6 0 10 -11 10 -25 0 -14 5
-25 10 -25 6 0 10 -25 10 -55 0 -30 5 -55 10 -55 6 0 10 -15 10 -34 0 -19 6
-36 13 -39 10 -3 10 -9 0 -26 -7 -11 -13 -34 -13 -51 0 -16 -5 -30 -11 -30 -5
0 -7 -4 -4 -10 3 -5 0 -10 -9 -10 -8 0 -20 -14 -28 -30 -7 -17 -20 -30 -31
-30 -10 0 -15 -4 -12 -10 3 -5 1 -10 -5 -10 -14 0 -40 -25 -40 -39 0 -6 -8
-11 -18 -11 -10 0 -24 -9 -32 -20 -8 -11 -22 -20 -32 -20 -10 0 -18 -4 -18
-10 0 -13 33 -13 45 -1 6 5 19 11 30 13 11 1 27 11 36 20 9 10 25 18 35 18 16
0 17 2 4 10 -12 8 -11 10 8 10 12 0 22 5 22 11 0 6 17 27 38 47 35 35 57 76
69 130 3 12 9 22 14 22 12 0 11 127 -1 135 -6 4 -7 -1 -3 -12 3 -10 2 -14 -2
-10 -8 7 -22 92 -29 175 -1 19 -9 38 -16 42 -11 7 -9 13 11 30 13 12 18 19 12
15 -10 -5 -13 9 -13 54 0 34 -4 61 -10 61 -5 0 -10 7 -10 15 0 25 18 17 28
-12 10 -27 10 -27 11 10 1 30 -2 37 -16 35 -21 -4 -31 31 -12 43 10 6 8 13
-10 28 -21 18 -24 29 -23 88 1 42 6 69 14 74 10 7 10 11 0 21 -16 16 -16 65 1
71 10 4 10 6 0 6 -16 1 -17 38 -2 43 6 2 10 29 10 61 0 31 5 57 10 57 5 0 9
16 9 36 0 21 4 33 10 29 6 -4 10 10 10 36 0 29 6 47 20 59 12 10 23 27 25 39
5 29 73 94 91 87 7 -3 14 -13 13 -23 0 -16 -1 -16 -9 2 -7 17 -9 16 -9 -11 -1
-16 -7 -36 -13 -43 -11 -11 -10 -12 2 -6 13 8 13 7 0 -9 -10 -13 -14 -41 -12
-102 1 -72 -1 -87 -18 -104 -11 -11 -20 -27 -20 -35 0 -8 -7 -15 -16 -15 -8 0
-12 -4 -9 -10 3 -5 1 -10 -4 -10 -6 0 -11 -16 -11 -35 0 -19 5 -35 10 -35 6 0
10 7 10 15 0 8 5 15 10 15 9 0 12 -17 15 -93 1 -16 5 -31 11 -35 14 -11 18
-30 22 -111 2 -49 7 -70 13 -60 6 10 9 7 9 -13 0 -16 4 -28 8 -28 4 0 14 -20
21 -45 7 -25 17 -45 22 -45 5 0 9 -29 9 -65 0 -36 6 -75 13 -86 10 -17 10 -23
0 -26 -7 -3 -13 -13 -13 -23 0 -10 -4 -22 -10 -25 -5 -3 -10 -26 -10 -51 0
-28 -4 -43 -10 -39 -6 4 -10 -14 -10 -45 0 -43 -3 -53 -20 -57 -20 -5 -29 -33
-10 -33 15 0 12 -19 -5 -37 -8 -8 -13 -19 -10 -24 4 -5 1 -9 -4 -9 -6 0 -11
-7 -11 -15 0 -8 -4 -15 -10 -15 -5 0 -10 -5 -10 -10 0 -6 -16 -26 -35 -46 -19
-19 -35 -31 -35 -27 0 4 -9 -3 -20 -15 -11 -12 -20 -24 -20 -27 0 -10 -28 -35
-39 -35 -6 0 -11 -4 -11 -10 0 -5 -7 -10 -15 -10 -8 0 -15 -4 -15 -10 0 -5 -9
-10 -21 -10 -11 0 -17 -4 -14 -10 8 -13 65 -13 65 0 0 6 7 10 16 10 8 0 12 5
9 10 -3 6 1 10 9 10 9 0 16 5 16 10 0 6 7 10 15 10 10 0 15 -10 15 -30 l0 -30
243 -1 242 -2 -140 -16 c-131 -15 139 -16 4029 -19 2293 -1 4171 -1 4173 1 2
2 2 898 1 1991 l-3 1988 -58 -91 c-454 -706 -1116 -1361 -1907 -1888 -324
-216 -568 -357 -955 -553 -327 -165 -511 -248 -890 -400 -227 -91 -705 -264
-711 -257 -2 2 45 26 104 53 581 266 1136 594 1634 967 174 129 475 374 593
483 22 20 60 54 85 76 183 161 619 616 612 640 -1 5 2 7 7 4 5 -4 14 -1 20 6
6 7 30 36 53 64 171 203 264 322 256 329 -2 3 -24 -22 -48 -55 -48 -64 -61
-73 -53 -37 4 18 3 19 -6 7 -6 -8 -11 -27 -11 -43 0 -15 -3 -26 -7 -26 -22 4
-32 -3 -27 -16 4 -10 2 -13 -8 -10 -17 7 -45 -22 -33 -33 4 -4 10 -1 12 6 3 6
10 12 16 12 6 0 4 -7 -5 -17 -14 -14 -20 -14 -33 -3 -15 12 -16 10 -10 -16 5
-22 4 -25 -4 -14 -9 12 -11 10 -11 -10 -1 -24 -30 -76 -30 -53 0 7 5 15 10 18
6 3 10 14 10 23 -1 14 -4 13 -20 -6 -10 -13 -17 -29 -14 -36 3 -7 -1 -18 -9
-24 -12 -10 -14 -4 -12 38 1 28 5 53 10 58 4 4 4 -4 1 -18 -6 -22 -5 -23 6 -9
7 9 20 18 28 22 9 3 10 6 3 6 -7 1 -13 10 -13 21 0 15 7 20 25 20 19 0 23 4
19 18 -4 11 -3 13 3 5 6 -8 13 -7 28 4 18 14 18 15 1 9 -10 -3 -25 -1 -32 5
-16 13 -48 4 -39 -11 3 -5 -1 -10 -10 -10 -9 0 -13 -5 -10 -10 3 -6 2 -10 -4
-10 -5 0 -13 9 -16 20 -6 18 -15 20 -81 20 l-74 0 0 36 c0 32 -1 34 -16 20 -8
-9 -16 -16 -17 -16 -1 0 -16 -4 -34 -9 -26 -7 -31 -7 -26 5 6 16 -13 19 -22 4
-3 -5 -12 -10 -18 -10 -7 0 -4 7 6 14 9 7 17 19 17 25 0 7 5 9 12 5 7 -5 8 -3
3 5 -5 9 -2 12 11 9 22 -4 58 35 68 72 3 14 3 19 0 13 -6 -14 -24 -18 -24 -5
0 5 9 18 20 30 11 12 20 25 20 30 0 5 9 17 19 26 11 10 25 31 31 47 7 16 16
26 21 23 5 -3 6 2 2 12 -4 12 -14 3 -40 -40 -19 -31 -39 -56 -44 -56 -5 0 -9
-5 -9 -11 0 -9 -27 -49 -63 -94 -51 -64 -95 -131 -90 -139 3 -5 1 -6 -4 -3 -6
4 -39 -29 -74 -73 -34 -44 -66 -80 -71 -80 -4 0 -8 -5 -8 -11 0 -13 -73 -100
-309 -369 -71 -80 -570 -583 -661 -666 -30 -27 -84 -74 -120 -104 -36 -30 -67
-57 -70 -60 -113 -114 -634 -513 -855 -655 -33 -21 -100 -65 -148 -97 -49 -33
-96 -62 -105 -66 -10 -4 -43 -24 -74 -45 -52 -34 -104 -64 -180 -104 -15 -8
-30 -19 -33 -24 -10 -16 -23 0 -18 21 3 12 0 20 -7 20 -8 0 -11 -9 -8 -25 3
-14 1 -28 -3 -31 -5 -3 -9 1 -10 8 -5 66 -10 99 -23 133 -8 22 -15 34 -16 28
0 -18 -20 -16 -20 2 0 7 -8 19 -17 24 -10 6 -14 11 -10 11 4 0 -1 10 -12 21
-11 12 -23 39 -26 60 -4 21 -12 37 -18 36 -8 -1 -13 15 -14 44 -1 41 2 48 23
58 33 15 34 14 34 -8 0 -11 5 -23 10 -26 6 -4 10 8 10 30 0 34 1 35 28 29 43
-11 48 -29 25 -91 -6 -15 -4 -16 8 -6 23 18 42 0 48 -48 7 -46 33 -62 51 -29
13 25 13 103 0 95 -6 -4 -10 6 -10 22 0 15 -5 35 -10 43 -7 11 -10 5 -10 -22
0 -21 -5 -38 -11 -38 -6 0 -9 18 -8 47 l3 47 -58 3 c-33 1 -63 6 -67 10 -11
13 2 73 16 73 19 0 26 26 19 69 -5 30 -3 38 10 38 8 0 13 -4 10 -9 -11 -17 7
-28 26 -15 23 14 27 29 5 21 -9 -4 -15 0 -15 10 0 9 8 16 21 16 12 0 17 4 14
11 -4 6 2 5 14 -3 12 -7 21 -23 21 -35 0 -13 5 -23 11 -23 7 0 8 9 3 28 -4 15
-8 39 -7 55 0 16 -5 27 -13 27 -18 0 -19 76 -1 83 9 4 8 8 -3 16 -12 9 -13 14
-2 31 6 11 12 32 12 47 0 70 6 75 86 72 41 -2 74 -7 74 -11 0 -4 24 -8 54 -8
52 0 81 -12 54 -23 -7 -3 11 -6 40 -6 28 -1 52 -5 52 -11 0 -5 11 -10 24 -10
28 0 33 16 28 98 l-4 52 -39 0 c-37 0 -39 2 -33 25 7 30 -2 75 -16 75 -6 0
-10 -7 -10 -16 0 -9 -5 -34 -11 -55 -9 -28 -16 -36 -28 -31 -37 13 -34 58 5
68 18 5 24 13 24 35 0 31 10 35 40 19 13 -7 16 -17 13 -32 -6 -23 -6 -23 15
-4 14 12 22 31 22 51 0 42 20 68 51 63 19 -2 25 -10 27 -36 4 -36 24 -51 46
-33 17 14 46 4 46 -16 0 -8 5 -11 10 -8 6 3 10 -3 10 -14 0 -12 -3 -21 -8 -21
-4 0 -12 -10 -17 -22 -7 -16 -20 -24 -44 -26 -29 -3 -61 -21 -61 -35 0 -3 8
-7 18 -9 18 -5 27 -38 10 -38 -4 0 -8 -7 -8 -15 0 -8 -6 -15 -12 -15 -9 0 -8
-4 2 -10 13 -8 13 -10 -1 -10 -23 0 -33 -29 -13 -37 8 -3 20 -1 27 6 6 6 26
11 43 11 18 0 36 5 39 10 3 6 19 10 35 10 16 0 36 7 45 16 9 9 27 17 41 17 13
0 24 3 24 8 0 5 9 9 19 9 11 0 23 5 26 10 3 6 16 10 28 10 12 1 47 14 77 30
30 17 65 30 78 30 12 0 22 4 22 8 0 4 17 14 38 21 20 8 43 18 49 23 17 14 7
28 -15 22 -10 -4 -13 -3 -6 3 6 4 13 13 15 19 3 8 12 9 29 2 20 -7 22 -11 10
-18 -13 -8 -13 -10 1 -10 16 0 59 32 59 44 0 3 -11 6 -24 6 -22 0 -56 22 -56
36 0 3 13 19 30 37 38 40 38 47 -2 47 -32 0 -108 29 -108 41 0 11 58 29 62 19
2 -5 21 6 43 24 38 33 39 33 17 45 -16 9 -27 9 -43 1 -20 -11 -20 -12 -3 -31
17 -19 16 -19 -39 -19 -32 0 -57 5 -57 10 0 6 -9 19 -21 31 -15 15 -19 27 -14
42 4 12 8 33 9 47 0 14 10 30 21 35 10 6 24 25 29 43 7 24 15 32 32 32 12 0
24 -6 27 -12 2 -8 8 -9 13 -4 5 5 4 11 -3 13 -7 3 -13 8 -13 13 0 11 -59 70
-71 70 -5 0 -9 11 -9 25 0 23 4 25 40 25 29 0 40 4 40 15 0 8 4 15 9 15 5 0
11 18 15 40 6 38 8 40 40 40 19 0 37 -6 40 -12 3 -7 4 -4 3 7 -2 11 -9 19 -15
18 -7 -2 -12 1 -12 6 0 5 -3 16 -6 24 -4 12 0 14 14 10 12 -3 22 1 25 11 4 11
1 16 -10 16 -13 0 -13 3 -2 16 7 9 22 14 36 11 20 -4 23 0 23 24 0 24 4 29 25
29 14 0 25 4 25 8 0 18 -38 42 -61 40 -23 -3 -24 -1 -21 55 3 48 1 57 -13 57
-11 0 -15 7 -13 23 2 16 11 23 31 25 15 2 27 8 27 13 0 12 67 12 75 -1 3 -6
26 -10 50 -10 35 0 47 -5 55 -21 7 -11 9 -24 5 -27 -4 -4 -47 -9 -96 -10 l-89
-4 0 -28 c0 -26 3 -27 61 -34 103 -10 115 -8 148 25 17 17 31 39 31 49 0 21
-31 80 -42 80 -5 0 -8 18 -8 39 l0 39 68 -1 c60 -2 68 0 64 15 -2 9 -19 19
-40 23 -44 8 -72 22 -72 35 0 6 7 10 15 10 8 0 15 7 15 16 0 11 6 14 23 9 12
-4 36 -11 52 -16 17 -4 42 -11 58 -14 17 -3 27 -12 27 -23 1 -21 23 -52 39
-52 16 0 14 20 -4 26 -8 4 -15 17 -15 30 0 32 35 33 45 2 l8 -23 4 23 c2 12 7
22 11 22 9 0 12 -42 13 -152 0 -70 3 -88 14 -88 20 0 29 -43 16 -68 -6 -12
-11 -52 -11 -90 0 -38 -9 -114 -20 -167 -11 -53 -20 -108 -20 -121 0 -14 -7
-27 -15 -30 -8 -4 -15 -11 -15 -18 0 -6 -14 -38 -30 -71 -33 -68 -39 -96 -15
-71 8 8 15 22 15 32 0 10 3 15 6 11 4 -3 13 0 20 8 17 16 19 29 3 19 -8 -4 -8
0 0 15 7 11 15 21 19 21 4 0 16 20 27 45 11 25 23 45 27 45 5 0 8 14 8 31 0
17 4 28 10 24 6 -3 10 5 10 19 0 14 5 28 10 31 6 3 10 19 10 35 0 16 5 32 10
35 5 3 10 22 10 41 0 19 5 34 10 34 6 0 10 26 10 58 0 37 3 52 9 43 14 -23 23
101 23 339 0 218 -6 309 -22 345 -5 11 -11 40 -14 65 -12 98 -18 135 -27 145
-5 5 -9 17 -9 27 0 10 -5 18 -11 18 -6 0 -9 10 -7 23 2 18 12 23 58 30 30 5
78 9 105 9 36 1 43 3 25 8 -30 8 68 20 161 20 33 0 59 4 59 10 0 6 27 10 60
10 74 0 79 15 8 24 -93 11 -198 7 -195 -6 1 -9 -16 -14 -56 -16 -42 -2 -57 0
-55 10 2 7 -9 13 -27 14 -16 1 -32 3 -35 4 -3 1 -9 2 -14 1 -23 -5 -63 11 -63
24 0 11 12 15 44 15 24 0 43 4 43 9 0 5 10 11 23 13 14 3 3 7 -28 12 -27 5
-60 15 -73 22 -12 8 -28 12 -35 9 -7 -4 -5 -1 3 7 16 13 16 48 1 48 -5 0 -11
14 -14 30 -5 24 -12 30 -32 30 -14 0 -25 5 -25 11 0 8 -21 10 -64 7 -57 -5
-64 -3 -61 12 2 9 0 22 -5 29 -9 15 -46 10 -43 -6 4 -21 -27 -23 -39 -3 -8 13
-24 20 -44 20 -17 0 -40 9 -53 21 -15 14 -28 18 -39 13 -44 -20 -123 -2 -136
31 -3 9 -19 15 -41 15 -48 0 -65 19 -65 72 0 31 -3 39 -10 28 -8 -12 -10 -11
-10 8 0 12 -4 22 -10 22 -5 0 -10 5 -10 11 0 7 -9 20 -21 29 -11 10 -21 28
-22 39 -1 12 -5 21 -9 21 -4 0 -8 14 -8 31 0 17 -4 28 -10 24 -6 -4 -10 5 -10
19 0 14 -4 26 -10 26 -5 0 -10 9 -10 20 0 11 -4 20 -10 20 -5 0 -10 14 -10 30
0 17 -4 30 -10 30 -5 0 -9 3 -8 8 3 14 -14 62 -23 62 -5 0 -9 7 -9 15 0 8 -4
15 -10 15 -5 0 -10 5 -10 11 0 6 -22 32 -50 59 -27 27 -50 53 -50 58 0 5 -13
23 -30 40 -16 18 -30 36 -30 42 0 5 -4 10 -10 10 -5 0 -10 7 -10 15 0 8 -4 15
-9 15 -5 0 -12 8 -15 18 -3 9 -24 35 -46 57 -21 22 -39 48 -40 58 0 9 -4 17
-9 17 -5 0 -12 10 -16 23 -11 31 -14 127 -3 121 4 -3 8 2 8 11 0 9 -4 13 -10
10 -6 -4 -10 7 -10 24 0 17 5 31 10 31 6 0 10 11 10 25 0 14 -4 25 -10 25 -5
0 -10 18 -10 40 0 22 -4 40 -10 40 -5 0 -10 9 -10 19 0 11 -4 23 -10 26 -5 3
-10 21 -10 38 0 24 -3 28 -10 17 -7 -11 -10 0 -10 38 0 28 5 52 10 52 6 0 10
33 10 80 0 47 -4 80 -10 80 -5 0 -10 5 -10 10 0 6 9 10 20 10 11 0 20 7 20 15
0 8 5 15 10 15 6 0 10 16 10 35 0 19 5 35 10 35 6 0 10 5 10 11 0 5 -4 7 -10
4 -6 -4 -10 5 -10 20 0 18 -6 29 -20 32 -11 3 -20 12 -20 20 0 8 5 11 10 8 6
-3 10 -1 10 4 0 6 14 11 30 11 39 0 41 27 3 36 -34 9 -53 27 -53 50 0 14 3 14
15 4 9 -7 19 -9 23 -5 4 4 1 10 -5 12 -7 3 -13 14 -13 26 0 18 -2 19 -10 7 -8
-12 -10 -11 -10 8 0 17 -7 24 -30 29 -16 3 -30 10 -30 15 0 5 -11 20 -25 34
-13 13 -25 27 -25 29 0 3 0 10 0 15 0 6 -7 10 -15 10 -8 0 -15 9 -15 20 0 22
15 27 23 8 3 -8 6 -6 6 5 1 19 -46 66 -66 67 -7 0 -13 5 -13 10 0 6 -9 10 -20
10 -11 0 -20 5 -20 11 0 5 -4 7 -10 4 -5 -3 -10 1 -10 10 0 9 -4 13 -10 10 -5
-3 -10 -1 -10 4 0 6 -6 10 -12 9 -7 -2 -12 3 -10 10 1 6 -7 12 -18 12 -11 0
-20 4 -20 9 0 12 -69 81 -81 81 -5 0 -9 9 -9 20 0 12 -7 20 -16 20 -23 0 -68
37 -52 43 8 4 5 8 -8 12 -12 4 -27 18 -34 31 -8 13 -22 24 -32 24 -11 0 -18 7
-18 20 0 10 -6 23 -13 27 -7 4 -26 25 -43 45 -16 21 -33 38 -37 38 -5 0 -30
23 -57 50 -27 28 -53 50 -58 50 -6 0 -31 20 -56 43 -25 24 -48 42 -51 39 -3
-3 -5 2 -5 11 0 8 -6 22 -13 29 -7 7 -23 27 -36 43 -12 17 -25 29 -27 28 -2
-2 -10 -3 -16 -3 -9 0 -8 4 2 10 13 8 12 10 -2 10 -10 0 -18 4 -18 10 0 5 -11
20 -25 34 -14 14 -25 34 -25 46 0 11 -4 20 -10 20 -5 0 -10 7 -10 16 0 14 -3
14 -15 4 -13 -11 -19 -9 -35 10 -11 13 -20 29 -20 37 0 22 27 15 35 -9 6 -20
8 -20 12 -6 2 10 -3 25 -11 34 -9 8 -16 20 -16 25 0 5 -10 9 -22 10 -22 0 -22
1 -3 9 19 8 19 9 -3 9 -15 1 -26 8 -29 21 -3 11 -14 20 -24 20 -11 0 -19 5
-19 10 0 6 -9 10 -20 10 -11 0 -20 5 -20 10 0 6 -7 10 -16 10 -8 0 -12 5 -9
10 4 6 -5 10 -19 10 -14 0 -26 5 -26 10 0 6 -7 10 -15 10 -8 0 -15 5 -15 10 0
6 -9 10 -20 10 -11 0 -20 5 -20 10 0 6 -11 10 -25 10 -14 0 -25 5 -25 10 0 6
-18 10 -41 10 -24 0 -38 4 -34 10 4 6 -15 10 -49 10 -43 0 -56 3 -56 15 0 10
-11 15 -35 15 -19 0 -35 5 -35 10 0 6 -11 10 -25 10 -29 0 -95 59 -95 85 0 8
-8 15 -18 15 -10 0 -24 9 -32 20 -8 11 -19 20 -25 20 -5 0 -21 9 -35 20 -23
18 -42 20 -192 20 -101 0 -169 -4 -173 -10z m634 -644 c9 -7 27 -17 41 -21 39
-12 120 -54 120 -63 0 -5 22 -19 50 -33 27 -13 52 -31 55 -41 7 -20 41 -43 77
-52 28 -6 98 -68 98 -86 0 -5 14 -17 30 -27 17 -9 30 -23 30 -30 0 -7 9 -28
20 -48 11 -20 20 -42 20 -50 0 -8 3 -15 8 -15 4 0 12 -9 17 -19 16 -30 88
-135 98 -142 5 -4 5 -9 -1 -13 -12 -7 -64 18 -55 27 3 4 -10 7 -30 7 -20 0
-39 5 -42 10 -3 6 -28 10 -56 10 -27 0 -49 5 -49 10 0 6 -25 10 -55 10 -30 0
-55 -4 -55 -10 0 -5 -7 -10 -16 -10 -32 0 -214 -81 -233 -104 -7 -9 -20 -16
-27 -16 -8 0 -14 -4 -14 -8 0 -4 -21 -21 -46 -37 -31 -20 -51 -42 -65 -72 -13
-28 -24 -41 -32 -37 -7 4 -9 3 -4 -1 4 -5 -1 -17 -10 -28 -10 -10 -19 -31 -20
-46 -1 -14 -3 -37 -5 -50 -2 -15 4 -27 17 -35 11 -6 22 -12 25 -14 2 -2 -2 -7
-10 -13 -13 -8 -11 -12 8 -28 12 -11 22 -26 22 -35 0 -8 12 -21 28 -28 22 -11
28 -21 30 -54 2 -30 12 -50 37 -77 19 -21 35 -47 35 -60 0 -14 3 -18 8 -10 5
8 13 9 22 3 8 -6 103 -10 211 -10 191 0 197 1 202 21 3 11 15 23 26 26 12 3
21 12 21 19 0 17 20 19 20 2 1 -7 10 10 22 37 12 28 24 52 28 55 11 11 30 51
30 65 0 8 -7 15 -15 15 -19 0 -8 30 17 48 10 7 18 24 18 36 0 13 9 35 20 48
15 19 19 39 18 82 -1 49 -6 60 -27 77 -14 11 -38 23 -53 26 -16 3 -31 10 -34
14 -3 5 -20 9 -38 9 -30 0 -34 4 -38 30 -3 17 0 34 6 39 13 9 52 8 81 -3 11
-4 29 -11 39 -15 11 -4 30 -3 43 3 23 11 31 26 13 26 -5 0 -10 5 -10 10 0 18
18 11 25 -9 4 -14 12 -18 23 -14 9 3 14 3 10 -2 -4 -4 6 -23 22 -42 20 -22 30
-45 30 -66 0 -21 3 -27 9 -19 6 10 13 3 25 -23 10 -20 24 -39 32 -42 8 -3 14
-10 14 -15 0 -6 7 -16 16 -23 10 -6 22 -27 28 -46 7 -19 16 -33 22 -32 5 1 11
-15 12 -35 2 -20 6 -39 10 -42 16 -12 52 -70 52 -85 0 -8 5 -15 10 -15 6 0 10
-9 10 -21 0 -11 4 -18 9 -15 5 3 12 -14 16 -39 3 -25 10 -43 16 -40 5 4 9 -5
9 -19 0 -14 5 -26 10 -26 6 0 10 -11 10 -24 0 -14 5 -28 11 -31 6 -4 8 -14 4
-22 -3 -9 0 -23 8 -32 7 -9 24 -50 37 -91 14 -41 28 -78 33 -81 4 -3 7 -16 7
-30 -1 -13 2 -72 5 -132 5 -88 3 -111 -9 -129 -9 -12 -16 -33 -16 -45 0 -28
-16 -30 -23 -3 -3 11 -10 20 -17 20 -7 0 -14 -9 -17 -20 -3 -11 -9 -20 -14
-20 -5 0 -9 9 -9 20 0 21 -15 27 -25 10 -16 -25 -46 -8 -75 43 -26 43 -30 59
-25 94 5 38 3 45 -30 77 -19 19 -35 39 -35 44 0 5 -10 20 -22 34 -20 23 -34
27 -107 33 -57 5 -89 13 -100 24 -9 9 -39 26 -66 38 -43 18 -68 21 -169 20
l-119 -2 -3 -28 c-2 -21 1 -27 10 -24 8 3 23 -3 34 -14 12 -10 25 -19 29 -19
12 0 40 -34 47 -58 9 -27 -11 -68 -35 -69 -10 -1 -19 4 -19 10 0 7 -4 6 -10
-3 -9 -13 -11 -13 -20 0 -8 13 -10 12 -11 -5 l0 -20 -9 20 c-7 17 -9 16 -10
-10 -1 -26 -3 -27 -10 -10 -7 17 -9 16 -9 -10 -1 -21 -4 -26 -10 -17 -6 10
-11 6 -19 -16 -9 -25 -18 -32 -49 -37 -21 -4 -52 -10 -68 -14 -38 -10 -75 3
-82 29 -3 11 -8 20 -12 20 -9 0 -35 61 -37 85 -1 11 -7 52 -13 92 -10 59 -18
78 -47 108 -27 29 -34 45 -34 76 0 33 -7 45 -45 82 -25 24 -45 49 -45 55 0 6
-9 16 -20 22 -11 6 -17 16 -14 25 4 10 0 15 -14 15 -12 0 -23 9 -27 19 -3 11
-14 23 -23 26 -9 3 -29 25 -43 49 -22 35 -35 46 -74 57 -31 9 -50 21 -53 33
-4 15 -12 17 -43 13 -33 -4 -39 -2 -39 14 0 28 -31 61 -46 48 -9 -7 -16 -5
-26 8 -21 28 -80 56 -88 42 -6 -8 -9 -8 -14 0 -4 6 -2 11 3 11 24 0 8 26 -26
43 -27 14 -38 15 -44 6 -11 -18 -39 -3 -39 21 0 11 -8 24 -17 27 -10 4 -26 16
-35 27 -10 12 -23 27 -29 34 -8 9 -9 32 -4 70 4 32 9 73 10 92 4 55 26 125 34
111 8 -12 31 28 31 54 0 20 42 48 51 34 3 -6 17 -9 30 -7 30 4 41 48 13 48
-15 0 -13 5 9 28 15 15 29 42 33 59 4 20 11 30 19 27 22 -9 27 15 11 47 -18
35 -14 49 14 49 23 0 35 18 32 45 -1 15 10 26 47 43 26 12 52 22 56 22 5 0 16
7 26 16 20 18 111 44 157 44 17 0 32 4 32 10 0 22 243 19 269 -4z m591 -1806
c0 -11 7 -20 15 -20 9 0 15 -9 15 -25 0 -16 7 -28 18 -31 33 -11 77 -34 66
-34 -6 0 -29 -8 -50 -17 -22 -9 -46 -18 -54 -19 -8 -2 -20 -10 -26 -18 -6 -9
-19 -16 -28 -16 -9 0 -16 -6 -16 -12 -1 -14 -75 -52 -87 -45 -10 6 -34 -19
-26 -27 4 -3 1 -6 -5 -6 -8 0 -12 23 -12 69 0 79 6 101 27 101 10 0 12 6 8 21
-9 29 13 69 39 69 12 1 35 7 51 15 44 20 65 18 65 -5z m-950 -230 c7 -16 16
-30 21 -30 5 0 9 -18 9 -40 0 -29 -4 -40 -15 -40 -18 0 -21 -54 -5 -94 9 -24
6 -28 -31 -47 -35 -17 -43 -18 -52 -6 -7 8 -27 24 -44 36 -32 22 -33 25 -33
90 0 66 1 69 29 81 16 6 32 18 35 26 3 8 14 14 25 14 11 0 22 9 26 20 9 28 21
25 35 -10z m1260 -66 c0 -32 4 -44 15 -44 9 0 15 -9 15 -21 0 -35 34 -19 38
18 2 17 12 39 23 49 10 9 19 23 19 31 0 14 10 16 34 7 20 -8 23 -84 4 -85 -7
0 -4 -4 7 -9 11 -5 14 -9 8 -9 -18 -1 -53 -33 -47 -43 3 -4 -7 -3 -21 2 -34
13 -32 14 -39 -15 -4 -16 -13 -25 -26 -25 -11 0 -29 -13 -42 -30 -12 -16 -28
-30 -35 -30 -7 0 -13 -4 -13 -8 0 -12 -49 -33 -61 -27 -5 3 -6 -1 -3 -9 4 -11
0 -16 -10 -16 -9 0 -16 -4 -16 -10 0 -5 -5 -10 -11 -10 -7 0 -9 12 -5 35 5 25
3 40 -8 50 -17 17 -42 20 -51 5 -3 -5 0 -10 8 -10 24 0 8 -39 -19 -46 -33 -8
-54 2 -54 26 0 11 3 20 8 20 4 0 13 19 20 42 7 22 29 59 48 81 18 22 34 51 34
63 0 13 8 24 20 27 16 4 20 0 20 -21 1 -15 7 -38 14 -51 7 -13 11 -32 8 -43
-3 -11 1 -18 10 -18 10 0 15 10 16 28 1 57 12 126 21 131 5 3 23 6 40 7 30 1
31 0 31 -42z m135 -235 c4 -16 4 -33 0 -39 -3 -5 -1 -10 4 -10 12 0 15 -33 4
-44 -4 -4 -6 -22 -5 -40 2 -23 -2 -35 -12 -39 -9 -4 -16 -16 -16 -27 0 -16 -5
-20 -19 -15 -23 7 -35 -8 -52 -67 -7 -26 -20 -50 -28 -53 -9 -3 -53 -8 -98
-11 -74 -5 -84 -3 -90 13 -9 25 -25 34 -40 22 -13 -11 -33 -4 -33 12 0 5 18
27 40 49 22 22 40 46 39 53 0 10 -2 10 -6 0 -10 -25 -23 -12 -23 23 0 36 9 49
48 72 18 10 22 10 22 0 0 -7 19 6 43 30 78 79 109 97 165 98 48 2 51 1 57 -27z
m1809 -1703 c15 15 19 15 32 2 17 -17 9 -48 -12 -48 -8 0 -14 -5 -14 -11 0 -7
-15 -10 -40 -7 -22 2 -40 0 -40 -4 0 -15 -102 -8 -131 9 -41 24 -36 33 17 33
42 0 45 2 39 21 -7 21 -5 22 33 15 25 -4 43 -2 47 5 5 7 15 3 30 -11 21 -20
23 -20 39 -4z m-433 -146 c10 -6 19 -17 19 -25 0 -11 13 -15 50 -15 45 0 50
-2 50 -22 0 -17 -11 -28 -39 -40 -48 -23 -121 -24 -121 -3 0 11 -7 14 -23 10
-27 -7 -52 16 -43 40 3 8 1 15 -4 15 -6 0 -10 11 -10 25 0 23 3 25 51 25 28 0
59 -5 70 -10z m-5371 -760 c0 -5 -7 -27 -15 -48 -26 -63 -105 -93 -147 -55
-41 37 -9 78 74 99 66 16 88 17 88 4z m8300 -1010 c12 -68 54 -114 116 -126
l34 -6 0 -86 c0 -98 -20 -189 -61 -280 -31 -69 -92 -173 -124 -211 -35 -43
-99 -114 -128 -143 l-28 -29 -40 32 c-21 17 -39 34 -39 37 0 4 -17 25 -38 48
-120 129 -206 311 -232 495 -13 89 -4 139 24 139 52 0 126 78 126 133 0 13 3
26 6 30 4 3 90 5 192 4 l187 -2 5 -35z m-1292 -55 c105 -32 176 -115 189 -223
l6 -53 -104 3 -104 3 -3 27 c-4 38 -55 78 -98 78 -95 0 -150 -69 -161 -200
-10 -121 39 -200 123 -200 43 0 97 39 108 77 l10 32 104 3 c81 2 106 0 110
-11 9 -24 -29 -125 -65 -168 -67 -84 -176 -121 -319 -110 -202 15 -304 151
-291 387 7 134 33 198 112 276 48 47 74 64 116 76 70 21 201 22 267 3z m-538
-7 c0 -51 -75 -516 -90 -562 -44 -130 -107 -171 -265 -171 -87 0 -107 3 -150
25 -41 20 -55 35 -77 79 -28 55 -34 100 -22 174 l7 37 98 0 98 0 -6 -53 c-7
-67 7 -97 46 -97 53 0 53 1 101 315 17 110 33 215 36 233 l6 32 109 0 c77 0
109 -3 109 -12z m1120 -5 c0 -19 -24 -174 -64 -428 -14 -88 -29 -188 -32 -222
-4 -35 -12 -63 -18 -64 -46 -3 -208 -1 -211 3 -5 4 51 396 79 553 8 44 17 101
21 128 l6 47 110 0 c97 0 109 -2 109 -17z m-858 -860 c22 -20 24 -56 3 -73
-13 -11 -13 -15 0 -33 23 -32 20 -77 -5 -77 -11 0 -20 7 -20 15 0 8 -5 26 -12
40 -9 21 -18 25 -42 23 -28 -3 -31 -7 -34 -40 -3 -30 -7 -38 -23 -38 -18 0
-19 8 -19 100 l0 100 67 0 c48 0 72 -5 85 -17z m166 -45 c5 -7 12 -41 14 -74
l4 -62 -65 2 -66 1 -3 32 c-3 33 -2 33 61 47 15 4 27 13 27 21 0 23 -20 28
-40 10 -22 -20 -53 -13 -44 9 10 25 94 36 112 14z m436 -4 c11 -10 16 -34 16
-74 l0 -58 -52 0 c-68 -1 -85 4 -91 28 -7 28 12 47 56 54 22 4 37 13 37 21 0
22 -14 25 -48 13 -37 -14 -55 -2 -28 18 26 19 91 18 110 -2z"/>
<path d="M20010 1462 c0 -28 -57 -89 -101 -109 l-41 -18 5 -51 c7 -66 32 -152
66 -229 44 -99 168 -275 195 -275 20 0 104 109 161 209 58 101 95 217 95 299
0 48 -2 52 -34 67 -46 22 -76 51 -92 91 l-14 34 -120 0 c-108 0 -120 -2 -120
-18z m216 -67 c69 -35 104 -90 104 -167 0 -64 -21 -117 -62 -155 -85 -80 -255
-51 -307 51 -40 81 -20 201 40 245 81 58 145 66 225 26z"/>
<path d="M4617 5996 c-4 -10 -28 -17 -67 -22 l-62 -7 -20 -46 c-19 -46 -33
-104 -41 -176 l-4 -40 74 -3 c84 -3 113 3 113 24 0 8 6 14 13 14 15 0 36 85
44 180 5 61 4 70 -11 70 -9 0 -16 5 -16 10 0 15 -17 12 -23 -4z"/>
<path d="M3526 5673 c-10 -3 -48 -29 -84 -59 -143 -117 -316 -134 -488 -48
l-71 36 -104 -21 c-108 -21 -298 -51 -359 -56 -19 -2 -37 -5 -40 -6 -3 -1 -9
-3 -15 -4 -13 -3 -41 -13 -92 -36 -168 -74 -167 -74 -222 -89 -24 -6 -53 -20
-64 -31 -11 -10 -29 -19 -40 -19 -10 0 -26 -4 -35 -9 -27 -15 -158 -39 -277
-52 -125 -13 -164 -16 -360 -23 -161 -6 -174 -8 -197 -21 -19 -11 -145 -256
-232 -450 -32 -71 -68 -152 -81 -180 -38 -80 -112 -266 -124 -310 -13 -47 -14
-75 -3 -59 4 6 21 14 37 18 17 4 41 10 55 13 14 3 32 11 40 18 22 17 93 36
158 41 31 3 60 8 66 13 6 5 36 11 66 15 64 9 135 24 170 39 14 5 36 11 50 13
79 9 152 28 157 40 3 9 20 14 44 14 43 0 177 61 232 105 61 48 94 66 201 107
45 17 83 34 86 37 6 8 28 13 61 16 40 4 99 28 99 40 0 5 9 15 19 20 10 6 40
23 67 40 84 51 197 65 364 44 80 -10 88 -10 120 10 19 11 49 27 65 34 30 14
85 76 85 96 0 6 4 11 9 11 4 0 20 17 33 38 19 27 38 42 69 52 24 8 46 17 49
21 9 12 133 41 193 45 32 2 63 7 69 10 5 4 44 8 87 10 42 3 83 7 91 11 8 4 29
8 45 9 78 5 154 15 229 30 102 21 238 83 263 120 27 41 38 109 35 205 l-3 87
-34 4 c-25 3 -39 -1 -51 -16 -16 -19 -17 -19 -30 -1 -7 10 -12 21 -9 24 2 4
-5 8 -16 8 -10 1 -19 -2 -19 -8 0 -5 -6 -9 -13 -9 -13 0 -30 -39 -42 -97 l-7
-33 -95 0 -96 0 6 47 c5 47 -8 103 -24 103 -5 0 -9 -5 -9 -12 0 -9 -3 -9 -12
0 -12 12 -37 14 -72 5z"/>
<path d="M4425 2978 c-2 -7 -22 -103 -45 -213 -22 -110 -52 -250 -65 -311 -14
-61 -25 -114 -25 -118 0 -3 115 -6 255 -6 l254 0 10 38 c22 77 33 72 -180 72
-176 0 -190 1 -185 18 2 9 12 50 22 90 l17 72 172 0 172 0 7 38 c12 78 25 72
-159 72 -187 0 -174 -8 -151 90 l12 55 176 3 175 2 11 39 c23 76 40 71 -228
71 -184 0 -242 -3 -245 -12z"/>
<path d="M7011 2688 c-35 -167 -66 -316 -69 -332 l-5 -28 214 4 c233 5 263 11
316 61 50 47 68 96 64 174 -1 28 -47 82 -80 95 l-26 10 25 10 c89 34 129 152
77 229 -42 63 -80 74 -277 77 l-175 3 -64 -303z m374 180 c47 -21 46 -94 -2
-125 -19 -13 -53 -19 -126 -21 l-100 -4 6 43 c4 24 11 61 17 82 l11 37 84 0
c46 0 96 -5 110 -12z m-4 -287 c27 -33 24 -65 -10 -103 l-29 -33 -125 -3 -125
-4 14 64 c8 34 17 74 20 86 5 23 6 24 120 20 108 -3 117 -5 135 -27z"/>
<path d="M9056 2973 c-3 -10 -32 -148 -65 -308 -34 -159 -63 -300 -66 -313 -5
-22 -4 -23 62 -20 l68 3 31 145 30 145 127 3 c98 2 127 0 127 -10 0 -7 -9 -49
-19 -93 -10 -44 -22 -98 -25 -120 -4 -22 -9 -48 -12 -58 -5 -16 1 -18 63 -15
l68 3 67 315 c37 173 67 321 67 328 1 8 -18 12 -64 12 -44 0 -67 -4 -69 -12
-3 -7 -14 -64 -27 -125 l-22 -113 -129 0 c-128 0 -128 0 -123 23 15 69 45 212
45 219 0 4 -29 8 -64 8 -53 0 -66 -3 -70 -17z"/>
<path d="M11615 2968 c-3 -13 -14 -65 -25 -117 -11 -52 -22 -96 -25 -99 -3 -3
-15 5 -27 17 -63 68 -182 66 -253 -5 -111 -111 -129 -328 -34 -408 55 -46 136
-46 204 0 l38 25 -5 -26 c-5 -26 -5 -26 56 -23 l61 3 17 80 c9 44 41 191 71
328 l54 247 -63 0 c-58 0 -64 -2 -69 -22z m-134 -258 c53 -29 63 -134 20 -217
-24 -49 -59 -73 -105 -73 -82 0 -113 112 -60 218 35 71 93 100 145 72z"/>
<path d="M2183 2811 c-18 -5 -44 -16 -57 -24 -27 -18 -76 -78 -76 -94 0 -6 25
-13 56 -17 52 -6 58 -4 80 19 47 51 145 22 130 -38 -7 -31 -19 -35 -128 -47
-96 -10 -138 -27 -172 -73 -25 -34 -28 -110 -7 -151 19 -35 70 -66 109 -66 36
0 110 27 132 49 13 12 15 11 20 -10 5 -22 12 -24 66 -27 l61 -3 -4 48 c-3 30
5 90 21 162 14 62 26 127 26 143 0 44 -26 91 -62 112 -35 21 -143 30 -195 17z
m107 -270 c0 -21 -25 -76 -43 -94 -29 -29 -97 -34 -120 -9 -46 50 19 99 146
109 9 1 17 -2 17 -6z"/>
<path d="M3192 2802 c-28 -11 -61 -27 -71 -36 -64 -58 -107 -177 -94 -261 20
-133 136 -208 272 -175 50 12 121 63 142 102 13 25 12 26 -47 37 -45 9 -50 7
-82 -20 -45 -40 -98 -40 -135 -1 -16 16 -27 39 -27 55 l0 27 163 2 162 3 -1
75 c0 91 -22 142 -75 177 -52 34 -136 40 -207 15z m143 -107 c16 -15 25 -36
25 -55 l0 -30 -101 0 c-99 0 -100 0 -94 23 4 12 22 37 41 55 43 41 93 44 129
7z"/>
<path d="M3740 2811 c-43 -14 -104 -48 -127 -73 -94 -101 -99 -305 -8 -376 81
-64 214 -51 298 27 40 36 62 80 48 94 -6 6 -11 8 -11 5 0 -3 -21 -2 -46 3 -44
8 -46 8 -83 -31 -27 -29 -46 -40 -67 -40 -67 0 -93 54 -73 151 19 93 69 149
131 149 32 0 66 -26 70 -53 3 -20 7 -22 63 -18 33 2 62 5 64 7 9 9 -32 93 -57
116 -43 41 -136 59 -202 39z"/>
<path d="M5077 2806 c-82 -22 -136 -92 -123 -160 9 -48 43 -80 112 -105 115
-42 134 -53 134 -76 0 -26 -36 -45 -85 -45 -48 0 -78 14 -94 44 -15 28 -16 28
-112 10 -34 -6 -29 -28 17 -82 40 -47 103 -72 179 -72 138 0 225 67 225 173 0
39 -5 49 -34 75 -20 17 -69 41 -118 57 -111 37 -124 48 -92 79 25 26 106 21
141 -8 28 -24 39 -25 111 -10 33 7 28 38 -13 78 -55 55 -144 70 -248 42z"/>
<path d="M5590 2809 c-82 -25 -138 -97 -126 -162 12 -63 35 -79 219 -146 33
-13 36 -44 5 -65 -46 -32 -149 -11 -163 34 -6 17 -12 20 -43 15 -90 -15 -90
-15 -84 -37 10 -40 85 -104 134 -116 166 -42 308 31 308 158 0 62 -42 99 -150
135 -94 30 -114 43 -104 68 13 36 120 34 159 -3 20 -19 27 -19 73 -9 29 6 52
15 52 20 0 24 -33 69 -65 89 -41 25 -159 36 -215 19z"/>
<path d="M6355 2806 c-34 -10 -61 -26 -87 -55 -53 -56 -50 -67 20 -74 49 -4
59 -2 73 15 10 13 32 22 61 25 41 5 48 3 62 -19 13 -19 14 -32 7 -51 -9 -23
-17 -26 -78 -32 -122 -11 -168 -24 -196 -53 -50 -52 -59 -109 -27 -171 39 -78
158 -94 231 -30 l24 21 5 -24 c5 -21 12 -23 67 -26 l62 -3 -5 48 c-4 32 3 87
20 165 31 138 32 170 9 209 -34 57 -149 83 -248 55z m115 -266 c0 -5 -7 -28
-16 -50 -25 -63 -103 -92 -146 -53 -41 37 -9 78 74 99 66 16 88 17 88 4z"/>
<path d="M7806 2809 c-115 -27 -187 -130 -188 -269 -2 -148 111 -240 262 -215
60 10 179 110 157 131 -4 4 -28 10 -54 14 -44 7 -51 5 -81 -21 -66 -58 -162
-21 -162 61 0 18 10 20 163 22 l162 3 3 45 c13 174 -95 268 -262 229z m119
-114 c16 -15 25 -36 25 -55 l0 -30 -101 0 c-100 0 -100 0 -93 23 25 79 118
114 169 62z"/>
<path d="M8430 2813 c-13 -3 -44 -19 -68 -35 l-44 -30 7 31 7 31 -61 0 c-48 0
-61 -3 -65 -17 -5 -18 -96 -452 -96 -459 0 -2 28 -4 63 -4 l64 0 27 133 c15
72 37 150 49 172 37 67 121 107 155 73 18 -18 14 -60 -22 -225 l-33 -153 64 0
c57 0 63 2 68 23 75 336 79 377 38 425 -23 27 -36 33 -78 37 -27 2 -61 1 -75
-2z"/>
<path d="M9783 2811 c-18 -5 -44 -16 -57 -24 -27 -18 -76 -78 -76 -94 0 -6 25
-13 56 -17 52 -6 58 -4 80 19 47 51 145 22 130 -38 -7 -31 -19 -35 -128 -47
-96 -10 -138 -27 -172 -73 -25 -34 -28 -110 -7 -151 19 -35 70 -66 109 -66 36
0 110 27 132 49 13 12 15 11 20 -10 5 -22 12 -24 66 -27 l61 -3 -4 48 c-3 30
5 90 21 162 14 62 26 127 26 143 0 44 -26 91 -62 112 -35 21 -143 30 -195 17z
m107 -268 c0 -3 -5 -22 -11 -42 -20 -66 -107 -104 -151 -64 -41 36 -9 79 73
97 61 14 89 17 89 9z"/>
<path d="M10391 2810 c-13 -6 -36 -19 -52 -31 l-29 -20 0 25 c0 25 -2 26 -59
26 l-58 0 -17 -82 c-10 -46 -32 -154 -50 -240 l-32 -158 63 0 c57 0 63 2 68
23 2 12 16 76 31 142 14 66 35 137 45 157 28 55 97 86 127 56 18 -18 15 -54
-18 -208 -16 -77 -30 -148 -30 -156 0 -12 12 -14 62 -12 l62 3 27 130 c26 127
45 184 71 216 31 38 95 51 118 24 10 -12 5 -47 -24 -184 -20 -93 -36 -174 -36
-180 0 -7 24 -11 65 -11 54 0 65 3 65 17 0 9 16 93 37 188 39 184 39 210 -1
250 -49 49 -153 41 -216 -16 l-32 -30 -32 37 c-27 31 -39 37 -81 40 -28 2 -61
-1 -74 -6z"/>
<path d="M2532 2793 c3 -10 24 -118 49 -240 l43 -223 56 0 55 0 41 68 c23 37
72 117 109 177 89 144 135 222 135 229 0 13 -139 6 -142 -6 -5 -20 -162 -297
-169 -298 -3 0 -16 70 -29 155 l-24 155 -64 0 c-56 0 -64 -2 -60 -17z"/>
<path d="M6010 2790 c0 -10 -18 -104 -40 -207 -23 -103 -44 -203 -47 -220 l-6
-33 62 0 c40 0 63 4 66 13 6 15 95 445 95 458 0 5 -29 9 -65 9 -58 0 -65 -2
-65 -20z"/>
<path d="M11005 2798 c-5 -15 -86 -400 -93 -440 l-4 -28 63 0 64 0 48 233 c26
127 47 235 47 240 0 13 -120 8 -125 -5z"/>
<path d="M5000 1962 c0 -7 -91 -445 -105 -509 -5 -20 -1 -23 28 -23 l33 0 17
83 c9 45 32 159 52 252 19 94 35 178 35 188 0 12 -8 17 -30 17 -16 0 -30 -4
-30 -8z"/>
<path d="M8361 1948 c-54 -28 -79 -60 -88 -111 -5 -36 -5 -37 24 -37 25 0 33
6 43 30 27 66 102 90 153 50 53 -42 38 -114 -37 -173 -22 -18 -71 -57 -108
-87 -72 -57 -115 -112 -125 -160 l-6 -31 159 3 159 3 3 33 3 32 -116 0 c-112
0 -115 1 -105 20 6 11 47 48 93 82 115 88 136 108 158 150 69 136 -73 268
-210 196z"/>
<path d="M8888 1952 c-21 -28 -89 -78 -141 -103 -43 -21 -54 -37 -45 -66 3
-11 25 -5 83 22 27 13 51 22 53 20 4 -3 -62 -338 -74 -377 -4 -15 1 -18 30
-18 26 0 36 4 36 16 0 8 16 88 35 177 19 89 42 196 51 237 8 41 18 83 20 93 7
23 -30 23 -48 -1z"/>
<path d="M9402 1949 c-28 -14 -51 -36 -68 -66 -15 -24 -24 -46 -22 -48 2 -3
19 -8 36 -11 25 -5 32 -3 32 9 0 8 14 27 31 41 59 50 149 21 149 -49 0 -41
-26 -62 -91 -73 -40 -7 -44 -10 -47 -38 -3 -29 -1 -32 37 -38 73 -11 96 -88
44 -146 -50 -56 -153 -50 -176 10 -9 25 -17 30 -44 30 -31 0 -33 -2 -27 -27
31 -138 229 -166 310 -44 40 61 43 125 9 175 l-27 39 31 24 c54 43 63 131 17
182 -47 53 -124 65 -194 30z"/>
<path d="M9860 1963 c-96 -40 -173 -195 -174 -353 0 -151 92 -227 208 -171 89
44 145 161 153 321 5 106 -8 146 -58 183 -27 20 -102 31 -129 20z m107 -89
c24 -24 25 -30 21 -97 -8 -114 -35 -193 -83 -244 -50 -52 -91 -58 -130 -18
-21 20 -25 34 -25 82 0 113 51 252 104 284 43 26 82 24 113 -7z"/>
<path d="M10176 1958 c-6 -19 -106 -512 -106 -520 0 -5 13 -8 30 -8 23 0 31 5
35 23 3 12 14 64 25 116 11 52 28 111 38 130 25 49 77 83 121 79 57 -5 59 -21
28 -175 -16 -76 -31 -146 -33 -155 -4 -15 1 -18 28 -18 l34 0 24 113 c37 179
39 199 24 235 -24 60 -113 68 -180 17 -19 -15 -37 -25 -39 -23 -2 2 5 44 16
93 10 49 19 93 19 97 0 13 -60 9 -64 -4z"/>
<path d="M7278 1939 c-15 -11 -29 -34 -33 -52 -12 -61 -16 -67 -40 -67 -21 0
-35 -17 -35 -41 0 -5 12 -9 26 -9 19 0 24 -4 20 -17 -2 -10 -17 -79 -31 -153
l-27 -134 27 -24 c37 -31 98 -28 103 6 3 18 -1 22 -22 22 -14 0 -28 5 -31 10
-4 6 6 74 21 150 l28 140 32 0 c20 0 34 6 38 16 11 28 6 34 -25 34 -34 0 -34
1 -13 108 7 37 0 39 -38 11z"/>
<path d="M2104 1816 c-42 -18 -64 -52 -64 -98 0 -46 29 -80 89 -102 70 -27
101 -53 101 -85 0 -37 -20 -52 -73 -58 -55 -5 -89 14 -103 57 -10 31 -15 35
-40 32 -38 -5 -39 -6 -26 -49 30 -99 198 -125 277 -43 21 22 28 39 28 70 0 54
-28 82 -120 125 -61 28 -73 38 -73 58 0 33 30 57 72 57 42 0 88 -32 88 -62 0
-14 5 -18 16 -14 9 3 22 6 30 6 25 0 15 47 -15 78 -43 43 -125 55 -187 28z"/>
<path d="M2975 1821 c-11 -5 -29 -18 -39 -30 -26 -28 -38 -27 -30 5 6 23 4 25
-21 22 -28 -3 -28 -5 -66 -178 -47 -215 -47 -210 -10 -210 28 0 29 1 51 108
12 59 31 127 41 151 32 72 94 112 127 79 8 -8 14 -4 22 17 8 22 8 30 -2 37
-16 10 -47 9 -73 -1z"/>
<path d="M3385 1823 c-40 -11 -98 -67 -123 -121 -21 -46 -24 -65 -20 -122 6
-78 25 -110 80 -136 43 -19 100 -14 129 12 27 24 32 14 18 -39 -14 -58 -37
-78 -92 -84 -51 -6 -87 9 -87 37 0 13 -7 20 -19 20 -11 0 -26 3 -35 6 -24 9
-21 -37 4 -69 56 -71 220 -56 269 24 11 18 31 82 45 143 28 128 66 308 66 319
0 4 -13 7 -29 7 -24 0 -29 -5 -35 -32 l-6 -32 -16 23 c-28 40 -91 58 -149 44z
m88 -54 c55 -25 67 -121 27 -205 -54 -110 -173 -110 -194 0 -10 54 18 142 59
183 35 35 66 41 108 22z"/>
<path d="M3800 1819 c-109 -44 -173 -202 -126 -313 38 -92 179 -113 267 -39
77 65 106 219 56 294 -40 60 -128 85 -197 58z m127 -63 c26 -22 28 -30 28 -93
-1 -81 -29 -143 -78 -173 -91 -56 -170 11 -152 128 20 132 125 204 202 138z"/>
<path d="M4200 1808 c-133 -72 -166 -291 -54 -365 19 -12 47 -18 90 -18 53 0
68 4 106 30 65 46 97 113 98 200 0 111 -42 162 -142 171 -43 5 -61 1 -98 -18z
m147 -52 c26 -22 28 -30 28 -93 -1 -50 -7 -79 -23 -111 -49 -94 -156 -111
-197 -32 -31 59 -6 168 51 225 44 44 97 48 141 11z"/>
<path d="M4623 1811 c-46 -21 -95 -81 -114 -138 -18 -56 -6 -159 22 -190 52
-55 109 -66 173 -34 l37 19 -6 -31 c-16 -76 -49 -107 -113 -107 -44 0 -72 16
-72 40 0 11 -6 20 -12 20 -7 0 -23 3 -35 6 -20 5 -23 2 -23 -21 0 -40 47 -82
103 -90 93 -14 165 18 197 87 15 33 100 408 100 441 0 4 -13 7 -29 7 -24 0
-29 -5 -35 -32 l-6 -32 -16 23 c-18 26 -71 51 -106 51 -13 0 -42 -9 -65 -19z
m125 -51 c66 -55 35 -222 -48 -265 -95 -49 -161 37 -125 162 31 105 113 154
173 103z"/>
<path d="M5229 1820 c-45 -13 -86 -50 -116 -104 -24 -43 -28 -62 -28 -126 0
-90 16 -119 82 -151 77 -37 178 -7 224 67 24 39 24 39 -13 48 -22 5 -30 1 -44
-23 -19 -31 -71 -61 -108 -61 -13 0 -33 8 -45 18 -20 17 -42 86 -34 110 4 9
42 12 149 12 l144 0 0 48 c0 123 -96 197 -211 162z m115 -62 c14 -13 28 -39
32 -60 l6 -38 -112 0 c-111 0 -111 0 -104 23 26 84 122 124 178 75z"/>
<path d="M5900 1819 c-14 -6 -38 -22 -54 -37 l-28 -27 7 33 c7 33 6 33 -27 30
-33 -3 -33 -3 -49 -83 -9 -44 -26 -127 -38 -184 -11 -57 -21 -107 -21 -112 0
-5 13 -9 29 -9 34 0 31 -7 62 143 12 62 31 122 43 140 29 43 84 72 119 63 35
-8 35 -33 2 -196 -14 -68 -25 -129 -25 -136 0 -9 11 -14 30 -14 17 0 30 2 30
5 0 28 55 256 67 275 19 33 73 70 100 70 62 0 65 -18 28 -195 -32 -155 -32
-155 4 -155 28 0 30 3 45 73 8 39 23 114 33 165 17 91 17 92 -4 120 -39 53
-117 55 -175 3 l-32 -28 -32 33 c-33 36 -65 42 -114 23z"/>
<path d="M6475 1819 c-39 -11 -91 -61 -117 -113 -30 -59 -35 -161 -10 -206 22
-41 84 -80 127 -80 70 0 144 41 173 97 16 29 16 30 -13 37 -21 5 -33 -2 -68
-39 -36 -37 -50 -45 -79 -45 -20 0 -46 8 -58 18 -21 17 -41 84 -32 110 3 9 42
12 142 12 157 0 158 1 146 84 -16 107 -101 157 -211 125z m119 -61 c14 -13 28
-39 32 -60 l6 -38 -111 0 c-76 0 -111 4 -111 11 0 22 42 79 68 94 40 21 87 18
116 -7z"/>
<path d="M6895 1819 c-47 -13 -92 -59 -121 -123 -33 -72 -32 -163 4 -213 64
-91 212 -78 282 24 26 37 26 38 -12 47 -22 5 -30 1 -44 -23 -34 -57 -107 -78
-151 -43 -21 16 -47 97 -37 114 3 4 68 8 144 8 157 0 158 1 146 84 -16 107
-101 157 -211 125z m119 -61 c14 -13 28 -39 32 -60 l6 -38 -112 0 c-98 0 -111
2 -106 16 3 9 6 19 6 22 0 11 43 58 65 70 33 19 82 14 109 -10z"/>
<path d="M7712 1817 c-34 -11 -92 -68 -92 -91 0 -19 53 -32 59 -14 2 7 17 25
32 40 22 22 37 28 71 28 59 0 88 -22 88 -65 0 -44 -14 -51 -115 -58 -96 -6
-149 -28 -166 -70 -27 -65 -8 -126 46 -152 46 -21 84 -19 141 10 27 14 50 25
50 25 1 0 4 -9 7 -20 4 -15 14 -20 37 -20 30 0 31 2 25 29 -3 15 3 72 15 126
27 132 26 176 -3 203 -42 40 -124 52 -195 29z m119 -261 c-33 -75 -115 -108
-169 -70 -18 12 -22 24 -20 51 4 51 36 70 128 80 87 9 91 6 61 -61z"/>
<path d="M2435 1798 c-3 -13 -16 -72 -30 -131 -34 -150 -33 -188 6 -221 48
-40 116 -32 172 22 28 26 31 25 27 -16 -1 -20 2 -23 26 -20 28 3 29 4 66 173
20 94 40 180 43 193 5 20 2 22 -28 22 l-34 0 -28 -130 c-24 -113 -32 -135 -62
-169 -47 -55 -130 -69 -147 -25 -3 8 8 81 24 161 17 80 30 149 30 154 0 5 -13
9 -30 9 -23 0 -31 -5 -35 -22z"/>
</g>
</svg>
