<?xml version="1.0" standalone="no"?>
<!DOCTYPE svg PUBLIC "-//W3C//DTD SVG 20010904//EN"
 "http://www.w3.org/TR/2001/REC-SVG-20010904/DTD/svg10.dtd">
<svg version="1.0" xmlns="http://www.w3.org/2000/svg"
 width="2048.000000pt" height="1068.000000pt" viewBox="0 0 2048.000000 1068.000000"
 preserveAspectRatio="xMidYMid meet">
<metadata>
Created by potrace 1.16, written by Peter Selinger 2001-2019
</metadata>
<g transform="translate(0.000000,1068.000000) scale(0.100000,-0.100000)"
fill="#000000" stroke="none">
<path d="M0 5333 l0 -5333 1630 0 1630 0 -2 3098 -3 3097 -225 0 c-196 1 -237
4 -315 23 -125 30 -182 48 -166 53 8 3 -1 5 -20 6 -19 1 -52 9 -74 19 -34 14
-37 18 -21 24 25 9 4 24 -22 15 -20 -6 -81 19 -147 60 -22 14 -50 30 -62 37
-13 6 -23 15 -23 20 0 4 -7 8 -16 8 -10 0 -14 6 -11 14 4 10 1 13 -9 9 -17 -6
-19 13 -1 21 6 4 1 4 -12 2 -21 -4 -40 11 -116 87 -147 149 -274 333 -261 380
3 11 -3 37 -13 58 -10 21 -16 49 -14 62 3 14 0 28 -6 31 -17 11 -5 -79 13
-106 20 -27 21 -44 3 -29 -8 6 -19 30 -26 53 -6 24 -16 53 -21 66 -6 12 -14
32 -20 45 -19 45 -43 225 -44 332 -1 133 35 357 64 400 4 6 10 23 14 38 6 26
49 118 93 199 28 50 119 173 168 225 26 28 47 41 60 39 11 -2 14 -1 8 1 -7 3
-13 7 -13 11 0 12 53 52 61 46 5 -3 7 1 4 8 -2 7 10 24 26 37 26 20 33 22 41
10 8 -11 9 -11 5 3 -7 21 43 58 177 127 32 17 62 31 68 31 5 0 16 6 24 14 8 8
40 22 72 32 31 10 59 18 62 19 3 1 19 5 35 10 17 4 35 11 40 15 6 5 30 11 55
13 25 3 68 10 95 15 126 25 327 24 485 -2 82 -14 121 -24 220 -56 96 -31 114
-40 112 -56 -3 -14 -1 -16 10 -7 10 9 29 4 83 -24 39 -19 82 -44 97 -54 14
-11 29 -19 33 -19 29 0 255 -219 255 -247 0 -14 2 -15 9 -4 7 11 11 10 20 -6
9 -17 8 -20 -7 -19 -11 1 -17 -7 -18 -22 -1 -18 -1 -19 3 -2 5 22 23 28 23 8
0 -9 4 -8 10 2 11 17 8 20 71 -75 71 -108 111 -187 106 -213 -3 -14 0 -21 7
-19 6 2 16 -9 21 -25 l10 -28 3078 -3 3077 -2 0 615 c0 606 -1 614 -19 575
-39 -86 -124 -125 -269 -125 -121 0 -186 20 -238 75 -60 62 -66 93 -71 393
l-5 262 83 0 84 0 0 -259 c0 -247 1 -261 21 -288 45 -62 125 -79 201 -42 34
16 45 28 53 57 5 21 10 147 10 285 l0 247 75 0 75 0 -2 483 -3 482 -5242 0
-5243 0 0 -5332z m1291 5197 c75 -14 184 -57 249 -98 62 -38 180 -150 180
-169 0 -7 4 -13 9 -13 5 0 12 -8 15 -17 3 -10 13 -29 21 -43 10 -17 13 -38 9
-67 -5 -31 -2 -48 11 -65 l17 -23 -6 23 c-3 12 -9 31 -12 42 -11 36 12 21 26
-17 9 -26 14 -80 13 -168 0 -122 -2 -135 -32 -208 -36 -91 -72 -146 -135 -209
-56 -55 -136 -113 -136 -99 0 6 -8 11 -17 11 -14 0 -15 -2 -5 -9 10 -6 -1 -17
-41 -38 -70 -38 -144 -58 -162 -43 -9 8 -14 6 -19 -6 -5 -14 -20 -15 -119 -10
-61 3 -123 8 -137 10 -14 2 -36 4 -50 6 l-25 2 25 8 c22 7 22 8 5 10 -11 1
-29 1 -39 0 -43 -4 -186 77 -252 144 -128 129 -186 262 -188 426 0 52 6 120
13 150 15 60 50 143 63 148 4 2 8 9 8 15 1 18 38 59 48 53 4 -2 14 0 22 6 12
8 12 9 -2 4 -10 -3 -18 -2 -18 2 0 13 77 88 122 118 24 16 45 31 48 34 12 12
71 40 126 61 93 35 261 48 365 29z m4891 -849 c78 -37 161 -143 145 -184 -4
-11 -136 -44 -141 -35 -49 85 -88 111 -166 112 -46 1 -65 -5 -97 -26 -61 -40
-78 -84 -78 -203 0 -143 30 -195 131 -225 79 -24 171 28 196 111 6 22 13 39
15 39 7 0 146 -40 149 -42 1 -2 -8 -30 -21 -63 -33 -81 -105 -149 -183 -171
-127 -37 -289 1 -366 86 -72 80 -81 109 -81 260 0 157 14 199 87 273 75 75
141 97 273 94 70 -2 101 -8 137 -26z m1702 -1 c28 -14 62 -41 77 -60 28 -35
58 -124 47 -135 -3 -4 -40 -9 -82 -12 -60 -5 -76 -3 -76 7 0 28 -45 78 -81 90
-47 16 -119 6 -153 -21 -60 -47 -17 -87 134 -124 143 -35 187 -54 226 -96 76
-82 70 -214 -13 -291 -71 -67 -262 -91 -379 -47 -83 31 -128 77 -154 155 -12
35 -20 69 -18 75 2 7 36 14 80 16 l76 5 7 -31 c15 -71 86 -117 167 -107 86 9
138 55 124 109 -7 30 -50 49 -185 82 -58 14 -124 36 -147 50 -104 61 -126 203
-46 288 57 61 111 77 247 74 84 -2 108 -6 149 -27z m1706 -1 c113 -52 168
-130 192 -269 16 -91 -5 -205 -51 -280 l-30 -49 43 -26 c23 -14 48 -25 54 -25
7 0 12 -5 12 -10 0 -21 -51 -110 -63 -110 -7 0 -47 19 -88 43 -75 43 -77 43
-115 29 -27 -9 -70 -12 -144 -9 -93 3 -112 7 -166 35 -70 35 -123 89 -155 159
-19 41 -23 65 -23 173 -1 119 0 128 28 183 46 90 122 152 221 178 17 4 75 7
130 6 83 -2 109 -7 155 -28z m-2980 -38 c0 -78 -16 -156 -37 -186 -16 -21 -81
-65 -97 -65 -3 0 -13 14 -21 30 -15 30 -15 31 14 48 30 17 51 49 51 77 0 10
-11 15 -35 15 l-35 0 0 70 0 70 80 0 80 0 0 -59z m710 -1 l0 -60 -202 -2 -203
-3 -3 -72 -3 -73 188 -2 188 -3 3 -62 3 -63 -191 0 -191 0 3 -97 3 -98 210 -5
c116 -3 209 -8 208 -12 -2 -5 -3 -30 -3 -58 l0 -50 -290 0 -290 0 0 360 0 360
285 0 285 0 0 -60z m1380 0 l0 -59 -110 -3 -110 -3 -1 -297 -1 -298 -79 0 -79
0 0 300 0 300 -115 0 -115 0 0 60 0 60 305 0 305 0 0 -60z m-6677 -6359 c23
-5 78 -17 122 -26 117 -25 170 -52 167 -85 0 -3 11 -7 26 -8 21 -1 24 0 12 8
-22 14 1 12 33 -2 20 -10 25 -18 21 -33 -4 -15 -3 -17 4 -6 9 12 15 12 41 -1
82 -39 339 -267 326 -288 -3 -5 4 -14 15 -20 15 -8 19 -17 15 -33 -4 -15 -3
-18 3 -9 7 11 18 -1 43 -45 53 -89 65 -115 79 -158 7 -22 16 -44 20 -50 5 -5
18 -55 30 -110 27 -123 37 -298 21 -391 -19 -116 -45 -224 -53 -224 -4 0 -8
-8 -8 -17 0 -28 -107 -234 -141 -273 -17 -19 -38 -44 -45 -55 -13 -17 -16 -18
-25 -5 -8 12 -9 11 -5 -6 8 -26 -25 -67 -47 -58 -12 4 -14 1 -10 -15 6 -22
-12 -29 -21 -8 -3 6 -3 2 0 -10 3 -15 -1 -25 -16 -33 -11 -6 -24 -8 -29 -5
-12 7 -41 -5 -41 -17 0 -6 7 -5 15 2 9 7 18 10 22 6 3 -3 4 -8 2 -9 -99 -81
-327 -205 -363 -198 -4 1 -14 -3 -21 -9 -6 -5 -25 -11 -41 -12 -16 -1 -34 -5
-40 -10 -35 -26 -292 -44 -409 -29 -158 21 -308 64 -390 113 -16 10 -41 23
-55 29 -58 24 -220 148 -177 135 9 -3 17 -1 17 5 0 7 -10 9 -24 5 -19 -5 -33
5 -77 52 -30 31 -70 77 -89 102 -19 24 -43 53 -52 64 -10 11 -18 23 -18 27 0
5 -13 30 -29 57 -16 27 -43 89 -61 138 -18 49 -36 97 -41 106 -12 23 -39 235
-39 303 0 62 28 255 40 270 4 6 10 24 14 40 4 17 15 50 24 75 l17 45 7 -30 c7
-28 7 -28 3 5 -7 65 82 213 213 354 47 50 160 142 224 182 27 16 48 32 48 37
0 4 5 7 11 7 6 0 39 12 73 26 102 44 131 55 146 58 8 1 49 10 90 19 41 9 89
18 105 20 64 8 278 7 318 -2z"/>
<path d="M1050 10434 c-54 -11 -151 -47 -166 -61 -8 -9 -28 -16 -43 -17 -18
-1 -27 -5 -24 -13 3 -7 1 -13 -4 -13 -13 0 -97 -82 -118 -114 -11 -16 -23 -23
-33 -19 -13 4 -14 3 -3 -5 11 -8 9 -18 -11 -53 -48 -85 -66 -212 -47 -319 6
-36 18 -75 25 -87 8 -12 14 -29 14 -36 0 -23 77 -135 116 -170 43 -38 172
-117 191 -117 7 0 13 -4 13 -9 0 -15 186 -34 258 -27 79 8 216 57 257 92 35
30 40 30 43 -1 1 -19 -2 -23 -16 -18 -9 3 -14 3 -11 -1 11 -12 57 -17 64 -6 3
5 0 10 -8 10 -19 0 -30 27 -14 34 8 3 8 5 -2 5 -7 1 12 29 44 62 104 113 154
259 142 411 -3 36 -15 87 -27 113 -11 25 -18 54 -15 64 7 22 -3 51 -17 51 -6
0 -5 -6 2 -15 6 -8 10 -20 8 -26 -2 -7 -17 9 -32 35 -57 97 -168 183 -296 228
-54 19 -233 33 -290 22z"/>
<path d="M9385 9575 c-5 -2 -22 -6 -37 -9 -42 -9 -95 -62 -115 -114 -11 -30
-18 -74 -18 -122 0 -91 28 -149 90 -191 44 -30 115 -45 142 -31 14 8 10 12
-25 23 -46 13 -47 20 -15 82 16 33 29 31 110 -14 l51 -28 15 23 c36 54 47 158
26 241 -15 60 -74 119 -133 134 -44 11 -71 13 -91 6z"/>
<path d="M1675 3085 c-27 -7 -68 -11 -90 -9 -28 3 -33 2 -16 -4 20 -6 12 -11
-52 -31 -42 -13 -78 -28 -79 -33 -2 -6 -22 -11 -45 -12 -23 0 -37 -4 -31 -7
16 -10 -9 -21 -31 -14 -21 6 -51 -3 -51 -16 0 -6 9 -5 21 1 11 7 23 9 26 6 8
-8 -7 -26 -22 -26 -7 0 -16 -7 -19 -16 -4 -10 -13 -13 -26 -9 -23 7 -58 -9
-42 -19 6 -3 13 -2 17 4 3 5 12 10 18 10 14 0 -43 -49 -58 -50 -13 -1 -75 -75
-75 -89 0 -6 -4 -11 -9 -11 -12 0 -120 -150 -138 -190 -3 -8 -15 -35 -25 -60
-11 -25 -23 -54 -28 -65 -25 -56 -65 -338 -51 -360 3 -5 11 -46 17 -90 13 -92
32 -160 63 -228 13 -29 20 -57 16 -70 -4 -15 -3 -18 3 -9 7 11 15 5 32 -25 13
-21 46 -67 73 -101 28 -37 50 -77 53 -95 4 -31 32 -63 43 -51 3 4 0 9 -6 11
-7 3 -13 11 -13 18 0 7 -6 15 -12 18 -7 2 -10 7 -7 11 4 4 20 -5 36 -21 49
-47 113 -97 151 -117 20 -10 42 -24 49 -31 17 -18 183 -80 263 -99 96 -23 200
-28 314 -15 55 6 111 12 123 13 11 0 19 4 17 7 -2 4 12 10 31 13 48 9 205 76
205 87 0 5 5 9 11 9 11 0 87 50 128 85 180 152 288 342 331 584 23 130 0 397
-41 478 -6 11 -9 27 -6 35 3 8 8 4 15 -12 6 -14 11 -20 11 -13 2 23 -12 43
-28 43 -11 0 -26 19 -42 55 -13 30 -27 55 -31 55 -5 0 -8 5 -8 10 0 15 -80
120 -91 120 -5 0 -9 6 -9 13 0 16 -52 67 -68 67 -7 0 -12 4 -12 10 0 10 -124
103 -177 133 -17 9 -38 17 -47 17 -9 0 -16 4 -16 9 0 5 -34 19 -76 32 -65 20
-73 25 -53 31 17 5 14 6 -11 3 -19 -3 -62 2 -95 10 -73 18 -260 18 -330 0z"/>
<path d="M3130 8580 c42 -5 21 -7 -85 -8 -157 -2 -302 -21 -388 -51 -35 -12
-71 -18 -90 -15 -21 4 -28 3 -19 -4 10 -7 5 -13 -20 -26 -18 -9 -40 -20 -48
-25 -8 -5 -41 -21 -72 -35 -32 -15 -66 -34 -75 -44 -23 -23 -90 -72 -98 -72
-3 0 -19 -13 -34 -29 -20 -21 -35 -28 -50 -24 -12 3 -27 0 -35 -6 -17 -14 -28
-51 -15 -51 5 0 9 8 9 19 0 11 9 21 22 24 29 8 34 2 14 -18 -8 -9 -23 -26 -31
-38 -13 -19 -17 -20 -26 -7 -8 12 -9 10 -4 -6 3 -12 0 -28 -7 -35 -8 -8 -27
-33 -44 -56 -17 -24 -34 -39 -38 -35 -5 4 -6 0 -5 -8 2 -8 -5 -29 -16 -47 -14
-24 -22 -30 -35 -23 -12 7 -16 3 -18 -18 -1 -20 1 -23 8 -12 21 34 18 -1 -5
-54 -56 -126 -68 -197 -69 -391 -1 -185 2 -249 15 -275 4 -8 13 -35 20 -60 35
-122 154 -320 256 -425 58 -60 156 -145 168 -145 3 0 19 -10 35 -22 22 -16 27
-24 18 -31 -9 -6 -8 -7 4 -3 9 3 48 -10 85 -29 204 -102 431 -145 654 -124
122 11 149 20 147 47 -1 9 0 349 0 755 l2 738 396 -2 c217 0 398 1 400 4 7 7
-31 81 -77 149 -22 32 -39 60 -39 63 0 16 -195 197 -257 239 -40 27 -73 53
-73 57 0 5 -6 6 -14 3 -8 -3 -24 4 -35 15 -12 12 -28 21 -37 21 -8 0 -12 4 -9
10 3 6 -1 7 -10 4 -8 -4 -30 1 -48 9 -45 22 -204 67 -234 67 -19 0 -24 4 -21
18 4 15 -3 18 -61 19 l-66 0 55 -7z"/>
<path d="M10928 7615 c-23 -13 -490 -15 -3681 -13 -2011 2 -3653 0 -3650 -4 2
-5 1661 -8 3686 -7 2063 0 3673 4 3662 9 -17 7 -17 9 -2 9 9 1 17 6 17 11 0
12 1 12 -32 -5z"/>
<path d="M3562 3933 c-1 -2003 -5 -3650 -8 -3660 -5 -16 -4 -16 5 -1 8 11 10
1070 8 3660 l-2 3643 -3 -3642z"/>
<path d="M7946 7475 c4 -8 1 -15 -5 -15 -6 0 -11 5 -11 10 0 6 -13 10 -30 10
-19 0 -30 -5 -30 -14 0 -22 -31 -28 -58 -10 -20 13 -29 14 -49 5 -14 -7 -40
-9 -60 -5 -26 5 -40 2 -56 -12 -12 -11 -36 -27 -53 -36 -29 -17 -32 -16 -80 8
-39 20 -60 25 -101 21 -29 -2 -53 -2 -53 1 0 2 10 12 23 23 l22 19 -29 -10
c-44 -16 -87 -42 -121 -73 -16 -15 -40 -30 -52 -33 -13 -4 -23 -11 -23 -18 0
-6 -28 -17 -61 -23 -59 -11 -65 -16 -146 -97 -47 -48 -89 -84 -94 -81 -5 4 -9
1 -9 -5 0 -6 -10 -14 -23 -19 -12 -5 -28 -22 -36 -37 -7 -16 -17 -36 -21 -44
-9 -19 -69 -52 -81 -45 -15 10 -49 -82 -49 -131 0 -40 -2 -44 -25 -44 -14 0
-25 -3 -25 -7 0 -5 -11 -21 -25 -37 -19 -22 -28 -26 -38 -18 -11 9 -14 6 -14
-18 0 -17 -9 -40 -20 -53 -16 -16 -23 -42 -28 -100 -7 -70 -10 -79 -36 -98
-16 -11 -33 -17 -39 -14 -5 3 -10 -1 -10 -9 0 -9 -6 -16 -14 -16 -7 0 -19 -7
-27 -16 -7 -8 -30 -24 -52 -35 -21 -11 -37 -23 -34 -25 3 -3 17 2 31 11 14 9
30 14 36 10 15 -9 12 -32 -5 -39 -8 -3 -15 -16 -15 -28 1 -22 1 -22 16 4 15
28 44 29 44 2 0 -8 7 -17 15 -20 20 -8 19 -21 -2 -28 -10 -3 7 -3 37 -1 30 2
50 2 44 -1 -6 -2 -9 -17 -7 -32 l5 -27 -21 25 c-20 25 -21 25 -21 3 0 -12 5
-25 10 -28 6 -3 10 -17 10 -30 0 -19 4 -23 21 -20 12 3 24 7 27 10 7 7 30 -38
24 -48 -2 -4 -15 -1 -28 8 -22 14 -25 14 -30 0 -3 -8 -12 -15 -19 -15 -7 0
-16 -12 -19 -26 -8 -30 0 -46 10 -20 7 19 44 22 44 4 0 -10 2 -10 8 -1 4 6 22
11 40 11 18 -1 28 -4 22 -8 -7 -4 -1 -14 17 -25 15 -10 22 -12 16 -4 -16 16
-17 39 -2 39 16 0 39 -27 39 -46 0 -10 3 -14 7 -11 12 12 33 -15 33 -42 l-1
-26 -15 28 c-24 45 -28 24 -4 -23 20 -40 19 -74 -1 -37 -14 25 -29 21 -29 -8
0 -20 5 -25 25 -25 18 0 25 -5 25 -20 0 -11 7 -20 15 -20 11 0 14 -10 11 -42
-2 -24 -4 -50 -5 -59 -1 -12 -9 -16 -33 -13 l-33 3 28 -20 c18 -14 27 -30 27
-49 0 -15 6 -33 14 -39 7 -6 16 -29 20 -51 3 -22 11 -40 16 -40 13 0 13 31 0
65 -9 23 -8 26 6 21 8 -3 22 -6 30 -6 8 0 14 -9 14 -20 0 -11 6 -20 14 -20 7
0 19 -12 25 -28 12 -29 11 -102 -1 -102 -5 0 -8 4 -8 10 0 5 -6 7 -14 4 -8 -3
-11 -15 -8 -30 3 -18 11 -24 29 -24 15 0 23 -5 20 -12 -2 -7 -12 -12 -21 -12
-9 1 -16 -2 -16 -7 0 -5 5 -9 10 -9 6 0 10 -7 10 -15 0 -10 -10 -15 -30 -15
-16 0 -30 5 -30 10 0 6 -7 10 -15 10 -8 0 -15 -4 -15 -10 0 -5 7 -10 15 -10 8
0 15 -7 15 -15 0 -8 -6 -15 -12 -15 -9 0 -8 -3 2 -10 12 -8 12 -10 -3 -16 -9
-3 -17 -10 -17 -15 0 -14 26 -10 40 6 18 22 69 45 76 34 3 -5 0 -9 -5 -9 -6 0
-11 -13 -11 -30 0 -16 5 -30 10 -30 6 0 10 -13 10 -29 0 -17 5 -33 11 -36 6
-4 8 -13 5 -21 -3 -8 3 -22 14 -31 11 -10 20 -24 20 -33 0 -8 5 -32 11 -53 8
-31 14 -37 30 -32 13 4 19 2 19 -9 0 -9 7 -16 15 -16 19 0 19 39 0 64 -15 20
-15 20 -16 0 0 -10 -3 -14 -5 -7 -3 7 -1 20 4 29 11 20 -2 75 -26 113 -10 14
-22 50 -28 80 -10 50 -9 57 6 68 20 14 16 58 -7 85 -13 14 -12 19 6 37 l21 21
-25 22 c-21 18 -25 31 -25 74 0 29 4 54 9 56 12 4 16 77 6 102 -5 10 -4 26 3
36 6 10 7 22 1 31 -6 10 -9 10 -9 2 0 -7 -4 -13 -10 -13 -5 0 -10 19 -10 43 0
23 -3 59 -6 80 -6 31 -11 37 -30 37 -21 0 -24 5 -24 39 0 22 5 41 10 43 6 2
11 21 11 43 1 69 21 102 69 110 44 8 58 17 53 35 -6 22 -33 28 -33 6 0 -9 -17
-15 -47 -19 -27 -3 -50 -4 -52 -2 -7 7 54 54 70 55 10 0 16 7 15 17 0 10 9 19
24 23 17 4 27 15 31 35 4 17 7 23 8 14 1 -12 8 -15 29 -11 15 3 21 7 15 9 -28
10 -11 83 18 83 14 0 19 7 19 25 0 27 -15 34 -24 10 -9 -25 -36 -18 -36 9 0
13 -6 27 -12 29 -8 3 -6 6 5 6 9 1 17 6 17 11 0 6 7 10 15 10 8 0 15 9 15 19
0 29 11 52 22 45 6 -4 9 11 8 37 -3 47 6 75 45 151 14 26 25 53 25 59 0 7 7
17 15 23 9 6 16 25 18 41 2 30 15 41 82 65 17 7 25 14 18 18 -16 10 25 56 65
72 23 9 56 11 113 6 96 -9 159 4 242 51 33 18 64 30 70 26 20 -12 92 -3 104
14 17 22 50 26 57 7 5 -12 1 -14 -15 -9 -15 5 -19 4 -15 -4 4 -6 15 -11 25
-11 10 0 24 -7 31 -15 8 -10 31 -15 66 -15 29 0 65 -5 80 -10 47 -18 102 -69
109 -100 4 -17 13 -30 21 -30 8 0 14 -7 14 -15 0 -9 7 -18 15 -21 14 -6 13 -8
-2 -20 -16 -12 -16 -15 -3 -23 11 -8 17 -6 21 6 4 11 8 13 13 5 3 -6 1 -20 -6
-31 -10 -16 -9 -25 1 -45 8 -14 17 -24 20 -24 19 5 51 -16 51 -34 0 -17 2 -19
16 -7 13 11 14 9 9 -14 -8 -31 2 -80 14 -73 5 3 12 -14 16 -39 3 -25 10 -43
14 -41 8 6 6 -34 -7 -119 -5 -33 -7 -65 -5 -72 3 -7 0 -20 -7 -28 -6 -8 -9
-18 -6 -24 3 -5 -2 -12 -11 -15 -16 -6 -32 8 -33 29 0 6 -4 4 -8 -2 -8 -12
-23 -10 -148 28 -56 17 -205 11 -251 -11 -24 -10 -43 -23 -43 -28 0 -11 -109
-15 -155 -6 -24 4 -31 11 -31 27 1 15 -6 22 -19 24 -62 6 -99 15 -109 26 -6 7
-20 20 -30 27 -18 14 -19 13 -13 -2 4 -12 2 -18 -7 -18 -8 0 -16 5 -18 12 -4
10 -14 9 -47 -2 -32 -10 -47 -11 -61 -3 -10 7 -28 9 -40 6 -11 -3 -33 0 -46 8
-22 11 -32 11 -74 -4 -26 -9 -55 -17 -64 -17 -8 0 -13 -6 -10 -13 2 -7 -7 -19
-20 -27 -33 -17 -23 -32 12 -19 14 6 67 11 117 11 111 2 232 -30 274 -73 16
-15 34 -29 42 -30 22 -5 72 11 91 28 14 12 32 15 83 10 37 -2 69 -8 72 -11 3
-3 -2 -15 -12 -26 -10 -11 -14 -20 -9 -20 5 0 15 -9 21 -19 12 -18 10 -19 -35
-15 -69 6 -132 -5 -132 -23 0 -12 -3 -13 -14 -4 -21 17 -31 -17 -11 -39 14
-16 14 -18 0 -23 -10 -5 -15 -20 -15 -52 0 -31 -6 -51 -19 -64 -11 -11 -17
-22 -13 -25 3 -4 -4 -20 -16 -36 -40 -54 -23 -69 21 -19 17 20 29 47 33 80 4
27 11 49 16 49 5 0 6 4 3 10 -3 5 2 21 11 35 9 14 14 31 11 39 -7 19 44 46 85
46 34 0 78 -26 78 -47 0 -8 4 -12 9 -9 5 4 7 -2 4 -12 -2 -10 3 -49 11 -86 9
-37 16 -78 16 -91 0 -13 8 -40 18 -59 17 -35 32 -47 32 -25 0 5 4 8 9 5 13 -8
-3 48 -33 120 l-25 61 24 68 c29 79 29 81 11 66 -12 -10 -14 -9 -12 6 2 10 11
20 22 21 10 2 28 12 39 23 11 10 51 30 88 43 59 23 76 25 144 19 127 -10 126
-21 -1 -22 -101 -1 -126 -5 -163 -23 -47 -23 -80 -54 -70 -64 4 -4 14 -1 22 6
25 20 179 14 231 -9 46 -21 51 -26 58 -64 4 -24 2 -27 -17 -23 -13 2 -40 14
-62 27 -33 18 -57 23 -131 24 -50 1 -96 5 -102 9 -24 15 -38 -30 -34 -113 2
-28 4 -31 17 -21 17 14 58 4 52 -13 -2 -7 -17 -14 -33 -17 -16 -3 -28 -9 -26
-13 1 -4 2 -14 2 -23 0 -12 6 -15 24 -10 14 3 28 1 32 -6 4 -6 3 -8 -4 -5 -18
12 -40 -3 -35 -24 3 -10 9 -19 13 -19 5 0 6 9 3 20 -3 11 0 20 6 20 6 0 11 -4
11 -8 0 -5 7 -9 15 -9 8 0 12 4 9 9 -3 5 -10 22 -14 39 -8 26 -7 30 7 25 8 -4
22 -1 29 5 10 8 14 8 14 0 0 -25 35 -46 73 -43 20 2 37 -1 37 -6 0 -10 40 -21
93 -26 39 -4 43 -13 16 -35 -20 -16 -21 -21 -10 -35 20 -24 29 -20 23 10 -4
20 -1 25 9 22 8 -3 15 -19 16 -37 1 -18 4 -39 7 -46 3 -8 -3 -19 -12 -24 -13
-8 -8 -10 23 -11 30 0 47 7 70 28 17 15 37 31 46 34 9 4 19 20 22 37 7 35 47
82 47 56 0 -23 -29 -76 -57 -104 -13 -13 -21 -27 -18 -30 4 -3 10 1 15 9 6 8
10 11 10 5 0 -5 8 -1 16 10 15 19 16 18 9 -15 -4 -19 -14 -41 -23 -49 -13 -10
-14 -15 -4 -18 6 -3 12 -18 12 -34 0 -29 -14 -39 -23 -16 -3 6 -6 -3 -6 -20
-1 -18 4 -33 9 -33 6 0 10 5 10 12 0 6 2 9 4 7 2 -2 0 -22 -4 -44 -7 -36 -8
-37 -9 -10 -2 57 -21 3 -22 -65 -1 -48 -3 -58 -9 -40 l-8 25 -1 -26 c-1 -14 4
-30 10 -36 19 -19 1 -33 -28 -22 -20 7 -30 6 -41 -5 -20 -20 -7 -39 18 -26 27
15 31 13 24 -14 -6 -27 3 -66 16 -66 12 0 50 68 50 90 0 30 11 50 29 50 10 0
26 23 44 65 26 61 27 71 19 133 -6 37 -6 72 -2 77 4 6 10 26 13 45 9 60 34
114 58 127 13 7 24 17 23 23 -1 5 -2 30 -2 55 -2 34 -7 47 -19 51 -65 21 -103
41 -103 53 0 16 -53 111 -62 111 -4 0 -13 6 -20 14 -16 15 -74 48 -103 57 -20
7 -20 7 0 8 11 1 25 11 30 24 11 25 36 29 42 7 3 -11 2 -11 -4 -3 -5 7 -14 8
-21 4 -13 -8 26 -49 80 -83 14 -10 34 -35 44 -57 15 -35 23 -41 63 -50 36 -7
51 -6 75 6 l31 16 -33 15 c-40 19 -40 35 -2 92 27 41 30 53 30 128 0 50 -4 82
-10 82 -22 0 -21 30 4 83 13 30 36 66 50 80 14 15 26 37 26 50 0 29 -48 77
-78 77 -20 0 -91 64 -92 83 0 4 -11 25 -25 47 -14 22 -25 54 -25 72 0 18 -9
47 -20 65 -21 34 -56 59 -62 43 -2 -5 -12 -7 -24 -4 -16 4 -20 11 -16 31 4 24
3 25 -22 19 -19 -5 -26 -3 -26 7 0 10 -15 14 -54 14 -53 0 -86 16 -86 42 0 16
-112 132 -137 142 -24 9 -58 70 -44 79 14 9 20 53 10 72 -13 24 -92 27 -83 3z"/>
<path d="M11268 6692 c-16 -6 2115 -6 3127 1 226 1 -382 3 -1350 4 -968 1
-1768 -1 -1777 -5z"/>
<path d="M11631 6593 c-1 -6 -18 -13 -38 -15 -35 -3 -38 -6 -42 -38 l-4 -35
-7 30 -6 30 -5 -38 c-4 -33 -3 -38 13 -34 10 3 18 2 18 -3 0 -4 16 -7 35 -6
27 1 35 -2 35 -16 0 -13 -8 -18 -30 -18 -17 0 -30 5 -30 13 0 8 -4 7 -10 -3
-6 -8 -10 -78 -9 -155 0 -77 -3 -148 -6 -157 -8 -20 -8 -20 53 -22 24 -1 46 2
49 6 3 5 4 78 2 161 -2 84 -2 178 -1 209 1 31 -2 67 -7 80 -6 13 -10 18 -10
11z"/>
<path d="M10855 6573 c-6 -5 -26 -46 -44 -93 -18 -47 -41 -103 -52 -126 -10
-22 -27 -65 -39 -95 -12 -30 -30 -69 -41 -87 -21 -37 -19 -39 49 -45 35 -3 46
0 57 17 8 11 15 26 15 33 0 7 7 21 15 30 13 15 28 17 96 15 66 -3 80 -6 75
-18 -4 -10 -2 -12 6 -8 8 5 9 2 5 -10 -4 -10 -3 -15 3 -11 6 4 15 -6 20 -22 9
-26 14 -28 60 -28 65 0 65 -3 -3 145 -16 35 -37 85 -47 110 -10 25 -29 70 -43
100 -14 30 -27 64 -29 75 -3 16 -12 21 -48 23 -25 1 -50 -1 -55 -5z"/>
<path d="M12073 6496 c-3 -5 -1 -6 6 -2 14 9 43 -12 35 -25 -3 -5 -12 -9 -20
-9 -8 0 -12 5 -9 10 3 6 -10 1 -29 -11 -20 -12 -38 -25 -41 -29 -3 -5 -24 2
-46 14 -47 27 -91 26 -132 -5 -26 -19 -28 -19 -25 -2 2 15 -3 17 -30 15 -22
-2 -41 3 -53 14 -11 10 -19 12 -19 6 0 -7 3 -12 8 -12 4 0 6 -70 4 -155 -2
-89 -7 -155 -12 -155 -6 0 -10 -8 -9 -17 0 -11 3 -13 6 -5 2 6 10 9 15 6 6 -4
30 -7 52 -7 l41 0 5 115 c5 125 15 149 59 147 l26 -1 -25 -8 c-24 -8 -23 -8 7
-9 l32 -1 3 -122 3 -122 50 0 50 -1 -3 103 c-5 124 1 152 29 152 11 0 17 5 14
10 -9 14 8 12 28 -2 13 -11 17 -34 18 -119 1 -58 -1 -111 -5 -117 -3 -6 -1
-14 6 -19 19 -11 88 -12 94 -1 10 16 4 260 -7 279 -5 10 -22 25 -37 33 -15 9
-20 15 -12 16 9 0 6 6 -9 17 -23 16 -23 17 -5 24 13 4 6 6 -19 6 -21 -1 -41
-5 -44 -11z"/>
<path d="M11276 6461 c-4 -6 -2 -11 5 -11 10 0 10 -3 1 -12 -9 -9 -15 -8 -24
4 -9 11 -25 14 -53 11 l-40 -5 5 -161 5 -161 45 0 45 -1 5 123 c5 134 10 144
65 140 l30 -3 3 -119 c1 -66 7 -125 11 -130 5 -6 29 -11 53 -11 l43 1 -2 139
c-2 149 -4 174 -13 172 -3 -1 -26 7 -52 17 -41 16 -52 17 -79 6 -25 -11 -32
-11 -39 -1 -5 9 -10 10 -14 2z"/>
<path d="M12366 6457 c-16 -5 -40 -19 -53 -30 -23 -21 -53 -100 -53 -141 0
-40 20 -91 45 -119 14 -15 23 -31 20 -36 -3 -6 35 -9 92 -8 67 1 98 6 101 15
2 6 10 12 17 12 15 0 40 64 30 80 -3 5 -12 10 -18 10 -7 0 -6 -4 3 -10 12 -8
11 -10 -7 -10 -12 0 -25 5 -28 10 -3 6 -34 9 -68 8 -56 -1 -57 -2 -15 -5 45
-4 46 -5 30 -24 -9 -10 -26 -19 -38 -19 -22 0 -68 46 -59 60 2 3 50 6 106 4
72 -1 104 -6 110 -15 13 -20 -1 78 -18 125 -16 48 -16 46 5 46 14 0 15 2 2 10
-10 6 -16 6 -18 0 -2 -6 -8 -8 -12 -5 -5 3 -7 12 -3 20 3 8 0 15 -7 15 -6 0
-8 -4 -5 -10 11 -18 -8 -11 -33 13 -14 12 -22 16 -18 10 6 -12 -23 -11 -69 1
-5 2 -23 -1 -39 -7z"/>
<path d="M13290 6444 c-36 -20 -40 -21 -36 -6 5 15 -1 17 -39 17 -24 -1 -47
-3 -49 -6 -3 -3 -6 -101 -6 -219 l-2 -215 41 -3 c23 -2 41 -8 42 -15 0 -7 4
-3 9 8 4 11 7 48 6 83 0 38 3 61 9 58 6 -2 9 -8 8 -12 -2 -13 119 -14 135 -2
6 6 12 6 12 1 0 -5 10 -9 21 -10 19 -2 20 -1 5 10 -16 12 -16 14 3 31 28 26
43 85 39 161 -1 35 -4 62 -7 60 -7 -7 -41 42 -41 59 0 9 -5 16 -11 16 -5 0 -7
-4 -4 -10 8 -13 -1 -13 -27 1 -35 19 -66 17 -108 -7z m77 -66 c4 -7 8 -15 9
-18 0 -3 4 -22 9 -43 10 -51 -10 -114 -39 -121 -56 -14 -86 21 -86 99 0 70 16
95 61 95 21 0 41 -6 46 -12z"/>
<path d="M13675 6460 c-73 -9 -122 -27 -129 -46 -3 -7 -12 -11 -21 -8 -8 3
-15 1 -15 -6 0 -6 5 -8 10 -5 6 3 10 0 10 -8 0 -29 93 -39 104 -12 3 10 19 15
46 15 33 0 40 -3 40 -20 0 -11 -4 -20 -10 -20 -5 0 -10 8 -10 18 0 14 -2 15
-9 2 -6 -8 -8 -17 -6 -20 2 -3 -23 -12 -55 -18 -80 -17 -114 -56 -107 -120 7
-67 33 -87 111 -87 40 0 70 6 80 15 14 11 19 11 26 1 4 -7 27 -14 51 -15 39
-1 44 1 41 19 -2 15 -13 157 -21 288 -1 5 -5 6 -10 3 -4 -3 -16 3 -26 14 -10
11 -23 19 -29 19 -6 -1 -38 -5 -71 -9z"/>
<path d="M13867 6463 c-12 -12 -7 -22 8 -17 13 5 15 -16 15 -155 0 -89 3 -161
8 -162 4 0 27 -1 52 -2 l44 -2 1 112 c1 100 3 115 20 128 22 16 39 20 31 7 -2
-4 8 -7 22 -6 22 1 29 7 38 40 11 38 10 39 -20 52 -23 10 -36 10 -58 1 -15 -6
-28 -15 -28 -20 0 -5 -5 -9 -11 -9 -5 0 -7 5 -4 10 5 9 -46 16 -82 11 -7 -1
-13 3 -13 9 0 11 -13 13 -23 3z"/>
<path d="M12690 6439 c-27 -20 -45 -25 -35 -10 3 5 2 12 -2 14 -5 3 -8 -11 -9
-30 0 -19 -5 -38 -10 -41 -5 -4 -11 -35 -13 -68 -2 -47 2 -71 18 -102 32 -63
63 -80 149 -78 72 1 73 2 112 43 23 24 36 44 30 48 -6 4 -8 11 -5 16 4 5 -1 9
-10 9 -9 0 -13 -4 -10 -10 8 -14 -21 -13 -48 1 -16 9 -22 9 -25 0 -2 -6 -13
-12 -25 -12 -17 -1 -18 -2 -4 -6 25 -7 10 -23 -21 -23 -15 0 -35 9 -44 19 -16
19 -16 20 5 24 18 3 17 5 -6 6 -16 0 -26 5 -23 9 3 5 60 8 126 7 88 -2 118 1
111 9 -5 6 -12 29 -16 51 -9 47 -27 86 -49 104 -9 7 -13 17 -10 22 3 5 -3 6
-12 2 -10 -3 -15 -2 -12 3 4 5 -25 10 -66 11 -57 1 -77 -3 -96 -18z"/>
<path d="M7158 6360 c-47 -8 -97 -36 -98 -55 0 -6 -16 -23 -35 -39 l-35 -29 0
-91 c0 -92 19 -172 39 -170 27 2 31 5 31 19 0 8 9 19 20 25 11 6 20 8 20 4 0
-3 6 -2 13 4 8 7 29 9 50 5 34 -5 40 -2 80 42 l44 48 17 -24 c9 -13 17 -33 17
-44 1 -16 2 -17 6 -3 3 14 7 15 17 6 7 -7 11 -19 9 -28 -3 -12 4 -15 41 -12
38 3 46 1 46 -13 0 -11 5 -15 15 -11 23 8 45 -4 45 -25 0 -10 -4 -19 -10 -19
-5 0 -10 -7 -10 -15 0 -21 13 -19 36 8 40 44 56 78 45 91 -14 16 -2 29 14 16
17 -14 28 90 15 138 -12 46 -27 69 -36 59 -4 -4 -2 -13 4 -19 17 -17 15 -33
-3 -18 -13 10 -15 9 -16 -11 -1 -17 -3 -19 -6 -6 -5 20 -39 23 -47 5 -3 -10
-9 -8 -19 5 -12 14 -32 17 -135 17 -111 0 -121 1 -115 18 10 25 51 62 66 57 6
-2 35 -6 62 -10 28 -3 75 -9 105 -14 78 -13 90 -13 90 3 0 17 -53 60 -92 75
-35 13 -231 21 -290 11z"/>
<path d="M12178 5793 c496 -2 1308 -2 1805 0 496 1 90 2 -903 2 -993 0 -1399
-1 -902 -2z"/>
<path d="M11253 5617 c2 -8 6207 -10 6215 -2 3 3 -1395 6 -3106 7 -1712 2
-3111 0 -3109 -5z"/>
<path d="M17520 5609 c13 -6 27 -12 30 -15 3 -3 7 -859 10 -1902 l5 -1897 3
1906 c2 1731 1 1907 -14 1913 -9 3 -25 6 -37 5 -21 0 -21 -1 3 -10z"/>
<path d="M7470 5594 c0 -10 10 -29 23 -42 l22 -24 -22 -15 c-26 -18 -30 -33
-8 -33 30 0 14 -22 -31 -42 -35 -15 -43 -22 -33 -29 8 -5 9 -9 3 -9 -17 0 -74
-52 -74 -67 0 -7 -7 -13 -16 -13 -8 0 -12 -4 -9 -10 3 -5 1 -10 -4 -10 -6 0
-11 7 -11 15 0 9 -7 18 -15 21 -16 7 -21 44 -5 44 5 0 6 8 3 17 -4 10 -8 12
-10 6 -3 -7 -11 -9 -19 -6 -9 3 -14 -2 -14 -16 0 -12 -6 -21 -16 -21 -10 0
-12 4 -7 13 16 25 30 77 22 82 -15 10 -49 -86 -49 -141 0 -30 4 -54 8 -54 15
0 32 24 32 45 0 12 3 25 7 28 11 11 32 -14 26 -30 -4 -10 -2 -14 4 -10 18 11
34 -19 27 -49 -6 -24 -5 -26 14 -22 21 6 102 -31 129 -58 7 -7 22 -16 33 -19
11 -3 19 -11 17 -18 -1 -6 6 -12 15 -14 13 -3 15 1 11 18 -4 15 -3 20 5 15 7
-4 12 -2 12 3 0 6 -5 11 -11 11 -7 0 0 9 14 20 27 21 117 29 117 10 0 -7 13
-8 35 -4 22 4 41 2 50 -6 10 -9 15 -9 15 -1 0 13 27 15 32 3 2 -5 18 -12 36
-15 25 -5 31 -4 26 6 -5 9 -4 9 6 0 11 -11 11 -17 0 -37 -7 -14 -17 -23 -22
-20 -5 3 -16 -2 -23 -12 -13 -16 -16 -17 -24 -4 -8 12 -12 10 -20 -10 -5 -14
-10 -20 -10 -14 -1 5 -17 10 -36 10 -21 0 -30 -3 -22 -8 8 -5 4 -8 -10 -8 -16
0 -23 -6 -23 -21 0 -11 -4 -18 -9 -15 -5 3 -7 15 -4 26 4 17 1 20 -21 18 -20
-2 -26 -8 -28 -28 -2 -44 -3 -48 -11 -56 -11 -12 -8 -24 7 -24 8 0 17 -7 20
-16 4 -12 15 -15 36 -12 21 3 30 0 30 -9 0 -15 61 13 112 50 l28 20 -23 16
c-25 18 -46 20 -65 7 -7 -5 -15 -6 -19 -2 -11 10 29 34 49 28 10 -2 18 0 18 6
0 6 13 9 30 7 16 -2 32 1 35 6 4 5 14 9 23 9 10 0 28 14 42 30 14 17 30 30 37
30 7 0 17 10 24 21 9 18 17 20 47 15 27 -4 49 0 84 16 l47 23 -1 73 c0 61 -4
77 -21 93 -23 21 -51 9 -29 -13 16 -16 15 -48 0 -48 -7 0 -23 -3 -36 -6 -17
-5 -21 -3 -17 9 4 8 -1 17 -9 20 -9 4 -16 13 -16 22 0 8 -4 15 -10 15 -5 0
-10 -5 -10 -12 0 -9 -3 -9 -12 0 -8 8 -8 15 3 28 13 16 12 16 -9 5 -27 -14
-47 1 -58 43 -3 14 -10 26 -16 26 -5 0 -6 5 -3 10 4 6 2 17 -4 24 -8 10 -6 18
9 31 11 10 20 24 20 30 0 11 -47 27 -90 30 -19 2 -51 -25 -45 -36 10 -16 -33
-19 -78 -5 -26 8 -47 10 -47 5 0 -13 -33 2 -53 25 -21 23 -49 28 -96 15 -23
-5 -39 -5 -48 3 -10 8 -13 6 -13 -8z m186 -99 c-4 -14 -2 -25 4 -25 5 0 10 5
10 11 0 5 4 8 9 5 5 -4 7 2 4 12 -4 16 0 18 27 14 25 -3 28 -7 19 -18 -9 -11
-7 -14 10 -14 12 0 21 -6 21 -15 0 -8 -9 -15 -20 -15 -11 0 -20 -5 -20 -11 0
-7 7 -8 18 -4 32 14 72 18 72 6 0 -6 -4 -11 -10 -11 -24 0 -7 -19 18 -20 70
-1 81 -3 76 -11 -3 -5 -11 -9 -19 -9 -7 0 -12 -10 -11 -25 1 -27 23 -34 32
-10 9 21 32 19 39 -5 3 -11 11 -20 16 -20 6 0 7 9 4 21 -5 15 -3 20 6 17 17
-6 21 -58 5 -58 -7 0 -17 5 -24 12 -6 6 -15 9 -18 5 -9 -9 43 -57 61 -57 7 0
15 6 18 13 2 6 2 1 0 -12 -2 -13 2 -28 8 -32 7 -4 -3 -6 -24 -5 -20 2 -44 9
-53 17 -24 20 -212 18 -225 -2 -8 -12 -10 -12 -19 1 -5 8 -10 12 -10 8 0 -3
-26 2 -59 12 -52 15 -68 16 -136 5 -62 -9 -84 -9 -114 1 -20 7 -28 13 -18 14
17 0 25 20 7 20 -5 0 -7 6 -4 13 2 7 20 13 39 13 19 0 40 5 47 12 17 17 3 25
-21 12 -17 -9 -21 -8 -21 6 0 9 9 18 20 21 11 3 20 9 20 14 0 5 7 9 15 9 8 0
15 5 15 10 0 6 7 10 15 10 9 0 12 -6 9 -15 -4 -8 -1 -15 4 -15 13 0 26 20 27
39 0 20 25 26 25 7 0 -9 5 -16 10 -16 6 0 10 9 10 21 0 15 5 19 19 14 23 -7
52 20 45 40 -4 10 0 15 11 15 13 0 16 -6 11 -25z"/>
<path d="M11287 5588 c-7 -4 1383 -7 3088 -5 1705 1 2889 3 2630 4 -1199 7
-5708 7 -5718 1z"/>
<path d="M17535 3680 c0 -1037 1 -1461 2 -942 2 518 2 1366 0 1885 -1 518 -2
94 -2 -943z"/>
<path d="M8298 5280 c-10 -20 -18 -45 -18 -56 0 -11 -4 -24 -9 -29 -6 -6 -11
-36 -13 -67 -2 -32 -7 -58 -11 -58 -4 0 -5 -17 -2 -37 4 -31 3 -34 -4 -15 -16
34 -31 26 -31 -16 0 -25 -7 -45 -24 -63 -12 -14 -23 -36 -22 -49 1 -16 -6 -26
-20 -29 -14 -4 -20 -13 -19 -28 1 -15 -4 -23 -14 -23 -9 0 -27 -12 -40 -25
-13 -14 -34 -25 -47 -25 -13 0 -24 -3 -24 -7 0 -5 -18 -28 -40 -53 -22 -25
-45 -51 -51 -58 -8 -9 -14 -10 -24 -2 -9 8 -17 7 -28 -4 -18 -18 -27 -11 -27
21 0 26 -17 31 -22 6 -2 -9 -13 -17 -26 -18 -21 -2 -23 1 -18 29 4 22 3 27 -4
16 -5 -8 -10 -25 -10 -36 0 -17 -6 -22 -27 -21 -16 1 -31 6 -35 12 -5 6 -8 2
-8 -8 0 -15 -6 -16 -42 -11 -24 4 -47 10 -52 15 -16 15 -44 10 -55 -8 -6 -11
-11 -13 -11 -5 0 9 -5 10 -18 3 -37 -20 -94 2 -150 56 -13 13 -27 23 -31 23
-5 0 -11 9 -14 19 -3 12 -13 19 -23 19 -11 -1 -32 1 -49 4 -16 3 -25 3 -18 1
6 -2 13 -14 15 -26 2 -12 14 -27 28 -34 24 -12 25 -13 3 -13 -29 0 -29 -8 2
-50 14 -19 25 -39 25 -46 0 -15 -53 -26 -61 -12 -3 5 -15 8 -25 6 -12 -2 -18
2 -16 11 2 9 -3 11 -14 7 -11 -4 -26 2 -40 15 -12 11 -27 18 -33 14 -6 -3 -11
-1 -11 4 0 6 -6 11 -13 11 -7 0 -18 9 -25 20 -7 11 -16 20 -21 20 -5 0 -7 -9
-4 -20 3 -11 9 -20 13 -20 4 0 19 -18 34 -40 14 -22 22 -40 17 -40 -11 0 -87
62 -123 101 -15 16 -34 29 -42 29 -9 0 -16 7 -16 15 0 8 -9 15 -21 15 -11 0
-17 4 -14 10 9 15 -15 52 -30 46 -8 -3 -17 -1 -20 4 -4 6 0 10 7 10 9 1 7 5
-5 14 -11 9 -15 20 -10 31 5 15 3 17 -11 12 -14 -6 -16 -3 -11 16 7 21 6 21
-11 5 -17 -17 -17 -18 1 -38 10 -11 13 -20 7 -20 -17 0 -48 63 -33 68 6 2 16
13 22 24 10 18 9 18 -10 8 -17 -9 -25 -8 -37 5 -13 13 -15 29 -11 78 l6 62
-20 -80 c-13 -55 -27 -86 -43 -100 -29 -25 -56 -93 -56 -142 0 -20 11 -84 25
-142 13 -58 33 -155 45 -216 11 -60 29 -150 39 -200 37 -169 91 -461 102 -545
5 -46 21 -141 35 -210 14 -69 32 -171 40 -228 8 -57 27 -176 43 -265 16 -89
32 -193 36 -232 3 -38 15 -133 25 -210 44 -319 55 -545 77 -1473 5 -225 -11
-738 -24 -752 -2 -2 -25 -7 -51 -12 -43 -6 -42 -6 8 -2 30 3 478 7 995 9 716
3 942 1 948 -8 5 -7 6 -4 1 8 -4 11 -15 67 -25 125 -10 58 -36 211 -59 340
-22 130 -40 245 -40 257 0 12 -17 125 -39 250 -21 125 -44 271 -50 323 -6 52
-23 154 -36 225 -13 72 -29 171 -34 220 -10 78 -32 213 -97 575 -8 47 -26 131
-40 186 -13 56 -24 111 -24 123 0 11 -16 82 -35 158 -19 76 -39 170 -45 208
-6 39 -25 131 -42 205 -17 74 -36 167 -43 205 -7 39 -29 147 -48 240 -19 94
-38 194 -42 223 -4 30 -13 66 -21 80 -8 15 -14 55 -14 90 0 35 -5 73 -12 85
-6 12 -12 57 -14 99 -1 52 -7 86 -18 103 -23 34 -20 59 15 161 17 49 31 94 33
99 1 6 5 16 9 22 20 32 45 130 41 162 -3 26 -2 30 4 12 7 -21 9 -18 28 30 22
55 64 181 64 191 0 3 -8 5 -17 4 -21 -1 -56 -87 -40 -98 7 -4 6 -12 -3 -23
-23 -28 -34 -1 -20 54 7 28 16 51 20 51 13 0 19 27 12 53 -7 24 -7 24 -24 -13z
m-278 -868 c0 -4 -6 -14 -12 -21 -11 -10 -10 -15 3 -25 15 -10 13 -14 -15 -32
-17 -12 -43 -25 -56 -29 -14 -4 -41 -18 -62 -31 -20 -13 -60 -26 -90 -30 -29
-4 -71 -15 -93 -25 -22 -10 -57 -19 -78 -19 -38 0 -72 21 -153 95 -27 25 -85
73 -105 87 -10 7 -7 8 11 3 14 -4 72 -11 130 -15 58 -4 127 -11 153 -15 51 -8
87 -32 67 -45 -6 -4 11 -5 39 -2 34 3 56 0 67 -9 13 -11 15 -9 12 16 -4 33 17
45 25 14 8 -29 27 -15 27 20 0 24 5 29 50 40 27 7 52 17 56 22 6 11 24 12 24
1z"/>
<path d="M12517 5313 c860 -2 2266 -2 3125 0 860 1 157 2 -1562 2 -1719 0
-2422 -1 -1563 -2z"/>
<path d="M10938 3974 c1 -725 3 -1440 5 -1589 1 -148 3 432 3 1290 1 858 -1
1573 -5 1589 -3 17 -5 -564 -3 -1290z"/>
<path d="M17259 5273 c-2 -10 -2 -724 1 -1588 l5 -1570 3 1588 c1 873 0 1587
-2 1587 -2 0 -5 -8 -7 -17z"/>
<path d="M10896 5255 c-3 -9 -5 -719 -4 -1578 l3 -1562 5 1575 c3 866 4 1576
4 1578 -1 2 -4 -4 -8 -13z"/>
<path d="M14244 4896 c-152 -66 -166 -495 -20 -586 72 -44 161 -33 219 28 25
26 26 33 29 149 2 95 0 124 -10 128 -8 3 -45 5 -83 5 l-69 0 0 -55 0 -55 45 0
45 0 0 -36 c0 -56 -64 -103 -114 -84 -61 23 -92 112 -84 242 6 91 29 141 74
163 32 15 36 15 64 -2 17 -10 36 -32 42 -50 14 -37 13 -37 57 -22 36 13 36 12
16 70 -35 102 -120 144 -211 105z"/>
<path d="M11530 4595 l0 -305 35 0 35 0 1 228 c1 186 3 216 11 167 6 -33 22
-134 37 -225 l26 -165 37 -3 36 -3 10 59 c6 33 21 128 33 211 13 83 24 149 26
147 2 -2 4 -96 3 -210 l0 -206 40 0 40 0 0 305 0 305 -60 0 c-54 0 -60 -2 -64
-22 -3 -13 -17 -103 -33 -201 -15 -98 -30 -172 -34 -165 -3 7 -9 36 -13 63 -3
28 -16 111 -29 185 l-23 135 -57 3 -57 3 0 -306z"/>
<path d="M12287 4893 c-3 -5 -4 -141 -3 -303 l1 -295 38 -3 37 -3 0 150 c0
163 8 198 48 208 45 11 52 -14 52 -194 l0 -163 40 0 40 0 0 143 c0 197 -7 241
-40 277 -36 38 -74 39 -112 3 l-28 -27 0 107 0 107 -34 0 c-19 0 -37 -3 -39
-7z"/>
<path d="M13850 4788 c0 -109 -1 -112 -17 -88 -23 33 -33 40 -66 40 -38 0 -82
-45 -97 -101 -17 -62 -9 -245 12 -284 44 -81 97 -98 141 -45 31 37 41 38 35 5
-5 -23 -2 -25 28 -25 l34 0 0 305 0 305 -35 0 -35 0 0 -112z m-25 -158 c23
-26 33 -151 15 -204 -22 -69 -78 -69 -100 0 -18 54 -9 177 14 203 24 26 48 27
71 1z"/>
<path d="M14871 4845 c-24 -27 -31 -45 -31 -75 0 -29 -4 -40 -15 -40 -11 0
-15 -12 -15 -45 0 -32 4 -45 14 -45 11 0 15 -30 18 -152 4 -190 19 -220 98
-203 28 6 30 10 30 51 0 40 -2 44 -25 44 -20 0 -25 5 -25 25 -1 14 -1 68 -1
120 0 52 0 100 1 105 0 6 9 10 20 10 17 0 20 7 20 44 0 38 -3 45 -22 48 -20 3
-22 8 -21 71 0 37 -3 70 -7 72 -5 3 -22 -11 -39 -30z"/>
<path d="M12028 4723 c-51 -32 -72 -87 -76 -201 -4 -94 -2 -106 22 -156 19
-38 36 -59 60 -70 71 -34 122 -12 162 71 57 116 27 315 -55 357 -38 20 -79 20
-113 -1z m109 -124 c18 -35 16 -144 -3 -185 -13 -27 -22 -34 -45 -34 -35 0
-55 28 -65 87 -10 64 4 132 32 160 23 23 27 24 47 10 12 -8 28 -25 34 -38z"/>
<path d="M12642 4712 c-26 -24 -51 -86 -40 -98 3 -2 18 -6 34 -10 24 -4 31 -1
39 18 20 45 85 31 85 -19 0 -20 -11 -29 -69 -55 -61 -26 -72 -36 -85 -69 -29
-73 -14 -148 36 -183 32 -23 62 -20 96 9 29 24 30 24 35 5 4 -15 14 -20 40
-20 l34 0 -8 43 c-4 23 -8 110 -9 192 0 127 -3 153 -18 171 -42 53 -122 60
-170 16z"/>
<path d="M12996 4709 l-26 -31 0 26 c0 23 -4 26 -35 26 l-35 0 0 -220 0 -220
34 0 34 0 3 159 c4 139 6 162 23 180 22 24 39 27 55 7 10 -12 21 -187 21 -318
0 -25 3 -28 35 -28 l35 0 0 150 c0 164 11 210 51 210 31 0 39 -40 39 -206 l0
-154 35 0 35 0 0 180 c0 133 -4 190 -14 215 -26 63 -82 72 -133 23 -18 -18
-33 -27 -33 -22 0 6 -9 20 -20 32 -30 32 -73 29 -104 -9z"/>
<path d="M13412 4704 c-39 -47 -52 -95 -52 -196 0 -134 36 -211 107 -224 63
-12 119 31 130 101 4 27 2 35 -10 35 -8 0 -22 3 -31 6 -10 4 -20 -5 -31 -25
-22 -44 -57 -42 -80 4 -9 20 -15 43 -13 53 4 17 6 18 127 21 l54 1 -6 69 c-10
123 -55 191 -126 191 -33 0 -44 -6 -69 -36z"/>
<path d="M14592 4724 c-26 -18 -52 -64 -52 -92 0 -12 9 -22 23 -26 34 -9 37
-8 47 19 7 19 17 25 40 25 31 0 38 -7 42 -49 3 -21 -5 -27 -57 -48 -84 -33
-98 -50 -103 -126 -3 -46 0 -73 12 -96 30 -56 91 -66 137 -20 l20 20 6 -20 c4
-16 13 -21 37 -21 l31 0 -3 148 c-4 221 -8 247 -43 277 -36 29 -102 34 -137 9z"/>
<path d="M15065 4707 c-74 -74 -87 -277 -24 -368 42 -60 132 -74 177 -26 61
65 82 216 45 321 -38 104 -132 139 -198 73z m122 -94 c13 -20 18 -47 18 -103
0 -88 -19 -130 -60 -130 -44 0 -65 42 -65 132 0 94 16 128 61 128 20 0 34 -8
46 -27z"/>
<path d="M15710 4727 c-41 -20 -62 -73 -57 -140 6 -68 28 -93 114 -128 47 -19
53 -25 53 -50 0 -23 -6 -32 -26 -40 -33 -12 -74 11 -74 42 0 19 -4 21 -32 15
-49 -10 -53 -20 -29 -68 33 -69 88 -92 159 -67 58 20 94 116 71 187 -15 45
-26 55 -106 92 -67 31 -82 59 -44 80 29 15 40 13 66 -16 30 -32 75 -27 75 8 0
29 -40 86 -65 92 -34 9 -79 6 -105 -7z"/>
<path d="M15984 4722 c-33 -26 -45 -57 -45 -117 -1 -73 18 -100 97 -137 35
-16 67 -34 70 -39 9 -15 -6 -48 -27 -60 -28 -15 -56 -3 -71 31 -13 31 -19 34
-55 24 -29 -8 -30 -38 -3 -81 26 -44 73 -67 122 -60 68 9 108 65 108 149 0 55
-28 100 -74 121 -20 9 -52 24 -71 33 -39 18 -46 47 -16 64 29 15 39 13 67 -16
21 -20 32 -24 55 -19 16 4 29 11 29 16 0 24 -30 78 -51 93 -31 21 -108 21
-135 -2z"/>
<path d="M15340 4548 c0 -169 2 -186 21 -218 26 -43 36 -50 71 -50 18 0 38 11
58 31 l30 32 0 -27 c0 -23 4 -26 35 -26 l35 0 0 221 0 220 -35 -3 -35 -3 -3
-150 c-2 -126 -5 -155 -20 -179 -12 -18 -25 -26 -40 -24 -38 5 -47 42 -47 206
l0 152 -35 0 -35 0 0 -182z"/>
<path d="M16240 4510 l0 -220 40 0 40 0 0 220 0 220 -40 0 -40 0 0 -220z"/>
<path d="M6038 4199 c-24 -14 -23 -32 5 -77 13 -20 29 -53 35 -72 45 -140 92
-305 102 -355 6 -33 26 -114 44 -180 44 -155 116 -449 116 -472 0 -10 12 -45
25 -78 26 -61 94 -326 121 -470 9 -44 31 -150 49 -235 34 -156 101 -556 130
-773 9 -64 24 -152 35 -195 11 -42 26 -120 35 -172 9 -52 31 -158 49 -235 19
-77 37 -162 41 -189 4 -27 10 -58 15 -70 5 -11 27 -88 50 -171 42 -149 67
-216 55 -145 -15 86 -44 302 -50 370 -3 41 -19 149 -35 240 -16 91 -34 212
-39 270 -6 58 -24 188 -40 290 -16 102 -32 214 -36 250 -4 36 -22 142 -40 235
-18 94 -36 199 -40 235 -4 36 -22 137 -40 225 -19 88 -39 192 -45 230 -6 39
-26 129 -45 200 -19 72 -44 166 -54 210 -11 44 -26 105 -34 135 -9 30 -20 84
-27 120 -6 36 -26 121 -44 190 -18 69 -43 163 -55 210 -117 460 -117 462 -176
471 -22 3 -51 9 -65 12 -14 4 -33 2 -42 -4z"/>
<path d="M8777 3854 c-5 -5 -2 -16 24 -79 4 -11 16 -58 27 -105 11 -47 31
-125 44 -175 14 -49 40 -166 58 -260 17 -93 36 -184 41 -201 13 -43 47 -502
64 -854 21 -462 38 -1285 34 -1617 -3 -167 -2 -303 1 -303 8 0 48 202 70 353
15 99 12 1904 -3 1952 -6 21 -23 194 -32 340 -10 149 -42 320 -89 470 -8 28
-27 106 -42 175 -15 69 -32 139 -39 156 -7 17 -16 51 -20 75 -12 72 -19 79
-79 79 -29 0 -55 -3 -59 -6z"/>
<path d="M11278 3602 l-77 -87 -1 -232 0 -233 24 -15 c17 -11 42 -15 83 -13
l58 3 8 155 c4 85 5 193 3 240 -7 117 -17 253 -19 262 -1 4 -37 -32 -79 -80z"/>
<path d="M12200 3505 l0 -135 63 0 c72 0 98 16 116 69 24 72 5 167 -37 190
-12 6 -48 11 -81 11 l-61 0 0 -135z m126 68 c16 -21 18 -91 4 -127 -8 -22 -16
-26 -50 -26 l-40 0 0 85 0 85 36 0 c23 0 42 -6 50 -17z"/>
<path d="M13370 3505 l0 -135 25 0 c23 0 24 3 27 73 3 69 4 72 28 72 24 0 25
-3 28 -72 3 -71 4 -73 29 -73 l26 0 -7 87 c-3 47 -11 92 -17 100 -13 15 -65
18 -74 3 -13 -22 -20 -8 -17 35 4 43 3 45 -22 45 l-26 0 0 -135z"/>
<path d="M13873 3603 c-45 -47 -46 -97 -1 -56 17 15 18 12 18 -80 0 -97 0 -97
25 -97 l25 0 0 135 c0 122 -2 135 -17 134 -10 -1 -33 -17 -50 -36z"/>
<path d="M14038 3600 c-37 -37 -49 -70 -26 -70 6 0 20 7 30 17 17 15 18 12 18
-80 0 -97 0 -97 25 -97 l25 0 0 135 c0 155 -6 163 -72 95z"/>
<path d="M12510 3469 c0 -98 0 -99 25 -99 23 0 24 3 27 73 3 66 5 72 26 75 21
3 22 0 22 -72 0 -74 1 -76 25 -76 24 0 25 3 25 59 0 72 6 91 30 91 23 0 30
-19 30 -90 0 -40 4 -59 14 -63 23 -9 26 2 26 89 0 62 -4 87 -16 98 -20 20 -58
21 -74 1 -11 -13 -15 -14 -29 -1 -10 8 -39 14 -73 14 l-58 0 0 -99z"/>
<path d="M12827 3552 c-23 -25 -22 -52 2 -52 11 0 23 5 26 10 11 18 45 11 45
-9 0 -13 -10 -21 -34 -25 -48 -9 -72 -39 -60 -74 7 -21 17 -28 42 -30 18 -2
40 2 48 9 10 8 14 8 14 0 0 -6 10 -11 23 -11 22 0 22 2 17 90 -4 66 -9 93 -20
100 -26 16 -86 12 -103 -8z"/>
<path d="M12990 3468 c0 -95 1 -98 23 -98 20 0 22 4 19 47 -4 60 11 103 37
103 25 0 31 -19 31 -91 0 -52 2 -59 20 -59 18 0 20 7 20 84 0 105 -7 114 -90
113 l-60 0 0 -99z"/>
<path d="M13200 3548 c-33 -36 -25 -145 14 -170 39 -26 116 8 116 51 0 26 -38
35 -45 10 -4 -12 -16 -19 -30 -19 -18 0 -25 7 -30 30 -10 44 2 70 31 70 13 0
24 -4 24 -10 0 -5 11 -10 25 -10 30 0 32 19 5 48 -28 30 -82 30 -110 0z"/>
<path d="M13581 3549 c-31 -34 -30 -127 2 -157 32 -31 86 -29 110 3 20 28 9
40 -29 31 -14 -4 -34 -4 -45 -1 -36 12 -19 24 39 27 57 3 57 3 54 33 -8 74
-86 112 -131 64z"/>
<path d="M14290 3550 c-28 -28 -26 -50 5 -50 14 0 25 5 25 11 0 6 10 9 23 7
36 -5 26 -30 -18 -42 -49 -14 -77 -55 -55 -81 24 -29 45 -35 72 -21 22 12 28
12 39 0 27 -26 35 -1 29 89 -3 63 -9 90 -20 97 -26 17 -79 11 -100 -10z"/>
<path d="M14461 3484 c16 -47 29 -92 29 -100 0 -11 8 -14 26 -12 23 3 29 13
55 93 35 108 35 107 7 103 -18 -2 -25 -15 -37 -60 -8 -32 -18 -58 -22 -58 -3
0 -14 27 -23 60 -15 52 -20 60 -41 60 l-23 0 29 -86z"/>
<path d="M11717 3452 c-42 -42 -77 -81 -77 -86 0 -13 148 -156 160 -156 6 0
10 65 10 160 0 88 -3 160 -7 159 -5 0 -43 -35 -86 -77z"/>
<path d="M19305 3284 c-503 -78 -875 -351 -1102 -809 -33 -66 -66 -136 -73
-155 -26 -67 -152 -302 -246 -461 -227 -385 -446 -667 -673 -869 -159 -142
-257 -192 -501 -260 -327 -90 -525 -246 -547 -430 -8 -66 12 -159 50 -236 l31
-64 2118 0 2118 0 0 1578 0 1579 -107 31 c-137 40 -313 76 -471 96 -153 20
-470 19 -597 0z m704 -1586 c16 -53 58 -95 106 -104 l37 -7 -5 -96 c-5 -120
-31 -201 -98 -311 -84 -139 -185 -260 -217 -260 -26 0 -138 124 -203 225 -53
83 -69 117 -89 195 -14 56 -24 125 -24 169 l-1 75 40 15 c54 21 74 46 99 124
5 15 22 17 174 17 l169 0 12 -42z m-1146 -48 c80 -40 147 -137 147 -211 l0
-29 -90 0 c-86 0 -91 1 -100 24 -24 65 -102 86 -167 46 -51 -30 -67 -72 -67
-172 -1 -86 0 -88 32 -120 27 -27 40 -33 77 -33 35 0 50 6 74 29 17 17 31 38
31 48 0 16 10 18 100 18 97 0 100 -1 100 -22 0 -54 -57 -144 -128 -200 -56
-45 -212 -62 -310 -33 -40 12 -61 27 -100 70 -173 195 -87 527 158 606 14 5
63 7 110 6 68 -2 95 -7 133 -27z m-518 -18 c-15 -88 -46 -278 -55 -342 -6 -41
-18 -100 -27 -130 -34 -123 -109 -179 -238 -180 -82 0 -125 11 -171 42 -51 35
-65 74 -62 170 l3 83 90 0 90 0 0 -50 c0 -62 8 -75 46 -75 22 0 32 6 38 23 5
12 26 126 46 252 20 127 39 232 40 235 2 3 48 4 104 2 l100 -3 -4 -27z m1011
-34 c-4 -35 -13 -99 -21 -143 -7 -44 -25 -156 -40 -250 -14 -93 -30 -180 -35
-192 -9 -21 -16 -23 -100 -23 -71 0 -92 3 -96 15 -6 14 1 62 66 461 17 99 30
184 30 187 0 4 46 7 101 7 l102 0 -7 -62z m-769 -724 c8 -11 11 -28 7 -39 -9
-28 -9 -54 1 -98 7 -37 6 -39 -16 -35 -17 2 -25 11 -29 32 -5 27 -35 49 -52
39 -5 -2 -8 -20 -8 -39 0 -30 -3 -34 -25 -34 -25 0 -25 0 -25 93 0 52 3 97 8
101 4 4 33 6 66 4 43 -3 62 -10 73 -24z m144 -34 c16 -9 19 -22 19 -76 l0 -65
-62 3 -63 3 0 35 c0 31 3 35 38 43 22 6 37 15 37 24 0 11 -5 13 -17 8 -58 -24
-85 -11 -41 19 26 18 61 20 89 6z m399 0 c10 -6 14 -28 15 -72 l0 -63 -63 -3
c-68 -3 -80 6 -68 53 4 16 15 27 34 31 50 11 56 14 45 25 -7 7 -17 7 -30 -2
-12 -7 -29 -9 -39 -5 -18 7 -18 9 5 27 25 20 76 25 101 9z"/>
<path d="M19716 1637 c-7 -30 -59 -81 -97 -97 l-31 -13 7 -61 c14 -124 113
-314 212 -409 l29 -27 25 26 c64 67 160 244 183 335 27 108 23 129 -32 164
-26 17 -56 46 -67 67 l-20 38 -101 0 c-98 0 -102 -1 -108 -23z m177 -36 c35
-14 86 -66 103 -106 29 -71 15 -137 -44 -198 -64 -66 -154 -72 -231 -16 -65
46 -94 125 -71 194 15 46 65 104 105 121 35 16 104 18 138 5z"/>
<path d="M12661 3163 c-26 -22 -37 -78 -22 -116 14 -36 55 -56 82 -39 15 10
19 9 19 -2 0 -28 -12 -46 -30 -46 -11 0 -22 5 -25 10 -11 18 -45 11 -45 -9 0
-20 44 -61 65 -61 26 0 65 43 76 82 34 126 -44 243 -120 181z"/>
<path d="M12955 3155 c-14 -13 -25 -28 -25 -33 0 -16 39 -21 51 -6 16 20 36
17 42 -6 3 -13 -1 -24 -14 -30 -22 -12 -26 -50 -5 -50 21 0 38 -27 31 -50 -8
-27 -51 -27 -58 -1 -3 14 -11 18 -26 14 -38 -10 -22 -56 29 -83 22 -12 67 2
86 28 19 24 17 82 -3 104 -13 14 -14 21 -5 30 19 19 14 66 -8 88 -27 27 -66
25 -95 -5z"/>
<path d="M13139 3161 c-22 -18 -24 -26 -24 -114 0 -106 15 -137 65 -137 41 0
59 20 71 80 16 77 -1 162 -37 179 -35 15 -48 14 -75 -8z"/>
<path d="M13292 3043 c3 -130 4 -138 23 -138 18 0 20 8 23 67 3 68 18 96 46
85 11 -4 16 -26 18 -79 3 -65 5 -73 23 -73 18 0 20 8 23 75 3 89 -11 124 -51
128 -16 2 -35 -2 -43 -9 -12 -10 -14 -4 -14 35 0 43 -2 46 -25 46 l-26 0 3
-137z"/>
<path d="M12206 3088 c-9 -12 -16 -28 -16 -34 0 -17 38 -24 44 -8 8 21 46 18
46 -5 0 -13 -12 -22 -45 -31 -33 -9 -47 -19 -51 -35 -12 -49 32 -84 78 -61 19
10 25 9 34 -3 6 -8 17 -12 25 -9 20 8 10 185 -11 198 -29 19 -88 12 -104 -12z"/>
<path d="M13597 3092 c-38 -42 -13 -91 56 -107 15 -4 27 -13 27 -21 0 -17 -33
-18 -59 -2 -10 6 -26 8 -35 5 -14 -6 -14 -10 -4 -27 37 -59 148 -33 148 35 0
27 -15 41 -66 59 -21 7 -38 17 -37 22 3 12 53 18 53 6 0 -6 9 -8 20 -5 25 7
25 15 2 36 -25 23 -85 22 -105 -1z"/>
<path d="M13761 3055 c-4 -116 25 -167 84 -145 19 7 31 7 41 -1 26 -21 34 2
34 102 0 98 0 99 -25 99 -23 0 -24 -3 -27 -72 -3 -71 -4 -73 -30 -76 l-28 -3
0 75 c0 73 -1 76 -23 76 -22 0 -24 -5 -26 -55z"/>
<path d="M14191 3084 c-24 -30 -29 -118 -8 -145 24 -31 49 -38 79 -23 28 15
33 10 22 -20 -7 -18 -49 -22 -59 -6 -3 6 -17 10 -31 10 -22 0 -24 -3 -19 -22
10 -33 34 -48 77 -48 68 0 78 21 78 160 0 112 -1 120 -19 120 -11 0 -21 -6
-24 -12 -4 -10 -7 -10 -18 0 -21 20 -56 14 -78 -14z"/>
<path d="M14405 3085 c-52 -51 -25 -169 40 -175 59 -6 89 19 99 81 15 94 -77
157 -139 94z"/>
<path d="M14596 3079 c-40 -47 -31 -127 18 -161 26 -18 77 -8 102 20 23 24 25
34 22 81 -6 63 -31 91 -83 91 -25 0 -40 -8 -59 -31z"/>
<path d="M14791 3084 c-24 -30 -29 -118 -8 -145 24 -31 52 -39 76 -23 26 19
35 13 26 -15 -7 -25 -32 -27 -71 -7 -46 24 -61 -2 -24 -42 27 -29 92 -30 120
-2 18 18 20 33 20 140 0 113 -1 120 -20 120 -12 0 -20 -7 -20 -17 0 -15 -1
-15 -18 0 -27 24 -58 21 -81 -9z"/>
<path d="M15080 3092 c-27 -22 -38 -98 -20 -141 13 -32 58 -54 88 -44 25 9 52
34 52 50 0 15 -38 17 -60 3 -9 -5 -19 -5 -27 2 -24 19 -14 27 40 30 l52 3 -3
35 c-5 68 -72 102 -122 62z"/>
<path d="M15332 3006 c3 -93 5 -101 23 -101 17 0 20 8 23 55 3 81 10 100 32
100 12 0 20 -7 21 -17 0 -10 1 -45 2 -78 2 -53 4 -60 22 -60 17 0 20 8 23 55
3 80 10 100 31 100 25 0 31 -19 31 -97 0 -56 2 -64 18 -61 25 5 31 168 7 192
-21 20 -59 21 -75 1 -11 -13 -15 -14 -29 -1 -10 8 -38 14 -74 13 l-58 0 3
-101z"/>
<path d="M15640 3092 c-27 -22 -38 -98 -20 -141 20 -49 79 -60 123 -23 32 28
21 43 -29 40 -30 -2 -48 1 -51 9 -3 8 13 13 49 15 l53 3 -3 35 c-5 68 -72 102
-122 62z"/>
<path d="M15811 3084 c-23 -29 -29 -110 -11 -144 14 -26 67 -42 93 -28 25 13
37 27 37 46 0 10 -11 12 -44 7 -34 -6 -44 -4 -49 9 -5 13 3 16 50 16 l56 0 -6
42 c-10 75 -84 105 -126 52z"/>
<path d="M10960 2110 c0 -5 11 -10 24 -10 14 0 28 -4 31 -10 3 -5 11 -10 16
-10 6 0 8 3 6 8 -3 4 1323 7 2946 7 3109 0 3217 1 3217 16 0 5 -1169 9 -3120
9 -2073 0 -3120 -3 -3120 -10z"/>
<path d="M10381 877 c-17 -56 -26 -173 -14 -180 13 -8 47 68 38 84 -5 7 -4 10
3 5 6 -3 16 -23 23 -44 6 -20 17 -44 24 -52 7 -8 22 -33 33 -55 l20 -40 7 35
c6 31 -2 54 -55 160 -33 68 -62 125 -63 126 -1 2 -8 -16 -16 -39z"/>
</g>
</svg>
