<?xml version="1.0" standalone="no"?>
<!DOCTYPE svg PUBLIC "-//W3C//DTD SVG 20010904//EN"
 "http://www.w3.org/TR/2001/REC-SVG-20010904/DTD/svg10.dtd">
<svg version="1.0" xmlns="http://www.w3.org/2000/svg"
 width="1857.000000pt" height="2048.000000pt" viewBox="0 0 1857.000000 2048.000000"
 preserveAspectRatio="xMidYMid meet">
<metadata>
Created by potrace 1.16, written by Peter Selinger 2001-2019
</metadata>
<g transform="translate(0.000000,2048.000000) scale(0.100000,-0.100000)"
fill="#000000" stroke="none">
<path d="M3700 18246 c0 -8 -3 -23 -7 -33 -6 -16 -5 -16 10 -4 9 7 17 20 17
27 0 11 28 14 140 14 137 0 182 -11 103 -26 -21 -4 -42 -9 -48 -13 -5 -3 -36
-7 -67 -8 -83 -4 -98 -6 -98 -16 0 -5 14 -7 31 -3 17 3 61 6 98 6 46 0 62 3
51 10 -12 8 -10 10 10 10 14 -1 34 -8 45 -16 19 -15 19 -15 -10 -9 -23 5 -15
-3 33 -31 34 -21 64 -46 67 -55 3 -10 13 -20 21 -23 8 -3 12 -2 9 4 -3 6 3 10
15 10 13 0 19 -4 14 -12 -4 -7 -3 -8 5 -4 17 11 48 -2 54 -22 3 -9 8 -25 12
-35 6 -13 3 -16 -9 -11 -9 3 -16 12 -16 20 0 8 -4 14 -9 14 -5 0 -12 8 -14 18
-4 13 -5 12 -6 -5 0 -12 4 -25 9 -28 6 -3 10 -16 10 -28 0 -17 2 -19 10 -7 19
31 21 -2 4 -89 -9 -49 -21 -88 -26 -85 -5 4 -7 12 -4 20 13 34 -4 9 -27 -38
-33 -71 -38 -88 -27 -88 5 0 13 12 16 28 4 15 11 35 16 46 8 15 12 16 19 5 11
-18 11 -32 0 -25 -5 4 -12 -12 -16 -35 -4 -23 -16 -50 -26 -60 -10 -10 -19
-26 -19 -34 0 -8 -4 -15 -10 -15 -5 0 -7 -6 -4 -13 3 -8 -2 -20 -11 -27 -8 -7
-15 -17 -15 -23 0 -5 -12 -25 -26 -44 -14 -19 -24 -37 -21 -39 7 -7 58 68 89
131 13 28 29 59 35 70 37 69 76 213 88 321 l7 60 -62 32 c-34 18 -65 30 -70
27 -5 -3 -12 0 -16 6 -4 8 -3 9 4 5 7 -4 12 -3 12 3 0 16 -18 22 -23 9 -4 -10
-7 -11 -18 0 -9 9 -10 12 -1 12 7 0 12 4 12 8 0 5 -13 8 -28 7 -25 -1 -28 1
-24 22 4 19 0 23 -19 24 l-24 0 24 10 c13 5 25 8 25 7 1 -2 7 -14 13 -28 11
-23 12 -23 12 -4 1 11 -2 24 -6 28 -5 4 -8 13 -8 19 0 9 -47 13 -162 15 -137
2 -163 0 -163 -12z"/>
<path d="M3156 18218 c-3 -18 -10 -64 -15 -103 -6 -38 -19 -128 -31 -200 -54
-328 -79 -495 -86 -560 -8 -83 -11 -102 -19 -115 -4 -6 -67 -10 -155 -10 -95
0 -151 -4 -155 -11 -11 -16 3 -23 19 -10 11 9 55 12 155 10 83 -2 144 0 150 6
5 6 13 56 17 113 4 56 10 102 14 102 4 0 7 6 7 13 -4 38 38 288 49 298 8 6 14
17 14 23 0 6 -5 4 -11 -4 -12 -18 -4 63 16 155 7 33 21 116 30 185 9 69 22
128 28 132 8 5 6 8 -5 8 -12 0 -19 -11 -22 -32z"/>
<path d="M2807 18220 c-3 -14 -8 -52 -11 -85 -3 -33 -12 -100 -21 -150 -17
-93 -21 -116 -54 -345 -25 -169 -40 -262 -51 -320 l-9 -45 3 53 c2 32 0 48 -5
40 -19 -29 -3 -126 16 -106 4 4 11 42 16 85 5 43 16 116 24 163 8 47 20 121
25 165 6 44 20 134 31 200 36 216 49 320 46 345 l-3 25 -7 -25z"/>
<path d="M1320 15213 c-51 -18 -63 -30 -92 -92 -40 -85 0 -204 79 -237 18 -8
59 -14 91 -14 46 0 65 5 92 25 21 16 28 25 18 25 -9 0 -18 6 -21 13 -3 9 -7 9
-20 -2 -10 -7 -17 -18 -17 -23 0 -6 7 -5 15 2 9 7 17 11 20 8 2 -2 -4 -12 -15
-21 -11 -9 -22 -12 -25 -6 -4 5 -11 7 -16 3 -12 -7 -69 5 -69 15 0 5 11 6 24
4 27 -6 66 12 66 29 0 9 -3 9 -12 0 -22 -22 -84 -14 -117 14 -28 23 -31 32
-32 82 -1 46 -2 52 -9 30 -13 -43 4 -95 42 -128 18 -16 29 -30 23 -30 -5 0 1
-7 15 -16 25 -15 25 -15 -10 -8 -40 7 -74 23 -67 31 3 2 15 0 26 -7 13 -6 21
-7 21 -1 0 11 -39 26 -46 18 -10 -10 -50 40 -52 64 -7 89 -4 120 15 137 11 9
23 24 27 32 3 8 4 4 0 -10 -3 -14 -7 -36 -9 -50 -2 -19 -1 -19 2 -2 5 23 23
31 23 10 1 -7 7 -1 16 14 24 45 79 62 124 38 16 -8 18 -8 14 5 -4 10 -20 15
-49 15 -30 0 -45 5 -49 16 -5 12 -1 14 17 9 17 -5 19 -4 7 4 -11 8 -5 11 28
11 36 0 45 -4 49 -21 4 -15 8 -17 14 -8 5 9 16 5 38 -17 27 -25 31 -36 31 -79
0 -36 3 -46 10 -35 20 32 15 -51 -6 -94 -18 -37 -11 -46 10 -14 53 81 15 212
-74 258 -46 24 -88 24 -150 3z"/>
<path d="M3768 15213 c72 -22 82 -46 82 -209 l0 -124 -24 0 c-24 0 -24 0 -28
129 -3 121 -5 131 -26 152 -25 23 -53 28 -89 15 -14 -4 -23 -3 -23 2 0 6 19
14 43 18 33 5 38 8 22 14 -11 4 -23 3 -26 -3 -4 -5 -11 -7 -17 -3 -14 9 -33
-19 -26 -38 4 -11 1 -16 -11 -16 -9 0 -13 5 -10 10 3 6 1 10 -5 10 -6 0 -8
-10 -4 -25 4 -18 3 -25 -6 -23 -7 2 -15 -4 -17 -12 -4 -13 -3 -13 7 0 9 12 10
7 6 -25 -3 -22 -6 -77 -6 -122 0 -82 0 -83 -25 -83 -24 0 -25 2 -25 73 0 139
12 257 26 257 7 0 18 -8 23 -17 9 -16 10 -16 11 5 0 19 -5 22 -35 22 l-35 0 0
-175 0 -175 40 0 40 0 0 124 0 124 31 26 c37 31 79 33 105 5 15 -17 19 -41 22
-150 l4 -129 34 0 34 0 0 140 c0 86 -5 149 -12 165 -13 29 -66 55 -107 54 -18
0 -10 -5 27 -16z"/>
<path d="M5063 15214 c-24 -9 -43 -22 -43 -30 0 -8 -4 -14 -9 -14 -15 0 -41
-78 -40 -123 1 -53 12 -86 23 -68 5 7 3 18 -3 24 -6 6 -11 17 -11 25 0 12 2
12 17 1 15 -13 16 -9 9 49 -6 51 -4 63 8 68 9 3 16 12 16 20 0 33 140 60 168
32 7 -7 12 -8 12 -4 0 5 10 -3 21 -18 12 -15 18 -30 14 -34 -4 -4 -13 1 -20
11 -26 36 -165 32 -165 -5 0 -6 8 -4 18 5 23 21 86 22 106 1 11 -11 16 -12 16
-3 0 7 11 -2 25 -21 14 -19 26 -31 26 -27 2 9 6 25 9 35 3 9 17 -47 19 -75 1
-16 -5 -23 -18 -23 -20 0 -31 19 -31 55 0 12 -6 25 -14 28 -11 4 -11 -2 1 -35
14 -42 9 -66 -8 -35 -14 24 -99 25 -99 1 0 -13 -7 -15 -32 -10 -24 4 -29 3
-18 -4 8 -5 64 -10 124 -10 l109 0 -6 49 c-7 56 -41 115 -76 131 -41 19 -104
20 -148 4z"/>
<path d="M3360 15210 c0 -5 14 -10 31 -10 l30 0 -3 -194 c-3 -187 -4 -195 -26
-219 -24 -26 -75 -27 -66 -2 4 10 -3 11 -33 4 -42 -9 -73 -3 -88 18 -6 8 -30
17 -53 20 -38 5 -42 3 -42 -15 0 -43 66 -82 149 -88 l56 -4 -63 15 c-58 13
-122 49 -114 62 2 3 -2 10 -10 15 -9 7 -5 8 12 4 14 -3 33 -6 43 -6 14 0 17
-5 12 -22 -4 -14 -3 -18 2 -11 6 8 14 9 23 3 8 -6 33 -10 55 -11 22 0 51 -4
65 -8 l25 -7 -25 -8 c-20 -6 -21 -9 -8 -13 27 -7 69 28 89 75 16 37 19 70 19
228 l0 184 -40 0 c-22 0 -40 -4 -40 -10z"/>
<path d="M14738 14078 c34 -35 63 -67 64 -73 2 -5 6 -9 10 -8 12 4 69 -58 62
-68 -3 -5 -2 -9 3 -8 17 4 43 -14 43 -29 0 -13 -3 -12 -20 3 -32 29 -23 7 10
-25 34 -34 53 -41 25 -10 -10 11 -14 20 -8 20 13 0 194 -182 188 -188 -3 -3
-16 5 -30 18 -14 13 -28 20 -32 17 -3 -4 -1 -7 5 -7 16 0 15 -27 0 -33 -7 -2
6 -3 29 -2 49 2 76 -10 54 -24 -8 -5 -10 -14 -6 -22 7 -10 10 -9 15 5 5 14 16
7 65 -44 33 -34 59 -66 58 -71 -2 -5 0 -8 5 -7 9 3 82 -71 82 -84 0 -5 5 -6
10 -3 6 3 10 2 10 -4 0 -5 6 -16 13 -23 7 -7 18 -22 25 -33 9 -16 11 -17 12
-4 0 9 -28 47 -62 85 -99 110 -672 684 -683 684 -5 0 18 -28 53 -62z"/>
<path d="M12985 13093 c8 -100 25 -442 24 -488 l-2 -40 -7 40 c-7 39 -7 38 -9
-16 -1 -61 -16 -78 -51 -59 -26 14 -30 32 -30 131 l0 90 -32 -3 -33 -3 -3 -70
c-7 -152 15 -199 94 -200 l49 -1 -2 -40 -2 -39 11 43 c6 23 14 42 18 42 4 0
11 -19 15 -42 4 -24 10 -35 12 -26 3 10 14 20 26 23 56 11 59 14 15 12 -33 -2
-48 2 -48 10 0 9 16 13 48 13 26 0 42 4 35 8 -9 5 -13 51 -15 147 l-3 139 -42
0 -43 0 -1 125 c-1 134 -5 192 -14 229 -4 16 -1 22 12 22 15 0 16 2 3 10 -28
18 -31 10 -25 -57z"/>
<path d="M547 12853 c-4 -3 -7 -89 -7 -190 l0 -183 104 0 c90 0 107 3 137 23
50 33 69 79 69 164 0 107 -33 162 -109 183 -40 11 -184 14 -194 3z m188 -70
c60 -22 59 -214 0 -237 -9 -3 -41 -6 -71 -6 l-54 0 0 123 c0 68 3 127 8 131 7
8 89 0 117 -11z"/>
<path d="M2460 12853 c0 -5 -2 -90 -5 -190 l-5 -183 39 0 40 0 -2 93 c-2 111
7 130 62 125 l36 -3 3 -107 3 -108 34 0 35 0 0 111 c0 110 0 111 -30 141 -27
26 -35 29 -68 23 -20 -4 -45 -14 -54 -22 -20 -18 -20 -16 -23 42 -4 87 -3 85
-35 85 -16 0 -30 -3 -30 -7z"/>
<path d="M3330 12852 c0 -13 -51 -66 -82 -85 -18 -11 -28 -26 -28 -41 0 -35 9
-37 50 -11 21 13 41 21 44 18 3 -4 6 -62 6 -130 l0 -123 30 0 29 0 3 180 c2
99 2 185 0 190 -4 12 -52 14 -52 2z"/>
<path d="M3575 12846 c-17 -7 -39 -21 -48 -30 -25 -25 -22 -84 6 -114 15 -18
18 -26 9 -29 -18 -7 -42 -58 -42 -90 0 -103 147 -152 214 -72 37 43 36 112 0
146 l-26 24 21 23 c69 73 -36 185 -134 142z"/>
<path d="M4907 12854 c-4 -4 -7 -90 -7 -191 l0 -183 35 0 35 0 -2 188 -3 187
-25 3 c-14 2 -29 0 -33 -4z"/>
<path d="M5243 12840 c-40 -21 -71 -69 -57 -91 9 -15 64 -11 64 5 0 16 37 46
57 46 21 0 43 -31 43 -62 0 -22 -11 -41 -37 -68 -95 -96 -113 -117 -128 -152
l-15 -38 125 0 126 0 -3 33 c-2 17 -9 33 -15 33 -7 1 -39 2 -70 3 l-58 2 52
49 c69 64 93 105 93 157 0 34 -5 46 -31 67 -17 14 -38 26 -47 26 -9 0 -26 3
-37 5 -11 3 -39 -4 -62 -15z"/>
<path d="M5555 12847 c-16 -5 -37 -20 -47 -31 -41 -51 -50 -215 -14 -284 37
-73 133 -81 183 -16 24 32 27 47 31 125 3 69 0 100 -13 135 -25 65 -79 93
-140 71z m72 -77 c19 -38 17 -190 -3 -218 -25 -35 -56 -25 -72 23 -19 56 -11
178 13 205 23 26 46 22 62 -10z"/>
<path d="M5846 12845 c-50 -17 -66 -34 -69 -71 -2 -26 1 -29 31 -32 23 -2 32
1 32 12 0 9 11 23 25 32 23 15 27 15 50 0 46 -30 31 -74 -53 -151 -51 -47
-102 -118 -102 -143 0 -9 37 -12 126 -12 l125 0 -3 33 -3 32 -60 1 c-33 1 -66
2 -74 3 -8 1 18 31 57 69 54 51 72 76 77 104 18 95 -62 156 -159 123z"/>
<path d="M6171 12821 c-17 -21 -44 -44 -61 -51 -25 -10 -30 -18 -30 -47 l0
-35 44 25 c25 14 47 22 50 19 3 -3 6 -61 6 -129 l0 -123 35 0 35 0 0 174 c0
96 -3 181 -6 190 -10 27 -41 18 -73 -23z"/>
<path d="M6967 12853 c-4 -3 -7 -89 -7 -190 l0 -183 35 0 35 0 0 190 0 190
-28 0 c-16 0 -32 -3 -35 -7z"/>
<path d="M8177 12853 c-4 -3 -7 -89 -7 -190 l0 -183 35 0 35 0 0 190 0 190
-28 0 c-16 0 -32 -3 -35 -7z"/>
<path d="M11297 12853 c-4 -3 -7 -89 -7 -190 l0 -183 35 0 35 0 0 190 0 190
-28 0 c-16 0 -32 -3 -35 -7z"/>
<path d="M11675 12846 c-45 -20 -69 -46 -88 -94 -34 -85 -12 -193 48 -240 61
-48 165 -52 245 -10 l40 22 0 78 0 78 -80 0 -80 0 0 -29 c0 -28 3 -30 43 -33
35 -2 43 -7 45 -25 2 -16 -6 -28 -30 -43 -51 -31 -94 -26 -134 14 -32 32 -34
37 -34 106 0 66 2 74 29 101 24 23 38 29 74 29 38 0 49 -5 70 -30 21 -25 30
-29 56 -24 17 4 31 12 31 19 0 22 -42 67 -76 81 -42 18 -120 17 -159 0z"/>
<path d="M12000 12671 l0 -191 35 0 35 0 0 94 c0 108 11 129 64 124 l31 -3 3
-107 3 -108 33 0 33 0 7 69 c13 126 -7 186 -66 202 -34 9 -45 7 -73 -10 l-34
-20 -3 67 -3 67 -32 3 -33 3 0 -190z"/>
<path d="M13205 12759 c-56 -16 -78 -91 -42 -140 10 -13 75 -39 135 -55 18 -5
15 -22 -7 -29 -23 -7 -51 3 -51 20 0 16 -35 25 -71 18 -35 -7 -38 -29 -9 -65
28 -37 72 -51 136 -46 66 6 101 35 110 90 5 30 2 41 -19 62 -14 13 -23 26 -22
28 2 2 -11 4 -28 4 -19 1 -38 10 -50 25 -14 16 -18 18 -14 7 4 -10 3 -18 -1
-18 -13 0 -48 29 -35 30 6 0 18 2 25 5 8 3 25 -3 38 -15 25 -21 84 -27 95 -9
4 5 2 23 -5 39 -20 49 -107 72 -185 49z"/>
<path d="M1178 12748 c-16 -5 -28 -14 -28 -19 0 -5 -4 -9 -10 -9 -5 0 -10 7
-10 15 0 10 -10 15 -30 15 l-30 0 0 -135 0 -135 29 0 29 0 4 94 c4 104 15 126
58 126 36 0 40 -12 40 -126 l0 -94 35 0 35 0 0 88 c0 98 14 132 56 132 34 0
44 -32 44 -136 l0 -84 36 0 37 0 -5 115 c-3 92 -8 118 -22 134 -29 32 -70 36
-116 10 -27 -16 -44 -20 -48 -13 -9 15 -47 34 -64 33 -7 0 -25 -5 -40 -11z"/>
<path d="M1588 12745 c-27 -15 -48 -43 -48 -64 0 -17 57 -13 64 4 3 9 18 15
39 15 41 0 66 -23 48 -44 -6 -7 -30 -16 -52 -20 -111 -18 -152 -98 -77 -150
29 -21 61 -20 106 1 26 12 37 14 40 5 2 -7 17 -12 34 -12 29 0 30 2 24 31 -3
17 -6 71 -6 120 0 82 -2 90 -24 104 -35 23 -115 29 -148 10z"/>
<path d="M1950 12749 c-13 -6 -28 -15 -32 -22 -5 -9 -11 -7 -21 6 -8 12 -22
18 -38 15 -24 -3 -24 -3 -27 -135 l-3 -133 35 0 34 0 4 94 c4 103 15 126 57
126 44 0 51 -16 51 -122 l0 -98 35 0 35 0 0 109 c0 100 -2 112 -22 135 -27 28
-72 39 -108 25z"/>
<path d="M2210 12739 c-42 -26 -47 -32 -61 -83 -16 -57 4 -130 43 -157 41 -30
110 -36 143 -15 36 24 68 78 52 88 -25 16 -57 8 -67 -16 -12 -32 -45 -42 -74
-23 -31 21 -41 85 -22 132 13 31 19 35 50 35 25 0 38 -6 46 -20 8 -16 17 -19
38 -14 15 4 28 8 30 10 9 7 -23 47 -51 64 -41 26 -83 25 -127 -1z"/>
<path d="M2830 12742 c-84 -45 -95 -179 -20 -247 17 -15 36 -20 82 -20 53 0
63 3 84 28 30 36 30 45 -2 53 -18 5 -30 1 -45 -15 -11 -11 -28 -21 -38 -21
-22 0 -61 40 -61 63 0 15 12 17 90 17 90 0 90 0 90 25 0 98 -98 161 -180 117z"/>
<path d="M4015 12753 c-29 -7 -65 -44 -65 -65 0 -23 42 -25 60 -2 9 10 26 14
49 12 28 -2 37 -8 39 -25 3 -22 -1 -25 -101 -49 -29 -7 -67 -47 -67 -71 0 -8
8 -28 17 -43 22 -37 78 -49 125 -26 21 11 35 13 42 6 5 -5 23 -10 39 -10 26 0
29 3 23 23 -3 12 -6 65 -6 118 0 92 -1 98 -25 113 -27 18 -97 28 -130 19z"/>
<path d="M4638 12740 c-22 -17 -27 -17 -32 -5 -3 9 -18 15 -36 15 l-30 0 0
-135 0 -135 35 0 35 0 0 78 c0 94 14 126 57 130 24 2 33 9 38 29 7 29 7 28
-21 37 -13 4 -30 -1 -46 -14z"/>
<path d="M6563 12745 c-33 -14 -58 -48 -48 -65 10 -16 55 -12 61 5 4 10 20 15
44 15 31 0 40 -4 45 -21 7 -22 -7 -39 -35 -39 -33 0 -92 -22 -111 -41 -10 -10
-19 -31 -19 -47 0 -66 66 -99 136 -66 27 13 39 15 42 6 2 -7 19 -12 37 -12
l33 0 -10 43 c-5 23 -8 67 -5 97 6 77 -3 102 -43 122 -42 21 -83 22 -127 3z"/>
<path d="M7304 12745 c-42 -19 -65 -57 -71 -119 -6 -57 8 -96 47 -131 16 -14
36 -19 80 -20 51 0 63 4 86 27 17 16 24 32 21 42 -9 22 -49 20 -70 -4 -21 -25
-38 -25 -71 1 -49 39 -32 53 69 59 100 6 98 3 73 82 -9 29 -20 42 -53 58 -47
23 -68 24 -111 5z"/>
<path d="M7623 12752 c-85 -26 -120 -152 -64 -231 26 -36 84 -56 134 -47 36 7
87 54 87 81 0 17 -53 31 -58 15 -7 -20 -41 -50 -56 -50 -8 0 -24 8 -37 19 -19
15 -23 28 -23 75 0 38 5 61 16 72 23 23 68 21 87 -4 12 -15 23 -19 44 -15 31
6 30 4 16 37 -7 14 -28 32 -51 40 -40 17 -59 18 -95 8z"/>
<path d="M7903 12740 c-48 -24 -73 -68 -73 -127 0 -104 98 -170 193 -129 44
18 64 43 78 99 12 43 11 51 -9 91 -38 79 -112 105 -189 66z m110 -57 c41 -46
28 -132 -24 -153 -27 -11 -34 -10 -57 7 -37 27 -44 107 -12 141 25 27 71 29
93 5z"/>
<path d="M8373 12746 c-52 -24 -75 -69 -71 -144 4 -55 8 -67 36 -95 29 -29 38
-32 93 -32 56 0 63 3 85 30 31 38 30 42 -5 50 -23 5 -35 1 -51 -15 -33 -33
-90 -6 -90 42 0 16 10 18 90 18 90 0 90 0 90 25 0 38 -25 92 -52 108 -36 24
-89 29 -125 13z"/>
<path d="M8857 12740 c-26 -21 -29 -21 -41 -5 -7 10 -22 16 -37 13 l-24 -3 0
-185 0 -185 33 -3 32 -3 0 65 c0 50 3 66 14 66 8 0 16 -6 19 -12 2 -8 22 -13
50 -13 80 0 125 63 112 161 -12 99 -95 153 -158 104z m78 -70 c23 -45 19 -97
-10 -125 -29 -30 -49 -31 -74 -6 -29 29 -37 86 -17 127 13 29 21 34 51 34 28
0 37 -5 50 -30z"/>
<path d="M9183 12750 c-13 -5 -23 -14 -23 -20 0 -5 -4 -10 -10 -10 -5 0 -10 7
-10 15 0 10 -10 15 -30 15 l-30 0 0 -135 0 -135 34 0 34 0 4 95 c3 103 11 118
57 113 19 -2 26 3 34 25 5 16 7 30 6 31 -12 11 -47 13 -66 6z"/>
<path d="M9544 12750 c-12 -5 -25 -13 -29 -19 -9 -16 -25 -13 -25 4 0 10 -10
15 -30 15 l-30 0 0 -135 0 -135 35 0 35 0 0 93 c0 107 10 131 55 125 l30 -3 3
-107 3 -108 34 0 35 0 0 75 c0 44 6 90 15 111 13 31 18 35 47 32 l33 -3 3
-107 3 -108 35 0 36 0 -4 114 c-2 93 -6 118 -21 134 -29 32 -64 36 -110 13
-36 -18 -43 -19 -57 -6 -21 19 -69 27 -96 15z"/>
<path d="M9953 12746 c-33 -15 -58 -50 -48 -66 10 -16 55 -12 61 5 4 10 20 15
44 15 30 0 40 -4 45 -21 9 -28 1 -34 -73 -49 -68 -14 -92 -35 -92 -81 0 -15 9
-37 19 -50 16 -20 28 -24 72 -23 31 0 54 5 57 12 5 15 32 16 32 2 0 -5 15 -10
33 -10 l32 0 -3 78 c-4 129 -11 161 -36 177 -34 22 -106 28 -143 11z"/>
<path d="M10437 12739 c-24 -18 -28 -18 -33 -5 -4 10 -18 16 -35 16 l-29 0 0
-135 0 -135 35 0 35 0 0 78 c0 94 14 127 55 127 22 1 31 7 38 29 10 31 10 31
-19 40 -14 4 -30 -1 -47 -15z"/>
<path d="M10604 12740 c-72 -36 -98 -141 -51 -211 32 -47 62 -61 121 -55 74 8
127 65 74 80 -36 9 -48 7 -48 -8 0 -8 -12 -17 -26 -20 -31 -8 -74 25 -74 56 0
16 10 18 90 18 l90 0 0 30 c0 96 -91 153 -176 110z"/>
<path d="M11064 12753 c-12 -2 -34 -17 -50 -34 -23 -24 -29 -40 -32 -93 -5
-78 14 -121 63 -142 44 -18 79 -18 119 1 30 14 62 52 53 62 -11 10 -67 14 -67
4 0 -16 -39 -33 -60 -26 -22 7 -53 58 -43 69 4 3 47 6 96 6 l89 0 -7 36 c-11
60 -26 83 -70 104 -41 20 -50 21 -91 13z"/>
<path d="M12407 12740 c-24 -19 -28 -19 -33 -6 -4 10 -18 16 -35 16 l-29 0 0
-135 0 -135 35 0 35 0 0 75 c0 90 19 138 53 133 12 -1 28 1 35 5 14 9 17 57 3
57 -5 0 -16 2 -23 5 -8 3 -26 -4 -41 -15z"/>
<path d="M12606 12750 c-77 -24 -120 -125 -82 -198 30 -57 62 -76 127 -77 58
0 62 2 100 42 33 36 39 49 39 87 0 52 -22 104 -54 127 -27 21 -93 30 -130 19z
m94 -70 c34 -34 22 -127 -19 -150 -48 -25 -101 23 -101 93 0 64 77 100 120 57z"/>
<path d="M927 12743 c-4 -3 -7 -64 -7 -135 l0 -128 35 0 35 0 0 135 0 135 -28
0 c-16 0 -32 -3 -35 -7z"/>
<path d="M4220 12744 c0 -3 23 -64 52 -135 51 -128 52 -129 84 -129 29 0 34 4
45 38 6 20 15 42 19 47 10 13 70 165 70 176 0 5 -15 9 -33 9 -31 0 -33 -3 -60
-73 -15 -41 -27 -79 -27 -85 0 -30 -19 -16 -35 26 -48 132 -48 132 -82 132
-18 0 -33 -3 -33 -6z"/>
<path d="M4750 12615 l0 -135 35 0 35 0 0 135 0 135 -35 0 -35 0 0 -135z"/>
<path d="M9289 12746 c-2 -2 -3 -63 -1 -135 l3 -131 32 0 32 0 0 135 0 135
-31 0 c-17 0 -33 -2 -35 -4z"/>
<path d="M10200 12616 l0 -136 36 0 36 0 -4 133 -4 132 -32 3 -32 3 0 -135z"/>
<path d="M10766 11278 c-61 -31 -112 -85 -137 -144 -17 -42 -19 -60 -11 -77
15 -34 73 -97 88 -97 8 0 14 -4 14 -9 0 -12 86 -41 120 -41 42 0 124 28 147
50 12 11 27 20 33 20 5 0 10 4 10 9 0 5 6 16 13 23 7 7 25 36 40 65 33 64 28
82 -40 144 -85 76 -195 99 -277 57z m226 -97 c24 -26 38 -49 38 -66 0 -32 -32
-97 -63 -126 -52 -50 -150 -74 -200 -48 -56 29 -107 101 -107 151 0 17 55 108
65 108 2 0 -1 -15 -6 -32 -33 -116 21 -218 115 -218 84 0 136 56 136 146 0 53
-16 104 -32 104 -4 0 -8 5 -8 10 0 20 24 9 62 -29z"/>
<path d="M11271 11138 c-36 -202 -44 -393 -21 -554 31 -222 35 -197 36 218 1
219 0 398 -1 398 -2 0 -8 -28 -14 -62z"/>
<path d="M9763 11116 c-61 -20 -108 -52 -148 -101 l-36 -43 17 -43 c37 -96
105 -160 190 -179 53 -12 137 -4 127 13 -3 6 -1 7 6 3 32 -20 161 94 161 143
0 53 -85 162 -153 196 -43 22 -116 27 -164 11z m-23 -65 c0 -6 -4 -13 -10 -16
-25 -15 -7 -22 19 -7 25 14 33 14 54 3 45 -24 45 -88 0 -112 -36 -19 -76 5
-84 51 -5 27 -7 21 -8 -28 -1 -55 3 -69 27 -102 52 -74 150 -73 203 1 20 29
24 45 23 107 0 39 1 72 3 72 7 0 53 -81 53 -95 0 -25 -36 -88 -67 -116 -49
-46 -113 -53 -183 -21 -49 22 -65 37 -99 94 -34 58 -31 92 14 139 39 39 55 48
55 30z"/>
<path d="M10635 10484 c-255 -38 -456 -121 -482 -198 -46 -132 -19 -204 122
-337 167 -157 335 -258 428 -259 35 0 48 -12 28 -25 -5 -3 -12 -18 -16 -34 -8
-39 -108 -147 -159 -173 -30 -15 -60 -21 -108 -21 -58 0 -79 6 -150 40 -111
54 -180 111 -234 193 -24 38 -44 71 -44 74 0 12 -103 172 -116 179 -8 4 -14
15 -14 22 0 8 -7 15 -15 15 -19 0 -19 2 2 67 28 90 -16 97 -75 10 -52 -76 -72
-177 -34 -177 10 0 23 5 29 11 16 16 66 -13 110 -66 39 -46 60 -80 109 -170
14 -27 35 -62 45 -77 11 -14 19 -29 19 -33 0 -4 21 -38 47 -77 94 -141 283
-282 453 -338 50 -17 97 -30 105 -30 8 0 15 -4 15 -10 0 -21 178 -190 221
-209 67 -31 112 -28 143 10 50 59 57 92 57 252 0 114 3 156 16 185 39 91 48
123 68 236 8 49 15 91 15 94 0 3 -17 -12 -37 -33 -97 -97 -188 -85 -321 40
l-77 74 90 88 c50 48 104 106 120 128 17 22 35 46 42 53 7 7 29 47 50 89 36
72 38 82 37 164 -1 83 -3 90 -36 136 -19 26 -54 61 -78 78 -44 29 -46 29 -195
31 -82 1 -163 0 -180 -2z m-40 -85 c92 -43 102 -152 20 -221 -33 -28 -122 -58
-173 -58 -59 0 -144 39 -169 76 -29 45 -21 109 18 150 77 79 201 101 304 53z"/>
<path d="M17820 9887 c0 -26 5 -47 10 -47 6 0 10 -73 10 -200 0 -110 -4 -200
-9 -200 -5 0 -12 -46 -16 -102 -4 -56 -11 -113 -17 -127 -10 -27 -34 -134 -45
-206 -3 -22 -12 -46 -19 -53 -7 -7 -16 -29 -20 -50 -4 -20 -10 -41 -14 -47 -5
-5 -11 -28 -14 -50 -6 -34 -3 -30 19 25 13 36 25 69 25 73 0 5 6 23 14 40 15
33 45 155 66 262 6 33 16 82 22 109 26 116 25 583 -1 609 -8 8 -11 -1 -11 -36z"/>
<path d="M11636 9243 c-3 -16 -10 -59 -16 -98 -5 -38 -12 -81 -15 -95 -3 -14
-13 -99 -22 -190 -20 -197 -24 -933 -6 -972 6 -13 16 -34 22 -48 10 -24 10
-23 3 5 -4 17 -7 45 -6 63 0 18 -2 28 -6 22 -4 -6 -10 92 -13 218 -7 247 2
588 14 557 4 -11 5 5 2 35 -5 56 5 158 32 335 22 142 28 195 22 195 -3 0 -8
-12 -11 -27z"/>
<path d="M14357 6816 c-99 -53 -137 -132 -137 -281 0 -52 4 -95 9 -95 5 0 11
5 13 11 3 8 24 9 79 1 218 -29 337 58 343 251 2 58 3 61 33 71 18 6 34 14 37
17 14 14 -117 41 -219 46 -104 5 -113 3 -158 -21z m198 -71 c47 -19 65 -42 65
-83 0 -43 -28 -109 -56 -134 -29 -25 -104 -56 -144 -59 -75 -5 -92 1 -131 40
-34 33 -39 45 -39 83 0 126 167 209 305 153z"/>
<path d="M14397 6736 c-51 -19 -65 -32 -78 -76 -16 -53 2 -103 49 -135 91 -62
222 7 207 108 -13 89 -92 134 -178 103z"/>
<path d="M13360 6726 c-92 -36 -160 -73 -160 -86 0 -5 19 -10 41 -12 46 -3 50
-7 79 -89 55 -153 213 -210 387 -143 37 15 83 27 101 28 33 1 33 1 26 41 -10
61 -57 157 -100 205 -88 98 -218 117 -374 56z m271 -48 c39 -9 65 -23 96 -53
40 -38 43 -46 43 -92 0 -91 -59 -137 -175 -137 -110 0 -185 43 -220 126 -23
56 -19 74 24 110 63 52 139 67 232 46z"/>
<path d="M13488 6645 c-63 -43 -72 -128 -19 -181 31 -32 61 -44 106 -44 87 0
155 70 140 146 -16 90 -145 135 -227 79z"/>
<path d="M14138 6304 c-4 -3 -55 -9 -114 -12 -86 -6 -109 -10 -118 -24 -16
-27 4 -51 52 -63 22 -5 49 -17 59 -25 54 -46 51 -46 92 -2 22 23 55 48 75 56
37 16 47 41 24 64 -12 12 -60 17 -70 6z"/>
<path d="M10690 5400 c0 -22 -4 -40 -9 -40 -5 0 -12 -8 -14 -17 -4 -17 -5 -17
-6 0 -2 27 -21 20 -21 -9 0 -14 4 -23 10 -19 6 3 10 -3 10 -14 0 -18 -6 -21
-50 -21 l-50 0 0 -74 c0 -41 4 -77 9 -81 5 -3 17 13 27 35 10 22 23 40 30 40
6 0 15 11 18 25 4 14 15 34 25 44 11 11 22 33 26 50 4 17 14 35 22 40 12 6 14
17 9 45 -10 51 -36 49 -36 -4z"/>
<path d="M10240 5320 l0 -40 -80 0 -80 0 0 -40 0 -40 -80 0 -80 0 0 -40 0 -40
-40 0 -40 0 0 -40 0 -40 -80 0 -80 0 0 -40 0 -40 -80 0 -80 0 0 -35 c0 -44
-21 -125 -33 -125 -12 0 2 73 15 81 6 4 6 18 0 40 -7 26 -6 38 4 47 8 8 14 32
13 60 0 35 -3 42 -9 27 -5 -11 -9 -34 -9 -52 -1 -17 -5 -34 -10 -37 -4 -3 -11
-25 -13 -49 -3 -23 -12 -58 -21 -77 -8 -19 -18 -63 -22 -97 -6 -63 -26 -162
-43 -218 -5 -16 -7 -48 -4 -69 l5 -40 18 35 c19 36 27 107 9 79 -8 -12 -10
-11 -10 6 0 11 4 24 9 30 5 5 11 20 14 34 7 40 8 -71 1 -139 l-7 -61 -33 0
c-28 0 -34 -4 -35 -22 -2 -69 -34 -397 -44 -456 -6 -32 -5 -32 22 -26 15 3 33
13 40 21 6 8 17 12 24 7 8 -4 10 -3 5 4 -4 7 -1 12 9 12 15 0 63 29 92 57 7 6
22 9 34 6 12 -3 24 -1 28 5 4 6 45 37 91 68 46 31 102 76 123 100 21 24 43 44
48 44 17 0 189 177 189 194 0 9 18 29 40 45 23 16 36 32 30 36 -5 3 -10 16
-10 28 1 21 1 21 15 3 14 -19 35 -14 35 9 0 7 -6 16 -12 18 -7 3 1 4 17 4 26
-2 30 1 27 22 -3 16 0 21 8 16 18 -11 31 17 17 34 -10 12 -9 14 6 8 20 -8 47
1 47 16 0 5 11 25 25 43 14 18 25 38 25 44 0 6 7 13 15 16 8 4 15 10 15 16 0
11 40 64 86 115 19 20 36 45 40 55 3 10 12 18 20 18 8 0 14 8 14 19 0 10 7 24
15 31 8 7 15 21 15 31 0 10 11 26 25 35 32 21 32 33 0 27 -33 -7 -55 18 -55
61 0 35 -1 36 -40 36 l-40 0 0 40 c0 29 4 40 15 40 9 0 15 9 15 24 0 53 -6 56
-101 56 l-89 0 0 -40z"/>
<path d="M10666 5015 c-7 -34 -10 -37 -16 -20 -7 17 -9 17 -9 3 -1 -16 -42
-78 -145 -218 -23 -30 -43 -57 -46 -60 -3 -3 -17 -21 -30 -40 -13 -19 -30 -41
-37 -48 -7 -7 -13 -17 -13 -20 0 -4 -10 -18 -23 -32 -12 -14 -34 -41 -47 -60
-21 -30 -71 -87 -122 -142 -10 -10 -18 -20 -18 -23 0 -6 -189 -195 -195 -195
-2 0 -21 -16 -42 -35 -21 -19 -46 -38 -56 -41 -34 -11 -57 -43 -57 -79 0 -47
28 -231 42 -275 6 -19 25 -75 43 -124 l32 -88 7 64 c7 68 40 171 56 176 6 2
10 8 10 14 0 17 41 68 54 68 10 0 10 -14 3 -62 -17 -103 21 -329 78 -463 25
-58 106 -219 114 -225 4 -3 12 -16 18 -30 10 -21 12 -12 12 60 1 76 12 123 25
110 16 -16 110 -149 119 -167 5 -13 13 -23 16 -23 4 0 15 -17 26 -37 11 -21
24 -42 28 -48 29 -36 137 -212 137 -224 0 -4 -143 -7 -317 -7 -294 0 -325 -1
-413 -22 -153 -36 -250 -66 -310 -97 -162 -84 -209 -114 -177 -115 9 0 17 5
17 10 0 6 6 10 13 10 6 0 23 9 37 20 30 23 48 26 30 5 -10 -12 -10 -15 1 -15
10 0 9 -4 -3 -17 -12 -11 -37 -17 -75 -19 -32 -1 -61 -2 -65 -3 -3 -1 -9 -14
-13 -29 -4 -21 -16 -32 -40 -42 -34 -13 -41 -26 -37 -73 1 -11 -5 -17 -18 -17
-11 0 -28 -8 -38 -18 -20 -20 -46 -82 -34 -82 4 0 0 -5 -8 -10 -11 -6 -15 -27
-15 -70 -1 -67 10 -79 21 -22 7 35 8 35 15 12 11 -39 10 -50 -3 -48 -9 2 -14
-12 -16 -39 -2 -29 -8 -43 -18 -43 -14 0 -19 38 -14 118 1 17 -3 32 -8 32 -6
0 -10 -10 -10 -22 0 -13 -6 -53 -13 -90 -10 -54 -10 -81 -1 -140 7 -40 13 -88
12 -105 0 -37 16 -45 23 -11 3 17 5 14 6 -10 0 -18 5 -40 10 -50 5 -9 14 -30
21 -47 6 -16 22 -43 35 -60 19 -23 27 -27 37 -17 9 9 9 15 0 24 -16 16 -15 28
3 28 8 0 15 -9 15 -20 0 -22 5 -25 65 -36 22 -3 34 -9 28 -11 -22 -8 -14 -31
13 -37 30 -8 54 8 54 35 0 11 -9 19 -22 21 -15 2 -26 13 -31 33 -5 17 -13 38
-18 47 -5 10 -9 31 -9 48 0 22 -5 30 -18 30 -16 0 -20 14 -30 102 -17 146 -16
218 3 218 8 0 15 6 15 14 0 8 7 21 15 29 9 9 15 39 17 77 1 34 4 57 6 51 5
-16 42 -14 42 2 0 8 11 27 25 43 14 16 27 36 30 44 3 9 17 23 32 32 16 9 39
26 52 37 13 12 37 21 53 21 15 0 28 4 28 9 0 5 24 12 53 16 65 8 150 27 157
36 3 3 22 9 43 13 27 5 37 3 37 -6 0 -7 -38 -49 -85 -94 -59 -57 -83 -87 -79
-98 10 -27 -5 -67 -24 -65 -54 5 -52 12 -54 -173 -1 -148 -2 -159 -7 -76 -3
53 -9 100 -13 104 -5 4 -8 -35 -8 -87 0 -71 5 -108 21 -149 11 -30 24 -66 28
-80 6 -20 13 -24 36 -22 27 4 28 3 23 -36 -7 -45 -3 -52 36 -72 15 -8 32 -24
36 -36 5 -12 21 -24 38 -27 16 -3 36 -12 44 -20 7 -8 30 -17 50 -21 20 -4 38
-11 40 -16 10 -32 354 -36 421 -6 18 8 56 20 85 27 28 7 52 16 52 19 0 3 17
12 38 20 63 23 152 87 152 110 0 6 4 10 9 10 18 0 66 57 79 92 16 44 15 113
-1 160 -7 21 -38 69 -68 108 l-54 70 -60 -1 -60 -1 35 -16 c19 -8 53 -38 75
-66 36 -46 40 -55 40 -111 0 -49 -5 -68 -29 -105 -69 -110 -218 -157 -357
-113 -30 9 -56 19 -59 23 -3 3 -24 18 -47 33 -64 44 -121 106 -149 163 -22 45
-25 62 -21 133 2 44 7 84 11 88 4 4 4 0 0 -10 -3 -10 -1 -17 5 -17 6 0 11 5
11 10 0 11 70 80 81 80 4 0 14 6 21 13 22 22 122 58 204 73 152 28 250 42 327
48 64 5 79 3 84 -9 3 -9 -8 -56 -24 -105 -17 -49 -28 -92 -25 -95 3 -3 23 -5
45 -5 43 0 103 -14 154 -36 17 -8 34 -14 38 -14 13 0 101 -65 131 -97 l31 -33
69 15 c90 19 97 19 151 -6 56 -25 137 -23 197 6 34 16 42 17 70 5 49 -21 117
-23 157 -6 30 13 40 24 53 62 9 26 16 59 16 73 0 37 -55 147 -79 161 -12 6
-21 17 -21 24 0 11 8 12 38 5 37 -8 93 -11 62 -3 -9 3 -20 15 -25 27 -6 12
-36 35 -67 52 -31 16 -71 44 -90 60 -37 34 -206 93 -422 147 l-129 33 -21 45
c-11 25 -24 47 -28 50 -9 7 -68 136 -68 148 0 6 -3 12 -8 14 -8 3 -62 127 -62
141 0 5 -6 23 -14 40 -13 28 -48 131 -91 267 -26 80 -75 311 -105 485 -46 274
-71 573 -79 925 -4 216 -9 302 -15 275z"/>
<path d="M8130 4176 c0 -37 -5 -68 -11 -72 -8 -5 -10 4 -7 28 2 25 0 34 -8 31
-7 -2 -14 1 -17 9 -2 7 -3 4 -1 -7 12 -89 15 -168 9 -240 -6 -75 -9 -85 -26
-85 -15 0 -19 7 -19 31 0 24 4 30 15 25 9 -3 15 0 15 9 0 8 -4 15 -10 15 -13
0 -13 77 -1 85 6 3 12 -16 14 -42 2 -32 4 -19 5 35 1 49 -2 82 -8 82 -5 0 -10
13 -10 29 0 16 -3 36 -6 45 -12 32 -24 3 -24 -57 -1 -100 -18 -251 -29 -255
-6 -2 -11 -25 -11 -51 0 -52 -24 -155 -44 -186 -7 -11 -28 -58 -46 -105 -18
-47 -46 -110 -62 -141 -15 -31 -28 -62 -28 -68 0 -6 -3 -11 -8 -11 -4 0 -13
-13 -20 -29 -12 -28 -71 -122 -82 -131 -3 -3 -14 -16 -23 -29 -47 -69 -146
-173 -223 -236 -27 -22 -51 -42 -54 -46 -15 -20 -254 -149 -276 -149 -8 0 -14
-4 -14 -10 0 -5 -6 -10 -13 -10 -7 0 -33 -9 -58 -20 -43 -20 -53 -25 -94 -48
-11 -6 -111 -56 -222 -111 -202 -100 -244 -122 -253 -131 -5 -5 -33 -21 -93
-54 -26 -14 -137 -86 -152 -98 -5 -5 -21 -18 -35 -29 -14 -11 -47 -41 -75 -67
l-50 -45 35 7 c197 40 536 93 730 112 409 41 588 29 833 -58 70 -25 99 -41
137 -78 53 -51 79 -113 58 -137 -9 -12 -7 -13 15 -8 37 10 436 10 528 1 57 -6
91 -4 137 8 39 10 79 13 108 9 67 -9 152 20 202 69 35 34 42 47 52 107 10 61
9 76 -8 133 -11 35 -29 79 -39 98 -47 84 -188 134 -413 146 -175 9 -530 -21
-770 -66 -115 -22 -154 -25 -146 -11 3 4 19 11 36 14 16 4 51 16 77 28 27 12
71 32 99 45 180 82 366 243 463 401 41 67 108 221 122 281 32 139 36 188 23
253 -15 72 -19 285 -5 293 5 3 12 33 16 66 5 39 12 60 20 60 33 0 64 274 40
351 -6 19 -7 19 -28 -5 -12 -14 -30 -42 -41 -63 -10 -21 -22 -46 -27 -55 -5
-10 -9 -27 -9 -37 0 -11 -4 -22 -9 -26 -5 -3 -17 -29 -27 -58 -9 -28 -19 -58
-22 -66 -4 -10 -1 -13 9 -9 11 4 13 -4 10 -39 -3 -42 -5 -45 -28 -40 -20 4
-25 0 -30 -24 -8 -39 -21 -46 -29 -14 -5 20 -9 23 -20 14 -11 -9 -14 -7 -14
10 0 14 4 20 11 15 12 -7 7 16 -17 75 -8 19 -15 74 -16 125 l-1 91 -7 -80 c-4
-44 -5 -92 -2 -107 3 -17 0 -28 -7 -28 -12 0 -4 231 9 240 11 8 20 160 9 160
-5 0 -9 -29 -9 -64z"/>
<path d="M13556 2718 c-27 -104 -34 -168 -16 -168 6 0 10 21 10 48 0 26 5 54
10 62 6 9 7 -5 3 -43 -4 -39 -2 -57 6 -57 6 0 11 8 11 17 0 9 3 14 6 10 3 -3
20 7 38 23 17 17 39 30 49 30 13 0 17 8 17 33 0 50 -11 59 -58 51 -29 -4 -42
-12 -43 -23 0 -11 -3 -9 -9 7 -10 25 -19 28 -24 10z"/>
<path d="M13578 2524 c12 -9 22 -23 22 -30 0 -8 4 -14 9 -14 15 0 44 -72 52
-125 5 -38 3 -54 -9 -67 -14 -17 -13 -18 22 -18 l36 0 -4 83 c-2 45 -5 103 -5
128 l-1 46 -47 0 c-27 -1 -59 2 -73 6 l-25 8 23 -17z"/>
<path d="M5040 2280 l0 -40 -40 0 -40 0 0 -40 0 -40 -40 0 c-39 0 -40 -1 -40
-33 0 -32 2 -34 51 -45 62 -15 106 -15 114 -2 3 6 19 10 36 10 l29 0 0 115 0
115 -35 0 c-34 0 -35 -1 -35 -40z"/>
<path d="M7840 1850 c0 -5 -18 -10 -40 -10 -22 0 -40 -4 -40 -9 0 -5 -34 -12
-75 -16 -72 -6 -133 -20 -205 -46 -89 -32 -190 -78 -207 -95 -7 -7 -26 -15
-43 -19 -16 -4 -30 -10 -30 -14 0 -13 -130 -41 -187 -41 -28 0 -53 -4 -55 -10
-5 -16 -323 -32 -521 -26 -103 3 -192 8 -196 10 -5 3 -79 6 -165 7 -85 0 -158
5 -161 10 -8 12 -312 12 -319 0 -3 -5 -112 -12 -241 -16 -129 -4 -235 -11
-235 -15 0 -4 -18 -10 -40 -12 -28 -2 -40 0 -40 9 0 7 12 13 28 13 21 1 12 7
-38 28 -64 27 -65 28 -70 8 -4 -15 -8 -17 -14 -8 -4 6 -5 16 -1 21 3 5 1 12
-4 15 -18 12 -23 -15 -11 -64 7 -28 16 -50 21 -50 5 0 9 -6 9 -13 0 -19 98
-65 155 -72 28 -3 64 -9 80 -11 45 -8 559 17 565 27 10 16 709 20 865 5 50 -5
116 -10 148 -11 32 -2 61 -6 64 -9 4 -3 58 -6 122 -5 80 0 110 3 96 10 -14 7
-5 8 35 5 30 -2 61 0 70 4 8 4 40 16 70 25 30 10 72 29 94 43 30 19 46 22 75
17 120 -21 200 -10 260 36 32 25 10 24 -31 -1 -18 -11 -44 -19 -58 -19 -21 1
-19 2 9 9 18 4 36 12 40 18 7 10 51 27 64 24 4 -1 7 3 7 8 0 6 15 10 33 10
l32 1 -30 14 -30 15 29 -4 c33 -4 56 2 56 15 0 5 -12 7 -27 4 -25 -5 -26 -4
-6 4 14 6 34 6 55 1 23 -7 36 -6 44 3 20 21 34 78 34 133 0 47 -2 54 -20 54
-11 0 -20 -4 -20 -10z"/>
<path d="M9440 1514 c0 -8 -3 -13 -7 -13 -49 8 -61 -39 -18 -67 14 -9 25 -20
25 -25 0 -5 -13 0 -30 12 -16 13 -32 20 -36 17 -3 -4 13 -20 37 -37 37 -27 62
-35 107 -34 6 1 12 -4 12 -9 0 -6 -14 -7 -32 -3 -33 7 -33 7 -11 -10 17 -12
27 -13 42 -5 32 17 38 11 11 -11 l-25 -20 40 5 c28 4 32 3 15 -2 -23 -7 -17
-12 61 -50 48 -23 93 -42 101 -42 8 0 18 -4 24 -9 5 -5 23 -11 39 -13 17 -3
24 -3 18 -1 -7 3 -13 11 -13 18 0 10 -11 14 -32 14 -34 -1 -114 28 -105 37 3
3 14 1 24 -4 30 -15 73 -23 73 -13 0 11 -87 31 -105 25 -6 -3 -22 -1 -35 4
-18 7 -25 17 -26 41 l-2 31 26 -27 c14 -15 34 -27 44 -25 10 2 18 -2 18 -7 0
-6 10 -11 22 -11 l21 0 -23 20 c-12 11 -30 22 -39 25 -22 7 -111 89 -111 102
0 5 -12 16 -27 24 -20 11 -27 11 -30 2 -5 -15 -33 -17 -33 -3 0 6 5 10 10 10
6 0 10 13 10 29 0 20 -6 30 -20 34 -13 3 -20 0 -20 -9z"/>
</g>
</svg>
